<?xml version="1.0" encoding="UTF-8"?>
<svg xmlns="http://www.w3.org/2000/svg" xmlns:xlink="http://www.w3.org/1999/xlink" width="133px" height="150px" viewBox="0 0 133 149" version="1.1">
<g id="surface1">
<path style=" stroke:none;fill-rule:nonzero;fill:rgb(98.823529%,76.862746%,84.313726%);fill-opacity:1;" d="M 34.480469 0 L 98.519531 0 C 117.53125 0 133 15.390625 133 34.308594 L 133 114.691406 C 133 133.609375 117.53125 149 98.519531 149 L 34.480469 149 C 15.46875 149 0 133.609375 0 114.691406 L 0 34.308594 C 0 15.390625 15.46875 0 34.480469 0 Z M 34.480469 0 "/>
<path style=" stroke:none;fill-rule:nonzero;fill:rgb(10.588235%,9.803922%,26.666668%);fill-opacity:1;" d="M 119.40625 71.558594 C 119.40625 71.558594 118.320312 98.808594 119.503906 101.359375 C 120.683594 103.808594 124.824219 108.710938 124.824219 108.710938 C 124.824219 108.710938 118.320312 109.984375 115.070312 109.984375 C 111.820312 109.984375 101.769531 106.75 101.769531 106.75 C 101.769531 106.75 109.652344 104.59375 110.046875 97.535156 C 110.4375 90.578125 110.539062 69.011719 110.539062 69.011719 Z M 119.40625 71.558594 "/>
<path style=" stroke:none;fill-rule:nonzero;fill:rgb(41.568628%,40.784314%,80.784315%);fill-opacity:1;" d="M 133 38.230469 C 131.421875 35.878906 128.960938 34.308594 126.105469 34.113281 C 120.882812 33.820312 116.449219 38.523438 116.152344 44.601562 C 115.859375 50.679688 119.796875 55.679688 125.019531 55.972656 C 128.269531 56.167969 131.128906 54.40625 133 51.660156 Z M 133 38.230469 "/>
<path style=" stroke:none;fill-rule:nonzero;fill:rgb(41.568628%,40.784314%,80.784315%);fill-opacity:1;" d="M 132.605469 50.875 C 132.902344 44.796875 128.960938 39.796875 123.738281 39.503906 C 118.519531 39.210938 114.085938 43.914062 113.789062 49.992188 C 113.492188 56.070312 117.433594 61.070312 122.65625 61.363281 C 127.777344 61.660156 132.308594 56.953125 132.605469 50.875 Z M 132.605469 50.875 "/>
<path style=" stroke:none;fill-rule:nonzero;fill:rgb(41.568628%,40.784314%,80.784315%);fill-opacity:1;" d="M 119.996094 30.585938 C 119.699219 36.660156 123.640625 41.660156 128.863281 41.957031 C 129.058594 41.957031 129.257812 41.957031 129.453125 41.957031 C 128.269531 43.71875 127.484375 45.875 127.382812 48.230469 C 127.285156 49.40625 127.484375 50.582031 127.679688 51.660156 C 123.34375 52.445312 119.796875 56.660156 119.503906 61.953125 C 119.207031 68.03125 123.148438 73.03125 128.371094 73.324219 C 129.945312 73.421875 131.523438 73.03125 132.804688 72.246094 L 132.804688 34.308594 C 132.804688 29.210938 131.71875 24.410156 129.75 20.09375 C 124.722656 19.898438 120.292969 24.605469 119.996094 30.585938 Z M 119.996094 30.585938 "/>
<path style=" stroke:none;fill-rule:nonzero;fill:rgb(41.568628%,40.784314%,80.784315%);fill-opacity:1;" d="M 113.199219 31.464844 C 113.492188 25.390625 109.550781 20.390625 104.332031 20.09375 C 99.109375 19.800781 94.675781 24.507812 94.378906 30.585938 C 94.085938 36.660156 98.027344 41.660156 103.246094 41.957031 C 108.46875 42.25 112.902344 37.542969 113.199219 31.464844 Z M 113.199219 31.464844 "/>
<path style=" stroke:none;fill-rule:nonzero;fill:rgb(41.568628%,40.784314%,80.784315%);fill-opacity:1;" d="M 114.378906 43.132812 C 119.503906 43.035156 123.640625 38.035156 123.640625 31.957031 C 123.542969 25.878906 119.304688 20.976562 114.183594 20.976562 C 109.058594 21.074219 104.921875 26.074219 104.921875 32.152344 C 105.019531 38.328125 109.257812 43.230469 114.378906 43.132812 Z M 114.378906 43.132812 "/>
<path style=" stroke:none;fill-rule:nonzero;fill:rgb(41.568628%,40.784314%,80.784315%);fill-opacity:1;" d="M 106.5 53.425781 C 111.621094 53.328125 115.757812 48.328125 115.757812 42.25 C 115.660156 36.171875 111.425781 31.269531 106.300781 31.269531 C 101.179688 31.367188 97.039062 36.367188 97.039062 42.445312 C 97.039062 48.523438 101.375 53.425781 106.5 53.425781 Z M 106.5 53.425781 "/>
<path style=" stroke:none;fill-rule:nonzero;fill:rgb(41.568628%,40.784314%,80.784315%);fill-opacity:1;" d="M 109.550781 58.324219 C 114.675781 58.226562 118.8125 53.226562 118.8125 47.152344 C 118.714844 41.074219 114.480469 36.171875 109.355469 36.171875 C 104.234375 36.269531 100.09375 41.269531 100.09375 47.347656 C 100.191406 53.425781 104.429688 58.324219 109.550781 58.324219 Z M 109.550781 58.324219 "/>
<path style=" stroke:none;fill-rule:nonzero;fill:rgb(41.568628%,40.784314%,80.784315%);fill-opacity:1;" d="M 121.472656 57.445312 C 126.597656 57.34375 130.734375 52.347656 130.734375 46.269531 C 130.636719 40.191406 126.398438 35.289062 121.277344 35.289062 C 116.152344 35.386719 112.015625 40.386719 112.015625 46.464844 C 112.015625 52.640625 116.25 57.542969 121.472656 57.445312 Z M 121.472656 57.445312 "/>
<path style=" stroke:none;fill-rule:nonzero;fill:rgb(41.568628%,40.784314%,80.784315%);fill-opacity:1;" d="M 122.457031 49.992188 C 127.582031 49.894531 131.71875 44.894531 131.71875 38.820312 C 131.621094 32.742188 127.382812 27.839844 122.261719 27.839844 C 117.136719 27.9375 113 32.9375 113 39.015625 C 113 45.09375 117.335938 50.089844 122.457031 49.992188 Z M 122.457031 49.992188 "/>
<path style=" stroke:none;fill-rule:nonzero;fill:rgb(41.568628%,40.784314%,80.784315%);fill-opacity:1;" d="M 98.714844 53.914062 C 103.9375 53.71875 107.976562 48.621094 107.679688 42.542969 C 107.386719 36.5625 102.953125 31.859375 97.730469 32.054688 C 92.507812 32.25 88.46875 37.347656 88.765625 43.425781 C 88.960938 49.503906 93.492188 54.109375 98.714844 53.914062 Z M 98.714844 53.914062 "/>
<path style=" stroke:none;fill-rule:nonzero;fill:rgb(41.568628%,40.784314%,80.784315%);fill-opacity:1;" d="M 114.378906 33.035156 C 119.601562 32.839844 123.640625 27.742188 123.34375 21.664062 C 123.050781 15.683594 118.617188 10.980469 113.394531 11.175781 C 108.171875 11.371094 104.132812 16.46875 104.429688 22.546875 C 104.726562 28.527344 109.160156 33.230469 114.378906 33.035156 Z M 114.378906 33.035156 "/>
<path style=" stroke:none;fill-rule:nonzero;fill:rgb(41.568628%,40.784314%,80.784315%);fill-opacity:1;" d="M 127.089844 15.097656 C 125.808594 14.507812 124.429688 14.117188 122.949219 14.214844 C 117.730469 14.410156 113.691406 19.507812 113.984375 25.585938 C 114.28125 31.566406 118.714844 36.269531 123.9375 36.074219 C 127.976562 35.878906 131.324219 32.839844 132.507812 28.625 C 131.621094 23.625 129.75 19.015625 127.089844 15.097656 Z M 127.089844 15.097656 "/>
<path style=" stroke:none;fill-rule:nonzero;fill:rgb(41.568628%,40.784314%,80.784315%);fill-opacity:1;" d="M 103.050781 61.070312 C 103.347656 54.992188 99.40625 49.894531 94.183594 49.699219 C 88.960938 49.40625 84.527344 54.109375 84.234375 60.1875 C 83.9375 66.265625 87.878906 71.363281 93.101562 71.558594 C 98.222656 71.753906 102.753906 67.148438 103.050781 61.070312 Z M 103.050781 61.070312 "/>
<path style=" stroke:none;fill-rule:nonzero;fill:rgb(41.568628%,40.784314%,80.784315%);fill-opacity:1;" d="M 114.480469 64.5 C 114.773438 58.421875 110.832031 53.328125 105.613281 53.128906 C 100.390625 52.835938 95.957031 57.542969 95.660156 63.617188 C 95.367188 69.695312 99.308594 74.792969 104.527344 74.988281 C 109.652344 75.1875 114.183594 70.480469 114.480469 64.5 Z M 114.480469 64.5 "/>
<path style=" stroke:none;fill-rule:nonzero;fill:rgb(41.568628%,40.784314%,80.784315%);fill-opacity:1;" d="M 116.746094 59.011719 C 117.039062 52.933594 113.097656 47.835938 107.878906 47.640625 C 102.65625 47.347656 98.222656 52.050781 97.925781 58.128906 C 97.632812 64.207031 101.574219 69.304688 106.792969 69.5 C 112.015625 69.792969 116.449219 65.089844 116.746094 59.011719 Z M 116.746094 59.011719 "/>
<path style=" stroke:none;fill-rule:nonzero;fill:rgb(41.568628%,40.784314%,80.784315%);fill-opacity:1;" d="M 125.90625 66.167969 C 126.203125 60.089844 122.261719 54.992188 117.039062 54.796875 C 111.820312 54.503906 107.386719 59.207031 107.089844 65.285156 C 106.792969 71.363281 110.734375 76.460938 115.957031 76.65625 C 121.179688 76.851562 125.609375 72.148438 125.90625 66.167969 Z M 125.90625 66.167969 "/>
<path style=" stroke:none;fill-rule:nonzero;fill:rgb(41.568628%,40.784314%,80.784315%);fill-opacity:1;" d="M 110.636719 47.152344 C 110.933594 41.074219 106.992188 35.976562 101.769531 35.78125 C 96.546875 35.582031 92.015625 40.191406 91.722656 46.269531 C 91.425781 52.347656 95.367188 57.445312 100.585938 57.640625 C 105.90625 57.933594 110.339844 53.226562 110.636719 47.152344 Z M 110.636719 47.152344 "/>
<path style=" stroke:none;fill-rule:nonzero;fill:rgb(41.568628%,40.784314%,80.784315%);fill-opacity:1;" d="M 104.429688 49.601562 C 104.726562 43.523438 100.785156 38.425781 95.5625 38.230469 C 90.339844 37.9375 85.90625 42.640625 85.613281 48.71875 C 85.316406 54.796875 89.257812 59.894531 94.480469 60.089844 C 99.699219 60.285156 104.132812 55.582031 104.429688 49.601562 Z M 104.429688 49.601562 "/>
<path style=" stroke:none;fill-rule:nonzero;fill:rgb(10.588235%,9.803922%,26.666668%);fill-opacity:1;" d="M 26.304688 129.199219 C 26.304688 129.199219 20.984375 133.511719 23.054688 134.785156 C 25.121094 136.058594 28.273438 136.746094 29.652344 137.628906 C 31.035156 138.414062 32.90625 140.667969 35.464844 141.058594 C 38.027344 141.355469 37.535156 140.667969 35.960938 138.707031 C 34.382812 136.746094 30.34375 133.707031 30.539062 133.804688 C 30.738281 133.902344 30.34375 131.160156 30.34375 131.160156 Z M 26.304688 129.199219 "/>
<path style=" stroke:none;fill-rule:nonzero;fill:rgb(10.588235%,9.803922%,26.666668%);fill-opacity:1;" d="M 59.703125 136.941406 C 59.703125 136.941406 56.746094 143.117188 59.210938 143.414062 C 61.574219 143.609375 64.726562 143.019531 66.304688 143.117188 C 67.878906 143.214844 70.835938 144.882812 73.003906 143.609375 C 75.167969 142.433594 73.789062 141.648438 71.523438 140.570312 C 69.257812 139.492188 66.007812 139.394531 66.203125 139.394531 C 66.402344 139.394531 64.035156 136.941406 64.035156 136.941406 Z M 59.703125 136.941406 "/>
<path style=" stroke:none;fill-rule:nonzero;fill:rgb(100%,100%,100%);fill-opacity:1;" d="M 93.492188 136.941406 C 93.492188 136.941406 89.75 142.53125 91.621094 143.117188 C 93.492188 143.707031 96.253906 143.609375 97.535156 144 C 98.8125 144.394531 100.785156 146.453125 102.851562 145.570312 C 104.921875 144.785156 103.9375 143.707031 102.359375 142.335938 C 100.785156 140.960938 98.125 140.277344 98.320312 140.277344 C 98.421875 140.277344 97.140625 137.628906 97.140625 137.628906 Z M 93.492188 136.941406 "/>
<path style=" stroke:none;fill-rule:nonzero;fill:rgb(100%,100%,100%);fill-opacity:1;" d="M 78.714844 131.160156 C 78.714844 131.160156 73.199219 135.082031 74.777344 136.355469 C 76.351562 137.53125 79.898438 139.097656 80.980469 139.882812 C 82.066406 140.667969 82.261719 142.53125 84.527344 142.433594 C 86.792969 142.335938 86.203125 141.058594 85.21875 139.296875 C 84.234375 137.433594 81.96875 135.960938 82.066406 136.058594 C 82.164062 136.160156 81.867188 133.121094 81.867188 133.121094 Z M 78.714844 131.160156 "/>
<path style=" stroke:none;fill-rule:nonzero;fill:rgb(10.588235%,9.803922%,26.666668%);fill-opacity:1;" d="M 56.15625 86.261719 C 56.15625 86.261719 63.148438 109.101562 63.148438 113.023438 C 63.148438 116.945312 67.386719 135.667969 67.386719 135.667969 C 67.386719 135.667969 67.191406 137.433594 63.148438 137.433594 C 59.109375 137.433594 57.535156 134.785156 57.535156 134.785156 L 53.691406 113.023438 L 47.09375 96.359375 C 47.09375 96.359375 43.347656 112.339844 42.757812 114.691406 C 42.164062 117.042969 33.101562 132.042969 33.101562 132.042969 C 33.101562 132.042969 29.0625 131.746094 27.191406 130.179688 C 25.320312 128.609375 24.628906 125.667969 24.628906 125.667969 C 24.628906 125.667969 33.398438 113.21875 33.496094 111.945312 C 33.59375 110.671875 39.605469 86.558594 39.605469 86.558594 Z M 56.15625 86.261719 "/>
<path style=" stroke:none;fill-rule:nonzero;fill:rgb(100%,100%,100%);fill-opacity:1;" d="M 95.660156 50.289062 C 95.660156 50.289062 99.40625 51.464844 99.800781 53.71875 C 100.191406 55.972656 100.6875 59.992188 97.925781 61.757812 C 95.167969 63.519531 92.804688 64.5 91.621094 63.71875 C 90.441406 62.835938 95.660156 50.289062 95.660156 50.289062 Z M 95.660156 50.289062 "/>
<path style=" stroke:none;fill-rule:nonzero;fill:rgb(41.568628%,40.784314%,80.784315%);fill-opacity:1;" d="M 82.855469 67.636719 C 82.855469 67.636719 81.671875 75.675781 81.671875 78.714844 C 81.671875 81.753906 82.261719 86.164062 82.261719 86.164062 C 82.261719 86.164062 76.648438 89.203125 74.777344 87.929688 C 72.902344 86.558594 69.75 86.359375 69.949219 82.144531 C 70.144531 77.929688 70.933594 74.5 71.328125 72.246094 C 71.722656 69.992188 72.609375 68.421875 75.167969 67.636719 C 77.828125 66.855469 82.855469 67.636719 82.855469 67.636719 Z M 82.855469 67.636719 "/>
<path style=" stroke:none;fill-rule:nonzero;fill:rgb(10.588235%,9.803922%,26.666668%);fill-opacity:1;" d="M 81.277344 72.050781 C 81.179688 70.675781 81.476562 69.402344 81.96875 68.226562 C 82.460938 67.246094 83.050781 66.265625 83.839844 65.972656 C 85.414062 65.480469 95.367188 63.71875 97.925781 69.695312 C 100.488281 75.675781 96.449219 88.125 96.746094 89.988281 C 97.039062 91.851562 104.527344 109.886719 104.726562 114.691406 C 104.921875 119.492188 100.191406 138.902344 100.191406 138.902344 C 100.191406 138.902344 87.679688 140.472656 83.542969 138.21875 C 79.40625 135.960938 76.351562 133.21875 76.351562 133.21875 C 76.351562 133.21875 79.308594 127.433594 79.898438 119.296875 C 80.589844 111.457031 79.207031 110.476562 79.207031 99.890625 C 79.207031 96.949219 81.476562 86.460938 81.476562 80.871094 C 81.476562 77.246094 81.375 73.910156 81.277344 72.050781 Z M 81.277344 72.050781 "/>
<path style=" stroke:none;fill-rule:nonzero;fill:rgb(41.568628%,40.784314%,80.784315%);fill-opacity:1;" d="M 80.589844 83.421875 C 80.589844 83.421875 87.386719 83.222656 89.453125 80.183594 C 91.523438 77.148438 89.949219 72.050781 88.273438 71.363281 C 86.597656 70.675781 79.207031 73.226562 79.207031 73.226562 L 79.503906 70.480469 C 79.503906 70.480469 81.476562 68.519531 84.136719 68.128906 C 86.894531 67.835938 89.949219 67.539062 90.933594 71.070312 C 91.917969 74.597656 91.722656 78.421875 90.933594 80.382812 C 90.242188 82.242188 80.785156 85.96875 80.785156 85.96875 Z M 80.589844 83.421875 "/>
<path style=" stroke:none;fill-rule:nonzero;fill:rgb(100%,100%,100%);fill-opacity:1;" d="M 83.640625 78.714844 C 83.640625 78.714844 85.316406 79.304688 86.105469 79.304688 C 86.894531 79.304688 88.667969 78.714844 88.667969 78.714844 L 89.0625 83.617188 C 89.0625 83.617188 104.234375 91.554688 105.21875 92.144531 C 106.203125 92.734375 108.273438 93.320312 108.273438 94.792969 C 108.273438 96.261719 108.074219 97.242188 107.285156 97.242188 C 106.5 97.242188 105.21875 95.574219 104.234375 94.988281 C 103.246094 94.398438 91.328125 90.085938 90.144531 89.695312 C 88.960938 89.300781 85.21875 88.519531 85.019531 87.929688 C 84.824219 87.441406 85.316406 87.046875 85.316406 86.460938 C 85.414062 85.96875 84.332031 85.085938 83.9375 83.125 C 83.445312 81.164062 83.640625 78.714844 83.640625 78.714844 Z M 83.640625 78.714844 "/>
<path style=" stroke:none;fill-rule:nonzero;fill:rgb(22.352941%,14.509805%,17.254902%);fill-opacity:1;" d="M 62.558594 54.011719 C 62.558594 54.011719 60.195312 54.699219 59.210938 54.40625 C 58.222656 54.011719 56.648438 51.757812 56.648438 51.757812 C 56.648438 51.757812 53.003906 52.933594 52.707031 54.109375 C 52.410156 55.386719 51.917969 58.128906 53.003906 58.816406 C 54.085938 59.503906 59.996094 59.109375 61.871094 56.265625 C 63.644531 53.425781 62.558594 54.011719 62.558594 54.011719 Z M 62.558594 54.011719 "/>
<path style=" stroke:none;fill-rule:nonzero;fill:rgb(100%,100%,100%);fill-opacity:1;" d="M 60.292969 70.285156 C 60.292969 70.285156 60.097656 74.402344 60.292969 74.890625 C 60.492188 75.382812 72.410156 83.519531 73.394531 84.105469 C 74.382812 84.695312 75.269531 85.773438 75.269531 86.359375 C 75.269531 86.949219 74.675781 88.617188 74.085938 88.617188 C 73.496094 88.617188 72.609375 86.753906 72.214844 86.558594 C 71.820312 86.359375 57.929688 79.890625 57.929688 79.890625 L 57.632812 69.304688 Z M 60.292969 70.285156 "/>
<path style=" stroke:none;fill-rule:nonzero;fill:rgb(41.568628%,40.784314%,80.784315%);fill-opacity:1;" d="M 57.832031 57.050781 C 58.816406 57.445312 60.292969 58.226562 60.492188 59.894531 C 60.6875 61.558594 62.164062 69.894531 62.164062 69.894531 C 62.164062 69.894531 60.984375 71.070312 59.996094 71.167969 C 59.109375 71.265625 57.832031 71.070312 57.832031 70.382812 C 57.832031 69.695312 59.210938 88.125 59.210938 88.125 L 35.960938 87.832031 C 35.960938 87.832031 38.421875 79.890625 38.816406 77.246094 C 39.210938 74.597656 38.621094 70.480469 38.621094 70.480469 L 39.605469 67.441406 C 39.605469 67.441406 36.351562 67.050781 35.269531 66.65625 C 34.285156 66.265625 33.398438 64.992188 33.398438 64.992188 C 33.398438 64.992188 34.1875 64.207031 34.382812 63.816406 C 34.578125 63.421875 36.847656 57.738281 39.308594 57.542969 C 41.773438 57.34375 46.699219 58.324219 49.554688 58.128906 C 52.410156 57.933594 52.609375 57.148438 54.085938 56.953125 C 55.664062 56.660156 57.832031 57.050781 57.832031 57.050781 Z M 57.832031 57.050781 "/>
<path style=" stroke:none;fill-rule:nonzero;fill:rgb(100%,100%,100%);fill-opacity:1;" d="M 34.972656 64.992188 C 34.972656 64.992188 32.117188 73.128906 32.117188 74.792969 C 32.117188 76.460938 36.15625 88.027344 36.648438 88.617188 C 37.042969 89.203125 39.703125 93.320312 41.179688 92.4375 C 42.660156 91.65625 42.855469 90.96875 42.164062 90.183594 C 41.574219 89.398438 39.703125 87.539062 39.703125 86.558594 C 39.703125 85.578125 39.113281 82.734375 38.914062 81.265625 C 38.71875 79.792969 37.238281 75.96875 37.4375 75.1875 C 37.632812 74.402344 40.097656 66.855469 40.097656 66.855469 Z M 34.972656 64.992188 "/>
<path style=" stroke:none;fill-rule:nonzero;fill:rgb(94.509804%,30.980393%,23.137255%);fill-opacity:1;" d="M 39.40625 57.445312 C 39.40625 57.445312 42.265625 61.953125 42.363281 63.816406 C 42.460938 65.675781 38.324219 73.617188 38.324219 73.617188 L 38.324219 78.128906 C 38.324219 78.128906 37.832031 79.5 38.816406 78.910156 C 39.800781 78.324219 43.546875 75.285156 44.039062 72.246094 C 44.53125 69.207031 45.710938 66.65625 45.417969 64.109375 C 45.121094 61.558594 43.742188 56.953125 43.742188 56.953125 Z M 39.40625 57.445312 "/>
<path style=" stroke:none;fill-rule:nonzero;fill:rgb(94.509804%,30.980393%,23.137255%);fill-opacity:1;" d="M 56.746094 56.363281 C 56.746094 56.363281 55.859375 65.578125 56.253906 67.050781 C 56.550781 68.617188 57.632812 71.753906 57.632812 71.753906 L 57.832031 75.675781 C 57.832031 75.675781 56.253906 75.578125 55.761719 74.402344 C 55.269531 73.226562 53.691406 71.363281 53.691406 67.734375 L 53.691406 56.265625 Z M 56.746094 56.363281 "/>
<path style=" stroke:none;fill-rule:nonzero;fill:rgb(41.568628%,40.784314%,80.784315%);fill-opacity:1;" d="M 82.855469 67.636719 C 82.855469 67.636719 80.980469 64.207031 77.929688 63.914062 C 74.777344 63.617188 69.851562 69.207031 70.046875 71.65625 C 70.144531 72.34375 70.242188 72.832031 70.441406 73.324219 C 70.835938 74.304688 72.117188 74.402344 72.804688 73.617188 C 73.394531 72.929688 74.28125 72.34375 75.664062 72.246094 C 78.421875 72.050781 82.855469 67.636719 82.855469 67.636719 Z M 82.855469 67.636719 "/>
<path style=" stroke:none;fill-rule:nonzero;fill:rgb(100%,100%,100%);fill-opacity:1;" d="M 56.449219 42.640625 C 56.449219 42.640625 59.898438 43.230469 59.109375 48.71875 C 58.324219 54.207031 55.464844 54.011719 54.183594 54.40625 C 53.003906 54.796875 52.511719 57.835938 52.511719 57.835938 C 52.511719 57.835938 51.03125 59.304688 48.371094 58.621094 C 45.710938 58.03125 45.515625 52.933594 46.699219 49.011719 C 47.878906 45.09375 56.449219 42.640625 56.449219 42.640625 Z M 56.449219 42.640625 "/>
<path style=" stroke:none;fill-rule:nonzero;fill:rgb(10.588235%,9.803922%,26.666668%);fill-opacity:1;" d="M 58.519531 42.152344 C 58.324219 41.757812 52.410156 37.25 48.078125 40.09375 C 43.742188 42.933594 44.234375 45.386719 43.742188 48.03125 C 43.347656 50.679688 40.097656 52.542969 39.605469 53.523438 C 39.210938 54.503906 38.71875 57.640625 38.71875 57.640625 C 38.71875 57.640625 40.6875 57.246094 41.671875 58.03125 C 42.660156 58.816406 45.417969 61.265625 46.796875 62.148438 C 49.0625 63.617188 54.777344 61.953125 54.578125 61.363281 C 54.382812 60.777344 53.398438 61.167969 52.609375 60.582031 C 51.917969 59.992188 51.230469 56.070312 51.722656 54.503906 C 52.117188 52.835938 52.804688 52.148438 52.804688 51.070312 C 52.707031 49.992188 52.707031 47.542969 53.398438 47.347656 C 53.988281 47.152344 56.253906 46.953125 57.042969 45.875 C 57.832031 44.796875 58.519531 42.152344 58.519531 42.152344 Z M 58.519531 42.152344 "/>
<path style=" stroke:none;fill-rule:nonzero;fill:rgb(94.509804%,31.37255%,23.529412%);fill-opacity:1;" d="M 84.527344 65.382812 C 83.839844 66.265625 83.542969 65.480469 82.953125 65.972656 C 82.460938 66.460938 83.050781 74.695312 89.847656 75.285156 C 96.648438 75.96875 98.519531 73.910156 98.714844 71.363281 C 98.914062 68.816406 96.054688 62.640625 96.054688 62.640625 C 96.054688 62.640625 95.367188 63.226562 94.675781 62.933594 C 93.988281 62.640625 93.296875 62.148438 93 60.777344 C 92.707031 59.402344 93.789062 56.953125 94.085938 56.660156 C 94.480469 56.363281 96.253906 56.070312 96.941406 55.285156 C 97.632812 54.503906 99.207031 51.953125 99.109375 51.367188 C 99.011719 50.777344 98.125 49.503906 95.265625 48.71875 C 92.410156 48.03125 86.5 47.835938 84.824219 52.050781 C 83.148438 56.265625 84.527344 59.109375 84.824219 61.167969 C 85.414062 63.324219 84.527344 65.382812 84.527344 65.382812 Z M 84.527344 65.382812 "/>
</g>
</svg>
