<?xml version="1.0" encoding="UTF-8"?>
<svg xmlns="http://www.w3.org/2000/svg" xmlns:xlink="http://www.w3.org/1999/xlink" width="133px" height="150px" viewBox="0 0 133 149" version="1.1">
<g id="surface1">
<path style=" stroke:none;fill-rule:nonzero;fill:rgb(41.568628%,40.784314%,80.784315%);fill-opacity:1;" d="M 34.480469 0 L 98.519531 0 C 117.53125 0 133 15.390625 133 34.308594 L 133 114.691406 C 133 133.609375 117.53125 149 98.519531 149 L 34.480469 149 C 15.46875 149 0 133.609375 0 114.691406 L 0 34.308594 C 0 15.390625 15.46875 0 34.480469 0 Z M 34.480469 0 "/>
<path style=" stroke:none;fill-rule:nonzero;fill:rgb(41.568628%,40.784314%,80.784315%);fill-opacity:1;" d="M 34.480469 0 L 98.519531 0 C 117.53125 0 133 15.390625 133 34.308594 L 133 114.691406 C 133 133.609375 117.53125 149 98.519531 149 L 34.480469 149 C 15.46875 149 0 133.609375 0 114.691406 L 0 34.308594 C 0 15.390625 15.46875 0 34.480469 0 Z M 34.480469 0 "/>
<path style=" stroke:none;fill-rule:nonzero;fill:rgb(41.568628%,40.784314%,80.784315%);fill-opacity:1;" d="M 34.480469 0 L 98.519531 0 C 117.53125 0 133 15.390625 133 34.308594 L 133 114.691406 C 133 133.609375 117.53125 149 98.519531 149 L 34.480469 149 C 15.46875 149 0 133.609375 0 114.691406 L 0 34.308594 C 0 15.390625 15.46875 0 34.480469 0 Z M 34.480469 0 "/>
<path style=" stroke:none;fill-rule:nonzero;fill:rgb(41.568628%,40.784314%,80.784315%);fill-opacity:1;" d="M 34.480469 0 L 98.519531 0 C 117.53125 0 133 15.390625 133 34.308594 L 133 114.691406 C 133 133.609375 117.53125 149 98.519531 149 L 34.480469 149 C 15.46875 149 0 133.609375 0 114.691406 L 0 34.308594 C 0 15.390625 15.46875 0 34.480469 0 Z M 34.480469 0 "/>
<path style=" stroke:none;fill-rule:nonzero;fill:rgb(41.568628%,40.784314%,80.784315%);fill-opacity:1;" d="M 34.480469 0 L 98.519531 0 C 117.53125 0 133 15.390625 133 34.308594 L 133 114.691406 C 133 133.609375 117.53125 149 98.519531 149 L 34.480469 149 C 15.46875 149 0 133.609375 0 114.691406 L 0 34.308594 C 0 15.390625 15.46875 0 34.480469 0 Z M 34.480469 0 "/>
<path style=" stroke:none;fill-rule:nonzero;fill:rgb(41.568628%,40.784314%,80.784315%);fill-opacity:1;" d="M 34.480469 0 L 98.519531 0 C 117.53125 0 133 15.390625 133 34.308594 L 133 114.691406 C 133 133.609375 117.53125 149 98.519531 149 L 34.480469 149 C 15.46875 149 0 133.609375 0 114.691406 L 0 34.308594 C 0 15.390625 15.46875 0 34.480469 0 Z M 34.480469 0 "/>
<path style=" stroke:none;fill-rule:nonzero;fill:rgb(41.568628%,40.784314%,80.784315%);fill-opacity:1;" d="M 34.480469 0 L 98.519531 0 C 117.53125 0 133 15.390625 133 34.308594 L 133 114.691406 C 133 133.609375 117.53125 149 98.519531 149 L 34.480469 149 C 15.46875 149 0 133.609375 0 114.691406 L 0 34.308594 C 0 15.390625 15.46875 0 34.480469 0 Z M 34.480469 0 "/>
<path style=" stroke:none;fill-rule:nonzero;fill:rgb(41.568628%,40.784314%,80.784315%);fill-opacity:1;" d="M 34.480469 0 L 98.519531 0 C 117.53125 0 133 15.390625 133 34.308594 L 133 114.691406 C 133 133.609375 117.53125 149 98.519531 149 L 34.480469 149 C 15.46875 149 0 133.609375 0 114.691406 L 0 34.308594 C 0 15.390625 15.46875 0 34.480469 0 Z M 34.480469 0 "/>
<path style=" stroke:none;fill-rule:nonzero;fill:rgb(100%,100%,100%);fill-opacity:1;" d="M 30.539062 110.28125 C 30.539062 110.28125 34.480469 126.0625 39.113281 127.335938 C 43.742188 128.609375 53.398438 116.75 57.042969 111.261719 C 60.6875 105.769531 65.613281 98.417969 67.289062 98.027344 C 68.964844 97.730469 70.933594 99.300781 71.917969 99.300781 C 72.902344 99.300781 78.714844 96.554688 78.714844 96.554688 C 78.714844 96.554688 78.816406 94.105469 77.140625 94.105469 C 75.464844 94.105469 72.214844 95.085938 71.128906 94.792969 C 70.144531 94.496094 66.597656 90.28125 64.53125 91.261719 C 62.460938 92.242188 42.953125 115.277344 42.953125 115.277344 L 40.984375 107.925781 Z M 30.539062 110.28125 "/>
<path style=" stroke:none;fill-rule:nonzero;fill:rgb(10.588235%,9.803922%,26.666668%);fill-opacity:1;" d="M 32.511719 87.339844 C 29.359375 85.28125 25.320312 87.339844 25.320312 87.339844 L 25.320312 85.773438 L 17.242188 83.324219 C 17.242188 83.324219 13.003906 83.027344 11.328125 82.539062 C 9.65625 82.046875 4.335938 83.027344 3.546875 83.324219 C 2.855469 83.617188 1.96875 91.65625 1.082031 92.046875 C 0.691406 92.144531 0.296875 91.949219 0 91.753906 L 0 114.691406 C 0 124.101562 3.84375 132.726562 10.050781 138.902344 C 17.832031 124.003906 27.878906 103.90625 27.878906 103.90625 C 27.878906 103.90625 29.457031 110.378906 30.34375 111.359375 C 31.132812 112.339844 43.050781 109.691406 43.445312 108.417969 C 43.644531 107.042969 35.566406 89.398438 32.511719 87.339844 Z M 32.511719 87.339844 "/>
<path style=" stroke:none;fill-rule:nonzero;fill:rgb(100%,100%,100%);fill-opacity:1;" d="M 30.835938 62.738281 C 30.835938 62.738281 35.761719 62.738281 36.746094 64.304688 C 37.734375 65.875 37.734375 76.363281 36.058594 77.929688 C 34.480469 79.5 31.132812 81.363281 28.570312 81.949219 C 26.007812 82.539062 24.335938 86.261719 24.335938 86.261719 L 15.761719 84.695312 C 15.761719 84.695312 18.027344 82.832031 17.734375 80.382812 C 17.4375 77.929688 15.761719 75.382812 15.761719 72.734375 C 15.761719 70.1875 30.835938 62.738281 30.835938 62.738281 Z M 30.835938 62.738281 "/>
<path style=" stroke:none;fill-rule:nonzero;fill:rgb(94.509804%,31.37255%,23.529412%);fill-opacity:1;" d="M 21.675781 57.738281 C 21.675781 57.738281 25.222656 53.816406 30.148438 55.777344 C 35.074219 57.738281 39.011719 59.992188 38.324219 63.914062 C 37.632812 67.835938 34.382812 69.992188 31.425781 70.578125 C 28.472656 71.167969 24.234375 70.578125 24.234375 70.578125 C 24.234375 70.578125 23.941406 68.128906 22.660156 68.816406 C 21.378906 69.5 20.984375 71.953125 20.886719 73.8125 C 20.6875 75.675781 18.421875 79.304688 16.15625 78.128906 C 13.890625 76.949219 13.203125 68.128906 13.496094 66.167969 C 13.792969 64.207031 15.46875 60.972656 15.46875 60.972656 C 15.46875 60.972656 12.214844 60.285156 11.921875 57.738281 C 11.625 55.089844 12.90625 52.835938 15.171875 52.148438 C 17.4375 51.464844 20.097656 52.050781 20.886719 53.425781 C 21.675781 54.796875 21.675781 57.738281 21.675781 57.738281 Z M 21.675781 57.738281 "/>
<path style=" stroke:none;fill-rule:nonzero;fill:rgb(100%,100%,100%);fill-opacity:1;" d="M 17.4375 56.855469 C 17.734375 56.167969 19.113281 54.304688 19.113281 53.621094 C 19.113281 52.933594 18.128906 51.953125 18.128906 51.953125 C 18.128906 51.953125 14.089844 56.167969 13.792969 57.148438 C 13.496094 58.128906 14.089844 60.679688 14.089844 60.679688 C 14.089844 60.679688 7.09375 63.914062 0 67.636719 L 0 77.046875 C 3.25 74.988281 7.980469 71.953125 9.457031 71.363281 C 11.820312 70.382812 18.816406 66.460938 19.507812 64.894531 C 20.195312 63.226562 19.210938 59.699219 18.816406 59.402344 C 18.519531 59.109375 17.140625 57.445312 17.4375 56.855469 Z M 17.4375 56.855469 "/>
<path style=" stroke:none;fill-rule:nonzero;fill:rgb(100%,100%,100%);fill-opacity:1;" d="M 3.449219 88.222656 C 4.828125 84.988281 4.136719 82.734375 2.070312 81.753906 C 1.476562 81.460938 0.691406 81.066406 0 80.773438 L 0 91.457031 C 0.691406 91.851562 1.082031 92.144531 1.082031 92.144531 C 1.082031 92.144531 2.070312 91.457031 3.449219 88.222656 Z M 3.449219 88.222656 "/>
<path style=" stroke:none;fill-rule:nonzero;fill:rgb(94.509804%,31.37255%,23.529412%);fill-opacity:1;" d="M 105.414062 50.972656 C 105.414062 50.972656 106.105469 52.542969 105.121094 54.503906 C 104.035156 56.464844 103.050781 59.304688 103.738281 60.285156 C 104.429688 61.265625 102.953125 61.558594 105.019531 62.539062 C 107.1875 63.519531 118.222656 61.265625 118.222656 59.699219 C 118.222656 58.128906 118.910156 53.914062 115.070312 52.933594 C 111.226562 51.953125 105.414062 50.972656 105.414062 50.972656 Z M 105.414062 50.972656 "/>
<path style=" stroke:none;fill-rule:nonzero;fill:rgb(10.588235%,9.803922%,26.666668%);fill-opacity:1;" d="M 102.558594 36.269531 C 102.558594 36.269531 100.980469 38.820312 101.574219 43.035156 C 102.261719 47.25 102.851562 51.757812 107.386719 53.03125 C 111.917969 54.304688 113.492188 54.601562 114.183594 55.285156 C 114.871094 55.972656 115.757812 62.738281 117.730469 62.738281 C 119.699219 62.738281 124.230469 56.265625 124.824219 53.71875 C 125.511719 51.167969 124.527344 41.464844 119.011719 39.503906 C 113.59375 37.542969 102.558594 36.269531 102.558594 36.269531 Z M 102.558594 36.269531 "/>
<path style=" stroke:none;fill-rule:nonzero;fill:rgb(10.588235%,9.803922%,26.666668%);fill-opacity:1;" d="M 98.222656 81.460938 L 96.546875 87.636719 C 96.546875 87.636719 82.65625 74.011719 81.082031 72.34375 C 79.503906 70.675781 78.816406 67.441406 75.957031 66.757812 C 73.101562 66.070312 70.835938 69.011719 69.160156 69.402344 C 67.582031 69.695312 65.316406 68.421875 64.035156 68.714844 C 62.757812 69.011719 62.066406 70.382812 62.066406 70.382812 C 62.066406 70.382812 64.824219 72.636719 67.484375 73.128906 C 70.144531 73.617188 72.410156 71.953125 73.394531 72.34375 C 74.382812 72.636719 89.554688 100.867188 96.648438 100.96875 C 103.738281 101.066406 108.46875 83.8125 108.46875 83.8125 Z M 98.222656 81.460938 "/>
<path style=" stroke:none;fill-rule:nonzero;fill:rgb(94.509804%,31.37255%,23.529412%);fill-opacity:1;" d="M 133 41.660156 C 131.128906 41.074219 129.453125 40.386719 128.46875 39.898438 C 125.90625 38.621094 125.511719 33.820312 123.640625 32.152344 C 121.671875 30.585938 118.714844 29.898438 118.714844 29.898438 C 118.714844 29.898438 119.109375 27.347656 119.109375 26.074219 C 119.109375 24.800781 118.125 23.527344 116.152344 23.527344 C 114.183594 23.527344 112.902344 24.507812 112.605469 26.074219 C 112.3125 27.644531 113.296875 29.605469 113.296875 29.605469 C 113.296875 29.605469 110.734375 29.898438 108.765625 30.585938 C 107.285156 31.074219 104.527344 33.132812 103.246094 34.898438 C 102.851562 35.386719 102.65625 35.878906 102.558594 36.367188 C 102.558594 36.367188 105.808594 40.582031 109.058594 42.445312 C 112.3125 44.40625 116.546875 43.425781 116.546875 43.425781 C 116.546875 43.425781 116.546875 41.464844 117.828125 41.171875 C 119.109375 40.878906 120.09375 41.464844 120.09375 43.71875 C 120.09375 45.972656 118.519531 47.933594 118.519531 48.523438 C 118.519531 49.210938 122.753906 49.796875 123.34375 51.464844 C 124.035156 53.03125 125.609375 56.660156 126.792969 57.34375 C 127.382812 57.738281 130.144531 57.050781 133.097656 56.363281 L 133.097656 41.660156 Z M 133 41.660156 "/>
<path style=" stroke:none;fill-rule:nonzero;fill:rgb(98.823529%,76.862746%,84.313726%);fill-opacity:1;" d="M 133 107.828125 L 133 54.992188 C 131.226562 55.089844 129.75 55.386719 129.15625 55.679688 C 127.484375 56.363281 125.609375 57.640625 124.824219 56.757812 C 124.132812 55.875 123.9375 54.992188 123.9375 54.992188 C 123.9375 54.992188 119.40625 61.855469 117.730469 61.855469 C 116.054688 61.855469 116.449219 59.601562 116.054688 59.207031 C 115.757812 58.914062 109.550781 58.914062 105.316406 61.460938 C 101.078125 64.109375 96.152344 82.046875 96.546875 82.636719 C 96.84375 83.324219 109.945312 85.578125 110.4375 85.578125 C 111.03125 85.578125 112.507812 77.734375 112.507812 77.734375 C 112.507812 77.734375 119.304688 88.8125 127.484375 100.378906 C 129.15625 102.828125 131.03125 105.378906 133 107.828125 Z M 133 107.828125 "/>
<path style=" stroke:none;fill-rule:nonzero;fill:rgb(100%,100%,100%);fill-opacity:1;" d="M 66.992188 65.675781 C 72.410156 65.675781 76.84375 61.070312 76.84375 55.386719 C 76.84375 49.699219 72.410156 45.09375 66.992188 45.09375 C 61.574219 45.09375 57.140625 49.699219 57.140625 55.386719 C 57.140625 61.070312 61.574219 65.675781 66.992188 65.675781 Z M 66.992188 65.675781 "/>
</g>
</svg>
