<?xml version="1.0" encoding="UTF-8"?>
<svg xmlns="http://www.w3.org/2000/svg" xmlns:xlink="http://www.w3.org/1999/xlink" width="194px" height="150px" viewBox="0 0 194 150" version="1.1">
<g id="surface1">
<path style=" stroke:none;fill-rule:nonzero;fill:rgb(98.823529%,76.862746%,84.313726%);fill-opacity:1;" d="M 23.824219 0 L 170.175781 0 C 183.3125 0 194 10.703125 194 23.863281 L 194 126.136719 C 194 139.296875 183.3125 150 170.175781 150 L 23.824219 150 C 10.6875 150 0 139.296875 0 126.136719 L 0 23.863281 C 0 10.703125 10.6875 0 23.824219 0 Z M 23.824219 0 "/>
<path style=" stroke:none;fill-rule:nonzero;fill:rgb(98.823529%,76.862746%,84.313726%);fill-opacity:1;" d="M 23.824219 0 L 170.175781 0 C 183.3125 0 194 10.703125 194 23.863281 L 194 126.136719 C 194 139.296875 183.3125 150 170.175781 150 L 23.824219 150 C 10.6875 150 0 139.296875 0 126.136719 L 0 23.863281 C 0 10.703125 10.6875 0 23.824219 0 Z M 23.824219 0 "/>
<path style=" stroke:none;fill-rule:nonzero;fill:rgb(98.823529%,76.862746%,84.313726%);fill-opacity:1;" d="M 23.824219 0 L 170.175781 0 C 183.3125 0 194 10.703125 194 23.863281 L 194 126.136719 C 194 139.296875 183.3125 150 170.175781 150 L 23.824219 150 C 10.6875 150 0 139.296875 0 126.136719 L 0 23.863281 C 0 10.703125 10.6875 0 23.824219 0 Z M 23.824219 0 "/>
<path style=" stroke:none;fill-rule:nonzero;fill:rgb(94.117647%,29.803923%,22.745098%);fill-opacity:1;" d="M 50.710938 58.160156 C 50.917969 60.546875 50.847656 64.089844 54.046875 67.160156 C 57.246094 70.226562 56.839844 72.339844 56.703125 74.183594 C 56.566406 76.023438 55.679688 77.523438 58.402344 79.839844 C 61.128906 82.160156 62.488281 81.683594 60.855469 86.113281 C 59.222656 90.476562 49.625 99.613281 39.207031 101.25 C 28.792969 102.886719 30.15625 67.910156 32.402344 62.453125 C 34.714844 57 49.417969 42.683594 50.710938 58.160156 "/>
<path style=" stroke:none;fill-rule:nonzero;fill:rgb(100%,100%,100%);fill-opacity:1;" d="M 108.84375 132.953125 C 107.210938 131.660156 104.285156 132.410156 101.492188 133.839844 C 98.703125 135.273438 100.402344 135.683594 100.402344 135.683594 L 98.566406 146.726562 L 98.363281 149.863281 C 98.363281 149.863281 98.363281 149.933594 98.363281 150 L 109.046875 150 C 109.730469 147.683594 110.273438 145.566406 110.683594 143.933594 C 112.996094 134.863281 110.476562 134.25 108.84375 132.953125 Z M 108.84375 132.953125 "/>
<path style=" stroke:none;fill-rule:nonzero;fill:rgb(10.588235%,9.803922%,26.666668%);fill-opacity:1;" d="M 103.464844 63.886719 C 103.125 66.613281 103.125 70.566406 99.3125 73.976562 C 95.570312 77.386719 95.910156 79.773438 95.980469 81.816406 C 96.046875 83.933594 97 85.703125 93.800781 88.160156 C 90.601562 90.683594 89.105469 90.136719 90.738281 95.183594 C 92.4375 100.226562 102.988281 110.933594 114.699219 113.25 C 126.472656 115.566406 126.269531 75.75 123.957031 69.476562 C 121.710938 63.273438 105.507812 46.433594 103.464844 63.886719 "/>
<path style=" stroke:none;fill-rule:nonzero;fill:rgb(10.588235%,9.803922%,26.666668%);fill-opacity:1;" d="M 0 110.726562 L 4.5625 87.953125 C 4.5625 87.953125 2.789062 87.816406 0 87.886719 Z M 0 110.726562 "/>
<path style=" stroke:none;fill-rule:nonzero;fill:rgb(98.823529%,81.568629%,86.274511%);fill-opacity:1;" d="M 106.394531 68.863281 C 107.6875 77.183594 109.390625 81.953125 117.691406 84.203125 C 125.996094 86.453125 125.25 87.273438 125.929688 88.910156 C 126.542969 90.546875 131.308594 105.273438 131.308594 105.273438 L 141.859375 99.75 C 141.859375 99.75 137.773438 82.023438 137.707031 79.089844 C 137.636719 76.160156 143.289062 76.433594 141.925781 65.386719 C 140.496094 54.339844 134.777344 45.816406 121.367188 49.566406 C 107.960938 53.316406 104.894531 58.910156 106.394531 68.863281 "/>
<path style=" stroke:none;fill-rule:nonzero;fill:rgb(98.823529%,81.568629%,86.274511%);fill-opacity:1;" d="M 49.011719 65.726562 C 47.648438 74.386719 45.8125 79.296875 36.960938 81.613281 C 28.113281 83.933594 28.863281 84.816406 28.179688 86.523438 C 27.5 88.226562 22.394531 103.5 22.394531 103.5 L 11.09375 97.773438 C 11.09375 97.773438 15.453125 79.363281 15.519531 76.363281 C 15.589844 73.363281 9.53125 73.636719 11.027344 62.183594 C 12.523438 50.726562 18.652344 41.933594 32.945312 45.75 C 47.308594 49.566406 50.644531 55.433594 49.011719 65.726562 "/>
<path style=" stroke:none;fill-rule:nonzero;fill:rgb(94.117647%,29.803923%,22.745098%);fill-opacity:1;" d="M 117.082031 78.339844 C 116.808594 77.660156 116.265625 78.339844 115.515625 78.339844 C 115.515625 78.339844 112.929688 78.75 112.722656 78.816406 C 111.839844 79.160156 111.363281 80.113281 111.703125 81.066406 C 112.042969 81.953125 112.996094 82.433594 113.949219 82.089844 C 114.152344 82.023438 114.222656 81.953125 114.359375 81.816406 C 114.492188 81.816406 114.628906 81.816406 114.765625 81.75 L 115.921875 81.339844 L 116.46875 81.136719 L 116.398438 81.066406 C 117.011719 80.589844 117.351562 79.089844 117.082031 78.339844 "/>
<path style=" stroke:none;fill-rule:nonzero;fill:rgb(94.117647%,29.803923%,22.745098%);fill-opacity:1;" d="M 38.390625 74.523438 C 38.664062 73.839844 39.207031 74.523438 39.957031 74.523438 C 39.957031 74.523438 42.542969 74.933594 42.75 75 C 43.632812 75.339844 44.109375 76.296875 43.769531 77.25 C 43.429688 78.136719 42.476562 78.613281 41.523438 78.273438 C 41.320312 78.203125 41.25 78.136719 41.113281 78 C 40.976562 78 40.84375 78 40.707031 77.933594 L 39.546875 77.523438 L 39.003906 77.316406 L 39.074219 77.25 C 38.460938 76.703125 38.121094 75.203125 38.390625 74.523438 "/>
<path style=" stroke:none;fill-rule:nonzero;fill:rgb(41.568628%,40.784314%,80.784315%);fill-opacity:1;" d="M 147.03125 89.660156 C 143.96875 88.160156 136.34375 89.453125 136.34375 89.453125 L 135.664062 87.066406 L 123.886719 86.660156 L 124.636719 88.773438 C 124.636719 88.773438 111.769531 87.75 107.617188 97.636719 C 104.011719 106.296875 97.613281 138.476562 97.613281 138.476562 L 107.753906 138.476562 L 106.734375 150 L 150.910156 150 C 151.59375 149.386719 153.90625 147.339844 154.453125 144.886719 C 155.132812 142.023438 157.242188 102.339844 155.746094 97.089844 C 154.179688 91.839844 150.09375 91.160156 147.03125 89.660156 Z M 147.03125 89.660156 "/>
<path style=" stroke:none;fill-rule:nonzero;fill:rgb(10.588235%,9.803922%,26.666668%);fill-opacity:1;" d="M 43.835938 113.453125 C 46.355469 111.886719 51.597656 109.566406 51.597656 109.566406 C 51.597656 109.566406 50.847656 102.546875 47.171875 93.886719 C 43.019531 84 30.902344 84.476562 30.902344 84.476562 C 30.902344 84.476562 29.882812 92.453125 25.050781 92.453125 C 20.21875 92.453125 15.179688 84.410156 15.179688 84.410156 C 15.179688 84.410156 10.824219 84.273438 7.761719 85.839844 C 5.171875 87.136719 1.972656 87.816406 0 91.023438 L 0 126.136719 C 0 139.296875 10.6875 150 23.824219 150 L 45.742188 150 C 44.519531 141.886719 42.40625 127.5 41.113281 119.046875 C 40.636719 115.910156 42.40625 114.339844 43.835938 113.453125 Z M 43.835938 113.453125 "/>
<path style=" stroke:none;fill-rule:nonzero;fill:rgb(100%,100%,100%);fill-opacity:1;" d="M 108.4375 71.386719 C 109.253906 71.726562 109.796875 71.183594 110.136719 70.363281 C 110.476562 69.546875 110.546875 68.796875 109.730469 68.453125 C 108.914062 68.113281 107.960938 68.453125 107.617188 69.273438 C 107.277344 70.089844 107.6875 71.046875 108.4375 71.386719 "/>
<path style=" stroke:none;fill-rule:nonzero;fill:rgb(100%,100%,100%);fill-opacity:1;" d="M 109.457031 71.863281 C 108.640625 71.523438 108.707031 70.773438 109.046875 69.953125 C 109.390625 69.136719 109.933594 68.589844 110.75 68.933594 C 111.566406 69.273438 111.90625 70.226562 111.566406 71.046875 C 111.160156 71.863281 110.207031 72.203125 109.457031 71.863281 "/>
<path style=" stroke:none;fill-rule:nonzero;fill:rgb(100%,100%,100%);fill-opacity:1;" d="M 108.359375 71.398438 L 109.660156 68.46875 L 111.214844 69.164062 L 109.914062 72.089844 Z M 108.359375 71.398438 "/>
<path style=" stroke:none;fill-rule:nonzero;fill:rgb(100%,100%,100%);fill-opacity:1;" d="M 44.195312 65.246094 L 45.75 64.554688 L 47.050781 67.480469 L 45.496094 68.175781 Z M 44.195312 65.246094 "/>
<path style=" stroke:none;fill-rule:nonzero;fill:rgb(100%,100%,100%);fill-opacity:1;" d="M 117.210938 73.160156 L 117.875 70.023438 L 119.539062 70.378906 L 118.875 73.511719 Z M 117.210938 73.160156 "/>
<path style=" stroke:none;fill-rule:nonzero;fill:rgb(100%,100%,100%);fill-opacity:1;" d="M 38.1875 69.273438 C 37.300781 69.476562 36.894531 68.796875 36.757812 67.976562 C 36.554688 67.089844 36.691406 66.339844 37.507812 66.203125 C 38.390625 66 39.207031 66.546875 39.414062 67.433594 C 39.617188 68.25 39.074219 69.066406 38.1875 69.273438 "/>
<path style=" stroke:none;fill-rule:nonzero;fill:rgb(100%,100%,100%);fill-opacity:1;" d="M 35.964844 66.484375 L 37.628906 66.128906 L 38.292969 69.265625 L 36.628906 69.617188 Z M 35.964844 66.484375 "/>
<path style=" stroke:none;fill-rule:nonzero;fill:rgb(41.568628%,40.784314%,80.784315%);fill-opacity:1;" d="M 130.761719 73.703125 L 133.621094 77.523438 C 133.621094 77.523438 132.667969 78.953125 130.148438 78.410156 C 127.5625 77.933594 126.746094 76.296875 126.746094 76.296875 Z M 130.761719 73.703125 "/>
<path style=" stroke:none;fill-rule:nonzero;fill:rgb(98.823529%,81.568629%,86.274511%);fill-opacity:1;" d="M 131.988281 77.933594 C 131.648438 78 131.375 77.726562 131.308594 77.386719 C 131.238281 77.046875 131.511719 76.703125 131.785156 76.636719 C 132.125 76.566406 132.398438 76.773438 132.464844 77.113281 C 132.601562 77.453125 132.328125 77.863281 131.988281 77.933594 "/>
<path style=" stroke:none;fill-rule:nonzero;fill:rgb(98.823529%,81.568629%,86.274511%);fill-opacity:1;" d="M 130.421875 78.066406 C 130.082031 78.136719 129.808594 77.863281 129.742188 77.523438 C 129.671875 77.183594 129.945312 76.839844 130.21875 76.773438 C 130.558594 76.703125 130.832031 76.910156 130.898438 77.25 C 130.96875 77.589844 130.695312 78 130.421875 78.066406 "/>
<path style=" stroke:none;fill-rule:nonzero;fill:rgb(98.823529%,81.568629%,86.274511%);fill-opacity:1;" d="M 128.789062 77.316406 C 128.449219 77.386719 128.175781 77.113281 128.109375 76.773438 C 128.039062 76.433594 128.3125 76.089844 128.585938 76.023438 C 128.925781 75.953125 129.195312 76.160156 129.265625 76.5 C 129.332031 76.839844 129.128906 77.25 128.789062 77.316406 "/>
<path style=" stroke:none;fill-rule:nonzero;fill:rgb(41.568628%,40.784314%,80.784315%);fill-opacity:1;" d="M 97.75 136.773438 C 96.933594 140.046875 99.042969 141.273438 99.042969 141.273438 L 99.042969 143.660156 C 99.042969 143.660156 104.828125 142.363281 109.457031 147.613281 C 114.085938 152.863281 109.457031 133.433594 109.457031 133.433594 Z M 97.75 136.773438 "/>
<path style=" stroke:none;fill-rule:nonzero;fill:rgb(100%,100%,100%);fill-opacity:1;" d="M 139 140.933594 L 137.707031 147.273438 L 137.5 150 L 148.1875 150 L 150.027344 143.660156 C 150.027344 143.660156 145.464844 139.433594 144.445312 139.160156 C 138.726562 137.726562 139 140.933594 139 140.933594 Z M 139 140.933594 "/>
<path style=" stroke:none;fill-rule:nonzero;fill:rgb(94.117647%,29.803923%,22.745098%);fill-opacity:1;" d="M 126.203125 113.386719 C 121.027344 113.726562 122.796875 118.976562 124.839844 121.226562 C 126.882812 123.476562 129.878906 124.363281 129.878906 124.363281 C 129.878906 124.363281 138.046875 118.773438 135.253906 115.089844 C 132.398438 111.410156 129.265625 115.5 129.265625 115.5 Z M 126.203125 113.386719 "/>
<path style=" stroke:none;fill-rule:nonzero;fill:rgb(41.568628%,40.784314%,80.784315%);fill-opacity:1;" d="M 24.710938 105.273438 C 19.535156 105.613281 21.304688 110.863281 23.347656 113.113281 C 25.390625 115.363281 28.386719 116.25 28.386719 116.25 C 28.386719 116.25 36.554688 110.660156 33.761719 106.976562 C 30.902344 103.296875 27.773438 107.386719 27.773438 107.386719 Z M 24.710938 105.273438 "/>
<path style=" stroke:none;fill-rule:nonzero;fill:rgb(94.117647%,29.803923%,22.745098%);fill-opacity:1;" d="M 37.300781 43.910156 C 36.078125 43.5 34.785156 43.226562 33.492188 43.023438 C 30.15625 42.339844 28.316406 42.476562 25.390625 43.226562 C 20.761719 44.316406 16.542969 47.25 13.273438 52.976562 C 9.53125 59.589844 5.582031 61.433594 0 63.410156 L 0 112.226562 L 14.566406 89.113281 C 14.566406 89.113281 16.335938 80.589844 17.628906 77.453125 C 18.855469 74.316406 21.78125 74.113281 24.097656 72.546875 C 26.410156 70.976562 24.164062 69.546875 23.550781 67.023438 C 22.871094 64.5 23.550781 61.5 26.617188 61.566406 C 29.609375 61.703125 28.726562 64.636719 28.726562 64.636719 C 28.726562 64.636719 33.21875 65.933594 40.976562 62.589844 C 48.601562 59.316406 49.828125 52.296875 49.828125 52.296875 C 49.828125 52.296875 46.015625 46.566406 37.300781 43.910156 Z M 37.300781 43.910156 "/>
<path style=" stroke:none;fill-rule:nonzero;fill:rgb(10.588235%,9.803922%,26.666668%);fill-opacity:1;" d="M 26.480469 70.160156 C 26.070312 70.296875 25.59375 70.023438 25.390625 69.546875 C 25.1875 69.066406 25.390625 68.523438 25.867188 68.386719 C 26.273438 68.25 26.75 68.316406 26.957031 68.796875 C 27.09375 69.273438 26.886719 69.953125 26.480469 70.160156 "/>
<path style=" stroke:none;fill-rule:nonzero;fill:rgb(100%,100%,100%);fill-opacity:1;" d="M 51.257812 109.5 L 55.273438 130.160156 C 55.273438 130.160156 78.554688 116.796875 81.617188 114.816406 C 84.679688 112.839844 87.808594 109.636719 91.214844 111.683594 C 94.617188 113.726562 93.9375 115.5 96.046875 116.863281 C 98.15625 118.226562 100.402344 117.476562 101.765625 117.683594 C 103.125 117.816406 104.078125 117.953125 104.285156 119.589844 C 104.417969 121.226562 105.101562 120.683594 103.738281 120.75 C 102.378906 120.886719 95.230469 122.316406 94.210938 121.910156 C 93.257812 121.5 90.464844 118.910156 89.511719 118.773438 C 88.558594 118.703125 68.070312 136.433594 64.257812 139.566406 C 60.445312 142.773438 51.324219 150 45.742188 145.296875 C 42.882812 142.839844 42.75 138.816406 42.203125 135.953125 C 41.660156 133.023438 39.480469 116.589844 39.480469 116.589844 C 39.480469 116.589844 40.023438 112.226562 43.835938 110.660156 C 47.71875 109.160156 51.257812 109.5 51.257812 109.5 "/>
<path style=" stroke:none;fill-rule:nonzero;fill:rgb(98.823529%,76.862746%,84.313726%);fill-opacity:1;" d="M 52.824219 136.976562 C 52.617188 136.976562 52.480469 136.910156 52.347656 136.703125 C 52.140625 136.433594 52.210938 136.089844 52.480469 135.886719 C 54.183594 134.660156 54.457031 129.953125 54.457031 128.183594 C 54.457031 127.839844 54.726562 127.566406 55 127.566406 C 55.339844 127.566406 55.546875 127.839844 55.546875 128.113281 C 55.546875 128.183594 55.546875 129.816406 55.273438 131.660156 C 54.863281 134.25 54.183594 135.953125 53.09375 136.773438 C 53.027344 136.976562 52.890625 136.976562 52.824219 136.976562 Z M 52.824219 136.976562 "/>
<path style=" stroke:none;fill-rule:nonzero;fill:rgb(98.823529%,76.862746%,84.313726%);fill-opacity:1;" d="M 47.71875 142.566406 C 46.628906 142.226562 45.605469 142.226562 44.652344 142.636719 C 44.382812 142.773438 44.246094 143.113281 44.382812 143.386719 C 44.519531 143.660156 44.859375 143.796875 45.128906 143.660156 C 45.8125 143.386719 46.558594 143.316406 47.375 143.589844 C 50.984375 144.75 50.574219 149.796875 50.574219 149.863281 C 50.574219 149.863281 50.574219 149.933594 50.574219 150 L 51.734375 150 C 51.734375 149.796875 51.871094 148.433594 51.460938 146.863281 C 50.847656 144.683594 49.554688 143.183594 47.71875 142.566406 Z M 47.71875 142.566406 "/>
<path style=" stroke:none;fill-rule:nonzero;fill:rgb(10.588235%,9.803922%,26.666668%);fill-opacity:1;" d="M 38.050781 70.433594 C 37.167969 70.636719 36.757812 69.953125 36.621094 69.136719 C 36.417969 68.25 36.554688 67.5 37.371094 67.363281 C 38.253906 67.160156 39.074219 67.703125 39.277344 68.589844 C 39.480469 69.410156 38.9375 70.226562 38.050781 70.433594 "/>
<path style=" stroke:none;fill-rule:nonzero;fill:rgb(10.588235%,9.803922%,26.666668%);fill-opacity:1;" d="M 46.289062 69.339844 C 45.472656 69.683594 44.925781 69.136719 44.585938 68.316406 C 44.246094 67.5 44.175781 66.75 44.996094 66.410156 C 45.8125 66.066406 46.765625 66.410156 47.105469 67.226562 C 47.445312 68.046875 47.105469 69 46.289062 69.339844 "/>
<path style=" stroke:none;fill-rule:nonzero;fill:rgb(10.588235%,9.803922%,26.666668%);fill-opacity:1;" d="M 108.300781 71.386719 C 109.117188 71.726562 109.660156 71.183594 110 70.363281 C 110.339844 69.546875 110.410156 68.796875 109.59375 68.453125 C 108.777344 68.113281 107.824219 68.453125 107.484375 69.273438 C 107.140625 70.089844 107.550781 71.046875 108.300781 71.386719 "/>
<path style=" stroke:none;fill-rule:nonzero;fill:rgb(100%,100%,100%);fill-opacity:1;" d="M 109.117188 77.113281 C 108.980469 77.113281 108.84375 77.113281 108.707031 77.113281 C 107.414062 76.976562 106.257812 76.160156 105.441406 74.863281 C 104.691406 73.636719 104.351562 72.066406 104.554688 70.433594 C 104.894531 67.023438 107.347656 64.5 110 64.773438 C 111.292969 64.910156 112.453125 65.726562 113.269531 67.023438 C 114.015625 68.25 114.359375 69.816406 114.152344 71.453125 C 114.015625 73.089844 113.335938 74.523438 112.382812 75.613281 C 111.363281 76.636719 110.273438 77.113281 109.117188 77.113281 Z M 109.59375 66.136719 C 107.753906 66.136719 106.121094 68.113281 105.847656 70.636719 C 105.714844 71.933594 105.984375 73.226562 106.53125 74.25 C 107.074219 75.203125 107.890625 75.75 108.777344 75.886719 C 109.660156 75.953125 110.546875 75.613281 111.292969 74.796875 C 112.113281 73.910156 112.589844 72.75 112.722656 71.386719 C 112.859375 70.089844 112.589844 68.796875 112.042969 67.773438 C 111.5 66.816406 110.683594 66.273438 109.796875 66.136719 C 109.730469 66.136719 109.660156 66.136719 109.59375 66.136719 Z M 109.59375 66.136719 "/>
<path style=" stroke:none;fill-rule:nonzero;fill:rgb(100%,100%,100%);fill-opacity:1;" d="M 118.304688 78.410156 C 118.167969 78.410156 118.035156 78.410156 117.898438 78.410156 C 116.605469 78.273438 115.445312 77.453125 114.628906 76.160156 C 113.882812 74.933594 113.542969 73.363281 113.746094 71.726562 C 113.882812 70.089844 114.5625 68.660156 115.515625 67.566406 C 116.535156 66.476562 117.828125 65.933594 119.121094 66.066406 C 120.417969 66.203125 121.574219 67.023438 122.390625 68.316406 C 123.140625 69.546875 123.480469 71.113281 123.273438 72.75 C 123.140625 74.386719 122.457031 75.816406 121.503906 76.910156 C 120.621094 77.863281 119.464844 78.410156 118.304688 78.410156 Z M 118.78125 67.433594 C 117.964844 67.433594 117.148438 67.839844 116.46875 68.523438 C 115.652344 69.410156 115.175781 70.566406 115.039062 71.933594 C 114.902344 73.226562 115.175781 74.523438 115.71875 75.546875 C 116.265625 76.5 117.082031 77.046875 117.964844 77.183594 C 118.851562 77.25 119.734375 76.910156 120.484375 76.089844 C 121.300781 75.203125 121.777344 74.046875 121.914062 72.683594 C 122.050781 71.386719 121.777344 70.089844 121.234375 69.066406 C 120.6875 68.113281 119.871094 67.566406 118.988281 67.433594 C 118.988281 67.433594 118.851562 67.433594 118.78125 67.433594 Z M 118.78125 67.433594 "/>
<path style=" stroke:none;fill-rule:nonzero;fill:rgb(10.588235%,9.803922%,26.666668%);fill-opacity:1;" d="M 106.664062 54.683594 C 106.664062 54.683594 111.160156 49.636719 119.941406 48.066406 C 121.234375 47.863281 122.457031 47.726562 123.75 47.660156 C 127.019531 47.660156 129.945312 48.339844 131.648438 48.886719 C 136.003906 50.523438 139.816406 54 142.199219 60 C 145.738281 68.796875 150.570312 70.160156 158.195312 74.25 C 165.820312 78.339844 163.84375 81.75 165.820312 86.523438 C 167.859375 91.296875 171.742188 90.203125 175.554688 93.683594 C 179.363281 97.160156 179.773438 97.839844 175.210938 106.636719 C 170.652344 115.433594 151.25 127.839844 151.25 127.839844 C 151.25 127.839844 147.710938 112.433594 137.296875 101.523438 C 130.96875 94.976562 135.730469 86.660156 134.914062 83.453125 C 134.097656 80.25 131.308594 79.636719 129.265625 77.796875 C 127.222656 75.953125 129.539062 74.863281 130.492188 72.476562 C 131.445312 70.089844 131.171875 67.089844 128.246094 66.75 C 125.25 66.476562 125.792969 69.476562 125.792969 69.476562 C 125.792969 69.476562 121.234375 70.160156 114.085938 65.933594 C 106.9375 61.703125 106.664062 54.683594 106.664062 54.683594 "/>
<path style=" stroke:none;fill-rule:nonzero;fill:rgb(100%,100%,100%);fill-opacity:1;" d="M 118.578125 73.5 C 117.761719 73.160156 117.828125 72.410156 118.167969 71.589844 C 118.511719 70.773438 119.054688 70.226562 119.871094 70.566406 C 120.6875 70.910156 121.027344 71.863281 120.6875 72.683594 C 120.28125 73.5 119.328125 73.839844 118.578125 73.5 "/>
<path style=" stroke:none;fill-rule:nonzero;fill:rgb(10.588235%,9.803922%,26.666668%);fill-opacity:1;" d="M 117.082031 73.089844 C 117.898438 73.433594 118.441406 72.886719 118.78125 72.066406 C 119.121094 71.25 119.191406 70.5 118.375 70.160156 C 117.558594 69.816406 116.605469 70.160156 116.265625 70.976562 C 115.921875 71.796875 116.332031 72.75 117.082031 73.089844 "/>
<path style=" stroke:none;fill-rule:nonzero;fill:rgb(41.568628%,40.784314%,80.784315%);fill-opacity:1;" d="M 130.761719 73.5 L 133.621094 77.316406 C 133.621094 77.316406 132.667969 78.75 130.148438 78.203125 C 127.5625 77.726562 126.746094 76.089844 126.746094 76.089844 Z M 130.761719 73.5 "/>
<path style=" stroke:none;fill-rule:nonzero;fill:rgb(98.823529%,81.568629%,86.274511%);fill-opacity:1;" d="M 131.988281 77.726562 C 131.648438 77.796875 131.375 77.523438 131.308594 77.183594 C 131.238281 76.839844 131.511719 76.5 131.785156 76.433594 C 132.125 76.363281 132.398438 76.566406 132.464844 76.910156 C 132.601562 77.25 132.328125 77.660156 131.988281 77.726562 "/>
<path style=" stroke:none;fill-rule:nonzero;fill:rgb(98.823529%,81.568629%,86.274511%);fill-opacity:1;" d="M 130.421875 77.863281 C 130.082031 77.933594 129.808594 77.660156 129.742188 77.316406 C 129.671875 76.976562 129.945312 76.636719 130.21875 76.566406 C 130.558594 76.5 130.832031 76.703125 130.898438 77.046875 C 130.96875 77.386719 130.695312 77.796875 130.421875 77.863281 "/>
<path style=" stroke:none;fill-rule:nonzero;fill:rgb(98.823529%,81.568629%,86.274511%);fill-opacity:1;" d="M 128.789062 77.113281 C 128.449219 77.183594 128.175781 76.910156 128.109375 76.566406 C 128.039062 76.226562 128.3125 75.886719 128.585938 75.816406 C 128.925781 75.75 129.195312 75.953125 129.265625 76.296875 C 129.332031 76.636719 129.128906 77.046875 128.789062 77.113281 "/>
</g>
</svg>
