<?xml version="1.0" encoding="UTF-8"?>
<svg xmlns="http://www.w3.org/2000/svg" xmlns:xlink="http://www.w3.org/1999/xlink" width="132px" height="150px" viewBox="0 0 132 149" version="1.1">
<g id="surface1">
<path style=" stroke:none;fill-rule:nonzero;fill:rgb(10.588235%,9.803922%,26.666668%);fill-opacity:1;" d="M 34.222656 0 L 97.777344 0 C 116.648438 0 132 15.289062 132 34.085938 L 132 113.941406 C 132 132.738281 116.648438 148.027344 97.777344 148.027344 L 34.222656 148.027344 C 15.351562 148.027344 0 132.738281 0 113.941406 L 0 34.085938 C 0 15.289062 15.351562 0 34.222656 0 Z M 34.222656 0 "/>
<path style=" stroke:none;fill-rule:nonzero;fill:rgb(10.588235%,9.803922%,26.666668%);fill-opacity:1;" d="M 34.222656 0.390625 L 97.777344 0.390625 C 116.648438 0.390625 132 15.679688 132 34.472656 L 132 114.332031 C 132 133.125 116.648438 148.414062 97.777344 148.414062 L 34.222656 148.414062 C 15.351562 148.414062 0 133.125 0 114.332031 L 0 34.472656 C 0 15.582031 15.351562 0.390625 34.222656 0.390625 Z M 34.222656 0.390625 "/>
<path style=" stroke:none;fill-rule:nonzero;fill:rgb(10.588235%,9.803922%,26.666668%);fill-opacity:1;" d="M 34.222656 0.390625 L 97.777344 0.390625 C 116.648438 0.390625 132 15.679688 132 34.472656 L 132 114.332031 C 132 133.125 116.648438 148.414062 97.777344 148.414062 L 34.222656 148.414062 C 15.351562 148.414062 0 133.125 0 114.332031 L 0 34.472656 C 0 15.582031 15.351562 0.390625 34.222656 0.390625 Z M 34.222656 0.390625 "/>
<path style=" stroke:none;fill-rule:nonzero;fill:rgb(94.117647%,29.803923%,22.745098%);fill-opacity:1;" d="M 93.574219 68.171875 C 106.96875 69.242188 118.898438 87.453125 115.085938 95.535156 C 111.269531 103.617188 95.722656 108.972656 82.71875 106.246094 C 69.8125 103.519531 67.074219 101.378906 67.664062 92.808594 C 68.25 84.238281 80.667969 67.097656 93.574219 68.171875 "/>
<path style=" stroke:none;fill-rule:nonzero;fill:rgb(10.588235%,9.803922%,26.666668%);fill-opacity:1;" d="M 87.316406 100.890625 C 56.222656 102.351562 51.429688 129.328125 51.625 148.316406 L 97.777344 148.316406 C 110.976562 148.316406 122.417969 140.917969 128.089844 130.011719 C 125.449219 114.527344 115.183594 99.625 87.316406 100.890625 Z M 87.316406 100.890625 "/>
<path style=" stroke:none;fill-rule:nonzero;fill:rgb(94.509804%,31.37255%,23.529412%);fill-opacity:1;" d="M 66.097656 148.414062 L 97.777344 148.414062 C 111.464844 148.414062 123.296875 140.429688 128.773438 128.839844 C 98.265625 130.300781 73.625 138.09375 66.097656 148.414062 Z M 66.097656 148.414062 "/>
<path style=" stroke:none;fill-rule:nonzero;fill:rgb(24.313726%,18.82353%,20.784314%);fill-opacity:1;" d="M 93.28125 90.570312 C 93.867188 90.761719 94.453125 90.375 94.648438 89.789062 C 94.84375 89.207031 94.550781 88.523438 93.964844 88.328125 C 93.378906 88.132812 92.792969 88.328125 92.59375 88.914062 C 92.496094 89.496094 92.792969 90.375 93.28125 90.570312 "/>
<path style="fill:none;stroke-width:8.03;stroke-linecap:round;stroke-linejoin:miter;stroke:rgb(100%,100%,100%);stroke-opacity:1;stroke-miterlimit:4;" d="M 92.201261 110.201395 L 92.301136 106.499135 " transform="matrix(0.977778,0,0,0.973856,0,0)"/>
<path style="fill:none;stroke-width:8.03;stroke-linecap:round;stroke-linejoin:miter;stroke:rgb(100%,100%,100%);stroke-opacity:1;stroke-miterlimit:4;" d="M 95.301403 110.498217 L 95.401278 106.799969 " transform="matrix(0.977778,0,0,0.973856,0,0)"/>
<path style="fill:none;stroke-width:8.03;stroke-linecap:round;stroke-linejoin:miter;stroke:rgb(100%,100%,100%);stroke-opacity:1;stroke-miterlimit:4;" d="M 97.898171 109.700005 L 97.998047 106.001757 " transform="matrix(0.977778,0,0,0.973856,0,0)"/>
<path style="fill:none;stroke-width:8.03;stroke-linecap:round;stroke-linejoin:miter;stroke:rgb(100%,100%,100%);stroke-opacity:1;stroke-miterlimit:4;" d="M 89.600497 108.901793 C 89.600497 108.901793 90.69913 110.899329 95.101651 110.899329 C 99.500178 110.899329 101.401811 108.500682 101.401811 108.500682 " transform="matrix(0.977778,0,0,0.973856,0,0)"/>
<path style=" stroke:none;fill-rule:nonzero;fill:rgb(100%,100%,100%);fill-opacity:1;" d="M 58.863281 73.816406 C 51.332031 76.835938 42.4375 72.648438 39.109375 64.46875 C 35.785156 56.289062 39.207031 47.230469 46.738281 44.117188 C 54.265625 41.097656 64.042969 45.1875 67.367188 53.367188 C 70.691406 61.644531 66.390625 70.800781 58.863281 73.816406 "/>
<path style=" stroke:none;fill-rule:nonzero;fill:rgb(100%,100%,100%);fill-opacity:1;" d="M 39.992188 66.320312 C 41.261719 69.144531 37.742188 75.472656 37.742188 75.472656 C 37.742188 75.472656 48.300781 76.15625 54.460938 74.792969 C 60.71875 73.429688 39.992188 66.320312 39.992188 66.320312 Z M 39.992188 66.320312 "/>
<path style=" stroke:none;fill-rule:nonzero;fill:rgb(94.509804%,31.37255%,23.529412%);fill-opacity:1;" d="M 50.550781 56.386719 C 46.738281 56.679688 48.105469 60.476562 49.574219 62.035156 C 51.039062 63.691406 53.289062 64.273438 53.289062 64.273438 C 53.289062 64.273438 59.253906 60.183594 57.199219 57.554688 C 55.148438 54.925781 52.800781 57.847656 52.800781 57.847656 Z M 50.550781 56.386719 "/>
<path style=" stroke:none;fill-rule:nonzero;fill:rgb(100%,100%,100%);fill-opacity:1;" d="M 68.25 62.328125 C 66.976562 65.152344 70.496094 71.480469 70.496094 71.480469 C 70.496094 71.480469 59.9375 72.164062 53.777344 70.800781 C 47.519531 69.4375 68.25 62.328125 68.25 62.328125 Z M 68.25 62.328125 "/>
<path style=" stroke:none;fill-rule:nonzero;fill:rgb(100%,100%,100%);fill-opacity:1;" d="M 51.625 99.722656 C 50.355469 106.34375 48.792969 110.046875 41.847656 111.605469 C 34.90625 113.160156 35.492188 113.84375 35.003906 115.109375 C 34.417969 116.375 30.800781 118.90625 30.800781 118.90625 L 24.25 115.402344 C 24.25 115.402344 25.421875 109.363281 25.519531 107.027344 C 25.714844 104.691406 21.023438 104.785156 22.488281 96.023438 C 23.957031 87.355469 28.941406 80.734375 39.796875 84.042969 C 50.746094 87.257812 53.191406 91.835938 51.625 99.722656 "/>
<path style=" stroke:none;fill-rule:nonzero;fill:rgb(94.509804%,31.37255%,23.529412%);fill-opacity:1;" d="M 78.90625 123.289062 L 65.121094 128.355469 C 65.121094 128.355469 63.847656 129.132812 62.96875 127.964844 C 62.089844 126.796875 59.253906 122.316406 59.253906 122.316406 C 59.253906 122.316406 58.472656 121.632812 60.328125 120.757812 C 62.089844 119.882812 74.898438 114.816406 74.898438 114.816406 C 74.898438 114.816406 75.582031 114.039062 76.753906 116.082031 C 77.929688 118.128906 79.6875 120.660156 80.078125 121.632812 C 80.375 122.511719 80.078125 122.996094 78.90625 123.289062 "/>
<path style=" stroke:none;fill-rule:nonzero;fill:rgb(100%,100%,100%);fill-opacity:1;" d="M 65.21875 117.835938 C 61.992188 117.738281 61.40625 119.394531 62.1875 119.882812 C 62.96875 120.367188 66.195312 122.511719 66.195312 122.511719 C 66.195312 122.511719 65.121094 124.070312 65.414062 126.113281 C 65.707031 128.160156 66.683594 128.355469 66.683594 128.355469 C 66.683594 128.355469 55.34375 140.332031 47.910156 148.414062 L 60.328125 148.414062 C 64.632812 142.28125 71.574219 132.542969 72.648438 131.082031 C 74.3125 128.9375 74.703125 127.671875 73.527344 123.484375 C 72.550781 119.296875 68.445312 117.933594 65.21875 117.835938 Z M 65.21875 117.835938 "/>
<path style=" stroke:none;fill-rule:nonzero;fill:rgb(100%,100%,100%);fill-opacity:1;" d="M 92.300781 74.792969 C 100.320312 74.597656 99.636719 79.757812 99.636719 79.757812 C 99.636719 79.757812 105.011719 78.882812 104.816406 82.097656 C 104.621094 85.308594 99.636719 92.613281 99.636719 94.949219 C 99.636719 97.289062 103.546875 116.179688 100.710938 118.128906 C 97.875 120.078125 92.496094 121.730469 88.683594 116.667969 C 84.773438 111.507812 84.773438 104.203125 85.066406 99.722656 C 85.261719 95.242188 85.945312 91.347656 83.601562 88.328125 C 81.253906 85.308594 81.449219 82.972656 83.40625 82.289062 C 85.359375 81.609375 85.554688 81.902344 85.554688 81.902344 C 85.554688 81.902344 84.96875 75.085938 92.300781 74.792969 "/>
<path style=" stroke:none;fill-rule:nonzero;fill:rgb(98.823529%,76.862746%,84.313726%);fill-opacity:1;" d="M 97.679688 105.46875 C 99.050781 105.957031 100.515625 105.078125 101.003906 103.519531 C 101.492188 101.960938 100.808594 100.40625 99.441406 100.015625 C 98.070312 99.527344 96.605469 99.917969 96.117188 101.476562 C 95.625 102.9375 96.3125 105.078125 97.679688 105.46875 Z M 97.679688 105.46875 "/>
<path style=" stroke:none;fill-rule:nonzero;fill:rgb(98.823529%,81.568629%,86.274511%);fill-opacity:1;" d="M 89.859375 111.214844 C 93.867188 111.214844 97.09375 109.558594 97.09375 107.515625 C 97.09375 105.46875 93.867188 103.8125 89.859375 103.8125 C 85.847656 103.8125 82.621094 105.46875 82.621094 107.515625 C 82.621094 109.65625 85.847656 111.214844 89.859375 111.214844 Z M 89.859375 111.214844 "/>
<path style=" stroke:none;fill-rule:nonzero;fill:rgb(98.823529%,81.568629%,86.274511%);fill-opacity:1;" d="M 97.191406 97.191406 L 82.621094 97.191406 L 82.621094 107.707031 L 97.191406 107.707031 Z M 97.191406 97.191406 "/>
<path style=" stroke:none;fill-rule:nonzero;fill:rgb(41.568628%,40.784314%,80.784315%);fill-opacity:1;" d="M 89.859375 101.28125 C 93.867188 101.28125 97.09375 99.625 97.09375 97.582031 C 97.09375 95.535156 93.867188 93.878906 89.859375 93.878906 C 85.847656 93.878906 82.621094 95.535156 82.621094 97.582031 C 82.621094 99.625 85.847656 101.28125 89.859375 101.28125 Z M 89.859375 101.28125 "/>
<path style="fill:none;stroke-width:1.41;stroke-linecap:round;stroke-linejoin:round;stroke:rgb(10.588235%,9.803922%,26.666668%);stroke-opacity:1;stroke-miterlimit:4;" d="M 89.500621 98.89807 C 88.401989 97.899303 88.401989 95.901767 89.500621 94.898988 C 90.599254 93.90022 90.599254 91.898673 89.500621 90.899906 " transform="matrix(0.977778,0,0,0.973856,0,0)"/>
<path style="fill:none;stroke-width:1.41;stroke-linecap:round;stroke-linejoin:round;stroke:rgb(10.588235%,9.803922%,26.666668%);stroke-opacity:1;stroke-miterlimit:4;" d="M 94.698153 98.89807 C 93.599521 97.899303 93.599521 95.901767 94.698153 94.898988 C 95.800781 93.90022 95.800781 91.898673 94.698153 90.899906 " transform="matrix(0.977778,0,0,0.973856,0,0)"/>
<path style=" stroke:none;fill-rule:nonzero;fill:rgb(100%,100%,100%);fill-opacity:1;" d="M 122.125 145.589844 C 115.964844 146.566406 112.933594 136.925781 111.664062 132.835938 C 110.390625 128.839844 104.230469 106.734375 103.449219 106.34375 C 102.765625 105.957031 102.179688 106.148438 101.296875 105.957031 C 101.003906 105.859375 100.320312 105.273438 99.734375 104.398438 C 99.539062 104.398438 99.34375 104.496094 99.246094 104.496094 C 98.167969 104.496094 97.191406 103.617188 97.191406 102.449219 C 97.191406 101.378906 98.070312 100.40625 99.246094 100.40625 C 99.34375 100.40625 99.34375 100.40625 99.441406 100.40625 C 99.734375 100.308594 100.027344 100.308594 100.417969 100.40625 C 102.570312 100.597656 102.179688 100.308594 105.601562 100.40625 C 109.023438 100.597656 110.097656 104.105469 111.367188 106.929688 C 112.640625 109.753906 126.621094 132.347656 126.621094 132.347656 C 126.621094 132.347656 128.96875 144.519531 122.125 145.589844 Z M 122.125 145.589844 "/>
<path style=" stroke:none;fill-rule:nonzero;fill:rgb(41.568628%,40.784314%,80.784315%);fill-opacity:1;" d="M 61.207031 140.234375 C 59.058594 137.996094 59.351562 136.144531 58.277344 135.949219 C 57.980469 135.949219 56.222656 137.023438 53.777344 138.675781 C 53.484375 129.328125 52.996094 120.855469 52.214844 118.90625 C 50.160156 114.039062 46.054688 113.84375 42.925781 112.675781 C 39.796875 111.507812 32.460938 113.648438 32.460938 113.648438 L 31.582031 111.410156 L 20.042969 112.285156 L 20.925781 114.332031 C 20.925781 114.332031 16.328125 114.914062 14.179688 114.527344 C 12.027344 114.136719 5.964844 117.351562 2.738281 123.484375 C 2.445312 123.972656 2.152344 124.652344 1.859375 125.433594 C 6.453125 138.773438 19.261719 148.316406 34.222656 148.316406 L 62.578125 148.316406 C 64.925781 144.8125 66.683594 142.085938 66.585938 141.890625 C 66.097656 141.210938 62.871094 141.988281 61.207031 140.234375 Z M 61.207031 140.234375 "/>
<path style=" stroke:none;fill-rule:nonzero;fill:rgb(10.588235%,9.803922%,26.666668%);fill-opacity:1;" d="M 39.796875 99.722656 C 37.546875 102.644531 35.492188 108.390625 37.253906 110.433594 C 39.207031 112.675781 42.238281 111.605469 42.238281 111.605469 C 42.238281 111.605469 47.226562 125.917969 42.042969 132.25 C 35.003906 140.820312 21.121094 132.640625 17.601562 127.671875 C 14.078125 122.707031 11.929688 112.382812 17.992188 112.96875 C 20.4375 113.257812 20.535156 104.203125 20.828125 99.820312 C 20.535156 96.605469 20.925781 93.101562 22.683594 90.082031 C 25.421875 85.699219 29.429688 83.265625 32.558594 82.679688 C 35.6875 82.097656 37.839844 82.679688 39.011719 82.777344 C 39.992188 82.972656 41.066406 83.265625 42.042969 83.558594 C 48.890625 85.894531 51.722656 90.570312 51.722656 90.570312 C 51.722656 90.570312 50.550781 96.121094 44.390625 98.457031 C 42.535156 99.136719 41.066406 99.527344 39.796875 99.722656 Z M 39.796875 99.722656 "/>
</g>
</svg>
