<?xml version="1.0" encoding="utf-8"?>
<!-- Generator: Adobe Illustrator 27.9.6, SVG Export Plug-In . SVG Version: 9.03 Build 54986)  -->
<svg version="1.1" id="Layer_1" xmlns="http://www.w3.org/2000/svg" xmlns:xlink="http://www.w3.org/1999/xlink" x="0px" y="0px"
	 viewBox="0 0 135 153" style="enable-background:new 0 0 135 153;" xml:space="preserve">
<style type="text/css">
	.st0{fill:#1B1944;}
	.st1{fill:#F04C3A;}
	.st2{fill:#F1503C;}
	.st3{fill:#3E3035;}
	.st4{fill:none;stroke:#FFFFFF;stroke-width:8.03;stroke-linecap:round;}
	.st5{fill:#FFFFFF;}
	.st6{fill:#FCC4D7;}
	.st7{fill:#FCD0DC;}
	.st8{fill:#6A68CE;}
	.st9{fill:none;stroke:#1B1944;stroke-width:1.41;stroke-linecap:round;stroke-linejoin:round;}
</style>
<g>
	<path class="st0" d="M35,0h65c19.3,0,35,15.7,35,35v82c0,19.3-15.7,35-35,35H35c-19.3,0-35-15.7-35-35V35C0,15.7,15.7,0,35,0z"/>
	<path class="st0" d="M35,0.4h65c19.3,0,35,15.7,35,35v82c0,19.3-15.7,35-35,35H35c-19.3,0-35-15.7-35-35v-82C0,16,15.7,0.4,35,0.4z
		"/>
	<path class="st0" d="M35,0.4h65c19.3,0,35,15.7,35,35v82c0,19.3-15.7,35-35,35H35c-19.3,0-35-15.7-35-35v-82C0,16,15.7,0.4,35,0.4z
		"/>
	<path class="st1" d="M95.7,70c13.7,1.1,25.9,19.8,22,28.1c-3.9,8.3-19.8,13.8-33.1,11c-13.2-2.8-16-5-15.4-13.8
		C69.8,86.5,82.5,68.9,95.7,70"/>
	<path class="st0" d="M89.3,103.6c-31.8,1.5-36.7,29.2-36.5,48.7H100c13.5,0,25.2-7.6,31-18.8C128.3,117.6,117.8,102.3,89.3,103.6z"
		/>
	<path class="st2" d="M67.6,152.4H100c14,0,26.1-8.2,31.7-20.1C100.5,133.8,75.3,141.8,67.6,152.4z"/>
	<path class="st3" d="M95.4,93c0.6,0.2,1.2-0.2,1.4-0.8c0.2-0.6-0.1-1.3-0.7-1.5c-0.6-0.2-1.2,0-1.4,0.6
		C94.6,91.9,94.9,92.8,95.4,93"/>
	<path class="st4" d="M92.2,110.2l0.1-3.7"/>
	<path class="st4" d="M95.3,110.5l0.1-3.7"/>
	<path class="st4" d="M97.9,109.7l0.1-3.7"/>
	<path class="st4" d="M89.6,108.9c0,0,1.1,2,5.5,2s6.3-2.4,6.3-2.4"/>
	<path class="st5" d="M60.2,75.8c-7.7,3.1-16.8-1.2-20.2-9.6c-3.4-8.4,0.1-17.7,7.8-20.9c7.7-3.1,17.7,1.1,21.1,9.5
		C72.3,63.3,67.9,72.7,60.2,75.8"/>
	<path class="st5" d="M40.9,68.1c1.3,2.9-2.3,9.4-2.3,9.4s10.8,0.7,17.1-0.7C62.1,75.4,40.9,68.1,40.9,68.1z"/>
	<path class="st2" d="M51.7,57.9c-3.9,0.3-2.5,4.2-1,5.8c1.5,1.7,3.8,2.3,3.8,2.3s6.1-4.2,4-6.9c-2.1-2.7-4.5,0.3-4.5,0.3L51.7,57.9
		z"/>
	<path class="st5" d="M69.8,64c-1.3,2.9,2.3,9.4,2.3,9.4S61.3,74.1,55,72.7C48.6,71.3,69.8,64,69.8,64z"/>
	<path class="st5" d="M52.8,102.4c-1.3,6.8-2.9,10.6-10,12.2c-7.1,1.6-6.5,2.3-7,3.6c-0.6,1.3-4.3,3.9-4.3,3.9l-6.7-3.6
		c0,0,1.2-6.2,1.3-8.6c0.2-2.4-4.6-2.3-3.1-11.3c1.5-8.9,6.6-15.7,17.7-12.3C51.9,89.6,54.4,94.3,52.8,102.4"/>
	<path class="st2" d="M80.7,126.6l-14.1,5.2c0,0-1.3,0.8-2.2-0.4c-0.9-1.2-3.8-5.8-3.8-5.8s-0.8-0.7,1.1-1.6
		c1.8-0.9,14.9-6.1,14.9-6.1s0.7-0.8,1.9,1.3c1.2,2.1,3,4.7,3.4,5.7C82.2,125.8,81.9,126.3,80.7,126.6"/>
	<path class="st5" d="M66.7,121c-3.3-0.1-3.9,1.6-3.1,2.1c0.8,0.5,4.1,2.7,4.1,2.7s-1.1,1.6-0.8,3.7c0.3,2.1,1.3,2.3,1.3,2.3
		S56.6,144.1,49,152.4h12.7c4.4-6.3,11.5-16.3,12.6-17.8c1.7-2.2,2.1-3.5,0.9-7.8C74.2,122.5,70,121.1,66.7,121z"/>
	<path class="st5" d="M94.4,76.8c8.2-0.2,7.5,5.1,7.5,5.1s5.5-0.9,5.3,2.4c-0.2,3.3-5.3,10.8-5.3,13.2c0,2.4,4,21.8,1.1,23.8
		c-2.9,2-8.4,3.7-12.3-1.5c-4-5.3-4-12.8-3.7-17.4c0.2-4.6,0.9-8.6-1.5-11.7c-2.4-3.1-2.2-5.5-0.2-6.2s2.2-0.4,2.2-0.4
		S86.9,77.1,94.4,76.8"/>
	<path class="st6" d="M99.9,108.3c1.4,0.5,2.9-0.4,3.4-2c0.5-1.6-0.2-3.2-1.6-3.6c-1.4-0.5-2.9-0.1-3.4,1.5
		C97.8,105.7,98.5,107.9,99.9,108.3z"/>
	<path class="st7" d="M91.9,114.2c4.1,0,7.4-1.7,7.4-3.8c0-2.1-3.3-3.8-7.4-3.8c-4.1,0-7.4,1.7-7.4,3.8
		C84.5,112.6,87.8,114.2,91.9,114.2z"/>
	<path class="st7" d="M99.4,99.8H84.5v10.8h14.9V99.8z"/>
	<path class="st8" d="M91.9,104c4.1,0,7.4-1.7,7.4-3.8c0-2.1-3.3-3.8-7.4-3.8c-4.1,0-7.4,1.7-7.4,3.8C84.5,102.3,87.8,104,91.9,104z
		"/>
	<path class="st9" d="M89.5,98.9c-1.1-1-1.1-3,0-4c1.1-1,1.1-3,0-4"/>
	<path class="st9" d="M94.7,98.9c-1.1-1-1.1-3,0-4c1.1-1,1.1-3,0-4"/>
	<path class="st5" d="M124.9,149.5c-6.3,1-9.4-8.9-10.7-13.1c-1.3-4.1-7.6-26.8-8.4-27.2c-0.7-0.4-1.3-0.2-2.2-0.4
		c-0.3-0.1-1-0.7-1.6-1.6c-0.2,0-0.4,0.1-0.5,0.1c-1.1,0-2.1-0.9-2.1-2.1c0-1.1,0.9-2.1,2.1-2.1c0.1,0,0.1,0,0.2,0
		c0.3-0.1,0.6-0.1,1,0c2.2,0.2,1.8-0.1,5.3,0c3.5,0.2,4.6,3.8,5.9,6.7c1.3,2.9,15.6,26.1,15.6,26.1S131.9,148.4,124.9,149.5z"/>
	<path class="st8" d="M62.6,144c-2.2-2.3-1.9-4.2-3-4.4c-0.3,0-2.1,1.1-4.6,2.8c-0.3-9.6-0.8-18.3-1.6-20.3c-2.1-5-6.3-5.2-9.5-6.4
		c-3.2-1.2-10.7,1-10.7,1l-0.9-2.3l-11.8,0.9l0.9,2.1c0,0-4.7,0.6-6.9,0.2c-2.2-0.4-8.4,2.9-11.7,9.2c-0.3,0.5-0.6,1.2-0.9,2
		c4.7,13.7,17.8,23.5,33.1,23.5h29c2.4-3.6,4.2-6.4,4.1-6.6C67.6,145,64.3,145.8,62.6,144z"/>
	<path class="st0" d="M40.7,102.4c-2.3,3-4.4,8.9-2.6,11c2,2.3,5.1,1.2,5.1,1.2s5.1,14.7-0.2,21.2c-7.2,8.8-21.4,0.4-25-4.7
		c-3.6-5.1-5.8-15.7,0.4-15.1c2.5,0.3,2.6-9,2.9-13.5c-0.3-3.3,0.1-6.9,1.9-10c2.8-4.5,6.9-7,10.1-7.6c3.2-0.6,5.4,0,6.6,0.1
		c1,0.2,2.1,0.5,3.1,0.8c7,2.4,9.9,7.2,9.9,7.2s-1.2,5.7-7.5,8.1C43.5,101.8,42,102.2,40.7,102.4z"/>
</g>
</svg>
