<?xml version="1.0" encoding="UTF-8"?>
<svg xmlns="http://www.w3.org/2000/svg" xmlns:xlink="http://www.w3.org/1999/xlink" width="133px" height="150px" viewBox="0 0 133 149" version="1.1">
<defs>
<clipPath id="clip1">
  <path d="M 68 133 L 81 133 L 81 142.136719 L 68 142.136719 Z M 68 133 "/>
</clipPath>
<clipPath id="clip2">
  <path d="M 11.820312 91 L 53 91 L 53 135 L 11.820312 135 Z M 11.820312 91 "/>
</clipPath>
<clipPath id="clip3">
  <path d="M 91 46.074219 L 107 46.074219 L 107 61 L 91 61 Z M 91 46.074219 "/>
</clipPath>
<clipPath id="clip4">
  <path d="M 101 70 L 127.089844 70 L 127.089844 77 L 101 77 Z M 101 70 "/>
</clipPath>
</defs>
<g id="surface1">
<path style=" stroke:none;fill-rule:nonzero;fill:rgb(41.568628%,40.784314%,80.784315%);fill-opacity:1;" d="M 34.480469 0 L 98.519531 0 C 117.53125 0 133 15.390625 133 34.308594 L 133 114.691406 C 133 133.609375 117.53125 149 98.519531 149 L 34.480469 149 C 15.46875 149 0 133.609375 0 114.691406 L 0 34.308594 C 0 15.390625 15.46875 0 34.480469 0 Z M 34.480469 0 "/>
<path style=" stroke:none;fill-rule:nonzero;fill:rgb(10.588235%,9.803922%,26.666668%);fill-opacity:1;" d="M 84.035156 131.453125 C 84.035156 131.453125 79.207031 135.667969 80.882812 136.746094 C 82.558594 137.726562 85.21875 138.316406 86.402344 138.902344 C 87.484375 139.589844 88.960938 141.550781 91.128906 141.648438 C 93.199219 141.84375 92.902344 141.15625 91.722656 139.492188 C 90.539062 137.824219 87.289062 135.277344 87.386719 135.375 C 87.484375 135.472656 87.386719 133.023438 87.386719 133.023438 Z M 84.035156 131.453125 "/>
<path style=" stroke:none;fill-rule:nonzero;fill:rgb(10.588235%,9.803922%,26.666668%);fill-opacity:1;" d="M 107.976562 133.804688 C 107.976562 133.804688 105.511719 139.6875 107.484375 139.882812 C 109.453125 140.078125 112.113281 139.394531 113.394531 139.492188 C 114.675781 139.589844 117.136719 141.058594 119.011719 139.882812 C 120.785156 138.707031 119.699219 138.019531 117.828125 137.039062 C 115.957031 136.058594 113.296875 135.960938 113.394531 135.960938 C 113.59375 135.960938 111.621094 133.707031 111.621094 133.707031 Z M 107.976562 133.804688 "/>
<path style=" stroke:none;fill-rule:nonzero;fill:rgb(10.588235%,9.803922%,26.666668%);fill-opacity:1;" d="M 17.042969 128.316406 C 17.042969 128.316406 12.609375 132.921875 14.480469 133.804688 C 16.253906 134.6875 17.042969 134.199219 18.226562 134.785156 C 19.40625 135.375 23.152344 137.53125 25.320312 137.039062 C 27.386719 136.648438 26.601562 135.375 25.121094 133.804688 C 23.742188 132.238281 21.574219 131.355469 21.773438 131.355469 C 21.871094 131.453125 20.589844 129.492188 20.589844 129.492188 Z M 17.042969 128.316406 "/>
<path style=" stroke:none;fill-rule:nonzero;fill:rgb(10.588235%,9.803922%,26.666668%);fill-opacity:1;" d="M 40.589844 132.628906 C 40.589844 132.628906 37.929688 138.414062 39.898438 138.707031 C 41.871094 139 42.757812 138.316406 44.039062 138.414062 C 45.320312 138.511719 49.652344 140.277344 51.425781 139 C 52.707031 138.019531 51.722656 136.453125 50.34375 136.160156 C 48.273438 135.667969 45.8125 134.980469 46.007812 134.980469 C 46.207031 134.980469 44.332031 132.726562 44.332031 132.726562 Z M 40.589844 132.628906 "/>
<g clip-path="url(#clip1)" clip-rule="nonzero">
<path style=" stroke:none;fill-rule:nonzero;fill:rgb(90.980393%,90.196079%,86.274511%);fill-opacity:1;" d="M 70.636719 133.804688 C 70.636719 133.804688 67.089844 139.097656 68.863281 139.589844 C 70.636719 140.175781 73.199219 139.980469 74.382812 140.375 C 75.5625 140.765625 77.4375 142.628906 79.40625 141.84375 C 81.277344 141.058594 80.488281 140.175781 78.914062 138.804688 C 77.4375 137.53125 74.972656 136.84375 75.070312 136.941406 C 75.167969 136.941406 73.988281 134.394531 73.988281 134.394531 Z M 70.636719 133.804688 "/>
</g>
<path style=" stroke:none;fill-rule:nonzero;fill:rgb(90.980393%,90.196079%,86.274511%);fill-opacity:1;" d="M 56.648438 129.101562 C 56.648438 129.101562 51.523438 132.824219 53.003906 134.003906 C 54.480469 135.179688 57.832031 136.648438 58.816406 137.335938 C 59.800781 138.117188 59.996094 139.785156 62.164062 139.6875 C 64.234375 139.589844 63.742188 138.414062 62.757812 136.648438 C 61.769531 134.882812 59.703125 133.511719 59.800781 133.609375 C 59.898438 133.707031 59.605469 130.863281 59.605469 130.863281 Z M 56.648438 129.101562 "/>
<path style=" stroke:none;fill-rule:nonzero;fill:rgb(90.980393%,90.196079%,86.274511%);fill-opacity:1;" d="M 93.691406 67.441406 C 93.691406 67.441406 89.0625 80.96875 89.0625 82.539062 C 89.0625 84.105469 92.507812 96.753906 92.902344 97.339844 C 93.296875 97.929688 95.761719 101.75 97.140625 100.96875 C 98.519531 100.183594 98.714844 99.59375 98.125 98.808594 C 97.535156 98.027344 95.859375 96.359375 95.859375 95.378906 C 95.859375 94.398438 95.265625 91.753906 95.070312 90.378906 C 94.875 89.007812 92.707031 83.125 92.902344 82.34375 C 93.101562 81.558594 94.480469 74.5 94.480469 74.5 Z M 93.691406 67.441406 "/>
<path style=" stroke:none;fill-rule:nonzero;fill:rgb(90.980393%,90.196079%,86.274511%);fill-opacity:1;" d="M 45.910156 75.96875 L 47.191406 87.242188 L 46.597656 97.144531 C 46.597656 97.144531 47.585938 101.554688 46.007812 101.261719 C 44.433594 101.066406 43.152344 95.476562 43.152344 95.476562 L 43.152344 74.792969 Z M 45.910156 75.96875 "/>
<g clip-path="url(#clip2)" clip-rule="nonzero">
<path style=" stroke:none;fill-rule:nonzero;fill:rgb(10.588235%,9.803922%,26.666668%);fill-opacity:1;" d="M 41.574219 91.753906 C 41.574219 91.753906 48.175781 110.964844 48.175781 114.199219 C 48.175781 117.433594 52.214844 133.21875 52.214844 133.21875 C 52.214844 133.21875 52.019531 134.6875 48.175781 134.785156 C 44.332031 134.785156 19.902344 130.179688 19.902344 130.179688 C 19.902344 130.179688 16.058594 129.886719 14.285156 128.609375 C 12.511719 127.335938 11.820312 124.789062 11.820312 124.789062 C 11.820312 124.789062 20.097656 114.398438 20.195312 113.320312 C 20.292969 112.238281 26.007812 92.046875 26.007812 92.046875 Z M 41.574219 91.753906 "/>
</g>
<path style=" stroke:none;fill-rule:nonzero;fill:rgb(98.823529%,76.862746%,84.313726%);fill-opacity:1;" d="M 58.71875 71.363281 C 58.617188 70.089844 58.914062 68.914062 59.40625 67.734375 C 59.800781 66.855469 60.390625 65.875 61.179688 65.675781 C 62.65625 65.1875 70.242188 63.914062 72.609375 69.5 C 75.070312 75.1875 73.003906 86.460938 73.296875 88.222656 C 73.59375 89.988281 80.6875 106.945312 80.785156 111.457031 C 80.980469 115.964844 76.550781 134.199219 76.550781 134.199219 C 76.550781 134.199219 64.824219 135.667969 60.984375 133.511719 C 57.042969 131.355469 54.183594 128.804688 54.183594 128.804688 C 54.183594 128.804688 56.945312 123.414062 57.535156 115.671875 C 58.125 108.320312 56.84375 107.339844 56.84375 97.4375 C 56.84375 94.695312 58.914062 84.792969 58.914062 79.5 C 58.914062 76.167969 58.816406 73.128906 58.71875 71.363281 Z M 58.71875 71.363281 "/>
<path style=" stroke:none;fill-rule:nonzero;fill:rgb(90.980393%,90.196079%,86.274511%);fill-opacity:1;" d="M 41.773438 50.679688 C 41.773438 50.679688 45.023438 51.269531 44.234375 56.464844 C 43.445312 61.660156 40.785156 61.460938 39.605469 61.855469 C 38.421875 62.246094 38.027344 65.089844 38.027344 65.089844 C 38.027344 65.089844 36.648438 66.460938 34.1875 65.875 C 31.722656 65.285156 31.527344 60.480469 32.609375 56.855469 C 33.890625 53.128906 41.773438 50.679688 41.773438 50.679688 Z M 41.773438 50.679688 "/>
<path style=" stroke:none;fill-rule:nonzero;fill:rgb(94.509804%,30.980393%,23.137255%);fill-opacity:1;" d="M 43.152344 64.304688 C 44.136719 64.699219 45.417969 65.480469 45.613281 66.953125 C 45.8125 68.519531 47.191406 76.363281 47.191406 76.363281 C 47.191406 76.363281 46.007812 77.441406 45.121094 77.636719 C 44.234375 77.734375 43.050781 77.539062 43.050781 76.851562 C 43.050781 76.167969 44.332031 93.613281 44.332031 93.613281 L 22.460938 93.320312 C 22.460938 93.320312 24.726562 85.871094 25.121094 83.324219 C 25.515625 80.871094 24.925781 76.949219 24.925781 76.949219 L 25.910156 74.109375 C 25.910156 74.109375 22.855469 73.714844 21.871094 73.324219 C 20.886719 72.929688 20.097656 71.753906 20.097656 71.753906 C 20.097656 71.753906 20.886719 70.972656 21.082031 70.578125 C 21.28125 70.1875 23.347656 64.796875 25.714844 64.597656 C 28.078125 64.402344 32.609375 65.382812 35.367188 65.1875 C 38.027344 64.992188 38.226562 64.207031 39.605469 64.011719 C 40.984375 63.914062 43.152344 64.304688 43.152344 64.304688 Z M 43.152344 64.304688 "/>
<path style=" stroke:none;fill-rule:nonzero;fill:rgb(10.588235%,9.803922%,26.666668%);fill-opacity:1;" d="M 60.785156 74.5 C 60.785156 74.5 59.308594 82.539062 59.503906 84.007812 C 59.703125 85.480469 65.21875 95.773438 65.710938 96.261719 C 66.203125 96.753906 69.257812 100.183594 70.441406 99.203125 C 71.621094 98.222656 71.722656 97.632812 71.03125 96.949219 C 70.34375 96.261719 68.371094 94.792969 68.175781 93.910156 C 67.976562 92.929688 66.992188 90.378906 66.597656 89.105469 C 66.203125 87.832031 64.332031 84.402344 64.332031 83.617188 C 64.332031 82.832031 65.613281 75.480469 65.613281 75.480469 Z M 60.785156 74.5 "/>
<path style=" stroke:none;fill-rule:nonzero;fill:rgb(10.588235%,9.803922%,26.666668%);fill-opacity:1;" d="M 36.550781 58.128906 C 36.550781 58.128906 36.15625 56.855469 35.367188 57.148438 C 34.578125 57.34375 33.988281 58.523438 34.679688 59.894531 C 35.367188 61.265625 35.464844 61.660156 35.269531 62.050781 C 34.972656 62.539062 34.085938 62.441406 33.691406 63.03125 C 33.300781 63.617188 33.59375 64.402344 33.199219 64.5 C 32.808594 64.597656 30.539062 63.914062 29.652344 59.109375 C 28.867188 54.207031 30.835938 49.992188 33.496094 48.71875 C 36.15625 47.445312 39.308594 47.738281 40.6875 48.523438 C 42.066406 49.308594 43.347656 50.679688 43.546875 51.070312 C 44.332031 52.347656 42.953125 53.425781 41.773438 54.40625 C 40.6875 55.484375 37.632812 58.621094 36.550781 58.128906 Z M 36.550781 58.128906 "/>
<path style=" stroke:none;fill-rule:nonzero;fill:rgb(10.588235%,9.803922%,26.666668%);fill-opacity:1;" d="M 72.015625 51.269531 C 72.015625 51.269531 73.59375 52.050781 73.988281 54.503906 C 74.480469 56.953125 72.902344 60.777344 72.015625 61.558594 C 71.128906 62.34375 69.160156 62.148438 68.765625 62.933594 C 68.273438 63.71875 67.191406 66.265625 67.191406 66.265625 L 63.542969 64.699219 L 64.332031 55.875 Z M 72.015625 51.269531 "/>
<path style=" stroke:none;fill-rule:nonzero;fill:rgb(98.823529%,76.862746%,84.313726%);fill-opacity:1;" d="M 73.003906 50.777344 C 73.296875 51.269531 73.296875 51.757812 73.101562 52.246094 C 72.609375 53.425781 70.441406 55.386719 69.75 56.464844 C 68.863281 57.933594 66.105469 63.128906 66.105469 63.128906 L 66.105469 65.675781 C 66.105469 65.675781 65.515625 67.246094 63.9375 66.953125 C 62.363281 66.65625 60.785156 67.148438 60.292969 64.796875 C 59.800781 62.441406 60.492188 57.148438 60.292969 55.777344 C 60.097656 54.40625 59.210938 52.933594 60.589844 51.367188 C 62.066406 49.796875 63.839844 48.03125 66.007812 48.03125 C 68.175781 47.933594 71.820312 48.71875 73.003906 50.777344 Z M 73.003906 50.777344 "/>
<path style=" stroke:none;fill-rule:nonzero;fill:rgb(90.980393%,90.196079%,86.274511%);fill-opacity:1;" d="M 102.359375 50.582031 C 102.359375 50.582031 104.921875 50.089844 105.613281 50.875 C 106.300781 51.660156 107.285156 57.445312 106.597656 58.421875 C 105.90625 59.402344 104.332031 60.777344 103.050781 61.363281 C 101.769531 61.953125 101.277344 64.109375 101.277344 64.109375 L 96.648438 64.011719 C 96.648438 64.011719 97.632812 62.738281 97.238281 61.460938 C 96.84375 60.089844 95.660156 58.816406 95.464844 57.445312 C 95.167969 56.167969 102.359375 50.582031 102.359375 50.582031 Z M 102.359375 50.582031 "/>
<g clip-path="url(#clip3)" clip-rule="nonzero">
<path style=" stroke:none;fill-rule:nonzero;fill:rgb(94.509804%,31.37255%,23.529412%);fill-opacity:1;" d="M 96.84375 48.71875 C 96.84375 48.71875 98.320312 46.367188 101.078125 46.855469 C 103.839844 47.445312 106.105469 48.230469 106.105469 50.386719 C 106.105469 52.542969 104.625 54.011719 103.148438 54.503906 C 101.671875 55.089844 99.40625 55.1875 99.40625 55.1875 C 99.40625 55.1875 99.011719 53.914062 98.421875 54.40625 C 97.828125 54.894531 97.828125 56.265625 97.925781 57.246094 C 98.027344 58.226562 97.140625 60.382812 95.859375 59.992188 C 94.578125 59.601562 93.394531 54.992188 93.394531 53.914062 C 93.394531 52.835938 93.886719 50.972656 93.886719 50.972656 C 93.886719 50.972656 92.113281 50.972656 91.722656 49.601562 C 91.328125 48.230469 91.820312 46.953125 92.902344 46.367188 C 93.988281 45.777344 95.464844 45.875 96.054688 46.464844 C 96.546875 47.25 96.84375 48.71875 96.84375 48.71875 Z M 96.84375 48.71875 "/>
</g>
<path style=" stroke:none;fill-rule:nonzero;fill:rgb(98.823529%,76.862746%,84.313726%);fill-opacity:1;" d="M 96.648438 64.207031 L 101.277344 64.304688 C 101.277344 64.304688 105.316406 68.421875 106.203125 71.070312 C 107.1875 73.714844 106.894531 83.519531 106.203125 89.792969 C 105.511719 96.164062 93.296875 92.339844 93.296875 92.339844 C 93.296875 92.339844 91.128906 82.242188 91.523438 77.148438 C 92.507812 64.207031 96.648438 64.207031 96.648438 64.207031 Z M 96.648438 64.207031 "/>
<path style=" stroke:none;fill-rule:nonzero;fill:rgb(10.588235%,9.803922%,26.666668%);fill-opacity:1;" d="M 105.808594 91.65625 C 105.808594 91.65625 110.933594 113.121094 110.933594 116.847656 C 110.933594 120.574219 114.085938 132.921875 114.085938 132.921875 C 114.085938 132.921875 113.984375 134.589844 110.933594 134.589844 C 107.878906 134.589844 106.792969 132.042969 106.792969 132.042969 L 103.9375 116.847656 L 99.109375 101.164062 C 99.109375 101.164062 96.351562 116.257812 95.859375 118.515625 C 95.464844 120.769531 88.765625 134.882812 88.765625 134.882812 C 88.765625 134.882812 85.710938 134.589844 84.332031 133.121094 C 82.953125 131.648438 82.460938 128.90625 82.460938 128.90625 C 82.460938 128.90625 88.960938 117.238281 89.0625 115.964844 C 89.160156 114.691406 93.59375 92.046875 93.59375 92.046875 Z M 105.808594 91.65625 "/>
<path style=" stroke:none;fill-rule:nonzero;fill:rgb(90.980393%,90.196079%,86.274511%);fill-opacity:1;" d="M 21.574219 72.148438 C 21.574219 72.148438 22.855469 73.226562 23.546875 73.519531 C 24.234375 73.8125 26.007812 73.8125 26.007812 73.8125 L 24.628906 78.226562 C 24.628906 78.226562 35.269531 90.28125 35.960938 91.164062 C 36.648438 92.046875 38.226562 93.222656 37.734375 94.496094 C 37.238281 95.773438 36.746094 96.554688 36.058594 96.261719 C 35.367188 95.96875 34.777344 94.105469 34.085938 93.222656 C 33.398438 92.339844 24.433594 84.597656 23.449219 83.8125 C 22.460938 83.027344 19.507812 81.066406 19.507812 80.578125 C 19.507812 80.085938 20.097656 79.890625 20.292969 79.402344 C 20.492188 79.007812 19.902344 77.929688 20.195312 75.96875 C 20.589844 74.207031 21.574219 72.148438 21.574219 72.148438 Z M 21.574219 72.148438 "/>
<g clip-path="url(#clip4)" clip-rule="nonzero">
<path style=" stroke:none;fill-rule:nonzero;fill:rgb(90.980393%,90.196079%,86.274511%);fill-opacity:1;" d="M 101.078125 75.285156 C 101.078125 75.285156 106.398438 77.246094 109.453125 76.851562 C 112.507812 76.460938 119.40625 74.695312 121.375 73.617188 C 121.964844 73.324219 124.035156 73.8125 125.117188 73.421875 C 126.203125 73.03125 127.1875 72.832031 127.1875 71.460938 C 127.285156 69.792969 124.722656 70.089844 123.34375 70.1875 C 120.980469 70.382812 120.785156 71.953125 119.601562 71.953125 C 118.125 71.953125 108.566406 72.832031 107.777344 72.636719 C 106.992188 72.441406 102.753906 70.480469 102.753906 70.480469 Z M 101.078125 75.285156 "/>
</g>
</g>
</svg>
