<?xml version="1.0" encoding="UTF-8"?>
<svg xmlns="http://www.w3.org/2000/svg" xmlns:xlink="http://www.w3.org/1999/xlink" width="133px" height="150px" viewBox="0 0 133 149" version="1.1">
<defs>
<clipPath id="clip1">
  <path d="M 125.371094 89 L 129.773438 89 L 129.773438 92 L 125.371094 92 Z M 125.371094 89 "/>
</clipPath>
<clipPath id="clip2">
  <path d="M 125.371094 87.257812 L 129 87.257812 L 129 90 L 125.371094 90 Z M 125.371094 87.257812 "/>
</clipPath>
<clipPath id="clip3">
  <path d="M 125.371094 90 L 129 90 L 129 93.585938 L 125.371094 93.585938 Z M 125.371094 90 "/>
</clipPath>
</defs>
<g id="surface1">
<path style=" stroke:none;fill-rule:nonzero;fill:rgb(41.568628%,40.784314%,80.784315%);fill-opacity:1;" d="M 34.226562 0 L 97.792969 0 C 116.667969 0 132.023438 15.289062 132.023438 34.085938 L 132.023438 113.941406 C 132.023438 132.738281 116.667969 148.027344 97.792969 148.027344 L 34.226562 148.027344 C 15.355469 148.027344 0 132.738281 0 113.941406 L 0 34.085938 C 0 15.289062 15.355469 0 34.226562 0 Z M 34.226562 0 "/>
<path style=" stroke:none;fill-rule:nonzero;fill:rgb(100%,100%,100%);fill-opacity:1;" d="M 61.609375 94.949219 C 60.730469 99.429688 58.578125 107.515625 57.210938 107.320312 C 55.839844 107.027344 57.308594 99.429688 58.1875 94.949219 C 59.066406 90.472656 58.773438 91.25 60.144531 91.542969 C 61.511719 91.835938 62.492188 90.472656 61.609375 94.949219 Z M 61.609375 94.949219 "/>
<path style=" stroke:none;fill-rule:nonzero;fill:rgb(10.588235%,9.803922%,26.666668%);fill-opacity:1;" d="M 83.417969 72.066406 C 83.222656 73.625 83.222656 75.863281 81.070312 77.8125 C 78.917969 79.757812 79.117188 81.121094 79.214844 82.289062 C 79.214844 83.460938 79.800781 84.53125 77.941406 85.894531 C 76.082031 87.355469 74.910156 89.984375 75.886719 92.808594 C 76.867188 95.632812 83.222656 98.847656 89.871094 100.113281 C 96.621094 101.378906 96.523438 78.785156 95.152344 75.183594 C 93.882812 71.773438 84.59375 62.132812 83.417969 72.066406 Z M 83.417969 72.066406 "/>
<path style=" stroke:none;fill-rule:nonzero;fill:rgb(98.823529%,76.862746%,84.313726%);fill-opacity:1;" d="M 108.648438 83.363281 C 101.804688 86.285156 101.511719 92.90625 92.414062 89.207031 C 83.320312 85.40625 72.855469 90.957031 74.324219 102.742188 C 75.789062 115.109375 84.003906 134.976562 84.003906 137.507812 L 84.296875 140.332031 C 84.296875 140.332031 93.101562 144.617188 102.390625 148.222656 C 114.417969 146.953125 124.589844 139.457031 129.578125 128.9375 C 129.675781 123.191406 129.382812 116.765625 128.695312 110.046875 C 126.546875 89.109375 115.496094 80.441406 108.648438 83.363281 Z M 108.648438 83.363281 "/>
<path style=" stroke:none;fill-rule:nonzero;fill:rgb(100%,100%,100%);fill-opacity:1;" d="M 127.035156 101.867188 L 116.375 108.390625 L 118.234375 112.1875 C 118.234375 112.1875 93.882812 105.175781 91.242188 104.300781 C 88.601562 103.421875 87.230469 103.421875 83.515625 105.957031 C 79.800781 108.390625 79.898438 112.871094 80.875 115.984375 C 81.855469 119.101562 83.710938 119.199219 83.90625 118.226562 C 84.199219 117.253906 85.179688 113.453125 85.179688 113.453125 C 85.179688 113.453125 87.035156 113.941406 88.894531 112.96875 C 90.753906 111.992188 90.65625 111.019531 90.65625 111.019531 C 90.65625 111.019531 113.832031 121.632812 122.4375 124.945312 C 126.742188 126.601562 129.089844 126.894531 130.652344 126.503906 C 132.023438 123.09375 132.804688 119.394531 133 115.597656 C 131.140625 111.3125 127.035156 101.867188 127.035156 101.867188 Z M 127.035156 101.867188 "/>
<path style=" stroke:none;fill-rule:nonzero;fill:rgb(94.117647%,29.803923%,22.745098%);fill-opacity:1;" d="M 103.855469 62.425781 L 97.5 59.699219 C 97.5 59.699219 97.304688 59.792969 97.5 60.476562 C 97.695312 61.253906 97.5 61.0625 97.5 61.0625 L 102.878906 63.105469 C 102.878906 63.203125 103.464844 63.007812 103.855469 62.425781 Z M 103.855469 62.425781 "/>
<path style=" stroke:none;fill-rule:nonzero;fill:rgb(100%,100%,100%);fill-opacity:1;" d="M 82.734375 64.46875 C 81.65625 70.019531 80.289062 77.519531 85.765625 79.757812 C 89.285156 81.121094 90.851562 80.539062 90.851562 81.804688 C 90.851562 82.972656 91.925781 89.398438 91.925781 89.398438 C 91.925781 89.398438 93.882812 98.945312 99.945312 98.945312 C 106.007812 98.945312 101.804688 85.796875 101.804688 85.796875 C 101.804688 85.796875 100.238281 80.246094 100.824219 78.394531 C 101.414062 76.546875 105.128906 78.101562 106.695312 70.703125 C 108.355469 63.398438 106.496094 56.679688 96.914062 55.800781 C 87.429688 55.023438 84.101562 57.847656 82.734375 64.46875 "/>
<path style=" stroke:none;fill-rule:nonzero;fill:rgb(10.588235%,9.803922%,26.666668%);fill-opacity:1;" d="M 85.667969 57.359375 C 85.667969 57.359375 89.382812 54.730469 95.347656 55.023438 C 96.230469 55.023438 97.109375 55.121094 97.890625 55.316406 C 100.042969 55.800781 101.902344 56.679688 102.878906 57.261719 C 105.519531 59.015625 107.476562 61.742188 108.160156 66.027344 C 109.234375 72.261719 112.167969 73.914062 116.667969 77.617188 C 121.070312 81.414062 119.308594 83.363281 119.894531 86.769531 C 120.480469 90.179688 123.21875 90.082031 125.273438 92.90625 C 127.230469 95.730469 129.871094 103.421875 125.566406 108.585938 C 121.265625 113.648438 113.929688 113.648438 108.648438 113.648438 C 103.367188 113.648438 100.726562 106.34375 102.585938 97.679688 C 102.976562 95.730469 98.773438 92.515625 98.480469 89.398438 C 97.695312 82 100.042969 82.484375 99.945312 80.246094 C 99.847656 78.007812 98.085938 77.226562 97.011719 75.765625 C 95.9375 74.304688 97.597656 73.914062 98.578125 72.453125 C 99.554688 70.992188 99.847656 69.046875 97.890625 68.363281 C 96.035156 67.78125 92.804688 69.535156 88.699219 65.734375 C 84.789062 62.035156 85.667969 57.359375 85.667969 57.359375 "/>
<path style=" stroke:none;fill-rule:nonzero;fill:rgb(10.588235%,9.803922%,26.666668%);fill-opacity:1;" d="M 96.523438 74.011719 C 96.035156 74.207031 95.542969 73.914062 95.347656 73.429688 C 95.152344 72.941406 95.347656 72.359375 95.839844 72.261719 C 96.328125 72.164062 96.816406 72.164062 96.914062 72.648438 C 97.207031 73.136719 97.011719 73.816406 96.523438 74.011719 "/>
<path style=" stroke:none;fill-rule:nonzero;fill:rgb(100%,100%,100%);fill-opacity:1;" d="M 60.730469 72.84375 C 58.96875 78.394531 54.863281 84.53125 50.265625 83.070312 C 45.867188 81.707031 44.59375 84.140625 44.300781 85.019531 C 43.8125 86.382812 44.007812 89.300781 44.007812 89.300781 L 35.402344 83.75 C 35.402344 83.75 36.964844 78.589844 37.355469 76.640625 C 37.75 74.695312 33.640625 74.207031 35.792969 66.804688 C 37.945312 59.40625 42.832031 54.144531 52.027344 58.140625 C 61.21875 62.035156 62.785156 66.222656 60.730469 72.84375 "/>
<path style=" stroke:none;fill-rule:nonzero;fill:rgb(94.509804%,31.37255%,23.529412%);fill-opacity:1;" d="M 54.765625 90.277344 C 52.027344 88.523438 44.691406 88.816406 44.691406 88.816406 C 44.691406 88.816406 45.082031 86.769531 44.789062 86.1875 C 44.496094 85.601562 41.855469 85.601562 39.898438 85.019531 C 35.988281 83.945312 35.304688 82.195312 34.519531 82.777344 C 33.738281 83.363281 34.03125 84.53125 33.542969 84.628906 C 33.054688 84.726562 30.707031 83.070312 28.554688 82.972656 C 19.851562 82.386719 13.984375 90.082031 7.042969 96.605469 C 4.988281 98.554688 2.933594 103.035156 1.074219 108.488281 L 1.074219 114.234375 C 1.074219 133.027344 16.429688 148.316406 35.304688 148.316406 L 43.617188 148.316406 C 48.210938 136.242188 59.65625 106.054688 59.753906 101.378906 C 59.851562 95.730469 57.699219 92.125 54.765625 90.277344 Z M 54.765625 90.277344 "/>
<path style=" stroke:none;fill-rule:nonzero;fill:rgb(24.313726%,18.82353%,20.784314%);fill-opacity:1;" d="M 43.421875 72.84375 L 45.179688 73.136719 L 44.007812 74.5 Z M 43.421875 72.84375 "/>
<path style=" stroke:none;fill-rule:nonzero;fill:rgb(41.568628%,40.784314%,80.784315%);fill-opacity:1;" d="M 44.007812 89.207031 C 43.421875 89.300781 42.929688 88.816406 42.929688 88.230469 C 42.832031 87.648438 43.226562 87.0625 43.8125 87.0625 C 44.398438 86.964844 44.886719 87.257812 44.984375 87.84375 C 44.984375 88.425781 44.59375 89.207031 44.007812 89.207031 "/>
<path style=" stroke:none;fill-rule:nonzero;fill:rgb(41.568628%,40.784314%,80.784315%);fill-opacity:1;" d="M 41.953125 90.472656 C 41.367188 90.570312 40.878906 90.082031 40.878906 89.496094 C 40.78125 88.914062 41.171875 88.328125 41.757812 88.328125 C 42.34375 88.230469 42.832031 88.523438 42.929688 89.109375 C 42.929688 89.691406 42.441406 90.375 41.953125 90.472656 Z M 41.953125 90.472656 "/>
<path style=" stroke:none;fill-rule:nonzero;fill:rgb(41.568628%,40.784314%,80.784315%);fill-opacity:1;" d="M 39.3125 90.664062 C 38.726562 90.761719 38.238281 90.277344 38.238281 89.691406 C 38.140625 89.109375 38.53125 88.523438 39.117188 88.523438 C 39.703125 88.425781 40.195312 88.71875 40.292969 89.300781 C 40.292969 89.886719 39.800781 90.664062 39.3125 90.664062 "/>
<path style=" stroke:none;fill-rule:nonzero;fill:rgb(41.568628%,40.784314%,80.784315%);fill-opacity:1;" d="M 36.964844 89.398438 C 36.378906 89.496094 35.890625 89.011719 35.890625 88.425781 C 35.792969 87.84375 36.183594 87.257812 36.769531 87.257812 C 37.355469 87.160156 37.847656 87.453125 37.945312 88.035156 C 37.945312 88.621094 37.554688 89.300781 36.964844 89.398438 Z M 36.964844 89.398438 "/>
<path style=" stroke:none;fill-rule:nonzero;fill:rgb(41.568628%,40.784314%,80.784315%);fill-opacity:1;" d="M 35.304688 87.550781 C 34.71875 87.648438 34.226562 87.160156 34.226562 86.574219 C 34.128906 85.992188 34.519531 85.40625 35.109375 85.40625 C 35.695312 85.308594 36.183594 85.601562 36.28125 86.1875 C 36.28125 86.769531 35.890625 87.453125 35.304688 87.550781 "/>
<path style=" stroke:none;fill-rule:nonzero;fill:rgb(100%,100%,100%);fill-opacity:1;" d="M 58.285156 85.019531 C 57.210938 81.804688 59.261719 80.246094 61.023438 84.042969 C 62.6875 87.84375 61.707031 93.78125 61.707031 93.78125 L 58.773438 92.515625 Z M 58.285156 85.019531 "/>
<path style=" stroke:none;fill-rule:nonzero;fill:rgb(24.313726%,18.82353%,20.784314%);fill-opacity:1;" d="M 102 126.503906 L 81.167969 126.503906 L 81.167969 127.867188 L 102.097656 127.867188 L 102.097656 126.503906 Z M 102 126.503906 "/>
<path style=" stroke:none;fill-rule:nonzero;fill:rgb(24.313726%,18.82353%,20.784314%);fill-opacity:1;" d="M 75.59375 126.503906 L 59.359375 126.503906 L 59.359375 127.867188 L 75.59375 127.867188 Z M 75.59375 126.503906 "/>
<path style=" stroke:none;fill-rule:nonzero;fill:rgb(10.588235%,9.803922%,26.666668%);fill-opacity:1;" d="M 61.609375 64.859375 C 61.609375 64.859375 59.554688 60.671875 53.980469 58.042969 C 53.199219 57.652344 52.320312 57.359375 51.539062 57.066406 C 50.558594 56.875 48.800781 56.191406 46.0625 56.386719 C 43.324219 56.582031 39.703125 58.238281 36.964844 61.839844 C 31.78125 68.949219 36.378906 80.734375 37.554688 78.785156 C 38.726562 76.835938 40.683594 76.933594 42.34375 76.058594 C 44.105469 75.183594 42.734375 74.011719 42.539062 72.261719 C 42.34375 70.507812 43.03125 68.558594 45.082031 68.851562 C 47.136719 69.242188 49.191406 72.359375 54.667969 70.898438 C 60.144531 69.4375 61.609375 64.859375 61.609375 64.859375 Z M 61.609375 64.859375 "/>
<path style=" stroke:none;fill-rule:nonzero;fill:rgb(100%,100%,100%);fill-opacity:1;" d="M 133 87.355469 L 130.652344 89.496094 C 130.652344 89.496094 131.730469 89.886719 133 89.496094 Z M 133 87.355469 "/>
<path style=" stroke:none;fill-rule:nonzero;fill:rgb(100%,98.823529%,92.156863%);fill-opacity:1;" d="M 115.789062 108.972656 C 115.496094 108.78125 115.398438 108.585938 115.398438 108.195312 L 115.398438 107.902344 Z M 115.789062 108.972656 "/>
<path style=" stroke:none;fill-rule:nonzero;fill:rgb(10.588235%,9.803922%,26.666668%);fill-opacity:1;" d="M 73.640625 119.296875 C 46.0625 119.296875 21.808594 125.628906 8.117188 135.171875 C 14.375 143.253906 24.15625 148.414062 35.207031 148.414062 L 98.773438 148.414062 C 112.167969 148.414062 123.710938 140.820312 129.285156 129.71875 C 115.203125 123.289062 95.542969 119.296875 73.640625 119.296875 Z M 73.640625 119.296875 "/>
<path style=" stroke:none;fill-rule:nonzero;fill:rgb(100%,100%,100%);fill-opacity:1;" d="M 50.460938 129.523438 C 50.460938 129.523438 65.523438 126.992188 72.367188 130.789062 C 79.3125 134.585938 76.082031 133.90625 76.082031 133.90625 C 76.082031 133.90625 80.484375 128.257812 88.015625 128.9375 C 95.542969 129.523438 109.332031 134.585938 109.332031 134.585938 L 108.0625 138.386719 L 80.484375 138.96875 C 80.484375 138.96875 79.898438 141.5 76.769531 141.5 C 73.640625 141.5 72.367188 138.480469 72.367188 138.480469 L 50.460938 137.214844 Z M 50.460938 129.523438 "/>
<path style=" stroke:none;fill-rule:nonzero;fill:rgb(41.568628%,40.784314%,80.784315%);fill-opacity:1;" d="M 108.0625 137.023438 L 79.898438 137.023438 L 79.898438 138.871094 L 108.0625 138.871094 Z M 108.0625 137.023438 "/>
<path style=" stroke:none;fill-rule:nonzero;fill:rgb(41.568628%,40.784314%,80.784315%);fill-opacity:1;" d="M 72.367188 137.023438 L 50.460938 137.023438 L 50.460938 138.871094 L 72.367188 138.871094 Z M 72.367188 137.023438 "/>
<path style=" stroke:none;fill-rule:nonzero;fill:rgb(94.509804%,31.37255%,23.529412%);fill-opacity:1;" d="M 119.894531 127.867188 L 111.972656 127.867188 L 111.972656 132.054688 L 119.894531 132.054688 Z M 119.894531 127.867188 "/>
<path style=" stroke:none;fill-rule:nonzero;fill:rgb(100%,100%,100%);fill-opacity:1;" d="M 122.4375 89.207031 L 123.90625 90.082031 C 123.90625 90.082031 123.710938 88.328125 122.242188 88.230469 C 121.167969 88.132812 122.4375 89.207031 122.4375 89.207031 Z M 122.4375 89.207031 "/>
<path style=" stroke:none;fill-rule:nonzero;fill:rgb(100%,100%,100%);fill-opacity:1;" d="M 121.558594 91.542969 L 123.710938 91.054688 C 123.710938 91.054688 122.632812 89.59375 120.777344 90.859375 C 119.503906 91.640625 121.558594 91.542969 121.558594 91.542969 "/>
<path style=" stroke:none;fill-rule:nonzero;fill:rgb(100%,100%,100%);fill-opacity:1;" d="M 124.101562 87.453125 L 124.6875 90.179688 C 124.6875 90.179688 126.644531 88.328125 125.078125 86.285156 C 123.90625 84.824219 124.101562 87.453125 124.101562 87.453125 "/>
<path style=" stroke:none;fill-rule:nonzero;fill:rgb(100%,100%,100%);fill-opacity:1;" d="M 125.175781 92.125 C 124.6875 94.171875 123.808594 95.632812 122.4375 96.3125 C 121.65625 96.703125 120.875 96.898438 120.285156 96.898438 C 120.089844 96.898438 119.894531 96.898438 119.699219 96.898438 L 117.742188 110.628906 L 117.644531 111.214844 C 117.546875 111.605469 117.253906 111.894531 116.863281 111.894531 C 116.863281 111.894531 116.765625 111.894531 116.765625 111.894531 C 116.667969 111.894531 116.570312 111.796875 116.472656 111.796875 L 116.179688 110.726562 L 110.410156 92.710938 C 110.214844 92.710938 109.824219 92.808594 109.429688 92.808594 C 108.355469 92.808594 106.695312 92.515625 105.324219 91.054688 C 103.171875 88.816406 102.585938 86.671875 102.585938 86.574219 C 102.488281 86.1875 102.78125 85.699219 103.171875 85.601562 C 103.5625 85.503906 104.054688 85.796875 104.152344 86.1875 C 104.152344 86.1875 104.640625 88.035156 106.496094 89.984375 C 107.867188 91.347656 109.429688 91.347656 110.019531 91.25 L 107.671875 84.042969 C 107.574219 83.652344 107.769531 83.167969 108.160156 83.070312 C 108.550781 82.972656 109.039062 83.167969 109.136719 83.558594 L 114.125 99.042969 C 114.613281 98.652344 115.203125 97.773438 115.105469 96.121094 C 115.105469 95.730469 115.398438 95.339844 115.789062 95.242188 C 116.179688 95.242188 116.570312 95.535156 116.667969 95.925781 C 116.863281 97.96875 116.179688 99.136719 115.59375 99.820312 C 115.300781 100.113281 115.007812 100.40625 114.710938 100.503906 L 116.863281 107.125 L 118.820312 93.199219 C 118.429688 93.101562 117.84375 92.808594 116.863281 91.933594 C 115.203125 90.664062 114.710938 87.84375 114.613281 87.550781 C 114.515625 87.160156 114.808594 86.769531 115.203125 86.671875 C 115.59375 86.574219 115.984375 86.867188 116.082031 87.257812 C 116.179688 87.648438 116.277344 88.230469 116.570312 88.914062 C 116.863281 89.59375 117.253906 90.277344 117.742188 90.664062 C 118.332031 91.152344 118.722656 91.347656 118.917969 91.542969 L 119.210938 89.496094 C 119.308594 89.109375 119.699219 88.816406 120.089844 88.816406 C 120.480469 88.914062 120.777344 89.300781 120.777344 89.691406 L 119.992188 95.144531 C 120.480469 95.242188 121.167969 95.144531 121.753906 94.855469 C 122.632812 94.367188 123.320312 93.296875 123.710938 91.640625 C 123.808594 91.25 124.199219 90.957031 124.6875 91.054688 C 125.078125 91.25 125.273438 91.640625 125.175781 92.125 Z M 125.175781 92.125 "/>
<path style=" stroke:none;fill-rule:nonzero;fill:rgb(94.509804%,31.37255%,23.529412%);fill-opacity:1;" d="M 107.964844 83.847656 C 108.550781 83.847656 109.039062 83.363281 109.039062 82.679688 C 109.039062 82.097656 108.550781 81.609375 107.867188 81.609375 C 107.28125 81.609375 106.792969 82.097656 106.792969 82.777344 C 106.890625 83.363281 107.378906 83.847656 107.964844 83.847656 Z M 107.964844 83.847656 "/>
<path style=" stroke:none;fill-rule:nonzero;fill:rgb(94.509804%,31.37255%,23.529412%);fill-opacity:1;" d="M 115.496094 87.550781 C 116.082031 87.550781 116.570312 87.0625 116.570312 86.382812 C 116.570312 85.796875 116.082031 85.308594 115.398438 85.308594 C 114.808594 85.308594 114.320312 85.796875 114.320312 86.476562 C 114.320312 87.0625 114.90625 87.550781 115.496094 87.550781 Z M 115.496094 87.550781 "/>
<path style=" stroke:none;fill-rule:nonzero;fill:rgb(94.509804%,31.37255%,23.529412%);fill-opacity:1;" d="M 120.089844 89.886719 C 120.679688 89.886719 121.167969 89.398438 121.167969 88.71875 C 121.167969 88.132812 120.679688 87.648438 119.992188 87.648438 C 119.40625 87.648438 118.917969 88.132812 118.917969 88.816406 C 118.917969 89.398438 119.503906 89.886719 120.089844 89.886719 Z M 120.089844 89.886719 "/>
<path style=" stroke:none;fill-rule:nonzero;fill:rgb(94.509804%,31.37255%,23.529412%);fill-opacity:1;" d="M 115.496094 96.703125 C 116.082031 96.703125 116.570312 96.21875 116.570312 95.535156 C 116.570312 94.949219 116.082031 94.464844 115.398438 94.464844 C 114.710938 94.464844 114.320312 94.949219 114.320312 95.632812 C 114.320312 96.21875 114.90625 96.703125 115.496094 96.703125 Z M 115.496094 96.703125 "/>
<path style=" stroke:none;fill-rule:nonzero;fill:rgb(94.509804%,31.37255%,23.529412%);fill-opacity:1;" d="M 102.78125 86.964844 C 103.367188 86.964844 103.855469 86.476562 103.855469 85.796875 C 103.855469 85.210938 103.367188 84.726562 102.683594 84.726562 C 102.097656 84.726562 101.609375 85.210938 101.609375 85.894531 C 101.707031 86.574219 102.195312 87.0625 102.78125 86.964844 Z M 102.78125 86.964844 "/>
<path style=" stroke:none;fill-rule:nonzero;fill:rgb(94.509804%,31.37255%,23.529412%);fill-opacity:1;" d="M 107.183594 118.519531 C 108.746094 114.039062 114.027344 111.796875 118.917969 113.550781 C 123.808594 115.304688 126.449219 120.269531 124.882812 124.75 C 123.320312 129.230469 117.742188 131.859375 112.855469 130.105469 C 107.964844 128.453125 105.617188 122.996094 107.183594 118.519531 Z M 107.183594 118.519531 "/>
<path style=" stroke:none;fill-rule:nonzero;fill:rgb(94.509804%,31.37255%,23.529412%);fill-opacity:1;" d="M 111.09375 114.234375 C 113.636719 112.96875 112.757812 108.390625 112.757812 108.390625 L 120.285156 108.78125 C 120.285156 108.78125 119.015625 112.480469 120.285156 114.621094 C 121.558594 116.765625 118.234375 118.03125 118.234375 118.03125 Z M 111.09375 114.234375 "/>
<g clip-path="url(#clip1)" clip-rule="nonzero">
<path style=" stroke:none;fill-rule:nonzero;fill:rgb(100%,100%,100%);fill-opacity:1;" d="M 128.304688 89.789062 L 125.957031 90.472656 C 125.957031 90.472656 127.71875 92.03125 129.480469 90.472656 C 130.652344 89.496094 128.304688 89.789062 128.304688 89.789062 "/>
</g>
<g clip-path="url(#clip2)" clip-rule="nonzero">
<path style=" stroke:none;fill-rule:nonzero;fill:rgb(100%,100%,100%);fill-opacity:1;" d="M 127.035156 87.9375 L 125.46875 89.789062 C 125.46875 89.789062 127.816406 90.082031 128.402344 87.9375 C 128.792969 86.476562 127.035156 87.9375 127.035156 87.9375 Z M 127.035156 87.9375 "/>
</g>
<g clip-path="url(#clip3)" clip-rule="nonzero">
<path style=" stroke:none;fill-rule:nonzero;fill:rgb(100%,100%,100%);fill-opacity:1;" d="M 127.523438 92.222656 L 125.46875 90.859375 C 125.46875 90.859375 125.46875 93.199219 127.71875 93.488281 C 129.285156 93.78125 127.523438 92.222656 127.523438 92.222656 Z M 127.523438 92.222656 "/>
</g>
<path style=" stroke:none;fill-rule:nonzero;fill:rgb(94.509804%,31.37255%,23.529412%);fill-opacity:1;" d="M 124.882812 91.640625 C 125.46875 91.640625 125.957031 91.152344 125.957031 90.472656 C 125.957031 89.886719 125.46875 89.398438 124.785156 89.398438 C 124.101562 89.398438 123.710938 89.886719 123.710938 90.570312 C 123.710938 91.152344 124.199219 91.640625 124.882812 91.640625 Z M 124.882812 91.640625 "/>
</g>
</svg>
