<?xml version="1.0" encoding="utf-8"?>
<!-- Generator: Adobe Illustrator 27.9.6, SVG Export Plug-In . SVG Version: 9.03 Build 54986)  -->
<svg version="1.1" id="Layer_1" xmlns="http://www.w3.org/2000/svg" xmlns:xlink="http://www.w3.org/1999/xlink" x="0px" y="0px"
	 viewBox="0 0 136 153" style="enable-background:new 0 0 136 153;" xml:space="preserve">
<style type="text/css">
	.st0{fill:#6A68CE;}
	.st1{fill:#FFFFFF;}
	.st2{fill:#1B1944;}
	.st3{fill:#FCC4D7;}
	.st4{fill:#F04C3A;}
	.st5{fill:#F1503C;}
	.st6{fill:#3E3035;}
	.st7{fill:#FFFCEB;}
	.st8{clip-path:url(#SVGID_00000016761791273080332780000000567933800833688754_);}
</style>
<g>
	<path class="st0" d="M35,0h65c19.3,0,35,15.7,35,35v82c0,19.3-15.7,35-35,35H35c-19.3,0-35-15.7-35-35V35C0,15.7,15.7,0,35,0z"/>
	<path class="st1" d="M63,97.5c-0.9,4.6-3.1,12.9-4.5,12.7c-1.4-0.3,0.1-8.1,1-12.7s0.6-3.8,2-3.5C62.9,94.3,63.9,92.9,63,97.5z"/>
	<path class="st2" d="M85.3,74c-0.2,1.6-0.2,3.9-2.4,5.9c-2.2,2-2,3.4-1.9,4.6c0,1.2,0.6,2.3-1.3,3.7c-1.9,1.5-3.1,4.2-2.1,7.1
		c1,2.9,7.5,6.2,14.3,7.5c6.9,1.3,6.8-21.9,5.4-25.6C96,73.7,86.5,63.8,85.3,74z"/>
	<path class="st3" d="M111.1,85.6c-7,3-7.3,9.8-16.6,6c-9.3-3.9-20,1.8-18.5,13.9c1.5,12.7,9.9,33.1,9.9,35.7l0.3,2.9
		c0,0,9,4.4,18.5,8.1c12.3-1.3,22.7-9,27.8-19.8c0.1-5.9-0.2-12.5-0.9-19.4C129.4,91.5,118.1,82.6,111.1,85.6z"/>
	<path class="st1" d="M129.9,104.6L129.9,104.6l-10.9,6.7l1.9,3.9c0,0-24.9-7.2-27.6-8.1c-2.7-0.9-4.1-0.9-7.9,1.7
		c-3.8,2.5-3.7,7.1-2.7,10.3c1,3.2,2.9,3.3,3.1,2.3c0.3-1,1.3-4.9,1.3-4.9s1.9,0.5,3.8-0.5c1.9-1,1.8-2,1.8-2s23.7,10.9,32.5,14.3
		c4.4,1.7,6.8,2,8.4,1.6c1.4-3.5,2.2-7.3,2.4-11.2C134.1,114.3,129.9,104.6,129.9,104.6z"/>
	<path class="st4" d="M106.2,64.1l-6.5-2.8c0,0-0.2,0.1,0,0.8c0.2,0.8,0,0.6,0,0.6l5.5,2.1C105.2,64.9,105.8,64.7,106.2,64.1z"/>
	<path class="st1" d="M84.6,66.2c-1.1,5.7-2.5,13.4,3.1,15.7c3.6,1.4,5.2,0.8,5.2,2.1c0,1.2,1.1,7.8,1.1,7.8s2,9.8,8.2,9.8
		c6.2,0,1.9-13.5,1.9-13.5s-1.6-5.7-1-7.6c0.6-1.9,4.4-0.3,6-7.9c1.7-7.5-0.2-14.4-10-15.3C89.4,56.5,86,59.4,84.6,66.2"/>
	<path class="st2" d="M87.6,58.9c0,0,3.8-2.7,9.9-2.4c0.9,0,1.8,0.1,2.6,0.3c2.2,0.5,4.1,1.4,5.1,2c2.7,1.8,4.7,4.6,5.4,9
		c1.1,6.4,4.1,8.1,8.7,11.9c4.5,3.9,2.7,5.9,3.3,9.4c0.6,3.5,3.4,3.4,5.5,6.3c2,2.9,4.7,10.8,0.3,16.1c-4.4,5.2-11.9,5.2-17.3,5.2
		c-5.4,0-8.1-7.5-6.2-16.4c0.4-2-3.9-5.3-4.2-8.5c-0.8-7.6,1.6-7.1,1.5-9.4c-0.1-2.3-1.9-3.1-3-4.6c-1.1-1.5,0.6-1.9,1.6-3.4
		c1-1.5,1.3-3.5-0.7-4.2c-1.9-0.6-5.2,1.2-9.4-2.7C86.7,63.7,87.6,58.9,87.6,58.9"/>
	<path class="st2" d="M98.7,76c-0.5,0.2-1-0.1-1.2-0.6c-0.2-0.5,0-1.1,0.5-1.2s1-0.1,1.1,0.4C99.4,75.1,99.2,75.8,98.7,76"/>
	<path class="st1" d="M62.1,74.8c-1.8,5.7-6,12-10.7,10.5c-4.5-1.4-5.8,1.1-6.1,2c-0.5,1.4-0.3,4.4-0.3,4.4L36.2,86
		c0,0,1.6-5.3,2-7.3c0.4-2-3.8-2.5-1.6-10.1c2.2-7.6,7.2-13,16.6-8.9C62.6,63.7,64.2,68,62.1,74.8"/>
	<path class="st5" d="M56,92.7c-2.8-1.8-10.3-1.5-10.3-1.5s0.4-2.1,0.1-2.7c-0.3-0.6-3-0.6-5-1.2c-4-1.1-4.7-2.9-5.5-2.3l0,0
		c-0.8,0.6-0.5,1.8-1,1.9c-0.5,0.1-2.9-1.6-5.1-1.7c-8.9-0.6-14.9,7.3-22,14c-2.1,2-4.2,6.6-6.1,12.2v5.9c0,19.3,15.7,35,35,35h8.5
		c4.7-12.4,16.4-43.4,16.5-48.2C61.2,98.3,59,94.6,56,92.7z"/>
	<path class="st6" d="M44.4,74.8l1.8,0.3L45,76.5L44.4,74.8z"/>
	<path class="st0" d="M45,91.6c-0.6,0.1-1.1-0.4-1.1-1c-0.1-0.6,0.3-1.2,0.9-1.2c0.6-0.1,1.1,0.2,1.2,0.8C46,90.8,45.6,91.6,45,91.6
		"/>
	<path class="st0" d="M42.9,92.9c-0.6,0.1-1.1-0.4-1.1-1c-0.1-0.6,0.3-1.2,0.9-1.2c0.6-0.1,1.1,0.2,1.2,0.8
		C43.9,92.1,43.4,92.8,42.9,92.9z"/>
	<path class="st0" d="M40.2,93.1c-0.6,0.1-1.1-0.4-1.1-1c-0.1-0.6,0.3-1.2,0.9-1.2c0.6-0.1,1.1,0.2,1.2,0.8
		C41.2,92.3,40.7,93.1,40.2,93.1"/>
	<path class="st0" d="M37.8,91.8c-0.6,0.1-1.1-0.4-1.1-1c-0.1-0.6,0.3-1.2,0.9-1.2c0.6-0.1,1.1,0.2,1.2,0.8
		C38.8,91,38.4,91.7,37.8,91.8z"/>
	<path class="st0" d="M36.1,89.9c-0.6,0.1-1.1-0.4-1.1-1c-0.1-0.6,0.3-1.2,0.9-1.2c0.6-0.1,1.1,0.2,1.2,0.8
		C37.1,89.1,36.7,89.8,36.1,89.9"/>
	<path class="st1" d="M59.6,87.3c-1.1-3.3,1-4.9,2.8-1c1.7,3.9,0.7,10,0.7,10l-3-1.3L59.6,87.3z"/>
	<path class="st6" d="M104.3,129.9H83v1.4h21.4V129.9z"/>
	<path class="st6" d="M77.3,129.9H60.7v1.4h16.6V129.9z"/>
	<path class="st2" d="M63,66.6c0,0-2.1-4.3-7.8-7c-0.8-0.4-1.7-0.7-2.5-1c-1-0.2-2.8-0.9-5.6-0.7c-2.8,0.2-6.5,1.9-9.3,5.6
		c-5.3,7.3-0.6,19.4,0.6,17.4c1.2-2,3.2-1.9,4.9-2.8c1.8-0.9,0.4-2.1,0.2-3.9c-0.2-1.8,0.5-3.8,2.6-3.5c2.1,0.4,4.2,3.6,9.8,2.1
		C61.5,71.3,63,66.6,63,66.6z"/>
	<path class="st1" d="M136,89.7l-2.4,2.2c0,0,1.1,0.4,2.4,0V89.7z"/>
	<path class="st7" d="M118.4,111.9c-0.3-0.2-0.4-0.4-0.4-0.8l0-0.3L118.4,111.9z"/>
	<path class="st2" d="M75.3,122.5c-28.2,0-53,6.5-67,16.3c6.4,8.3,16.4,13.6,27.7,13.6h65c13.7,0,25.5-7.8,31.2-19.2
		C117.8,126.6,97.7,122.5,75.3,122.5z"/>
	<path class="st1" d="M51.6,133c0,0,15.4-2.6,22.4,1.3c7.1,3.9,3.8,3.2,3.8,3.2s4.5-5.8,12.2-5.1c7.7,0.6,21.8,5.8,21.8,5.8
		l-1.3,3.9l-28.2,0.6c0,0-0.6,2.6-3.8,2.6c-3.2,0-4.5-3.1-4.5-3.1l-22.4-1.3V133z"/>
	<path class="st0" d="M110.5,140.7H81.7v1.9h28.8V140.7z"/>
	<path class="st0" d="M74,140.7H51.6v1.9H74V140.7z"/>
	<path class="st5" d="M122.6,131.3h-8.1v4.3h8.1V131.3z"/>
	<path class="st1" d="M125.2,91.6l1.5,0.9c0,0-0.2-1.8-1.7-1.9C123.9,90.5,125.2,91.6,125.2,91.6z"/>
	<path class="st1" d="M124.3,94l2.2-0.5c0,0-1.1-1.5-3-0.2C122.2,94.1,124.3,94,124.3,94"/>
	<path class="st1" d="M126.9,89.8l0.6,2.8c0,0,2-1.9,0.4-4C126.7,87.1,126.9,89.8,126.9,89.8"/>
	<path class="st1" d="M128,94.6c-0.5,2.1-1.4,3.6-2.8,4.3c-0.8,0.4-1.6,0.6-2.2,0.6c-0.2,0-0.4,0-0.6,0l-2,14.1l-0.1,0.6
		c-0.1,0.4-0.4,0.7-0.8,0.7c0,0-0.1,0-0.1,0c-0.1,0-0.2-0.1-0.3-0.1l-0.3-1.1l-5.9-18.5c-0.2,0-0.6,0.1-1,0.1
		c-1.1,0-2.8-0.3-4.2-1.8c-2.2-2.3-2.8-4.5-2.8-4.6c-0.1-0.4,0.2-0.9,0.6-1c0.4-0.1,0.9,0.2,1,0.6c0,0,0.5,1.9,2.4,3.9
		c1.4,1.4,3,1.4,3.6,1.3l-2.4-7.4c-0.1-0.4,0.1-0.9,0.5-1c0.4-0.1,0.9,0.1,1,0.5l5.1,15.9c0.5-0.4,1.1-1.3,1-3
		c0-0.4,0.3-0.8,0.7-0.9c0.4,0,0.8,0.3,0.9,0.7c0.2,2.1-0.5,3.3-1.1,4c-0.3,0.3-0.6,0.6-0.9,0.7l2.2,6.8l2-14.3
		c-0.4-0.1-1-0.4-2-1.3c-1.7-1.3-2.2-4.2-2.3-4.5c-0.1-0.4,0.2-0.8,0.6-0.9c0.4-0.1,0.8,0.2,0.9,0.6c0.1,0.4,0.2,1,0.5,1.7
		c0.3,0.7,0.7,1.4,1.2,1.8c0.6,0.5,1,0.7,1.2,0.9l0.3-2.1c0.1-0.4,0.5-0.7,0.9-0.7c0.4,0.1,0.7,0.5,0.7,0.9l-0.8,5.6
		c0.5,0.1,1.2,0,1.8-0.3c0.9-0.5,1.6-1.6,2-3.3c0.1-0.4,0.5-0.7,1-0.6C127.9,93.7,128.1,94.1,128,94.6z"/>
	<path class="st5" d="M110.4,86.1c0.6,0,1.1-0.5,1.1-1.2c0-0.6-0.5-1.1-1.2-1.1c-0.6,0-1.1,0.5-1.1,1.2
		C109.3,85.6,109.8,86.1,110.4,86.1z"/>
	<path class="st5" d="M118.1,89.9c0.6,0,1.1-0.5,1.1-1.2c0-0.6-0.5-1.1-1.2-1.1c-0.6,0-1.1,0.5-1.1,1.2
		C116.9,89.4,117.5,89.9,118.1,89.9z"/>
	<path class="st5" d="M122.8,92.3c0.6,0,1.1-0.5,1.1-1.2c0-0.6-0.5-1.1-1.2-1.1c-0.6,0-1.1,0.5-1.1,1.2
		C121.6,91.8,122.2,92.3,122.8,92.3z"/>
	<path class="st5" d="M118.1,99.3c0.6,0,1.1-0.5,1.1-1.2c0-0.6-0.5-1.1-1.2-1.1s-1.1,0.5-1.1,1.2C116.9,98.8,117.5,99.3,118.1,99.3z
		"/>
	<path class="st5" d="M105.1,89.3c0.6,0,1.1-0.5,1.1-1.2c0-0.6-0.5-1.1-1.2-1.1c-0.6,0-1.1,0.5-1.1,1.2
		C104,88.9,104.5,89.4,105.1,89.3z"/>
	<path class="st5" d="M109.6,121.7c1.6-4.6,7-6.9,12-5.1c5,1.8,7.7,6.9,6.1,11.5c-1.6,4.6-7.3,7.3-12.3,5.5
		C110.4,131.9,108,126.3,109.6,121.7z"/>
	<path class="st5" d="M113.6,117.3c2.6-1.3,1.7-6,1.7-6l7.7,0.4c0,0-1.3,3.8,0,6c1.3,2.2-2.1,3.5-2.1,3.5L113.6,117.3z"/>
	<g>
		<defs>
			<rect id="SVGID_1_" x="128.2" y="89.6" width="4.5" height="6.5"/>
		</defs>
		<clipPath id="SVGID_00000013169601982973398910000004818668670296898224_">
			<use xlink:href="#SVGID_1_"  style="overflow:visible;"/>
		</clipPath>
		<g style="clip-path:url(#SVGID_00000013169601982973398910000004818668670296898224_);">
			<path class="st1" d="M131.2,92.2l-2.4,0.7c0,0,1.8,1.6,3.6,0C133.6,91.9,131.2,92.2,131.2,92.2"/>
			<path class="st1" d="M129.9,90.3l-1.6,1.9c0,0,2.4,0.3,3-1.9C131.7,88.8,129.9,90.3,129.9,90.3z"/>
			<path class="st1" d="M130.4,94.7l-2.1-1.4c0,0,0,2.4,2.3,2.7C132.2,96.3,130.4,94.7,130.4,94.7z"/>
		</g>
	</g>
	<path class="st5" d="M127.7,94.1c0.6,0,1.1-0.5,1.1-1.2c0-0.6-0.5-1.1-1.2-1.1s-1.1,0.5-1.1,1.2C126.5,93.6,127,94.1,127.7,94.1z"
		/>
</g>
</svg>
