<?xml version="1.0" encoding="UTF-8"?>
<svg xmlns="http://www.w3.org/2000/svg" xmlns:xlink="http://www.w3.org/1999/xlink" width="133px" height="150px" viewBox="0 0 133 149" version="1.1">
<g id="surface1">
<path style=" stroke:none;fill-rule:nonzero;fill:rgb(10.588235%,9.803922%,26.666668%);fill-opacity:1;" d="M 34.480469 0 L 98.519531 0 C 117.53125 0 133 15.390625 133 34.308594 L 133 114.691406 C 133 133.609375 117.53125 149 98.519531 149 L 34.480469 149 C 15.46875 149 0 133.609375 0 114.691406 L 0 34.308594 C 0 15.390625 15.46875 0 34.480469 0 Z M 34.480469 0 "/>
<path style=" stroke:none;fill-rule:nonzero;fill:rgb(10.588235%,9.803922%,26.666668%);fill-opacity:1;" d="M 34.480469 0 L 98.519531 0 C 117.53125 0 133 15.390625 133 34.308594 L 133 114.691406 C 133 133.609375 117.53125 149 98.519531 149 L 34.480469 149 C 15.46875 149 0 133.609375 0 114.691406 L 0 34.308594 C 0 15.390625 15.46875 0 34.480469 0 Z M 34.480469 0 "/>
<path style=" stroke:none;fill-rule:nonzero;fill:rgb(10.588235%,9.803922%,26.666668%);fill-opacity:1;" d="M 34.480469 0 L 98.519531 0 C 117.53125 0 133 15.390625 133 34.308594 L 133 114.691406 C 133 133.609375 117.53125 149 98.519531 149 L 34.480469 149 C 15.46875 149 0 133.609375 0 114.691406 L 0 34.308594 C 0 15.390625 15.46875 0 34.480469 0 Z M 34.480469 0 "/>
<path style=" stroke:none;fill-rule:nonzero;fill:rgb(100%,98.823529%,99.215686%);fill-opacity:1;" d="M 30.046875 74.792969 C 30.046875 74.792969 35.269531 77.539062 35.269531 80.871094 C 35.269531 84.203125 34.972656 90.378906 30.34375 92.144531 C 25.714844 94.007812 22.066406 94.890625 20.492188 93.320312 C 19.015625 91.851562 30.046875 74.792969 30.046875 74.792969 Z M 30.046875 74.792969 "/>
<path style=" stroke:none;fill-rule:nonzero;fill:rgb(98.823529%,76.862746%,84.313726%);fill-opacity:1;" d="M 36.15625 125.472656 C 36.453125 123.316406 36.746094 101.652344 33.691406 98.027344 C 30.640625 94.398438 21.476562 95.28125 17.4375 95.574219 C 17.4375 95.574219 11.035156 95.871094 6.402344 98.027344 C 3.25 99.496094 1.082031 105.28125 0 110.867188 L 0 114.691406 C 0 123.710938 3.546875 132.042969 9.359375 138.117188 L 36.453125 131.550781 C 35.664062 129.785156 35.859375 127.628906 36.15625 125.472656 Z M 36.15625 125.472656 "/>
<path style=" stroke:none;fill-rule:nonzero;fill:rgb(41.568628%,40.784314%,80.784315%);fill-opacity:1;" d="M 9.457031 94.203125 C 8.277344 95.28125 7.980469 94.007812 6.996094 94.695312 C 6.109375 95.28125 4.828125 107.535156 14.679688 110.28125 C 24.53125 113.023438 27.878906 110.574219 28.765625 106.945312 C 29.652344 103.320312 27.191406 93.417969 27.191406 93.417969 C 27.191406 93.417969 26.007812 94.105469 25.121094 93.515625 C 24.234375 92.929688 23.25 91.949219 23.25 89.890625 C 23.25 87.832031 25.417969 84.402344 26.007812 84.105469 C 26.601562 83.8125 29.359375 83.8125 30.640625 82.929688 C 31.921875 82.046875 34.972656 78.617188 34.972656 77.734375 C 34.972656 76.851562 34.085938 74.695312 30.046875 72.832031 C 26.105469 70.972656 17.339844 69.207031 13.792969 74.988281 C 10.148438 80.773438 11.429688 85.382812 11.429688 88.417969 C 11.328125 91.261719 9.457031 94.203125 9.457031 94.203125 Z M 9.457031 94.203125 "/>
<path style=" stroke:none;fill-rule:nonzero;fill:rgb(100%,100%,100%);fill-opacity:1;" d="M 0.691406 117.632812 C 0.691406 117.632812 3.054688 118.613281 5.222656 118.613281 C 7.390625 118.613281 9.261719 117.632812 9.261719 117.632812 L 10.148438 123.21875 C 10.148438 123.21875 20.6875 118.90625 21.082031 118.316406 C 21.675781 117.433594 24.136719 116.0625 26.207031 115.769531 C 27.386719 115.574219 36.945312 119.296875 33.101562 119.59375 C 31.132812 119.691406 24.726562 119.199219 23.644531 120.472656 C 22.660156 121.75 9.0625 133.511719 5.714844 132.726562 C 2.363281 131.945312 0.691406 117.632812 0.691406 117.632812 Z M 0.691406 117.632812 "/>
<path style=" stroke:none;fill-rule:nonzero;fill:rgb(94.509804%,31.37255%,23.529412%);fill-opacity:1;" d="M 58.324219 123.609375 C 35.367188 123.609375 15.269531 127.042969 4.828125 132.140625 C 10.835938 142.234375 21.871094 149 34.480469 149 L 98.519531 149 C 106.203125 149 113.296875 146.453125 119.011719 142.234375 C 119.304688 141.550781 119.503906 140.863281 119.503906 140.175781 C 119.503906 131.0625 92.113281 123.609375 58.324219 123.609375 Z M 58.324219 123.609375 "/>
<path style=" stroke:none;fill-rule:nonzero;fill:rgb(100%,100%,100%);fill-opacity:1;" d="M 16.453125 128.609375 C 15.960938 128.90625 15.960938 131.257812 16.453125 131.550781 C 17.339844 132.140625 18.816406 130.863281 21.179688 130.667969 C 23.449219 130.472656 25.417969 129.984375 26.5 129.785156 C 27.488281 129.6875 42.460938 124.199219 44.332031 123.414062 C 46.304688 122.632812 34.480469 99.300781 34.480469 99.300781 C 34.480469 99.300781 36.351562 119.59375 36.253906 119.886719 C 36.15625 120.179688 26.699219 125.472656 26.699219 125.472656 C 26.699219 125.472656 24.335938 126.257812 22.855469 126.355469 C 20.492188 126.355469 17.734375 127.828125 16.453125 128.609375 Z M 16.453125 128.609375 "/>
<path style=" stroke:none;fill-rule:nonzero;fill:rgb(90.980393%,90.196079%,86.274511%);fill-opacity:1;" d="M 14.679688 135.667969 L 50.933594 120.179688 L 66.894531 127.238281 L 30.640625 142.726562 Z M 14.679688 135.667969 "/>
<path style=" stroke:none;fill-rule:nonzero;fill:rgb(94.509804%,31.37255%,23.529412%);fill-opacity:1;" d="M 49.359375 133.511719 L 47.289062 134.394531 L 45.21875 133.511719 L 47.289062 132.628906 Z M 49.359375 133.511719 "/>
<path style=" stroke:none;fill-rule:nonzero;fill:rgb(94.509804%,31.37255%,23.529412%);fill-opacity:1;" d="M 52.3125 132.238281 L 50.246094 133.121094 L 48.175781 132.238281 L 50.246094 131.355469 Z M 52.3125 132.238281 "/>
<path style=" stroke:none;fill-rule:nonzero;fill:rgb(94.509804%,31.37255%,23.529412%);fill-opacity:1;" d="M 55.171875 130.964844 L 53.101562 131.84375 L 51.03125 130.964844 L 53.101562 130.082031 Z M 55.171875 130.964844 "/>
<path style=" stroke:none;fill-rule:nonzero;fill:rgb(94.509804%,31.37255%,23.529412%);fill-opacity:1;" d="M 58.125 129.785156 L 56.058594 130.667969 L 53.988281 129.785156 L 56.058594 128.90625 Z M 58.125 129.785156 "/>
<path style=" stroke:none;fill-rule:nonzero;fill:rgb(94.509804%,31.37255%,23.529412%);fill-opacity:1;" d="M 60.984375 128.511719 L 58.914062 129.394531 L 56.84375 128.511719 L 58.914062 127.628906 Z M 60.984375 128.511719 "/>
<path style=" stroke:none;fill-rule:nonzero;fill:rgb(94.509804%,31.37255%,23.529412%);fill-opacity:1;" d="M 63.9375 127.238281 L 61.871094 128.121094 L 59.800781 127.238281 L 61.871094 126.355469 Z M 63.9375 127.238281 "/>
<path style=" stroke:none;fill-rule:nonzero;fill:rgb(94.509804%,31.37255%,23.529412%);fill-opacity:1;" d="M 34.875 139.6875 L 30.640625 141.550781 L 28.570312 140.667969 L 32.808594 138.804688 Z M 34.875 139.6875 "/>
<path style=" stroke:none;fill-rule:nonzero;fill:rgb(94.509804%,31.37255%,23.529412%);fill-opacity:1;" d="M 26.105469 136.257812 L 22.363281 137.824219 L 20.292969 136.941406 L 24.039062 135.375 Z M 26.105469 136.257812 "/>
<path style=" stroke:none;fill-rule:nonzero;fill:rgb(94.509804%,31.37255%,23.529412%);fill-opacity:1;" d="M 61.179688 126.0625 L 57.632812 127.628906 L 55.5625 126.746094 L 59.109375 125.179688 Z M 61.179688 126.0625 "/>
<path style=" stroke:none;fill-rule:nonzero;fill:rgb(94.509804%,31.37255%,23.529412%);fill-opacity:1;" d="M 27.78125 140.277344 L 23.054688 138.21875 L 25.121094 137.335938 L 29.851562 139.394531 Z M 27.78125 140.277344 "/>
<path style=" stroke:none;fill-rule:nonzero;fill:rgb(94.509804%,31.37255%,23.529412%);fill-opacity:1;" d="M 37.734375 138.414062 L 35.664062 139.296875 L 33.59375 138.414062 L 35.664062 137.53125 Z M 37.734375 138.414062 "/>
<path style=" stroke:none;fill-rule:nonzero;fill:rgb(94.509804%,31.37255%,23.529412%);fill-opacity:1;" d="M 30.738281 139 L 28.667969 139.882812 L 26.601562 139 L 28.667969 138.117188 Z M 30.738281 139 "/>
<path style=" stroke:none;fill-rule:nonzero;fill:rgb(94.509804%,31.37255%,23.529412%);fill-opacity:1;" d="M 40.6875 137.238281 L 38.621094 138.117188 L 36.453125 137.238281 L 38.519531 136.355469 Z M 40.6875 137.238281 "/>
<path style=" stroke:none;fill-rule:nonzero;fill:rgb(94.509804%,31.37255%,23.529412%);fill-opacity:1;" d="M 43.546875 135.960938 L 41.476562 136.84375 L 39.40625 135.960938 L 41.476562 135.082031 Z M 43.546875 135.960938 "/>
<path style=" stroke:none;fill-rule:nonzero;fill:rgb(94.509804%,31.37255%,23.529412%);fill-opacity:1;" d="M 46.5 134.6875 L 44.433594 135.570312 L 42.363281 134.6875 L 44.433594 133.804688 Z M 46.5 134.6875 "/>
<path style=" stroke:none;fill-rule:nonzero;fill:rgb(94.509804%,31.37255%,23.529412%);fill-opacity:1;" d="M 44.53125 130.863281 L 42.460938 131.746094 L 40.394531 130.863281 L 42.460938 129.984375 Z M 44.53125 130.863281 "/>
<path style=" stroke:none;fill-rule:nonzero;fill:rgb(94.509804%,31.37255%,23.529412%);fill-opacity:1;" d="M 47.386719 129.589844 L 45.320312 130.472656 L 43.25 129.589844 L 45.320312 128.707031 Z M 47.386719 129.589844 "/>
<path style=" stroke:none;fill-rule:nonzero;fill:rgb(94.509804%,31.37255%,23.529412%);fill-opacity:1;" d="M 50.34375 128.316406 L 48.273438 129.199219 L 46.207031 128.316406 L 48.273438 127.433594 Z M 50.34375 128.316406 "/>
<path style=" stroke:none;fill-rule:nonzero;fill:rgb(94.509804%,31.37255%,23.529412%);fill-opacity:1;" d="M 53.199219 127.140625 L 51.132812 128.023438 L 49.0625 127.140625 L 51.132812 126.257812 Z M 53.199219 127.140625 "/>
<path style=" stroke:none;fill-rule:nonzero;fill:rgb(94.509804%,31.37255%,23.529412%);fill-opacity:1;" d="M 58.519531 124.886719 L 53.988281 126.847656 L 51.917969 125.964844 L 56.449219 124.003906 Z M 58.519531 124.886719 "/>
<path style=" stroke:none;fill-rule:nonzero;fill:rgb(94.509804%,31.37255%,23.529412%);fill-opacity:1;" d="M 30.046875 137.039062 L 27.980469 137.921875 L 25.910156 137.039062 L 27.980469 136.160156 Z M 30.046875 137.039062 "/>
<path style=" stroke:none;fill-rule:nonzero;fill:rgb(94.509804%,31.37255%,23.529412%);fill-opacity:1;" d="M 33.003906 135.765625 L 30.933594 136.648438 L 28.867188 135.765625 L 30.933594 134.882812 Z M 33.003906 135.765625 "/>
<path style=" stroke:none;fill-rule:nonzero;fill:rgb(94.509804%,31.37255%,23.529412%);fill-opacity:1;" d="M 35.859375 134.589844 L 33.792969 135.472656 L 31.722656 134.589844 L 33.792969 133.707031 Z M 35.859375 134.589844 "/>
<path style=" stroke:none;fill-rule:nonzero;fill:rgb(94.509804%,31.37255%,23.529412%);fill-opacity:1;" d="M 38.71875 133.316406 L 36.648438 134.199219 L 34.578125 133.316406 L 36.648438 132.433594 Z M 38.71875 133.316406 "/>
<path style=" stroke:none;fill-rule:nonzero;fill:rgb(94.509804%,31.37255%,23.529412%);fill-opacity:1;" d="M 41.671875 132.042969 L 39.605469 132.921875 L 37.535156 132.042969 L 39.605469 131.160156 Z M 41.671875 132.042969 "/>
<path style=" stroke:none;fill-rule:nonzero;fill:rgb(94.509804%,31.37255%,23.529412%);fill-opacity:1;" d="M 45.21875 132.824219 L 43.152344 133.707031 L 41.082031 132.824219 L 43.152344 131.945312 Z M 45.21875 132.824219 "/>
<path style=" stroke:none;fill-rule:nonzero;fill:rgb(94.509804%,31.37255%,23.529412%);fill-opacity:1;" d="M 48.175781 131.550781 L 46.105469 132.433594 L 44.039062 131.550781 L 46.105469 130.667969 Z M 48.175781 131.550781 "/>
<path style=" stroke:none;fill-rule:nonzero;fill:rgb(94.509804%,31.37255%,23.529412%);fill-opacity:1;" d="M 51.03125 130.375 L 48.964844 131.257812 L 46.894531 130.375 L 48.964844 129.492188 Z M 51.03125 130.375 "/>
<path style=" stroke:none;fill-rule:nonzero;fill:rgb(94.509804%,31.37255%,23.529412%);fill-opacity:1;" d="M 53.890625 129.101562 L 51.820312 129.984375 L 49.75 129.101562 L 51.820312 128.21875 Z M 53.890625 129.101562 "/>
<path style=" stroke:none;fill-rule:nonzero;fill:rgb(94.509804%,31.37255%,23.529412%);fill-opacity:1;" d="M 56.84375 127.925781 L 54.777344 128.804688 L 52.707031 127.925781 L 54.777344 127.042969 Z M 56.84375 127.925781 "/>
<path style=" stroke:none;fill-rule:nonzero;fill:rgb(94.509804%,31.37255%,23.529412%);fill-opacity:1;" d="M 52.804688 122.335938 L 49.257812 123.90625 L 47.191406 123.023438 L 50.738281 121.453125 Z M 52.804688 122.335938 "/>
<path style=" stroke:none;fill-rule:nonzero;fill:rgb(94.509804%,31.37255%,23.529412%);fill-opacity:1;" d="M 45.613281 125.472656 L 43.546875 126.355469 L 41.378906 125.472656 L 43.445312 124.589844 Z M 45.613281 125.472656 "/>
<path style=" stroke:none;fill-rule:nonzero;fill:rgb(94.509804%,31.37255%,23.529412%);fill-opacity:1;" d="M 48.472656 124.199219 L 46.402344 125.082031 L 44.332031 124.199219 L 46.402344 123.316406 Z M 48.472656 124.199219 "/>
<path style=" stroke:none;fill-rule:nonzero;fill:rgb(94.509804%,31.37255%,23.529412%);fill-opacity:1;" d="M 33.691406 137.824219 L 31.625 138.707031 L 29.554688 137.824219 L 31.625 136.941406 Z M 33.691406 137.824219 "/>
<path style=" stroke:none;fill-rule:nonzero;fill:rgb(94.509804%,31.37255%,23.529412%);fill-opacity:1;" d="M 36.550781 136.550781 L 34.480469 137.433594 L 32.414062 136.550781 L 34.480469 135.667969 Z M 36.550781 136.550781 "/>
<path style=" stroke:none;fill-rule:nonzero;fill:rgb(94.509804%,31.37255%,23.529412%);fill-opacity:1;" d="M 39.507812 135.277344 L 37.4375 136.160156 L 35.367188 135.277344 L 37.4375 134.394531 Z M 39.507812 135.277344 "/>
<path style=" stroke:none;fill-rule:nonzero;fill:rgb(94.509804%,31.37255%,23.529412%);fill-opacity:1;" d="M 42.363281 134.101562 L 40.292969 134.980469 L 38.226562 134.101562 L 40.292969 133.21875 Z M 42.363281 134.101562 "/>
<path style=" stroke:none;fill-rule:nonzero;fill:rgb(94.509804%,31.37255%,23.529412%);fill-opacity:1;" d="M 55.664062 123.609375 L 52.804688 124.886719 L 50.738281 124.003906 L 53.59375 122.730469 Z M 55.664062 123.609375 "/>
<path style=" stroke:none;fill-rule:nonzero;fill:rgb(94.509804%,31.37255%,23.529412%);fill-opacity:1;" d="M 37.632812 131.355469 L 35.566406 132.238281 L 33.496094 131.355469 L 35.566406 130.472656 Z M 37.632812 131.355469 "/>
<path style=" stroke:none;fill-rule:nonzero;fill:rgb(94.509804%,31.37255%,23.529412%);fill-opacity:1;" d="M 42.757812 126.648438 L 28.765625 132.628906 L 26.699219 131.746094 L 40.6875 125.769531 Z M 42.757812 126.648438 "/>
<path style=" stroke:none;fill-rule:nonzero;fill:rgb(94.509804%,31.37255%,23.529412%);fill-opacity:1;" d="M 40.492188 130.082031 L 38.421875 130.964844 L 36.351562 130.082031 L 38.421875 129.199219 Z M 40.492188 130.082031 "/>
<path style=" stroke:none;fill-rule:nonzero;fill:rgb(94.509804%,31.37255%,23.529412%);fill-opacity:1;" d="M 43.347656 128.90625 L 41.277344 129.785156 L 39.210938 128.90625 L 41.277344 128.023438 Z M 43.347656 128.90625 "/>
<path style=" stroke:none;fill-rule:nonzero;fill:rgb(94.509804%,31.37255%,23.529412%);fill-opacity:1;" d="M 46.207031 127.628906 L 44.136719 128.511719 L 42.066406 127.628906 L 44.136719 126.746094 Z M 46.207031 127.628906 "/>
<path style=" stroke:none;fill-rule:nonzero;fill:rgb(94.509804%,31.37255%,23.529412%);fill-opacity:1;" d="M 49.160156 126.453125 L 47.09375 127.335938 L 45.023438 126.453125 L 47.09375 125.570312 Z M 49.160156 126.453125 "/>
<path style=" stroke:none;fill-rule:nonzero;fill:rgb(94.509804%,31.37255%,23.529412%);fill-opacity:1;" d="M 52.019531 125.179688 L 49.949219 126.0625 L 47.878906 125.179688 L 49.949219 124.296875 Z M 52.019531 125.179688 "/>
<path style=" stroke:none;fill-rule:nonzero;fill:rgb(94.509804%,31.37255%,23.529412%);fill-opacity:1;" d="M 28.964844 135.082031 L 26.894531 135.960938 L 24.828125 135.082031 L 26.894531 134.199219 Z M 28.964844 135.082031 "/>
<path style=" stroke:none;fill-rule:nonzero;fill:rgb(94.509804%,31.37255%,23.529412%);fill-opacity:1;" d="M 22.265625 135.472656 L 19.40625 136.648438 L 17.339844 135.765625 L 20.195312 134.589844 Z M 22.265625 135.472656 "/>
<path style=" stroke:none;fill-rule:nonzero;fill:rgb(94.509804%,31.37255%,23.529412%);fill-opacity:1;" d="M 25.121094 134.199219 L 23.054688 135.082031 L 20.984375 134.199219 L 23.054688 133.316406 Z M 25.121094 134.199219 "/>
<path style=" stroke:none;fill-rule:nonzero;fill:rgb(94.509804%,31.37255%,23.529412%);fill-opacity:1;" d="M 27.980469 133.023438 L 25.910156 133.902344 L 23.839844 133.023438 L 25.910156 132.140625 Z M 27.980469 133.023438 "/>
<path style=" stroke:none;fill-rule:nonzero;fill:rgb(94.509804%,31.37255%,23.529412%);fill-opacity:1;" d="M 31.820312 133.804688 L 29.753906 134.6875 L 27.683594 133.804688 L 29.753906 132.921875 Z M 31.820312 133.804688 "/>
<path style=" stroke:none;fill-rule:nonzero;fill:rgb(94.509804%,31.37255%,23.529412%);fill-opacity:1;" d="M 34.679688 132.628906 L 32.609375 133.511719 L 30.539062 132.628906 L 32.609375 131.746094 Z M 34.679688 132.628906 "/>
<path style=" stroke:none;fill-rule:nonzero;fill:rgb(41.568628%,40.784314%,80.784315%);fill-opacity:1;" d="M 37.929688 117.335938 L 74.085938 101.847656 L 66.894531 127.238281 L 30.738281 142.726562 Z M 37.929688 117.335938 "/>
<path style=" stroke:none;fill-rule:nonzero;fill:rgb(100%,100%,100%);fill-opacity:1;" d="M 92.804688 127.238281 C 92.804688 127.238281 92.902344 119.984375 93.296875 118.414062 C 93.691406 116.75 94.578125 113.613281 94.578125 113.613281 L 103.347656 115.082031 L 100.488281 127.238281 Z M 92.804688 127.238281 "/>
<path style=" stroke:none;fill-rule:nonzero;fill:rgb(41.568628%,40.784314%,80.784315%);fill-opacity:1;" d="M 131.128906 121.160156 C 131.523438 121.257812 131.917969 121.453125 132.308594 121.652344 C 132.804688 119.394531 133 117.140625 133 114.691406 L 133 100.867188 C 130.242188 97.832031 124.921875 97.339844 122.558594 97.535156 C 119.601562 97.730469 119.011719 99.59375 115.363281 99.105469 C 111.820312 98.613281 113.59375 96.164062 106.597656 94.890625 C 99.601562 93.515625 92.707031 118.710938 92.707031 118.710938 C 93.199219 119.59375 101.867188 118.90625 102.558594 118.710938 C 103.246094 118.515625 104.234375 111.652344 104.234375 111.652344 L 104.921875 128.804688 L 123.542969 138.21875 C 126.792969 134.785156 129.355469 130.667969 130.929688 126.160156 C 130.832031 123.316406 130.832031 121.257812 131.128906 121.160156 Z M 131.128906 121.160156 "/>
<path style=" stroke:none;fill-rule:nonzero;fill:rgb(96.862745%,96.862745%,96.862745%);fill-opacity:1;" d="M 121.078125 137.628906 L 82.460938 124.492188 L 66.203125 132.53125 L 104.824219 145.667969 Z M 121.078125 137.628906 "/>
<path style=" stroke:none;fill-rule:nonzero;fill:rgb(10.588235%,9.803922%,26.666668%);fill-opacity:1;" d="M 84.921875 137.628906 L 87.1875 138.414062 L 89.355469 137.335938 L 87.089844 136.550781 Z M 84.921875 137.628906 "/>
<path style=" stroke:none;fill-rule:nonzero;fill:rgb(10.588235%,9.803922%,26.666668%);fill-opacity:1;" d="M 81.769531 136.550781 L 84.035156 137.335938 L 86.203125 136.257812 L 83.9375 135.472656 Z M 81.769531 136.550781 "/>
<path style=" stroke:none;fill-rule:nonzero;fill:rgb(10.588235%,9.803922%,26.666668%);fill-opacity:1;" d="M 78.714844 135.570312 L 80.980469 136.355469 L 83.050781 135.277344 L 80.785156 134.492188 Z M 78.714844 135.570312 "/>
<path style=" stroke:none;fill-rule:nonzero;fill:rgb(10.588235%,9.803922%,26.666668%);fill-opacity:1;" d="M 75.5625 134.492188 L 77.828125 135.277344 L 79.996094 134.199219 L 77.730469 133.414062 Z M 75.5625 134.492188 "/>
<path style=" stroke:none;fill-rule:nonzero;fill:rgb(10.588235%,9.803922%,26.666668%);fill-opacity:1;" d="M 72.410156 133.414062 L 74.675781 134.199219 L 76.84375 133.121094 L 74.578125 132.335938 Z M 72.410156 133.414062 "/>
<path style=" stroke:none;fill-rule:nonzero;fill:rgb(10.588235%,9.803922%,26.666668%);fill-opacity:1;" d="M 69.355469 132.335938 L 71.621094 133.121094 L 73.789062 132.042969 L 71.523438 131.257812 Z M 69.355469 132.335938 "/>
<path style=" stroke:none;fill-rule:nonzero;fill:rgb(10.588235%,9.803922%,26.666668%);fill-opacity:1;" d="M 100.390625 142.921875 L 104.921875 144.492188 L 107.089844 143.414062 L 102.558594 141.84375 Z M 100.390625 142.921875 "/>
<path style=" stroke:none;fill-rule:nonzero;fill:rgb(10.588235%,9.803922%,26.666668%);fill-opacity:1;" d="M 109.355469 138.902344 L 113.394531 140.277344 L 115.5625 139.199219 L 111.523438 137.824219 Z M 109.355469 138.902344 "/>
<path style=" stroke:none;fill-rule:nonzero;fill:rgb(10.588235%,9.803922%,26.666668%);fill-opacity:1;" d="M 72.214844 130.964844 L 76.054688 132.238281 L 78.222656 131.160156 L 74.382812 129.886719 Z M 72.214844 130.964844 "/>
<path style=" stroke:none;fill-rule:nonzero;fill:rgb(10.588235%,9.803922%,26.666668%);fill-opacity:1;" d="M 107.777344 143.117188 L 112.605469 140.765625 L 110.339844 139.980469 L 105.511719 142.335938 Z M 107.777344 143.117188 "/>
<path style=" stroke:none;fill-rule:nonzero;fill:rgb(10.588235%,9.803922%,26.666668%);fill-opacity:1;" d="M 97.335938 141.84375 L 99.601562 142.628906 L 101.769531 141.550781 L 99.503906 140.765625 Z M 97.335938 141.84375 "/>
<path style=" stroke:none;fill-rule:nonzero;fill:rgb(10.588235%,9.803922%,26.666668%);fill-opacity:1;" d="M 104.625 142.039062 L 106.894531 142.824219 L 109.058594 141.746094 L 106.792969 140.960938 Z M 104.625 142.039062 "/>
<path style=" stroke:none;fill-rule:nonzero;fill:rgb(10.588235%,9.803922%,26.666668%);fill-opacity:1;" d="M 94.183594 140.863281 L 96.449219 141.648438 L 98.617188 140.570312 L 96.351562 139.785156 Z M 94.183594 140.863281 "/>
<path style=" stroke:none;fill-rule:nonzero;fill:rgb(10.588235%,9.803922%,26.666668%);fill-opacity:1;" d="M 91.128906 139.785156 L 93.394531 140.570312 L 95.5625 139.492188 L 93.296875 138.707031 Z M 91.128906 139.785156 "/>
<path style=" stroke:none;fill-rule:nonzero;fill:rgb(10.588235%,9.803922%,26.666668%);fill-opacity:1;" d="M 87.976562 138.707031 L 90.242188 139.492188 L 92.410156 138.414062 L 90.144531 137.628906 Z M 87.976562 138.707031 "/>
<path style=" stroke:none;fill-rule:nonzero;fill:rgb(10.588235%,9.803922%,26.666668%);fill-opacity:1;" d="M 89.75 134.6875 L 92.015625 135.472656 L 94.183594 134.394531 L 91.917969 133.609375 Z M 89.75 134.6875 "/>
<path style=" stroke:none;fill-rule:nonzero;fill:rgb(10.588235%,9.803922%,26.666668%);fill-opacity:1;" d="M 86.695312 133.609375 L 88.960938 134.394531 L 91.128906 133.316406 L 88.863281 132.53125 Z M 86.695312 133.609375 "/>
<path style=" stroke:none;fill-rule:nonzero;fill:rgb(10.588235%,9.803922%,26.666668%);fill-opacity:1;" d="M 83.542969 132.628906 L 85.808594 133.414062 L 87.976562 132.335938 L 85.710938 131.550781 Z M 83.542969 132.628906 "/>
<path style=" stroke:none;fill-rule:nonzero;fill:rgb(10.588235%,9.803922%,26.666668%);fill-opacity:1;" d="M 80.488281 131.550781 L 82.753906 132.335938 L 84.921875 131.257812 L 82.65625 130.472656 Z M 80.488281 131.550781 "/>
<path style=" stroke:none;fill-rule:nonzero;fill:rgb(10.588235%,9.803922%,26.666668%);fill-opacity:1;" d="M 74.875 129.589844 L 79.703125 131.257812 L 81.867188 130.179688 L 77.042969 128.511719 Z M 74.875 129.589844 "/>
<path style=" stroke:none;fill-rule:nonzero;fill:rgb(10.588235%,9.803922%,26.666668%);fill-opacity:1;" d="M 105.21875 139.980469 L 107.484375 140.765625 L 109.652344 139.6875 L 107.386719 138.902344 Z M 105.21875 139.980469 "/>
<path style=" stroke:none;fill-rule:nonzero;fill:rgb(10.588235%,9.803922%,26.666668%);fill-opacity:1;" d="M 102.066406 138.902344 L 104.332031 139.6875 L 106.5 138.609375 L 104.234375 137.824219 Z M 102.066406 138.902344 "/>
<path style=" stroke:none;fill-rule:nonzero;fill:rgb(10.588235%,9.803922%,26.666668%);fill-opacity:1;" d="M 99.011719 137.824219 L 101.277344 138.609375 L 103.445312 137.53125 L 101.179688 136.746094 Z M 99.011719 137.824219 "/>
<path style=" stroke:none;fill-rule:nonzero;fill:rgb(10.588235%,9.803922%,26.666668%);fill-opacity:1;" d="M 95.957031 136.84375 L 98.222656 137.628906 L 100.292969 136.550781 L 98.027344 135.765625 Z M 95.957031 136.84375 "/>
<path style=" stroke:none;fill-rule:nonzero;fill:rgb(10.588235%,9.803922%,26.666668%);fill-opacity:1;" d="M 92.804688 135.765625 L 95.070312 136.550781 L 97.238281 135.472656 L 94.972656 134.6875 Z M 92.804688 135.765625 "/>
<path style=" stroke:none;fill-rule:nonzero;fill:rgb(10.588235%,9.803922%,26.666668%);fill-opacity:1;" d="M 89.160156 136.746094 L 91.425781 137.53125 L 93.59375 136.453125 L 91.328125 135.667969 Z M 89.160156 136.746094 "/>
<path style=" stroke:none;fill-rule:nonzero;fill:rgb(10.588235%,9.803922%,26.666668%);fill-opacity:1;" d="M 86.007812 135.667969 L 88.273438 136.453125 L 90.441406 135.375 L 88.175781 134.589844 Z M 86.007812 135.667969 "/>
<path style=" stroke:none;fill-rule:nonzero;fill:rgb(10.588235%,9.803922%,26.666668%);fill-opacity:1;" d="M 82.953125 134.589844 L 85.21875 135.375 L 87.386719 134.296875 L 85.121094 133.511719 Z M 82.953125 134.589844 "/>
<path style=" stroke:none;fill-rule:nonzero;fill:rgb(10.588235%,9.803922%,26.666668%);fill-opacity:1;" d="M 79.898438 133.609375 L 82.164062 134.394531 L 84.332031 133.316406 L 82.066406 132.53125 Z M 79.898438 133.609375 "/>
<path style=" stroke:none;fill-rule:nonzero;fill:rgb(10.588235%,9.803922%,26.666668%);fill-opacity:1;" d="M 76.84375 132.53125 L 79.109375 133.316406 L 81.277344 132.238281 L 79.011719 131.453125 Z M 76.84375 132.53125 "/>
<path style=" stroke:none;fill-rule:nonzero;fill:rgb(10.588235%,9.803922%,26.666668%);fill-opacity:1;" d="M 80.589844 126.746094 L 84.429688 128.023438 L 86.597656 126.945312 L 82.753906 125.667969 Z M 80.589844 126.746094 "/>
<path style=" stroke:none;fill-rule:nonzero;fill:rgb(10.588235%,9.803922%,26.666668%);fill-opacity:1;" d="M 88.273438 129.394531 L 90.539062 130.179688 L 92.707031 129.101562 L 90.441406 128.316406 Z M 88.273438 129.394531 "/>
<path style=" stroke:none;fill-rule:nonzero;fill:rgb(10.588235%,9.803922%,26.666668%);fill-opacity:1;" d="M 85.21875 128.316406 L 87.484375 129.101562 L 89.652344 128.023438 L 87.386719 127.238281 Z M 85.21875 128.316406 "/>
<path style=" stroke:none;fill-rule:nonzero;fill:rgb(10.588235%,9.803922%,26.666668%);fill-opacity:1;" d="M 101.472656 140.960938 L 103.738281 141.746094 L 105.90625 140.667969 L 103.640625 139.882812 Z M 101.472656 140.960938 "/>
<path style=" stroke:none;fill-rule:nonzero;fill:rgb(10.588235%,9.803922%,26.666668%);fill-opacity:1;" d="M 98.421875 139.882812 L 100.6875 140.667969 L 102.851562 139.589844 L 100.585938 138.804688 Z M 98.421875 139.882812 "/>
<path style=" stroke:none;fill-rule:nonzero;fill:rgb(10.588235%,9.803922%,26.666668%);fill-opacity:1;" d="M 95.265625 138.804688 L 97.535156 139.589844 L 99.699219 138.511719 L 97.433594 137.726562 Z M 95.265625 138.804688 "/>
<path style=" stroke:none;fill-rule:nonzero;fill:rgb(10.588235%,9.803922%,26.666668%);fill-opacity:1;" d="M 92.214844 137.824219 L 94.480469 138.609375 L 96.648438 137.53125 L 94.378906 136.746094 Z M 92.214844 137.824219 "/>
<path style=" stroke:none;fill-rule:nonzero;fill:rgb(10.588235%,9.803922%,26.666668%);fill-opacity:1;" d="M 77.730469 128.21875 L 80.785156 129.296875 L 82.953125 128.21875 L 79.898438 127.140625 Z M 77.730469 128.21875 "/>
<path style=" stroke:none;fill-rule:nonzero;fill:rgb(10.588235%,9.803922%,26.666668%);fill-opacity:1;" d="M 97.039062 134.785156 L 99.308594 135.570312 L 101.472656 134.492188 L 99.207031 133.707031 Z M 97.039062 134.785156 "/>
<path style=" stroke:none;fill-rule:nonzero;fill:rgb(10.588235%,9.803922%,26.666668%);fill-opacity:1;" d="M 91.328125 130.375 L 106.300781 135.472656 L 108.46875 134.394531 L 93.492188 129.394531 Z M 91.328125 130.375 "/>
<path style=" stroke:none;fill-rule:nonzero;fill:rgb(10.588235%,9.803922%,26.666668%);fill-opacity:1;" d="M 93.988281 133.707031 L 96.253906 134.492188 L 98.421875 133.414062 L 96.152344 132.628906 Z M 93.988281 133.707031 "/>
<path style=" stroke:none;fill-rule:nonzero;fill:rgb(10.588235%,9.803922%,26.666668%);fill-opacity:1;" d="M 90.835938 132.628906 L 93.101562 133.414062 L 95.265625 132.335938 L 93 131.550781 Z M 90.835938 132.628906 "/>
<path style=" stroke:none;fill-rule:nonzero;fill:rgb(10.588235%,9.803922%,26.666668%);fill-opacity:1;" d="M 87.78125 131.648438 L 90.046875 132.433594 L 92.214844 131.355469 L 89.949219 130.570312 Z M 87.78125 131.648438 "/>
<path style=" stroke:none;fill-rule:nonzero;fill:rgb(10.588235%,9.803922%,26.666668%);fill-opacity:1;" d="M 84.726562 130.570312 L 86.992188 131.355469 L 89.160156 130.277344 L 86.894531 129.492188 Z M 84.726562 130.570312 "/>
<path style=" stroke:none;fill-rule:nonzero;fill:rgb(10.588235%,9.803922%,26.666668%);fill-opacity:1;" d="M 81.671875 129.492188 L 83.9375 130.277344 L 86.105469 129.199219 L 83.742188 128.414062 Z M 81.671875 129.492188 "/>
<path style=" stroke:none;fill-rule:nonzero;fill:rgb(10.588235%,9.803922%,26.666668%);fill-opacity:1;" d="M 106.300781 137.921875 L 108.566406 138.707031 L 110.734375 137.628906 L 108.46875 136.84375 Z M 106.300781 137.921875 "/>
<path style=" stroke:none;fill-rule:nonzero;fill:rgb(10.588235%,9.803922%,26.666668%);fill-opacity:1;" d="M 113.199219 137.824219 L 116.25 138.804688 L 118.417969 137.726562 L 115.363281 136.746094 Z M 113.199219 137.824219 "/>
<path style=" stroke:none;fill-rule:nonzero;fill:rgb(10.588235%,9.803922%,26.666668%);fill-opacity:1;" d="M 110.144531 136.84375 L 112.410156 137.628906 L 114.578125 136.550781 L 112.3125 135.765625 Z M 110.144531 136.84375 "/>
<path style=" stroke:none;fill-rule:nonzero;fill:rgb(10.588235%,9.803922%,26.666668%);fill-opacity:1;" d="M 107.089844 135.765625 L 109.355469 136.550781 L 111.523438 135.472656 L 109.257812 134.6875 Z M 107.089844 135.765625 "/>
<path style=" stroke:none;fill-rule:nonzero;fill:rgb(10.588235%,9.803922%,26.666668%);fill-opacity:1;" d="M 103.148438 136.84375 L 105.414062 137.628906 L 107.582031 136.550781 L 105.316406 135.765625 Z M 103.148438 136.84375 "/>
<path style=" stroke:none;fill-rule:nonzero;fill:rgb(10.588235%,9.803922%,26.666668%);fill-opacity:1;" d="M 100.09375 135.765625 L 102.359375 136.550781 L 104.527344 135.472656 L 102.261719 134.6875 Z M 100.09375 135.765625 "/>
<path style=" stroke:none;fill-rule:nonzero;fill:rgb(10.588235%,9.803922%,26.666668%);fill-opacity:1;" d="M 95.464844 122.140625 L 56.84375 109.003906 L 66.304688 132.53125 L 104.921875 145.667969 Z M 95.464844 122.140625 "/>
<path style=" stroke:none;fill-rule:nonzero;fill:rgb(100%,100%,100%);fill-opacity:1;" d="M 104.726562 75.1875 C 104.726562 75.1875 100.6875 78.128906 102.066406 84.792969 C 103.445312 91.457031 107.777344 92.832031 108.863281 93.222656 C 109.945312 93.515625 112.410156 94.496094 112.605469 95.574219 C 112.804688 96.652344 112.410156 98.027344 112.410156 98.027344 C 112.410156 98.027344 113.492188 100.28125 115.957031 100.476562 C 118.417969 100.671875 121.867188 97.832031 121.867188 97.832031 C 121.867188 97.832031 124.332031 95.574219 122.949219 87.539062 C 121.570312 79.5 118.417969 79.890625 114.675781 78.617188 C 110.933594 77.34375 104.726562 75.1875 104.726562 75.1875 Z M 104.726562 75.1875 "/>
<path style=" stroke:none;fill-rule:nonzero;fill:rgb(94.509804%,31.37255%,23.529412%);fill-opacity:1;" d="M 102.261719 73.421875 C 102.359375 72.050781 109.257812 67.148438 115.070312 68.519531 C 120.882812 69.894531 124.722656 72.539062 125.609375 76.167969 C 126.496094 79.792969 125.609375 82.242188 126.105469 83.324219 C 126.597656 84.402344 129.648438 88.027344 129.648438 91.359375 C 129.648438 94.695312 130.242188 99.105469 130.242188 99.105469 C 130.242188 99.105469 127.976562 97.730469 125.511719 97.730469 C 123.050781 97.730469 120.390625 97.929688 120.390625 97.929688 C 120.390625 97.929688 119.601562 96.652344 119.601562 94.695312 C 119.601562 92.636719 120.292969 91.359375 119.601562 90.476562 C 118.910156 89.597656 116.644531 88.910156 116.449219 87.929688 C 116.25 86.949219 118.519531 84.695312 118.023438 83.125 C 117.53125 81.558594 116.941406 81.066406 116.25 81.066406 C 115.5625 81.066406 114.675781 81.066406 114.480469 82.441406 C 114.28125 83.8125 109.058594 82.636719 106.792969 80.871094 C 104.527344 79.007812 102.066406 76.070312 102.261719 73.421875 Z M 102.261719 73.421875 "/>
<path style=" stroke:none;fill-rule:nonzero;fill:rgb(100%,100%,100%);fill-opacity:1;" d="M 132.507812 120.574219 L 125.808594 118.515625 C 125.808594 118.515625 125.316406 128.804688 125.019531 127.925781 C 124.824219 127.042969 114.871094 105.085938 113.59375 103.125 C 112.210938 101.066406 109.75 101.554688 107.089844 101.554688 C 104.429688 101.554688 103.050781 102.046875 103.050781 103.320312 C 103.050781 104.59375 104.625 104.007812 105.121094 104.203125 C 105.613281 104.398438 106.5 105.964844 107.1875 106.261719 C 107.878906 106.457031 108.566406 106.066406 109.257812 106.75 C 109.257812 106.75 116.546875 127.042969 117.828125 131.453125 C 118.8125 134.785156 121.570312 137.140625 124.429688 137.53125 C 128.46875 132.824219 131.324219 127.042969 132.507812 120.574219 Z M 132.507812 120.574219 "/>
<path style=" stroke:none;fill-rule:nonzero;fill:rgb(94.509804%,31.37255%,23.529412%);fill-opacity:1;" d="M 96.648438 93.515625 C 96.648438 93.320312 96.84375 93.125 97.039062 93.222656 C 97.828125 93.417969 99.699219 93.8125 101.574219 93.320312 C 104.035156 92.636719 105.019531 90.96875 105.019531 90.96875 C 105.019531 90.96875 108.960938 92.242188 110.636719 93.222656 C 112.3125 94.203125 114.378906 96.066406 112.113281 99.105469 C 109.847656 102.242188 102.753906 100.769531 99.996094 98.910156 C 97.238281 96.949219 96.546875 95.476562 96.648438 93.515625 Z M 96.648438 93.515625 "/>
</g>
</svg>
