<?xml version="1.0" encoding="utf-8"?>
<!-- Generator: Adobe Illustrator 27.9.6, SVG Export Plug-In . SVG Version: 9.03 Build 54986)  -->
<svg version="1.1" id="Layer_1" xmlns="http://www.w3.org/2000/svg" xmlns:xlink="http://www.w3.org/1999/xlink" x="0px" y="0px"
	 viewBox="0 0 135 152" style="enable-background:new 0 0 135 152;" xml:space="preserve">
<style type="text/css">
	.st0{fill:#1B1944;}
	.st1{fill:#6A68CE;}
	.st2{fill:#FFFFFF;}
	.st3{fill:#FCC4D7;}
	.st4{fill:#F1503C;}
	.st5{fill:none;stroke:#6A67CE;stroke-width:2;stroke-miterlimit:10;}
	.st6{fill:#6A67CE;}
</style>
<g>
	<path class="st0" d="M35,0h65c19.3,0,35,15.7,35,35v82c0,19.3-15.7,35-35,35H35c-19.3,0-35-15.7-35-35V35C0,15.7,15.7,0,35,0z"/>
	<path class="st0" d="M35,0h65c19.3,0,35,15.7,35,35v82c0,19.3-15.7,35-35,35H35c-19.3,0-35-15.7-35-35V35C0,15.7,15.7,0,35,0z"/>
	<path class="st0" d="M35,0h65c19.3,0,35,15.7,35,35v82c0,19.3-15.7,35-35,35H35c-19.3,0-35-15.7-35-35V35C0,15.7,15.7,0,35,0z"/>
	<path class="st0" d="M35,0h65c19.3,0,35,15.7,35,35v82c0,19.3-15.7,35-35,35H35c-19.3,0-35-15.7-35-35V35C0,15.7,15.7,0,35,0z"/>
	<path class="st0" d="M35,0h65c19.3,0,35,15.7,35,35v82c0,19.3-15.7,35-35,35H35c-19.3,0-35-15.7-35-35V35C0,15.7,15.7,0,35,0z"/>
	<path class="st1" d="M46.1,85c0,0,0.3,5.3,1.6,6.6c1.3,1.3,3.5,2.4,3.2,3.7c-0.3,1.3-0.3,4.8,1.1,5.6c1.3,0.8,2.7,1.3,2.4,2.7
		c-0.3,1.3-0.8,2.4-0.8,2.4l-14.3-4.5c0,0-2.1-2.4-1.9-6.4C37.6,91.1,46.1,85,46.1,85z"/>
	<path class="st2" d="M54,120l0.3,23.6h-5.1l-0.5-24.4L54,120z"/>
	<path class="st3" d="M44.4,100.6c-3-0.1-4.7,0.3-5,0.1c-0.3-0.3-0.6-3.2-0.6-3.2S36.2,98,34.4,98s-4.8-0.5-4.8-0.5l-0.3,1.8
		c0,0-1.9-0.8-2.7-1.3c-0.8-0.5-6.9-1.3-11.2,1.6c-4.3,2.9-9.3,12.2-9.6,14.3s2.9,2.1,6.3,3.5c3.3,1.3,6.2,1.3,6.2,1.3L20,116h0
		c0,0-0.8,8.5-1.3,12.7c-0.3,2.8-3,10.9-4.8,16.1c5.9,4.5,13.2,7.1,21.1,7.1h7.4l7.1-31.7c0,0,1.9,0.5,3.5,0.8
		c1.6,0.3,1.9-1.1,1.9-1.1s0-11.4-0.8-14.1C53.3,103.3,47.4,100.6,44.4,100.6z"/>
	<path class="st2" d="M92.6,100.6c0,0,0.5-1.1-1.9-2.4c-2.4-1.3-6.7-0.3-10.5-2.8c-3.8-2.5-5.9-8.6-6.2-11.8
		c-0.3-3.2,1.1-5.6,1.9-6.6c0.8-1.1,17-0.5,19.9,4c2.9,4.5,3.7,11.4,4.3,12.5c0.5,1.1,1.3,4.5,1.3,4.5L92.6,100.6L92.6,100.6z"/>
	<path class="st4" d="M89.9,85c0,0,0-2.1,1.6-2.1c1.6,0,3.2,1.6,2.7,4c-0.5,2.4-0.6,3.1,0.1,3.7c0.7,0.6,2.3,0.1,3.3,0.8
		c1.1,0.8,0.8,2.1,1.6,2.1c0.8,0,4.5-2.1,3.5-10.1c-1.1-8-5.3-13-10.6-13.8c-5.3-0.8-12.8,2.7-14.9,4.5c-2.1,1.9-3,3.7-3.2,4.5
		c-0.2,0.8,2.2,4.6,4.8,5.6C81.4,85.2,88.3,86.3,89.9,85L89.9,85z"/>
	<path class="st1" d="M132.7,128.8c-0.8-2.1-12.8-25-14.1-26.5c-1.3-1.6-7.4-5.3-9.3-5.8c-1.9-0.5-6.1,2.4-7,2.6
		c-0.9,0.2-0.4-2.1-0.4-2.1l-10.1,2.9l0.3,2.4c0,0-4.3,0.3-9.6,3.4c-5.3,3.2-4.5,8.8-4,10.4c0.4,1.3,6,25.6,8.3,36H100
		c15.1,0,27.9-9.5,32.8-22.9C132.8,129,132.7,128.9,132.7,128.8z"/>
	<path class="st2" d="M114.4,109.1l-13,2.6l-5.6,12.5c0,0-22.8-15.7-23.1-16.5c-0.3-0.8,1.1-4.8,0-5.7c-1.1-0.9-4.2,4.3-3.6,8.2
		c0.6,3.9,0.9,4.2,1.4,5.2c0.5,1.1,24.2,26.1,27.9,26C104.8,141.4,114.4,109.1,114.4,109.1z"/>
	<path class="st3" d="M77.2,102.3l-17.7,8.4c-0.3,0.2-0.7,0.1-0.9-0.2c-0.2-0.3-0.1-0.7,0.2-0.9l17.7-8.4c0,0,0.6-2.2,2.3-3.2
		c1.7-1,4.8-4.1,6-1.6c1.2,2.4-0.7,4.5-2.9,5.6C79.7,103,77.2,102.3,77.2,102.3z"/>
	<path class="st2" d="M43.8,72.8c1.7,1.8,5.2,10.5,2.8,14.5c-2.4,4-6.1,5.3-6.9,7.2c-0.8,1.9-1.1,4.4-1.1,4.4l-9.5-0.6
		c0,0-2.4-12.6,0-16.7C31.5,77.5,43.8,72.8,43.8,72.8z"/>
	<path class="st1" d="M7.8,114.7c0,0-3.2,1.3-4-1.3c-0.8-2.7,2.1-4,4-7.7c1.9-3.7,0.9-7.9,2.2-10.8c1.3-3,7.7-3.2,9.3-8
		c1.6-4.8,3.2-13.7,8.8-15.8s11.5-0.8,12.9-0.5c1.4,0.3,2.8,0.9,3.2,1.3c0.4,0.4,1.2,4.6-3.6,8.6c-4.8,4-6.6,4-6.6,4
		s-0.5-2.1-2.1-1.3c-1.6,0.8-1.6,2.7-0.8,4c0.8,1.3,2.1,1.9,2.1,2.4c0,0.5-1.6,1.3-2.4,3.2c-0.8,1.9-0.8,7.2-0.8,7.2L7.8,114.7z"/>
	<path class="st0" d="M51.4,145.6c8.9,0,16.1-1.5,16.1-3.3c0-1.8-7.2-3.3-16.1-3.3c-8.9,0-16.1,1.5-16.1,3.3
		C35.3,144.1,42.5,145.6,51.4,145.6z"/>
	<path class="st5" d="M65.8,150.3c0,0,4,1,5.8-2.2s-5.2-2.4-5.2-2.4"/>
	<path class="st5" d="M37.3,149.7c0,0-4,1-5.8-2.2c-1.8-3.2,5.2-2.4,5.2-2.4"/>
	<path class="st2" d="M42.8,140.9v-28.3l1.4,0v28.3c0,0,2.9,0.8,2.9,2.9c0,2.1-0.3,7.7-3.2,7.4c-2.9-0.3-3.7-3.2-3.5-5.8
		C40.6,142.8,42.8,140.9,42.8,140.9z"/>
	<path class="st6" d="M35.4,142.3v9.7h32.1v-9.7c0,0-8.3,2.5-16.1,2.5C43.7,144.8,35.4,142.3,35.4,142.3z"/>
	<path class="st2" d="M38.1,123.2c0.3,0,1.1,1.6,2.1,1.9s2.6-0.3,2.9,0c0.3,0.3,0.5,4.5,1.6,4.5s3-3.4,2.7-6.1
		c-0.3-2.7-1.9-5.9-5.9-6.4s-26.8,6.6-26.8,6.6s2.1-5.3,2.1-5.8c0-0.5-2.9-1.3-4.5-1.6c-1.6-0.3-4.3-1.1-4.8-0.8
		c-0.5,0.3-7.4,15.4-5,18.6c2.4,3.2,5,2.9,12.5-0.5C22.4,130.1,38.1,123.2,38.1,123.2z"/>
</g>
</svg>
