<?xml version="1.0" encoding="UTF-8"?>
<svg xmlns="http://www.w3.org/2000/svg" xmlns:xlink="http://www.w3.org/1999/xlink" width="133px" height="150px" viewBox="0 0 133 149" version="1.1">
<g id="surface1">
<path style=" stroke:none;fill-rule:nonzero;fill:rgb(10.588235%,9.803922%,26.666668%);fill-opacity:1;" d="M 34.480469 0 L 98.519531 0 C 117.53125 0 133 15.390625 133 34.308594 L 133 114.691406 C 133 133.609375 117.53125 149 98.519531 149 L 34.480469 149 C 15.46875 149 0 133.609375 0 114.691406 L 0 34.308594 C 0 15.390625 15.46875 0 34.480469 0 Z M 34.480469 0 "/>
<path style=" stroke:none;fill-rule:nonzero;fill:rgb(10.588235%,9.803922%,26.666668%);fill-opacity:1;" d="M 34.480469 0 L 98.519531 0 C 117.53125 0 133 15.390625 133 34.308594 L 133 114.691406 C 133 133.609375 117.53125 149 98.519531 149 L 34.480469 149 C 15.46875 149 0 133.609375 0 114.691406 L 0 34.308594 C 0 15.390625 15.46875 0 34.480469 0 Z M 34.480469 0 "/>
<path style=" stroke:none;fill-rule:nonzero;fill:rgb(10.588235%,9.803922%,26.666668%);fill-opacity:1;" d="M 34.480469 0 L 98.519531 0 C 117.53125 0 133 15.390625 133 34.308594 L 133 114.691406 C 133 133.609375 117.53125 149 98.519531 149 L 34.480469 149 C 15.46875 149 0 133.609375 0 114.691406 L 0 34.308594 C 0 15.390625 15.46875 0 34.480469 0 Z M 34.480469 0 "/>
<path style=" stroke:none;fill-rule:nonzero;fill:rgb(10.588235%,9.803922%,26.666668%);fill-opacity:1;" d="M 34.480469 0 L 98.519531 0 C 117.53125 0 133 15.390625 133 34.308594 L 133 114.691406 C 133 133.609375 117.53125 149 98.519531 149 L 34.480469 149 C 15.46875 149 0 133.609375 0 114.691406 L 0 34.308594 C 0 15.390625 15.46875 0 34.480469 0 Z M 34.480469 0 "/>
<path style=" stroke:none;fill-rule:nonzero;fill:rgb(10.588235%,9.803922%,26.666668%);fill-opacity:1;" d="M 34.480469 0 L 98.519531 0 C 117.53125 0 133 15.390625 133 34.308594 L 133 114.691406 C 133 133.609375 117.53125 149 98.519531 149 L 34.480469 149 C 15.46875 149 0 133.609375 0 114.691406 L 0 34.308594 C 0 15.390625 15.46875 0 34.480469 0 Z M 34.480469 0 "/>
<path style=" stroke:none;fill-rule:nonzero;fill:rgb(41.568628%,40.784314%,80.784315%);fill-opacity:1;" d="M 45.417969 83.324219 C 45.417969 83.324219 45.710938 88.519531 46.992188 89.792969 C 48.273438 91.066406 50.441406 92.144531 50.144531 93.417969 C 49.851562 94.695312 49.851562 98.125 51.230469 98.910156 C 52.511719 99.691406 53.890625 100.183594 53.59375 101.554688 C 53.296875 102.828125 52.804688 103.90625 52.804688 103.90625 L 38.71875 99.496094 C 38.71875 99.496094 36.648438 97.144531 36.847656 93.222656 C 37.042969 89.300781 45.417969 83.324219 45.417969 83.324219 Z M 45.417969 83.324219 "/>
<path style=" stroke:none;fill-rule:nonzero;fill:rgb(100%,100%,100%);fill-opacity:1;" d="M 53.199219 117.632812 L 53.496094 140.765625 L 48.472656 140.765625 L 47.980469 116.847656 Z M 53.199219 117.632812 "/>
<path style=" stroke:none;fill-rule:nonzero;fill:rgb(98.823529%,76.862746%,84.313726%);fill-opacity:1;" d="M 43.742188 98.613281 C 40.785156 98.515625 39.113281 98.910156 38.816406 98.710938 C 38.519531 98.417969 38.226562 95.574219 38.226562 95.574219 C 38.226562 95.574219 35.664062 96.066406 33.890625 96.066406 C 32.117188 96.066406 29.160156 95.574219 29.160156 95.574219 L 28.867188 97.339844 C 28.867188 97.339844 26.992188 96.554688 26.207031 96.066406 C 25.417969 95.574219 19.40625 94.792969 15.171875 97.632812 C 10.9375 100.476562 6.007812 109.59375 5.714844 111.652344 C 5.417969 113.710938 8.570312 113.710938 11.921875 115.082031 C 15.171875 116.355469 18.027344 116.355469 18.027344 116.355469 L 19.703125 113.710938 C 19.703125 113.710938 18.914062 122.042969 18.421875 126.160156 C 18.128906 128.90625 15.46875 136.84375 13.695312 141.941406 C 19.507812 146.351562 26.699219 148.902344 34.480469 148.902344 L 41.773438 148.902344 L 48.765625 117.828125 C 48.765625 117.828125 50.636719 118.316406 52.214844 118.613281 C 53.792969 118.90625 54.085938 117.535156 54.085938 117.535156 C 54.085938 117.535156 54.085938 106.359375 53.296875 103.710938 C 52.511719 101.261719 46.699219 98.613281 43.742188 98.613281 Z M 43.742188 98.613281 "/>
<path style=" stroke:none;fill-rule:nonzero;fill:rgb(100%,100%,100%);fill-opacity:1;" d="M 91.226562 98.613281 C 91.226562 98.613281 91.722656 97.535156 89.355469 96.261719 C 86.992188 94.988281 82.753906 95.96875 79.011719 93.515625 C 75.269531 91.066406 73.199219 85.085938 72.902344 81.949219 C 72.609375 78.8125 73.988281 76.460938 74.777344 75.480469 C 75.5625 74.402344 91.523438 74.988281 94.378906 79.402344 C 97.238281 83.8125 98.027344 90.578125 98.617188 91.65625 C 99.109375 92.734375 99.898438 96.066406 99.898438 96.066406 Z M 91.226562 98.613281 "/>
<path style=" stroke:none;fill-rule:nonzero;fill:rgb(94.509804%,31.37255%,23.529412%);fill-opacity:1;" d="M 88.566406 83.324219 C 88.566406 83.324219 88.566406 81.265625 90.144531 81.265625 C 91.722656 81.265625 93.296875 82.832031 92.804688 85.183594 C 92.3125 87.539062 92.214844 88.222656 92.902344 88.8125 C 93.59375 89.398438 95.167969 88.910156 96.152344 89.597656 C 97.238281 90.378906 96.941406 91.65625 97.730469 91.65625 C 98.519531 91.65625 102.164062 89.597656 101.179688 81.753906 C 100.09375 73.910156 95.957031 69.011719 90.734375 68.226562 C 85.515625 67.441406 78.125 70.871094 76.054688 72.636719 C 73.988281 74.5 73.101562 76.265625 72.902344 77.046875 C 72.707031 77.832031 75.070312 81.558594 77.632812 82.539062 C 80.195312 83.519531 86.992188 84.597656 88.566406 83.324219 Z M 88.566406 83.324219 "/>
<path style=" stroke:none;fill-rule:nonzero;fill:rgb(41.568628%,40.784314%,80.784315%);fill-opacity:1;" d="M 130.734375 126.257812 C 129.945312 124.199219 118.125 101.75 116.84375 100.28125 C 115.5625 98.710938 109.550781 95.085938 107.679688 94.59375 C 105.808594 94.105469 101.671875 96.949219 100.785156 97.144531 C 99.898438 97.339844 100.390625 95.085938 100.390625 95.085938 L 90.441406 97.929688 L 90.734375 100.28125 C 90.734375 100.28125 86.5 100.574219 81.277344 103.613281 C 76.054688 106.75 76.84375 112.238281 77.335938 113.808594 C 77.730469 115.082031 83.25 138.902344 85.515625 149.097656 L 98.519531 149.097656 C 113.394531 149.097656 126.003906 139.785156 130.832031 126.648438 C 130.832031 126.453125 130.734375 126.355469 130.734375 126.257812 Z M 130.734375 126.257812 "/>
<path style=" stroke:none;fill-rule:nonzero;fill:rgb(100%,100%,100%);fill-opacity:1;" d="M 112.707031 106.945312 L 99.898438 109.496094 L 94.378906 121.75 C 94.378906 121.75 71.917969 106.359375 71.621094 105.574219 C 71.328125 104.789062 72.707031 100.867188 71.621094 99.988281 C 70.539062 99.105469 67.484375 104.203125 68.078125 108.023438 C 68.667969 111.847656 68.964844 112.140625 69.457031 113.121094 C 69.949219 114.199219 93.296875 138.707031 96.941406 138.609375 C 103.246094 138.609375 112.707031 106.945312 112.707031 106.945312 Z M 112.707031 106.945312 "/>
<path style=" stroke:none;fill-rule:nonzero;fill:rgb(98.823529%,76.862746%,84.313726%);fill-opacity:1;" d="M 76.054688 100.28125 L 58.617188 108.515625 C 58.324219 108.710938 57.929688 108.613281 57.730469 108.320312 C 57.535156 108.023438 57.632812 107.632812 57.929688 107.4375 L 75.367188 99.203125 C 75.367188 99.203125 75.957031 97.046875 77.632812 96.066406 C 79.308594 95.085938 82.363281 92.046875 83.542969 94.496094 C 84.726562 96.851562 82.855469 98.910156 80.6875 99.988281 C 78.519531 100.96875 76.054688 100.28125 76.054688 100.28125 Z M 76.054688 100.28125 "/>
<path style=" stroke:none;fill-rule:nonzero;fill:rgb(100%,100%,100%);fill-opacity:1;" d="M 43.152344 71.363281 C 44.824219 73.128906 48.273438 81.65625 45.910156 85.578125 C 43.546875 89.496094 39.898438 90.773438 39.113281 92.636719 C 38.324219 94.496094 38.027344 96.949219 38.027344 96.949219 L 28.667969 96.359375 C 28.667969 96.359375 26.304688 84.007812 28.667969 79.988281 C 31.035156 75.96875 43.152344 71.363281 43.152344 71.363281 Z M 43.152344 71.363281 "/>
<path style=" stroke:none;fill-rule:nonzero;fill:rgb(41.568628%,40.784314%,80.784315%);fill-opacity:1;" d="M 7.683594 112.4375 C 7.683594 112.4375 4.53125 113.710938 3.742188 111.160156 C 2.957031 108.515625 5.8125 107.242188 7.683594 103.613281 C 9.554688 99.988281 8.570312 95.871094 9.851562 93.027344 C 11.132812 90.085938 17.4375 89.890625 19.015625 85.183594 C 20.589844 80.480469 22.167969 71.753906 27.683594 69.695312 C 33.199219 67.636719 39.011719 68.914062 40.394531 69.207031 C 41.773438 69.5 43.152344 70.089844 43.546875 70.480469 C 43.9375 70.871094 44.726562 74.988281 40 78.910156 C 35.269531 82.832031 33.496094 82.832031 33.496094 82.832031 C 33.496094 82.832031 33.003906 80.773438 31.425781 81.558594 C 29.851562 82.34375 29.851562 84.203125 30.640625 85.480469 C 31.425781 86.753906 32.707031 87.339844 32.707031 87.832031 C 32.707031 88.320312 31.132812 89.105469 30.34375 90.96875 C 29.554688 92.832031 29.554688 98.027344 29.554688 98.027344 Z M 7.683594 112.4375 "/>
<path style=" stroke:none;fill-rule:nonzero;fill:rgb(10.588235%,9.803922%,26.666668%);fill-opacity:1;" d="M 50.636719 142.726562 C 59.40625 142.726562 66.5 141.257812 66.5 139.492188 C 66.5 137.726562 59.40625 136.257812 50.636719 136.257812 C 41.871094 136.257812 34.777344 137.726562 34.777344 139.492188 C 34.777344 141.257812 41.871094 142.726562 50.636719 142.726562 Z M 50.636719 142.726562 "/>
<path style="fill:none;stroke-width:2;stroke-linecap:butt;stroke-linejoin:miter;stroke:rgb(41.568628%,40.392157%,80.784315%);stroke-opacity:1;stroke-miterlimit:10;" d="M 65.799019 150.298448 C 65.799019 150.298448 69.799695 151.298658 71.5998 148.098784 C 73.399906 144.898909 66.401698 145.699874 66.401698 145.699874 " transform="matrix(0.985185,0,0,0.980263,0,0)"/>
<path style="fill:none;stroke-width:2;stroke-linecap:butt;stroke-linejoin:miter;stroke:rgb(41.568628%,40.392157%,80.784315%);stroke-opacity:1;stroke-miterlimit:10;" d="M 37.298667 149.700713 C 37.298667 149.700713 33.301956 150.700923 31.50185 147.501049 C 29.701745 144.301174 36.699953 145.098154 36.699953 145.098154 " transform="matrix(0.985185,0,0,0.980263,0,0)"/>
<path style=" stroke:none;fill-rule:nonzero;fill:rgb(100%,100%,100%);fill-opacity:1;" d="M 42.164062 138.117188 L 42.164062 110.378906 L 43.546875 110.378906 L 43.546875 138.117188 C 43.546875 138.117188 46.402344 138.902344 46.402344 140.960938 C 46.402344 143.019531 46.105469 148.511719 43.25 148.214844 C 40.394531 147.921875 39.605469 145.078125 39.800781 142.53125 C 40 139.980469 42.164062 138.117188 42.164062 138.117188 Z M 42.164062 138.117188 "/>
<path style=" stroke:none;fill-rule:nonzero;fill:rgb(41.568628%,40.392157%,80.784315%);fill-opacity:1;" d="M 34.875 139.492188 L 34.875 149 L 66.5 149 L 66.5 139.492188 C 66.5 139.492188 58.324219 141.941406 50.636719 141.941406 C 43.050781 141.941406 34.875 139.492188 34.875 139.492188 Z M 34.875 139.492188 "/>
<path style=" stroke:none;fill-rule:nonzero;fill:rgb(100%,100%,100%);fill-opacity:1;" d="M 37.535156 120.769531 C 37.832031 120.769531 38.621094 122.335938 39.605469 122.632812 C 40.589844 122.925781 42.164062 122.335938 42.460938 122.632812 C 42.757812 122.925781 42.953125 127.042969 44.039062 127.042969 C 45.121094 127.042969 46.992188 123.710938 46.699219 121.0625 C 46.402344 118.414062 44.824219 115.277344 40.886719 114.789062 C 36.945312 114.296875 14.480469 121.257812 14.480469 121.257812 C 14.480469 121.257812 16.550781 116.0625 16.550781 115.574219 C 16.550781 115.082031 13.695312 114.296875 12.117188 114.003906 C 10.542969 113.710938 7.882812 112.925781 7.390625 113.21875 C 6.894531 113.515625 0.0976562 128.316406 2.464844 131.453125 C 4.828125 134.589844 7.390625 134.296875 14.777344 130.964844 C 22.066406 127.53125 37.535156 120.769531 37.535156 120.769531 Z M 37.535156 120.769531 "/>
</g>
</svg>
