<?xml version="1.0" encoding="UTF-8"?>
<svg xmlns="http://www.w3.org/2000/svg" xmlns:xlink="http://www.w3.org/1999/xlink" width="133px" height="150px" viewBox="0 0 133 149" version="1.1">
<g id="surface1">
<path style=" stroke:none;fill-rule:nonzero;fill:rgb(10.588235%,9.803922%,26.666668%);fill-opacity:1;" d="M 34.480469 0 L 98.519531 0 C 117.53125 0 133 15.390625 133 34.308594 L 133 114.691406 C 133 133.609375 117.53125 149 98.519531 149 L 34.480469 149 C 15.46875 149 0 133.609375 0 114.691406 L 0 34.308594 C 0 15.390625 15.46875 0 34.480469 0 Z M 34.480469 0 "/>
<path style=" stroke:none;fill-rule:nonzero;fill:rgb(98.823529%,81.568629%,86.274511%);fill-opacity:1;" d="M 11.527344 138.117188 L 9.753906 136.257812 L 9.753906 64.5 L 11.625 62.640625 L 119.40625 62.640625 L 121.277344 64.5 L 121.277344 136.257812 L 119.40625 138.117188 Z M 11.527344 138.117188 "/>
<path style=" stroke:none;fill-rule:nonzero;fill:rgb(41.568628%,40.784314%,80.784315%);fill-opacity:1;" d="M 119.304688 64.5 L 119.304688 136.257812 L 11.527344 136.257812 L 11.527344 64.5 Z M 119.304688 60.777344 L 11.527344 60.777344 L 7.882812 64.5 L 7.882812 136.257812 L 11.625 139.980469 L 119.40625 139.980469 L 123.148438 136.257812 L 123.148438 64.5 Z M 119.304688 60.777344 "/>
<path style=" stroke:none;fill-rule:nonzero;fill:rgb(41.568628%,40.392157%,80.784315%);fill-opacity:1;" d="M 48.175781 83.125 C 48.175781 83.125 46.105469 99.105469 55.957031 109.003906 C 65.613281 118.613281 80.292969 121.257812 82.261719 118.710938 C 84.234375 116.160156 81.179688 109.003906 74.183594 102.828125 C 67.191406 96.851562 48.175781 83.125 48.175781 83.125 Z M 48.175781 83.125 "/>
<path style=" stroke:none;fill-rule:nonzero;fill:rgb(94.509804%,30.980393%,23.137255%);fill-opacity:1;" d="M 58.71875 100.28125 C 58.71875 100.28125 69.355469 88.320312 70.636719 87.046875 C 72.015625 85.675781 80.390625 79.304688 82.753906 81.65625 C 83.839844 82.734375 81.082031 91.359375 77.140625 95.28125 C 73.789062 98.613281 69.355469 100.574219 65.710938 100.867188 C 62.066406 101.164062 58.71875 100.28125 58.71875 100.28125 Z M 58.71875 100.28125 "/>
<path style=" stroke:none;fill-rule:nonzero;fill:rgb(100%,100%,100%);fill-opacity:1;" d="M 5.515625 133.316406 L 7.488281 121.160156 L 0.195312 117.828125 C 0.589844 123.414062 2.5625 128.707031 5.515625 133.316406 Z M 5.515625 133.316406 "/>
<path style=" stroke:none;fill-rule:nonzero;fill:rgb(100%,100%,100%);fill-opacity:1;" d="M 48.273438 135.179688 C 47.980469 129.886719 47.191406 119.984375 47.191406 119.984375 L 39.800781 124.691406 L 41.671875 149.097656 L 48.570312 149.097656 C 48.570312 144.292969 48.472656 138.117188 48.273438 135.179688 Z M 48.273438 135.179688 "/>
<path style=" stroke:none;fill-rule:nonzero;fill:rgb(100%,100%,100%);fill-opacity:1;" d="M 85.019531 135.179688 C 84.824219 138.21875 84.234375 144.292969 83.640625 149 L 90.835938 149 L 95.265625 121.160156 L 86.992188 117.335938 C 87.089844 117.335938 85.316406 129.886719 85.019531 135.179688 Z M 85.019531 135.179688 "/>
<path style=" stroke:none;fill-rule:nonzero;fill:rgb(41.568628%,40.784314%,80.784315%);fill-opacity:1;" d="M 41.871094 105.867188 C 40.6875 104.398438 37.4375 103.515625 36.550781 103.027344 C 35.664062 102.535156 23.941406 104.105469 20 104.105469 C 16.058594 104.105469 8.667969 101.75 4.828125 104.105469 C 2.660156 105.378906 1.082031 108.121094 0 110.378906 L 0 114.59375 C 0 116.257812 0.0976562 117.925781 0.394531 119.59375 C 0.589844 119.691406 0.886719 119.789062 0.984375 119.886719 C 2.464844 120.472656 6.894531 123.414062 6.894531 123.414062 C 6.894531 123.414062 6.109375 129.394531 5.617188 133.414062 C 11.722656 142.824219 22.363281 149 34.480469 149 L 39.605469 149 C 39.40625 145.863281 39.210938 142.136719 39.210938 139.199219 C 39.210938 133.023438 40.097656 125.769531 40.097656 125.769531 C 40.097656 125.769531 42.757812 124.886719 43.9375 124.296875 C 45.121094 123.710938 47.484375 122.238281 47.484375 122.238281 C 47.484375 122.238281 47.191406 119.296875 46.894531 117.535156 C 46.5 115.867188 43.050781 107.339844 41.871094 105.867188 Z M 41.871094 105.867188 "/>
<path style=" stroke:none;fill-rule:nonzero;fill:rgb(94.509804%,30.980393%,23.137255%);fill-opacity:1;" d="M 9.554688 127.238281 C 9.261719 126.0625 10.738281 124.296875 9.554688 116.160156 C 8.375 108.023438 4.53125 101.847656 7.78125 89.597656 C 11.035156 77.34375 18.324219 76.753906 21.574219 76.949219 C 24.828125 77.148438 31.820312 77.34375 34.1875 85.871094 C 36.550781 94.398438 38.027344 105.476562 36.847656 112.730469 C 35.664062 120.082031 33.988281 125.277344 34.777344 127.335938 C 34.777344 127.335938 33.101562 130.277344 24.234375 130.082031 C 15.367188 129.886719 9.554688 127.238281 9.554688 127.238281 Z M 9.554688 127.238281 "/>
<path style=" stroke:none;fill-rule:nonzero;fill:rgb(94.509804%,31.37255%,23.529412%);fill-opacity:1;" d="M 133 109.691406 C 131.523438 107.242188 129.550781 104.789062 127.382812 104.496094 C 123.246094 103.90625 123.050781 105.476562 120.785156 107.730469 C 118.519531 109.984375 114.085938 112.632812 110.339844 112.632812 C 106.5 112.632812 96.84375 104.398438 94.480469 104.984375 C 92.707031 105.476562 87.484375 115.769531 85.121094 120.671875 C 84.429688 122.042969 85.121094 123.609375 86.5 124.101562 C 88.863281 124.886719 93.492188 126.847656 94.480469 126.355469 C 95.070312 126.0625 96.152344 121.652344 96.152344 121.652344 C 96.152344 121.652344 93.691406 139.199219 93.691406 142.726562 C 93.691406 144.195312 93.691406 146.648438 93.691406 149 L 98.421875 149 C 110.832031 149 121.769531 142.433594 127.878906 132.628906 C 127.582031 124.394531 129.355469 122.632812 131.128906 121.160156 C 131.523438 120.867188 132.015625 120.472656 132.507812 120.179688 C 132.804688 118.414062 132.902344 116.652344 132.902344 114.789062 L 132.902344 109.691406 Z M 133 109.691406 "/>
<path style=" stroke:none;fill-rule:nonzero;fill:rgb(10.588235%,9.803922%,26.666668%);fill-opacity:1;" d="M 95.070312 78.128906 C 95.660156 76.949219 107.089844 68.816406 114.773438 75.773438 C 122.457031 82.832031 118.714844 85.96875 120.882812 89.792969 C 123.050781 93.613281 127.878906 98.613281 128.371094 101.164062 C 128.863281 103.808594 128.269531 106.164062 128.269531 106.164062 C 128.269531 106.164062 126.890625 105.574219 125.117188 106.164062 C 123.34375 106.75 116.84375 114.691406 111.425781 114.691406 C 106.007812 114.691406 99.207031 107.632812 96.648438 107.042969 C 93.988281 106.457031 91.328125 106.945312 91.328125 106.945312 C 91.328125 106.945312 90.144531 101.75 91.917969 93.910156 C 93.59375 86.066406 95.070312 78.128906 95.070312 78.128906 Z M 95.070312 78.128906 "/>
</g>
</svg>
