<?xml version="1.0" encoding="utf-8"?>
<!-- Generator: Adobe Illustrator 27.9.6, SVG Export Plug-In . SVG Version: 9.03 Build 54986)  -->
<svg version="1.1" id="Layer_1" xmlns="http://www.w3.org/2000/svg" xmlns:xlink="http://www.w3.org/1999/xlink" x="0px" y="0px"
	 viewBox="0 0 135 152" style="enable-background:new 0 0 135 152;" xml:space="preserve">
<style type="text/css">
	.st0{fill:#1B1944;}
	.st1{fill:none;}
	.st2{fill:#FCD0DC;}
	.st3{fill:#6A68CE;}
	.st4{fill:#6A67CE;}
	.st5{fill:#F14F3B;}
	.st6{fill:#FFFFFF;}
	.st7{fill:#F1503C;}
</style>
<g>
	<path class="st0" d="M35,0h65c19.3,0,35,15.7,35,35v82c0,19.3-15.7,35-35,35H35c-19.3,0-35-15.7-35-35V35C0,15.7,15.7,0,35,0z"/>
	<rect x="-5" y="62" class="st1" width="144.4" height="96.5"/>
	<path class="st2" d="M11.7,140.9L9.9,139V65.8l1.9-1.9h109.4l1.9,1.9V139l-1.9,1.9H11.7z"/>
	<path class="st3" d="M121.1,65.8V139H11.7V65.8h54.7H121.1z M121.1,62H11.7L8,65.8V139l3.8,3.8h109.4l3.8-3.8V65.8L121.1,62z"/>
	<path class="st4" d="M48.9,84.8c0,0-2.1,16.3,7.9,26.4c9.8,9.8,24.7,12.5,26.7,9.9c2-2.6-1.1-9.9-8.2-16.2
		C68.2,98.8,48.9,84.8,48.9,84.8z"/>
	<path class="st5" d="M59.6,102.3c0,0,10.8-12.2,12.1-13.5c1.4-1.4,9.9-7.9,12.3-5.5c1.1,1.1-1.7,9.9-5.7,13.9
		c-3.4,3.4-7.9,5.4-11.6,5.7C63,103.2,59.6,102.3,59.6,102.3L59.6,102.3z"/>
	<path class="st6" d="M5.6,136l2-12.4l-7.4-3.4C0.6,125.9,2.6,131.3,5.6,136z"/>
	<path class="st6" d="M49,137.9c-0.3-5.4-1.1-15.5-1.1-15.5l-7.5,4.8l1.9,24.9h7C49.3,147.2,49.2,140.9,49,137.9z"/>
	<path class="st6" d="M86.3,137.9c-0.2,3.1-0.8,9.3-1.4,14.1h7.3l4.5-28.4l-8.4-3.9C88.4,119.7,86.6,132.5,86.3,137.9z"/>
	<path class="st3" d="M42.5,108c-1.2-1.5-4.5-2.4-5.4-2.9c-0.9-0.5-12.8,1.1-16.8,1.1c-4,0-11.5-2.4-15.4,0
		c-2.2,1.3-3.8,4.1-4.9,6.4v4.3c0,1.7,0.1,3.4,0.4,5.1c0.2,0.1,0.5,0.2,0.6,0.3c1.5,0.6,6,3.6,6,3.6s-0.8,6.1-1.3,10.2
		c6.2,9.6,17,15.9,29.3,15.9h5.2c-0.2-3.2-0.4-7-0.4-10c0-6.3,0.9-13.7,0.9-13.7s2.7-0.9,3.9-1.5c1.2-0.6,3.6-2.1,3.6-2.1
		s-0.3-3-0.6-4.8C47.2,118.2,43.7,109.5,42.5,108z"/>
	<path class="st5" d="M9.7,129.8c-0.3-1.2,1.2-3,0-11.3c-1.2-8.3-5.1-14.6-1.8-27.1c3.3-12.5,10.7-13.1,14-12.9s10.4,0.4,12.8,9.1
		c2.4,8.7,3.9,20,2.7,27.4c-1.2,7.5-2.9,12.8-2.1,14.9c0,0-1.7,3-10.7,2.8S9.7,129.8,9.7,129.8z"/>
	<path class="st7" d="M135,111.9c-1.5-2.5-3.5-5-5.7-5.3c-4.2-0.6-4.4,1-6.7,3.3c-2.3,2.3-6.8,5-10.6,5c-3.9,0-13.7-8.4-16.1-7.8
		c-1.8,0.5-7.1,11-9.5,16l0,0c-0.7,1.4,0,3,1.4,3.5c2.4,0.8,7.1,2.8,8.1,2.3c0.6-0.3,1.7-4.8,1.7-4.8s-2.5,17.9-2.5,21.5
		c0,1.5,0,4,0,6.4h4.8c12.6,0,23.7-6.7,29.9-16.7c-0.3-8.4,1.5-10.2,3.3-11.7c0.4-0.3,0.9-0.7,1.4-1c0.3-1.8,0.4-3.6,0.4-5.5V111.9z
		"/>
	<path class="st0" d="M96.5,79.7c0.6-1.2,12.2-9.5,20-2.4c7.8,7.2,4,10.4,6.2,14.3c2.2,3.9,7.1,9,7.6,11.6c0.5,2.7-0.1,5.1-0.1,5.1
		s-1.4-0.6-3.2,0c-1.8,0.6-8.4,8.7-13.9,8.7c-5.5,0-12.4-7.2-15-7.8c-2.7-0.6-5.4-0.1-5.4-0.1s-1.2-5.3,0.6-13.3
		C95,87.8,96.5,79.7,96.5,79.7L96.5,79.7z"/>
</g>
</svg>
