<?xml version="1.0" encoding="UTF-8"?>
<svg xmlns="http://www.w3.org/2000/svg" xmlns:xlink="http://www.w3.org/1999/xlink" width="133px" height="150px" viewBox="0 0 133 149" version="1.1">
<g id="surface1">
<path style=" stroke:none;fill-rule:nonzero;fill:rgb(10.588235%,9.803922%,26.666668%);fill-opacity:1;" d="M 34.285156 -0.195312 L 98.320312 -0.195312 C 117.335938 -0.195312 132.804688 15.195312 132.804688 34.113281 L 132.804688 114.496094 C 132.804688 133.414062 117.335938 148.804688 98.320312 148.804688 L 34.285156 148.804688 C 15.269531 148.804688 -0.195312 133.414062 -0.195312 114.496094 L -0.195312 34.113281 C -0.195312 15.097656 15.269531 -0.195312 34.285156 -0.195312 Z M 34.285156 -0.195312 "/>
<path style=" stroke:none;fill-rule:nonzero;fill:rgb(94.509804%,31.37255%,23.529412%);fill-opacity:1;" d="M 68.175781 104.496094 C 67.386719 104.496094 66.5 104.203125 65.710938 103.808594 C 65.515625 103.710938 64.921875 103.417969 64.726562 103.320312 C 64.53125 103.222656 64.332031 103.125 64.136719 102.925781 C 63.9375 102.828125 63.644531 102.632812 63.542969 102.535156 C 63.347656 102.4375 62.855469 102.046875 62.65625 101.949219 C 62.265625 101.652344 61.769531 101.261719 61.378906 100.96875 C 61.082031 100.671875 60.492188 100.183594 60.195312 99.890625 C 59.800781 99.59375 59.011719 98.710938 58.617188 98.320312 C 56.648438 96.164062 54.875 93.910156 53.296875 91.457031 C 53.003906 91.066406 52.3125 90.085938 52.117188 89.597656 C 51.425781 88.417969 50.835938 87.242188 50.441406 85.96875 C 50.246094 85.183594 50.144531 84.402344 50.046875 83.617188 C 49.257812 78.128906 50.441406 72.34375 53.496094 67.636719 C 55.070312 65.285156 57.140625 63.128906 59.703125 61.855469 C 62.757812 60.285156 66.304688 60.285156 69.257812 61.855469 C 71.917969 63.226562 73.789062 65.480469 75.269531 67.933594 C 78.125 72.636719 80.390625 77.636719 81.671875 83.027344 C 82.460938 86.460938 82.855469 90.085938 82.460938 93.613281 C 82.460938 94.007812 82.363281 94.300781 82.261719 94.695312 C 81.574219 98.710938 75.761719 98.027344 75.957031 94.007812 C 76.550781 88.617188 77.535156 83.222656 79.308594 78.027344 C 80.488281 74.695312 81.96875 71.363281 84.332031 68.617188 C 86.992188 65.777344 90.539062 64.5 94.28125 65.675781 C 96.152344 66.167969 97.632812 67.539062 98.320312 69.304688 C 99.011719 70.972656 99.109375 72.832031 98.914062 74.5 C 98.714844 76.265625 98.421875 77.929688 97.925781 79.695312 C 95.265625 89.007812 90.734375 97.535156 86.300781 106.164062 C 86.007812 106.652344 85.808594 107.042969 85.515625 107.535156 C 85.019531 108.515625 84.628906 109.496094 83.9375 110.28125 C 80.589844 114.984375 77.042969 119.691406 73.296875 124.199219 C 71.917969 125.867188 70.636719 127.433594 69.160156 129.101562 C 70.835938 125.179688 74.972656 115.476562 76.550781 111.652344 L 77.730469 108.710938 C 78.125 107.828125 78.519531 106.652344 79.011719 105.867188 C 79.503906 104.984375 80.09375 104.105469 80.589844 103.125 C 82.066406 100.378906 83.445312 97.632812 84.824219 94.890625 C 87.679688 89.007812 90.539062 82.929688 92.015625 76.65625 C 92.3125 75.480469 92.507812 73.910156 92.507812 72.832031 C 92.507812 72.441406 92.410156 72.148438 92.410156 71.851562 L 92.410156 71.753906 C 92.410156 71.753906 92.410156 71.65625 92.410156 71.65625 C 92.410156 71.558594 92.410156 71.558594 92.410156 71.558594 C 92.410156 71.558594 92.507812 71.65625 92.507812 71.65625 C 92.410156 71.65625 92.3125 71.558594 92.214844 71.558594 C 92.113281 71.558594 92.015625 71.558594 91.917969 71.460938 C 91.820312 71.460938 91.722656 71.460938 91.722656 71.460938 C 90.046875 71.363281 88.765625 73.03125 87.878906 74.304688 C 86.792969 76.070312 85.90625 78.027344 85.21875 79.988281 C 84.234375 82.832031 83.542969 85.675781 83.050781 88.617188 C 82.753906 90.378906 82.460938 92.046875 82.261719 93.8125 C 82.261719 94.007812 82.164062 94.398438 82.164062 94.496094 L 75.957031 93.515625 C 75.957031 93.515625 75.957031 93.417969 75.957031 93.417969 C 76.054688 92.734375 76.15625 92.046875 76.15625 91.359375 C 76.253906 84.988281 74.085938 78.910156 71.03125 73.226562 C 70.441406 72.148438 69.75 70.972656 69.0625 69.992188 C 67.78125 68.03125 65.613281 66.167969 63.148438 66.953125 C 62.953125 66.953125 62.855469 67.050781 62.757812 67.050781 L 62.558594 67.148438 L 62.460938 67.148438 L 62.363281 67.246094 L 62.164062 67.636719 L 61.96875 67.734375 L 61.871094 67.835938 C 57.238281 70.871094 55.269531 77.929688 56.253906 83.125 C 56.351562 83.617188 56.449219 84.105469 56.648438 84.5 C 56.945312 85.480469 57.042969 86.460938 57.4375 87.441406 C 57.730469 88.222656 58.125 89.300781 58.421875 90.085938 C 58.519531 90.28125 58.914062 91.359375 59.011719 91.65625 C 60.492188 95.183594 62.164062 98.613281 64.53125 101.457031 C 64.628906 101.652344 64.824219 101.847656 65.023438 101.949219 C 65.21875 102.144531 65.316406 102.242188 65.515625 102.4375 L 66.007812 102.925781 L 66.105469 103.027344 C 66.105469 103.027344 66.203125 103.125 66.203125 103.125 L 66.5 103.320312 C 66.894531 103.808594 67.484375 104.203125 68.175781 104.496094 Z M 68.175781 104.496094 "/>
<path style=" stroke:none;fill-rule:nonzero;fill:rgb(22.352941%,14.509805%,17.254902%);fill-opacity:1;" d="M 85.613281 120.082031 L 82.953125 121.945312 L 64.136719 93.417969 L 66.796875 91.554688 Z M 85.613281 120.082031 "/>
<path style=" stroke:none;fill-rule:nonzero;fill:rgb(22.352941%,14.509805%,17.254902%);fill-opacity:1;" d="M 88.667969 95.574219 L 85.515625 94.988281 L 78.617188 128.511719 L 81.769531 129.101562 Z M 88.667969 95.574219 "/>
<path style=" stroke:none;fill-rule:nonzero;fill:rgb(100%,100%,100%);fill-opacity:1;" d="M 36.351562 122.828125 C 36.351562 122.828125 39.800781 136.746094 43.839844 137.921875 C 47.878906 139.097656 56.15625 128.511719 59.308594 123.710938 C 62.460938 118.90625 66.796875 112.339844 68.175781 112.042969 C 69.652344 111.75 77.335938 106.359375 76.648438 105.183594 C 74.382812 100.867188 67.683594 105.28125 65.910156 106.164062 C 64.136719 107.042969 47.191406 127.335938 47.191406 127.335938 L 45.417969 120.867188 Z M 36.351562 122.828125 "/>
<path style=" stroke:none;fill-rule:nonzero;fill:rgb(100%,100%,100%);fill-opacity:1;" d="M 101.671875 123.414062 L 94.480469 125.964844 L 93.886719 142.726562 C 93.886719 142.726562 85.019531 118.90625 84.921875 118.121094 C 84.824219 117.335938 85.515625 111.160156 84.921875 110.28125 C 84.332031 109.398438 79.308594 112.730469 79.601562 116.554688 C 79.996094 120.375 82.066406 124.886719 82.363281 125.964844 C 82.558594 126.648438 86.597656 140.472656 90.242188 148.902344 L 97.433594 148.902344 C 99.800781 139.6875 101.671875 123.414062 101.671875 123.414062 Z M 101.671875 123.414062 "/>
<path style=" stroke:none;fill-rule:nonzero;fill:rgb(100%,99.607843%,98.431373%);fill-opacity:1;" d="M 36.058594 81.164062 C 36.058594 81.164062 40.394531 81.164062 41.179688 82.539062 C 42.066406 83.910156 42.066406 93.613281 40.589844 94.988281 C 39.113281 96.359375 36.253906 98.125 33.988281 98.710938 C 31.722656 99.203125 30.246094 102.632812 30.246094 102.632812 L 22.757812 101.261719 C 22.757812 101.261719 24.726562 99.59375 24.433594 97.242188 C 24.136719 94.988281 22.757812 92.636719 22.757812 90.28125 C 22.855469 87.929688 36.058594 81.164062 36.058594 81.164062 Z M 36.058594 81.164062 "/>
<path style=" stroke:none;fill-rule:nonzero;fill:rgb(98.823529%,76.862746%,84.313726%);fill-opacity:1;" d="M 27.78125 76.558594 C 27.78125 76.558594 30.933594 73.128906 35.269531 74.890625 C 39.605469 76.558594 43.050781 78.617188 42.460938 81.949219 C 41.871094 85.382812 39.011719 87.242188 36.453125 87.734375 C 33.890625 88.222656 30.148438 87.734375 30.148438 87.734375 C 30.148438 87.734375 29.851562 85.675781 28.765625 86.164062 C 27.683594 86.65625 27.289062 88.910156 27.191406 90.476562 C 27.09375 92.046875 25.023438 95.28125 23.054688 94.300781 C 21.082031 93.222656 20.492188 85.578125 20.789062 83.910156 C 21.082031 82.242188 22.460938 79.402344 22.460938 79.402344 C 22.460938 79.402344 19.605469 78.8125 19.308594 76.558594 C 19.015625 74.304688 20.195312 72.34375 22.167969 71.753906 C 24.136719 71.167969 26.5 71.65625 27.191406 72.832031 C 27.78125 74.011719 27.78125 76.558594 27.78125 76.558594 Z M 27.78125 76.558594 "/>
<path style=" stroke:none;fill-rule:nonzero;fill:rgb(98.823529%,76.862746%,84.313726%);fill-opacity:1;" d="M 131.621094 117.535156 C 130.535156 116.257812 127.679688 115.476562 126.792969 115.082031 C 126.003906 114.691406 115.464844 115.964844 111.917969 115.964844 C 108.371094 115.964844 101.769531 113.90625 98.320312 115.964844 C 94.875 118.023438 94.378906 123.511719 93.886719 124.492188 C 93.394531 125.570312 93.101562 130.765625 93.101562 130.765625 C 93.101562 130.765625 94.183594 131.257812 95.464844 131.84375 C 96.746094 132.335938 100.191406 133.21875 100.191406 133.21875 C 100.191406 133.21875 99.109375 140.765625 98.914062 143.902344 C 98.8125 144.785156 98.421875 146.746094 97.828125 149 L 98.519531 149 C 115.957031 149 130.4375 136.058594 132.703125 119.296875 C 132.308594 118.515625 131.917969 117.828125 131.621094 117.535156 Z M 131.621094 117.535156 "/>
<path style=" stroke:none;fill-rule:nonzero;fill:rgb(94.509804%,31.37255%,23.529412%);fill-opacity:1;" d="M 102.558594 136.648438 C 102.261719 135.570312 103.640625 134.003906 102.558594 126.746094 C 101.472656 119.394531 98.027344 113.90625 100.980469 102.925781 C 103.9375 91.949219 110.539062 91.457031 113.394531 91.554688 C 116.351562 91.65625 122.65625 91.949219 124.722656 99.496094 C 126.792969 107.042969 128.171875 117.042969 127.089844 123.511719 C 126.003906 130.082031 124.527344 134.785156 125.316406 136.550781 C 125.316406 136.550781 123.835938 139.199219 115.859375 139 C 107.878906 139 102.558594 136.648438 102.558594 136.648438 Z M 102.558594 136.648438 "/>
<path style=" stroke:none;fill-rule:nonzero;fill:rgb(94.509804%,30.980393%,23.137255%);fill-opacity:1;" d="M 89.75 88.910156 C 89.847656 88.417969 88.960938 88.125 88.566406 88.519531 C 88.074219 88.910156 87.582031 89.398438 86.992188 89.792969 C 85.121094 91.066406 82.855469 94.203125 85.121094 95.28125 C 87.386719 96.359375 89.355469 97.046875 90.339844 94.59375 C 91.328125 92.144531 89.257812 91.066406 89.652344 89.398438 C 89.75 89.203125 89.75 89.105469 89.75 88.910156 Z M 89.75 88.910156 "/>
<path style=" stroke:none;fill-rule:nonzero;fill:rgb(94.509804%,30.980393%,23.137255%);fill-opacity:1;" d="M 60.785156 88.910156 L 64.136719 94.007812 L 67.386719 91.753906 L 63.9375 86.753906 L 63.644531 87.144531 L 62.953125 86.949219 L 63.148438 87.832031 L 62.558594 87.734375 L 62.460938 88.8125 L 61.476562 88.027344 L 62.757812 90.28125 L 61.277344 88.222656 Z M 60.785156 88.910156 "/>
<path style=" stroke:none;fill-rule:nonzero;fill:rgb(41.568628%,40.784314%,80.784315%);fill-opacity:1;" d="M 37.632812 103.125 C 34.875 101.261719 31.230469 103.125 31.230469 103.125 L 31.230469 101.75 L 24.039062 99.59375 C 24.039062 99.59375 20.292969 99.300781 18.816406 98.910156 C 17.339844 98.515625 12.609375 99.300781 11.921875 99.59375 C 11.230469 99.890625 10.542969 106.945312 9.65625 107.242188 C 8.769531 107.535156 7.980469 106.066406 7.980469 106.066406 C 7.980469 106.066406 5.417969 119.59375 3.546875 129.785156 C 8.867188 140.570312 19.703125 148.117188 32.3125 148.902344 C 33.199219 138.707031 33.59375 117.730469 33.59375 117.730469 C 33.59375 117.730469 35.074219 123.414062 35.761719 124.296875 C 36.453125 125.179688 47.09375 122.828125 47.386719 121.75 C 47.585938 120.574219 40.394531 104.984375 37.632812 103.125 Z M 37.632812 103.125 "/>
<path style=" stroke:none;fill-rule:nonzero;fill:rgb(100%,100%,100%);fill-opacity:1;" d="M 23.742188 76.265625 C 24.039062 75.675781 25.222656 74.011719 25.222656 73.421875 C 25.222656 72.832031 24.335938 72.050781 24.335938 72.050781 C 24.335938 72.050781 20.886719 75.773438 20.589844 76.558594 C 20.292969 77.441406 20.886719 79.695312 20.886719 79.695312 C 20.886719 79.695312 6.796875 86.261719 0 91.066406 L 0 101.066406 C 0.296875 101.261719 0.589844 101.457031 0.789062 101.554688 C 2.757812 102.925781 9.65625 107.242188 9.65625 107.242188 C 9.65625 107.242188 10.542969 106.652344 11.625 103.808594 C 12.808594 100.96875 12.214844 99.007812 10.441406 98.125 L 5.8125 95.871094 C 5.8125 95.871094 14.679688 89.890625 16.75 89.007812 C 18.71875 88.125 24.828125 84.792969 25.320312 83.324219 C 25.910156 81.949219 25.023438 78.8125 24.726562 78.519531 C 24.628906 78.324219 23.449219 76.851562 23.742188 76.265625 Z M 23.742188 76.265625 "/>
</g>
</svg>
