<?xml version="1.0" encoding="utf-8"?>
<!-- Generator: Adobe Illustrator 27.9.6, SVG Export Plug-In . SVG Version: 9.03 Build 54986)  -->
<svg version="1.1" id="Layer_1" xmlns="http://www.w3.org/2000/svg" xmlns:xlink="http://www.w3.org/1999/xlink" x="0px" y="0px"
	 viewBox="0 0 135 152" style="enable-background:new 0 0 135 152;" xml:space="preserve">
<style type="text/css">
	.st0{fill:#1B1944;}
	.st1{fill:#F1503C;}
	.st2{fill:#39252C;}
	.st3{fill:#FFFFFF;}
	.st4{fill:#FFFEFB;}
	.st5{fill:#FCC4D7;}
	.st6{fill:#F14F3B;}
	.st7{fill:#6A68CE;}
</style>
<g>
	<path class="st0" d="M34.8-0.2h65c19.3,0,35,15.7,35,35v82c0,19.3-15.7,35-35,35h-65c-19.3,0-35-15.7-35-35v-82
		C-0.2,15.4,15.5-0.2,34.8-0.2z"/>
	<path class="st1" d="M69.2,106.6c-0.8,0-1.7-0.3-2.5-0.7c-0.2-0.1-0.8-0.4-1-0.5c-0.2-0.1-0.4-0.2-0.6-0.4
		c-0.2-0.1-0.5-0.3-0.6-0.4c-0.2-0.1-0.7-0.5-0.9-0.6c-0.4-0.3-0.9-0.7-1.3-1c-0.3-0.3-0.9-0.8-1.2-1.1c-0.4-0.3-1.2-1.2-1.6-1.6
		c-2-2.2-3.8-4.5-5.4-7c-0.3-0.4-1-1.4-1.2-1.9c-0.7-1.2-1.3-2.4-1.7-3.7c-0.2-0.8-0.3-1.6-0.4-2.4c-0.8-5.6,0.4-11.5,3.5-16.3
		c1.6-2.4,3.7-4.6,6.3-5.9c3.1-1.6,6.7-1.6,9.7,0c2.7,1.4,4.6,3.7,6.1,6.2c2.9,4.8,5.2,9.9,6.5,15.4c0.8,3.5,1.2,7.2,0.8,10.8
		c0,0.4-0.1,0.7-0.2,1.1c-0.7,4.1-6.6,3.4-6.4-0.7c0.6-5.5,1.6-11,3.4-16.3c1.2-3.4,2.7-6.8,5.1-9.6c2.7-2.9,6.3-4.2,10.1-3
		c1.9,0.5,3.4,1.9,4.1,3.7c0.7,1.7,0.8,3.6,0.6,5.3c-0.2,1.8-0.5,3.5-1,5.3c-2.7,9.5-7.3,18.2-11.8,27c-0.3,0.5-0.5,0.9-0.8,1.4
		c-0.5,1-0.9,2-1.6,2.8c-3.4,4.8-7,9.6-10.8,14.2c-1.4,1.7-2.7,3.3-4.2,5c1.7-4,5.9-13.9,7.5-17.8l1.2-3c0.4-0.9,0.8-2.1,1.3-2.9
		c0.5-0.9,1.1-1.8,1.6-2.8c1.5-2.8,2.9-5.6,4.3-8.4c2.9-6,5.8-12.2,7.3-18.6c0.3-1.2,0.5-2.8,0.5-3.9c0-0.4-0.1-0.7-0.1-1l0-0.1
		c0,0,0-0.1,0-0.1c0-0.1,0-0.1,0-0.1c0,0,0.1,0.1,0.1,0.1c0,0,0,0,0,0c-0.1,0-0.2-0.1-0.3-0.1c-0.1,0-0.2,0-0.3-0.1
		c-0.1,0-0.2,0-0.2,0c-1.7-0.1-3,1.6-3.9,2.9c-1.1,1.8-2,3.8-2.7,5.8c-1,2.9-1.7,5.8-2.2,8.8c-0.3,1.8-0.6,3.5-0.8,5.3
		c0,0.2-0.1,0.6-0.1,0.7l-6.3-1l0,0c0,0,0,0,0,0c0,0,0-0.1,0-0.1c0.1-0.7,0.2-1.4,0.2-2.1c0.1-6.5-2.1-12.7-5.2-18.5
		c-0.6-1.1-1.3-2.3-2-3.3c-1.3-2-3.5-3.9-6-3.1c-0.2,0-0.3,0.1-0.4,0.1l-0.2,0.1l-0.1,0l-0.1,0.1L63.1,69l-0.2,0.1l-0.1,0.1
		c-4.7,3.1-6.7,10.3-5.7,15.6c0.1,0.5,0.2,1,0.4,1.4c0.3,1,0.4,2,0.8,3c0.3,0.8,0.7,1.9,1,2.7c0.1,0.2,0.5,1.3,0.6,1.6
		c1.5,3.6,3.2,7.1,5.6,10c0.1,0.2,0.3,0.4,0.5,0.5c0.2,0.2,0.3,0.3,0.5,0.5l0.5,0.5l0.1,0.1c0,0,0.1,0.1,0.1,0.1l0.3,0.2
		C67.9,105.9,68.5,106.3,69.2,106.6L69.2,106.6z"/>
	<path class="st2" d="M86.9,122.5l-2.7,1.9L65.1,95.3l2.7-1.9L86.9,122.5z"/>
	<path class="st2" d="M90,97.5l-3.2-0.6l-7,34.2l3.2,0.6L90,97.5z"/>
	<path class="st3" d="M36.9,125.3c0,0,3.5,14.2,7.6,15.4c4.1,1.2,12.5-9.6,15.7-14.5c3.2-4.9,7.6-11.6,9-11.9c1.5-0.3,9.3-5.8,8.6-7
		c-2.3-4.4-9.1,0.1-10.9,1c-1.8,0.9-19,21.6-19,21.6l-1.8-6.6L36.9,125.3L36.9,125.3z"/>
	<path class="st3" d="M103.2,125.9l-7.3,2.6l-0.6,17.1c0,0-9-24.3-9.1-25.1c-0.1-0.8,0.6-7.1,0-8c-0.6-0.9-5.7,2.5-5.4,6.4
		c0.4,3.9,2.5,8.5,2.8,9.6c0.2,0.7,4.3,14.8,8,23.4h7.3C101.3,142.5,103.2,125.9,103.2,125.9z"/>
	<path class="st4" d="M36.6,82.8c0,0,4.4,0,5.2,1.4c0.9,1.4,0.9,11.3-0.6,12.7c-1.5,1.4-4.4,3.2-6.7,3.8c-2.3,0.5-3.8,4-3.8,4
		l-7.6-1.4c0,0,2-1.7,1.7-4.1c-0.3-2.3-1.7-4.7-1.7-7.1C23.2,89.7,36.6,82.8,36.6,82.8L36.6,82.8z"/>
	<path class="st5" d="M28.2,78.1c0,0,3.2-3.5,7.6-1.7c4.4,1.7,7.9,3.8,7.3,7.2c-0.6,3.5-3.5,5.4-6.1,5.9c-2.6,0.5-6.4,0-6.4,0
		s-0.3-2.1-1.4-1.6s-1.5,2.8-1.6,4.4c-0.1,1.6-2.2,4.9-4.2,3.9c-2-1.1-2.6-8.9-2.3-10.6c0.3-1.7,1.7-4.6,1.7-4.6s-2.9-0.6-3.2-2.9
		c-0.3-2.3,0.9-4.3,2.9-4.9c2-0.6,4.4-0.1,5.1,1.1C28.2,75.5,28.2,78.1,28.2,78.1z"/>
	<path class="st5" d="M133.6,119.9c-1.1-1.3-4-2.1-4.9-2.5c-0.8-0.4-11.5,0.9-15.1,0.9s-10.3-2.1-13.8,0c-3.5,2.1-4,7.7-4.5,8.7
		c-0.5,1.1-0.8,6.4-0.8,6.4s1.1,0.5,2.4,1.1c1.3,0.5,4.8,1.4,4.8,1.4s-1.1,7.7-1.3,10.9c-0.1,0.9-0.5,2.9-1.1,5.2h0.7
		c17.7,0,32.4-13.2,34.7-30.3C134.3,120.9,133.9,120.2,133.6,119.9z"/>
	<path class="st1" d="M104.1,139.4c-0.3-1.1,1.1-2.7,0-10.1c-1.1-7.5-4.6-13.1-1.6-24.3c3-11.2,9.7-11.7,12.6-11.6
		c3,0.1,9.4,0.4,11.5,8.1c2.1,7.7,3.5,17.9,2.4,24.5c-1.1,6.7-2.6,11.5-1.8,13.3c0,0-1.5,2.7-9.6,2.5
		C109.5,141.8,104.1,139.4,104.1,139.4L104.1,139.4z"/>
	<path class="st6" d="M91.1,90.7c0.1-0.5-0.8-0.8-1.2-0.4c-0.5,0.4-1,0.9-1.6,1.3c-1.9,1.3-4.2,4.5-1.9,5.6c2.3,1.1,4.3,1.8,5.3-0.7
		c1-2.5-1.1-3.6-0.7-5.3C91.1,91,91.1,90.9,91.1,90.7L91.1,90.7z"/>
	<path class="st6" d="M61.7,90.7l3.4,5.2l3.3-2.3l-3.5-5.1l-0.3,0.4l-0.7-0.2l0.2,0.9l-0.6-0.1l-0.1,1.1l-1-0.8l1.3,2.3l-1.5-2.1
		L61.7,90.7z"/>
	<path class="st7" d="M38.2,105.2c-2.8-1.9-6.5,0-6.5,0v-1.4l-7.3-2.2c0,0-3.8-0.3-5.3-0.7c-1.5-0.4-6.3,0.4-7,0.7
		c-0.7,0.3-1.4,7.5-2.3,7.8c-0.9,0.3-1.7-1.2-1.7-1.2s-2.6,13.8-4.5,24.2c5.4,11,16.4,18.7,29.2,19.5c0.9-10.4,1.3-31.8,1.3-31.8
		s1.5,5.8,2.2,6.7c0.7,0.9,11.5-1.5,11.8-2.6C48.3,123,41,107.1,38.2,105.2z"/>
	<g>
		<polygon class="st3" points="24.7,73.5 24.7,73.5 24.7,73.5 		"/>
		<path class="st3" d="M24.1,77.8c0.3-0.6,1.5-2.3,1.5-2.9c0-0.6-0.9-1.4-0.9-1.4c0,0-3.5,3.8-3.8,4.6c-0.3,0.9,0.3,3.2,0.3,3.2
			S6.9,88,0,92.9v10.2c0.3,0.2,0.6,0.4,0.8,0.5c2,1.4,9,5.8,9,5.8s0.9-0.6,2-3.5c1.2-2.9,0.6-4.9-1.2-5.8l-4.7-2.3c0,0,9-6.1,11.1-7
			c2-0.9,8.2-4.3,8.7-5.8c0.6-1.4-0.3-4.6-0.6-4.9C25,79.9,23.8,78.4,24.1,77.8z"/>
	</g>
</g>
</svg>
