<?xml version="1.0" encoding="UTF-8"?>
<svg xmlns="http://www.w3.org/2000/svg" xmlns:xlink="http://www.w3.org/1999/xlink" width="133px" height="150px" viewBox="0 0 133 149" version="1.1">
<g id="surface1">
<path style=" stroke:none;fill-rule:nonzero;fill:rgb(98.823529%,76.862746%,84.313726%);fill-opacity:1;" d="M 34.480469 0 L 98.519531 0 C 117.53125 0 133 15.390625 133 34.308594 L 133 114.691406 C 133 133.609375 117.53125 149 98.519531 149 L 34.480469 149 C 15.46875 149 0 133.609375 0 114.691406 L 0 34.308594 C 0 15.390625 15.46875 0 34.480469 0 Z M 34.480469 0 "/>
<path style=" stroke:none;fill-rule:nonzero;fill:rgb(10.588235%,9.803922%,26.666668%);fill-opacity:1;" d="M 71.328125 93.417969 C 62.460938 93.417969 53.691406 93.417969 44.824219 93.417969 C 43.546875 93.417969 43.347656 93.222656 43.347656 91.949219 C 43.347656 78.910156 43.347656 65.777344 43.347656 52.738281 C 43.347656 51.464844 43.546875 51.269531 44.824219 51.269531 C 49.457031 51.269531 54.183594 51.269531 58.816406 51.269531 C 59.210938 51.269531 59.703125 51.167969 60.097656 50.972656 C 63.644531 49.109375 67.089844 47.25 70.636719 45.289062 C 71.230469 44.992188 71.722656 44.992188 72.3125 45.289062 C 75.859375 47.25 79.40625 49.109375 82.953125 50.972656 C 83.25 51.167969 83.640625 51.269531 84.035156 51.269531 C 88.765625 51.269531 93.492188 51.269531 98.222656 51.269531 C 99.308594 51.269531 99.601562 51.5625 99.601562 52.640625 C 99.601562 65.777344 99.601562 78.910156 99.601562 92.046875 C 99.601562 93.125 99.308594 93.417969 98.222656 93.417969 C 89.0625 93.417969 80.195312 93.417969 71.328125 93.417969 Z M 73.296875 77.636719 C 73.496094 77.441406 73.691406 77.34375 73.890625 77.246094 C 77.042969 74.695312 80.195312 72.148438 83.445312 69.597656 C 84.136719 69.011719 84.234375 69.109375 84.921875 69.695312 C 87.089844 71.65625 89.355469 73.617188 91.523438 75.675781 C 91.722656 75.773438 91.820312 75.96875 92.113281 76.167969 C 92.113281 75.871094 92.113281 75.773438 92.113281 75.578125 C 92.113281 70.1875 92.113281 64.699219 92.113281 59.304688 C 92.113281 58.816406 91.917969 58.71875 91.425781 58.71875 C 78.027344 58.71875 64.726562 58.71875 51.328125 58.71875 C 50.835938 58.71875 50.636719 58.816406 50.636719 59.402344 C 50.636719 65.972656 50.636719 72.539062 50.636719 79.007812 C 50.636719 79.207031 50.636719 79.304688 50.738281 79.597656 C 50.933594 79.5 51.132812 79.402344 51.230469 79.304688 C 55.664062 76.460938 59.996094 73.617188 64.429688 70.773438 C 65.21875 70.285156 65.316406 70.285156 66.007812 70.871094 C 68.371094 72.929688 70.835938 75.285156 73.296875 77.636719 Z M 92.015625 86.164062 C 92.015625 85.96875 92.015625 85.96875 92.015625 85.871094 C 92.015625 83.324219 92.015625 80.675781 92.015625 78.128906 C 92.015625 77.929688 91.820312 77.636719 91.722656 77.441406 C 89.355469 75.285156 86.992188 73.128906 84.628906 70.972656 C 84.234375 70.578125 84.035156 70.675781 83.640625 70.972656 C 80.589844 73.421875 77.4375 75.96875 74.382812 78.421875 C 73.691406 79.007812 73.003906 78.910156 72.410156 78.324219 C 70.144531 76.167969 67.878906 74.011719 65.613281 71.851562 C 65.316406 71.558594 65.121094 71.558594 64.824219 71.753906 C 60.292969 74.695312 55.761719 77.636719 51.230469 80.578125 C 50.933594 80.773438 50.738281 80.96875 50.738281 81.363281 C 50.738281 82.734375 50.738281 84.105469 50.738281 85.480469 C 50.738281 85.675781 50.738281 85.773438 50.738281 85.96875 L 92.015625 85.96875 Z M 96.746094 53.226562 L 46.007812 53.226562 C 46.207031 53.425781 46.304688 53.621094 46.5 53.71875 C 47.484375 54.699219 48.472656 55.679688 49.554688 56.660156 C 49.75 56.855469 50.144531 57.050781 50.441406 57.050781 C 64.429688 57.050781 78.421875 57.050781 92.410156 57.050781 C 92.707031 57.050781 93.101562 56.855469 93.296875 56.660156 C 94.378906 55.679688 95.367188 54.699219 96.351562 53.621094 C 96.449219 53.523438 96.546875 53.425781 96.746094 53.226562 Z M 96.648438 91.554688 C 96.546875 91.359375 96.449219 91.261719 96.351562 91.261719 C 95.265625 90.183594 94.183594 89.105469 93.101562 88.027344 C 92.902344 87.832031 92.605469 87.734375 92.410156 87.734375 C 78.320312 87.734375 64.332031 87.734375 50.246094 87.734375 C 49.949219 87.734375 49.652344 87.929688 49.457031 88.125 C 48.667969 88.8125 47.980469 89.597656 47.191406 90.378906 C 46.796875 90.773438 46.402344 91.066406 46.007812 91.359375 C 46.105469 91.457031 46.105469 91.457031 46.207031 91.554688 Z M 45.21875 90.871094 C 46.597656 89.496094 47.78125 88.320312 48.964844 87.144531 C 49.0625 87.046875 49.160156 86.753906 49.160156 86.558594 C 49.160156 77.148438 49.160156 67.636719 49.160156 58.226562 C 49.160156 57.933594 49.0625 57.640625 48.863281 57.445312 C 47.878906 56.363281 46.796875 55.285156 45.710938 54.304688 C 45.613281 54.207031 45.515625 54.109375 45.320312 54.011719 Z M 97.433594 54.011719 C 97.335938 54.011719 97.238281 54.109375 97.238281 54.109375 C 96.054688 55.285156 94.875 56.363281 93.789062 57.542969 C 93.691406 57.640625 93.59375 57.933594 93.59375 58.226562 C 93.59375 67.734375 93.59375 77.148438 93.59375 86.65625 C 93.59375 86.949219 93.691406 87.242188 93.886719 87.441406 C 94.875 88.519531 95.957031 89.597656 97.039062 90.578125 C 97.140625 90.675781 97.238281 90.773438 97.433594 90.871094 Z M 80.488281 51.269531 C 80.292969 51.070312 80.09375 50.972656 79.996094 50.972656 C 77.238281 49.503906 74.480469 48.03125 71.722656 46.5625 C 71.523438 46.464844 71.128906 46.464844 70.933594 46.5625 C 68.273438 48.03125 65.515625 49.40625 62.855469 50.875 C 62.65625 50.972656 62.558594 51.070312 62.265625 51.269531 Z M 80.488281 51.269531 "/>
<path style=" stroke:none;fill-rule:nonzero;fill:rgb(100%,100%,100%);fill-opacity:1;" d="M 73.296875 77.636719 C 70.835938 75.285156 68.371094 73.03125 65.910156 70.675781 C 65.21875 70.089844 65.121094 70.089844 64.332031 70.578125 C 59.898438 73.421875 55.5625 76.265625 51.132812 79.105469 C 50.933594 79.207031 50.835938 79.304688 50.636719 79.402344 C 50.636719 79.207031 50.539062 79.007812 50.539062 78.8125 C 50.539062 72.246094 50.539062 65.675781 50.539062 59.207031 C 50.539062 58.621094 50.738281 58.523438 51.230469 58.523438 C 64.628906 58.523438 77.929688 58.523438 91.328125 58.523438 C 91.820312 58.523438 92.015625 58.621094 92.015625 59.109375 C 92.015625 64.5 92.015625 69.992188 92.015625 75.382812 C 92.015625 75.578125 92.015625 75.675781 92.015625 75.96875 C 91.820312 75.773438 91.621094 75.675781 91.425781 75.480469 C 89.257812 73.519531 86.992188 71.558594 84.824219 69.5 C 84.136719 68.914062 84.035156 68.914062 83.347656 69.402344 C 80.195312 71.953125 77.042969 74.5 73.789062 77.046875 C 73.691406 77.34375 73.496094 77.441406 73.296875 77.636719 Z M 73.890625 71.363281 C 76.15625 71.363281 78.027344 69.5 78.027344 67.34375 C 78.027344 65.089844 76.15625 63.226562 73.890625 63.226562 C 71.621094 63.226562 69.75 65.089844 69.75 67.34375 C 69.851562 69.5 71.621094 71.363281 73.890625 71.363281 Z M 73.890625 71.363281 "/>
<path style=" stroke:none;fill-rule:nonzero;fill:rgb(41.568628%,40.784314%,80.784315%);fill-opacity:1;" d="M 92.015625 86.164062 L 50.636719 86.164062 C 50.636719 85.96875 50.636719 85.773438 50.636719 85.675781 C 50.636719 84.300781 50.636719 82.929688 50.636719 81.558594 C 50.636719 81.164062 50.738281 80.96875 51.132812 80.773438 C 55.664062 77.832031 60.195312 74.890625 64.726562 71.953125 C 65.023438 71.753906 65.21875 71.753906 65.515625 72.050781 C 67.78125 74.207031 70.046875 76.363281 72.3125 78.519531 C 73.003906 79.105469 73.59375 79.207031 74.28125 78.617188 C 77.335938 76.167969 80.488281 73.617188 83.542969 71.167969 C 83.9375 70.871094 84.136719 70.871094 84.527344 71.167969 C 86.894531 73.324219 89.257812 75.480469 91.621094 77.636719 C 91.820312 77.832031 91.917969 78.027344 91.917969 78.324219 C 91.917969 80.871094 91.917969 83.519531 91.917969 86.066406 C 92.015625 85.96875 92.015625 85.96875 92.015625 86.164062 Z M 92.015625 86.164062 "/>
<path style=" stroke:none;fill-rule:nonzero;fill:rgb(100%,100%,100%);fill-opacity:1;" d="M 96.746094 53.226562 C 96.546875 53.425781 96.449219 53.523438 96.351562 53.71875 C 95.367188 54.699219 94.378906 55.777344 93.296875 56.757812 C 93.101562 56.953125 92.707031 57.148438 92.410156 57.148438 C 78.421875 57.148438 64.429688 57.148438 50.441406 57.148438 C 50.144531 57.148438 49.75 56.953125 49.554688 56.757812 C 48.570312 55.777344 47.585938 54.796875 46.5 53.816406 C 46.402344 53.71875 46.207031 53.523438 46.007812 53.328125 L 96.746094 53.328125 Z M 96.746094 53.226562 "/>
<path style=" stroke:none;fill-rule:nonzero;fill:rgb(100%,100%,100%);fill-opacity:1;" d="M 96.648438 91.554688 L 46.105469 91.554688 C 46.007812 91.457031 46.007812 91.457031 45.910156 91.359375 C 46.304688 91.066406 46.796875 90.675781 47.09375 90.378906 C 47.878906 89.597656 48.570312 88.8125 49.359375 88.125 C 49.554688 87.929688 49.949219 87.734375 50.144531 87.734375 C 64.234375 87.734375 78.222656 87.734375 92.3125 87.734375 C 92.605469 87.734375 92.902344 87.832031 93 88.027344 C 94.085938 89.105469 95.167969 90.183594 96.253906 91.261719 C 96.449219 91.261719 96.546875 91.359375 96.648438 91.554688 Z M 96.648438 91.554688 "/>
<path style=" stroke:none;fill-rule:nonzero;fill:rgb(100%,100%,100%);fill-opacity:1;" d="M 45.21875 90.871094 L 45.21875 53.914062 C 45.417969 54.011719 45.515625 54.109375 45.613281 54.207031 C 46.699219 55.285156 47.78125 56.265625 48.765625 57.34375 C 48.964844 57.542969 49.0625 57.835938 49.0625 58.128906 C 49.0625 67.539062 49.0625 77.046875 49.0625 86.460938 C 49.0625 86.65625 49.0625 86.949219 48.863281 87.046875 C 47.78125 88.320312 46.597656 89.597656 45.21875 90.871094 Z M 45.21875 90.871094 "/>
<path style=" stroke:none;fill-rule:nonzero;fill:rgb(100%,100%,100%);fill-opacity:1;" d="M 97.433594 54.011719 L 97.433594 90.773438 C 97.238281 90.675781 97.140625 90.578125 97.039062 90.476562 C 95.957031 89.398438 94.875 88.417969 93.886719 87.339844 C 93.691406 87.144531 93.59375 86.851562 93.59375 86.558594 C 93.59375 77.046875 93.59375 67.636719 93.59375 58.128906 C 93.59375 57.933594 93.691406 57.640625 93.789062 57.445312 C 94.972656 56.265625 96.054688 55.089844 97.238281 54.011719 C 97.238281 54.011719 97.335938 54.011719 97.433594 54.011719 Z M 97.433594 54.011719 "/>
<path style=" stroke:none;fill-rule:nonzero;fill:rgb(10.588235%,9.803922%,26.666668%);fill-opacity:1;" d="M 73.890625 71.363281 C 71.621094 71.363281 69.75 69.597656 69.75 67.34375 C 69.75 65.089844 71.621094 63.226562 73.890625 63.226562 C 76.15625 63.226562 78.027344 65.089844 78.027344 67.34375 C 78.027344 69.5 76.15625 71.363281 73.890625 71.363281 Z M 76.746094 67.246094 C 76.746094 65.675781 75.464844 64.402344 73.890625 64.402344 C 72.3125 64.402344 70.933594 65.675781 70.933594 67.246094 C 70.933594 68.816406 72.214844 70.089844 73.789062 70.089844 C 75.464844 70.089844 76.746094 68.816406 76.746094 67.246094 Z M 76.746094 67.246094 "/>
<path style=" stroke:none;fill-rule:nonzero;fill:rgb(94.509804%,31.37255%,23.529412%);fill-opacity:1;" d="M 76.746094 67.246094 C 76.746094 68.816406 75.464844 70.089844 73.890625 70.089844 C 72.3125 70.089844 71.03125 68.816406 71.03125 67.246094 C 71.03125 65.675781 72.3125 64.402344 73.988281 64.402344 C 75.5625 64.402344 76.84375 65.675781 76.746094 67.246094 Z M 76.746094 67.246094 "/>
<path style=" stroke:none;fill-rule:nonzero;fill:rgb(100%,100%,100%);fill-opacity:1;" d="M 94.578125 134.199219 C 94.378906 137.433594 93.691406 144.394531 93.101562 149 L 98.519531 149 C 98.914062 149 99.40625 149 99.800781 149 L 104.234375 120.769531 L 96.449219 117.140625 C 96.546875 117.042969 94.875 129.101562 94.578125 134.199219 Z M 94.578125 134.199219 "/>
<path style=" stroke:none;fill-rule:nonzero;fill:rgb(41.568628%,40.784314%,80.784315%);fill-opacity:1;" d="M 133 114.691406 L 133 104.59375 C 130.535156 104.59375 130.042969 105.964844 128.269531 107.828125 C 126.203125 109.984375 121.964844 112.535156 118.417969 112.535156 C 114.773438 112.535156 105.710938 104.691406 103.445312 105.28125 C 101.769531 105.671875 96.84375 115.671875 94.578125 120.277344 C 93.988281 121.550781 94.578125 123.121094 95.957031 123.511719 C 98.222656 124.296875 102.558594 126.160156 103.445312 125.667969 C 104.035156 125.375 105.019531 121.160156 105.019531 121.160156 C 105.019531 121.160156 102.65625 138.019531 102.753906 141.355469 C 102.753906 143.019531 102.753906 146.058594 102.753906 148.609375 C 119.796875 146.648438 133 132.140625 133 114.691406 Z M 133 114.691406 "/>
<path style=" stroke:none;fill-rule:nonzero;fill:rgb(10.588235%,9.803922%,26.666668%);fill-opacity:1;" d="M 104.035156 79.402344 C 104.625 78.324219 115.363281 70.382812 122.558594 77.148438 C 129.75 83.910156 126.203125 86.949219 128.269531 90.578125 C 130.339844 94.203125 134.871094 99.007812 135.363281 101.554688 C 135.855469 104.105469 135.265625 106.359375 135.265625 106.359375 C 135.265625 106.359375 133.984375 105.769531 132.308594 106.359375 C 130.636719 106.945312 124.429688 114.496094 119.40625 114.496094 C 114.28125 114.496094 107.976562 107.730469 105.414062 107.144531 C 102.953125 106.554688 100.390625 107.042969 100.390625 107.042969 C 100.390625 107.042969 99.308594 102.046875 100.980469 94.496094 C 102.65625 87.046875 104.035156 79.402344 104.035156 79.402344 Z M 104.035156 79.402344 "/>
<path style=" stroke:none;fill-rule:nonzero;fill:rgb(10.588235%,9.803922%,26.666668%);fill-opacity:1;" d="M 45.320312 98.417969 C 45.320312 98.417969 41.378906 99.59375 39.898438 99.007812 C 38.421875 98.417969 35.761719 94.792969 35.761719 94.792969 C 35.761719 94.792969 29.851562 96.652344 29.359375 98.710938 C 28.867188 100.769531 28.078125 105.183594 29.753906 106.261719 C 31.527344 107.339844 41.082031 106.652344 44.039062 102.046875 C 46.894531 97.339844 45.320312 98.417969 45.320312 98.417969 Z M 45.320312 98.417969 "/>
<path style=" stroke:none;fill-rule:nonzero;fill:rgb(100%,100%,100%);fill-opacity:1;" d="M 62.757812 147.039062 C 61.082031 146.058594 41.96875 132.921875 41.574219 132.140625 C 41.277344 131.355469 41.574219 124.691406 41.574219 124.691406 L 37.140625 123.21875 L 37.734375 140.277344 C 37.734375 140.277344 49.949219 145.863281 56.550781 149 L 65.023438 149 C 64.429688 148.3125 63.644531 147.53125 62.757812 147.039062 Z M 62.757812 147.039062 "/>
<path style=" stroke:none;fill-rule:nonzero;fill:rgb(94.509804%,31.37255%,23.529412%);fill-opacity:1;" d="M 37.734375 103.320312 C 37.734375 103.320312 34.085938 102.632812 31.820312 103.027344 C 29.554688 103.320312 29.160156 104.691406 24.53125 104.984375 C 19.902344 105.28125 12.019531 103.710938 7.980469 104.007812 C 4.039062 104.300781 0.394531 113.515625 0.0976562 114.199219 L 0.0976562 114.691406 C 0.0976562 115.867188 0.195312 116.945312 0.296875 118.023438 C 0.691406 118.316406 1.082031 118.515625 1.476562 118.710938 C 3.152344 119.394531 8.375 119.984375 8.375 119.984375 L 6.699219 124.886719 C 6.699219 124.886719 7.585938 131.0625 7.09375 135.277344 C 13.300781 143.707031 23.25 149 34.480469 149 L 39.507812 149 C 38.914062 141.257812 37.832031 126.160156 37.632812 124.886719 C 37.734375 125.964844 39.605469 126.257812 41.082031 126.160156 C 42.558594 125.964844 44.53125 124.003906 44.53125 124.003906 C 44.53125 124.003906 42.265625 110.574219 41.871094 107.925781 C 41.671875 105.28125 39.308594 104.007812 37.734375 103.320312 Z M 37.734375 103.320312 "/>
<path style=" stroke:none;fill-rule:nonzero;fill:rgb(100%,100%,100%);fill-opacity:1;" d="M 4.730469 132.140625 C 5.515625 129.589844 8.867188 119.101562 8.867188 119.101562 L 0.589844 116.160156 C 0.589844 116.160156 0.394531 116.75 0 117.730469 C 0.589844 122.925781 2.265625 127.828125 4.730469 132.140625 Z M 4.730469 132.140625 "/>
<path style=" stroke:none;fill-rule:nonzero;fill:rgb(100%,100%,100%);fill-opacity:1;" d="M 35.367188 79.988281 C 35.367188 79.988281 40.984375 80.96875 39.703125 89.890625 C 38.421875 98.808594 33.792969 98.417969 31.820312 99.105469 C 29.851562 99.789062 29.160156 104.691406 29.160156 104.691406 C 29.160156 104.691406 26.894531 106.945312 22.5625 105.964844 C 18.226562 104.984375 17.929688 96.753906 19.902344 90.476562 C 21.871094 84.203125 35.367188 79.988281 35.367188 79.988281 Z M 35.367188 79.988281 "/>
<path style=" stroke:none;fill-rule:nonzero;fill:rgb(10.588235%,9.803922%,26.666668%);fill-opacity:1;" d="M 38.71875 79.304688 C 38.421875 78.617188 28.765625 71.460938 21.871094 75.96875 C 14.976562 80.578125 15.566406 84.5 14.976562 88.8125 C 14.285156 93.125 9.0625 96.066406 8.375 97.730469 C 7.683594 99.398438 6.894531 104.300781 6.894531 104.300781 C 6.894531 104.300781 10.050781 103.613281 11.722656 104.984375 C 13.398438 106.261719 17.734375 110.179688 20 111.554688 C 23.644531 113.808594 32.90625 111.261719 32.511719 110.28125 C 32.214844 109.300781 30.539062 109.984375 29.359375 109.003906 C 28.175781 108.023438 27.191406 101.75 27.878906 99.105469 C 28.570312 96.457031 29.753906 95.28125 29.652344 93.613281 C 29.554688 91.851562 29.554688 87.929688 30.539062 87.636719 C 31.527344 87.339844 35.171875 86.949219 36.453125 85.382812 C 37.632812 83.617188 38.71875 79.304688 38.71875 79.304688 Z M 38.71875 79.304688 "/>
</g>
</svg>
