<?xml version="1.0" encoding="UTF-8"?>
<svg xmlns="http://www.w3.org/2000/svg" xmlns:xlink="http://www.w3.org/1999/xlink" width="133px" height="150px" viewBox="0 0 133 149" version="1.1">
<g id="surface1">
<path style=" stroke:none;fill-rule:nonzero;fill:rgb(41.568628%,40.784314%,80.784315%);fill-opacity:1;" d="M 34.480469 0 L 98.519531 0 C 117.53125 0 133 15.390625 133 34.308594 L 133 114.691406 C 133 133.609375 117.53125 149 98.519531 149 L 34.480469 149 C 15.46875 149 0 133.609375 0 114.691406 L 0 34.308594 C 0 15.390625 15.46875 0 34.480469 0 Z M 34.480469 0 "/>
<path style=" stroke:none;fill-rule:nonzero;fill:rgb(41.568628%,40.784314%,80.784315%);fill-opacity:1;" d="M 34.480469 0 L 98.519531 0 C 117.53125 0 133 15.390625 133 34.308594 L 133 114.691406 C 133 133.609375 117.53125 149 98.519531 149 L 34.480469 149 C 15.46875 149 0 133.609375 0 114.691406 L 0 34.308594 C 0 15.390625 15.46875 0 34.480469 0 Z M 34.480469 0 "/>
<path style=" stroke:none;fill-rule:nonzero;fill:rgb(41.568628%,40.784314%,80.784315%);fill-opacity:1;" d="M 34.480469 0 L 98.519531 0 C 117.53125 0 133 15.390625 133 34.308594 L 133 114.691406 C 133 133.609375 117.53125 149 98.519531 149 L 34.480469 149 C 15.46875 149 0 133.609375 0 114.691406 L 0 34.308594 C 0 15.390625 15.46875 0 34.480469 0 Z M 34.480469 0 "/>
<path style=" stroke:none;fill-rule:nonzero;fill:rgb(41.568628%,40.784314%,80.784315%);fill-opacity:1;" d="M 34.480469 0 L 98.519531 0 C 117.53125 0 133 15.390625 133 34.308594 L 133 114.691406 C 133 133.609375 117.53125 149 98.519531 149 L 34.480469 149 C 15.46875 149 0 133.609375 0 114.691406 L 0 34.308594 C 0 15.390625 15.46875 0 34.480469 0 Z M 34.480469 0 "/>
<path style=" stroke:none;fill-rule:nonzero;fill:rgb(41.568628%,40.784314%,80.784315%);fill-opacity:1;" d="M 34.480469 0 L 98.519531 0 C 117.53125 0 133 15.390625 133 34.308594 L 133 114.691406 C 133 133.609375 117.53125 149 98.519531 149 L 34.480469 149 C 15.46875 149 0 133.609375 0 114.691406 L 0 34.308594 C 0 15.390625 15.46875 0 34.480469 0 Z M 34.480469 0 "/>
<path style=" stroke:none;fill-rule:nonzero;fill:rgb(41.568628%,40.784314%,80.784315%);fill-opacity:1;" d="M 34.480469 0 L 98.519531 0 C 117.53125 0 133 15.390625 133 34.308594 L 133 114.691406 C 133 133.609375 117.53125 149 98.519531 149 L 34.480469 149 C 15.46875 149 0 133.609375 0 114.691406 L 0 34.308594 C 0 15.390625 15.46875 0 34.480469 0 Z M 34.480469 0 "/>
<path style=" stroke:none;fill-rule:nonzero;fill:rgb(41.568628%,40.784314%,80.784315%);fill-opacity:1;" d="M 34.480469 0 L 98.519531 0 C 117.53125 0 133 15.390625 133 34.308594 L 133 114.691406 C 133 133.609375 117.53125 149 98.519531 149 L 34.480469 149 C 15.46875 149 0 133.609375 0 114.691406 L 0 34.308594 C 0 15.390625 15.46875 0 34.480469 0 Z M 34.480469 0 "/>
<path style=" stroke:none;fill-rule:nonzero;fill:rgb(94.117647%,29.803923%,22.745098%);fill-opacity:1;" d="M 133 83.714844 C 132.410156 83.519531 131.71875 83.421875 131.324219 82.832031 C 130.832031 81.949219 131.71875 81.164062 131.128906 80.382812 C 130.339844 79.207031 128.46875 79.792969 127.679688 78.519531 C 127.089844 77.636719 127.777344 76.851562 127.089844 76.167969 C 126.300781 75.285156 124.921875 76.265625 123.835938 75.480469 C 122.851562 74.695312 123.445312 73.519531 122.457031 72.832031 C 121.375 72.050781 120.292969 73.421875 118.8125 72.734375 C 117.238281 72.050781 117.632812 70.285156 116.152344 69.792969 C 114.773438 69.304688 113.984375 70.871094 112.410156 70.480469 C 110.734375 70.089844 110.734375 68.03125 109.257812 67.734375 C 107.777344 67.441406 107.1875 69.109375 105.710938 68.816406 C 104.234375 68.519531 104.132812 66.65625 102.851562 66.558594 C 101.472656 66.460938 101.078125 68.617188 99.601562 68.617188 C 98.125 68.617188 97.632812 66.65625 96.449219 66.757812 C 95.070312 66.953125 94.972656 69.792969 93.394531 69.992188 C 92.214844 70.1875 91.820312 68.617188 90.636719 68.816406 C 89.0625 69.011719 89.0625 71.65625 87.089844 72.246094 C 85.710938 72.636719 85.019531 71.65625 83.9375 72.148438 C 82.558594 72.832031 83.25 74.792969 81.769531 75.96875 C 80.390625 76.949219 79.207031 75.96875 78.125 77.046875 C 77.042969 78.128906 77.929688 79.5 76.746094 80.480469 C 75.761719 81.265625 74.777344 80.675781 73.988281 81.558594 C 73.199219 82.441406 73.890625 83.324219 73.199219 84.300781 C 72.3125 85.480469 70.835938 84.988281 70.539062 85.773438 C 70.046875 86.949219 72.707031 88.417969 72.214844 89.597656 C 71.820312 90.578125 69.457031 90.183594 69.257812 91.066406 C 68.964844 91.949219 71.230469 92.636719 71.328125 94.398438 C 71.425781 95.574219 70.34375 95.773438 70.144531 97.242188 C 69.851562 99.398438 71.820312 100.378906 71.230469 101.847656 C 70.734375 103.222656 69.0625 103.027344 68.863281 104.203125 C 68.667969 105.378906 70.34375 105.867188 70.539062 107.4375 C 70.734375 109.003906 69.355469 109.984375 68.964844 110.867188 C 67.582031 114.003906 71.820312 118.121094 74.183594 120.574219 C 75.664062 122.140625 77.238281 123.414062 79.011719 124.691406 C 81.574219 126.453125 85.613281 128.90625 91.226562 130.667969 C 91.226562 130.667969 100.6875 133.316406 122.65625 126.453125 C 124.921875 125.769531 125.90625 124.886719 126.496094 124.101562 C 127.285156 122.925781 126.992188 122.140625 127.976562 121.160156 C 129.15625 119.886719 130.242188 120.375 131.128906 119.101562 C 131.917969 117.925781 131.128906 117.140625 132.015625 116.160156 C 132.308594 115.769531 132.703125 115.476562 133.195312 115.378906 C 133.195312 115.179688 133.195312 114.886719 133.195312 114.691406 L 133.195312 83.714844 Z M 133 83.714844 "/>
<path style=" stroke:none;fill-rule:nonzero;fill:rgb(10.588235%,9.803922%,26.666668%);fill-opacity:1;" d="M 80.882812 108.613281 C 79.996094 120.082031 66.597656 127.433594 56.449219 128.804688 C 55.269531 129.003906 54.183594 129.101562 53.003906 129.199219 L 51.132812 129.492188 C 46.5 130.863281 41.082031 131.550781 36.550781 130.277344 C 32.414062 129.199219 28.867188 126.453125 27.09375 121.257812 C 24.136719 112.140625 31.132812 101.066406 37.042969 94.59375 C 39.703125 91.65625 42.855469 89.496094 46.105469 88.027344 C 51.820312 85.675781 58.125 85.773438 64.234375 88.910156 C 71.128906 92.636719 81.476562 99.691406 80.882812 108.613281 Z M 80.882812 108.613281 "/>
<path style=" stroke:none;fill-rule:nonzero;fill:rgb(98.823529%,76.862746%,84.313726%);fill-opacity:1;" d="M 133 114.691406 L 133 114.59375 C 132.210938 113.023438 130.636719 111.652344 127.777344 111.652344 C 123.835938 111.160156 111.917969 119.886719 110.144531 122.238281 C 108.074219 124.984375 108.664062 130.179688 105.808594 130.082031 C 101.179688 129.886719 97.039062 125.964844 92.113281 126.160156 C 86.992188 126.257812 74.183594 127.042969 74.480469 140.175781 C 74.578125 144.785156 74.675781 146.058594 75.5625 149 L 98.519531 149 C 117.53125 149 133 133.609375 133 114.691406 Z M 133 114.691406 "/>
<path style=" stroke:none;fill-rule:nonzero;fill:rgb(10.588235%,9.803922%,26.666668%);fill-opacity:1;" d="M 58.125 129.101562 C 39.605469 129.101562 24.53125 135.863281 24.53125 144.292969 C 24.53125 145.472656 24.828125 146.648438 25.417969 147.824219 C 28.273438 148.609375 31.328125 149 34.382812 149 L 89.949219 149 C 91.03125 147.53125 91.621094 145.960938 91.621094 144.292969 C 91.722656 135.960938 76.648438 129.101562 58.125 129.101562 Z M 58.125 129.101562 "/>
<path style=" stroke:none;fill-rule:nonzero;fill:rgb(10.588235%,9.803922%,26.666668%);fill-opacity:1;" d="M 90.539062 129.984375 C 90.339844 129.296875 91.128906 127.828125 91.328125 127.140625 C 91.621094 126.0625 91.621094 124.589844 91.621094 123.511719 C 91.621094 120.574219 89.257812 116.457031 87.1875 114.296875 C 85.019531 112.042969 83.148438 108.808594 83.148438 105.574219 C 83.148438 103.808594 82.953125 102.046875 83.148438 100.28125 C 83.25 99.203125 84.136719 97.242188 83.640625 96.261719 C 83.148438 95.28125 77.535156 92.636719 81.769531 92.636719 C 84.628906 92.636719 86.007812 91.261719 86.992188 88.714844 C 89.355469 82.832031 98.617188 81.851562 102.460938 86.753906 C 103.738281 88.417969 103.738281 90.773438 104.429688 92.636719 C 105.21875 94.792969 106.203125 96.753906 107.484375 97.144531 C 110.046875 98.027344 110.832031 99.398438 110.636719 101.359375 C 110.339844 103.710938 107.386719 103.808594 106.597656 103.710938 C 105.316406 103.613281 103.9375 104.496094 103.246094 105.769531 C 102.359375 107.535156 102.851562 112.042969 103.9375 113.710938 C 105.710938 116.652344 108.960938 117.535156 111.425781 119.492188 C 114.183594 121.75 111.226562 126.550781 109.652344 128.609375 C 107.679688 131.160156 104.625 133.316406 101.375 133.902344 C 98.421875 134.394531 94.675781 135.179688 91.917969 133.511719 C 90.046875 132.335938 89.949219 131.945312 90.539062 129.984375 Z M 90.539062 129.984375 "/>
<path style=" stroke:none;fill-rule:nonzero;fill:rgb(41.568628%,40.784314%,80.784315%);fill-opacity:1;" d="M 85.710938 101.949219 C 84.234375 99.105469 88.863281 100.28125 89.652344 100.183594 C 91.621094 99.890625 92.804688 97.929688 95.070312 99.203125 C 96.648438 100.183594 89.949219 110.179688 85.710938 101.949219 C 85.90625 102.339844 85.414062 101.457031 85.710938 101.949219 Z M 85.710938 101.949219 "/>
<path style=" stroke:none;fill-rule:nonzero;fill:rgb(100%,100%,100%);fill-opacity:1;" d="M 90.835938 103.320312 C 91.226562 103.222656 91.722656 102.925781 92.214844 102.535156 C 92.707031 102.046875 93 101.261719 93.101562 101.066406 C 93.199219 100.378906 92.113281 100.378906 91.722656 100.671875 C 91.128906 101.066406 91.128906 101.457031 90.339844 101.652344 C 89.652344 101.75 88.863281 101.75 88.175781 101.652344 C 87.78125 101.554688 87.1875 101.261719 87.1875 101.847656 C 87.089844 102.242188 87.78125 102.730469 88.175781 103.125 C 88.566406 103.417969 90.046875 103.613281 90.835938 103.320312 Z M 90.835938 103.320312 "/>
<path style=" stroke:none;fill-rule:nonzero;fill:rgb(100%,100%,100%);fill-opacity:1;" d="M 109.257812 117.433594 C 111.324219 119.886719 113.394531 122.335938 115.464844 124.691406 C 116.152344 125.277344 117.039062 125.375 117.632812 124.984375 C 118.320312 124.589844 118.320312 123.808594 118.320312 123.710938 C 119.304688 124.984375 120.882812 125.082031 121.570312 124.394531 C 122.0625 123.90625 122.0625 123.023438 121.671875 122.140625 C 122.261719 122.53125 122.949219 122.53125 123.445312 122.140625 C 124.035156 121.652344 124.132812 120.769531 123.542969 120.082031 C 123.640625 120.082031 124.230469 120.375 124.824219 119.886719 C 125.316406 119.492188 125.511719 118.808594 125.21875 118.21875 C 124.132812 116.457031 122.949219 114.59375 121.867188 112.828125 C 121.375 112.4375 120.785156 112.339844 120.292969 112.535156 C 119.796875 112.730469 119.503906 113.21875 119.503906 113.320312 C 119.109375 112.828125 118.417969 112.632812 117.828125 112.730469 C 117.238281 112.828125 116.746094 113.320312 116.546875 114.003906 C 116.351562 113.90625 115.167969 113.515625 113.984375 114.199219 C 113 114.789062 112.707031 115.769531 112.605469 115.964844 C 112.507812 115.964844 111.425781 115.378906 110.339844 115.964844 C 109.550781 116.457031 109.355469 117.238281 109.257812 117.433594 Z M 109.257812 117.433594 "/>
<path style=" stroke:none;fill-rule:nonzero;fill:rgb(100%,100%,100%);fill-opacity:1;" d="M 45.21875 102.632812 C 45.417969 99.203125 46.105469 96.066406 49.257812 94.203125 C 52.117188 92.535156 55.367188 92.535156 58.027344 94.59375 C 59.40625 95.574219 60.292969 97.046875 61.378906 98.417969 C 64.53125 97.632812 68.175781 97.535156 67.191406 101.75 C 66.402344 104.984375 64.921875 106.847656 65.417969 110.28125 C 66.007812 114.398438 66.992188 118.414062 67.191406 122.632812 C 67.386719 126.746094 67.78125 130.667969 68.273438 134.6875 C 68.667969 137.824219 68.964844 141.648438 65.808594 143.511719 C 62.558594 145.472656 58.421875 143.804688 55.761719 141.648438 C 49.359375 136.550781 48.570312 127.238281 47.78125 119.691406 C 47.484375 116.257812 47.878906 112.925781 45.023438 110.476562 C 42.953125 108.710938 39.011719 105.671875 42.265625 103.125 C 42.757812 102.730469 45.21875 102.632812 45.21875 102.632812 Z M 45.21875 102.632812 "/>
<path style=" stroke:none;fill-rule:nonzero;fill:rgb(41.568628%,40.784314%,80.784315%);fill-opacity:1;" d="M 57.632812 104.984375 C 59.40625 104.984375 58.816406 107.042969 58.027344 107.925781 C 57.042969 109.203125 55.367188 109.398438 53.890625 109.203125 C 52.90625 109.101562 50.144531 108.515625 50.34375 107.042969 C 50.539062 105.671875 53.59375 105.476562 54.578125 105.378906 C 54.679688 105.378906 56.945312 104.984375 57.632812 104.984375 Z M 57.632812 104.984375 "/>
<path style=" stroke:none;fill-rule:nonzero;fill:rgb(100%,100%,100%);fill-opacity:1;" d="M 72.3125 65.480469 L 72.3125 58.914062 C 71.917969 59.011719 71.523438 59.109375 71.128906 59.207031 C 68.46875 59.894531 65.710938 60.582031 63.050781 61.167969 C 62.855469 61.265625 62.757812 61.265625 62.757812 61.558594 C 62.757812 64.992188 62.757812 68.421875 62.757812 71.851562 C 62.757812 73.519531 61.96875 74.695312 60.390625 75.1875 C 59.011719 75.675781 57.730469 75.480469 56.550781 74.597656 C 54.777344 73.324219 54.777344 70.871094 56.648438 69.597656 C 57.730469 68.914062 58.816406 68.714844 60.097656 69.011719 C 60.195312 69.011719 60.195312 69.011719 60.292969 69.109375 C 60.292969 69.011719 60.292969 68.914062 60.292969 68.816406 C 60.292969 65.285156 60.292969 61.757812 60.292969 58.324219 C 60.292969 57.542969 60.589844 57.148438 61.378906 56.953125 C 65.417969 55.972656 69.457031 54.992188 73.394531 54.011719 C 74.28125 53.816406 74.875 54.304688 74.972656 54.894531 C 74.972656 54.992188 74.972656 55.089844 74.972656 55.1875 C 74.972656 59.699219 74.972656 64.109375 74.972656 68.617188 C 74.972656 69.597656 74.578125 70.382812 73.789062 70.972656 C 72.3125 72.148438 69.949219 72.148438 68.46875 70.972656 C 66.796875 69.597656 66.992188 67.148438 68.863281 65.972656 C 69.851562 65.382812 70.933594 65.1875 72.117188 65.480469 C 72.214844 65.480469 72.214844 65.480469 72.3125 65.480469 Z M 72.3125 65.480469 "/>
<path style=" stroke:none;fill-rule:nonzero;fill:rgb(100%,100%,100%);fill-opacity:1;" d="M 39.113281 59.894531 L 36.746094 55.972656 C 36.550781 56.167969 36.351562 56.363281 36.15625 56.5625 C 34.777344 57.933594 33.398438 59.304688 32.019531 60.679688 C 31.921875 60.777344 31.921875 60.875 32.019531 60.972656 C 33.300781 63.03125 34.480469 64.992188 35.761719 67.050781 C 36.351562 68.03125 36.351562 69.011719 35.566406 69.894531 C 34.875 70.675781 34.085938 71.070312 33.003906 70.972656 C 31.425781 70.871094 30.640625 69.402344 31.230469 68.03125 C 31.625 67.246094 32.214844 66.757812 33.101562 66.460938 C 33.101562 66.460938 33.199219 66.460938 33.300781 66.363281 C 33.300781 66.265625 33.199219 66.265625 33.199219 66.167969 C 31.921875 64.109375 30.640625 62.050781 29.359375 59.894531 C 29.0625 59.402344 29.0625 59.109375 29.457031 58.71875 C 31.527344 56.660156 33.59375 54.601562 35.566406 52.542969 C 35.960938 52.148438 36.550781 52.246094 36.847656 52.542969 C 36.847656 52.640625 36.945312 52.640625 36.945312 52.738281 C 38.519531 55.386719 40.195312 58.03125 41.773438 60.679688 C 42.164062 61.265625 42.164062 61.855469 41.96875 62.539062 C 41.574219 63.816406 40.097656 64.699219 38.816406 64.5 C 37.238281 64.304688 36.550781 62.835938 37.238281 61.363281 C 37.632812 60.679688 38.226562 60.1875 39.011719 59.894531 C 39.011719 59.992188 39.113281 59.992188 39.113281 59.894531 Z M 39.113281 59.894531 "/>
</g>
</svg>
