<?xml version="1.0" encoding="utf-8"?>
<!-- Generator: Adobe Illustrator 27.9.6, SVG Export Plug-In . SVG Version: 9.03 Build 54986)  -->
<svg version="1.1" id="Layer_1" xmlns="http://www.w3.org/2000/svg" xmlns:xlink="http://www.w3.org/1999/xlink" x="0px" y="0px"
	 viewBox="0 0 135 152" style="enable-background:new 0 0 135 152;" xml:space="preserve">
<style type="text/css">
	.st0{fill:#6A68CE;}
	.st1{fill:#F04C3A;}
	.st2{fill:#1B1944;}
	.st3{fill:#FCC4D7;}
	.st4{fill:#FFFFFF;}
</style>
<g>
	<path class="st0" d="M35,0h65c19.3,0,35,15.7,35,35v82c0,19.3-15.7,35-35,35H35c-19.3,0-35-15.7-35-35V35C0,15.7,15.7,0,35,0z"/>
	<path class="st0" d="M35,0h65c19.3,0,35,15.7,35,35v82c0,19.3-15.7,35-35,35H35c-19.3,0-35-15.7-35-35V35C0,15.7,15.7,0,35,0z"/>
	<path class="st0" d="M35,0h65c19.3,0,35,15.7,35,35v82c0,19.3-15.7,35-35,35H35c-19.3,0-35-15.7-35-35V35C0,15.7,15.7,0,35,0z"/>
	<path class="st0" d="M35,0h65c19.3,0,35,15.7,35,35v82c0,19.3-15.7,35-35,35H35c-19.3,0-35-15.7-35-35V35C0,15.7,15.7,0,35,0z"/>
	<path class="st0" d="M35,0h65c19.3,0,35,15.7,35,35v82c0,19.3-15.7,35-35,35H35c-19.3,0-35-15.7-35-35V35C0,15.7,15.7,0,35,0z"/>
	<path class="st0" d="M35,0h65c19.3,0,35,15.7,35,35v82c0,19.3-15.7,35-35,35H35c-19.3,0-35-15.7-35-35V35C0,15.7,15.7,0,35,0z"/>
	<path class="st0" d="M35,0h65c19.3,0,35,15.7,35,35v82c0,19.3-15.7,35-35,35H35c-19.3,0-35-15.7-35-35V35C0,15.7,15.7,0,35,0z"/>
	<path class="st1" d="M135,85.4c-0.6-0.2-1.3-0.3-1.7-0.9c-0.5-0.9,0.4-1.7-0.2-2.5c-0.8-1.2-2.7-0.6-3.5-1.9
		c-0.6-0.9,0.1-1.7-0.6-2.4c-0.8-0.9-2.2,0.1-3.3-0.7c-1-0.8-0.4-2-1.4-2.7c-1.1-0.8-2.2,0.6-3.7-0.1c-1.6-0.7-1.2-2.5-2.7-3
		c-1.4-0.5-2.2,1.1-3.8,0.7c-1.7-0.4-1.7-2.5-3.2-2.8c-1.5-0.3-2.1,1.4-3.6,1.1c-1.5-0.3-1.6-2.2-2.9-2.3c-1.4-0.1-1.8,2.1-3.3,2.1
		c-1.5,0-2-2-3.2-1.9c-1.4,0.2-1.5,3.1-3.1,3.3c-1.2,0.2-1.6-1.4-2.8-1.2c-1.6,0.2-1.6,2.9-3.6,3.5c-1.4,0.4-2.1-0.6-3.2-0.1
		c-1.4,0.7-0.7,2.7-2.2,3.9c-1.4,1-2.6,0-3.7,1.1c-1.1,1.1-0.2,2.5-1.4,3.5c-1,0.8-2,0.2-2.8,1.1c-0.8,0.9-0.1,1.8-0.8,2.8
		c-0.9,1.2-2.4,0.7-2.7,1.5c-0.5,1.2,2.2,2.7,1.7,3.9c-0.4,1-2.8,0.6-3,1.5c-0.3,0.9,2,1.6,2.1,3.4c0.1,1.2-1,1.4-1.2,2.9
		c-0.3,2.2,1.7,3.2,1.1,4.7c-0.5,1.4-2.2,1.2-2.4,2.4c-0.2,1.2,1.5,1.7,1.7,3.3c0.2,1.6-1.2,2.6-1.6,3.5c-1.4,3.2,2.9,7.4,5.3,9.9
		c1.5,1.6,3.1,2.9,4.9,4.2c2.6,1.8,6.7,4.3,12.4,6.1c0,0,9.6,2.7,31.9-4.3c2.3-0.7,3.3-1.6,3.9-2.4c0.8-1.2,0.5-2,1.5-3
		c1.2-1.3,2.3-0.8,3.2-2.1c0.8-1.2,0-2,0.9-3c0.3-0.4,0.7-0.7,1.2-0.8c0-0.2,0-0.5,0-0.7V85.4z"/>
	<path class="st2" d="M82.1,110.8c-0.9,11.7-14.5,19.2-24.8,20.6c-1.2,0.2-2.3,0.3-3.5,0.4l-1.9,0.3c-4.7,1.4-10.2,2.1-14.8,0.8
		c-4.2-1.1-7.8-3.9-9.6-9.2c-3-9.3,4.1-20.6,10.1-27.2c2.7-3,5.9-5.2,9.2-6.7c5.8-2.4,12.2-2.3,18.4,0.9
		C72.2,94.5,82.7,101.7,82.1,110.8z"/>
	<path class="st3" d="M135,117v-0.1c-0.8-1.6-2.4-3-5.3-3c-4-0.5-16.1,8.4-17.9,10.8c-2.1,2.8-1.5,8.1-4.4,8
		c-4.7-0.2-8.9-4.2-13.9-4c-5.2,0.1-18.2,0.9-17.9,14.3c0.1,4.7,0.2,6,1.1,9H100C119.3,152,135,136.3,135,117z"/>
	<path class="st2" d="M59,131.7c-18.8,0-34.1,6.9-34.1,15.5c0,1.2,0.3,2.4,0.9,3.6c2.9,0.8,6,1.2,9.1,1.2h56.4
		c1.1-1.5,1.7-3.1,1.7-4.8C93.1,138.7,77.8,131.7,59,131.7z"/>
	<path class="st2" d="M91.9,132.6c-0.2-0.7,0.6-2.2,0.8-2.9c0.3-1.1,0.3-2.6,0.3-3.7c0-3-2.4-7.2-4.5-9.4c-2.2-2.3-4.1-5.6-4.1-8.9
		c0-1.8-0.2-3.6,0-5.4c0.1-1.1,1-3.1,0.5-4.1c-0.5-1-6.2-3.7-1.9-3.7c2.9,0,4.3-1.4,5.3-4c2.4-6,11.8-7,15.7-2c1.3,1.7,1.3,4.1,2,6
		c0.8,2.2,1.8,4.2,3.1,4.6c2.6,0.9,3.4,2.3,3.2,4.3c-0.3,2.4-3.3,2.5-4.1,2.4c-1.3-0.1-2.7,0.8-3.4,2.1c-0.9,1.8-0.4,6.4,0.7,8.1
		c1.8,3,5.1,3.9,7.6,5.9c2.8,2.3-0.2,7.2-1.8,9.3c-2,2.6-5.1,4.8-8.4,5.4c-3,0.5-6.8,1.3-9.6-0.4C91.4,135,91.3,134.6,91.9,132.6z"
		/>
	<path class="st0" d="M87,104c-1.5-2.9,3.2-1.7,4-1.8c2-0.3,3.2-2.3,5.5-1C98.1,102.2,91.3,112.4,87,104
		C87.2,104.4,86.7,103.5,87,104z"/>
	<path class="st4" d="M92.2,105.4c0.4-0.1,0.9-0.4,1.4-0.8c0.5-0.5,0.8-1.3,0.9-1.5c0.1-0.7-1-0.7-1.4-0.4c-0.6,0.4-0.6,0.8-1.4,1
		c-0.7,0.1-1.5,0.1-2.2,0c-0.4-0.1-1-0.4-1,0.2c-0.1,0.4,0.6,0.9,1,1.3C89.9,105.5,91.4,105.7,92.2,105.4z"/>
	<path class="st4" d="M110.9,119.8c2.1,2.5,4.2,5,6.3,7.4c0.7,0.6,1.6,0.7,2.2,0.3c0.7-0.4,0.7-1.2,0.7-1.3c1,1.3,2.6,1.4,3.3,0.7
		c0.5-0.5,0.5-1.4,0.1-2.3c0.6,0.4,1.3,0.4,1.8,0c0.6-0.5,0.7-1.4,0.1-2.1c0.1,0,0.7,0.3,1.3-0.2c0.5-0.4,0.7-1.1,0.4-1.7
		c-1.1-1.8-2.3-3.7-3.4-5.5c-0.5-0.4-1.1-0.5-1.6-0.3c-0.5,0.2-0.8,0.7-0.8,0.8c-0.4-0.5-1.1-0.7-1.7-0.6c-0.6,0.1-1.1,0.6-1.3,1.3
		c-0.2-0.1-1.4-0.5-2.6,0.2c-1,0.6-1.3,1.6-1.4,1.8c-0.1,0-1.2-0.6-2.3,0C111.2,118.8,111,119.6,110.9,119.8z"/>
	<path class="st4" d="M45.9,104.7c0.2-3.5,0.9-6.7,4.1-8.6c2.9-1.7,6.2-1.7,8.9,0.4c1.4,1,2.3,2.5,3.4,3.9c3.2-0.8,6.9-0.9,5.9,3.4
		c-0.8,3.3-2.3,5.2-1.8,8.7c0.6,4.2,1.6,8.3,1.8,12.6c0.2,4.2,0.6,8.2,1.1,12.3c0.4,3.2,0.7,7.1-2.5,9c-3.3,2-7.5,0.3-10.2-1.9
		c-6.5-5.2-7.3-14.7-8.1-22.4c-0.3-3.5,0.1-6.9-2.8-9.4c-2.1-1.8-6.1-4.9-2.8-7.5C43.4,104.8,45.9,104.7,45.9,104.7z"/>
	<path class="st0" d="M58.5,107.1c1.8,0,1.2,2.1,0.4,3c-1,1.3-2.7,1.5-4.2,1.3c-1-0.1-3.8-0.7-3.6-2.2c0.2-1.4,3.3-1.6,4.3-1.7
		C55.5,107.5,57.8,107.1,58.5,107.1z"/>
	<path class="st4" d="M73.4,66.8v-6.7c-0.4,0.1-0.8,0.2-1.2,0.3c-2.7,0.7-5.5,1.4-8.2,2c-0.2,0.1-0.3,0.1-0.3,0.4c0,3.5,0,7,0,10.5
		c0,1.7-0.8,2.9-2.4,3.4c-1.4,0.5-2.7,0.3-3.9-0.6c-1.8-1.3-1.8-3.8,0.1-5.1c1.1-0.7,2.2-0.9,3.5-0.6c0.1,0,0.1,0,0.2,0.1
		c0-0.1,0-0.2,0-0.3c0-3.6,0-7.2,0-10.7c0-0.8,0.3-1.2,1.1-1.4c4.1-1,8.2-2,12.2-3c0.9-0.2,1.5,0.3,1.6,0.9c0,0.1,0,0.2,0,0.3
		c0,4.6,0,9.1,0,13.7c0,1-0.4,1.8-1.2,2.4c-1.5,1.2-3.9,1.2-5.4,0c-1.7-1.4-1.5-3.9,0.4-5.1c1-0.6,2.1-0.8,3.3-0.5
		C73.3,66.8,73.3,66.8,73.4,66.8L73.4,66.8z"/>
	<path class="st4" d="M39.7,61.1l-2.4-4c-0.2,0.2-0.4,0.4-0.6,0.6c-1.4,1.4-2.8,2.8-4.2,4.2c-0.1,0.1-0.1,0.2,0,0.3
		c1.3,2.1,2.5,4.1,3.8,6.2c0.6,1,0.6,2-0.2,2.9c-0.7,0.8-1.5,1.2-2.6,1.1c-1.6-0.1-2.4-1.6-1.8-3c0.4-0.8,1-1.3,1.9-1.6
		c0,0,0.1,0,0.2-0.1c0-0.1-0.1-0.1-0.1-0.2c-1.3-2.1-2.6-4.2-3.9-6.4c-0.3-0.5-0.3-0.8,0.1-1.2c2.1-2.1,4.2-4.2,6.2-6.3
		c0.4-0.4,1-0.3,1.3,0c0,0.1,0.1,0.1,0.1,0.2c1.6,2.7,3.3,5.4,4.9,8.1c0.4,0.6,0.4,1.2,0.2,1.9c-0.4,1.3-1.9,2.2-3.2,2
		c-1.6-0.2-2.3-1.7-1.6-3.2c0.4-0.7,1-1.2,1.8-1.5C39.6,61.2,39.7,61.2,39.7,61.1L39.7,61.1z"/>
</g>
</svg>
