<?xml version="1.0" encoding="utf-8"?>
<!-- Generator: Adobe Illustrator 27.9.6, SVG Export Plug-In . SVG Version: 9.03 Build 54986)  -->
<svg version="1.1" id="Layer_1" xmlns="http://www.w3.org/2000/svg" xmlns:xlink="http://www.w3.org/1999/xlink" x="0px" y="0px"
	 viewBox="0 0 136 153" style="enable-background:new 0 0 136 153;" xml:space="preserve">
<style type="text/css">
	.st0{fill:#FCC4D7;}
	.st1{fill:#FFFFFF;}
	.st2{fill:#F1503C;}
	.st3{fill:#1B1944;}
	.st4{fill:#6A68CE;}
	.st5{fill:#FCD0DC;}
</style>
<g>
	<path class="st0" d="M35,0h65c19.3,0,35,15.7,35,35v82c0,19.3-15.7,35-35,35H35c-19.3,0-35-15.7-35-35V35C0,15.7,15.7,0,35,0z"/>
	<path class="st0" d="M35,0h65c19.3,0,35,15.7,35,35v82c0,19.3-15.7,35-35,35H35c-19.3,0-35-15.7-35-35V35C0,15.7,15.7,0,35,0z"/>
	<path class="st0" d="M35,0h65c19.3,0,35,15.7,35,35v82c0,19.3-15.7,35-35,35H35c-19.3,0-35-15.7-35-35V35C0,15.7,15.7,0,35,0z"/>
	<path class="st1" d="M129.9,125.1l-18.5-0.2c0.5,2.2,0.9,4.3,1.1,6c0,0,0,0.1,0,0.1c6.3,0.2,13,0.5,19.3,0.8L129.9,125.1
		L129.9,125.1z"/>
	<path class="st2" d="M53.9,112.8l12.7,0.1l0.2-6.6c-4.2,0.1-8.5,0.2-12.8,0.2C53.9,108.8,54,111,53.9,112.8L53.9,112.8z"/>
	<path class="st2" d="M105.6,99.7c0.3,1,0.7,2.3,1.2,3.8l17.8,0.2l-1.2-4.3C117.7,99.4,112,99.5,105.6,99.7L105.6,99.7z"/>
	<path class="st2" d="M90,125.5l0.3,5.8c5,0.1,11.8,0.2,19.3,0.5l-1.2-6.1L90,125.5L90,125.5z"/>
	<path class="st1" d="M110,134.9l-19.6,0l0.3,6.3l20.6,0L110,134.9z"/>
	<path class="st1" d="M69.2,109.1c0.1,0.8,0.1,2.1,0,3.9l10.5,0.1c2.7-0.1,5.4-0.3,8-0.4l-0.3-7.2c-5.3,0.3-11.7,0.6-18.5,0.8
		C69,107.2,69.1,108.2,69.2,109.1z"/>
	<path class="st2" d="M87,138.6c-0.1-0.6,0-1.9,0.1-3.7l-19.5,0c-0.2,2.2-0.5,4.3-0.7,6.4l20.4,0C87.2,140.1,87,139.1,87,138.6z"/>
	<path class="st2" d="M68.5,123.1c6.3-0.4,13-0.7,19.4-0.9c0-0.3,0.1-0.7,0.1-1l-0.3-6.1l-8.1-0.1c-3.6,0.2-7.2,0.3-10.5,0.4
		C69,117.6,68.8,120.3,68.5,123.1L68.5,123.1z"/>
	<path class="st1" d="M101.3,122.3c1.9,0.1,4.2,0.1,6.7,0.2l-1.4-7.2l-16.1-0.1c-0.2,1.8-0.4,3.9-0.7,6.1l0,1
		C94,122.2,97.9,122.1,101.3,122.3L101.3,122.3z"/>
	<path class="st1" d="M104.5,103.7l-13.9,0.2l-0.3-3.2c4.8,0.1,8.9-0.9,13.5-0.8C103.5,101,104.8,102.6,104.5,103.7L104.5,103.7z"/>
	<path class="st2" d="M91.2,108.8c-0.1,0.5-0.3,1.9-0.6,3.8c5.9-0.3,11.4-0.6,15.8-0.8l-1.4-7.1c-2.8,0-5,0.1-6.6,0.2
		c-2,0.1-4.5,0.3-7.4,0.4C91.2,106.8,91.4,108.1,91.2,108.8L91.2,108.8z"/>
	<path class="st1" d="M106.8,104.7c0.6,2.1,1.4,4.5,2.1,7c1.9-0.1,3.5-0.1,4.7-0.2c2.5-0.1,7.6,0.1,13.6,0.3l-2-7.2
		C118.6,104.7,112,104.7,106.8,104.7L106.8,104.7z"/>
	<path class="st1" d="M50.2,112.8l1.7-6.2c-1.5,0-3,0-4.5,0c-2.2,0-4.6-0.1-7-0.2c-0.3,1.1-0.7,2-1.1,2.4c-0.4,0.5-1.4,1.9-2.6,4
		L50.2,112.8z"/>
	<path class="st1" d="M64.5,135.3l-18.3,0c-0.8,1.8-1.5,3.6-2.3,5.4c6.1,0.3,13.3,0.6,20.5,0.9L64.5,135.3L64.5,135.3z"/>
	<path class="st2" d="M111.1,121.7c5.5,0.2,12,0.4,18.6,0.6l-2.2-7.7l-18.2-0.1C110,116.9,110.6,119.4,111.1,121.7L111.1,121.7z"/>
	<path class="st2" d="M0,114.6v2.7c0,1.7,0.1,3.4,0.4,5.1l9,0.1c1.5-2.4,3.2-5.1,5-7.7C9,114.8,4,114.7,0,114.6z"/>
	<path class="st2" d="M48.8,123l2-7.5c-4-0.1-8.7-0.2-13.6-0.3c-0.9,1.5-2,3.2-3,5l-1.1,2.5L48.8,123z"/>
	<path class="st1" d="M45.8,133l1.8-6.6c-0.1,0-0.1,0-0.2,0c-1.8-0.1-8-0.3-15.6-0.5l-3.5,8C32.8,133.6,39,133.3,45.8,133L45.8,133z
		"/>
	<path class="st2" d="M30,141c2.4,0.1,6,0.2,10.5,0.4l1.5-5.3l-17.2,0l-2.1,4.9C25.6,140.9,28.2,140.9,30,141z"/>
	<path class="st1" d="M58.5,115.7c-1.2,0-2.8,0-4.7-0.1c-0.1,1-0.2,1.9-0.3,2.4c-0.2,0.7-0.9,2.5-1.9,5l14.8,0.2l0.2-7.6
		C63.4,115.7,60.7,115.7,58.5,115.7L58.5,115.7z"/>
	<path class="st2" d="M66.3,125.4c-6.1,0.4-11.5,0.7-15.3,0.9c-0.8,2-1.8,4.2-2.8,6.6c5.9-0.3,12.2-0.6,17.9-0.8L66.3,125.4
		L66.3,125.4z"/>
	<path class="st1" d="M87.3,131.3c0.1-1.8,0.3-3.8,0.5-5.8l-19.2-0.2c-0.2,2.1-0.4,4.4-0.7,6.6c6-0.3,11.3-0.5,15.1-0.6
		C84,131.3,85.5,131.3,87.3,131.3L87.3,131.3z"/>
	<path class="st1" d="M17.6,114.9l-4.4,7.6l17,0.2c0.5-0.8,1-1.7,1.5-2.5l2.2-5C28.5,115.1,22.9,115,17.6,114.9L17.6,114.9z"/>
	<path class="st2" d="M133.2,125.2c0,0.1,0.1,0.3,0.1,0.4c0.1,0.3,0.2,0.7,0.3,1.1c0.1-0.5,0.3-1,0.4-1.5L133.2,125.2z"/>
	<path class="st2" d="M112.7,135.3c0.2,2.1,0.5,4.2,0.7,6.3l11.4,0c1.9-1.9,3.6-4,5-6.3L112.7,135.3L112.7,135.3z"/>
	<path class="st1" d="M54,101.8c0,0.9,0.1,1.9,0.1,2.9l12.4-0.4l0.1-2.9C62.9,101.4,58.9,101.9,54,101.8z"/>
	<path class="st1" d="M113.6,145.1c0.2,1.4,0.3,2.7,0.5,4c2.5-1.1,4.9-2.5,7.1-4.2C118.4,145,115.9,145,113.6,145.1z"/>
	<path class="st1" d="M65.9,152h22.6c-0.4-2.3-0.8-5-1.1-7.2v0c-6-0.3-13.3-0.6-20.6-0.9C66.5,147,66.2,149.8,65.9,152z"/>
	<path class="st2" d="M20.4,103.8c0.9-1.3,1.8-2.4,2.4-3.2c-10.6-0.3-18.2-1.7-18.2-1.7s-0.9,1.4-2.1,3.5L20.4,103.8L20.4,103.8z"/>
	<path class="st2" d="M87.3,103.7L69,104.5l-0.4-3c7.5,0.1,14.1-0.7,18.6-0.7c0.2,0,0.4,0,0.6,0C87.6,101.7,87.4,102.7,87.3,103.7
		L87.3,103.7z"/>
	<g>
		<path class="st2" d="M103.6,145.4c-2,0-6.7-0.2-12.9-0.5L91,152h9c4.4,0,8.5-0.8,12.4-2.3l-0.9-4.4
			C107.8,145.4,105,145.4,103.6,145.4z"/>
	</g>
	<path class="st2" d="M40.2,152h23.9l0.2-7.5l-20.9,0C42.2,147.3,41.1,149.8,40.2,152z"/>
	<path class="st1" d="M4.2,134l0.4,0c0.6-1.3,1.2-2.7,1.8-4c0.7-1.4,1.6-3.1,2.6-4.9c-2.9-0.1-5.7-0.2-8.3-0.3
		C1.5,128.1,2.7,131.2,4.2,134z"/>
	<path class="st1" d="M22.9,103.8l15,0.4l1.3-3c-5-0.1-10-0.4-14.5-0.5L22.9,103.8L22.9,103.8z"/>
	<path class="st2" d="M41.4,104l10.4,0.5l-0.5-2.9c-2.8-0.1-6.5-0.6-9.4-0.6C41.7,101.9,41.5,103,41.4,104z"/>
	<path class="st2" d="M34.1,112.7l2.8-6.4c-4.9-0.2-10.1-0.5-15-0.8l-4.1,7.1L34.1,112.7L34.1,112.7z"/>
	<path class="st1" d="M19.6,148.8c4.7,2.3,9.9,3.6,15.4,3.6h2.5l2.1-7.8l-18.3,0L19.6,148.8z"/>
	<path class="st2" d="M17.3,147.5c0.3-1,0.7-2,1-3l-5.3,0C14.3,145.6,15.7,146.6,17.3,147.5z"/>
	<path class="st2" d="M24.5,133.9c1-1.9,2.7-4.9,4.6-8.1c-5.2-0.2-11.1-0.4-16.8-0.6L7.2,134l12.8,0c0.4,0,0.7,0,1.1,0
		C22,134,23.1,133.9,24.5,133.9L24.5,133.9z"/>
	<path class="st1" d="M21.8,137.7c0.1-0.3,0.4-0.9,0.8-1.6l-4.4,0c-2.9,0-7.6,0.1-12.9,0.1l-3.9,6c6.6-0.2,13.9-1.1,19.3-1.2
		C21.1,139.5,21.5,138.3,21.8,137.7z"/>
	<path class="st3" d="M29.1,54.9c0,0,4.8,2.5,4.8,5.5s-0.3,8.6-4.5,10.3c-4.2,1.7-7.6,2.5-9,1.1C19,70.5,29.1,54.9,29.1,54.9
		L29.1,54.9z"/>
	<path class="st3" d="M33.9,86.7l2.5,7.9c0,0,2.2-11.4,2.8-14.1s1.1-8,3.4-8.9c2.2-0.8,6.5-1.4,6.5-0.3c0,1.1-1.1,1.1-1.4,1.7
		c-0.3,0.6-0.6,1.7-1.4,1.9c-0.8,0.3-1.4,0-1.4,0.8c0,0.8,0.6,25-3.4,26.6c-3.9,1.6-7.9-1.1-7.9-1.1L33.9,86.7L33.9,86.7z"/>
	<path class="st4" d="M44,109c-3.6,0-8.4-0.8-9.1-2.5c-0.7-1.7-0.4-3.6-0.2-5.6c0.3-1.9,0.6-21.6-2.2-25c-2.8-3.3-11.2-2.5-14.9-2.2
		v0c0,0-5.9,0.3-10.1,2.2c-4.2,1.9-6.5,12.2-6.7,18c-0.2,3.5-0.5,12.4-0.8,19v4.3c0,9.1,3.5,17.3,9.1,23.6c3.6-2.8,6.5-6.8,7.9-8
		c2.5-2.2,20.2-8.9,28.9-11.4c8.7-2.5,9-3.3,8.4-7.8C53.8,109.3,47.6,109,44,109z"/>
	<path class="st3" d="M4.2,101c0,0,2.2,0.8,3.4,0.8S11,101,11,101l0.5,6.7c0,0,20.8,10.8,22.2,11.7c1.4,0.8,4.2,1.7,4.2,3.6
		c0,1.9-0.3,3.3-1.4,3.3s-2.8-2.2-4.2-3.1c-1.4-0.8-17.7-6.7-19.4-7.2c-1.7-0.6-6.7-1.7-7-2.4c-0.3-0.7,0.4-1.2,0.5-1.9
		c0.1-0.7-1.3-1.8-1.9-4.6C3.9,104.3,4.2,101,4.2,101L4.2,101z"/>
	<path class="st2" d="M10.3,72.5c-1.1,1-1.4-0.1-2.2,0.4c-0.8,0.6-2,11.7,7,14.1c9,2.5,12.1,0.3,12.9-3.1c0.8-3.3-1.5-12.3-1.5-12.3
		s-1.1,0.6-1.9,0.1c-0.8-0.6-1.7-1.4-1.7-3.3c0-1.9,2-5,2.5-5.3c0.6-0.3,3.1-0.3,4.2-1.1c1.1-0.8,3.9-3.9,3.9-4.7
		c0-0.8-0.8-2.8-4.5-4.4c-3.6-1.7-11.6-3.3-14.9,1.9c-3.3,5.3-2.2,9.4-2.2,12.2S10.3,72.5,10.3,72.5z"/>
	<path class="st3" d="M95.9,74.1c0,0,3.3,1,4.6,0.5c1.3-0.5,3.5-3.5,3.5-3.5s5,1.5,5.5,3.3c0.4,1.7,1.1,5.5-0.3,6.4
		c-1.5,0.9-9.6,0.3-12.1-3.5C94.5,73.2,95.9,74.1,95.9,74.1z"/>
	<path class="st1" d="M99,96.3c0,0,0.3,5.6,0,6.3c-0.3,0.7-16.5,11.8-17.9,12.6c-1.4,0.8-2.5,2.2-2.5,3.1s0.8,3.1,1.7,3.1
		c0.8,0,2-2.5,2.5-2.8c0.6-0.3,19.6-9,19.6-9l0.5-14.4L99,96.3L99,96.3z"/>
	<path class="st3" d="M125.8,140.6c3.4-3.7,6.1-8.2,7.6-13.2c0.2-1,0.3-2,0.3-2.9c0-2.8-2-4.7-2-4.7s-32.3,0.3-35.3,0.2
		S84.9,120.7,81,124c-3.9,3.3-2.2,6.9-0.3,8.9c2,1.9,15.7,2.9,15.7,2.9v0c0,0,0.6,2.3,2,3.5c1.4,1.1,3.4,1.4,5,1.4H125.8z"/>
	<path class="st2" d="M135,88.3c-0.3-0.3-0.6-0.7-0.7-0.9c-0.3-0.6-3.4-8.3-6.7-8.6c-3.4-0.3-10.1,1.1-14,0.8
		c-3.9-0.3-4.2-1.4-6.2-1.7c-2-0.3-5,0.3-5,0.3l0,0c-1.4,0.6-3.4,1.7-3.6,3.9c-0.3,2.2-2.2,13.6-2.2,13.6s1.7,1.6,2.9,1.8
		c1.2,0.2,2.8-0.1,2.9-1c-0.2,1.5-1.8,24.1-1.8,24.1l31.9-0.4c0,0-3.4-10.8-3.9-14.4c-0.6-3.6,0.3-9.2,0.3-9.2l-1.4-4.2
		c0,0,4.5-0.6,5.9-1.1c0.7-0.3,1.4-0.9,1.8-1.4V88.3z"/>
	<path class="st1" d="M135,92.8c-0.7-2.1-1.3-3.7-1.3-3.7l-7,2.5c0,0,3.4,10.3,3.6,11.4c0.3,1.1-1.7,6.4-2,8.3
		c-0.3,1.9-1.1,5.8-1.1,7.2c0,1.4-2.5,3.9-3.4,5c-0.8,1.1-0.6,1.9,1.4,3.1c2,1.1,5.6-4.4,6.2-5.3c0.3-0.4,2-5,3.5-9.5V92.8z"/>
	<path class="st1" d="M104.3,58.5c0,0-4.8,0.8-3.6,8.3c1.1,7.5,5,7.2,6.7,7.8c1.7,0.6,2.2,4.7,2.2,4.7s2,1.9,5.6,1.1
		c3.6-0.8,3.9-7.8,2.2-13C115.8,62.1,104.3,58.5,104.3,58.5z"/>
	<path class="st3" d="M101.5,58c0.3-0.6,8.4-6.7,14.3-2.8c5.9,3.9,5.3,7.2,5.9,10.8c0.6,3.6,5,6.1,5.6,7.5c0.6,1.4,1.3,5.6,1.3,5.6
		s-2.7-0.6-4.1,0.5c-1.4,1.1-5.1,4.3-7,5.5c-3.1,1.9-10.9-0.3-10.7-1.1c0.3-0.8,1.7-0.3,2.7-1.1c1-0.8,1.8-6.1,1.3-8.3
		c-0.6-2.2-1.5-3.2-1.5-4.6c0.1-1.5,0.1-4.8-0.8-5.1c-0.8-0.3-3.9-0.6-5-1.9S101.5,58,101.5,58L101.5,58z"/>
	<path class="st2" d="M42.8,122.9c1.1,0,2-0.8,2-1.8c0-1-0.9-1.8-2-1.8s-2,0.8-2,1.8C40.8,122.1,41.7,122.9,42.8,122.9z"/>
	<path class="st2" d="M46.3,119.7c1.1,0,2-0.8,2-1.8c0-1-0.9-1.8-2-1.8c-1.1,0-2,0.8-2,1.8C44.4,118.9,45.2,119.7,46.3,119.7z"/>
	<path class="st2" d="M46.3,123.2c1.1,0,2-0.8,2-1.8c0-1-0.9-1.8-2-1.8c-1.1,0-2,0.8-2,1.8C44.4,122.3,45.2,123.2,46.3,123.2z"/>
	<path class="st2" d="M49.5,121.5c1.1,0,2-0.8,2-1.8c0-1-0.9-1.8-2-1.8c-1.1,0-2,0.8-2,1.8C47.5,120.7,48.4,121.5,49.5,121.5z"/>
	<path class="st2" d="M50.2,124.3c1.1,0,2-0.8,2-1.8c0-1-0.9-1.8-2-1.8c-1.1,0-2,0.8-2,1.8C48.2,123.5,49.1,124.3,50.2,124.3z"/>
	<path class="st2" d="M52.9,122c1.1,0,2-0.8,2-1.8s-0.9-1.8-2-1.8c-1.1,0-2,0.8-2,1.8S51.8,122,52.9,122z"/>
	<path class="st2" d="M55.5,123.8c1.1,0,2-0.8,2-1.8c0-1-0.9-1.8-2-1.8c-1.1,0-2,0.8-2,1.8C53.5,123,54.4,123.8,55.5,123.8z"/>
	<path class="st2" d="M51.9,119.3c1.1,0,2-0.8,2-1.8c0-1-0.9-1.8-2-1.8s-2,0.8-2,1.8C49.9,118.5,50.8,119.3,51.9,119.3z"/>
	<path class="st5" d="M40.8,119.7c0,0,5.5,1.6,8.4,1.6c3,0,8.2-0.6,8.2-0.6s0.5,3.8-0.8,5.3c-1.2,1.5-5.3,3-5.3,3h-6.3
		c0,0-3.1-1-4.3-2.9C38.9,123.1,40.8,119.7,40.8,119.7L40.8,119.7z"/>
	<path class="st4" d="M59.1,126.3c0,0,2.6-1.9,5.6-2.2c2.9-0.3,3.6-2.8,5.6-2.6c2,0.3,6.7,4.8,6.7,4.8s-3.6,6.1-8.8,6.4
		C63,132.9,59.1,126.3,59.1,126.3L59.1,126.3z"/>
	<path class="st3" d="M59.3,125.1c0,0,5.9,2,9,2c3.2,0,8.8-0.7,8.8-0.7s0.5,4.7-0.8,6.6c-1.3,1.8-5.7,3.7-5.7,3.7h-6.8
		c0,0-3.3-1.3-4.6-3.7C57.3,129.2,59.3,125.1,59.3,125.1L59.3,125.1z"/>
	<path class="st5" d="M43.8,149.2c12.1,0,21.9-2.2,21.9-4.8c0-2.7-9.8-4.8-21.9-4.8c-12.1,0-21.9,2.2-21.9,4.8
		C21.9,147,31.8,149.2,43.8,149.2z"/>
	<path class="st3" d="M37.9,132.3c0,0-2.3-4.1-5.4-3.9c-3.1,0.2-3.5,6.9-3.5,6.9s-2.8-0.3-4,1.8c-1.2,2.1-0.5,5-0.5,5
		s2.4,6.1,9.8,3.3c7.3-2.8,18.2-6,14.2-9.3C44.5,132.8,37.9,132.3,37.9,132.3z"/>
	<path class="st1" d="M38.3,147.3c2.1,0,3.7-1.7,3.7-3.8s-1.7-3.8-3.7-3.8s-3.7,1.7-3.7,3.8S36.3,147.3,38.3,147.3z"/>
	<path class="st1" d="M53.5,148.2c3.6,0,6.5-1.1,6.5-2.4c0-1.3-2.9-2.4-6.5-2.4c-3.6,0-6.5,1.1-6.5,2.4
		C47,147.1,49.9,148.2,53.5,148.2z"/>
	<path class="st1" d="M56.7,145.7c3.6,0,6.5-1.1,6.5-2.4c0-1.3-2.9-2.4-6.5-2.4c-3.6,0-6.5,1.1-6.5,2.4
		C50.2,144.7,53.1,145.7,56.7,145.7z"/>
	<path class="st1" d="M51.6,145.8c3.6,0,6.5-1.1,6.5-2.4c0-1.3-2.9-2.4-6.5-2.4c-3.6,0-6.5,1.1-6.5,2.4
		C45.1,144.7,48,145.8,51.6,145.8z"/>
	<path class="st2" d="M40.1,137.8c0,0,1.7,6.8,9.4,6.2s8.1-8.7,8.1-8.7L40.1,137.8L40.1,137.8z"/>
</g>
</svg>
