<?xml version="1.0" encoding="UTF-8"?>
<svg xmlns="http://www.w3.org/2000/svg" xmlns:xlink="http://www.w3.org/1999/xlink" width="133px" height="150px" viewBox="0 0 133 149" version="1.1">
<g id="surface1">
<path style=" stroke:none;fill-rule:nonzero;fill:rgb(98.823529%,76.862746%,84.313726%);fill-opacity:1;" d="M 34.226562 0 L 97.792969 0 C 116.667969 0 132.023438 15.289062 132.023438 34.085938 L 132.023438 113.941406 C 132.023438 132.738281 116.667969 148.027344 97.792969 148.027344 L 34.226562 148.027344 C 15.355469 148.027344 0 132.738281 0 113.941406 L 0 34.085938 C 0 15.289062 15.355469 0 34.226562 0 Z M 34.226562 0 "/>
<path style=" stroke:none;fill-rule:nonzero;fill:rgb(98.823529%,76.862746%,84.313726%);fill-opacity:1;" d="M 34.226562 0 L 97.792969 0 C 116.667969 0 132.023438 15.289062 132.023438 34.085938 L 132.023438 113.941406 C 132.023438 132.738281 116.667969 148.027344 97.792969 148.027344 L 34.226562 148.027344 C 15.355469 148.027344 0 132.738281 0 113.941406 L 0 34.085938 C 0 15.289062 15.355469 0 34.226562 0 Z M 34.226562 0 "/>
<path style=" stroke:none;fill-rule:nonzero;fill:rgb(98.823529%,76.862746%,84.313726%);fill-opacity:1;" d="M 34.226562 0 L 97.792969 0 C 116.667969 0 132.023438 15.289062 132.023438 34.085938 L 132.023438 113.941406 C 132.023438 132.738281 116.667969 148.027344 97.792969 148.027344 L 34.226562 148.027344 C 15.355469 148.027344 0 132.738281 0 113.941406 L 0 34.085938 C 0 15.289062 15.355469 0 34.226562 0 Z M 34.226562 0 "/>
<path style=" stroke:none;fill-rule:nonzero;fill:rgb(100%,100%,100%);fill-opacity:1;" d="M 127.035156 121.828125 L 108.941406 121.632812 C 109.429688 123.777344 109.824219 125.820312 110.019531 127.476562 C 110.019531 127.476562 110.019531 127.574219 110.019531 127.574219 C 116.179688 127.769531 122.730469 128.0625 128.894531 128.355469 Z M 127.035156 121.828125 "/>
<path style=" stroke:none;fill-rule:nonzero;fill:rgb(94.509804%,31.37255%,23.529412%);fill-opacity:1;" d="M 52.710938 109.851562 L 65.132812 109.949219 L 65.328125 103.519531 C 61.21875 103.617188 57.015625 103.714844 52.808594 103.714844 C 52.710938 105.957031 52.808594 108.097656 52.710938 109.851562 Z M 52.710938 109.851562 "/>
<path style=" stroke:none;fill-rule:nonzero;fill:rgb(94.509804%,31.37255%,23.529412%);fill-opacity:1;" d="M 103.269531 97.09375 C 103.5625 98.066406 103.957031 99.332031 104.445312 100.792969 L 121.851562 100.988281 L 120.679688 96.800781 C 115.105469 96.800781 109.53125 96.898438 103.269531 97.09375 Z M 103.269531 97.09375 "/>
<path style=" stroke:none;fill-rule:nonzero;fill:rgb(94.509804%,31.37255%,23.529412%);fill-opacity:1;" d="M 88.015625 122.21875 L 88.308594 127.867188 C 93.199219 127.964844 99.847656 128.0625 107.183594 128.355469 L 106.007812 122.414062 Z M 88.015625 122.21875 "/>
<path style=" stroke:none;fill-rule:nonzero;fill:rgb(100%,100%,100%);fill-opacity:1;" d="M 107.574219 131.375 L 88.40625 131.375 L 88.699219 137.507812 L 108.84375 137.507812 Z M 107.574219 131.375 "/>
<path style=" stroke:none;fill-rule:nonzero;fill:rgb(100%,100%,100%);fill-opacity:1;" d="M 67.671875 106.246094 C 67.769531 107.027344 67.769531 108.292969 67.671875 110.046875 L 77.941406 110.144531 C 80.582031 110.046875 83.222656 109.851562 85.765625 109.753906 L 85.472656 102.742188 C 80.289062 103.035156 74.03125 103.324219 67.378906 103.519531 C 67.476562 104.398438 67.574219 105.371094 67.671875 106.246094 Z M 67.671875 106.246094 "/>
<path style=" stroke:none;fill-rule:nonzero;fill:rgb(94.509804%,31.37255%,23.529412%);fill-opacity:1;" d="M 85.082031 134.976562 C 84.984375 134.390625 85.082031 133.125 85.179688 131.375 L 66.109375 131.375 C 65.914062 133.515625 65.621094 135.5625 65.425781 137.605469 L 85.375 137.605469 C 85.277344 136.4375 85.082031 135.464844 85.082031 134.976562 Z M 85.082031 134.976562 "/>
<path style=" stroke:none;fill-rule:nonzero;fill:rgb(94.509804%,31.37255%,23.529412%);fill-opacity:1;" d="M 66.988281 119.882812 C 73.148438 119.492188 79.703125 119.199219 85.960938 119.003906 C 85.960938 118.714844 86.058594 118.324219 86.058594 118.03125 L 85.765625 112.089844 L 77.84375 111.992188 C 74.324219 112.1875 70.804688 112.285156 67.574219 112.382812 C 67.476562 114.527344 67.28125 117.15625 66.988281 119.882812 Z M 66.988281 119.882812 "/>
<path style=" stroke:none;fill-rule:nonzero;fill:rgb(100%,100%,100%);fill-opacity:1;" d="M 99.066406 119.101562 C 100.921875 119.199219 103.171875 119.199219 105.617188 119.296875 L 104.25 112.285156 L 88.503906 112.1875 C 88.308594 113.941406 88.113281 115.984375 87.820312 118.128906 L 87.820312 119.101562 C 91.925781 119.003906 95.742188 118.90625 99.066406 119.101562 Z M 99.066406 119.101562 "/>
<path style=" stroke:none;fill-rule:nonzero;fill:rgb(100%,100%,100%);fill-opacity:1;" d="M 102.195312 100.988281 L 88.601562 101.183594 L 88.308594 98.066406 C 93.003906 98.164062 97.011719 97.191406 101.511719 97.289062 C 101.21875 98.359375 102.488281 99.917969 102.195312 100.988281 Z M 102.195312 100.988281 "/>
<path style=" stroke:none;fill-rule:nonzero;fill:rgb(94.509804%,31.37255%,23.529412%);fill-opacity:1;" d="M 89.1875 105.957031 C 89.089844 106.441406 88.894531 107.804688 88.601562 109.65625 C 94.371094 109.363281 99.75 109.070312 104.054688 108.878906 L 102.683594 101.960938 C 99.945312 101.960938 97.792969 102.058594 96.230469 102.15625 C 94.273438 102.253906 91.828125 102.449219 88.992188 102.546875 C 89.1875 104.007812 89.382812 105.273438 89.1875 105.957031 Z M 89.1875 105.957031 "/>
<path style=" stroke:none;fill-rule:nonzero;fill:rgb(100%,100%,100%);fill-opacity:1;" d="M 104.445312 101.960938 C 105.03125 104.007812 105.8125 106.34375 106.496094 108.78125 C 108.355469 108.683594 109.921875 108.683594 111.09375 108.585938 C 113.539062 108.488281 118.527344 108.683594 124.394531 108.878906 L 122.4375 101.867188 C 115.984375 101.960938 109.53125 101.960938 104.445312 101.960938 Z M 104.445312 101.960938 "/>
<path style=" stroke:none;fill-rule:nonzero;fill:rgb(100%,100%,100%);fill-opacity:1;" d="M 49.09375 109.851562 L 50.753906 103.8125 C 49.289062 103.8125 47.820312 103.8125 46.355469 103.8125 C 44.203125 103.8125 41.855469 103.714844 39.507812 103.617188 C 39.214844 104.691406 38.824219 105.566406 38.433594 105.957031 C 38.042969 106.441406 37.0625 107.804688 35.890625 109.851562 Z M 49.09375 109.851562 "/>
<path style=" stroke:none;fill-rule:nonzero;fill:rgb(100%,100%,100%);fill-opacity:1;" d="M 63.078125 131.761719 L 45.179688 131.761719 C 44.398438 133.515625 43.714844 135.269531 42.929688 137.023438 C 48.898438 137.3125 55.9375 137.605469 62.980469 137.898438 Z M 63.078125 131.761719 "/>
<path style=" stroke:none;fill-rule:nonzero;fill:rgb(94.509804%,31.37255%,23.529412%);fill-opacity:1;" d="M 108.648438 118.519531 C 114.027344 118.714844 120.382812 118.90625 126.839844 119.101562 L 124.6875 111.605469 L 106.890625 111.507812 C 107.574219 113.84375 108.160156 116.277344 108.648438 118.519531 Z M 108.648438 118.519531 "/>
<path style=" stroke:none;fill-rule:nonzero;fill:rgb(94.509804%,31.37255%,23.529412%);fill-opacity:1;" d="M 0 111.605469 L 0 114.234375 C 0 115.890625 0.0976562 117.542969 0.390625 119.199219 L 9.191406 119.296875 C 10.660156 116.960938 12.320312 114.332031 14.082031 111.796875 C 8.800781 111.796875 3.910156 111.703125 0 111.605469 Z M 0 111.605469 "/>
<path style=" stroke:none;fill-rule:nonzero;fill:rgb(94.509804%,31.37255%,23.529412%);fill-opacity:1;" d="M 47.722656 119.785156 L 49.679688 112.480469 C 45.769531 112.382812 41.171875 112.285156 36.378906 112.1875 C 35.5 113.648438 34.421875 115.304688 33.445312 117.058594 L 32.371094 119.492188 Z M 47.722656 119.785156 "/>
<path style=" stroke:none;fill-rule:nonzero;fill:rgb(100%,100%,100%);fill-opacity:1;" d="M 44.789062 129.523438 L 46.550781 123.09375 C 46.453125 123.09375 46.453125 123.09375 46.355469 123.09375 C 44.59375 122.996094 38.53125 122.804688 31.097656 122.609375 L 27.675781 130.398438 C 32.078125 130.105469 38.140625 129.816406 44.789062 129.523438 Z M 44.789062 129.523438 "/>
<path style=" stroke:none;fill-rule:nonzero;fill:rgb(94.509804%,31.37255%,23.529412%);fill-opacity:1;" d="M 29.339844 137.3125 C 31.683594 137.410156 35.207031 137.507812 39.605469 137.703125 L 41.074219 132.542969 L 24.253906 132.542969 L 22.199219 137.3125 C 25.035156 137.214844 27.578125 137.214844 29.339844 137.3125 Z M 29.339844 137.3125 "/>
<path style=" stroke:none;fill-rule:nonzero;fill:rgb(100%,100%,100%);fill-opacity:1;" d="M 57.210938 112.675781 C 56.035156 112.675781 54.472656 112.675781 52.613281 112.578125 C 52.515625 113.550781 52.417969 114.429688 52.320312 114.914062 C 52.125 115.597656 51.441406 117.351562 50.460938 119.785156 L 64.933594 119.980469 L 65.132812 112.578125 C 62 112.675781 59.359375 112.675781 57.210938 112.675781 Z M 57.210938 112.675781 "/>
<path style=" stroke:none;fill-rule:nonzero;fill:rgb(94.509804%,31.37255%,23.529412%);fill-opacity:1;" d="M 64.835938 122.121094 C 58.871094 122.511719 53.589844 122.804688 49.875 122.996094 C 49.09375 124.945312 48.113281 127.089844 47.136719 129.425781 C 52.90625 129.132812 59.066406 128.839844 64.640625 128.644531 Z M 64.835938 122.121094 "/>
<path style=" stroke:none;fill-rule:nonzero;fill:rgb(100%,100%,100%);fill-opacity:1;" d="M 85.375 127.867188 C 85.472656 126.113281 85.667969 124.167969 85.863281 122.21875 L 67.085938 122.023438 C 66.890625 124.070312 66.695312 126.308594 66.402344 128.453125 C 72.269531 128.160156 77.453125 127.964844 81.167969 127.867188 C 82.148438 127.867188 83.613281 127.867188 85.375 127.867188 Z M 85.375 127.867188 "/>
<path style=" stroke:none;fill-rule:nonzero;fill:rgb(100%,100%,100%);fill-opacity:1;" d="M 17.210938 111.894531 L 12.910156 119.296875 L 29.535156 119.492188 C 30.023438 118.714844 30.511719 117.835938 31 117.058594 L 33.152344 112.1875 C 27.871094 112.089844 22.394531 111.992188 17.210938 111.894531 Z M 17.210938 111.894531 "/>
<path style=" stroke:none;fill-rule:nonzero;fill:rgb(94.509804%,31.37255%,23.529412%);fill-opacity:1;" d="M 130.261719 121.925781 C 130.261719 122.023438 130.359375 122.21875 130.359375 122.316406 C 130.457031 122.609375 130.554688 122.996094 130.652344 123.386719 C 130.75 122.902344 130.945312 122.414062 131.042969 121.925781 Z M 130.261719 121.925781 "/>
<path style=" stroke:none;fill-rule:nonzero;fill:rgb(94.509804%,31.37255%,23.529412%);fill-opacity:1;" d="M 110.214844 131.761719 C 110.410156 133.808594 110.703125 135.851562 110.898438 137.898438 L 122.046875 137.898438 C 123.90625 136.046875 125.566406 134.003906 126.9375 131.761719 Z M 110.214844 131.761719 "/>
<path style=" stroke:none;fill-rule:nonzero;fill:rgb(100%,100%,100%);fill-opacity:1;" d="M 52.808594 99.136719 C 52.808594 100.015625 52.90625 100.988281 52.90625 101.960938 L 65.03125 101.574219 L 65.132812 98.75 C 61.511719 98.75 57.601562 99.234375 52.808594 99.136719 Z M 52.808594 99.136719 "/>
<path style=" stroke:none;fill-rule:nonzero;fill:rgb(100%,100%,100%);fill-opacity:1;" d="M 111.09375 141.304688 C 111.289062 142.671875 111.386719 143.9375 111.582031 145.203125 C 114.027344 144.128906 116.375 142.765625 118.527344 141.113281 C 115.789062 141.210938 113.34375 141.210938 111.09375 141.304688 Z M 111.09375 141.304688 "/>
<path style=" stroke:none;fill-rule:nonzero;fill:rgb(100%,100%,100%);fill-opacity:1;" d="M 64.445312 148.027344 L 86.546875 148.027344 C 86.15625 145.785156 85.765625 143.15625 85.472656 141.015625 C 79.605469 140.722656 72.464844 140.429688 65.328125 140.136719 C 65.03125 143.15625 64.738281 145.882812 64.445312 148.027344 Z M 64.445312 148.027344 "/>
<path style=" stroke:none;fill-rule:nonzero;fill:rgb(94.509804%,31.37255%,23.529412%);fill-opacity:1;" d="M 19.949219 101.085938 C 20.832031 99.820312 21.710938 98.75 22.296875 97.96875 C 11.929688 97.679688 4.5 96.3125 4.5 96.3125 C 4.5 96.3125 3.617188 97.679688 2.445312 99.722656 Z M 19.949219 101.085938 "/>
<path style=" stroke:none;fill-rule:nonzero;fill:rgb(94.509804%,31.37255%,23.529412%);fill-opacity:1;" d="M 85.375 100.988281 L 67.476562 101.769531 L 67.085938 98.847656 C 74.421875 98.945312 80.875 98.164062 85.277344 98.164062 C 85.472656 98.164062 85.667969 98.164062 85.863281 98.164062 C 85.667969 99.042969 85.472656 100.015625 85.375 100.988281 Z M 85.375 100.988281 "/>
<path style=" stroke:none;fill-rule:nonzero;fill:rgb(94.509804%,31.37255%,23.529412%);fill-opacity:1;" d="M 101.316406 141.597656 C 99.359375 141.597656 94.761719 141.402344 88.699219 141.113281 L 88.992188 148.027344 L 97.792969 148.027344 C 102.097656 148.027344 106.105469 147.246094 109.921875 145.785156 L 109.039062 141.5 C 105.421875 141.597656 102.683594 141.597656 101.316406 141.597656 Z M 101.316406 141.597656 "/>
<path style=" stroke:none;fill-rule:nonzero;fill:rgb(94.509804%,31.37255%,23.529412%);fill-opacity:1;" d="M 39.3125 148.027344 L 62.6875 148.027344 L 62.882812 140.722656 L 42.441406 140.722656 C 41.269531 143.449219 40.195312 145.882812 39.3125 148.027344 Z M 39.3125 148.027344 "/>
<path style=" stroke:none;fill-rule:nonzero;fill:rgb(100%,100%,100%);fill-opacity:1;" d="M 4.105469 130.496094 L 4.5 130.496094 C 5.085938 129.230469 5.671875 127.867188 6.257812 126.601562 C 6.945312 125.238281 7.824219 123.582031 8.800781 121.828125 C 5.964844 121.730469 3.226562 121.632812 0.683594 121.539062 C 1.46875 124.75 2.640625 127.769531 4.105469 130.496094 Z M 4.105469 130.496094 "/>
<path style=" stroke:none;fill-rule:nonzero;fill:rgb(100%,100%,100%);fill-opacity:1;" d="M 22.394531 101.085938 L 37.0625 101.476562 L 38.335938 98.554688 C 33.445312 98.457031 28.554688 98.164062 24.15625 98.066406 Z M 22.394531 101.085938 "/>
<path style=" stroke:none;fill-rule:nonzero;fill:rgb(94.509804%,31.37255%,23.529412%);fill-opacity:1;" d="M 40.488281 101.28125 L 50.65625 101.769531 L 50.167969 98.945312 C 47.429688 98.847656 43.8125 98.359375 40.976562 98.359375 C 40.78125 99.234375 40.585938 100.308594 40.488281 101.28125 Z M 40.488281 101.28125 "/>
<path style=" stroke:none;fill-rule:nonzero;fill:rgb(94.509804%,31.37255%,23.529412%);fill-opacity:1;" d="M 33.347656 109.753906 L 36.085938 103.519531 C 31.292969 103.324219 26.207031 103.035156 21.417969 102.742188 L 17.40625 109.65625 Z M 33.347656 109.753906 "/>
<path style=" stroke:none;fill-rule:nonzero;fill:rgb(100%,100%,100%);fill-opacity:1;" d="M 19.167969 144.910156 C 23.765625 147.148438 28.847656 148.414062 34.226562 148.414062 L 36.671875 148.414062 L 38.726562 140.820312 L 20.832031 140.820312 Z M 19.167969 144.910156 "/>
<path style=" stroke:none;fill-rule:nonzero;fill:rgb(94.509804%,31.37255%,23.529412%);fill-opacity:1;" d="M 16.917969 143.644531 C 17.210938 142.671875 17.601562 141.695312 17.894531 140.722656 L 12.714844 140.722656 C 13.984375 141.792969 15.355469 142.765625 16.917969 143.644531 Z M 16.917969 143.644531 "/>
<path style=" stroke:none;fill-rule:nonzero;fill:rgb(94.509804%,31.37255%,23.529412%);fill-opacity:1;" d="M 23.960938 130.398438 C 24.9375 128.550781 26.601562 125.628906 28.457031 122.511719 C 23.371094 122.316406 17.601562 122.121094 12.027344 121.925781 L 7.042969 130.496094 L 19.558594 130.496094 C 19.949219 130.496094 20.242188 130.496094 20.632812 130.496094 C 21.515625 130.496094 22.589844 130.398438 23.960938 130.398438 Z M 23.960938 130.398438 "/>
<path style=" stroke:none;fill-rule:nonzero;fill:rgb(100%,100%,100%);fill-opacity:1;" d="M 21.320312 134.101562 C 21.417969 133.808594 21.710938 133.222656 22.101562 132.542969 L 17.796875 132.542969 C 14.960938 132.542969 10.367188 132.640625 5.183594 132.640625 L 1.367188 138.480469 C 7.824219 138.289062 14.960938 137.410156 20.242188 137.3125 C 20.632812 135.851562 21.027344 134.683594 21.320312 134.101562 Z M 21.320312 134.101562 "/>
<path style=" stroke:none;fill-rule:nonzero;fill:rgb(10.588235%,9.803922%,26.666668%);fill-opacity:1;" d="M 28.457031 53.464844 C 28.457031 53.464844 33.152344 55.898438 33.152344 58.820312 C 33.152344 61.742188 32.859375 67.195312 28.75 68.851562 C 24.644531 70.507812 21.320312 71.285156 19.949219 69.921875 C 18.582031 68.65625 28.457031 53.464844 28.457031 53.464844 Z M 28.457031 53.464844 "/>
<path style=" stroke:none;fill-rule:nonzero;fill:rgb(10.588235%,9.803922%,26.666668%);fill-opacity:1;" d="M 33.152344 84.433594 L 35.597656 92.125 C 35.597656 92.125 37.75 81.023438 38.335938 78.394531 C 38.921875 75.765625 39.410156 70.605469 41.660156 69.726562 C 43.8125 68.949219 48.015625 68.363281 48.015625 69.4375 C 48.015625 70.507812 46.941406 70.507812 46.648438 71.089844 C 46.355469 71.675781 46.0625 72.746094 45.277344 72.941406 C 44.496094 73.234375 43.910156 72.941406 43.910156 73.722656 C 43.910156 74.5 44.496094 98.066406 40.585938 99.625 C 36.769531 101.183594 32.859375 98.554688 32.859375 98.554688 Z M 33.152344 84.433594 "/>
<path style=" stroke:none;fill-rule:nonzero;fill:rgb(41.568628%,40.784314%,80.784315%);fill-opacity:1;" d="M 43.03125 106.148438 C 39.507812 106.148438 34.816406 105.371094 34.128906 103.714844 C 33.445312 102.058594 33.738281 100.210938 33.933594 98.261719 C 34.226562 96.410156 34.519531 77.226562 31.78125 73.914062 C 29.042969 70.703125 20.832031 71.480469 17.210938 71.773438 C 17.210938 71.773438 11.441406 72.066406 7.335938 73.914062 C 3.226562 75.765625 0.976562 85.796875 0.78125 91.445312 C 0.585938 94.855469 0.292969 103.519531 0 109.949219 L 0 114.136719 C 0 122.996094 3.421875 130.984375 8.898438 137.117188 C 12.417969 134.390625 15.257812 130.496094 16.625 129.328125 C 19.070312 127.1875 36.378906 120.660156 44.886719 118.226562 C 53.394531 115.792969 53.6875 115.011719 53.101562 110.628906 C 52.613281 106.441406 46.550781 106.148438 43.03125 106.148438 Z M 43.03125 106.148438 "/>
<path style=" stroke:none;fill-rule:nonzero;fill:rgb(10.588235%,9.803922%,26.666668%);fill-opacity:1;" d="M 4.105469 98.359375 C 4.105469 98.359375 6.257812 99.136719 7.433594 99.136719 C 8.605469 99.136719 10.757812 98.359375 10.757812 98.359375 L 11.246094 104.882812 C 11.246094 104.882812 31.585938 115.402344 32.957031 116.277344 C 34.324219 117.058594 37.0625 117.933594 37.0625 119.785156 C 37.0625 121.632812 36.769531 122.996094 35.695312 122.996094 C 34.617188 122.996094 32.957031 120.855469 31.585938 119.980469 C 30.21875 119.199219 14.277344 113.453125 12.617188 112.96875 C 10.953125 112.382812 6.0625 111.3125 5.769531 110.628906 C 5.476562 109.949219 6.160156 109.460938 6.257812 108.78125 C 6.355469 108.097656 4.988281 107.027344 4.402344 104.300781 C 3.8125 101.574219 4.105469 98.359375 4.105469 98.359375 Z M 4.105469 98.359375 "/>
<path style=" stroke:none;fill-rule:nonzero;fill:rgb(94.509804%,31.37255%,23.529412%);fill-opacity:1;" d="M 10.074219 70.605469 C 8.996094 71.578125 8.703125 70.507812 7.921875 70.992188 C 7.140625 71.578125 5.964844 82.386719 14.765625 84.726562 C 23.570312 87.160156 26.601562 85.019531 27.382812 81.707031 C 28.164062 78.492188 25.914062 69.726562 25.914062 69.726562 C 25.914062 69.726562 24.839844 70.3125 24.058594 69.824219 C 23.273438 69.242188 22.394531 68.460938 22.394531 66.613281 C 22.394531 64.761719 24.351562 61.742188 24.839844 61.449219 C 25.425781 61.15625 27.871094 61.15625 28.945312 60.378906 C 30.023438 59.601562 32.761719 56.582031 32.761719 55.800781 C 32.761719 55.023438 31.980469 53.074219 28.359375 51.515625 C 24.839844 49.863281 17.015625 48.304688 13.789062 53.367188 C 10.5625 58.527344 11.636719 62.523438 11.636719 65.25 C 11.636719 67.976562 10.074219 70.605469 10.074219 70.605469 Z M 10.074219 70.605469 "/>
<path style=" stroke:none;fill-rule:nonzero;fill:rgb(10.588235%,9.803922%,26.666668%);fill-opacity:1;" d="M 93.785156 72.164062 C 93.785156 72.164062 97.011719 73.136719 98.28125 72.648438 C 99.554688 72.164062 101.707031 69.242188 101.707031 69.242188 C 101.707031 69.242188 106.59375 70.703125 107.085938 72.453125 C 107.476562 74.109375 108.160156 77.8125 106.792969 78.6875 C 105.324219 79.5625 97.402344 78.980469 94.957031 75.277344 C 92.414062 71.285156 93.785156 72.164062 93.785156 72.164062 Z M 93.785156 72.164062 "/>
<path style=" stroke:none;fill-rule:nonzero;fill:rgb(100%,100%,100%);fill-opacity:1;" d="M 96.816406 93.78125 C 96.816406 93.78125 97.109375 99.234375 96.816406 99.917969 C 96.523438 100.597656 80.679688 111.410156 79.3125 112.1875 C 77.941406 112.96875 76.867188 114.332031 76.867188 115.207031 C 76.867188 116.082031 77.648438 118.226562 78.527344 118.226562 C 79.3125 118.226562 80.484375 115.792969 80.972656 115.5 C 81.558594 115.207031 100.140625 106.734375 100.140625 106.734375 L 100.628906 92.710938 Z M 96.816406 93.78125 "/>
<path style=" stroke:none;fill-rule:nonzero;fill:rgb(10.588235%,9.803922%,26.666668%);fill-opacity:1;" d="M 123.023438 136.925781 C 126.351562 133.320312 128.992188 128.9375 130.457031 124.070312 C 130.652344 123.09375 130.75 122.121094 130.75 121.246094 C 130.75 118.519531 128.792969 116.667969 128.792969 116.667969 C 128.792969 116.667969 97.207031 116.960938 94.273438 116.863281 C 91.339844 116.765625 83.027344 117.542969 79.214844 120.757812 C 75.398438 123.972656 77.0625 127.476562 78.917969 129.425781 C 80.875 131.277344 94.273438 132.25 94.273438 132.25 C 94.273438 132.25 94.859375 134.488281 96.230469 135.65625 C 97.597656 136.730469 99.554688 137.023438 101.117188 137.023438 L 123.023438 137.023438 Z M 123.023438 136.925781 "/>
<path style=" stroke:none;fill-rule:nonzero;fill:rgb(94.509804%,31.37255%,23.529412%);fill-opacity:1;" d="M 132.023438 85.992188 C 131.730469 85.699219 131.433594 85.308594 131.335938 85.113281 C 131.042969 84.53125 128.011719 77.03125 124.785156 76.738281 C 121.460938 76.449219 114.90625 77.8125 111.09375 77.519531 C 107.28125 77.226562 106.988281 76.15625 105.03125 75.863281 C 103.074219 75.570312 100.140625 76.15625 100.140625 76.15625 C 98.773438 76.738281 96.816406 77.8125 96.621094 79.953125 C 96.328125 82.097656 94.46875 93.199219 94.46875 93.199219 C 94.46875 93.199219 96.132812 94.757812 97.304688 94.949219 C 98.480469 95.144531 100.042969 94.855469 100.140625 93.976562 C 99.945312 95.4375 98.382812 117.445312 98.382812 117.445312 L 129.578125 117.058594 C 129.578125 117.058594 126.253906 106.539062 125.761719 103.035156 C 125.175781 99.527344 126.054688 94.074219 126.054688 94.074219 L 124.6875 89.984375 C 124.6875 89.984375 129.089844 89.398438 130.457031 88.914062 C 131.140625 88.621094 131.828125 88.035156 132.21875 87.550781 L 132.21875 85.992188 Z M 132.023438 85.992188 "/>
<path style=" stroke:none;fill-rule:nonzero;fill:rgb(100%,100%,100%);fill-opacity:1;" d="M 132.023438 90.375 C 131.335938 88.328125 130.75 86.769531 130.75 86.769531 L 123.90625 89.207031 C 123.90625 89.207031 127.230469 99.234375 127.425781 100.308594 C 127.71875 101.378906 125.761719 106.539062 125.46875 108.390625 C 125.175781 110.242188 124.394531 114.039062 124.394531 115.402344 C 124.394531 116.765625 121.949219 119.199219 121.070312 120.269531 C 120.285156 121.34375 120.480469 122.121094 122.4375 123.289062 C 124.394531 124.363281 127.914062 119.003906 128.5 118.128906 C 128.792969 117.738281 130.457031 113.257812 131.925781 108.878906 L 131.925781 90.375 Z M 132.023438 90.375 "/>
<path style=" stroke:none;fill-rule:nonzero;fill:rgb(100%,100%,100%);fill-opacity:1;" d="M 102 56.96875 C 102 56.96875 97.304688 57.75 98.480469 65.054688 C 99.554688 72.359375 103.367188 72.066406 105.03125 72.648438 C 106.695312 73.234375 107.183594 77.226562 107.183594 77.226562 C 107.183594 77.226562 109.136719 79.078125 112.660156 78.296875 C 116.179688 77.519531 116.472656 70.703125 114.808594 65.636719 C 113.246094 60.476562 102 56.96875 102 56.96875 Z M 102 56.96875 "/>
<path style=" stroke:none;fill-rule:nonzero;fill:rgb(10.588235%,9.803922%,26.666668%);fill-opacity:1;" d="M 99.261719 56.484375 C 99.554688 55.898438 107.476562 49.957031 113.246094 53.757812 C 119.015625 57.554688 118.429688 60.769531 119.015625 64.273438 C 119.601562 67.78125 123.90625 70.214844 124.492188 71.578125 C 125.078125 72.941406 125.761719 77.03125 125.761719 77.03125 C 125.761719 77.03125 123.121094 76.449219 121.753906 77.519531 C 120.382812 78.589844 116.765625 81.707031 114.90625 82.875 C 111.875 84.726562 104.25 82.582031 104.445312 81.804688 C 104.738281 81.023438 106.105469 81.511719 107.085938 80.734375 C 108.0625 79.953125 108.84375 74.792969 108.355469 72.648438 C 107.769531 70.507812 106.890625 69.535156 106.890625 68.171875 C 106.988281 66.710938 106.988281 63.496094 106.105469 63.203125 C 105.324219 62.910156 102.292969 62.617188 101.21875 61.351562 C 100.140625 60.085938 99.261719 56.484375 99.261719 56.484375 Z M 99.261719 56.484375 "/>
<path style=" stroke:none;fill-rule:nonzero;fill:rgb(94.509804%,31.37255%,23.529412%);fill-opacity:1;" d="M 41.855469 119.6875 C 42.929688 119.6875 43.8125 118.90625 43.8125 117.933594 C 43.8125 116.960938 42.929688 116.179688 41.855469 116.179688 C 40.78125 116.179688 39.898438 116.960938 39.898438 117.933594 C 39.898438 118.90625 40.78125 119.6875 41.855469 119.6875 Z M 41.855469 119.6875 "/>
<path style=" stroke:none;fill-rule:nonzero;fill:rgb(94.509804%,31.37255%,23.529412%);fill-opacity:1;" d="M 45.277344 116.570312 C 46.355469 116.570312 47.234375 115.792969 47.234375 114.816406 C 47.234375 113.84375 46.355469 113.066406 45.277344 113.066406 C 44.203125 113.066406 43.324219 113.84375 43.324219 114.816406 C 43.421875 115.792969 44.203125 116.570312 45.277344 116.570312 Z M 45.277344 116.570312 "/>
<path style=" stroke:none;fill-rule:nonzero;fill:rgb(94.509804%,31.37255%,23.529412%);fill-opacity:1;" d="M 45.277344 119.980469 C 46.355469 119.980469 47.234375 119.199219 47.234375 118.226562 C 47.234375 117.253906 46.355469 116.472656 45.277344 116.472656 C 44.203125 116.472656 43.324219 117.253906 43.324219 118.226562 C 43.421875 119.101562 44.203125 119.980469 45.277344 119.980469 Z M 45.277344 119.980469 "/>
<path style=" stroke:none;fill-rule:nonzero;fill:rgb(94.509804%,31.37255%,23.529412%);fill-opacity:1;" d="M 48.40625 118.324219 C 49.484375 118.324219 50.363281 117.542969 50.363281 116.570312 C 50.363281 115.597656 49.484375 114.816406 48.40625 114.816406 C 47.332031 114.816406 46.453125 115.597656 46.453125 116.570312 C 46.453125 117.542969 47.332031 118.324219 48.40625 118.324219 Z M 48.40625 118.324219 "/>
<path style=" stroke:none;fill-rule:nonzero;fill:rgb(94.509804%,31.37255%,23.529412%);fill-opacity:1;" d="M 49.09375 121.050781 C 50.167969 121.050781 51.046875 120.269531 51.046875 119.296875 C 51.046875 118.324219 50.167969 117.542969 49.09375 117.542969 C 48.015625 117.542969 47.136719 118.324219 47.136719 119.296875 C 47.136719 120.269531 48.015625 121.050781 49.09375 121.050781 Z M 49.09375 121.050781 "/>
<path style=" stroke:none;fill-rule:nonzero;fill:rgb(94.509804%,31.37255%,23.529412%);fill-opacity:1;" d="M 51.734375 118.808594 C 52.808594 118.808594 53.6875 118.03125 53.6875 117.058594 C 53.6875 116.082031 52.808594 115.304688 51.734375 115.304688 C 50.65625 115.304688 49.777344 116.082031 49.777344 117.058594 C 49.777344 118.03125 50.65625 118.808594 51.734375 118.808594 Z M 51.734375 118.808594 "/>
<path style=" stroke:none;fill-rule:nonzero;fill:rgb(94.509804%,31.37255%,23.529412%);fill-opacity:1;" d="M 54.277344 120.5625 C 55.351562 120.5625 56.230469 119.785156 56.230469 118.808594 C 56.230469 117.835938 55.351562 117.058594 54.277344 117.058594 C 53.199219 117.058594 52.320312 117.835938 52.320312 118.808594 C 52.320312 119.785156 53.199219 120.5625 54.277344 120.5625 Z M 54.277344 120.5625 "/>
<path style=" stroke:none;fill-rule:nonzero;fill:rgb(94.509804%,31.37255%,23.529412%);fill-opacity:1;" d="M 50.753906 116.179688 C 51.832031 116.179688 52.710938 115.402344 52.710938 114.429688 C 52.710938 113.453125 51.832031 112.675781 50.753906 112.675781 C 49.679688 112.675781 48.800781 113.453125 48.800781 114.429688 C 48.800781 115.402344 49.679688 116.179688 50.753906 116.179688 Z M 50.753906 116.179688 "/>
<path style=" stroke:none;fill-rule:nonzero;fill:rgb(98.823529%,81.568629%,86.274511%);fill-opacity:1;" d="M 39.898438 116.570312 C 39.898438 116.570312 45.277344 118.128906 48.113281 118.128906 C 51.046875 118.128906 56.132812 117.542969 56.132812 117.542969 C 56.132812 117.542969 56.621094 121.246094 55.351562 122.707031 C 54.179688 124.167969 50.167969 125.628906 50.167969 125.628906 L 44.007812 125.628906 C 44.007812 125.628906 40.976562 124.652344 39.800781 122.804688 C 38.042969 119.882812 39.898438 116.570312 39.898438 116.570312 Z M 39.898438 116.570312 "/>
<path style=" stroke:none;fill-rule:nonzero;fill:rgb(41.568628%,40.784314%,80.784315%);fill-opacity:1;" d="M 57.796875 122.996094 C 57.796875 122.996094 60.339844 121.148438 63.273438 120.855469 C 66.109375 120.5625 66.792969 118.128906 68.75 118.324219 C 70.707031 118.617188 75.300781 122.996094 75.300781 122.996094 C 75.300781 122.996094 71.78125 128.9375 66.695312 129.230469 C 61.609375 129.425781 57.796875 122.996094 57.796875 122.996094 Z M 57.796875 122.996094 "/>
<path style=" stroke:none;fill-rule:nonzero;fill:rgb(10.588235%,9.803922%,26.666668%);fill-opacity:1;" d="M 57.992188 121.828125 C 57.992188 121.828125 63.761719 123.777344 66.792969 123.777344 C 69.921875 123.777344 75.398438 123.09375 75.398438 123.09375 C 75.398438 123.09375 75.886719 127.671875 74.617188 129.523438 C 73.34375 131.277344 69.042969 133.125 69.042969 133.125 L 62.394531 133.125 C 62.394531 133.125 59.164062 131.859375 57.894531 129.523438 C 56.035156 125.820312 57.992188 121.828125 57.992188 121.828125 Z M 57.992188 121.828125 "/>
<path style=" stroke:none;fill-rule:nonzero;fill:rgb(98.823529%,81.568629%,86.274511%);fill-opacity:1;" d="M 42.832031 145.300781 C 54.667969 145.300781 64.25 143.15625 64.25 140.625 C 64.25 137.996094 54.667969 135.949219 42.832031 135.949219 C 31 135.949219 21.417969 138.09375 21.417969 140.625 C 21.417969 143.15625 31.097656 145.300781 42.832031 145.300781 Z M 42.832031 145.300781 "/>
<path style=" stroke:none;fill-rule:nonzero;fill:rgb(10.588235%,9.803922%,26.666668%);fill-opacity:1;" d="M 37.0625 128.839844 C 37.0625 128.839844 34.816406 124.847656 31.78125 125.042969 C 28.75 125.238281 28.359375 131.761719 28.359375 131.761719 C 28.359375 131.761719 25.621094 131.46875 24.449219 133.515625 C 23.273438 135.5625 23.960938 138.386719 23.960938 138.386719 C 23.960938 138.386719 26.304688 144.324219 33.542969 141.597656 C 40.683594 138.871094 51.34375 135.753906 47.429688 132.542969 C 43.519531 129.328125 37.0625 128.839844 37.0625 128.839844 Z M 37.0625 128.839844 "/>
<path style=" stroke:none;fill-rule:nonzero;fill:rgb(100%,100%,100%);fill-opacity:1;" d="M 37.457031 143.449219 C 39.507812 143.449219 41.074219 141.792969 41.074219 139.75 C 41.074219 137.703125 39.410156 136.046875 37.457031 136.046875 C 35.5 136.046875 33.835938 137.703125 33.835938 139.75 C 33.835938 141.792969 35.5 143.449219 37.457031 143.449219 Z M 37.457031 143.449219 "/>
<path style=" stroke:none;fill-rule:nonzero;fill:rgb(100%,100%,100%);fill-opacity:1;" d="M 52.320312 144.324219 C 55.839844 144.324219 58.675781 143.253906 58.675781 141.988281 C 58.675781 140.722656 55.839844 139.652344 52.320312 139.652344 C 48.800781 139.652344 45.964844 140.722656 45.964844 141.988281 C 45.964844 143.253906 48.800781 144.324219 52.320312 144.324219 Z M 52.320312 144.324219 "/>
<path style=" stroke:none;fill-rule:nonzero;fill:rgb(100%,100%,100%);fill-opacity:1;" d="M 55.449219 141.890625 C 58.96875 141.890625 61.804688 140.820312 61.804688 139.554688 C 61.804688 138.289062 58.96875 137.214844 55.449219 137.214844 C 51.929688 137.214844 49.09375 138.289062 49.09375 139.554688 C 49.09375 140.917969 51.929688 141.890625 55.449219 141.890625 Z M 55.449219 141.890625 "/>
<path style=" stroke:none;fill-rule:nonzero;fill:rgb(100%,100%,100%);fill-opacity:1;" d="M 50.460938 141.988281 C 53.980469 141.988281 56.820312 140.917969 56.820312 139.652344 C 56.820312 138.386719 53.980469 137.3125 50.460938 137.3125 C 46.941406 137.3125 44.105469 138.386719 44.105469 139.652344 C 44.105469 140.917969 46.941406 141.988281 50.460938 141.988281 Z M 50.460938 141.988281 "/>
<path style=" stroke:none;fill-rule:nonzero;fill:rgb(94.509804%,31.37255%,23.529412%);fill-opacity:1;" d="M 39.214844 134.199219 C 39.214844 134.199219 40.878906 140.820312 48.40625 140.234375 C 55.9375 139.652344 56.328125 131.761719 56.328125 131.761719 Z M 39.214844 134.199219 "/>
</g>
</svg>
