<?xml version="1.0" encoding="UTF-8"?>
<svg xmlns="http://www.w3.org/2000/svg" xmlns:xlink="http://www.w3.org/1999/xlink" width="132px" height="150px" viewBox="0 0 132 149" version="1.1">
<g id="surface1">
<path style=" stroke:none;fill-rule:nonzero;fill:rgb(98.823529%,76.862746%,84.313726%);fill-opacity:1;" d="M 34.222656 0 L 97.777344 0 C 116.648438 0 132 15.289062 132 34.085938 L 132 113.941406 C 132 132.738281 116.648438 148.027344 97.777344 148.027344 L 34.222656 148.027344 C 15.351562 148.027344 0 132.738281 0 113.941406 L 0 34.085938 C 0 15.289062 15.351562 0 34.222656 0 Z M 34.222656 0 "/>
<path style=" stroke:none;fill-rule:nonzero;fill:rgb(98.823529%,76.862746%,84.313726%);fill-opacity:1;" d="M 34.222656 0.972656 L 97.777344 0.972656 C 116.648438 0.972656 132 16.261719 132 35.058594 L 132 114.914062 C 132 133.710938 116.648438 149 97.777344 149 L 34.222656 149 C 15.351562 149 0 133.710938 0 114.914062 L 0 35.058594 C 0 16.261719 15.351562 0.972656 34.222656 0.972656 Z M 34.222656 0.972656 "/>
<path style=" stroke:none;fill-rule:nonzero;fill:rgb(98.823529%,76.862746%,84.313726%);fill-opacity:1;" d="M 34.222656 0.972656 L 97.777344 0.972656 C 116.648438 0.972656 132 16.261719 132 35.058594 L 132 114.914062 C 132 133.710938 116.648438 149 97.777344 149 L 34.222656 149 C 15.351562 149 0 133.710938 0 114.914062 L 0 35.058594 C 0 16.261719 15.351562 0.972656 34.222656 0.972656 Z M 34.222656 0.972656 "/>
<path style=" stroke:none;fill-rule:nonzero;fill:rgb(98.823529%,76.862746%,84.313726%);fill-opacity:1;" d="M 34.222656 0.972656 L 97.777344 0.972656 C 116.648438 0.972656 132 16.261719 132 35.058594 L 132 114.914062 C 132 133.710938 116.648438 149 97.777344 149 L 34.222656 149 C 15.351562 149 0 133.710938 0 114.914062 L 0 35.058594 C 0 16.261719 15.351562 0.972656 34.222656 0.972656 Z M 34.222656 0.972656 "/>
<path style="fill:none;stroke-width:1;stroke-linecap:butt;stroke-linejoin:miter;stroke:rgb(41.568628%,40.392157%,80.784315%);stroke-opacity:1;stroke-miterlimit:10;" d="M 108.101474 112.399486 C 108.101474 112.399486 113.498757 116.001468 115.000888 123.301699 " transform="matrix(0.977778,0,0,0.973856,0,0)"/>
<path style="fill:none;stroke-width:1;stroke-linecap:butt;stroke-linejoin:miter;stroke:rgb(41.568628%,40.392157%,80.784315%);stroke-opacity:1;stroke-miterlimit:10;" d="M 118.300781 107.999292 C 118.300781 107.999292 118.200906 118.600671 116.499023 121.998086 L 114.801136 125.49979 " transform="matrix(0.977778,0,0,0.973856,0,0)"/>
<path style="fill:none;stroke-width:1;stroke-linecap:butt;stroke-linejoin:miter;stroke:rgb(41.568628%,40.392157%,80.784315%);stroke-opacity:1;stroke-miterlimit:10;" d="M 126.49858 112.800598 C 126.49858 112.800598 119.798917 115.500079 118.999911 123.301699 " transform="matrix(0.977778,0,0,0.973856,0,0)"/>
<path style=" stroke:none;fill-rule:nonzero;fill:rgb(10.588235%,9.803922%,26.666668%);fill-opacity:1;" d="M 25.714844 116.765625 L 24.347656 117.445312 C 24.347656 117.445312 24.152344 104.785156 22.292969 102.449219 C 20.4375 100.210938 18.480469 100.210938 16.132812 99.722656 C 14.472656 99.429688 5.671875 99.527344 -0.0976562 99.917969 L -0.0976562 114.914062 C -0.0976562 120.175781 1.074219 125.140625 3.226562 129.523438 L 26.007812 129.523438 L 31.289062 121.246094 C 31.289062 121.246094 28.84375 121.246094 27.183594 119.882812 C 25.714844 118.519531 25.714844 116.765625 25.714844 116.765625 Z M 25.714844 116.765625 "/>
<path style=" stroke:none;fill-rule:nonzero;fill:rgb(94.509804%,31.37255%,23.529412%);fill-opacity:1;" d="M 127.109375 132.542969 C 121.832031 126.796875 115.085938 122.996094 110.488281 120.464844 C 97.386719 113.257812 69.519531 109.851562 54.363281 114.621094 C 39.207031 119.394531 38.035156 123.09375 35.980469 124.652344 C 32.949219 127.089844 28.746094 129.621094 23.5625 129.621094 C 19.75 129.621094 8.507812 127.769531 2.933594 127.574219 C 2.738281 127.574219 2.640625 127.574219 2.445312 127.574219 C 7.234375 139.652344 18.773438 148.222656 32.363281 149 L 98.558594 149 C 110.683594 148.707031 121.246094 142.183594 127.109375 132.542969 Z M 127.109375 132.542969 "/>
<path style=" stroke:none;fill-rule:nonzero;fill:rgb(100%,100%,100%);fill-opacity:1;" d="M 22.292969 80.636719 C 22.292969 80.636719 25.421875 88.621094 21.609375 93.101562 C 17.796875 97.679688 14.179688 97.679688 13.492188 97.386719 C 12.808594 97.191406 11.441406 97.191406 11.246094 95.535156 C 11.050781 93.976562 11.929688 87.355469 13.101562 86.867188 C 14.277344 86.382812 16.230469 85.992188 18.089844 84.335938 C 19.847656 82.972656 22.292969 80.636719 22.292969 80.636719 Z M 22.292969 80.636719 "/>
<path style=" stroke:none;fill-rule:nonzero;fill:rgb(41.568628%,40.392157%,80.784315%);fill-opacity:1;" d="M 11.441406 74.109375 C 3.714844 74.304688 0.976562 78.6875 0.0976562 80.246094 C 0.0976562 80.34375 0 80.441406 0 80.539062 L 0 113.550781 C 0.976562 114.234375 2.054688 114.71875 3.324219 115.207031 C 14.179688 119.296875 17.40625 111.214844 17.40625 109.65625 C 17.40625 108.195312 15.449219 97.386719 15.449219 97.386719 C 15.449219 97.386719 13.492188 97.871094 12.125 96.605469 C 10.753906 95.242188 11.929688 90.664062 12.808594 89.300781 C 13.6875 87.9375 13.980469 87.746094 13.980469 87.746094 C 13.980469 87.746094 16.914062 87.550781 18.480469 86.382812 C 20.042969 85.210938 23.367188 81.414062 23.269531 80.734375 C 23.269531 79.953125 19.164062 73.914062 11.441406 74.109375 Z M 11.441406 74.109375 "/>
<path style=" stroke:none;fill-rule:nonzero;fill:rgb(100%,100%,100%);fill-opacity:1;" d="M 28.257812 104.691406 C 27.671875 103.714844 31.191406 102.839844 33.441406 104.007812 C 35.6875 105.175781 38.425781 108.78125 37.058594 111.3125 C 35.6875 113.84375 29.820312 122.21875 29.820312 122.21875 C 29.820312 122.21875 28.257812 122.21875 27.085938 121.34375 C 25.910156 120.464844 24.835938 118.421875 24.835938 118.421875 L 31.386719 111.507812 C 31.386719 111.507812 30.507812 110.921875 30.507812 109.851562 C 30.507812 108.683594 31.289062 107.515625 31.09375 107.125 C 30.898438 106.539062 28.648438 105.371094 28.257812 104.691406 Z M 28.257812 104.691406 "/>
<path style=" stroke:none;fill-rule:nonzero;fill:rgb(10.588235%,9.803922%,26.666668%);fill-opacity:1;" d="M 41.164062 72.261719 C 41.164062 72.261719 37.058594 75.183594 38.425781 82 C 39.796875 88.816406 44.195312 90.179688 45.269531 90.472656 C 46.347656 90.761719 48.792969 91.738281 49.085938 92.808594 C 49.28125 93.976562 48.890625 95.339844 48.890625 95.339844 C 48.890625 95.339844 50.0625 97.582031 52.507812 97.871094 C 54.949219 98.066406 58.472656 95.144531 58.472656 95.144531 C 58.472656 95.144531 60.914062 92.90625 59.546875 84.726562 C 58.179688 76.546875 55.050781 77.03125 51.136719 75.667969 C 47.226562 74.304688 41.164062 72.261719 41.164062 72.261719 Z M 41.164062 72.261719 "/>
<path style=" stroke:none;fill-rule:nonzero;fill:rgb(94.509804%,31.37255%,23.529412%);fill-opacity:1;" d="M 39.992188 70.507812 C 40.089844 69.144531 47.03125 64.175781 52.898438 65.539062 C 58.765625 66.902344 62.675781 69.628906 63.554688 73.234375 C 64.4375 76.835938 63.554688 79.371094 64.042969 80.539062 C 64.535156 81.707031 67.664062 85.308594 67.664062 88.71875 C 67.664062 92.125 66.976562 93.488281 66.976562 93.488281 C 66.976562 93.488281 66.097656 92.808594 63.554688 92.808594 C 61.109375 92.808594 57.882812 94.367188 57.882812 94.367188 C 57.882812 94.367188 57.394531 94.171875 57.394531 92.125 C 57.394531 90.082031 58.078125 88.71875 57.394531 87.84375 C 56.710938 86.964844 54.363281 86.285156 54.167969 85.210938 C 53.972656 84.140625 56.222656 81.902344 55.832031 80.34375 C 55.34375 78.785156 54.65625 78.296875 53.972656 78.296875 C 53.289062 78.296875 52.410156 78.296875 52.117188 79.660156 C 51.921875 81.023438 46.640625 79.855469 44.390625 78.101562 C 42.238281 76.15625 39.796875 73.234375 39.992188 70.507812 Z M 39.992188 70.507812 "/>
<path style=" stroke:none;fill-rule:nonzero;fill:rgb(94.509804%,31.37255%,23.529412%);fill-opacity:1;" d="M 32.949219 90.859375 C 32.949219 90.664062 33.148438 90.472656 33.34375 90.570312 C 34.125 90.761719 36.078125 91.152344 37.9375 90.664062 C 40.382812 89.984375 41.457031 88.230469 41.457031 88.230469 C 41.457031 88.230469 45.464844 89.496094 47.128906 90.570312 C 48.890625 91.542969 50.84375 93.394531 48.59375 96.605469 C 46.347656 99.820312 39.109375 98.261719 36.375 96.410156 C 33.636719 94.464844 32.851562 92.90625 32.949219 90.859375 Z M 32.949219 90.859375 "/>
<path style=" stroke:none;fill-rule:nonzero;fill:rgb(41.568628%,40.784314%,80.784315%);fill-opacity:1;" d="M 81.449219 109.070312 C 81.449219 109.070312 70.59375 90.957031 63.554688 92.320312 C 56.515625 93.683594 58.375 96.21875 54.753906 96.605469 C 51.136719 97.09375 50.453125 95.242188 47.519531 95.046875 C 44.585938 94.855469 36.863281 95.535156 35.492188 101.183594 C 34.125 106.832031 35.6875 120.660156 35.6875 120.660156 C 35.6875 120.660156 37.449219 119.296875 38.816406 119.003906 C 40.1875 118.714844 41.554688 118.03125 42.730469 118.03125 C 43.902344 118.03125 44.292969 118.714844 44.292969 118.714844 L 65.023438 112.96875 L 65.804688 109.363281 C 65.804688 109.363281 68.738281 115.5 69.421875 115.695312 C 70.105469 115.890625 80.960938 109.949219 81.449219 109.070312 Z M 81.449219 109.070312 "/>
<path style=" stroke:none;fill-rule:nonzero;fill:rgb(10.588235%,9.803922%,26.666668%);fill-opacity:1;" d="M 99.050781 91.152344 C 98.167969 92.03125 91.324219 124.75 84.96875 126.113281 C 78.613281 127.476562 70.496094 113.648438 70.496094 113.648438 L 79.492188 108.683594 C 79.492188 108.683594 81.546875 112.675781 82.230469 112.480469 C 82.914062 112.285156 92.007812 91.347656 93.085938 89.59375 C 94.257812 87.746094 95.820312 85.308594 100.320312 86.671875 C 104.816406 88.035156 103.9375 89.207031 103.742188 90.082031 C 103.644531 90.859375 99.050781 91.152344 99.050781 91.152344 Z M 99.050781 91.152344 "/>
<path style=" stroke:none;fill-rule:nonzero;fill:rgb(10.588235%,9.803922%,26.666668%);fill-opacity:1;" d="M 61.011719 104.300781 C 61.699219 103.617188 62.382812 104.105469 63.066406 103.8125 C 63.75 103.617188 64.632812 101.960938 65.121094 101.769531 C 65.609375 101.574219 67.171875 102.253906 67.171875 100.890625 C 67.171875 99.527344 65.804688 99.042969 63.066406 99.042969 C 60.328125 99.042969 57.882812 98.554688 56.515625 100.597656 C 55.148438 102.644531 45.171875 124.847656 44.976562 125.820312 C 44.78125 126.699219 44.195312 116.277344 44.195312 116.277344 L 35.882812 118.808594 C 35.882812 118.808594 34.613281 137.410156 42.730469 138.480469 C 50.84375 139.652344 52.410156 133.417969 53.777344 128.9375 C 55.148438 124.457031 61.011719 104.300781 61.011719 104.300781 Z M 61.011719 104.300781 "/>
<path style=" stroke:none;fill-rule:nonzero;fill:rgb(10.588235%,9.803922%,26.666668%);fill-opacity:1;" d="M 118.3125 124.167969 L 121.539062 116.277344 L 109.023438 117.351562 L 111.5625 124.167969 C 111.5625 124.167969 106.871094 127.769531 106.675781 135.074219 C 106.480469 142.378906 112.445312 143.058594 112.445312 143.058594 L 117.332031 143.058594 C 119.875 141.304688 122.125 139.261719 124.078125 137.023438 C 124.472656 135.753906 124.765625 134.199219 124.667969 132.542969 C 124.179688 125.820312 118.3125 124.167969 118.3125 124.167969 Z M 118.3125 124.167969 "/>
<path style=" stroke:none;fill-rule:nonzero;fill:rgb(94.509804%,31.37255%,23.529412%);fill-opacity:1;" d="M 124.078125 107.902344 C 124.078125 107.902344 119.972656 102.351562 124.472656 102.058594 C 129.066406 101.769531 124.960938 107.902344 124.960938 107.902344 Z M 124.078125 107.902344 "/>
<path style=" stroke:none;fill-rule:nonzero;fill:rgb(94.509804%,31.37255%,23.529412%);fill-opacity:1;" d="M 124.960938 107.902344 C 124.960938 107.902344 127.011719 101.28125 129.945312 104.785156 C 132.878906 108.292969 125.449219 108.683594 125.449219 108.683594 Z M 124.960938 107.902344 "/>
<path style=" stroke:none;fill-rule:nonzero;fill:rgb(94.509804%,31.37255%,23.529412%);fill-opacity:1;" d="M 125.644531 108.78125 C 125.644531 108.78125 132 105.957031 131.316406 110.433594 C 130.632812 115.011719 125.449219 109.65625 125.449219 109.65625 Z M 125.644531 108.78125 "/>
<path style=" stroke:none;fill-rule:nonzero;fill:rgb(94.509804%,31.37255%,23.529412%);fill-opacity:1;" d="M 125.351562 109.949219 C 125.351562 109.949219 131.707031 112.578125 127.992188 115.207031 C 124.179688 117.835938 124.570312 110.339844 124.570312 110.339844 Z M 125.351562 109.949219 "/>
<path style=" stroke:none;fill-rule:nonzero;fill:rgb(94.509804%,31.37255%,23.529412%);fill-opacity:1;" d="M 124.277344 110.433594 C 124.277344 110.433594 126.035156 117.15625 121.636719 115.695312 C 117.234375 114.234375 123.394531 110.046875 123.394531 110.046875 Z M 124.277344 110.433594 "/>
<path style=" stroke:none;fill-rule:nonzero;fill:rgb(94.509804%,31.37255%,23.529412%);fill-opacity:1;" d="M 123.6875 109.851562 C 123.6875 109.851562 119.289062 115.207031 117.921875 110.824219 C 116.550781 106.441406 123.492188 108.972656 123.492188 108.972656 Z M 123.6875 109.851562 "/>
<path style=" stroke:none;fill-rule:nonzero;fill:rgb(94.509804%,31.37255%,23.529412%);fill-opacity:1;" d="M 123.296875 109.070312 C 123.296875 109.070312 116.355469 108.390625 119.289062 104.785156 C 122.125 101.183594 123.980469 108.390625 123.980469 108.390625 Z M 123.296875 109.070312 "/>
<path style=" stroke:none;fill-rule:nonzero;fill:rgb(41.568628%,40.392157%,80.784315%);fill-opacity:1;" d="M 124.570312 111.605469 C 125.9375 111.605469 127.109375 110.433594 127.109375 109.070312 C 127.109375 107.707031 125.9375 106.539062 124.570312 106.539062 C 123.199219 106.539062 122.027344 107.707031 122.027344 109.070312 C 122.027344 110.433594 123.101562 111.605469 124.570312 111.605469 Z M 124.570312 111.605469 "/>
<path style=" stroke:none;fill-rule:nonzero;fill:rgb(94.509804%,31.37255%,23.529412%);fill-opacity:1;" d="M 115.378906 102.351562 C 115.378906 102.351562 111.074219 96.410156 115.867188 96.121094 C 120.65625 95.730469 116.355469 102.351562 116.355469 102.351562 Z M 115.378906 102.351562 "/>
<path style=" stroke:none;fill-rule:nonzero;fill:rgb(94.509804%,31.37255%,23.529412%);fill-opacity:1;" d="M 116.257812 102.351562 C 116.257812 102.351562 118.410156 95.339844 121.539062 99.042969 C 124.667969 102.742188 116.84375 103.132812 116.84375 103.132812 Z M 116.257812 102.351562 "/>
<path style=" stroke:none;fill-rule:nonzero;fill:rgb(94.509804%,31.37255%,23.529412%);fill-opacity:1;" d="M 117.039062 103.324219 C 117.039062 103.324219 123.6875 100.308594 122.90625 105.078125 C 122.222656 109.949219 116.746094 104.203125 116.746094 104.203125 Z M 117.039062 103.324219 "/>
<path style=" stroke:none;fill-rule:nonzero;fill:rgb(94.509804%,31.37255%,23.529412%);fill-opacity:1;" d="M 116.648438 104.496094 C 116.648438 104.496094 123.394531 107.320312 119.386719 110.144531 C 115.378906 112.96875 115.867188 104.980469 115.867188 104.980469 Z M 116.648438 104.496094 "/>
<path style=" stroke:none;fill-rule:nonzero;fill:rgb(94.509804%,31.37255%,23.529412%);fill-opacity:1;" d="M 115.574219 105.078125 C 115.574219 105.078125 117.429688 112.1875 112.835938 110.726562 C 108.238281 109.167969 114.691406 104.785156 114.691406 104.785156 Z M 115.574219 105.078125 "/>
<path style=" stroke:none;fill-rule:nonzero;fill:rgb(94.509804%,31.37255%,23.529412%);fill-opacity:1;" d="M 114.890625 104.398438 C 114.890625 104.398438 110.292969 110.046875 108.828125 105.371094 C 107.359375 100.695312 114.691406 103.421875 114.691406 103.421875 Z M 114.890625 104.398438 "/>
<path style=" stroke:none;fill-rule:nonzero;fill:rgb(94.509804%,31.37255%,23.529412%);fill-opacity:1;" d="M 114.59375 103.617188 C 114.59375 103.617188 107.359375 102.9375 110.390625 99.042969 C 113.421875 95.242188 115.28125 102.9375 115.28125 102.9375 Z M 114.59375 103.617188 "/>
<path style=" stroke:none;fill-rule:nonzero;fill:rgb(41.568628%,40.392157%,80.784315%);fill-opacity:1;" d="M 115.769531 106.246094 C 117.234375 106.246094 118.507812 104.980469 118.507812 103.519531 C 118.507812 102.058594 117.332031 100.792969 115.769531 100.792969 C 114.300781 100.792969 113.128906 102.058594 113.128906 103.519531 C 113.128906 105.078125 114.300781 106.246094 115.769531 106.246094 Z M 115.769531 106.246094 "/>
<path style=" stroke:none;fill-rule:nonzero;fill:rgb(94.509804%,31.37255%,23.529412%);fill-opacity:1;" d="M 104.328125 107.222656 C 104.328125 107.222656 99.832031 101.085938 104.816406 100.695312 C 109.804688 100.308594 105.308594 107.222656 105.308594 107.222656 Z M 104.328125 107.222656 "/>
<path style=" stroke:none;fill-rule:nonzero;fill:rgb(94.509804%,31.37255%,23.529412%);fill-opacity:1;" d="M 105.308594 107.222656 C 105.308594 107.222656 107.554688 99.917969 110.78125 103.8125 C 114.007812 107.707031 105.894531 108.097656 105.894531 108.097656 Z M 105.308594 107.222656 "/>
<path style=" stroke:none;fill-rule:nonzero;fill:rgb(94.509804%,31.37255%,23.529412%);fill-opacity:1;" d="M 106.089844 108.195312 C 106.089844 108.195312 113.03125 105.078125 112.25 110.046875 C 111.5625 115.109375 105.894531 109.167969 105.894531 109.167969 Z M 106.089844 108.195312 "/>
<path style=" stroke:none;fill-rule:nonzero;fill:rgb(94.509804%,31.37255%,23.529412%);fill-opacity:1;" d="M 105.699219 109.460938 C 105.699219 109.460938 112.738281 112.382812 108.535156 115.304688 C 104.425781 118.226562 104.816406 109.949219 104.816406 109.949219 Z M 105.699219 109.460938 "/>
<path style=" stroke:none;fill-rule:nonzero;fill:rgb(94.509804%,31.37255%,23.529412%);fill-opacity:1;" d="M 104.523438 110.046875 C 104.523438 110.046875 106.480469 117.445312 101.6875 115.890625 C 96.898438 114.332031 103.644531 109.65625 103.644531 109.65625 Z M 104.523438 110.046875 "/>
<path style=" stroke:none;fill-rule:nonzero;fill:rgb(94.509804%,31.37255%,23.529412%);fill-opacity:1;" d="M 103.839844 109.460938 C 103.839844 109.460938 99.050781 115.304688 97.484375 110.53125 C 95.921875 105.664062 103.644531 108.488281 103.644531 108.488281 Z M 103.839844 109.460938 "/>
<path style=" stroke:none;fill-rule:nonzero;fill:rgb(94.509804%,31.37255%,23.529412%);fill-opacity:1;" d="M 103.546875 108.488281 C 103.546875 108.488281 96.019531 107.707031 99.148438 103.714844 C 102.277344 99.722656 104.230469 107.707031 104.230469 107.707031 Z M 103.546875 108.488281 "/>
<path style=" stroke:none;fill-rule:nonzero;fill:rgb(41.568628%,40.392157%,80.784315%);fill-opacity:1;" d="M 104.816406 111.3125 C 106.382812 111.3125 107.652344 110.046875 107.652344 108.488281 C 107.652344 106.929688 106.382812 105.664062 104.816406 105.664062 C 103.253906 105.664062 101.980469 106.929688 101.980469 108.488281 C 101.980469 110.046875 103.253906 111.3125 104.816406 111.3125 Z M 104.816406 111.3125 "/>
</g>
</svg>
