<svg width="195" height="184" viewBox="0 0 195 184" fill="none" xmlns="http://www.w3.org/2000/svg">
<path d="M187.287 85.4383C187.287 93.2668 186.228 100.848 184.249 108.046C174.347 144.048 141.377 170.496 102.229 170.496C57.5123 170.496 20.8556 135.988 17.4328 92.1519C17.2605 89.9356 17.1716 87.6977 17.1716 85.4383C17.1716 67.3335 22.8269 50.5509 32.4704 36.7602C47.8473 14.7667 73.3578 0.380859 102.232 0.380859C135.897 0.380859 164.994 19.9372 178.779 48.3103C184.23 59.5293 187.287 72.127 187.287 85.4383Z" fill="#FCC4D7"/>
<path d="M7.70678 137.642C11.5227 142.705 15.5783 148.094 17.1699 150.205C17.1699 150.205 17.423 150.539 17.8674 151.131C19.4589 153.245 23.5172 158.631 27.3305 163.694C32.2128 170.173 39.193 165.743 39.193 165.743L65.269 146.101L35.0835 106.029L9.00748 125.672C9.01017 125.672 2.82442 131.16 7.70678 137.642Z" fill="#1B1944"/>
<path d="M146.556 122.405L67.3852 144.582L37.1162 104.4L77.9282 31.3047L146.556 122.405Z" fill="#1B1944"/>
<path d="M147.824 122.136C157.583 115.329 150.457 88.2523 131.908 61.6591C113.359 35.0659 90.4104 19.026 80.6514 25.833C70.8924 32.64 78.0182 59.7163 96.5673 86.3095C115.116 112.903 138.065 128.943 147.824 122.136Z" fill="white"/>
<path d="M37.2206 167.06C41.4163 163.961 38.1861 152.47 30.0057 141.394C21.8254 130.318 11.7926 123.851 7.59695 126.95C3.40127 130.048 6.63148 141.539 14.8118 152.615C22.9922 163.691 33.0249 170.158 37.2206 167.06Z" fill="#1B1944"/>
<path d="M101.358 59.9401L152.605 0L137.826 41.6629L183.127 22.5644L150.19 55.8953L194.317 53.8271L124.202 90.7693L101.358 59.9401Z" fill="#F04C3A"/>
<path d="M89.7646 71.0549C89.1075 71.5397 88.5528 72.1294 88.0923 72.7946C90.6291 77.4157 93.5509 82.1365 96.8337 86.8438C99.6101 90.824 102.486 94.5673 105.4 98.0331C106.601 97.8392 107.716 97.3976 108.685 96.6786C113.404 93.1938 112.991 84.6356 107.764 77.5585C102.54 70.484 94.48 67.5729 89.7646 71.0549Z" fill="#6A68CE"/>
<path d="M86.4331 164.726C86.4331 164.726 93.3513 176.68 111.989 168.157C130.627 159.634 102.367 148.558 98.8504 163.302C95.3334 178.046 117.276 185.018 137.376 175.934" stroke="#6A68CE" stroke-width="8" stroke-miterlimit="10" stroke-linecap="round" stroke-linejoin="round"/>
<path d="M46.9426 162.386L66.7683 147.402L92.9924 159.154L75.0222 175.043L46.9426 162.386Z" fill="#1B1944"/>
</svg>
