<svg width="150" height="150" viewBox="0 0 150 150" fill="none" xmlns="http://www.w3.org/2000/svg">
<circle cx="75" cy="75" r="75" fill="#FCD0DC"/>
<path d="M123.179 65.6347C121.609 85.7735 96.4888 98.6748 77.4969 101.057C75.3631 101.325 73.2183 101.516 71.0763 101.704L67.6099 102.294C58.9702 104.658 48.9209 105.869 40.3472 103.736C32.5335 101.794 25.945 97.0779 22.7567 87.9293C17.1869 71.945 30.2373 52.4681 41.2696 41.156C46.2667 36.0305 52.0458 32.1259 58.2599 29.6893C68.8434 25.5451 80.6962 25.6636 92.1387 31.2965C105.134 37.6918 124.396 49.9981 123.179 65.6347Z" fill="#1B1944"/>
<path d="M50.8679 56.3275C53.6367 54.3639 56.6678 52.5999 57.5108 49.3118C58.4275 45.7361 60.2846 42.6463 64.1661 40.5029C69.4579 37.5795 75.4765 37.6619 80.4654 41.1751V41.1751C85.0105 44.3744 90.6119 45.2423 95.6091 47.6757C97.378 48.5371 98.2816 50.3574 97.4557 53.7106C96.0763 59.3101 93.2322 62.5759 94.1298 68.6699C95.2035 75.9589 97.0565 83.0058 97.3951 90.3927C97.7228 97.5349 98.4386 104.505 99.3665 111.598C100.085 117.092 100.578 123.793 94.7382 127.067C88.6921 130.456 80.961 127.626 75.9611 123.858C64.0367 114.874 62.5004 98.5728 61.1238 85.311C60.4933 79.2531 61.2229 73.391 55.9532 69.1464C52.1757 66.102 44.6731 60.7292 50.8679 56.3275V56.3275Z" fill="white"/>
<path d="M79.9526 59.2296C83.273 59.2039 82.1167 62.7788 80.7621 64.3989C78.9394 66.583 75.7759 66.9591 72.9951 66.6758C71.1505 66.4877 66.0872 65.4163 66.4039 62.9231C66.715 60.4788 72.4032 60.162 74.2782 59.9663C74.2754 59.9663 78.5264 59.2399 79.9526 59.2296Z" fill="#F04C3A"/>
</svg>
