<svg width="150" height="150" viewBox="0 0 150 150" fill="none" xmlns="http://www.w3.org/2000/svg">
<circle cx="75" cy="75" r="75" fill="#6A68CE"/>
<path d="M123.18 65.624C121.61 85.7628 96.4898 98.6641 77.4979 101.047C75.3641 101.314 73.2193 101.505 71.0773 101.693L67.6109 102.283C58.9712 104.647 48.9218 105.858 40.3482 103.725C32.5345 101.783 25.946 97.0672 22.7577 87.9186C17.1879 71.9343 30.2383 52.4574 41.2706 41.1453C46.2677 36.0198 52.0468 32.1151 58.2609 29.6786C68.8444 25.5344 80.6971 25.6529 92.1397 31.2858C105.135 37.681 124.397 49.9874 123.18 65.624Z" fill="#1B1944"/>
<path d="M50.8704 56.3109C53.6392 54.3473 56.6703 52.5833 57.5132 49.2952C58.4299 45.7195 60.287 42.6297 64.1686 40.4863C69.4603 37.5629 75.4789 37.6453 80.4678 41.1585V41.1585C85.0129 44.3578 90.6144 45.2257 95.6116 47.6591C97.3804 48.5205 98.284 50.3408 97.4582 53.6941C96.0788 59.2935 93.2347 62.5594 94.1322 68.6533C95.206 75.9423 97.0589 82.9892 97.3976 90.3761C97.7252 97.5183 98.4411 104.488 99.3689 111.581C100.088 117.075 100.58 123.777 94.7407 127.05C88.6945 130.44 80.9634 127.609 75.9635 123.841C64.0392 114.857 62.5029 98.5563 61.1262 85.2944C60.4957 79.2365 61.2254 73.3744 55.9556 69.1298C52.1782 66.0854 44.6756 60.7126 50.8704 56.3109V56.3109Z" fill="white"/>
<path d="M79.9519 59.213C83.2723 59.1873 82.1159 62.7622 80.7613 64.3823C78.9387 66.5664 75.7752 66.9425 72.9944 66.6592C71.1497 66.4711 66.0865 65.3997 66.4031 62.9065C66.7142 60.4622 72.4025 60.1454 74.2774 59.9497C74.2747 59.9497 78.5257 59.2233 79.9519 59.213Z" fill="#6A68CE"/>
</svg>
