<?xml version="1.0" encoding="UTF-8" standalone="no" ?>
<!DOCTYPE svg PUBLIC "-//W3C//DTD SVG 1.1//EN" "http://www.w3.org/Graphics/SVG/1.1/DTD/svg11.dtd">
<svg xmlns="http://www.w3.org/2000/svg" xmlns:xlink="http://www.w3.org/1999/xlink" version="1.1" width="1080" height="1080" viewBox="0 0 1080 1080" xml:space="preserve">
<desc>Created with Fabric.js 5.2.4</desc>
<defs>
</defs>
<g transform="matrix(1 0 0 1 540 540)" id="bdf134c6-7c3b-479e-b156-5ef7ae7a59c6"  >
<rect style="stroke: none; stroke-width: 1; stroke-dasharray: none; stroke-linecap: butt; stroke-dashoffset: 0; stroke-linejoin: miter; stroke-miterlimit: 4; fill: rgb(255,255,255); fill-rule: nonzero; opacity: 1; visibility: hidden;" vector-effect="non-scaling-stroke"  x="-540" y="-540" rx="0" ry="0" width="1080" height="1080" />
</g>
<g transform="matrix(1 0 0 1 540 540)" id="6b63dc75-de5b-47e1-ad84-4bb932fd34df"  >
</g>
<g transform="matrix(1 0 0 1 540 540)"  >
<g style="" vector-effect="non-scaling-stroke"   >
		<g transform="matrix(1 0 0 1 24.36 -43.5)"  >
<path style="stroke: none; stroke-width: 1; stroke-dasharray: none; stroke-linecap: butt; stroke-dashoffset: 0; stroke-linejoin: miter; stroke-miterlimit: 4; fill: rgb(252,196,215); fill-rule: nonzero; opacity: 1;" vector-effect="non-scaling-stroke"  transform=" translate(-142.5, -110)" d="M 35 0 L 250 0 C 269.3 0 285 15.7 285 35 L 285 185 C 285 204.3 269.3 220 250 220 L 35 220 C 15.7 220 0 204.3 0 185 L 0 35 C 0 15.7 15.7 0 35 0 z" stroke-linecap="round" />
</g>
		<g transform="matrix(1 0 0 1 0.86 43)"  >
<rect style="stroke: none; stroke-width: 1; stroke-dasharray: none; stroke-linecap: butt; stroke-dashoffset: 0; stroke-linejoin: miter; stroke-miterlimit: 4; fill: none; fill-rule: nonzero; opacity: 1;" vector-effect="non-scaling-stroke"  x="-223" y="-110.5" rx="0" ry="0" width="446" height="221" />
</g>
		<g transform="matrix(1 0 0 1 -3.09 -99.5)"  >
<path style="stroke: none; stroke-width: 1; stroke-dasharray: none; stroke-linecap: butt; stroke-dashoffset: 0; stroke-linejoin: miter; stroke-miterlimit: 4; fill: rgb(27,25,68); fill-rule: nonzero; opacity: 1;" vector-effect="non-scaling-stroke"  transform=" translate(-115.05, -54)" d="M 49.4 45.1 L 51.699999999999996 36.3 L 54.199999999999996 36.3 L 50.7 49 L 48.1 49 L 45.2 39.9 L 42.4 49 L 39.8 49 L 36.3 36.2 L 38.9 36.2 L 41.199999999999996 45 L 43.99999999999999 36.2 L 46.599999999999994 36.2 L 49.4 45.1 z M 56.8 43.6 L 60.8 43.6 C 60.8 42.7 60.199999999999996 41.9 58.8 41.9 C 57.6 41.8 56.9 42.8 56.8 43.6 z M 61 45.9 L 63 46.5 C 62.6 48 61.1 49.3 59 49.3 C 56.6 49.3 54.4 47.599999999999994 54.4 44.599999999999994 C 54.4 41.8 56.5 39.89999999999999 58.8 39.89999999999999 C 61.5 39.89999999999999 63.199999999999996 41.599999999999994 63.199999999999996 44.49999999999999 C 63.199999999999996 44.79999999999999 63.199999999999996 45.199999999999996 63.199999999999996 45.199999999999996 L 56.9 45.199999999999996 C 57 46.4 57.9 47.199999999999996 59.1 47.199999999999996 C 60.1 47.2 60.7 46.7 61 45.9 z M 70.4 40.1 L 70.4 42.5 C 70.10000000000001 42.4 69.9 42.4 69.7 42.4 C 68.5 42.4 67.4 43 67.4 44.9 L 67.4 48.9 L 65 48.9 L 65 40 L 67.3 40 L 67.3 41.3 C 67.8 40.099999999999994 69.1 39.9 69.8 39.9 C 70.1 40.1 70.3 40.1 70.4 40.1 z M 80.5 36 L 80.5 47.4 C 80.5 48 80.5 48.6 80.6 49 L 78.3 49 C 78.3 48.8 78.2 48.4 78.2 48 C 77.8 48.7 76.9 49.2 75.7 49.2 C 73.2 49.2 71.4 47.2 71.4 44.5 C 71.4 41.9 73.10000000000001 39.9 75.60000000000001 39.9 C 77.10000000000001 39.9 77.80000000000001 40.5 78.10000000000001 41 L 78.10000000000001 36 L 80.5 36 z M 73.8 44.6 C 73.8 46.2 74.7 47.1 76 47.1 C 77.2 47.1 78.2 46.2 78.2 44.6 C 78.2 43 77.2 42.1 76 42.1 C 74.8 42.1 73.8 43 73.8 44.6 z M 84.8 43.6 L 88.8 43.6 C 88.8 42.7 88.2 41.9 86.8 41.9 C 85.6 41.8 84.9 42.8 84.8 43.6 z M 89 45.9 L 91 46.5 C 90.5 48 89.1 49.3 87 49.3 C 84.6 49.3 82.4 47.599999999999994 82.4 44.599999999999994 C 82.4 41.8 84.5 39.89999999999999 86.80000000000001 39.89999999999999 C 89.50000000000001 39.89999999999999 91.20000000000002 41.599999999999994 91.20000000000002 44.49999999999999 C 91.20000000000002 44.79999999999999 91.20000000000002 45.199999999999996 91.20000000000002 45.199999999999996 L 84.90000000000002 45.199999999999996 C 85.00000000000001 46.4 85.90000000000002 47.199999999999996 87.10000000000002 47.199999999999996 C 88.1 47.2 88.7 46.7 89 45.9 z M 107 38.6 L 103 38.6 L 103 49 L 100.5 49 L 100.5 38.6 L 96.5 38.6 L 96.5 36.2 L 107 36.2 L 107 38.6 z M 108.7 43.6 L 112.7 43.6 C 112.7 42.7 112.10000000000001 41.9 110.7 41.9 C 109.4 41.8 108.7 42.8 108.7 43.6 z M 112.8 45.9 L 114.8 46.5 C 114.3 48 112.89999999999999 49.3 110.8 49.3 C 108.39999999999999 49.3 106.2 47.599999999999994 106.2 44.599999999999994 C 106.2 41.8 108.3 39.89999999999999 110.60000000000001 39.89999999999999 C 113.30000000000001 39.89999999999999 115.00000000000001 41.599999999999994 115.00000000000001 44.49999999999999 C 115.00000000000001 44.79999999999999 115.00000000000001 45.199999999999996 115.00000000000001 45.199999999999996 L 108.70000000000002 45.199999999999996 C 108.80000000000001 46.4 109.70000000000002 47.199999999999996 110.90000000000002 47.199999999999996 C 111.9 47.2 112.6 46.7 112.8 45.9 z M 119.2 49 L 116.8 49 L 116.8 40.1 L 119.2 40.1 L 119.2 49 z M 116.6 37.2 C 116.6 36.400000000000006 117.3 35.7 118.1 35.7 C 118.89999999999999 35.7 119.6 36.400000000000006 119.6 37.2 C 119.6 38 119 38.7 118.1 38.7 C 117.2 38.7 116.6 38 116.6 37.2 z M 124.2 49 L 121.8 49 L 121.8 36 L 124.2 36 L 124.2 49 z M 137 49 C 137 48.8 136.9 48.4 136.9 48 C 136.4 48.8 135.4 49.2 134.5 49.2 C 132.4 49.2 131.1 47.6 131.1 45.7 L 131.1 40.1 L 133.5 40.1 L 133.5 45.2 C 133.5 46.2 134 47 135.1 47 C 136.2 47 136.79999999999998 46.3 136.79999999999998 45.3 L 136.79999999999998 40.199999999999996 L 139.2 40.199999999999996 L 139.2 47.49999999999999 C 139.2 48.199999999999996 139.29999999999998 48.79999999999999 139.29999999999998 49.099999999999994 L 137 49.099999999999994 z M 144.2 43.9 L 144.2 49 L 141.79999999999998 49 L 141.79999999999998 40.1 L 144.1 40.1 L 144.1 41.2 C 144.6 40.300000000000004 145.7 39.900000000000006 146.7 39.900000000000006 C 148.89999999999998 39.900000000000006 149.89999999999998 41.50000000000001 149.89999999999998 43.400000000000006 L 149.89999999999998 49 L 147.49999999999997 49 L 147.49999999999997 43.8 C 147.49999999999997 42.8 146.99999999999997 42 145.89999999999998 42 C 144.8 42.1 144.2 42.9 144.2 43.9 z M 151.5 46.5 L 153.6 46 C 153.7 46.7 154.2 47.3 155.2 47.3 C 156 47.3 156.39999999999998 46.9 156.39999999999998 46.4 C 156.39999999999998 46 156.09999999999997 45.699999999999996 155.39999999999998 45.5 L 154.2 45.2 C 152.5 44.800000000000004 151.7 43.800000000000004 151.7 42.6 C 151.7 41 153.1 39.7 155 39.7 C 157.5 39.7 158.4 41.300000000000004 158.5 42.300000000000004 L 156.5 42.800000000000004 C 156.4 42.300000000000004 156.1 41.6 155 41.6 C 154.4 41.6 153.9 42 153.9 42.5 C 153.9 42.9 154.20000000000002 43.2 154.70000000000002 43.3 L 156.00000000000003 43.599999999999994 C 157.70000000000002 43.99999999999999 158.60000000000002 44.99999999999999 158.60000000000002 46.3 C 158.60000000000002 47.699999999999996 157.50000000000003 49.199999999999996 155.20000000000002 49.199999999999996 C 152.5 49.3 151.6 47.5 151.5 46.5 z M 162.3 43.6 L 166.3 43.6 C 166.3 42.7 165.70000000000002 41.9 164.3 41.9 C 163 41.8 162.3 42.8 162.3 43.6 z M 166.5 45.9 L 168.5 46.5 C 168.1 48 166.6 49.3 164.5 49.3 C 162.1 49.3 159.9 47.599999999999994 159.9 44.599999999999994 C 159.9 41.8 162 39.89999999999999 164.3 39.89999999999999 C 167 39.89999999999999 168.70000000000002 41.599999999999994 168.70000000000002 44.49999999999999 C 168.70000000000002 44.79999999999999 168.70000000000002 45.199999999999996 168.70000000000002 45.199999999999996 L 162.4 45.199999999999996 C 162.5 46.4 163.4 47.199999999999996 164.6 47.199999999999996 C 165.6 47.2 166.2 46.7 166.5 45.9 z M 175.9 40.1 L 175.9 42.5 C 175.6 42.4 175.4 42.4 175.20000000000002 42.4 C 174.00000000000003 42.4 172.9 43 172.9 44.9 L 172.9 48.9 L 170.5 48.9 L 170.5 40 L 172.8 40 L 172.8 41.3 C 173.3 40.099999999999994 174.60000000000002 39.9 175.3 39.9 C 175.5 40.1 175.7 40.1 175.9 40.1 z M 179.2 43.6 L 183.2 43.6 C 183.2 42.7 182.6 41.9 181.2 41.9 C 180 41.8 179.3 42.8 179.2 43.6 z M 183.4 45.9 L 185.4 46.5 C 184.9 48 183.5 49.3 181.4 49.3 C 179 49.3 176.8 47.599999999999994 176.8 44.599999999999994 C 176.8 41.8 178.9 39.89999999999999 181.20000000000002 39.89999999999999 C 183.9 39.89999999999999 185.60000000000002 41.599999999999994 185.60000000000002 44.49999999999999 C 185.60000000000002 44.79999999999999 185.60000000000002 45.199999999999996 185.60000000000002 45.199999999999996 L 179.3 45.199999999999996 C 179.4 46.4 180.3 47.199999999999996 181.5 47.199999999999996 C 182.5 47.2 183.1 46.7 183.4 45.9 z M 186.7 46.5 L 188.79999999999998 46 C 188.89999999999998 46.7 189.39999999999998 47.3 190.39999999999998 47.3 C 191.2 47.3 191.59999999999997 46.9 191.59999999999997 46.4 C 191.59999999999997 46 191.29999999999995 45.699999999999996 190.59999999999997 45.5 L 189.39999999999998 45.2 C 187.7 44.800000000000004 186.89999999999998 43.800000000000004 186.89999999999998 42.6 C 186.89999999999998 41 188.29999999999998 39.7 190.2 39.7 C 192.7 39.7 193.6 41.300000000000004 193.7 42.300000000000004 L 191.7 42.800000000000004 C 191.6 42.300000000000004 191.29999999999998 41.6 190.2 41.6 C 189.6 41.6 189.1 42 189.1 42.5 C 189.1 42.9 189.4 43.2 189.9 43.3 L 191.20000000000002 43.599999999999994 C 192.9 43.99999999999999 193.8 44.99999999999999 193.8 46.3 C 193.8 47.699999999999996 192.70000000000002 49.199999999999996 190.4 49.199999999999996 C 187.7 49.3 186.8 47.5 186.7 46.5 z M 39.6 72 L 37.300000000000004 72 L 37.300000000000004 59 L 39.7 59 L 39.7 64.1 C 40.1 63.49999999999999 41.1 62.89999999999999 42.400000000000006 62.89999999999999 C 45.00000000000001 62.89999999999999 46.50000000000001 64.89999999999999 46.50000000000001 67.49999999999999 C 46.50000000000001 70.19999999999999 44.800000000000004 72.19999999999999 42.300000000000004 72.19999999999999 C 41.1 72.19999999999999 40.1 71.69999999999999 39.7 70.89999999999999 L 39.7 72 z M 44 67.6 C 44 66 43 65.1 41.8 65.1 C 40.599999999999994 65.1 39.599999999999994 66 39.599999999999994 67.6 C 39.599999999999994 69.19999999999999 40.599999999999994 70.1 41.8 70.1 C 43 70.1 44 69.2 44 67.6 z M 54.1 72 C 54.1 71.8 54 71.4 54 71 C 53.5 71.8 52.5 72.2 51.6 72.2 C 49.5 72.2 48.2 70.60000000000001 48.2 68.7 L 48.2 63.1 L 50.6 63.1 L 50.6 68.2 C 50.6 69.2 51.1 70 52.2 70 C 53.300000000000004 70 53.900000000000006 69.3 53.900000000000006 68.3 L 53.900000000000006 63.199999999999996 L 56.300000000000004 63.199999999999996 L 56.300000000000004 70.5 C 56.300000000000004 71.2 56.400000000000006 71.8 56.400000000000006 72.1 L 54.1 72.1 z M 61.2 66.9 L 61.2 72 L 58.800000000000004 72 L 58.800000000000004 63.1 L 61.1 63.1 L 61.1 64.2 C 61.6 63.300000000000004 62.7 62.900000000000006 63.7 62.900000000000006 C 65.9 62.900000000000006 66.9 64.5 66.9 66.4 L 66.9 72 L 64.5 72 L 64.5 66.8 C 64.5 65.8 64 65 62.9 65 C 61.8 65.1 61.2 65.9 61.2 66.9 z M 72.3 60.5 L 72.3 63.1 L 74.1 63.1 L 74.1 65.2 L 72.3 65.2 L 72.3 69 C 72.3 69.8 72.7 70 73.3 70 C 73.6 70 73.89999999999999 70 74 69.9 L 74 71.9 C 73.8 72 73.4 72.10000000000001 72.7 72.10000000000001 C 71 72.10000000000001 69.9 71.10000000000001 69.9 69.4 L 69.9 65.30000000000001 L 68.30000000000001 65.30000000000001 L 68.30000000000001 63.20000000000001 L 68.80000000000001 63.20000000000001 C 69.70000000000002 63.20000000000001 70.20000000000002 62.60000000000001 70.20000000000002 61.80000000000001 L 70.20000000000002 60.60000000000001 L 72.3 60.60000000000001 z M 77.7 66.6 L 81.7 66.6 C 81.7 65.69999999999999 81.10000000000001 64.89999999999999 79.7 64.89999999999999 C 78.5 64.8 77.8 65.8 77.7 66.6 z M 81.9 68.9 L 83.9 69.5 C 83.5 71 82 72.3 79.9 72.3 C 77.5 72.3 75.30000000000001 70.6 75.30000000000001 67.6 C 75.30000000000001 64.8 77.4 62.89999999999999 79.70000000000002 62.89999999999999 C 82.40000000000002 62.89999999999999 84.10000000000002 64.6 84.10000000000002 67.49999999999999 C 84.10000000000002 67.79999999999998 84.10000000000002 68.19999999999999 84.10000000000002 68.19999999999999 L 77.80000000000003 68.19999999999999 C 77.90000000000002 69.39999999999999 78.80000000000003 70.19999999999999 80.00000000000003 70.19999999999999 C 81 70.2 81.7 69.7 81.9 68.9 z M 88.3 66.9 L 88.3 72 L 86 72 L 86 63.1 L 88.3 63.1 L 88.3 64.2 C 88.8 63.300000000000004 89.89999999999999 62.900000000000006 90.89999999999999 62.900000000000006 C 93.1 62.900000000000006 94.1 64.5 94.1 66.4 L 94.1 72 L 91.69999999999999 72 L 91.69999999999999 66.8 C 91.69999999999999 65.8 91.19999999999999 65 90.1 65 C 89 65.1 88.3 65.9 88.3 66.9 z M 110.5 61.6 L 106.5 61.6 L 106.5 72 L 104 72 L 104 61.6 L 100 61.6 L 100 59.2 L 110.6 59.2 L 110.6 61.6 z M 112.1 66.6 L 116.1 66.6 C 116.1 65.69999999999999 115.5 64.89999999999999 114.1 64.89999999999999 C 112.8 64.8 112.2 65.8 112.1 66.6 z M 116.3 68.9 L 118.3 69.5 C 117.8 71 116.39999999999999 72.3 114.3 72.3 C 111.89999999999999 72.3 109.7 70.6 109.7 67.6 C 109.7 64.8 111.8 62.89999999999999 114.10000000000001 62.89999999999999 C 116.80000000000001 62.89999999999999 118.50000000000001 64.6 118.50000000000001 67.49999999999999 C 118.50000000000001 67.79999999999998 118.50000000000001 68.19999999999999 118.50000000000001 68.19999999999999 L 112 68.19999999999999 C 112.1 69.39999999999999 113 70.19999999999999 114.2 70.19999999999999 C 115.4 70.2 116 69.7 116.3 68.9 z M 119.8 69.6 C 119.8 68 121 67.1 122.39999999999999 66.89999999999999 L 124.6 66.6 C 125.1 66.5 125.3 66.3 125.3 66 C 125.3 65.4 124.8 64.8 123.8 64.8 C 122.8 64.8 122.2 65.5 122.1 66.2 L 120 65.8 C 120.1 64.39999999999999 121.4 62.9 123.8 62.9 C 126.6 62.9 127.7 64.5 127.7 66.3 L 127.7 70.7 C 127.7 71.2 127.8 71.8 127.8 72.10000000000001 L 125.6 72.10000000000001 C 125.5 71.9 125.5 71.4 125.5 71.00000000000001 C 125 71.70000000000002 124.2 72.30000000000001 122.9 72.30000000000001 C 120.9 72.3 119.8 71 119.8 69.6 z M 123.3 70.5 C 124.3 70.5 125.2 70 125.2 68.4 L 125.2 68 L 123.2 68.3 C 122.60000000000001 68.39999999999999 122.10000000000001 68.7 122.10000000000001 69.39999999999999 C 122.2 70 122.5 70.5 123.3 70.5 z M 132.4 72 L 130 72 L 130 63.1 L 132.3 63.1 L 132.3 64.2 C 132.8 63.300000000000004 133.9 62.900000000000006 134.9 62.900000000000006 C 136.1 62.900000000000006 137.1 63.400000000000006 137.5 64.4 C 138.2 63.300000000000004 139.1 62.900000000000006 140.3 62.900000000000006 C 141.9 62.900000000000006 143.5 63.900000000000006 143.5 66.30000000000001 L 143.5 72 L 141.2 72 L 141.2 66.7 C 141.2 65.7 140.7 65 139.6 65 C 138.6 65 138 65.8 138 66.7 L 138 72 L 135.6 72 L 135.6 66.7 C 135.6 65.7 135.1 65 134 65 C 133 65 132.3 65.8 132.3 66.7 L 132.3 72 z M 145.2 69.5 L 147.29999999999998 69.1 C 147.39999999999998 69.8 147.89999999999998 70.39999999999999 148.89999999999998 70.39999999999999 C 149.7 70.39999999999999 150.09999999999997 69.99999999999999 150.09999999999997 69.49999999999999 C 150.09999999999997 69.09999999999998 149.79999999999995 68.79999999999998 149.09999999999997 68.59999999999998 L 147.89999999999998 68.29999999999998 C 146.2 67.89999999999998 145.39999999999998 66.89999999999998 145.39999999999998 65.69999999999999 C 145.39999999999998 64.1 146.79999999999998 62.79999999999999 148.7 62.79999999999999 C 151.2 62.79999999999999 152.1 64.39999999999999 152.2 65.39999999999999 L 150.2 65.8 C 150.1 65.3 149.7 64.6 148.7 64.6 C 148.1 64.6 147.6 65 147.6 65.5 C 147.6 65.9 147.9 66.2 148.4 66.3 L 149.70000000000002 66.6 C 151.4 67 152.3 68 152.3 69.3 C 152.3 70.7 151.20000000000002 72.2 148.9 72.2 C 146.2 72.3 145.3 70.5 145.2 69.5 z" stroke-linecap="round" />
</g>
		<g transform="matrix(1 0 0 1 -51.98 -25.58)" clip-path="url(#CLIPPATH_3)"  >
<clipPath id="CLIPPATH_3" >
	<path transform="matrix(1 0 0 1 76.34 -17.92) translate(-142.5, -110)" id="SVGID_00000131357307357971316280000014161718659767606663_" d="M 35 0 L 250 0 C 269.3 0 285 15.7 285 35 L 285 185 C 285 204.3 269.3 220 250 220 L 35 220 C 15.7 220 0 204.3 0 185 L 0 35 C 0 15.7 15.7 0 35 0 z" stroke-linecap="round" />
</clipPath>
<path style="stroke: none; stroke-width: 1; stroke-dasharray: none; stroke-linecap: butt; stroke-dashoffset: 0; stroke-linejoin: miter; stroke-miterlimit: 4; fill: rgb(240,76,58); fill-rule: nonzero; opacity: 1;" vector-effect="non-scaling-stroke"  transform=" translate(-66.16, -127.92)" d="M 72.8 101.4 C 73.1 104.9 73 110.10000000000001 77.7 114.60000000000001 C 82.4 119.10000000000001 81.8 122.2 81.60000000000001 124.9 C 81.4 127.60000000000001 80.10000000000001 129.8 84.10000000000001 133.20000000000002 C 88.10000000000001 136.60000000000002 90.10000000000001 135.9 87.7 142.4 C 85.3 148.8 71.2 162.20000000000002 55.900000000000006 164.6 C 40.60000000000001 167 42.60000000000001 115.69999999999999 45.900000000000006 107.69999999999999 C 49.3 99.7 70.9 78.7 72.8 101.4" stroke-linecap="round" />
</g>
		<g transform="matrix(1 0 0 1 31.02 97.37)" clip-path="url(#CLIPPATH_4)"  >
<clipPath id="CLIPPATH_4" >
	<path transform="matrix(1 0 0 1 -6.66 -140.87) translate(-142.5, -110)" id="SVGID_00000131357307357971316280000014161718659767606663_" d="M 35 0 L 250 0 C 269.3 0 285 15.7 285 35 L 285 185 C 285 204.3 269.3 220 250 220 L 35 220 C 15.7 220 0 204.3 0 185 L 0 35 C 0 15.7 15.7 0 35 0 z" stroke-linecap="round" />
</clipPath>
<path style="stroke: none; stroke-width: 1; stroke-dasharray: none; stroke-linecap: butt; stroke-dashoffset: 0; stroke-linejoin: miter; stroke-miterlimit: 4; fill: rgb(255,255,255); fill-rule: nonzero; opacity: 1;" vector-effect="non-scaling-stroke"  transform=" translate(-149.16, -250.87)" d="M 145.8 215.1 C 145.8 215.1 143.3 214.5 147.4 212.4 C 151.5 210.3 155.8 209.20000000000002 158.20000000000002 211.1 C 160.60000000000002 213 164.3 213.9 160.9 227.2 C 157.5 240.39999999999998 146.5 276.5 146.5 276.5 C 146.5 276.5 147.9 276.2 149.7 278.7 C 151.5 281.3 151.1 284.09999999999997 151.1 284.09999999999997 C 151.1 284.09999999999997 156.9 284.79999999999995 158.29999999999998 284.99999999999994 C 159.79999999999998 285.19999999999993 160.1 287.79999999999995 155.6 289.8999999999999 C 151.2 291.99999999999994 144.6 292.99999999999994 140.29999999999998 287.99999999999994 C 135.89999999999998 282.99999999999994 135.6 281.09999999999997 136.39999999999998 276.99999999999994 C 137.2 272.8999999999999 142.79999999999998 235.89999999999995 142.79999999999998 235.89999999999995 L 143.1 231.29999999999995 L 145.8 215.1 z" stroke-linecap="round" />
</g>
		<g transform="matrix(1 0 0 1 19.46 109.8)" clip-path="url(#CLIPPATH_5)"  >
<clipPath id="CLIPPATH_5" >
	<path transform="matrix(1 0 0 1 4.9 -153.3) translate(-142.5, -110)" id="SVGID_00000131357307357971316280000014161718659767606663_" d="M 35 0 L 250 0 C 269.3 0 285 15.7 285 35 L 285 185 C 285 204.3 269.3 220 250 220 L 35 220 C 15.7 220 0 204.3 0 185 L 0 35 C 0 15.7 15.7 0 35 0 z" stroke-linecap="round" />
</clipPath>
<path style="stroke: none; stroke-width: 1; stroke-dasharray: none; stroke-linecap: butt; stroke-dashoffset: 0; stroke-linejoin: miter; stroke-miterlimit: 4; fill: rgb(240,76,58); fill-rule: nonzero; opacity: 1;" vector-effect="non-scaling-stroke"  transform=" translate(-137.6, -263.3)" d="M 137.7 261.5 C 138.6 261.5 139.29999999999998 262.4 139.29999999999998 263.4 C 139.29999999999998 264.4 138.49999999999997 265.2 137.6 265.09999999999997 C 136.7 265.09999999999997 135.9 264.49999999999994 135.9 263.49999999999994 C 135.9 262.6 136.8 261.5 137.7 261.5" stroke-linecap="round" />
</g>
		<g transform="matrix(1 0 0 1 22.96 108.3)" clip-path="url(#CLIPPATH_6)"  >
<clipPath id="CLIPPATH_6" >
	<path transform="matrix(1 0 0 1 1.4 -151.8) translate(-142.5, -110)" id="SVGID_00000131357307357971316280000014161718659767606663_" d="M 35 0 L 250 0 C 269.3 0 285 15.7 285 35 L 285 185 C 285 204.3 269.3 220 250 220 L 35 220 C 15.7 220 0 204.3 0 185 L 0 35 C 0 15.7 15.7 0 35 0 z" stroke-linecap="round" />
</clipPath>
<path style="stroke: none; stroke-width: 1; stroke-dasharray: none; stroke-linecap: butt; stroke-dashoffset: 0; stroke-linejoin: miter; stroke-miterlimit: 4; fill: rgb(240,76,58); fill-rule: nonzero; opacity: 1;" vector-effect="non-scaling-stroke"  transform=" translate(-141.1, -261.8)" d="M 141.2 260 C 142.1 260 142.79999999999998 260.9 142.79999999999998 261.9 C 142.79999999999998 262.9 141.99999999999997 263.7 141.1 263.59999999999997 C 140.2 263.59999999999997 139.4 262.99999999999994 139.4 261.99999999999994 C 139.5 261.1 140.3 260 141.2 260" stroke-linecap="round" />
</g>
		<g transform="matrix(1 0 0 1 27.26 108.5)" clip-path="url(#CLIPPATH_7)"  >
<clipPath id="CLIPPATH_7" >
	<path transform="matrix(1 0 0 1 -2.9 -152) translate(-142.5, -110)" id="SVGID_00000131357307357971316280000014161718659767606663_" d="M 35 0 L 250 0 C 269.3 0 285 15.7 285 35 L 285 185 C 285 204.3 269.3 220 250 220 L 35 220 C 15.7 220 0 204.3 0 185 L 0 35 C 0 15.7 15.7 0 35 0 z" stroke-linecap="round" />
</clipPath>
<path style="stroke: none; stroke-width: 1; stroke-dasharray: none; stroke-linecap: butt; stroke-dashoffset: 0; stroke-linejoin: miter; stroke-miterlimit: 4; fill: rgb(240,76,58); fill-rule: nonzero; opacity: 1;" vector-effect="non-scaling-stroke"  transform=" translate(-145.4, -262)" d="M 145.5 260.2 C 146.4 260.2 147.1 261.09999999999997 147.1 262.09999999999997 C 147.1 263.09999999999997 146.29999999999998 263.9 145.4 263.79999999999995 C 144.5 263.79999999999995 143.70000000000002 263.19999999999993 143.70000000000002 262.19999999999993 C 143.8 261.3 144.6 260.2 145.5 260.2" stroke-linecap="round" />
</g>
		<g transform="matrix(1 0 0 1 30.66 111.1)" clip-path="url(#CLIPPATH_8)"  >
<clipPath id="CLIPPATH_8" >
	<path transform="matrix(1 0 0 1 -6.3 -154.6) translate(-142.5, -110)" id="SVGID_00000131357307357971316280000014161718659767606663_" d="M 35 0 L 250 0 C 269.3 0 285 15.7 285 35 L 285 185 C 285 204.3 269.3 220 250 220 L 35 220 C 15.7 220 0 204.3 0 185 L 0 35 C 0 15.7 15.7 0 35 0 z" stroke-linecap="round" />
</clipPath>
<path style="stroke: none; stroke-width: 1; stroke-dasharray: none; stroke-linecap: butt; stroke-dashoffset: 0; stroke-linejoin: miter; stroke-miterlimit: 4; fill: rgb(240,76,58); fill-rule: nonzero; opacity: 1;" vector-effect="non-scaling-stroke"  transform=" translate(-148.8, -264.6)" d="M 148.9 262.8 C 149.8 262.8 150.5 263.7 150.5 264.7 C 150.5 265.7 149.7 266.5 148.8 266.4 C 147.9 266.4 147.10000000000002 265.79999999999995 147.10000000000002 264.79999999999995 C 147.2 263.9 148 262.8 148.9 262.8" stroke-linecap="round" />
</g>
		<g transform="matrix(1 0 0 1 32.96 114.4)" clip-path="url(#CLIPPATH_9)"  >
<clipPath id="CLIPPATH_9" >
	<path transform="matrix(1 0 0 1 -8.6 -157.9) translate(-142.5, -110)" id="SVGID_00000131357307357971316280000014161718659767606663_" d="M 35 0 L 250 0 C 269.3 0 285 15.7 285 35 L 285 185 C 285 204.3 269.3 220 250 220 L 35 220 C 15.7 220 0 204.3 0 185 L 0 35 C 0 15.7 15.7 0 35 0 z" stroke-linecap="round" />
</clipPath>
<path style="stroke: none; stroke-width: 1; stroke-dasharray: none; stroke-linecap: butt; stroke-dashoffset: 0; stroke-linejoin: miter; stroke-miterlimit: 4; fill: rgb(238,108,50); fill-rule: nonzero; opacity: 1;" vector-effect="non-scaling-stroke"  transform=" translate(-151.1, -267.9)" d="M 151.2 266.1 C 152.1 266.1 152.79999999999998 267 152.79999999999998 268 C 152.79999999999998 269 151.99999999999997 269.8 151.1 269.7 C 150.2 269.7 149.4 269.09999999999997 149.4 268.09999999999997 C 149.5 267.2 150.3 266.1 151.2 266.1" stroke-linecap="round" />
</g>
		<g transform="matrix(1 0 0 1 38.29 -13.07)" clip-path="url(#CLIPPATH_10)"  >
<clipPath id="CLIPPATH_10" >
	<path transform="matrix(1 0 0 1 -13.93 -30.43) translate(-142.5, -110)" id="SVGID_00000131357307357971316280000014161718659767606663_" d="M 35 0 L 250 0 C 269.3 0 285 15.7 285 35 L 285 185 C 285 204.3 269.3 220 250 220 L 35 220 C 15.7 220 0 204.3 0 185 L 0 35 C 0 15.7 15.7 0 35 0 z" stroke-linecap="round" />
</clipPath>
<path style="stroke: none; stroke-width: 1; stroke-dasharray: none; stroke-linecap: butt; stroke-dashoffset: 0; stroke-linejoin: miter; stroke-miterlimit: 4; fill: rgb(27,25,68); fill-rule: nonzero; opacity: 1;" vector-effect="non-scaling-stroke"  transform=" translate(-156.43, -140.43)" d="M 150.3 109.8 C 149.8 113.8 149.8 119.6 144.20000000000002 124.6 C 138.70000000000002 129.6 139.20000000000002 133.1 139.3 136.1 C 139.4 139.2 140.8 141.79999999999998 136.10000000000002 145.4 C 131.40000000000003 149.1 129.20000000000002 148.3 131.60000000000002 155.70000000000002 C 134.10000000000002 163.10000000000002 149.60000000000002 178.8 166.8 182.20000000000002 C 184.10000000000002 185.60000000000002 183.8 127.20000000000002 180.4 118.00000000000001 C 177.1 108.9 153.3 84.2 150.3 109.8" stroke-linecap="round" />
</g>
		<g transform="matrix(1 0 0 1 -178.25 8.8)" clip-path="url(#CLIPPATH_11)"  >
<clipPath id="CLIPPATH_11" >
	<path transform="matrix(1 0 0 1 202.61 -52.3) translate(-142.5, -110)" id="SVGID_00000131357307357971316280000014161718659767606663_" d="M 35 0 L 250 0 C 269.3 0 285 15.7 285 35 L 285 185 C 285 204.3 269.3 220 250 220 L 35 220 C 15.7 220 0 204.3 0 185 L 0 35 C 0 15.7 15.7 0 35 0 z" stroke-linecap="round" />
</clipPath>
<path style="stroke: none; stroke-width: 1; stroke-dasharray: none; stroke-linecap: butt; stroke-dashoffset: 0; stroke-linejoin: miter; stroke-miterlimit: 4; fill: rgb(255,255,255); fill-rule: nonzero; opacity: 1;" vector-effect="non-scaling-stroke"  transform=" translate(60.11, -162.3)" d="M -31.6 147.9 L -34.5 164.1 C -34.5 164.1 -68.7 144.5 -73.2 141.6 C -77.7 138.7 -82.3 134 -87.3 137 C -92.3 140 -91.3 142.6 -94.39999999999999 144.6 C -97.49999999999999 146.6 -100.8 145.5 -102.8 145.79999999999998 C -104.8 145.99999999999997 -106.2 146.2 -106.5 148.6 C -106.7 151 -107.7 150.2 -105.7 150.29999999999998 C -103.7 150.49999999999997 -93.2 152.6 -91.7 151.99999999999997 C -90.3 151.39999999999998 -86.2 147.59999999999997 -84.8 147.39999999999998 C -83.39999999999999 147.29999999999998 -53.3 173.29999999999998 -47.699999999999996 177.89999999999998 C -42.099999999999994 182.59999999999997 -28.699999999999996 193.2 -20.499999999999996 186.29999999999998 C -16.299999999999997 182.7 -16.099999999999994 176.79999999999998 -15.299999999999997 172.6 C -14.499999999999996 168.29999999999998 -13.299999999999997 146.29999999999998 -13.299999999999997 146.29999999999998 L -31.6 147.9 z" stroke-linecap="round" />
</g>
		<g transform="matrix(1 0 0 1 -150.55 13.74)" clip-path="url(#CLIPPATH_12)"  >
<clipPath id="CLIPPATH_12" >
	<path transform="matrix(1 0 0 1 174.91 -57.24) translate(-142.5, -110)" id="SVGID_00000131357307357971316280000014161718659767606663_" d="M 35 0 L 250 0 C 269.3 0 285 15.7 285 35 L 285 185 C 285 204.3 269.3 220 250 220 L 35 220 C 15.7 220 0 204.3 0 185 L 0 35 C 0 15.7 15.7 0 35 0 z" stroke-linecap="round" />
</clipPath>
<path style="stroke: none; stroke-width: 1; stroke-dasharray: none; stroke-linecap: butt; stroke-dashoffset: 0; stroke-linejoin: miter; stroke-miterlimit: 4; fill: rgb(252,208,220); fill-rule: nonzero; opacity: 1;" vector-effect="non-scaling-stroke"  transform=" translate(32.41, -167.24)" d="M -30.8 174.1 C -31 174.1 -31.1 174 -31.3 173.9 C -32.9 172.8 -34 170.3 -34.5 166.4 C -34.9 163.70000000000002 -34.9 161.3 -34.9 161.20000000000002 C -34.9 160.70000000000002 -34.5 160.3 -34 160.4 C -33.5 160.4 -33.2 160.8 -33.2 161.3 C -33.2 163.8 -32.800000000000004 170.8 -30.300000000000004 172.60000000000002 C -29.900000000000006 172.90000000000003 -29.800000000000004 173.40000000000003 -30.100000000000005 173.8 C -30.2 174 -30.5 174.1 -30.8 174.1 z" stroke-linecap="round" />
</g>
		<g transform="matrix(1 0 0 1 -139.54 34.48)" clip-path="url(#CLIPPATH_13)"  >
<clipPath id="CLIPPATH_13" >
	<path transform="matrix(1 0 0 1 163.9 -77.98) translate(-142.5, -110)" id="SVGID_00000131357307357971316280000014161718659767606663_" d="M 35 0 L 250 0 C 269.3 0 285 15.7 285 35 L 285 185 C 285 204.3 269.3 220 250 220 L 35 220 C 15.7 220 0 204.3 0 185 L 0 35 C 0 15.7 15.7 0 35 0 z" stroke-linecap="round" />
</clipPath>
<path style="stroke: none; stroke-width: 1; stroke-dasharray: none; stroke-linecap: butt; stroke-dashoffset: 0; stroke-linejoin: miter; stroke-miterlimit: 4; fill: rgb(252,208,220); fill-rule: nonzero; opacity: 1;" vector-effect="non-scaling-stroke"  transform=" translate(21.4, -187.98)" d="M -28.3 194 C -28.7 194 -29.1 193.7 -29.1 193.2 C -29.1 193.1 -29.3 191 -28.700000000000003 188.6 C -27.900000000000002 185.29999999999998 -26.000000000000004 183.1 -23.200000000000003 182.29999999999998 C -17.800000000000004 180.6 -14.600000000000003 185.7 -13.700000000000003 188.6 C -13.600000000000003 189 -13.800000000000002 189.5 -14.200000000000003 189.7 C -14.600000000000003 189.79999999999998 -15.100000000000003 189.6 -15.300000000000002 189.2 C -15.400000000000002 188.89999999999998 -17.6 182.39999999999998 -22.700000000000003 184 C -28.000000000000004 185.7 -27.400000000000002 193.1 -27.400000000000002 193.2 C -27.4 193.5 -27.8 193.9 -28.3 194 C -28.3 194 -28.3 194 -28.3 194 z" stroke-linecap="round" />
</g>
		<g transform="matrix(1 0 0 1 -138.59 16.75)" clip-path="url(#CLIPPATH_14)"  >
<clipPath id="CLIPPATH_14" >
	<path transform="matrix(1 0 0 1 162.95 -60.25) translate(-142.5, -110)" id="SVGID_00000131357307357971316280000014161718659767606663_" d="M 35 0 L 250 0 C 269.3 0 285 15.7 285 35 L 285 185 C 285 204.3 269.3 220 250 220 L 35 220 C 15.7 220 0 204.3 0 185 L 0 35 C 0 15.7 15.7 0 35 0 z" stroke-linecap="round" />
</clipPath>
<path style="stroke: none; stroke-width: 1; stroke-dasharray: none; stroke-linecap: butt; stroke-dashoffset: 0; stroke-linejoin: miter; stroke-miterlimit: 4; fill: rgb(27,25,68); fill-rule: nonzero; opacity: 1;" vector-effect="non-scaling-stroke"  transform=" translate(20.45, -170.25)" d="M 5 145 C 5 145 -16.9 143.4 -31.4 151.3 C -45.9 159.20000000000002 -45.9 194.5 -45.9 194.5 C -45.9 194.5 -25.7 197.7 -17.4 193.3 C -9.099999999999998 188.8 -1.9999999999999982 180.10000000000002 -1.9999999999999982 180.10000000000002 L 5 145 z" stroke-linecap="round" />
</g>
		<g transform="matrix(1 0 0 1 62.46 -24.51)" clip-path="url(#CLIPPATH_15)"  >
<clipPath id="CLIPPATH_15" >
	<path transform="matrix(1 0 0 1 -38.1 -18.99) translate(-142.5, -110)" id="SVGID_00000131357307357971316280000014161718659767606663_" d="M 35 0 L 250 0 C 269.3 0 285 15.7 285 35 L 285 185 C 285 204.3 269.3 220 250 220 L 35 220 C 15.7 220 0 204.3 0 185 L 0 35 C 0 15.7 15.7 0 35 0 z" stroke-linecap="round" />
</clipPath>
<path style="stroke: none; stroke-width: 1; stroke-dasharray: none; stroke-linecap: butt; stroke-dashoffset: 0; stroke-linejoin: miter; stroke-miterlimit: 4; fill: rgb(252,208,220); fill-rule: nonzero; opacity: 1;" vector-effect="non-scaling-stroke"  transform=" translate(-180.6, -128.99)" d="M 154.6 117.1 C 156.5 129.29999999999998 159 136.29999999999998 171.2 139.6 C 183.39999999999998 142.9 182.29999999999998 144.1 183.29999999999998 146.5 C 184.2 148.9 191.2 170.5 191.2 170.5 L 206.7 162.4 C 206.7 162.4 200.7 136.4 200.6 132.1 C 200.5 127.8 208.79999999999998 128.2 206.79999999999998 112 C 204.7 95.8 196.29999999999998 83.3 176.6 88.8 C 156.9 94.3 152.4 102.5 154.6 117.1" stroke-linecap="round" />
</g>
		<g transform="matrix(1 0 0 1 -75.63 -28.61)" clip-path="url(#CLIPPATH_16)"  >
<clipPath id="CLIPPATH_16" >
	<path transform="matrix(1 0 0 1 100 -14.89) translate(-142.5, -110)" id="SVGID_00000131357307357971316280000014161718659767606663_" d="M 35 0 L 250 0 C 269.3 0 285 15.7 285 35 L 285 185 C 285 204.3 269.3 220 250 220 L 35 220 C 15.7 220 0 204.3 0 185 L 0 35 C 0 15.7 15.7 0 35 0 z" stroke-linecap="round" />
</clipPath>
<path style="stroke: none; stroke-width: 1; stroke-dasharray: none; stroke-linecap: butt; stroke-dashoffset: 0; stroke-linejoin: miter; stroke-miterlimit: 4; fill: rgb(252,208,220); fill-rule: nonzero; opacity: 1;" vector-effect="non-scaling-stroke"  transform=" translate(-42.5, -124.89)" d="M 70.3 112.5 C 68.3 125.2 65.6 132.4 52.599999999999994 135.8 C 39.599999999999994 139.20000000000002 40.699999999999996 140.5 39.699999999999996 143 C 38.699999999999996 145.5 31.199999999999996 167.9 31.199999999999996 167.9 L 14.599999999999994 159.5 C 14.599999999999994 159.5 20.999999999999993 132.5 21.099999999999994 128.1 C 21.199999999999996 123.69999999999999 12.299999999999994 124.1 14.499999999999995 107.3 C 16.699999999999996 90.5 25.699999999999996 77.6 46.699999999999996 83.19999999999999 C 67.8 88.8 72.7 97.4 70.3 112.5" stroke-linecap="round" />
</g>
		<g transform="matrix(1 0 0 1 48.2 -19.89)" clip-path="url(#CLIPPATH_17)"  >
<clipPath id="CLIPPATH_17" >
	<path transform="matrix(1 0 0 1 -23.84 -23.61) translate(-142.5, -110)" id="SVGID_00000131357307357971316280000014161718659767606663_" d="M 35 0 L 250 0 C 269.3 0 285 15.7 285 35 L 285 185 C 285 204.3 269.3 220 250 220 L 35 220 C 15.7 220 0 204.3 0 185 L 0 35 C 0 15.7 15.7 0 35 0 z" stroke-linecap="round" />
</clipPath>
<path style="stroke: none; stroke-width: 1; stroke-dasharray: none; stroke-linecap: butt; stroke-dashoffset: 0; stroke-linejoin: miter; stroke-miterlimit: 4; fill: rgb(240,76,58); fill-rule: nonzero; opacity: 1;" vector-effect="non-scaling-stroke"  transform=" translate(-166.34, -133.61)" d="M 170.3 131 C 169.9 130 169.10000000000002 131 168 131 C 168 131 164.2 131.6 163.9 131.7 C 162.6 132.2 161.9 133.6 162.4 135 C 162.9 136.3 164.3 137 165.70000000000002 136.5 C 166.00000000000003 136.4 166.10000000000002 136.3 166.3 136.1 C 166.5 136.1 166.70000000000002 136.1 166.9 136 L 166.9 136 L 168.6 135.4 L 168.6 135.4 L 169.4 135.1 L 169.3 135 C 170.2 134.3 170.7 132.1 170.3 131" stroke-linecap="round" />
</g>
		<g transform="matrix(1 0 0 1 -59.48 -25.49)" clip-path="url(#CLIPPATH_18)"  >
<clipPath id="CLIPPATH_18" >
	<path transform="matrix(1 0 0 1 83.84 -18.01) translate(-142.5, -110)" id="SVGID_00000131357307357971316280000014161718659767606663_" d="M 35 0 L 250 0 C 269.3 0 285 15.7 285 35 L 285 185 C 285 204.3 269.3 220 250 220 L 35 220 C 15.7 220 0 204.3 0 185 L 0 35 C 0 15.7 15.7 0 35 0 z" stroke-linecap="round" />
</clipPath>
<path style="stroke: none; stroke-width: 1; stroke-dasharray: none; stroke-linecap: butt; stroke-dashoffset: 0; stroke-linejoin: miter; stroke-miterlimit: 4; fill: rgb(240,76,58); fill-rule: nonzero; opacity: 1;" vector-effect="non-scaling-stroke"  transform=" translate(-58.66, -128.01)" d="M 54.7 125.4 C 55.1 124.4 55.900000000000006 125.4 57 125.4 C 57 125.4 60.8 126 61.1 126.10000000000001 C 62.4 126.60000000000001 63.1 128 62.6 129.4 C 62.1 130.70000000000002 60.7 131.4 59.300000000000004 130.9 C 59.00000000000001 130.8 58.900000000000006 130.70000000000002 58.7 130.5 C 58.5 130.5 58.300000000000004 130.5 58.1 130.4 L 58.1 130.4 L 56.4 129.8 L 56.4 129.8 L 55.6 129.5 L 55.7 129.4 C 54.8 128.6 54.3 126.4 54.7 125.4" stroke-linecap="round" />
</g>
		<g transform="matrix(1 0 0 1 66.65 37.1)" clip-path="url(#CLIPPATH_19)"  >
<clipPath id="CLIPPATH_19" >
	<path transform="matrix(1 0 0 1 -42.29 -80.6) translate(-142.5, -110)" id="SVGID_00000131357307357971316280000014161718659767606663_" d="M 35 0 L 250 0 C 269.3 0 285 15.7 285 35 L 285 185 C 285 204.3 269.3 220 250 220 L 35 220 C 15.7 220 0 204.3 0 185 L 0 35 C 0 15.7 15.7 0 35 0 z" stroke-linecap="round" />
</clipPath>
<path style="stroke: none; stroke-width: 1; stroke-dasharray: none; stroke-linecap: butt; stroke-dashoffset: 0; stroke-linejoin: miter; stroke-miterlimit: 4; fill: rgb(106,104,206); fill-rule: nonzero; opacity: 1;" vector-effect="non-scaling-stroke"  transform=" translate(-184.79, -190.6)" d="M 180.3 143.2 L 197.60000000000002 143.79999999999998 L 198.60000000000002 147.29999999999998 C 198.60000000000002 147.29999999999998 209.8 145.39999999999998 214.3 147.6 C 218.8 149.79999999999998 224.8 150.79999999999998 227.10000000000002 158.5 C 229.3 166.2 226.20000000000002 224.4 225.20000000000002 228.6 C 224.20000000000002 232.79999999999998 219.70000000000002 236.29999999999998 219.70000000000002 236.29999999999998 L 160.8 237.99999999999997 L 155 236.69999999999996 L 156.6 219.19999999999996 L 141.7 219.19999999999996 C 141.7 219.19999999999996 151.1 171.99999999999994 156.39999999999998 159.29999999999995 C 162.49999999999997 144.79999999999995 181.39999999999998 146.29999999999995 181.39999999999998 146.29999999999995 L 180.3 143.2 z" stroke-linecap="round" />
</g>
		<g transform="matrix(1 0 0 1 -83.02 38.9)" clip-path="url(#CLIPPATH_20)"  >
<clipPath id="CLIPPATH_20" >
	<path transform="matrix(1 0 0 1 107.39 -82.4) translate(-142.5, -110)" id="SVGID_00000131357307357971316280000014161718659767606663_" d="M 35 0 L 250 0 C 269.3 0 285 15.7 285 35 L 285 185 C 285 204.3 269.3 220 250 220 L 35 220 C 15.7 220 0 204.3 0 185 L 0 35 C 0 15.7 15.7 0 35 0 z" stroke-linecap="round" />
</clipPath>
<path style="stroke: none; stroke-width: 1; stroke-dasharray: none; stroke-linecap: butt; stroke-dashoffset: 0; stroke-linejoin: miter; stroke-miterlimit: 4; fill: rgb(27,25,68); fill-rule: nonzero; opacity: 1;" vector-effect="non-scaling-stroke"  transform=" translate(-35.11, -192.4)" d="M 35.1 151.7 C 28 151.7 20.6 139.89999999999998 20.6 139.89999999999998 C 20.6 139.89999999999998 14.200000000000001 139.7 9.700000000000001 141.99999999999997 C 5.200000000000001 144.29999999999995 -0.7999999999999989 145.19999999999996 -3.0999999999999996 152.89999999999998 C -5.3 160.59999999999997 -2.1999999999999997 218.79999999999998 -1.1999999999999997 222.99999999999997 C -0.19999999999999973 227.19999999999996 -0.6999999999999997 238.29999999999998 -0.6999999999999997 238.29999999999998 L 48.3 243.7 L 66.8 244.89999999999998 C 66.8 244.89999999999998 61.5 208.59999999999997 58.699999999999996 190.7 C 57.99999999999999 186.1 60.599999999999994 183.79999999999998 62.699999999999996 182.5 C 66.39999999999999 180.2 74.1 176.8 74.1 176.8 C 74.1 176.8 73 166.5 67.6 153.8 C 61.49999999999999 139.3 43.699999999999996 140 43.699999999999996 140 C 43.699999999999996 140 42.2 151.7 35.1 151.7" stroke-linecap="round" />
</g>
		<g transform="matrix(1 0 0 1 40.2 -34.87)" clip-path="url(#CLIPPATH_21)"  >
<clipPath id="CLIPPATH_21" >
	<path transform="matrix(1 0 0 1 -15.84 -8.63) translate(-142.5, -110)" id="SVGID_00000131357307357971316280000014161718659767606663_" d="M 35 0 L 250 0 C 269.3 0 285 15.7 285 35 L 285 185 C 285 204.3 269.3 220 250 220 L 35 220 C 15.7 220 0 204.3 0 185 L 0 35 C 0 15.7 15.7 0 35 0 z" stroke-linecap="round" />
</clipPath>
<path style="stroke: none; stroke-width: 1; stroke-dasharray: none; stroke-linecap: butt; stroke-dashoffset: 0; stroke-linejoin: miter; stroke-miterlimit: 4; fill: rgb(255,255,255); fill-rule: nonzero; opacity: 1;" vector-effect="non-scaling-stroke"  transform=" translate(-158.34, -118.63)" d="M 157.6 120.8 C 158.79999999999998 121.3 159.6 120.5 160.1 119.3 C 160.6 118.1 160.7 117 159.5 116.5 C 158.3 116 156.9 116.5 156.4 117.7 C 155.9 118.9 156.5 120.3 157.6 120.8" stroke-linecap="round" />
</g>
		<g transform="matrix(1 0 0 1 42.13 -34.13)" clip-path="url(#CLIPPATH_22)"  >
<clipPath id="CLIPPATH_22" >
	<path transform="matrix(1 0 0 1 -17.77 -9.37) translate(-142.5, -110)" id="SVGID_00000131357307357971316280000014161718659767606663_" d="M 35 0 L 250 0 C 269.3 0 285 15.7 285 35 L 285 185 C 285 204.3 269.3 220 250 220 L 35 220 C 15.7 220 0 204.3 0 185 L 0 35 C 0 15.7 15.7 0 35 0 z" stroke-linecap="round" />
</clipPath>
<path style="stroke: none; stroke-width: 1; stroke-dasharray: none; stroke-linecap: butt; stroke-dashoffset: 0; stroke-linejoin: miter; stroke-miterlimit: 4; fill: rgb(255,255,255); fill-rule: nonzero; opacity: 1;" vector-effect="non-scaling-stroke"  transform=" translate(-160.27, -119.37)" d="M 159.1 121.5 C 157.9 121 158 119.9 158.5 118.7 C 159 117.5 159.8 116.7 161 117.2 C 162.2 117.7 162.7 119.10000000000001 162.2 120.3 C 161.6 121.5 160.2 122 159.1 121.5" stroke-linecap="round" />
</g>
		<g transform="matrix(1 0 0 1 0.06 36.75)" clip-path="url(#CLIPPATH_23)"  >
<clipPath id="CLIPPATH_23" >
	<path transform="matrix(1 0 0 1 24.3 -80.25) translate(-142.5, -110)" id="SVGID_00000131357307357971316280000014161718659767606663_" d="M 35 0 L 250 0 C 269.3 0 285 15.7 285 35 L 285 185 C 285 204.3 269.3 220 250 220 L 35 220 C 15.7 220 0 204.3 0 185 L 0 35 C 0 15.7 15.7 0 35 0 z" stroke-linecap="round" />
</clipPath>
<rect style="stroke: none; stroke-width: 1; stroke-dasharray: none; stroke-linecap: butt; stroke-dashoffset: 0; stroke-linejoin: miter; stroke-miterlimit: 4; fill: none; fill-rule: nonzero; opacity: 1;" vector-effect="non-scaling-stroke"  x="-225" y="-111.75" rx="0" ry="0" width="450" height="223.5" />
</g>
		<g transform="matrix(0.41 -0.91 0.91 0.41 41.49 -34.4)" clip-path="url(#CLIPPATH_24)"  >
<clipPath id="CLIPPATH_24" >
	<path transform="matrix(0.41 0.91 -0.91 0.41 1.35 -19.35) translate(-142.5, -110)" id="SVGID_00000131357307357971316280000014161718659767606663_" d="M 35 0 L 250 0 C 269.3 0 285 15.7 285 35 L 285 185 C 285 204.3 269.3 220 250 220 L 35 220 C 15.7 220 0 204.3 0 185 L 0 35 C 0 15.7 15.7 0 35 0 z" stroke-linecap="round" />
</clipPath>
<rect style="stroke: none; stroke-width: 1; stroke-dasharray: none; stroke-linecap: butt; stroke-dashoffset: 0; stroke-linejoin: miter; stroke-miterlimit: 4; fill: rgb(255,255,255); fill-rule: nonzero; opacity: 1;" vector-effect="non-scaling-stroke"  x="-2.35" y="-1.25" rx="0" ry="0" width="4.7" height="2.5" />
</g>
		<g transform="matrix(1 0 0 1 38.99 -35.37)" clip-path="url(#CLIPPATH_25)"  >
<clipPath id="CLIPPATH_25" >
	<rect transform="matrix(1 0 0 1 -38.93 72.12)" id="SVGID_00000181788837219921659100000006298661228989692041_" clip-path="url(#undefined)" x="-225" y="-111.75" rx="0" ry="0" width="450" height="223.5" />
</clipPath>
<path style="stroke: none; stroke-width: 1; stroke-dasharray: none; stroke-linecap: butt; stroke-dashoffset: 0; stroke-linejoin: miter; stroke-miterlimit: 4; fill: rgb(27,25,68); fill-rule: nonzero; opacity: 1;" vector-effect="non-scaling-stroke"  transform=" translate(-157.13, -118.13)" d="M 156.4 120.3 C 157.6 120.8 158.4 120 158.9 118.8 C 159.4 117.6 159.5 116.5 158.3 116 C 157.10000000000002 115.5 155.70000000000002 116 155.20000000000002 117.2 C 154.7 118.4 155.2 119.8 156.4 120.3" stroke-linecap="round" />
</g>
		<g transform="matrix(1 0 0 1 -51.57 -40.47)" clip-path="url(#CLIPPATH_26)"  >
<clipPath id="CLIPPATH_26" >
	<rect transform="matrix(1 0 0 1 51.63 77.22)" id="SVGID_00000181788837219921659100000006298661228989692041_" clip-path="url(#undefined)" x="-225" y="-111.75" rx="0" ry="0" width="450" height="223.5" />
</clipPath>
<path style="stroke: none; stroke-width: 1; stroke-dasharray: none; stroke-linecap: butt; stroke-dashoffset: 0; stroke-linejoin: miter; stroke-miterlimit: 4; fill: rgb(255,255,255); fill-rule: nonzero; opacity: 1;" vector-effect="non-scaling-stroke"  transform=" translate(-66.57, -113.03)" d="M 67.3 115.2 C 66.1 115.7 65.3 114.9 64.8 113.7 C 64.3 112.5 64.2 111.4 65.39999999999999 110.9 C 66.6 110.4 67.99999999999999 110.9 68.49999999999999 112.10000000000001 C 69 113.3 68.5 114.6 67.3 115.2" stroke-linecap="round" />
</g>
		<g transform="matrix(1 0 0 1 -53.41 -39.83)" clip-path="url(#CLIPPATH_27)"  >
<clipPath id="CLIPPATH_27" >
	<rect transform="matrix(1 0 0 1 53.47 76.58)" id="SVGID_00000181788837219921659100000006298661228989692041_" clip-path="url(#undefined)" x="-225" y="-111.75" rx="0" ry="0" width="450" height="223.5" />
</clipPath>
<path style="stroke: none; stroke-width: 1; stroke-dasharray: none; stroke-linecap: butt; stroke-dashoffset: 0; stroke-linejoin: miter; stroke-miterlimit: 4; fill: rgb(255,255,255); fill-rule: nonzero; opacity: 1;" vector-effect="non-scaling-stroke"  transform=" translate(-64.73, -113.67)" d="M 65.9 115.8 C 67.10000000000001 115.3 67 114.2 66.5 113 C 66 111.8 65.2 111 64 111.5 C 62.8 112 62.3 113.4 62.8 114.6 C 63.3 115.8 64.7 116.3 65.9 115.8" stroke-linecap="round" />
</g>
		<g transform="matrix(0.91 -0.41 0.41 0.91 -52.8 -40.05)" clip-path="url(#CLIPPATH_28)"  >
<clipPath id="CLIPPATH_28" >
	<path transform="matrix(0.91 0.41 -0.41 0.91 71.89 28.24) translate(-142.5, -110)" id="SVGID_00000131357307357971316280000014161718659767606663_" d="M 35 0 L 250 0 C 269.3 0 285 15.7 285 35 L 285 185 C 285 204.3 269.3 220 250 220 L 35 220 C 15.7 220 0 204.3 0 185 L 0 35 C 0 15.7 15.7 0 35 0 z" stroke-linecap="round" />
</clipPath>
<rect style="stroke: none; stroke-width: 1; stroke-dasharray: none; stroke-linecap: butt; stroke-dashoffset: 0; stroke-linejoin: miter; stroke-miterlimit: 4; fill: rgb(255,255,255); fill-rule: nonzero; opacity: 1;" vector-effect="non-scaling-stroke"  x="-1.25" y="-2.35" rx="0" ry="0" width="2.5" height="4.7" />
</g>
		<g transform="matrix(1 0 0 1 54.86 -31.77)" clip-path="url(#CLIPPATH_29)"  >
<clipPath id="CLIPPATH_29" >
	<rect transform="matrix(1 0 0 1 -54.8 68.52)" id="SVGID_00000163048225305695103600000000832489183491854235_" clip-path="url(#undefined)" x="-225" y="-111.75" rx="0" ry="0" width="450" height="223.5" />
</clipPath>
<path style="stroke: none; stroke-width: 1; stroke-dasharray: none; stroke-linecap: butt; stroke-dashoffset: 0; stroke-linejoin: miter; stroke-miterlimit: 4; fill: rgb(255,255,255); fill-rule: nonzero; opacity: 1;" vector-effect="non-scaling-stroke"  transform=" translate(-173, -121.73)" d="M 172.7 130.8 C 172.5 130.8 172.29999999999998 130.8 172.1 130.8 C 170.2 130.60000000000002 168.5 129.4 167.29999999999998 127.50000000000001 C 166.2 125.70000000000002 165.7 123.40000000000002 165.99999999999997 121.00000000000001 C 166.19999999999996 118.60000000000001 167.19999999999996 116.50000000000001 168.59999999999997 114.90000000000002 C 170.09999999999997 113.30000000000003 171.99999999999997 112.50000000000001 173.89999999999998 112.70000000000002 C 175.79999999999998 112.90000000000002 177.49999999999997 114.10000000000002 178.7 116.00000000000001 C 179.79999999999998 117.80000000000001 180.29999999999998 120.10000000000001 180 122.50000000000001 C 179.8 124.90000000000002 178.8 127.00000000000001 177.4 128.60000000000002 C 176.1 130 174.4 130.8 172.7 130.8 z M 173.4 114.7 C 172.20000000000002 114.7 171 115.3 170 116.3 C 168.8 117.6 168.1 119.3 167.9 121.3 C 167.70000000000002 123.2 168.1 125.1 168.9 126.6 C 169.70000000000002 128 170.9 128.79999999999998 172.20000000000002 129 C 173.50000000000003 129.1 174.8 128.6 175.9 127.4 C 177.1 126.10000000000001 177.8 124.4 178 122.4 C 178.2 120.5 177.8 118.60000000000001 177 117.10000000000001 C 176.2 115.7 175 114.9 173.7 114.7 C 173.7 114.7 173.5 114.7 173.4 114.7 z" stroke-linecap="round" />
</g>
		<g transform="matrix(1 0 0 1 39.91 -34.06)" clip-path="url(#CLIPPATH_30)"  >
<clipPath id="CLIPPATH_30" >
	<rect transform="matrix(1 0 0 1 -39.85 70.81)" id="SVGID_00000163048225305695103600000000832489183491854235_" clip-path="url(#undefined)" x="-225" y="-111.75" rx="0" ry="0" width="450" height="223.5" />
</clipPath>
<path style="stroke: none; stroke-width: 1; stroke-dasharray: none; stroke-linecap: butt; stroke-dashoffset: 0; stroke-linejoin: miter; stroke-miterlimit: 4; fill: rgb(255,255,255); fill-rule: nonzero; opacity: 1;" vector-effect="non-scaling-stroke"  transform=" translate(-158.05, -119.44)" d="M 157.7 128.5 C 157.5 128.5 157.29999999999998 128.5 157.1 128.5 C 155.2 128.3 153.5 127.1 152.29999999999998 125.2 C 151.2 123.4 150.7 121.10000000000001 150.99999999999997 118.7 C 151.49999999999997 113.7 155.09999999999997 110 158.99999999999997 110.4 C 160.89999999999998 110.60000000000001 162.59999999999997 111.80000000000001 163.79999999999998 113.7 C 164.89999999999998 115.5 165.39999999999998 117.8 165.1 120.2 L 165.1 120.2 C 164.9 122.60000000000001 163.9 124.7 162.5 126.3 C 161 127.8 159.4 128.5 157.7 128.5 z M 158.4 112.4 C 155.70000000000002 112.4 153.3 115.30000000000001 152.9 119 C 152.70000000000002 120.9 153.1 122.8 153.9 124.3 C 154.70000000000002 125.7 155.9 126.5 157.20000000000002 126.7 C 158.50000000000003 126.8 159.8 126.3 160.9 125.10000000000001 C 162.1 123.80000000000001 162.8 122.10000000000001 163 120.10000000000001 C 163.2 118.2 162.8 116.30000000000001 162 114.80000000000001 C 161.2 113.4 160 112.60000000000001 158.7 112.4 C 158.6 112.4 158.5 112.4 158.4 112.4 z" stroke-linecap="round" />
</g>
		<g transform="matrix(1 0 0 1 52.64 -32.45)" clip-path="url(#CLIPPATH_31)"  >
<clipPath id="CLIPPATH_31" >
	<rect transform="matrix(1 0 0 1 -52.58 69.2)" id="SVGID_00000163048225305695103600000000832489183491854235_" clip-path="url(#undefined)" x="-225" y="-111.75" rx="0" ry="0" width="450" height="223.5" />
</clipPath>
<path style="stroke: none; stroke-width: 1; stroke-dasharray: none; stroke-linecap: butt; stroke-dashoffset: 0; stroke-linejoin: miter; stroke-miterlimit: 4; fill: rgb(255,255,255); fill-rule: nonzero; opacity: 1;" vector-effect="non-scaling-stroke"  transform=" translate(-170.78, -121.05)" d="M 170.6 123.3 C 171.9 123.6 172.5 122.6 172.7 121.39999999999999 C 173 120.1 172.79999999999998 118.99999999999999 171.6 118.8 C 170.29999999999998 118.5 169.1 119.3 168.79999999999998 120.6 C 168.5 121.8 169.3 123.1 170.6 123.3" stroke-linecap="round" />
</g>
		<g transform="matrix(1 0 0 1 54.77 -32.06)" clip-path="url(#CLIPPATH_32)"  >
<clipPath id="CLIPPATH_32" >
	<rect transform="matrix(1 0 0 1 -54.71 68.81)" id="SVGID_00000163048225305695103600000000832489183491854235_" clip-path="url(#undefined)" x="-225" y="-111.75" rx="0" ry="0" width="450" height="223.5" />
</clipPath>
<path style="stroke: none; stroke-width: 1; stroke-dasharray: none; stroke-linecap: butt; stroke-dashoffset: 0; stroke-linejoin: miter; stroke-miterlimit: 4; fill: rgb(255,255,255); fill-rule: nonzero; opacity: 1;" vector-effect="non-scaling-stroke"  transform=" translate(-172.91, -121.44)" d="M 172.1 123.7 C 170.79999999999998 123.4 170.7 122.3 171 121.10000000000001 C 171.3 119.80000000000001 171.9 118.9 173.1 119.2 C 174.4 119.5 175.2 120.7 174.9 122 C 174.6 123.1 173.4 123.9 172.1 123.7" stroke-linecap="round" />
</g>
		<g transform="matrix(0.21 -0.98 0.98 0.21 54.08 -32.21)" clip-path="url(#CLIPPATH_33)"  >
<clipPath id="CLIPPATH_33" >
	<path transform="matrix(0.21 0.98 -0.98 0.21 4.86 -31.42) translate(-142.5, -110)" id="SVGID_00000131357307357971316280000014161718659767606663_" d="M 35 0 L 250 0 C 269.3 0 285 15.7 285 35 L 285 185 C 285 204.3 269.3 220 250 220 L 35 220 C 15.7 220 0 204.3 0 185 L 0 35 C 0 15.7 15.7 0 35 0 z" stroke-linecap="round" />
</clipPath>
<rect style="stroke: none; stroke-width: 1; stroke-dasharray: none; stroke-linecap: butt; stroke-dashoffset: 0; stroke-linejoin: miter; stroke-miterlimit: 4; fill: rgb(255,255,255); fill-rule: nonzero; opacity: 1;" vector-effect="non-scaling-stroke"  x="-2.35" y="-1.25" rx="0" ry="0" width="4.7" height="2.5" />
</g>
		<g transform="matrix(1 0 0 1 51.34 -32.65)" clip-path="url(#CLIPPATH_34)"  >
<clipPath id="CLIPPATH_34" >
	<rect transform="matrix(1 0 0 1 -51.28 69.4)" id="SVGID_00000181064783304749606810000009534709149248659339_" clip-path="url(#undefined)" x="-225" y="-111.75" rx="0" ry="0" width="450" height="223.5" />
</clipPath>
<path style="stroke: none; stroke-width: 1; stroke-dasharray: none; stroke-linecap: butt; stroke-dashoffset: 0; stroke-linejoin: miter; stroke-miterlimit: 4; fill: rgb(27,25,68); fill-rule: nonzero; opacity: 1;" vector-effect="non-scaling-stroke"  transform=" translate(-169.48, -120.85)" d="M 169.3 123.1 C 170.60000000000002 123.39999999999999 171.20000000000002 122.39999999999999 171.4 121.19999999999999 C 171.70000000000002 119.89999999999999 171.5 118.79999999999998 170.3 118.6 C 169 118.3 167.8 119.1 167.5 120.39999999999999 C 167.2 121.6 168 122.8 169.3 123.1" stroke-linecap="round" />
</g>
		<g transform="matrix(1 0 0 1 -63.92 -38.05)" clip-path="url(#CLIPPATH_35)"  >
<clipPath id="CLIPPATH_35" >
	<rect transform="matrix(1 0 0 1 63.98 74.8)" id="SVGID_00000181064783304749606810000009534709149248659339_" clip-path="url(#undefined)" x="-225" y="-111.75" rx="0" ry="0" width="450" height="223.5" />
</clipPath>
<path style="stroke: none; stroke-width: 1; stroke-dasharray: none; stroke-linecap: butt; stroke-dashoffset: 0; stroke-linejoin: miter; stroke-miterlimit: 4; fill: rgb(255,255,255); fill-rule: nonzero; opacity: 1;" vector-effect="non-scaling-stroke"  transform=" translate(-54.22, -115.45)" d="M 54.4 117.7 C 53.1 118 52.5 117 52.3 115.8 C 52 114.5 52.199999999999996 113.39999999999999 53.4 113.2 C 54.699999999999996 112.9 55.9 113.7 56.199999999999996 115 C 56.5 116.2 55.7 117.4 54.4 117.7" stroke-linecap="round" />
</g>
		<g transform="matrix(1 0 0 1 -66.05 -37.75)" clip-path="url(#CLIPPATH_36)"  >
<clipPath id="CLIPPATH_36" >
	<rect transform="matrix(1 0 0 1 66.11 74.5)" id="SVGID_00000181064783304749606810000009534709149248659339_" clip-path="url(#undefined)" x="-225" y="-111.75" rx="0" ry="0" width="450" height="223.5" />
</clipPath>
<path style="stroke: none; stroke-width: 1; stroke-dasharray: none; stroke-linecap: butt; stroke-dashoffset: 0; stroke-linejoin: miter; stroke-miterlimit: 4; fill: rgb(255,255,255); fill-rule: nonzero; opacity: 1;" vector-effect="non-scaling-stroke"  transform=" translate(-52.09, -115.75)" d="M 52.9 118 C 54.199999999999996 117.7 54.3 116.6 54 115.4 C 53.7 114.10000000000001 53.1 113.2 51.9 113.5 C 50.6 113.8 49.8 115 50.1 116.3 C 50.4 117.5 51.6 118.3 52.9 118" stroke-linecap="round" />
</g>
		<g transform="matrix(0.98 -0.21 0.21 0.98 -65.28 -37.85)" clip-path="url(#CLIPPATH_37)"  >
<clipPath id="CLIPPATH_37" >
	<path transform="matrix(0.98 0.21 -0.21 0.98 88.85 13.11) translate(-142.5, -110)" id="SVGID_00000131357307357971316280000014161718659767606663_" d="M 35 0 L 250 0 C 269.3 0 285 15.7 285 35 L 285 185 C 285 204.3 269.3 220 250 220 L 35 220 C 15.7 220 0 204.3 0 185 L 0 35 C 0 15.7 15.7 0 35 0 z" stroke-linecap="round" />
</clipPath>
<rect style="stroke: none; stroke-width: 1; stroke-dasharray: none; stroke-linecap: butt; stroke-dashoffset: 0; stroke-linejoin: miter; stroke-miterlimit: 4; fill: rgb(255,255,255); fill-rule: nonzero; opacity: 1;" vector-effect="non-scaling-stroke"  x="-1.25" y="-2.35" rx="0" ry="0" width="2.5" height="4.7" />
</g>
		<g transform="matrix(1 0 0 1 89.64 -8.7)" clip-path="url(#CLIPPATH_38)"  >
<clipPath id="CLIPPATH_38" >
	<path transform="matrix(1 0 0 1 -65.28 -34.8) translate(-142.5, -110)" id="SVGID_00000131357307357971316280000014161718659767606663_" d="M 35 0 L 250 0 C 269.3 0 285 15.7 285 35 L 285 185 C 285 204.3 269.3 220 250 220 L 35 220 C 15.7 220 0 204.3 0 185 L 0 35 C 0 15.7 15.7 0 35 0 z" stroke-linecap="round" />
</clipPath>
<path style="stroke: none; stroke-width: 1; stroke-dasharray: none; stroke-linecap: butt; stroke-dashoffset: 0; stroke-linejoin: miter; stroke-miterlimit: 4; fill: rgb(27,25,68); fill-rule: nonzero; opacity: 1;" vector-effect="non-scaling-stroke"  transform=" translate(-207.78, -144.8)" d="M 155 96.3 C 155 96.3 161.6 88.89999999999999 174.5 86.6 C 176.4 86.3 178.2 86.1 180.1 86 C 184.9 86 189.2 87 191.7 87.8 C 198.1 90.2 203.7 95.3 207.2 104.1 C 212.39999999999998 117 219.5 119 230.7 125 C 241.89999999999998 131 239 136 241.89999999999998 143 C 244.89999999999998 150 250.59999999999997 148.4 256.2 153.5 C 261.8 158.6 262.4 159.6 255.7 172.5 C 249 185.4 220.5 203.6 220.5 203.6 C 220.5 203.6 215.3 181 200 165 C 190.7 155.4 197.7 143.2 196.5 138.5 C 195.3 133.8 191.2 132.9 188.2 130.2 C 185.2 127.49999999999999 188.6 125.89999999999999 190 122.39999999999999 C 191.4 118.89999999999999 191 114.49999999999999 186.7 113.99999999999999 C 182.29999999999998 113.59999999999998 183.1 117.99999999999999 183.1 117.99999999999999 C 183.1 117.99999999999999 176.4 118.99999999999999 165.9 112.79999999999998 C 155.4 106.6 155 96.3 155 96.3" stroke-linecap="round" />
</g>
		<g transform="matrix(1 0 0 1 71.41 -25.76)" clip-path="url(#CLIPPATH_39)"  >
<clipPath id="CLIPPATH_39" >
	<path transform="matrix(1 0 0 1 -47.05 -17.74) translate(-142.5, -110)" id="SVGID_00000131357307357971316280000014161718659767606663_" d="M 35 0 L 250 0 C 269.3 0 285 15.7 285 35 L 285 185 C 285 204.3 269.3 220 250 220 L 35 220 C 15.7 220 0 204.3 0 185 L 0 35 C 0 15.7 15.7 0 35 0 z" stroke-linecap="round" />
</clipPath>
<path style="stroke: none; stroke-width: 1; stroke-dasharray: none; stroke-linecap: butt; stroke-dashoffset: 0; stroke-linejoin: miter; stroke-miterlimit: 4; fill: rgb(106,104,206); fill-rule: nonzero; opacity: 1;" vector-effect="non-scaling-stroke"  transform=" translate(-189.55, -127.74)" d="M 190.4 124.2 L 194.6 129.8 C 194.6 129.8 193.2 131.9 189.5 131.10000000000002 C 185.7 130.40000000000003 184.5 128.00000000000003 184.5 128.00000000000003 L 190.4 124.2 z" stroke-linecap="round" />
</g>
		<g transform="matrix(1 0 0 1 73.93 -24.05)" clip-path="url(#CLIPPATH_40)"  >
<clipPath id="CLIPPATH_40" >
	<path transform="matrix(1 0 0 1 -49.57 -19.45) translate(-142.5, -110)" id="SVGID_00000131357307357971316280000014161718659767606663_" d="M 35 0 L 250 0 C 269.3 0 285 15.7 285 35 L 285 185 C 285 204.3 269.3 220 250 220 L 35 220 C 15.7 220 0 204.3 0 185 L 0 35 C 0 15.7 15.7 0 35 0 z" stroke-linecap="round" />
</clipPath>
<path style="stroke: none; stroke-width: 1; stroke-dasharray: none; stroke-linecap: butt; stroke-dashoffset: 0; stroke-linejoin: miter; stroke-miterlimit: 4; fill: rgb(252,208,220); fill-rule: nonzero; opacity: 1;" vector-effect="non-scaling-stroke"  transform=" translate(-192.07, -129.45)" d="M 192.2 130.4 C 191.7 130.5 191.29999999999998 130.1 191.2 129.6 C 191.1 129.1 191.5 128.6 191.89999999999998 128.5 C 192.39999999999998 128.4 192.79999999999998 128.7 192.89999999999998 129.2 C 193.1 129.7 192.7 130.3 192.2 130.4" stroke-linecap="round" />
</g>
		<g transform="matrix(1 0 0 1 71.61 -23.85)" clip-path="url(#CLIPPATH_41)"  >
<clipPath id="CLIPPATH_41" >
	<path transform="matrix(1 0 0 1 -47.25 -19.65) translate(-142.5, -110)" id="SVGID_00000131357307357971316280000014161718659767606663_" d="M 35 0 L 250 0 C 269.3 0 285 15.7 285 35 L 285 185 C 285 204.3 269.3 220 250 220 L 35 220 C 15.7 220 0 204.3 0 185 L 0 35 C 0 15.7 15.7 0 35 0 z" stroke-linecap="round" />
</clipPath>
<path style="stroke: none; stroke-width: 1; stroke-dasharray: none; stroke-linecap: butt; stroke-dashoffset: 0; stroke-linejoin: miter; stroke-miterlimit: 4; fill: rgb(252,208,220); fill-rule: nonzero; opacity: 1;" vector-effect="non-scaling-stroke"  transform=" translate(-189.75, -129.65)" d="M 189.9 130.6 C 189.4 130.7 189 130.29999999999998 188.9 129.79999999999998 C 188.8 129.29999999999998 189.20000000000002 128.79999999999998 189.6 128.7 C 190.1 128.6 190.5 128.89999999999998 190.6 129.39999999999998 C 190.7 129.9 190.3 130.5 189.9 130.6" stroke-linecap="round" />
</g>
		<g transform="matrix(1 0 0 1 69.22 -24.95)" clip-path="url(#CLIPPATH_42)"  >
<clipPath id="CLIPPATH_42" >
	<path transform="matrix(1 0 0 1 -44.85 -18.55) translate(-142.5, -110)" id="SVGID_00000131357307357971316280000014161718659767606663_" d="M 35 0 L 250 0 C 269.3 0 285 15.7 285 35 L 285 185 C 285 204.3 269.3 220 250 220 L 35 220 C 15.7 220 0 204.3 0 185 L 0 35 C 0 15.7 15.7 0 35 0 z" stroke-linecap="round" />
</clipPath>
<path style="stroke: none; stroke-width: 1; stroke-dasharray: none; stroke-linecap: butt; stroke-dashoffset: 0; stroke-linejoin: miter; stroke-miterlimit: 4; fill: rgb(252,208,220); fill-rule: nonzero; opacity: 1;" vector-effect="non-scaling-stroke"  transform=" translate(-187.35, -128.55)" d="M 187.5 129.5 C 187 129.6 186.6 129.2 186.5 128.7 C 186.4 128.2 186.8 127.69999999999999 187.2 127.6 C 187.7 127.5 188.1 127.8 188.2 128.29999999999998 C 188.3 128.8 188 129.4 187.5 129.5" stroke-linecap="round" />
</g>
		<g transform="matrix(1 0 0 1 33.74 69.36)" clip-path="url(#CLIPPATH_43)"  >
<clipPath id="CLIPPATH_43" >
	<path transform="matrix(1 0 0 1 -9.37 -112.86) translate(-142.5, -110)" id="SVGID_00000131357307357971316280000014161718659767606663_" d="M 35 0 L 250 0 C 269.3 0 285 15.7 285 35 L 285 185 C 285 204.3 269.3 220 250 220 L 35 220 C 15.7 220 0 204.3 0 185 L 0 35 C 0 15.7 15.7 0 35 0 z" stroke-linecap="round" />
</clipPath>
<path style="stroke: none; stroke-width: 1; stroke-dasharray: none; stroke-linecap: butt; stroke-dashoffset: 0; stroke-linejoin: miter; stroke-miterlimit: 4; fill: rgb(106,104,206); fill-rule: nonzero; opacity: 1;" vector-effect="non-scaling-stroke"  transform=" translate(-151.87, -222.86)" d="M 141.9 216.7 C 140.70000000000002 221.5 143.8 223.29999999999998 143.8 223.29999999999998 L 143.8 226.79999999999998 C 143.8 226.79999999999998 152.3 224.89999999999998 159.10000000000002 232.6 C 165.90000000000003 240.29999999999998 159.10000000000002 211.79999999999998 159.10000000000002 211.79999999999998 L 141.9 216.7 z" stroke-linecap="round" />
</g>
		<g transform="matrix(1 0 0 1 86.28 135.06)" clip-path="url(#CLIPPATH_44)"  >
<clipPath id="CLIPPATH_44" >
	<path transform="matrix(1 0 0 1 -61.92 -178.56) translate(-142.5, -110)" id="SVGID_00000131357307357971316280000014161718659767606663_" d="M 35 0 L 250 0 C 269.3 0 285 15.7 285 35 L 285 185 C 285 204.3 269.3 220 250 220 L 35 220 C 15.7 220 0 204.3 0 185 L 0 35 C 0 15.7 15.7 0 35 0 z" stroke-linecap="round" />
</clipPath>
<path style="stroke: none; stroke-width: 1; stroke-dasharray: none; stroke-linecap: butt; stroke-dashoffset: 0; stroke-linejoin: miter; stroke-miterlimit: 4; fill: rgb(27,25,68); fill-rule: nonzero; opacity: 1;" vector-effect="non-scaling-stroke"  transform=" translate(-204.42, -288.56)" d="M 191.1 292.6 L 206.29999999999998 276.40000000000003 C 206.29999999999998 276.40000000000003 207.49999999999997 274.50000000000006 209.49999999999997 275.50000000000006 C 211.49999999999997 276.50000000000006 218.39999999999998 280.6000000000001 218.39999999999998 280.6000000000001 C 218.39999999999998 280.6000000000001 219.89999999999998 281.00000000000006 217.99999999999997 283.4000000000001 C 216.19999999999996 285.9000000000001 202.29999999999998 301.30000000000007 202.29999999999998 301.30000000000007 C 202.29999999999998 301.30000000000007 201.89999999999998 302.9000000000001 198.99999999999997 300.9000000000001 C 196.09999999999997 298.9000000000001 191.89999999999998 296.6000000000001 190.69999999999996 295.6000000000001 C 189.5 294.7 189.6 293.8 191.1 292.6" stroke-linecap="round" />
</g>
		<g transform="matrix(1 0 0 1 88.04 102.54)" clip-path="url(#CLIPPATH_45)"  >
<clipPath id="CLIPPATH_45" >
	<path transform="matrix(1 0 0 1 -63.68 -146.04) translate(-142.5, -110)" id="SVGID_00000131357307357971316280000014161718659767606663_" d="M 35 0 L 250 0 C 269.3 0 285 15.7 285 35 L 285 185 C 285 204.3 269.3 220 250 220 L 35 220 C 15.7 220 0 204.3 0 185 L 0 35 C 0 15.7 15.7 0 35 0 z" stroke-linecap="round" />
</clipPath>
<path style="stroke: none; stroke-width: 1; stroke-dasharray: none; stroke-linecap: butt; stroke-dashoffset: 0; stroke-linejoin: miter; stroke-miterlimit: 4; fill: rgb(255,255,255); fill-rule: nonzero; opacity: 1;" vector-effect="non-scaling-stroke"  transform=" translate(-206.18, -256.04)" d="M 202.5 222.8 C 202.5 222.8 202.1 218.10000000000002 210.6 220.20000000000002 C 212.1 220.60000000000002 218.79999999999998 226.8 218.79999999999998 226.8 L 203.99999999999997 277.3 C 203.99999999999997 277.3 205.39999999999998 277 207.19999999999996 279.5 C 208.99999999999997 282.1 208.59999999999997 284.9 208.59999999999997 284.9 C 208.59999999999997 284.9 214.39999999999998 285.59999999999997 215.79999999999995 285.79999999999995 C 217.29999999999995 285.99999999999994 217.59999999999997 288.59999999999997 213.09999999999997 290.69999999999993 C 208.69999999999996 292.79999999999995 202.09999999999997 293.79999999999995 197.79999999999995 288.79999999999995 C 193.39999999999995 283.79999999999995 193.09999999999997 281.9 193.89999999999995 277.79999999999995 C 194.69999999999996 273.69999999999993 200.29999999999995 236.69999999999996 200.29999999999995 236.69999999999996 L 200.59999999999997 232.09999999999997 L 202.5 222.8 z" stroke-linecap="round" />
</g>
		<g transform="matrix(1 0 0 1 77.06 110.6)" clip-path="url(#CLIPPATH_46)"  >
<clipPath id="CLIPPATH_46" >
	<path transform="matrix(1 0 0 1 -52.7 -154.1) translate(-142.5, -110)" id="SVGID_00000131357307357971316280000014161718659767606663_" d="M 35 0 L 250 0 C 269.3 0 285 15.7 285 35 L 285 185 C 285 204.3 269.3 220 250 220 L 35 220 C 15.7 220 0 204.3 0 185 L 0 35 C 0 15.7 15.7 0 35 0 z" stroke-linecap="round" />
</clipPath>
<path style="stroke: none; stroke-width: 1; stroke-dasharray: none; stroke-linecap: butt; stroke-dashoffset: 0; stroke-linejoin: miter; stroke-miterlimit: 4; fill: rgb(240,76,58); fill-rule: nonzero; opacity: 1;" vector-effect="non-scaling-stroke"  transform=" translate(-195.2, -264.1)" d="M 195.3 262.3 C 196.20000000000002 262.3 196.9 263.2 196.9 264.2 C 196.9 265.2 196.1 266 195.20000000000002 265.9 C 194.3 265.9 193.50000000000003 265.29999999999995 193.50000000000003 264.29999999999995 C 193.5 263.4 194.4 262.3 195.3 262.3" stroke-linecap="round" />
</g>
		<g transform="matrix(1 0 0 1 80.66 109.1)" clip-path="url(#CLIPPATH_47)"  >
<clipPath id="CLIPPATH_47" >
	<path transform="matrix(1 0 0 1 -56.3 -152.6) translate(-142.5, -110)" id="SVGID_00000131357307357971316280000014161718659767606663_" d="M 35 0 L 250 0 C 269.3 0 285 15.7 285 35 L 285 185 C 285 204.3 269.3 220 250 220 L 35 220 C 15.7 220 0 204.3 0 185 L 0 35 C 0 15.7 15.7 0 35 0 z" stroke-linecap="round" />
</clipPath>
<path style="stroke: none; stroke-width: 1; stroke-dasharray: none; stroke-linecap: butt; stroke-dashoffset: 0; stroke-linejoin: miter; stroke-miterlimit: 4; fill: rgb(240,76,58); fill-rule: nonzero; opacity: 1;" vector-effect="non-scaling-stroke"  transform=" translate(-198.8, -262.6)" d="M 198.9 260.8 C 199.8 260.8 200.5 261.7 200.5 262.7 C 200.5 263.7 199.7 264.5 198.8 264.4 C 197.9 264.4 197.10000000000002 263.79999999999995 197.10000000000002 262.79999999999995 C 197.1 261.8 198 260.8 198.9 260.8" stroke-linecap="round" />
</g>
		<g transform="matrix(1 0 0 1 84.96 109.3)" clip-path="url(#CLIPPATH_48)"  >
<clipPath id="CLIPPATH_48" >
	<path transform="matrix(1 0 0 1 -60.6 -152.8) translate(-142.5, -110)" id="SVGID_00000131357307357971316280000014161718659767606663_" d="M 35 0 L 250 0 C 269.3 0 285 15.7 285 35 L 285 185 C 285 204.3 269.3 220 250 220 L 35 220 C 15.7 220 0 204.3 0 185 L 0 35 C 0 15.7 15.7 0 35 0 z" stroke-linecap="round" />
</clipPath>
<path style="stroke: none; stroke-width: 1; stroke-dasharray: none; stroke-linecap: butt; stroke-dashoffset: 0; stroke-linejoin: miter; stroke-miterlimit: 4; fill: rgb(240,76,58); fill-rule: nonzero; opacity: 1;" vector-effect="non-scaling-stroke"  transform=" translate(-203.1, -262.8)" d="M 203.2 261 C 204.1 261 204.79999999999998 261.9 204.79999999999998 262.9 C 204.79999999999998 263.9 203.99999999999997 264.7 203.1 264.59999999999997 C 202.2 264.59999999999997 201.4 263.99999999999994 201.4 262.99999999999994 C 201.4 262 202.3 260.9 203.2 261" stroke-linecap="round" />
</g>
		<g transform="matrix(1 0 0 1 88.36 111.9)" clip-path="url(#CLIPPATH_49)"  >
<clipPath id="CLIPPATH_49" >
	<path transform="matrix(1 0 0 1 -64 -155.4) translate(-142.5, -110)" id="SVGID_00000131357307357971316280000014161718659767606663_" d="M 35 0 L 250 0 C 269.3 0 285 15.7 285 35 L 285 185 C 285 204.3 269.3 220 250 220 L 35 220 C 15.7 220 0 204.3 0 185 L 0 35 C 0 15.7 15.7 0 35 0 z" stroke-linecap="round" />
</clipPath>
<path style="stroke: none; stroke-width: 1; stroke-dasharray: none; stroke-linecap: butt; stroke-dashoffset: 0; stroke-linejoin: miter; stroke-miterlimit: 4; fill: rgb(240,76,58); fill-rule: nonzero; opacity: 1;" vector-effect="non-scaling-stroke"  transform=" translate(-206.5, -265.4)" d="M 206.6 263.6 C 207.5 263.6 208.2 264.5 208.2 265.5 C 208.2 266.5 207.39999999999998 267.3 206.5 267.2 C 205.6 267.2 204.8 266.59999999999997 204.8 265.59999999999997 C 204.8 264.6 205.7 263.6 206.6 263.6" stroke-linecap="round" />
</g>
		<g transform="matrix(1 0 0 1 90.66 115.2)" clip-path="url(#CLIPPATH_50)"  >
<clipPath id="CLIPPATH_50" >
	<path transform="matrix(1 0 0 1 -66.3 -158.7) translate(-142.5, -110)" id="SVGID_00000131357307357971316280000014161718659767606663_" d="M 35 0 L 250 0 C 269.3 0 285 15.7 285 35 L 285 185 C 285 204.3 269.3 220 250 220 L 35 220 C 15.7 220 0 204.3 0 185 L 0 35 C 0 15.7 15.7 0 35 0 z" stroke-linecap="round" />
</clipPath>
<path style="stroke: none; stroke-width: 1; stroke-dasharray: none; stroke-linecap: butt; stroke-dashoffset: 0; stroke-linejoin: miter; stroke-miterlimit: 4; fill: rgb(238,108,50); fill-rule: nonzero; opacity: 1;" vector-effect="non-scaling-stroke"  transform=" translate(-208.8, -268.7)" d="M 208.9 266.9 C 209.8 266.9 210.5 267.79999999999995 210.5 268.79999999999995 C 210.5 269.79999999999995 209.7 270.59999999999997 208.8 270.49999999999994 C 207.9 270.49999999999994 207.10000000000002 269.8999999999999 207.10000000000002 268.8999999999999 C 207.1 267.9 208 266.9 208.9 266.9" stroke-linecap="round" />
</g>
		<g transform="matrix(1 0 0 1 70.15 36.95)" clip-path="url(#CLIPPATH_51)"  >
<clipPath id="CLIPPATH_51" >
	<path transform="matrix(1 0 0 1 -45.79 -80.45) translate(-142.5, -110)" id="SVGID_00000131357307357971316280000014161718659767606663_" d="M 35 0 L 250 0 C 269.3 0 285 15.7 285 35 L 285 185 C 285 204.3 269.3 220 250 220 L 35 220 C 15.7 220 0 204.3 0 185 L 0 35 C 0 15.7 15.7 0 35 0 z" stroke-linecap="round" />
</clipPath>
<path style="stroke: none; stroke-width: 1; stroke-dasharray: none; stroke-linecap: butt; stroke-dashoffset: 0; stroke-linejoin: miter; stroke-miterlimit: 4; fill: rgb(240,76,58); fill-rule: nonzero; opacity: 1;" vector-effect="non-scaling-stroke"  transform=" translate(-188.29, -190.45)" d="M 183.7 182.4 C 176.1 182.9 178.7 190.6 181.7 193.9 C 184.7 197.20000000000002 189.1 198.5 189.1 198.5 C 189.1 198.5 201.1 190.3 197 184.9 C 192.8 179.5 188.2 185.5 188.2 185.5 L 183.7 182.4 z" stroke-linecap="round" />
</g>
		<g transform="matrix(1 0 0 1 -78.95 25.05)" clip-path="url(#CLIPPATH_52)"  >
<clipPath id="CLIPPATH_52" >
	<path transform="matrix(1 0 0 1 103.31 -68.55) translate(-142.5, -110)" id="SVGID_00000131357307357971316280000014161718659767606663_" d="M 35 0 L 250 0 C 269.3 0 285 15.7 285 35 L 285 185 C 285 204.3 269.3 220 250 220 L 35 220 C 15.7 220 0 204.3 0 185 L 0 35 C 0 15.7 15.7 0 35 0 z" stroke-linecap="round" />
</clipPath>
<path style="stroke: none; stroke-width: 1; stroke-dasharray: none; stroke-linecap: butt; stroke-dashoffset: 0; stroke-linejoin: miter; stroke-miterlimit: 4; fill: rgb(106,104,206); fill-rule: nonzero; opacity: 1;" vector-effect="non-scaling-stroke"  transform=" translate(-39.19, -178.55)" d="M 34.6 170.5 C 27 171 29.6 178.7 32.6 182 C 35.6 185.3 40 186.6 40 186.6 C 40 186.6 52 178.4 47.9 173 C 43.699999999999996 167.6 39.099999999999994 173.6 39.099999999999994 173.6 L 34.6 170.5 z" stroke-linecap="round" />
</g>
		<g transform="matrix(1 0 0 1 -104.16 -18.12)" clip-path="url(#CLIPPATH_53)"  >
<clipPath id="CLIPPATH_53" >
	<path transform="matrix(1 0 0 1 128.52 -25.38) translate(-142.5, -110)" id="SVGID_00000131357307357971316280000014161718659767606663_" d="M 35 0 L 250 0 C 269.3 0 285 15.7 285 35 L 285 185 C 285 204.3 269.3 220 250 220 L 35 220 C 15.7 220 0 204.3 0 185 L 0 35 C 0 15.7 15.7 0 35 0 z" stroke-linecap="round" />
</clipPath>
<path style="stroke: none; stroke-width: 1; stroke-dasharray: none; stroke-linecap: butt; stroke-dashoffset: 0; stroke-linejoin: miter; stroke-miterlimit: 4; fill: rgb(240,76,58); fill-rule: nonzero; opacity: 1;" vector-effect="non-scaling-stroke"  transform=" translate(-13.98, -135.38)" d="M 71.5 92.8 C 71.5 92.8 65.9 84.39999999999999 53.1 80.5 C 51.300000000000004 79.9 49.4 79.5 47.5 79.2 C 42.6 78.2 39.9 78.4 35.6 79.5 C 28.8 81.1 22.6 85.4 17.8 93.8 C 10.9 106 3.4 107.1 -8.7 111.6 C -20.799999999999997 116.1 -18.5 121.6 -22.4 128.2 C -26.299999999999997 134.79999999999998 -31.9 132.5 -38.2 136.89999999999998 C -44.5 141.29999999999998 -45.300000000000004 142.2 -40.2 156.2 C -35.2 170.1 -8.900000000000002 192.2 -8.900000000000002 192.2 L 19.7 146.79999999999998 C 19.7 146.79999999999998 22.3 134.29999999999998 24.2 129.7 C 26 125.1 30.299999999999997 124.79999999999998 33.7 122.49999999999999 C 37.1 120.19999999999999 33.800000000000004 118.09999999999998 32.900000000000006 114.39999999999999 C 31.900000000000006 110.69999999999999 32.900000000000006 106.3 37.400000000000006 106.39999999999999 C 41.800000000000004 106.6 40.50000000000001 110.89999999999999 40.50000000000001 110.89999999999999 C 40.50000000000001 110.89999999999999 47.10000000000001 112.8 58.50000000000001 107.89999999999999 C 69.7 103.1 71.5 92.8 71.5 92.8" stroke-linecap="round" />
</g>
		<g transform="matrix(1 0 0 1 -81.41 -35.82)" clip-path="url(#CLIPPATH_54)"  >
<clipPath id="CLIPPATH_54" >
	<path transform="matrix(1 0 0 1 105.78 -7.68) translate(-142.5, -110)" id="SVGID_00000131357307357971316280000014161718659767606663_" d="M 35 0 L 250 0 C 269.3 0 285 15.7 285 35 L 285 185 C 285 204.3 269.3 220 250 220 L 35 220 C 15.7 220 0 204.3 0 185 L 0 35 C 0 15.7 15.7 0 35 0 z" stroke-linecap="round" />
</clipPath>
<path style="stroke: none; stroke-width: 1; stroke-dasharray: none; stroke-linecap: butt; stroke-dashoffset: 0; stroke-linejoin: miter; stroke-miterlimit: 4; fill: rgb(27,25,68); fill-rule: nonzero; opacity: 1;" vector-effect="non-scaling-stroke"  transform=" translate(-36.72, -117.68)" d="M 37.2 119 C 36.6 119.2 35.900000000000006 118.8 35.6 118.1 C 35.300000000000004 117.39999999999999 35.6 116.6 36.300000000000004 116.39999999999999 C 36.900000000000006 116.19999999999999 37.6 116.3 37.900000000000006 116.99999999999999 C 38.1 117.7 37.8 118.7 37.2 119" stroke-linecap="round" />
</g>
		<g transform="matrix(1 0 0 1 -14.02 50.56)" clip-path="url(#CLIPPATH_55)"  >
<clipPath id="CLIPPATH_55" >
	<path transform="matrix(1 0 0 1 38.39 -94.06) translate(-142.5, -110)" id="SVGID_00000131357307357971316280000014161718659767606663_" d="M 35 0 L 250 0 C 269.3 0 285 15.7 285 35 L 285 185 C 285 204.3 269.3 220 250 220 L 35 220 C 15.7 220 0 204.3 0 185 L 0 35 C 0 15.7 15.7 0 35 0 z" stroke-linecap="round" />
</clipPath>
<path style="stroke: none; stroke-width: 1; stroke-dasharray: none; stroke-linecap: butt; stroke-dashoffset: 0; stroke-linejoin: miter; stroke-miterlimit: 4; fill: rgb(255,255,255); fill-rule: nonzero; opacity: 1;" vector-effect="non-scaling-stroke"  transform=" translate(-104.11, -204.06)" d="M 73.6 176.7 L 79.5 207 C 79.5 207 113.7 187.4 118.2 184.5 C 122.7 181.6 127.3 176.9 132.3 179.9 C 137.3 182.9 136.3 185.5 139.4 187.5 C 142.5 189.5 145.8 188.4 147.8 188.7 C 149.8 188.89999999999998 151.20000000000002 189.1 151.5 191.5 C 151.7 193.9 152.7 193.1 150.7 193.2 C 148.7 193.39999999999998 138.2 195.5 136.7 194.89999999999998 C 135.29999999999998 194.29999999999998 131.2 190.49999999999997 129.79999999999998 190.29999999999998 C 128.39999999999998 190.2 98.29999999999998 216.2 92.69999999999999 220.79999999999998 C 87.1 225.49999999999997 73.69999999999999 236.1 65.49999999999999 229.2 C 61.29999999999998 225.6 61.09999999999999 219.7 60.29999999999998 215.5 C 59.499999999999986 211.2 56.29999999999998 187.1 56.29999999999998 187.1 C 56.29999999999998 187.1 57.09999999999998 180.7 62.69999999999998 178.4 C 68.4 176.2 73.6 176.7 73.6 176.7" stroke-linecap="round" />
</g>
		<g transform="matrix(1 0 0 1 -40.67 56.6)" clip-path="url(#CLIPPATH_56)"  >
<clipPath id="CLIPPATH_56" >
	<path transform="matrix(1 0 0 1 65.04 -100.1) translate(-142.5, -110)" id="SVGID_00000131357307357971316280000014161718659767606663_" d="M 35 0 L 250 0 C 269.3 0 285 15.7 285 35 L 285 185 C 285 204.3 269.3 220 250 220 L 35 220 C 15.7 220 0 204.3 0 185 L 0 35 C 0 15.7 15.7 0 35 0 z" stroke-linecap="round" />
</clipPath>
<path style="stroke: none; stroke-width: 1; stroke-dasharray: none; stroke-linecap: butt; stroke-dashoffset: 0; stroke-linejoin: miter; stroke-miterlimit: 4; fill: rgb(252,208,220); fill-rule: nonzero; opacity: 1;" vector-effect="non-scaling-stroke"  transform=" translate(-77.46, -210.1)" d="M 75.9 217 C 75.60000000000001 217 75.4 216.9 75.2 216.6 C 74.9 216.2 75 215.7 75.4 215.4 C 77.9 213.6 78.30000000000001 206.70000000000002 78.30000000000001 204.1 C 78.30000000000001 203.6 78.70000000000002 203.2 79.10000000000001 203.2 C 79.10000000000001 203.2 79.10000000000001 203.2 79.10000000000001 203.2 C 79.60000000000001 203.2 79.9 203.6 79.9 204 C 79.9 204.1 79.9 206.5 79.5 209.2 C 78.9 213 77.9 215.5 76.3 216.7 C 76.2 217 76 217 75.9 217 z" stroke-linecap="round" />
</g>
		<g transform="matrix(1 0 0 1 -49.26 77.32)" clip-path="url(#CLIPPATH_57)"  >
<clipPath id="CLIPPATH_57" >
	<path transform="matrix(1 0 0 1 73.62 -120.82) translate(-142.5, -110)" id="SVGID_00000131357307357971316280000014161718659767606663_" d="M 35 0 L 250 0 C 269.3 0 285 15.7 285 35 L 285 185 C 285 204.3 269.3 220 250 220 L 35 220 C 15.7 220 0 204.3 0 185 L 0 35 C 0 15.7 15.7 0 35 0 z" stroke-linecap="round" />
</clipPath>
<path style="stroke: none; stroke-width: 1; stroke-dasharray: none; stroke-linecap: butt; stroke-dashoffset: 0; stroke-linejoin: miter; stroke-miterlimit: 4; fill: rgb(252,208,220); fill-rule: nonzero; opacity: 1;" vector-effect="non-scaling-stroke"  transform=" translate(-68.88, -230.82)" d="M 73.4 236.8 C 73.4 236.8 73.3 236.8 73.4 236.8 C 72.9 236.8 72.5 236.3 72.60000000000001 235.9 C 72.60000000000001 235.8 73.2 228.4 67.9 226.70000000000002 C 66.7 226.3 65.60000000000001 226.4 64.60000000000001 226.8 C 64.2 227 63.70000000000001 226.8 63.50000000000001 226.4 C 63.300000000000004 226 63.50000000000001 225.5 63.900000000000006 225.3 C 65.30000000000001 224.70000000000002 66.80000000000001 224.70000000000002 68.4 225.20000000000002 C 71.10000000000001 226.10000000000002 73 228.3 73.9 231.50000000000003 C 74.5 233.90000000000003 74.30000000000001 236.00000000000003 74.30000000000001 236.10000000000002 C 74.2 236.5 73.8 236.8 73.4 236.8 z" stroke-linecap="round" />
</g>
		<g transform="matrix(1 0 0 1 -64.12 -36.35)" clip-path="url(#CLIPPATH_58)"  >
<clipPath id="CLIPPATH_58" >
	<path transform="matrix(1 0 0 1 88.48 -7.15) translate(-142.5, -110)" id="SVGID_00000131357307357971316280000014161718659767606663_" d="M 35 0 L 250 0 C 269.3 0 285 15.7 285 35 L 285 185 C 285 204.3 269.3 220 250 220 L 35 220 C 15.7 220 0 204.3 0 185 L 0 35 C 0 15.7 15.7 0 35 0 z" stroke-linecap="round" />
</clipPath>
<path style="stroke: none; stroke-width: 1; stroke-dasharray: none; stroke-linecap: butt; stroke-dashoffset: 0; stroke-linejoin: miter; stroke-miterlimit: 4; fill: rgb(27,25,68); fill-rule: nonzero; opacity: 1;" vector-effect="non-scaling-stroke"  transform=" translate(-54.02, -117.15)" d="M 54.2 119.4 C 52.900000000000006 119.7 52.300000000000004 118.7 52.1 117.5 C 51.800000000000004 116.2 52 115.1 53.2 114.9 C 54.5 114.60000000000001 55.7 115.4 56 116.7 C 56.3 117.9 55.5 119.1 54.2 119.4" stroke-linecap="round" />
</g>
		<g transform="matrix(1 0 0 1 -52.57 -37.87)" clip-path="url(#CLIPPATH_59)"  >
<clipPath id="CLIPPATH_59" >
	<path transform="matrix(1 0 0 1 76.93 -5.63) translate(-142.5, -110)" id="SVGID_00000131357307357971316280000014161718659767606663_" d="M 35 0 L 250 0 C 269.3 0 285 15.7 285 35 L 285 185 C 285 204.3 269.3 220 250 220 L 35 220 C 15.7 220 0 204.3 0 185 L 0 35 C 0 15.7 15.7 0 35 0 z" stroke-linecap="round" />
</clipPath>
<path style="stroke: none; stroke-width: 1; stroke-dasharray: none; stroke-linecap: butt; stroke-dashoffset: 0; stroke-linejoin: miter; stroke-miterlimit: 4; fill: rgb(27,25,68); fill-rule: nonzero; opacity: 1;" vector-effect="non-scaling-stroke"  transform=" translate(-65.57, -115.63)" d="M 66.3 117.8 C 65.1 118.3 64.3 117.5 63.8 116.3 C 63.3 115.1 63.199999999999996 114 64.39999999999999 113.5 C 65.6 113 66.99999999999999 113.5 67.49999999999999 114.7 C 68 115.9 67.5 117.3 66.3 117.8" stroke-linecap="round" />
</g>
</g>
</g>
</svg>