<?xml version="1.0" encoding="utf-8"?>
<!-- Generator: Adobe Illustrator 28.2.0, SVG Export Plug-In . SVG Version: 6.00 Build 0)  -->
<svg version="1.1" id="Layer_1" xmlns="http://www.w3.org/2000/svg" xmlns:xlink="http://www.w3.org/1999/xlink" x="0px" y="0px"
	 viewBox="0 0 285 220" style="enable-background:new 0 0 285 220;" xml:space="preserve">
<style type="text/css">
	.st0{fill:#FCC4D7;}
	.st1{fill:#FCC4D7;filter:url(#Adobe_OpacityMaskFilter);}
	.st2{mask:url(#mask0_2730_823_00000111897722537373595120000002043116545049106835_);}
	.st3{fill:none;}
	.st4{fill:#1B1944;}
	.st5{clip-path:url(#SVGID_00000050662627898101749670000002402041910144392345_);}
	.st6{fill:#F04C3A;}
	.st7{fill:#FFFFFF;}
	.st8{fill:#EE6C32;}
	.st9{fill:#FCD0DC;}
	.st10{fill:#6A68CE;}
	.st11{clip-path:url(#SVGID_00000153663034875889815990000017708482056462309248_);}
	.st12{clip-path:url(#SVGID_00000129915051147476930440000003665356889119326115_);}
	.st13{clip-path:url(#SVGID_00000049913385173012500860000001972322179636147590_);}
</style>
<path class="st0" d="M35,0h215c19.3,0,35,15.7,35,35v150c0,19.3-15.7,35-35,35H35c-19.3,0-35-15.7-35-35V35C0,15.7,15.7,0,35,0z"/>
<defs>
	<filter id="Adobe_OpacityMaskFilter" filterUnits="userSpaceOnUse" x="-104" y="86" width="446" height="221">
		<feColorMatrix  type="matrix" values="1 0 0 0 0  0 1 0 0 0  0 0 1 0 0  0 0 0 1 0"/>
	</filter>
</defs>
<mask maskUnits="userSpaceOnUse" x="-104" y="86" width="446" height="221" id="mask0_2730_823_00000111897722537373595120000002043116545049106835_">
	<path class="st1" d="M35,0h215c19.3,0,35,15.7,35,35v150c0,19.3-15.7,35-35,35H35c-19.3,0-35-15.7-35-35V35C0,15.7,15.7,0,35,0z"/>
</mask>
<g class="st2">
	<rect x="-104" y="86" class="st3" width="446" height="221"/>
</g>
<path class="st4" d="M49.4,45.1l2.3-8.8h2.5L50.7,49h-2.6l-2.9-9.1L42.4,49h-2.6l-3.5-12.8h2.6l2.3,8.8l2.8-8.8h2.6L49.4,45.1z
	 M56.8,43.6h4c0-0.9-0.6-1.7-2-1.7C57.6,41.8,56.9,42.8,56.8,43.6z M61,45.9l2,0.6c-0.4,1.5-1.9,2.8-4,2.8c-2.4,0-4.6-1.7-4.6-4.7
	c0-2.8,2.1-4.7,4.4-4.7c2.7,0,4.4,1.7,4.4,4.6c0,0.3,0,0.7,0,0.7h-6.3c0.1,1.2,1,2,2.2,2C60.1,47.2,60.7,46.7,61,45.9z M70.4,40.1
	v2.4c-0.3-0.1-0.5-0.1-0.7-0.1c-1.2,0-2.3,0.6-2.3,2.5v4H65v-8.9h2.3v1.3c0.5-1.2,1.8-1.4,2.5-1.4C70.1,40.1,70.3,40.1,70.4,40.1z
	 M80.5,36v11.4c0,0.6,0,1.2,0.1,1.6h-2.3c0-0.2-0.1-0.6-0.1-1c-0.4,0.7-1.3,1.2-2.5,1.2c-2.5,0-4.3-2-4.3-4.7c0-2.6,1.7-4.6,4.2-4.6
	c1.5,0,2.2,0.6,2.5,1.1V36H80.5z M73.8,44.6c0,1.6,0.9,2.5,2.2,2.5c1.2,0,2.2-0.9,2.2-2.5c0-1.6-1-2.5-2.2-2.5S73.8,43,73.8,44.6z
	 M84.8,43.6h4c0-0.9-0.6-1.7-2-1.7C85.6,41.8,84.9,42.8,84.8,43.6z M89,45.9l2,0.6c-0.5,1.5-1.9,2.8-4,2.8c-2.4,0-4.6-1.7-4.6-4.7
	c0-2.8,2.1-4.7,4.4-4.7c2.7,0,4.4,1.7,4.4,4.6c0,0.3,0,0.7,0,0.7h-6.3c0.1,1.2,1,2,2.2,2C88.1,47.2,88.7,46.7,89,45.9z M107,38.6h-4
	V49h-2.5V38.6h-4v-2.4H107V38.6z M108.7,43.6h4c0-0.9-0.6-1.7-2-1.7C109.4,41.8,108.7,42.8,108.7,43.6z M112.8,45.9l2,0.6
	c-0.5,1.5-1.9,2.8-4,2.8c-2.4,0-4.6-1.7-4.6-4.7c0-2.8,2.1-4.7,4.4-4.7c2.7,0,4.4,1.7,4.4,4.6c0,0.3,0,0.7,0,0.7h-6.3
	c0.1,1.2,1,2,2.2,2C111.9,47.2,112.6,46.7,112.8,45.9z M119.2,49h-2.4v-8.9h2.4V49z M116.6,37.2c0-0.8,0.7-1.5,1.5-1.5
	c0.8,0,1.5,0.7,1.5,1.5c0,0.8-0.6,1.5-1.5,1.5C117.2,38.7,116.6,38,116.6,37.2z M124.2,49h-2.4V36h2.4V49z M137,49
	c0-0.2-0.1-0.6-0.1-1c-0.5,0.8-1.5,1.2-2.4,1.2c-2.1,0-3.4-1.6-3.4-3.5v-5.6h2.4v5.1c0,1,0.5,1.8,1.6,1.8c1.1,0,1.7-0.7,1.7-1.7
	v-5.1h2.4v7.3c0,0.7,0.1,1.3,0.1,1.6H137z M144.2,43.9V49h-2.4v-8.9h2.3v1.1c0.5-0.9,1.6-1.3,2.6-1.3c2.2,0,3.2,1.6,3.2,3.5V49h-2.4
	v-5.2c0-1-0.5-1.8-1.6-1.8C144.8,42.1,144.2,42.9,144.2,43.9z M151.5,46.5l2.1-0.5c0.1,0.7,0.6,1.3,1.6,1.3c0.8,0,1.2-0.4,1.2-0.9
	c0-0.4-0.3-0.7-1-0.9l-1.2-0.3c-1.7-0.4-2.5-1.4-2.5-2.6c0-1.6,1.4-2.9,3.3-2.9c2.5,0,3.4,1.6,3.5,2.6l-2,0.5
	c-0.1-0.5-0.4-1.2-1.5-1.2c-0.6,0-1.1,0.4-1.1,0.9c0,0.4,0.3,0.7,0.8,0.8l1.3,0.3c1.7,0.4,2.6,1.4,2.6,2.7c0,1.4-1.1,2.9-3.4,2.9
	C152.5,49.3,151.6,47.5,151.5,46.5z M162.3,43.6h4c0-0.9-0.6-1.7-2-1.7C163,41.8,162.3,42.8,162.3,43.6z M166.5,45.9l2,0.6
	c-0.4,1.5-1.9,2.8-4,2.8c-2.4,0-4.6-1.7-4.6-4.7c0-2.8,2.1-4.7,4.4-4.7c2.7,0,4.4,1.7,4.4,4.6c0,0.3,0,0.7,0,0.7h-6.3
	c0.1,1.2,1,2,2.2,2C165.6,47.2,166.2,46.7,166.5,45.9z M175.9,40.1v2.4c-0.3-0.1-0.5-0.1-0.7-0.1c-1.2,0-2.3,0.6-2.3,2.5v4h-2.4
	v-8.9h2.3v1.3c0.5-1.2,1.8-1.4,2.5-1.4C175.5,40.1,175.7,40.1,175.9,40.1z M179.2,43.6h4c0-0.9-0.6-1.7-2-1.7
	C180,41.8,179.3,42.8,179.2,43.6z M183.4,45.9l2,0.6c-0.5,1.5-1.9,2.8-4,2.8c-2.4,0-4.6-1.7-4.6-4.7c0-2.8,2.1-4.7,4.4-4.7
	c2.7,0,4.4,1.7,4.4,4.6c0,0.3,0,0.7,0,0.7h-6.3c0.1,1.2,1,2,2.2,2C182.5,47.2,183.1,46.7,183.4,45.9z M186.7,46.5l2.1-0.5
	c0.1,0.7,0.6,1.3,1.6,1.3c0.8,0,1.2-0.4,1.2-0.9c0-0.4-0.3-0.7-1-0.9l-1.2-0.3c-1.7-0.4-2.5-1.4-2.5-2.6c0-1.6,1.4-2.9,3.3-2.9
	c2.5,0,3.4,1.6,3.5,2.6l-2,0.5c-0.1-0.5-0.4-1.2-1.5-1.2c-0.6,0-1.1,0.4-1.1,0.9c0,0.4,0.3,0.7,0.8,0.8l1.3,0.3
	c1.7,0.4,2.6,1.4,2.6,2.7c0,1.4-1.1,2.9-3.4,2.9C187.7,49.3,186.8,47.5,186.7,46.5z M39.6,72h-2.3V59h2.4v5.1
	c0.4-0.6,1.4-1.2,2.7-1.2c2.6,0,4.1,2,4.1,4.6c0,2.7-1.7,4.7-4.2,4.7c-1.2,0-2.2-0.5-2.6-1.3V72z M44,67.6c0-1.6-1-2.5-2.2-2.5
	c-1.2,0-2.2,0.9-2.2,2.5c0,1.6,1,2.5,2.2,2.5C43,70.1,44,69.2,44,67.6z M54.1,72c0-0.2-0.1-0.6-0.1-1c-0.5,0.8-1.5,1.2-2.4,1.2
	c-2.1,0-3.4-1.6-3.4-3.5v-5.6h2.4v5.1c0,1,0.5,1.8,1.6,1.8c1.1,0,1.7-0.7,1.7-1.7v-5.1h2.4v7.3c0,0.7,0.1,1.3,0.1,1.6H54.1z
	 M61.2,66.9V72h-2.4v-8.9h2.3v1.1c0.5-0.9,1.6-1.3,2.6-1.3c2.2,0,3.2,1.6,3.2,3.5V72h-2.4v-5.2c0-1-0.5-1.8-1.6-1.8
	C61.8,65.1,61.2,65.9,61.2,66.9z M72.3,60.5v2.6h1.8v2.1h-1.8V69c0,0.8,0.4,1,1,1c0.3,0,0.6,0,0.7-0.1v2c-0.2,0.1-0.6,0.2-1.3,0.2
	c-1.7,0-2.8-1-2.8-2.7v-4.1h-1.6v-2.1h0.5c0.9,0,1.4-0.6,1.4-1.4v-1.2H72.3z M77.7,66.6h4c0-0.9-0.6-1.7-2-1.7
	C78.5,64.8,77.8,65.8,77.7,66.6z M81.9,68.9l2,0.6c-0.4,1.5-1.9,2.8-4,2.8c-2.4,0-4.6-1.7-4.6-4.7c0-2.8,2.1-4.7,4.4-4.7
	c2.7,0,4.4,1.7,4.4,4.6c0,0.3,0,0.7,0,0.7h-6.3c0.1,1.2,1,2,2.2,2C81,70.2,81.7,69.7,81.9,68.9z M88.3,66.9V72H86v-8.9h2.3v1.1
	c0.5-0.9,1.6-1.3,2.6-1.3c2.2,0,3.2,1.6,3.2,3.5V72h-2.4v-5.2c0-1-0.5-1.8-1.6-1.8C89,65.1,88.3,65.9,88.3,66.9z M110.5,61.6h-4V72
	H104V61.6h-4v-2.4h10.6V61.6z M112.1,66.6h4c0-0.9-0.6-1.7-2-1.7C112.8,64.8,112.2,65.8,112.1,66.6z M116.3,68.9l2,0.6
	c-0.5,1.5-1.9,2.8-4,2.8c-2.4,0-4.6-1.7-4.6-4.7c0-2.8,2.1-4.7,4.4-4.7c2.7,0,4.4,1.7,4.4,4.6c0,0.3,0,0.7,0,0.7H112
	c0.1,1.2,1,2,2.2,2C115.4,70.2,116,69.7,116.3,68.9z M119.8,69.6c0-1.6,1.2-2.5,2.6-2.7l2.2-0.3c0.5-0.1,0.7-0.3,0.7-0.6
	c0-0.6-0.5-1.2-1.5-1.2c-1,0-1.6,0.7-1.7,1.4l-2.1-0.4c0.1-1.4,1.4-2.9,3.8-2.9c2.8,0,3.9,1.6,3.9,3.4v4.4c0,0.5,0.1,1.1,0.1,1.4
	h-2.2c-0.1-0.2-0.1-0.7-0.1-1.1c-0.5,0.7-1.3,1.3-2.6,1.3C120.9,72.3,119.8,71,119.8,69.6z M123.3,70.5c1,0,1.9-0.5,1.9-2.1V68
	l-2,0.3c-0.6,0.1-1.1,0.4-1.1,1.1C122.2,70,122.5,70.5,123.3,70.5z M132.4,72H130v-8.9h2.3v1.1c0.5-0.9,1.6-1.3,2.6-1.3
	c1.2,0,2.2,0.5,2.6,1.5c0.7-1.1,1.6-1.5,2.8-1.5c1.6,0,3.2,1,3.2,3.4V72h-2.3v-5.3c0-1-0.5-1.7-1.6-1.7c-1,0-1.6,0.8-1.6,1.7V72
	h-2.4v-5.3c0-1-0.5-1.7-1.6-1.7c-1,0-1.7,0.8-1.7,1.7V72z M145.2,69.5l2.1-0.4c0.1,0.7,0.6,1.3,1.6,1.3c0.8,0,1.2-0.4,1.2-0.9
	c0-0.4-0.3-0.7-1-0.9l-1.2-0.3c-1.7-0.4-2.5-1.4-2.5-2.6c0-1.6,1.4-2.9,3.3-2.9c2.5,0,3.4,1.6,3.5,2.6l-2,0.4
	c-0.1-0.5-0.5-1.2-1.5-1.2c-0.6,0-1.1,0.4-1.1,0.9c0,0.4,0.3,0.7,0.8,0.8l1.3,0.3c1.7,0.4,2.6,1.4,2.6,2.7c0,1.4-1.1,2.9-3.4,2.9
	C146.2,72.3,145.3,70.5,145.2,69.5z"/>
<g>
	<defs>
		<path id="SVGID_1_" d="M35,0h215c19.3,0,35,15.7,35,35v150c0,19.3-15.7,35-35,35H35c-19.3,0-35-15.7-35-35V35C0,15.7,15.7,0,35,0z
			"/>
	</defs>
	<clipPath id="SVGID_00000131357307357971316280000014161718659767606663_">
		<use xlink:href="#SVGID_1_"  style="overflow:visible;"/>
	</clipPath>
	<g style="clip-path:url(#SVGID_00000131357307357971316280000014161718659767606663_);">
		<g>
			<path class="st6" d="M72.8,101.4c0.3,3.5,0.2,8.7,4.9,13.2c4.7,4.5,4.1,7.6,3.9,10.3c-0.2,2.7-1.5,4.9,2.5,8.3
				c4,3.4,6,2.7,3.6,9.2c-2.4,6.4-16.5,19.8-31.8,22.2c-15.3,2.4-13.3-48.9-10-56.9C49.3,99.7,70.9,78.7,72.8,101.4"/>
		</g>
		<g>
			<path class="st7" d="M145.8,215.1c0,0-2.5-0.6,1.6-2.7c4.1-2.1,8.4-3.2,10.8-1.3c2.4,1.9,6.1,2.8,2.7,16.1
				c-3.4,13.2-14.4,49.3-14.4,49.3s1.4-0.3,3.2,2.2c1.8,2.6,1.4,5.4,1.4,5.4s5.8,0.7,7.2,0.9c1.5,0.2,1.8,2.8-2.7,4.9
				c-4.4,2.1-11,3.1-15.3-1.9c-4.4-5-4.7-6.9-3.9-11c0.8-4.1,6.4-41.1,6.4-41.1l0.3-4.6L145.8,215.1z"/>
		</g>
		<g>
			<path class="st6" d="M137.7,261.5c0.9,0,1.6,0.9,1.6,1.9c0,1-0.8,1.8-1.7,1.7c-0.9,0-1.7-0.6-1.7-1.6
				C135.9,262.6,136.8,261.5,137.7,261.5"/>
		</g>
		<g>
			<path class="st6" d="M141.2,260c0.9,0,1.6,0.9,1.6,1.9c0,1-0.8,1.8-1.7,1.7c-0.9,0-1.7-0.6-1.7-1.6
				C139.5,261.1,140.3,260,141.2,260"/>
		</g>
		<g>
			<path class="st6" d="M145.5,260.2c0.9,0,1.6,0.9,1.6,1.9c0,1-0.8,1.8-1.7,1.7c-0.9,0-1.7-0.6-1.7-1.6
				C143.8,261.3,144.6,260.2,145.5,260.2"/>
		</g>
		<g>
			<path class="st6" d="M148.9,262.8c0.9,0,1.6,0.9,1.6,1.9c0,1-0.8,1.8-1.7,1.7c-0.9,0-1.7-0.6-1.7-1.6
				C147.2,263.9,148,262.8,148.9,262.8"/>
		</g>
		<g>
			<path class="st8" d="M151.2,266.1c0.9,0,1.6,0.9,1.6,1.9c0,1-0.8,1.8-1.7,1.7c-0.9,0-1.7-0.6-1.7-1.6
				C149.5,267.2,150.3,266.1,151.2,266.1"/>
		</g>
		<g>
			<path class="st4" d="M150.3,109.8c-0.5,4-0.5,9.8-6.1,14.8c-5.5,5-5,8.5-4.9,11.5c0.1,3.1,1.5,5.7-3.2,9.3
				c-4.7,3.7-6.9,2.9-4.5,10.3c2.5,7.4,18,23.1,35.2,26.5c17.3,3.4,17-55,13.6-64.2C177.1,108.9,153.3,84.2,150.3,109.8"/>
		</g>
		<g>
			<path class="st7" d="M-31.6,147.9l-2.9,16.2c0,0-34.2-19.6-38.7-22.5c-4.5-2.9-9.1-7.6-14.1-4.6c-5,3-4,5.6-7.1,7.6
				c-3.1,2-6.4,0.9-8.4,1.2c-2,0.2-3.4,0.4-3.7,2.8c-0.2,2.4-1.2,1.6,0.8,1.7c2,0.2,12.5,2.3,14,1.7c1.4-0.6,5.5-4.4,6.9-4.6
				c1.4-0.1,31.5,25.9,37.1,30.5c5.6,4.7,19,15.3,27.2,8.4c4.2-3.6,4.4-9.5,5.2-13.7c0.8-4.3,2-26.3,2-26.3L-31.6,147.9z"/>
		</g>
		<g>
			<path class="st9" d="M-30.8,174.1c-0.2,0-0.3-0.1-0.5-0.2c-1.6-1.1-2.7-3.6-3.2-7.5c-0.4-2.7-0.4-5.1-0.4-5.2
				c0-0.5,0.4-0.9,0.9-0.8c0.5,0,0.8,0.4,0.8,0.9c0,2.5,0.4,9.5,2.9,11.3c0.4,0.3,0.5,0.8,0.2,1.2C-30.2,174-30.5,174.1-30.8,174.1z
				"/>
		</g>
		<g>
			<path class="st9" d="M-28.3,194c-0.4,0-0.8-0.3-0.8-0.8c0-0.1-0.2-2.2,0.4-4.6c0.8-3.3,2.7-5.5,5.5-6.3c5.4-1.7,8.6,3.4,9.5,6.3
				c0.1,0.4-0.1,0.9-0.5,1.1c-0.4,0.1-0.9-0.1-1.1-0.5c-0.1-0.3-2.3-6.8-7.4-5.2c-5.3,1.7-4.7,9.1-4.7,9.2
				C-27.4,193.5-27.8,193.9-28.3,194C-28.3,194-28.3,194-28.3,194z"/>
		</g>
		<g>
			<path class="st4" d="M5,145c0,0-21.9-1.6-36.4,6.3c-14.5,7.9-14.5,43.2-14.5,43.2s20.2,3.2,28.5-1.2c8.3-4.5,15.4-13.2,15.4-13.2
				L5,145z"/>
		</g>
		<g>
			<path class="st9" d="M154.6,117.1c1.9,12.2,4.4,19.2,16.6,22.5c12.2,3.3,11.1,4.5,12.1,6.9c0.9,2.4,7.9,24,7.9,24l15.5-8.1
				c0,0-6-26-6.1-30.3c-0.1-4.3,8.2-3.9,6.2-20.1c-2.1-16.2-10.5-28.7-30.2-23.2C156.9,94.3,152.4,102.5,154.6,117.1"/>
		</g>
		<g>
			<path class="st9" d="M70.3,112.5c-2,12.7-4.7,19.9-17.7,23.3c-13,3.4-11.9,4.7-12.9,7.2c-1,2.5-8.5,24.9-8.5,24.9l-16.6-8.4
				c0,0,6.4-27,6.5-31.4c0.1-4.4-8.8-4-6.6-20.8c2.2-16.8,11.2-29.7,32.2-24.1C67.8,88.8,72.7,97.4,70.3,112.5"/>
		</g>
		<g>
			<path class="st6" d="M170.3,131c-0.4-1-1.2,0-2.3,0c0,0-3.8,0.6-4.1,0.7c-1.3,0.5-2,1.9-1.5,3.3c0.5,1.3,1.9,2,3.3,1.5
				c0.3-0.1,0.4-0.2,0.6-0.4c0.2,0,0.4,0,0.6-0.1l0,0l1.7-0.6v0l0.8-0.3l-0.1-0.1C170.2,134.3,170.7,132.1,170.3,131"/>
		</g>
		<g>
			<path class="st6" d="M54.7,125.4c0.4-1,1.2,0,2.3,0c0,0,3.8,0.6,4.1,0.7c1.3,0.5,2,1.9,1.5,3.3c-0.5,1.3-1.9,2-3.3,1.5
				c-0.3-0.1-0.4-0.2-0.6-0.4c-0.2,0-0.4,0-0.6-0.1l0,0l-1.7-0.6v0l-0.8-0.3l0.1-0.1C54.8,128.6,54.3,126.4,54.7,125.4"/>
		</g>
		<g>
			<path class="st10" d="M180.3,143.2l17.3,0.6l1,3.5c0,0,11.2-1.9,15.7,0.3c4.5,2.2,10.5,3.2,12.8,10.9c2.2,7.7-0.9,65.9-1.9,70.1
				c-1,4.2-5.5,7.7-5.5,7.7l-58.9,1.7l-5.8-1.3l1.6-17.5h-14.9c0,0,9.4-47.2,14.7-59.9c6.1-14.5,25-13,25-13L180.3,143.2z"/>
		</g>
		<g>
			<path class="st4" d="M35.1,151.7c-7.1,0-14.5-11.8-14.5-11.8s-6.4-0.2-10.9,2.1s-10.5,3.2-12.8,10.9c-2.2,7.7,0.9,65.9,1.9,70.1
				c1,4.2,0.5,15.3,0.5,15.3l49,5.4l18.5,1.2c0,0-5.3-36.3-8.1-54.2c-0.7-4.6,1.9-6.9,4-8.2c3.7-2.3,11.4-5.7,11.4-5.7
				s-1.1-10.3-6.5-23c-6.1-14.5-23.9-13.8-23.9-13.8S42.2,151.7,35.1,151.7"/>
		</g>
		<g>
			<path class="st7" d="M157.6,120.8c1.2,0.5,2-0.3,2.5-1.5c0.5-1.2,0.6-2.3-0.6-2.8c-1.2-0.5-2.6,0-3.1,1.2
				C155.9,118.9,156.5,120.3,157.6,120.8"/>
		</g>
		<g>
			<path class="st7" d="M159.1,121.5c-1.2-0.5-1.1-1.6-0.6-2.8c0.5-1.2,1.3-2,2.5-1.5c1.2,0.5,1.7,1.9,1.2,3.1
				C161.6,121.5,160.2,122,159.1,121.5"/>
		</g>
		<g>
			<rect x="-106.8" y="78.5" class="st3" width="450" height="223.5"/>
		</g>
		<g>
			
				<rect x="157.3" y="117.9" transform="matrix(0.4067 -0.9136 0.9136 0.4067 -14.1591 216.4968)" class="st7" width="4.7" height="2.5"/>
		</g>
		<g>
			<defs>
				<rect id="SVGID_00000033363227940174504870000010744296492703864223_" x="-106.8" y="78.5" width="450" height="223.5"/>
			</defs>
			<clipPath id="SVGID_00000181788837219921659100000006298661228989692041_">
				<use xlink:href="#SVGID_00000033363227940174504870000010744296492703864223_"  style="overflow:visible;"/>
			</clipPath>
			<g style="clip-path:url(#SVGID_00000181788837219921659100000006298661228989692041_);">
				<path class="st4" d="M156.4,120.3c1.2,0.5,2-0.3,2.5-1.5c0.5-1.2,0.6-2.3-0.6-2.8c-1.2-0.5-2.6,0-3.1,1.2
					C154.7,118.4,155.2,119.8,156.4,120.3"/>
			</g>
			<g style="clip-path:url(#SVGID_00000181788837219921659100000006298661228989692041_);">
				<path class="st7" d="M67.3,115.2c-1.2,0.5-2-0.3-2.5-1.5c-0.5-1.2-0.6-2.3,0.6-2.8c1.2-0.5,2.6,0,3.1,1.2
					C69,113.3,68.5,114.6,67.3,115.2"/>
			</g>
			<g style="clip-path:url(#SVGID_00000181788837219921659100000006298661228989692041_);">
				<path class="st7" d="M65.9,115.8c1.2-0.5,1.1-1.6,0.6-2.8c-0.5-1.2-1.3-2-2.5-1.5c-1.2,0.5-1.7,1.9-1.2,3.1
					C63.3,115.8,64.7,116.3,65.9,115.8"/>
			</g>
		</g>
		<g>
			
				<rect x="64.1" y="111.1" transform="matrix(0.9135 -0.4068 0.4068 0.9135 -40.5097 36.4007)" class="st7" width="2.5" height="4.7"/>
		</g>
		<g>
			<defs>
				<rect id="SVGID_00000134952947274828000870000007175404804126017946_" x="-106.8" y="78.5" width="450" height="223.5"/>
			</defs>
			<clipPath id="SVGID_00000163048225305695103600000000832489183491854235_">
				<use xlink:href="#SVGID_00000134952947274828000870000007175404804126017946_"  style="overflow:visible;"/>
			</clipPath>
			<g style="clip-path:url(#SVGID_00000163048225305695103600000000832489183491854235_);">
				<path class="st7" d="M172.7,130.8c-0.2,0-0.4,0-0.6,0c-1.9-0.2-3.6-1.4-4.8-3.3c-1.1-1.8-1.6-4.1-1.3-6.5
					c0.2-2.4,1.2-4.5,2.6-6.1c1.5-1.6,3.4-2.4,5.3-2.2c1.9,0.2,3.6,1.4,4.8,3.3c1.1,1.8,1.6,4.1,1.3,6.5c-0.2,2.4-1.2,4.5-2.6,6.1
					C176.1,130,174.4,130.8,172.7,130.8z M173.4,114.7c-1.2,0-2.4,0.6-3.4,1.6c-1.2,1.3-1.9,3-2.1,5c-0.2,1.9,0.2,3.8,1,5.3
					c0.8,1.4,2,2.2,3.3,2.4c1.3,0.1,2.6-0.4,3.7-1.6c1.2-1.3,1.9-3,2.1-5c0.2-1.9-0.2-3.8-1-5.3c-0.8-1.4-2-2.2-3.3-2.4
					C173.7,114.7,173.5,114.7,173.4,114.7z"/>
			</g>
			<g style="clip-path:url(#SVGID_00000163048225305695103600000000832489183491854235_);">
				<path class="st7" d="M157.7,128.5c-0.2,0-0.4,0-0.6,0c-1.9-0.2-3.6-1.4-4.8-3.3c-1.1-1.8-1.6-4.1-1.3-6.5c0.5-5,4.1-8.7,8-8.3
					c1.9,0.2,3.6,1.4,4.8,3.3c1.1,1.8,1.6,4.1,1.3,6.5l0,0c-0.2,2.4-1.2,4.5-2.6,6.1C161,127.8,159.4,128.5,157.7,128.5z
					 M158.4,112.4c-2.7,0-5.1,2.9-5.5,6.6c-0.2,1.9,0.2,3.8,1,5.3c0.8,1.4,2,2.2,3.3,2.4c1.3,0.1,2.6-0.4,3.7-1.6
					c1.2-1.3,1.9-3,2.1-5c0.2-1.9-0.2-3.8-1-5.3c-0.8-1.4-2-2.2-3.3-2.4C158.6,112.4,158.5,112.4,158.4,112.4z"/>
			</g>
			<g style="clip-path:url(#SVGID_00000163048225305695103600000000832489183491854235_);">
				<path class="st7" d="M170.6,123.3c1.3,0.3,1.9-0.7,2.1-1.9c0.3-1.3,0.1-2.4-1.1-2.6c-1.3-0.3-2.5,0.5-2.8,1.8
					C168.5,121.8,169.3,123.1,170.6,123.3"/>
			</g>
			<g style="clip-path:url(#SVGID_00000163048225305695103600000000832489183491854235_);">
				<path class="st7" d="M172.1,123.7c-1.3-0.3-1.4-1.4-1.1-2.6c0.3-1.3,0.9-2.2,2.1-1.9c1.3,0.3,2.1,1.5,1.8,2.8
					C174.6,123.1,173.4,123.9,172.1,123.7"/>
			</g>
		</g>
		<g>
			
				<rect x="169.8" y="120.1" transform="matrix(0.2079 -0.9782 0.9782 0.2079 17.7264 264.4554)" class="st7" width="4.7" height="2.5"/>
		</g>
		<g>
			<defs>
				<rect id="SVGID_00000129920871819355226830000010783839949618849427_" x="-106.8" y="78.5" width="450" height="223.5"/>
			</defs>
			<clipPath id="SVGID_00000181064783304749606810000009534709149248659339_">
				<use xlink:href="#SVGID_00000129920871819355226830000010783839949618849427_"  style="overflow:visible;"/>
			</clipPath>
			<g style="clip-path:url(#SVGID_00000181064783304749606810000009534709149248659339_);">
				<path class="st4" d="M169.3,123.1c1.3,0.3,1.9-0.7,2.1-1.9c0.3-1.3,0.1-2.4-1.1-2.6c-1.3-0.3-2.5,0.5-2.8,1.8
					C167.2,121.6,168,122.8,169.3,123.1"/>
			</g>
			<g style="clip-path:url(#SVGID_00000181064783304749606810000009534709149248659339_);">
				<path class="st7" d="M54.4,117.7c-1.3,0.3-1.9-0.7-2.1-1.9c-0.3-1.3-0.1-2.4,1.1-2.6c1.3-0.3,2.5,0.5,2.8,1.8
					C56.5,116.2,55.7,117.4,54.4,117.7"/>
			</g>
			<g style="clip-path:url(#SVGID_00000181064783304749606810000009534709149248659339_);">
				<path class="st7" d="M52.9,118c1.3-0.3,1.4-1.4,1.1-2.6c-0.3-1.3-0.9-2.2-2.1-1.9c-1.3,0.3-2.1,1.5-1.8,2.8
					C50.4,117.5,51.6,118.3,52.9,118"/>
			</g>
		</g>
		<g>
			
				<rect x="51.6" y="113.3" transform="matrix(0.9782 -0.2079 0.2079 0.9782 -22.8824 13.5073)" class="st7" width="2.5" height="4.7"/>
		</g>
		<g>
			<path class="st4" d="M155,96.3c0,0,6.6-7.4,19.5-9.7c1.9-0.3,3.7-0.5,5.6-0.6c4.8,0,9.1,1,11.6,1.8c6.4,2.4,12,7.5,15.5,16.3
				c5.2,12.9,12.3,14.9,23.5,20.9c11.2,6,8.3,11,11.2,18c3,7,8.7,5.4,14.3,10.5c5.6,5.1,6.2,6.1-0.5,19
				c-6.7,12.9-35.2,31.1-35.2,31.1S215.3,181,200,165c-9.3-9.6-2.3-21.8-3.5-26.5c-1.2-4.7-5.3-5.6-8.3-8.3c-3-2.7,0.4-4.3,1.8-7.8
				c1.4-3.5,1-7.9-3.3-8.4c-4.4-0.4-3.6,4-3.6,4s-6.7,1-17.2-5.2C155.4,106.6,155,96.3,155,96.3"/>
		</g>
		<g>
			<path class="st10" d="M190.4,124.2l4.2,5.6c0,0-1.4,2.1-5.1,1.3c-3.8-0.7-5-3.1-5-3.1L190.4,124.2z"/>
		</g>
		<g>
			<path class="st9" d="M192.2,130.4c-0.5,0.1-0.9-0.3-1-0.8c-0.1-0.5,0.3-1,0.7-1.1c0.5-0.1,0.9,0.2,1,0.7
				C193.1,129.7,192.7,130.3,192.2,130.4"/>
		</g>
		<g>
			<path class="st9" d="M189.9,130.6c-0.5,0.1-0.9-0.3-1-0.8c-0.1-0.5,0.3-1,0.7-1.1c0.5-0.1,0.9,0.2,1,0.7
				C190.7,129.9,190.3,130.5,189.9,130.6"/>
		</g>
		<g>
			<path class="st9" d="M187.5,129.5c-0.5,0.1-0.9-0.3-1-0.8c-0.1-0.5,0.3-1,0.7-1.1c0.5-0.1,0.9,0.2,1,0.7
				C188.3,128.8,188,129.4,187.5,129.5"/>
		</g>
		<g>
			<path class="st10" d="M141.9,216.7c-1.2,4.8,1.9,6.6,1.9,6.6v3.5c0,0,8.5-1.9,15.3,5.8c6.8,7.7,0-20.8,0-20.8L141.9,216.7z"/>
		</g>
		<g>
			<path class="st4" d="M191.1,292.6l15.2-16.2c0,0,1.2-1.9,3.2-0.9c2,1,8.9,5.1,8.9,5.1s1.5,0.4-0.4,2.8
				c-1.8,2.5-15.7,17.9-15.7,17.9s-0.4,1.6-3.3-0.4c-2.9-2-7.1-4.3-8.3-5.3C189.5,294.7,189.6,293.8,191.1,292.6"/>
		</g>
		<g>
			<path class="st7" d="M202.5,222.8c0,0-0.4-4.7,8.1-2.6c1.5,0.4,8.2,6.6,8.2,6.6l-14.8,50.5c0,0,1.4-0.3,3.2,2.2
				c1.8,2.6,1.4,5.4,1.4,5.4s5.8,0.7,7.2,0.9c1.5,0.2,1.8,2.8-2.7,4.9c-4.4,2.1-11,3.1-15.3-1.9c-4.4-5-4.7-6.9-3.9-11
				c0.8-4.1,6.4-41.1,6.4-41.1l0.3-4.6L202.5,222.8z"/>
		</g>
		<g>
			<path class="st6" d="M195.3,262.3c0.9,0,1.6,0.9,1.6,1.9c0,1-0.8,1.8-1.7,1.7c-0.9,0-1.7-0.6-1.7-1.6
				C193.5,263.4,194.4,262.3,195.3,262.3"/>
		</g>
		<g>
			<path class="st6" d="M198.9,260.8c0.9,0,1.6,0.9,1.6,1.9c0,1-0.8,1.8-1.7,1.7c-0.9,0-1.7-0.6-1.7-1.6
				C197.1,261.8,198,260.8,198.9,260.8"/>
		</g>
		<g>
			<path class="st6" d="M203.2,261c0.9,0,1.6,0.9,1.6,1.9c0,1-0.8,1.8-1.7,1.7c-0.9,0-1.7-0.6-1.7-1.6
				C201.4,262,202.3,260.9,203.2,261"/>
		</g>
		<g>
			<path class="st6" d="M206.6,263.6c0.9,0,1.6,0.9,1.6,1.9c0,1-0.8,1.8-1.7,1.7c-0.9,0-1.7-0.6-1.7-1.6
				C204.8,264.6,205.7,263.6,206.6,263.6"/>
		</g>
		<g>
			<path class="st8" d="M208.9,266.9c0.9,0,1.6,0.9,1.6,1.9c0,1-0.8,1.8-1.7,1.7c-0.9,0-1.7-0.6-1.7-1.6
				C207.1,267.9,208,266.9,208.9,266.9"/>
		</g>
		<g>
			<path class="st6" d="M183.7,182.4c-7.6,0.5-5,8.2-2,11.5c3,3.3,7.4,4.6,7.4,4.6s12-8.2,7.9-13.6c-4.2-5.4-8.8,0.6-8.8,0.6
				L183.7,182.4z"/>
		</g>
		<g>
			<path class="st10" d="M34.6,170.5c-7.6,0.5-5,8.2-2,11.5c3,3.3,7.4,4.6,7.4,4.6s12-8.2,7.9-13.6c-4.2-5.4-8.8,0.6-8.8,0.6
				L34.6,170.5z"/>
		</g>
		<g>
			<path class="st6" d="M71.5,92.8c0,0-5.6-8.4-18.4-12.3c-1.8-0.6-3.7-1-5.6-1.3c-4.9-1-7.6-0.8-11.9,0.3
				c-6.8,1.6-13,5.9-17.8,14.3C10.9,106,3.4,107.1-8.7,111.6c-12.1,4.5-9.8,10-13.7,16.6c-3.9,6.6-9.5,4.3-15.8,8.7
				c-6.3,4.4-7.1,5.3-2,19.3c5,13.9,31.3,36,31.3,36l28.6-45.4c0,0,2.6-12.5,4.5-17.1c1.8-4.6,6.1-4.9,9.5-7.2
				c3.4-2.3,0.1-4.4-0.8-8.1c-1-3.7,0-8.1,4.5-8c4.4,0.2,3.1,4.5,3.1,4.5s6.6,1.9,18-3C69.7,103.1,71.5,92.8,71.5,92.8"/>
		</g>
		<g>
			<path class="st4" d="M37.2,119c-0.6,0.2-1.3-0.2-1.6-0.9c-0.3-0.7,0-1.5,0.7-1.7c0.6-0.2,1.3-0.1,1.6,0.6
				C38.1,117.7,37.8,118.7,37.2,119"/>
		</g>
		<g>
			<path class="st7" d="M73.6,176.7l5.9,30.3c0,0,34.2-19.6,38.7-22.5c4.5-2.9,9.1-7.6,14.1-4.6c5,3,4,5.6,7.1,7.6
				c3.1,2,6.4,0.9,8.4,1.2c2,0.2,3.4,0.4,3.7,2.8c0.2,2.4,1.2,1.6-0.8,1.7c-2,0.2-12.5,2.3-14,1.7c-1.4-0.6-5.5-4.4-6.9-4.6
				c-1.4-0.1-31.5,25.9-37.1,30.5c-5.6,4.7-19,15.3-27.2,8.4c-4.2-3.6-4.4-9.5-5.2-13.7c-0.8-4.3-4-28.4-4-28.4s0.8-6.4,6.4-8.7
				C68.4,176.2,73.6,176.7,73.6,176.7"/>
		</g>
		<g>
			<path class="st9" d="M75.9,217c-0.3,0-0.5-0.1-0.7-0.4c-0.3-0.4-0.2-0.9,0.2-1.2c2.5-1.8,2.9-8.7,2.9-11.3c0-0.5,0.4-0.9,0.8-0.9
				c0,0,0,0,0,0c0.5,0,0.8,0.4,0.8,0.8c0,0.1,0,2.5-0.4,5.2c-0.6,3.8-1.6,6.3-3.2,7.5C76.2,217,76,217,75.9,217z"/>
		</g>
		<g>
			<path class="st9" d="M73.4,236.8C73.4,236.8,73.3,236.8,73.4,236.8c-0.5,0-0.9-0.5-0.8-0.9c0-0.1,0.6-7.5-4.7-9.2
				c-1.2-0.4-2.3-0.3-3.3,0.1c-0.4,0.2-0.9,0-1.1-0.4c-0.2-0.4,0-0.9,0.4-1.1c1.4-0.6,2.9-0.6,4.5-0.1c2.7,0.9,4.6,3.1,5.5,6.3
				c0.6,2.4,0.4,4.5,0.4,4.6C74.2,236.5,73.8,236.8,73.4,236.8z"/>
		</g>
		<g>
		</g>
		<g>
			<path class="st4" d="M54.2,119.4c-1.3,0.3-1.9-0.7-2.1-1.9c-0.3-1.3-0.1-2.4,1.1-2.6c1.3-0.3,2.5,0.5,2.8,1.8
				C56.3,117.9,55.5,119.1,54.2,119.4"/>
		</g>
		<g>
			<path class="st4" d="M66.3,117.8c-1.2,0.5-2-0.3-2.5-1.5c-0.5-1.2-0.6-2.3,0.6-2.8c1.2-0.5,2.6,0,3.1,1.2
				C68,115.9,67.5,117.3,66.3,117.8"/>
		</g>
	</g>
</g>
</svg>
