<?xml version="1.0" encoding="utf-8"?>
<!-- Generator: Adobe Illustrator 27.9.6, SVG Export Plug-In . SVG Version: 9.03 Build 54986)  -->
<svg version="1.1" id="Layer_1" xmlns="http://www.w3.org/2000/svg" xmlns:xlink="http://www.w3.org/1999/xlink" x="0px" y="0px"
	 viewBox="0 0 2000 1538.5" style="enable-background:new 0 0 2000 1538.5;" xml:space="preserve">
<style type="text/css">
	.st0{fill:#FCC4D7;}
	.st1{fill:#1B1944;}
	.st2{clip-path:url(#SVGID_00000070826272253105953130000016303165146732894633_);}
	.st3{fill:#F04C3A;}
	.st4{fill:#FFFFFF;}
	.st5{fill:#FCD0DC;}
	.st6{fill:#6A68CE;}
	.st7{fill:none;}
	.st8{clip-path:url(#SVGID_00000074402382457792988200000011320852995260355210_);}
	.st9{fill:none;stroke:#FFFFFF;stroke-width:7;}
	.st10{fill:none;stroke:#FCD0DC;stroke-width:6.2;stroke-linecap:round;}
	.st11{clip-path:url(#SVGID_00000083798886897823298550000001477574566541028512_);}
	.st12{fill:#F1503C;}
	.st13{fill:#EE6C32;}
</style>
<g>
	<g id="Layer_1_00000179605139096371908970000003542294409583571355_">
		<g>
			<g>
				<path class="st0" d="M244.4,0h1501.4c135,0,244.4,109.4,244.4,244.4v1047.5c0,135-109.4,244.4-244.4,244.4H244.4
					c-135,0-244.4-109.4-244.4-244.4V244.4C0,109.4,109.4,0,244.4,0z"/>
				<path class="st1" d="M363.5,313.7l16.1-61.6h17.7l-24.6,89.1h-17.8l-20.4-63.5l-20.4,63.5H296l-24.8-89.1h18.4l16.3,61.3
					l19.7-61.3h18L363.5,313.7L363.5,313.7z M415.2,303.2h27.7c-0.3-6.2-4.3-12.2-13.8-12.2S415.6,297.6,415.2,303.2L415.2,303.2z
					 M444.5,319.3l14,4.1c-3.1,10.7-12.9,19.6-28.2,19.6s-31.9-12.2-31.9-33.1s14.6-32.6,30.4-32.6s30.5,12.2,30.5,32.1
					s-0.3,4.9-0.3,5.2h-44.2c0.4,8.2,7.3,14.1,15.6,14.1C438.2,328.7,442.5,324.9,444.5,319.3L444.5,319.3z M510.2,279.1v16.8
					c-1.9-0.4-3.5-0.5-5-0.5c-8.5,0-16,4.1-16,17.5v28.3h-16.7v-61.8h16.2v9.2c3.8-8.2,12.3-9.7,17.6-9.7S509,279,510.2,279.1z
					 M580.3,250.2V330c0,4.1,0.3,8.7,0.5,11.2h-16c-0.3-1.3-0.6-4.3-0.6-7.2c-2.8,4.9-9.1,8.7-17.3,8.7c-17.6,0-30.2-13.8-30.2-32.6
					s12.2-32.3,29.7-32.3s15.7,4.4,17.5,7.7v-35.3L580.3,250.2L580.3,250.2z M533.6,310.1c0,11.1,6.5,17.6,15.3,17.6
					s15.2-6.5,15.2-17.7s-6.7-17.2-15.2-17.2S533.6,299.1,533.6,310.1L533.6,310.1z M610.6,303.2h27.7C638,297,634,291,624.5,291
					S611,297.6,610.6,303.2z M639.9,319.3l14,4.1c-3.1,10.7-12.9,19.6-28.2,19.6s-31.9-12.2-31.9-33.1s14.6-32.6,30.4-32.6
					s30.5,12.2,30.5,32.1s-0.3,4.9-0.3,5.2h-44.2c0.4,8.2,7.3,14.1,15.6,14.1C633.6,328.7,637.9,324.9,639.9,319.3L639.9,319.3z
					 M765.9,268.5h-28.2v72.7h-17.5v-72.7H692V252h73.8v16.5H765.9L765.9,268.5z M777.1,303.2h27.7c-0.3-6.2-4.3-12.2-13.8-12.2
					S777.5,297.6,777.1,303.2z M806.4,319.3l14,4.1c-3.1,10.7-12.9,19.6-28.2,19.6s-31.9-12.2-31.9-33.1s14.6-32.6,30.4-32.6
					s30.5,12.2,30.5,32.1s-0.3,4.9-0.3,5.2h-44.2c0.4,8.2,7.3,14.1,15.6,14.1C800.1,328.7,804.4,324.9,806.4,319.3L806.4,319.3z
					 M851.1,341.2h-16.7v-61.8h16.7V341.2z M832.4,259.1c0-5.8,4.7-10.4,10.3-10.4s10.3,4.7,10.3,10.4c0,5.7-4.5,10.2-10.3,10.2
					C837,269.3,832.4,264.6,832.4,259.1z M885.7,341.2H869v-91h16.7V341.2z M975.2,341.2c-0.3-1.3-0.5-4.1-0.5-6.7
					c-3.4,5.8-10.6,8.3-17.1,8.3c-15,0-23.5-10.9-23.5-24.4v-39.1h16.7V315c0,6.9,3.5,12.4,11.3,12.4s11.7-5,11.7-12.2v-36h16.7
					v50.7c0,4.8,0.4,9.1,0.6,11.2h-15.9V341.2z M1025,305.6v35.6h-16.7v-61.8h16.2v7.7c3.8-6.4,11.2-9.3,17.8-9.3
					c15.3,0,22.4,10.9,22.4,24.5v39H1048v-36.1c0-6.9-3.4-12.3-11.4-12.3C1029.3,292.8,1025,298.5,1025,305.6L1025,305.6z
					 M1076.5,324l14.3-3.1c0.4,4.9,4,9.4,11.3,9.4s8.2-2.9,8.2-6.2s-1.9-5-6.7-6l-8.2-1.9c-11.9-2.6-17.3-9.8-17.3-18.5
					s9.8-20.2,23.1-20.2s23.5,11.2,24.3,17.8l-14,3.1c-0.5-3.6-3.1-8.3-10.2-8.3s-7.9,2.6-7.9,6.2s2.3,4.9,5.7,5.5l8.8,1.9
					c12.2,2.5,18.4,9.9,18.4,19s-7.8,20.4-24,20.4C1083.6,343.1,1077.2,331,1076.5,324L1076.5,324z M1151.6,303.2h27.7
					c-0.3-6.2-4.3-12.2-13.8-12.2S1152,297.6,1151.6,303.2L1151.6,303.2z M1180.9,319.3l14,4.1c-3.1,10.7-12.9,19.6-28.2,19.6
					s-31.9-12.2-31.9-33.1s14.6-32.6,30.4-32.6s30.5,12.2,30.5,32.1s-0.3,4.9-0.3,5.2h-44.2c0.4,8.2,7.3,14.1,15.6,14.1
					C1174.6,328.7,1178.9,324.9,1180.9,319.3L1180.9,319.3z M1246.6,279.1v16.8c-1.9-0.4-3.5-0.5-5-0.5c-8.5,0-16,4.1-16,17.5v28.3
					h-16.7v-61.8h16.2v9.2c3.8-8.2,12.3-9.7,17.6-9.7S1245.4,279,1246.6,279.1z M1270,303.2h27.7c-0.3-6.2-4.3-12.2-13.8-12.2
					S1270.3,297.6,1270,303.2L1270,303.2z M1299.2,319.3l14,4.1c-3.1,10.7-12.9,19.6-28.2,19.6s-31.9-12.2-31.9-33.1
					s14.6-32.6,30.4-32.6s30.5,12.2,30.5,32.1s-0.3,4.9-0.3,5.2h-44.2c0.4,8.2,7.3,14.1,15.6,14.1
					C1293,328.7,1297.2,324.9,1299.2,319.3L1299.2,319.3z M1322,324l14.3-3.1c0.4,4.9,4,9.4,11.3,9.4s8.2-2.9,8.2-6.2s-1.9-5-6.7-6
					l-8.2-1.9c-11.9-2.6-17.3-9.8-17.3-18.5s9.8-20.2,23.1-20.2s23.5,11.2,24.3,17.8l-14,3.1c-0.5-3.6-3.1-8.3-10.2-8.3
					s-7.9,2.6-7.9,6.2s2.3,4.9,5.7,5.5l8.8,1.9c12.2,2.5,18.4,9.9,18.4,19s-7.8,20.4-24,20.4C1329.1,343.1,1322.7,331,1322,324
					L1322,324z M294.9,474h-16.2v-91h16.5v36c2.8-4.4,9.6-8.4,18.7-8.4c18.1,0,28.5,14,28.5,32.3s-11.6,32.7-29.2,32.7
					s-15.1-3.8-18.4-9.1v7.5H294.9z M325.7,443c0-11.3-6.8-17.5-15.3-17.5s-15.5,6.2-15.5,17.5s7,17.6,15.5,17.6
					S325.7,454.3,325.7,443z M395.9,474c-0.3-1.3-0.5-4.1-0.5-6.7c-3.4,5.8-10.6,8.3-17.1,8.3c-15,0-23.5-10.9-23.5-24.4v-39.1h16.7
					v35.7c0,6.9,3.5,12.4,11.3,12.4s11.7-5,11.7-12.2v-36h16.7v50.7c0,4.8,0.4,9.1,0.6,11.2h-15.9L395.9,474z M445.8,438.4V474
					h-16.7v-61.8h16.2v7.7c3.8-6.4,11.2-9.3,17.8-9.3c15.3,0,22.4,10.9,22.4,24.5v39h-16.7V438c0-6.9-3.4-12.3-11.4-12.3
					C450,425.6,445.8,431.3,445.8,438.4L445.8,438.4z M523.1,393.7v18.5h12.4V427h-12.4v25.9c0,5.4,2.5,7.2,7.3,7.2s4.3-0.3,5.2-0.5
					v13.8c-1.5,0.6-4.5,1.5-9.4,1.5c-12.1,0-19.6-7.2-19.6-19.1V427h-11.2v-14.8h3.1c6.5,0,9.6-4.3,9.6-9.8v-8.7H523.1z
					 M561.3,436.1H589c-0.3-6.2-4.3-12.2-13.8-12.2C566.4,423.9,561.7,430.4,561.3,436.1z M590.6,452.1l14,4.1
					c-3.1,10.7-12.9,19.6-28.2,19.6s-31.9-12.2-31.9-33.1s14.6-32.6,30.4-32.6s30.5,12.2,30.5,32.1s-0.3,4.9-0.3,5.2h-44.2
					c0.4,8.2,7.3,14.1,15.6,14.1C584.3,461.6,588.6,457.7,590.6,452.1L590.6,452.1z M635.3,438.4V474h-16.7v-61.8h16.2v7.7
					c3.8-6.4,11.2-9.3,17.8-9.3c15.3,0,22.4,10.9,22.4,24.5v39h-16.7V438c0-6.9-3.4-12.3-11.4-12.3
					C639.6,425.6,635.3,431.3,635.3,438.4L635.3,438.4z M789.9,401.4h-28.2v72.7h-17.5v-72.7H716v-16.5h73.8v16.5H789.9L789.9,401.4
					z M801.2,436.1h27.7c-0.3-6.2-4.3-12.2-13.8-12.2C806.3,423.9,801.5,430.4,801.2,436.1z M830.4,452.1l14,4.1
					c-3.1,10.7-12.9,19.6-28.2,19.6s-31.9-12.2-31.9-33.1s14.6-32.6,30.4-32.6s30.5,12.2,30.5,32.1s-0.3,4.9-0.3,5.2h-44.2
					c0.4,8.2,7.3,14.1,15.6,14.1C824.2,461.6,828.4,457.7,830.4,452.1L830.4,452.1z M854.7,457.2c0-11.1,8.2-17.2,18.5-18.7
					l15.2-2.3c3.5-0.5,4.7-2.3,4.7-4.4c0-4.4-3.4-8-10.4-8s-11.3,4.7-11.8,10.1l-14.8-3.1c1-9.7,9.9-20.4,26.5-20.4
					s26.9,11.1,26.9,23.5v30.4c0,3.3,0.4,7.7,0.8,9.8H895c-0.4-1.6-0.6-5-0.6-7.4c-3.1,4.9-9.1,9.2-18.2,9.2
					C862.7,475.8,854.7,466.8,854.7,457.2L854.7,457.2z M879.4,463.3c7,0,13.6-3.4,13.6-14.3v-2.8l-14,2.1c-4.3,0.6-7.7,3-7.7,7.8
					C871.4,459.8,874,463.3,879.4,463.3L879.4,463.3z M942.9,474h-16.7v-61.8h16v7.5c3.4-6,11.3-9.3,18.1-9.3s15.2,3.6,18.4,10.3
					c4.9-7.5,11.4-10.3,19.6-10.3s22.4,6.9,22.4,23.5V474h-16.2v-36.7c0-6.7-3.3-11.7-10.9-11.7s-11.4,5.5-11.4,12.2V474h-16.6
					v-36.7c0-6.7-3.4-11.7-10.9-11.7s-11.6,5.4-11.6,12.2V474L942.9,474L942.9,474z M1032.3,456.8l14.3-3.1c0.4,4.9,4,9.4,11.3,9.4
					s8.2-2.9,8.2-6.2s-1.9-5-6.7-6l-8.2-1.9c-11.9-2.6-17.3-9.8-17.3-18.5s9.8-20.2,23.1-20.2s23.5,11.2,24.3,17.8l-14,3.1
					c-0.5-3.6-3.1-8.3-10.2-8.3s-7.9,2.6-7.9,6.2s2.3,4.9,5.7,5.5l8.8,1.9c12.2,2.5,18.4,9.9,18.4,19s-7.8,20.4-24,20.4
					S1033,463.8,1032.3,456.8L1032.3,456.8z"/>
			</g>
			<g>
				<defs>
					<path id="SVGID_1_" d="M244.4,0h1501.4c135,0,244.4,109.4,244.4,244.4v1047.5c0,135-109.4,244.4-244.4,244.4H244.4
						c-135,0-244.4-109.4-244.4-244.4V244.4C0,109.4,109.4,0,244.4,0z"/>
				</defs>
				<clipPath id="SVGID_00000101084760709850670310000015198561477918095532_">
					<use xlink:href="#SVGID_1_"  style="overflow:visible;"/>
				</clipPath>
				<g style="clip-path:url(#SVGID_00000101084760709850670310000015198561477918095532_);">
					<g id="Group_1923">
						<path id="Path_3353" class="st3" d="M606.8,686.9c1.9,22.4,1.1,55.1,31.2,84.1c30.1,28.9,26.3,48.5,25.1,65.7
							s-9.6,31.4,16.1,53c25.7,21.6,38.3,17.5,23.1,58.5s-105.2,126.2-202.7,141.6S415.1,778,436,727.2
							C456.8,676.4,594.8,542.7,606.8,686.9"/>
						<path id="Path_3354" class="st4" d="M1155.3,1411.8c0,0-15.9-4,10.2-17.5s53.6-20.1,68.9-8.2c15.2,11.9,38.9,18.1,17.5,102.3
							c-21.4,84.2-92,314.2-92,314.2s9.2-2.2,20.6,14.2c6.8,10.2,10,22.3,9.1,34.5c0,0,36.7,4.5,46,5.6s11.2,18.1-17.1,31.3
							c-28.3,13.2-69.8,19.8-97.6-12c-27.8-31.8-29.7-43.7-24.8-69.8c4.9-26.1,40.5-262.1,40.5-262.1l2-29.2l16.9-103.3H1155.3z"/>
						<path id="Path_3360" class="st1" d="M1184.1,740.6c-3,25.4-3.4,62.5-38.7,94.2c-35.3,31.7-31.7,54-31.1,73.6
							c0.7,19.6,9.7,36.1-20.3,59.5c-30,23.5-44.2,18.4-28.5,65.4c15.7,47.1,114.4,147.3,224.5,168.7c110,21.4,108.3-350.5,86.6-409
							c-21.7-58.5-172.9-215.7-192.4-52.5"/>
						<path id="Path_3366" class="st5" d="M1211.9,793.8c12.6,80.7,30.1,126.9,113,148.6c82.9,21.6,75.6,29.8,82,45.6
							s53.9,158.6,53.9,158.6l105.5-53.5c0,0-40.7-171.8-41.5-200s55.9-25.5,41.8-132.4c-14-106.8-71.1-189.1-205-153.4
							C1227.7,643,1196.8,697.5,1211.9,793.8"/>
						<path id="Path_3367" class="st5" d="M590.8,757.8c-12.6,80.7-30.1,126.9-113,148.6c-82.9,21.6-75.6,29.8-82,45.6
							s-53.9,158.6-53.9,158.6l-105.5-53.5c0,0,40.7-171.8,41.5-200s-55.9-25.5-41.8-132.4c14-106.8,71.1-189.1,205-153.4
							C575,607,605.9,661.5,590.8,757.8"/>
						<path id="Path_3368" class="st3" d="M1311.6,875.8c-2.4-6.6-7.9,0-14.6,0c0,0-24.4,3.8-26,4.4c-8.4,3.1-12.6,12.4-9.5,20.8
							c3.1,8.3,12.3,12.6,20.6,9.6c1.4-0.5,2.7-1.3,3.8-2.3c1.4,0,2.8-0.3,4.1-0.7l0,0l10.9-3.9l0,0l5.1-1.8l-0.3-0.9
							C1310.8,896.8,1314,882.4,1311.6,875.8"/>
						<path id="Path_3369" class="st3" d="M491.1,839.7c2.4-6.6,7.9,0,14.6,0c0,0,24.4,3.8,26,4.4c8.4,3,12.8,12.3,9.8,20.7
							s-12.3,12.8-20.7,9.8c0,0-0.1,0-0.2,0c-1.4-0.5-2.7-1.3-3.8-2.3c-1.4,0-2.8-0.3-4.1-0.7l0,0l-10.9-3.9l0,0l-5.1-1.8l0.3-0.9
							C491.9,860.8,488.7,846.4,491.1,839.7"/>
						<path id="Path_3370" class="st6" d="M1375.3,953.2l109.9,4.1l6.1,22.4c0,0,71.2-12.2,99.7,2.1c28.5,14.2,67.2,20.6,81.4,69.5
							c14.2,48.9-5.7,419.6-12.4,446.7c-6.6,27-34.9,49.1-34.9,49.1l-375.1,10.8l-36.9-8.3l10.4-111.5h-95.2
							c0,0,59.6-300.8,93.7-381.4c39-92.6,159.4-82.9,159.4-82.9l-6.1-20.3V953.2z"/>
						<path id="Path_3371" class="st1" d="M366.3,1007.3c-45,0-92.4-74.9-92.4-74.9s-41-1-69.5,13.2s-67.2,20.6-81.4,69.5
							s5.7,419.6,12.4,446.7c6.6,27,3,97.5,3,97.5l312.1,34.4l117.7,7.4c0,0-33.7-231.5-51.8-345.6c-4.7-29.5,12-44.1,25.4-52.5
							c23.3-14.7,72.8-36.1,72.8-36.1s-7.1-65.8-41.2-146.5c-39-92.6-152.2-88-152.2-88S411.3,1007.3,366.3,1007.3"/>
						<path id="Path_3372" class="st4" d="M1231,810.9c7.5,3.4,12.5-1.8,15.8-9.3s3.9-14.6-3.7-18c-7.5-3.3-16.3,0.1-19.6,7.7
							C1220.2,798.8,1223.5,807.5,1231,810.9"/>
						<path id="Path_3373" class="st4" d="M1240.1,814.9c-7.5-3.4-7-10.4-3.7-18c3.3-7.5,8.3-12.6,15.8-9.3
							c7.5,3.4,10.9,12.2,7.6,19.7C1256.4,814.8,1247.6,818.2,1240.1,814.9L1240.1,814.9"/>
						
							<rect id="Rectangle_145" x="1228.6" y="792.3" transform="matrix(0.4067 -0.9135 0.9135 0.4067 6.7811 1610.7318)" class="st4" width="29.8" height="15.6"/>
						<rect id="Rectangle_146" x="-537.6" y="541.1" class="st7" width="2867.1" height="1423.9"/>
						<path id="Path_3374" class="st1" d="M1223.2,807.4c7.5,3.4,12.5-1.8,15.8-9.3s3.9-14.6-3.7-18c-7.5-3.3-16.3,0.1-19.6,7.7
							C1212.4,795.3,1215.7,804,1223.2,807.4"/>
						<path id="Path_3375" class="st4" d="M571.7,774.8c-7.5,3.4-12.5-1.8-15.8-9.3s-3.9-14.6,3.7-18c7.5-3.3,16.3,0.1,19.6,7.7
							C582.5,762.7,579.2,771.4,571.7,774.8"/>
						<path id="Path_3376" class="st4" d="M562.6,778.9c7.5-3.4,7-10.4,3.7-18c-3.3-7.5-8.3-12.6-15.8-9.3s-11,12.1-7.7,19.6
							s12.1,11,19.6,7.7C562.4,778.9,562.5,778.9,562.6,778.9"/>
						<rect id="Rectangle_147" x="-537.6" y="541.1" class="st7" width="2867.1" height="1423.9"/>
						<g id="Group_1891">
							<g>
								<defs>
									
										<rect id="SVGID_00000158011001981740997850000003080659039261555114_" x="-537.6" y="541.1" width="2867.1" height="1423.9"/>
								</defs>
								<clipPath id="SVGID_00000088120544574261672240000001220381574794888065_">
									<use xlink:href="#SVGID_00000158011001981740997850000003080659039261555114_"  style="overflow:visible;"/>
								</clipPath>
								<g style="clip-path:url(#SVGID_00000088120544574261672240000001220381574794888065_);">
									<g id="Group_1890">
										
											<rect id="Rectangle_148" x="551.3" y="749.2" transform="matrix(0.9135 -0.4067 0.4067 0.9135 -262.4687 293.4492)" class="st4" width="15.6" height="29.8"/>
									</g>
								</g>
							</g>
						</g>
						<path id="Path_3377" class="st9" d="M1367.9,821c3-28.3-11.9-53.1-33.3-55.4s-41.1,18.9-44.1,47.3
							c-3,28.3,11.9,53.1,33.3,55.4S1364.9,849.4,1367.9,821z"/>
						<path id="Path_3378" class="st9" d="M1272.1,806.5c3-28.3-11.9-53.1-33.3-55.4s-41.1,18.9-44.1,47.3
							c-3,28.3,11.9,53.1,33.3,55.4S1269.1,834.9,1272.1,806.5z"/>
						<path id="Path_3379" class="st4" d="M1313.5,826.9c8.1,1.7,11.8-4.3,13.5-12.4c1.7-8.1,0.7-15.1-7.3-16.8
							c-8-1.8-16,3.2-17.8,11.3c-1.8,8,3.2,16,11.3,17.8c0.1,0,0.2,0,0.3,0"/>
						<path id="Path_3380" class="st4" d="M1323.2,828.9c-8.1-1.7-9-8.7-7.3-16.8s5.5-14.1,13.5-12.4c8.1,1.7,13.2,9.6,11.5,17.7
							C1339.2,825.5,1331.3,830.6,1323.2,828.9"/>
						<rect id="Rectangle_150" x="-537.6" y="541.1" class="st7" width="2867.1" height="1423.9"/>
						<path id="Path_3381" class="st1" d="M1305.1,825.1c8.1,1.7,11.8-4.3,13.5-12.4c1.7-8.1,0.7-15.1-7.3-16.8
							c-8.1-1.7-16,3.4-17.7,11.5S1297,823.4,1305.1,825.1"/>
						<path id="Path_3382" class="st4" d="M489.2,790.8c-8.1,1.7-11.8-4.3-13.5-12.4s-0.7-15.1,7.3-16.8c8.1-1.7,16,3.5,17.6,11.6
							C502.3,781.2,497.2,789.1,489.2,790.8"/>
						<path id="Path_3383" class="st4" d="M479.5,792.9c8.1-1.7,9-8.7,7.3-16.8s-5.5-14.1-13.5-12.4c-8.1,1.6-13.3,9.5-11.7,17.6
							c1.6,8.1,9.5,13.3,17.6,11.7C479.3,793,479.4,793,479.5,792.9"/>
						<rect id="Rectangle_153" x="-537.6" y="541.1" class="st7" width="2867.1" height="1423.9"/>
						
							<rect id="Rectangle_154" x="471.4" y="762.8" transform="matrix(0.9781 -0.2079 0.2079 0.9781 -151.2154 116.6297)" class="st4" width="15.6" height="29.8"/>
						<path id="Path_3384" class="st1" d="M1214.4,654.6c0,0,41.9-47.4,124.3-61.7c11.8-2.1,23.8-3.3,35.8-3.7
							c25.1-0.1,50,3.7,73.9,11.4c40.8,15.5,76.2,47.7,98.7,103.6c33,82,78.7,95,150,133.1c71.4,38.1,52.7,70.4,71.5,114.7
							s55.6,34.5,91.2,67.1c35.5,32.6,39.6,39-3.1,121.3c-42.7,82.4-224.3,198.2-224.3,198.2s-34-144.4-131.7-246.2
							c-59-61.4-14.6-139.1-22.4-169.1s-33.8-35.5-53-52.7s2.7-27.4,11.7-49.8c9-22.3,6.6-50.6-21.1-53.2c-27.8-2.7-23,25.3-23,25.3
							s-42.7,6.1-109.4-33.2c-66.8-39.3-69-105.2-69-105.2"/>
						<path id="Path_3385" class="st6" d="M1439.7,832.6l26.5,35.4c0,0-8.7,13.1-32.7,8.4c-23.9-4.6-31.9-20-31.9-20L1439.7,832.6
							L1439.7,832.6z"/>
						<path id="Path_3386" class="st5" d="M1451.4,871.6c-3.4,0-6.2-2.7-6.2-6c0-2.9,1.9-5.4,4.7-6c3-0.4,6,1,6.4,4.3
							S1454.4,871.3,1451.4,871.6"/>
						<path id="Path_3387" class="st5" d="M1436.3,872.9c-3.4,0-6.2-2.7-6.2-6c0-2.9,1.9-5.4,4.7-6c3-0.4,6,1,6.4,4.3
							S1439.3,872.6,1436.3,872.9"/>
						<path id="Path_3388" class="st5" d="M1421.4,866.2c-3.4,0-6.2-2.7-6.2-6c0-2.9,1.9-5.4,4.7-6c3-0.4,6,1,6.4,4.3
							S1424.4,865.9,1421.4,866.2"/>
						<path id="Path_3389" class="st6" d="M1130.8,1421.7c-7.7,30.3,11.9,41.8,11.9,41.8v22.1c0,0,54-12.3,97.4,36.9
							s0-132.7,0-132.7L1130.8,1421.7L1130.8,1421.7z"/>
						<path id="Path_3391" class="st4" d="M1517,1460.3c0,0-2.5-29.8,51.8-16.5c9.6,2.3,52.5,41.8,52.5,41.8l-94.3,321.9
							c0,0,9.2-2.2,20.6,14.2c6.8,10.2,10,22.3,9.1,34.5c0,0,36.7,4.5,46,5.6s11.2,18.1-17.1,31.3c-28.3,13.2-69.8,19.8-97.6-12
							c-27.8-31.8-29.7-43.7-24.8-69.8c4.9-26.1,40.5-262.1,40.5-262.1l2-29.2L1517,1460.3L1517,1460.3z"/>
						<path id="Path_3397" class="st3" d="M1397.2,1203c-48.5,3.4-31.6,52-12.5,73s47.1,29.3,47.1,29.3s76.7-52.2,50.2-86.5
							c-26.5-34.2-56,3.9-56,3.9L1397.2,1203L1397.2,1203z"/>
						<path id="Path_3398" class="st6" d="M363,1127.2c-48.5,3.4-31.6,52-12.5,73s47.1,29.3,47.1,29.3s76.7-52.2,50.2-86.5
							c-26.5-34.2-56,3.9-56,3.9L363,1127.2L363,1127.2z"/>
						<path id="Path_3399" class="st3" d="M598,632.1c0,0-35.9-53.3-117-78.6c-11.7-3.7-23.5-6.5-35.6-8.5
							c-31.3-6.1-48.2-4.9-75.9,1.6c-43.2,10.2-83.1,37.9-113.2,91.3c-44.1,78.2-91.9,85.2-168.8,114.2c-77,29-62.4,64-87.3,106.1
							s-60.6,27.3-100.7,55.5s-45,34-13,122.6s199.6,229.5,199.6,229.5l182-288.9c0,0,16.6-79.8,28.4-109s38.8-31.3,60.4-46.1
							s0.9-28-5.2-51.7s0-51.8,28.4-50.8c28.3,1,19.8,28.5,19.8,28.5s42.2,11.8,114.7-18.9C587.1,698.1,598.1,632.1,598,632.1"/>
						<path id="Path_3400" class="st1" d="M379.5,799c-4.6,1.2-9.3-1.7-10.5-6.3c-1-4,0.9-8.1,4.6-9.9c4-1.5,8.5-0.6,10.2,3.9
							S383.5,797.5,379.5,799"/>
						<path id="Path_3401" class="st4" d="M611.7,1166.9l37.6,193c0,0,218.1-124.6,246.7-143.1c28.6-18.4,82.5,38,73.7,37.1
							c-8.8-0.8-200.4,165-236.4,194.6s-121.2,97.8-173.4,53.5c-27-22.8-27.9-60.2-33.3-87.5c-5.3-27.2-25.3-180.9-25.3-180.9
							s5.2-41,41.1-55.5c22-8.8,45.7-12.7,69.4-11.4"/>
						<path id="Path_3402" class="st10" d="M646.7,1341.8c0,0,0.7,61.1-20.7,76.4"/>
						<path id="Path_3403" class="st10" d="M551.7,1481.2c7.9-3.3,16.7-3.5,24.8-0.7c38.2,12,33.8,64.2,33.8,64.2"/>
						<g id="Group_1901">
							<g>
								<defs>
									
										<rect id="SVGID_00000165928709605454071600000013373537743296213911_" x="-537.6" y="541.1" width="2867.1" height="1423.9"/>
								</defs>
								<clipPath id="SVGID_00000022519811403390800570000000715820986130255503_">
									<use xlink:href="#SVGID_00000165928709605454071600000013373537743296213911_"  style="overflow:visible;"/>
								</clipPath>
								<g style="clip-path:url(#SVGID_00000022519811403390800570000000715820986130255503_);">
									<g id="Group_1900">
										<path id="Path_3404" class="st1" d="M488.3,801.7c-8.1,1.7-11.8-4.3-13.5-12.4c-1.7-8.1-0.7-15.1,7.3-16.8
											c8.1-1.7,16,3.4,17.7,11.5S496.4,800,488.3,801.7L488.3,801.7"/>
										<path id="Path_3405" class="st1" d="M564.9,791.8c-7.5,3.4-12.5-1.8-15.8-9.3s-3.9-14.6,3.7-18c7.5-3.3,16.3,0.1,19.6,7.7
											C575.7,779.7,572.4,788.4,564.9,791.8"/>
									</g>
								</g>
							</g>
						</g>
						<path id="Path_3451" class="st12" d="M1039.1,1166.7l-153.1,57c0,0-14,8.3-23.7-4.7c-9.6-13-41.6-62.7-41.6-62.7
							s-8.3-7.4,11.6-17.6c20-10.2,161.8-66.6,161.8-66.6s8-9,20.6,13.6s32.5,51.2,37.1,61.9S1053,1163.4,1039.1,1166.7"/>
						<path id="Path_3452" class="st4" d="M903.3,1224.8c0,0-10.7-2.4-13.9-25.2c-1.8-14,1.1-28.2,8.3-40.3c0,0-35.6-23.5-44.6-29.5
							s-2.2-24.4,33.8-23.4c36,0.9,82.2,15.5,94.5,62.6s8.1,60.3-10.3,84.8c-19.8,3.3-69,45.4-67.9-28.9L903.3,1224.8z"/>
						<path id="Path_3390" class="st1" d="M1444.2,1905.1l96.8-103.5c0,0,7.7-11.9,20.3-5.5c12.5,6.3,56.6,32.6,56.6,32.6
							s9.3,2.5-2.2,18.2s-99.8,114.3-99.8,114.3s-2.8,10.1-21.3-2.6c-18.4-12.7-45-27.2-52.7-33.7s-7-11.8,2.4-19.7"/>
						<path id="Path_3392" class="st3" d="M1471,1712.2c5.7,0.2,10.1,5.5,9.9,11.9s-5,11.3-10.7,11.1c-5.7-0.2-10.8-3.5-10.6-9.9
							C1459.8,1718.9,1465.3,1712,1471,1712.2"/>
						<path id="Path_3393" class="st3" d="M1493.7,1702.5c5.7,0.2,10.1,5.5,9.9,11.9c-0.2,6.3-5,11.3-10.7,11.1
							c-5.7-0.2-10.8-3.5-10.6-9.9C1482.5,1709.2,1488,1702.3,1493.7,1702.5"/>
						<path id="Path_3394" class="st3" d="M1521,1703.7c5.7,0.2,10.1,5.5,9.9,11.9c-0.2,6.3-5,11.3-10.7,11.1
							c-5.7-0.2-10.8-3.5-10.6-9.9C1509.8,1710.4,1515.3,1703.5,1521,1703.7"/>
						<path id="Path_3395" class="st3" d="M1542.7,1720.4c5.7,0.2,10.1,5.5,9.9,11.9c-0.2,6.3-5,11.3-10.7,11.1
							c-5.7-0.2-10.8-3.5-10.6-9.9S1537,1720.2,1542.7,1720.4"/>
						<path id="Path_3396" class="st13" d="M1557.4,1741.4c5.7,0.2,10.1,5.5,9.9,11.9s-5,11.3-10.7,11.1s-10.8-3.5-10.6-9.9
							S1551.7,1741.2,1557.4,1741.4"/>
						<path id="Path_3355" class="st3" d="M1103.8,1707.3c5.7,0.2,10.1,5.5,9.9,11.9s-5,11.3-10.7,11.1s-10.8-3.5-10.6-9.9
							S1098.1,1707.1,1103.8,1707.3"/>
						<path id="Path_3356" class="st3" d="M1126.5,1697.6c5.7,0.2,10.1,5.5,9.9,11.9s-5,11.3-10.7,11.1s-10.8-3.5-10.6-9.9
							S1120.8,1697.4,1126.5,1697.6"/>
						<path id="Path_3357" class="st3" d="M1153.9,1698.8c5.7,0.2,10.1,5.5,9.9,11.9c-0.2,6.3-5,11.3-10.7,11.1s-10.8-3.5-10.6-9.9
							C1142.7,1705.5,1148.2,1698.6,1153.9,1698.8"/>
						<path id="Path_3358" class="st3" d="M1175.6,1715.5c5.7,0.2,10.1,5.5,9.9,11.9c-0.2,6.3-5,11.3-10.7,11.1s-10.8-3.5-10.6-9.9
							C1164.4,1722.2,1169.9,1715.3,1175.6,1715.5"/>
						<path id="Path_3359" class="st13" d="M1190.2,1736.5c5.7,0.2,10.1,5.5,9.9,11.9c-0.2,6.3-5,11.3-10.7,11.1s-10.8-3.5-10.6-9.9
							C1179,1743.2,1184.5,1736.3,1190.2,1736.5"/>
					</g>
				</g>
			</g>
		</g>
	</g>
</g>
</svg>
