<svg width="135" height="153" viewBox="0 0 135 153" fill="none" xmlns="http://www.w3.org/2000/svg">
<rect width="135" height="152" rx="35" fill="#1B1944"/>
<mask id="mask0_1636_36715" style="mask-type:alpha" maskUnits="userSpaceOnUse" x="0" y="0" width="135" height="152">
<rect width="135" height="152" rx="35" fill="#FCC4D7"/>
</mask>
<g mask="url(#mask0_1636_36715)">
<path d="M22.652 35H20.972V26.492H22.652V35ZM26.0691 31.604V35H24.4731V29.096H26.0211V29.828C26.3811 29.216 27.0891 28.94 27.7251 28.94C29.1891 28.94 29.8611 29.984 29.8611 31.28V35H28.2651V31.556C28.2651 30.896 27.9411 30.38 27.1731 30.38C26.4771 30.38 26.0691 30.92 26.0691 31.604ZM30.9769 33.356L32.3449 33.056C32.3809 33.524 32.7289 33.956 33.4249 33.956C33.9529 33.956 34.2049 33.68 34.2049 33.368C34.2049 33.104 34.0249 32.888 33.5689 32.792L32.7889 32.612C31.6489 32.36 31.1329 31.676 31.1329 30.848C31.1329 29.792 32.0689 28.916 33.3409 28.916C35.0209 28.916 35.5849 29.984 35.6569 30.62L34.3249 30.92C34.2769 30.572 34.0249 30.128 33.3529 30.128C32.9329 30.128 32.5969 30.38 32.5969 30.716C32.5969 31.004 32.8129 31.184 33.1369 31.244L33.9769 31.424C35.1409 31.664 35.7289 32.372 35.7289 33.236C35.7289 34.196 34.9849 35.18 33.4369 35.18C31.6609 35.18 31.0489 34.028 30.9769 33.356ZM43.949 35.18C41.573 35.18 39.593 33.464 39.593 30.752C39.593 28.04 41.645 26.312 43.925 26.312C46.277 26.312 47.489 27.752 47.825 29.132L46.265 29.624C46.061 28.808 45.401 27.908 43.925 27.908C42.653 27.908 41.309 28.82 41.309 30.752C41.309 32.564 42.581 33.56 43.949 33.56C45.401 33.56 46.109 32.612 46.337 31.82L47.885 32.288C47.561 33.596 46.337 35.18 43.949 35.18ZM48.617 33.392C48.617 32.336 49.397 31.748 50.381 31.604L51.833 31.388C52.169 31.34 52.277 31.172 52.277 30.968C52.277 30.548 51.953 30.2 51.281 30.2C50.585 30.2 50.201 30.644 50.153 31.16L48.737 30.86C48.833 29.936 49.685 28.916 51.269 28.916C53.141 28.916 53.837 29.972 53.837 31.16V34.064C53.837 34.376 53.873 34.796 53.909 35H52.445C52.409 34.844 52.385 34.52 52.385 34.292C52.085 34.76 51.521 35.168 50.645 35.168C49.385 35.168 48.617 34.316 48.617 33.392ZM50.981 33.98C51.653 33.98 52.277 33.656 52.277 32.612V32.348L50.945 32.552C50.537 32.612 50.213 32.84 50.213 33.296C50.213 33.644 50.465 33.98 50.981 33.98ZM58.1818 27.632C57.8218 27.632 57.3538 27.788 57.3538 28.448V29.096H58.6858V30.464H57.3538V35H55.7458V30.464H54.7618V29.096H55.7458V28.424C55.7458 27.092 56.5858 26.228 57.8938 26.228C58.2298 26.228 58.5538 26.288 58.6858 26.348V27.692C58.6018 27.668 58.4458 27.632 58.1818 27.632ZM64.2382 26.588L62.6062 28.388H61.3222L62.4142 26.588H64.2382ZM60.7582 31.376H63.3982C63.3742 30.788 62.9902 30.212 62.0782 30.212C61.2502 30.212 60.7942 30.836 60.7582 31.376ZM63.5542 32.912L64.8862 33.308C64.5862 34.328 63.6502 35.18 62.1982 35.18C60.5782 35.18 59.1502 34.016 59.1502 32.024C59.1502 30.14 60.5422 28.916 62.0542 28.916C63.8782 28.916 64.9702 30.08 64.9702 31.976C64.9702 32.204 64.9462 32.444 64.9462 32.468H60.7222C60.7582 33.248 61.4182 33.812 62.2102 33.812C62.9542 33.812 63.3622 33.44 63.5542 32.912ZM68.7718 35.324L70.2118 34.94C70.3198 35.588 70.8358 36.056 71.5918 36.056C72.5998 36.056 73.1638 35.552 73.1638 34.412V33.98C72.9238 34.364 72.3718 34.736 71.5198 34.736C69.9478 34.736 68.7718 33.524 68.7718 31.868C68.7718 30.308 69.8998 28.988 71.5198 28.988C72.4558 28.988 72.9958 29.396 73.1998 29.792V29.096H74.7358V34.364C74.7358 35.984 73.8598 37.46 71.6398 37.46C70.0198 37.46 68.9398 36.452 68.7718 35.324ZM71.7958 33.368C72.6118 33.368 73.1878 32.78 73.1878 31.868C73.1878 30.956 72.5638 30.38 71.7958 30.38C71.0038 30.38 70.3798 30.956 70.3798 31.868C70.3798 32.792 70.9678 33.368 71.7958 33.368ZM77.516 31.376H80.156C80.132 30.788 79.748 30.212 78.836 30.212C78.008 30.212 77.552 30.836 77.516 31.376ZM80.312 32.912L81.644 33.308C81.344 34.328 80.408 35.18 78.956 35.18C77.336 35.18 75.908 34.016 75.908 32.024C75.908 30.14 77.3 28.916 78.812 28.916C80.636 28.916 81.728 30.08 81.728 31.976C81.728 32.204 81.704 32.444 81.704 32.468H77.48C77.516 33.248 78.176 33.812 78.968 33.812C79.712 33.812 80.12 33.44 80.312 32.912ZM84.5808 31.532V35H82.9848V26.312H84.5808V29.588C84.9648 29.132 85.6128 28.94 86.1768 28.94C87.6768 28.94 88.3728 29.984 88.3728 31.28V35H86.7768V31.556C86.7768 30.896 86.4528 30.38 85.6848 30.38C85.0128 30.38 84.6168 30.884 84.5808 31.532ZM91.1566 31.376H93.7966C93.7726 30.788 93.3886 30.212 92.4766 30.212C91.6486 30.212 91.1926 30.836 91.1566 31.376ZM93.9526 32.912L95.2846 33.308C94.9846 34.328 94.0486 35.18 92.5966 35.18C90.9766 35.18 89.5486 34.016 89.5486 32.024C89.5486 30.14 90.9406 28.916 92.4526 28.916C94.2766 28.916 95.3686 30.08 95.3686 31.976C95.3686 32.204 95.3446 32.444 95.3446 32.468H91.1206C91.1566 33.248 91.8166 33.812 92.6086 33.812C93.3526 33.812 93.7606 33.44 93.9526 32.912ZM98.2214 31.604V35H96.6254V29.096H98.1734V29.828C98.5334 29.216 99.2414 28.94 99.8774 28.94C101.341 28.94 102.013 29.984 102.013 31.28V35H100.417V31.556C100.417 30.896 100.093 30.38 99.3254 30.38C98.6294 30.38 98.2214 30.92 98.2214 31.604Z" fill="white"/>
</g>
<mask id="mask1_1636_36715" style="mask-type:alpha" maskUnits="userSpaceOnUse" x="0" y="0" width="135" height="153">
<rect y="0.353516" width="135" height="152" rx="35" fill="#1B1944"/>
</mask>
<g mask="url(#mask1_1636_36715)">
<path d="M95.7244 70.0083C109.458 71.1512 121.633 89.8145 117.774 98.068C113.915 106.322 97.9296 111.824 84.6986 109.073C71.4677 106.322 68.7112 104.121 69.2625 95.3169C69.8138 86.5131 82.4935 68.9078 95.7223 70.0083" fill="#F04C3A"/>
<path d="M54.1788 171.175C54.7344 168.958 40.8994 105.836 89.2533 103.618C137.607 101.4 134.272 146.887 128.714 162.419C123.157 177.951 54.1788 171.175 54.1788 171.175Z" fill="#1B1944"/>
<path d="M142.764 186.354C185.635 186.354 220.387 174.175 220.387 159.153C220.387 144.131 185.635 131.951 142.764 131.951C99.8934 131.951 65.1387 144.131 65.1387 159.153C65.1387 174.175 99.8934 186.354 142.764 186.354Z" fill="#F1503C"/>
<path d="M95.4269 92.9755C96.0016 93.1603 96.6359 92.7949 96.8445 92.1533C97.051 91.516 96.7551 90.8468 96.1804 90.662C95.6057 90.475 94.9714 90.6237 94.765 91.2611C94.5585 91.8984 94.8543 92.7864 95.4291 92.9734" fill="#3E3035"/>
<path d="M92.2207 110.238L92.3591 106.492" stroke="white" stroke-width="8.03" stroke-linecap="round"/>
<path d="M95.3223 110.457L95.4606 106.71" stroke="white" stroke-width="8.03" stroke-linecap="round"/>
<path d="M97.9473 109.745L98.0856 105.997" stroke="white" stroke-width="8.03" stroke-linecap="round"/>
<path d="M89.6113 108.897C89.6113 108.897 90.7054 110.86 95.0774 110.86C99.4494 110.86 101.418 108.43 101.418 108.43" stroke="white" stroke-width="8.03" stroke-linecap="round"/>
<path d="M60.1981 75.8034C52.463 78.9221 43.438 74.6392 40.0366 66.2391C36.6352 57.8369 40.1473 48.4978 47.8824 45.377C55.6154 42.2583 65.5365 46.5029 68.9357 54.903C72.3371 63.3031 67.931 72.6826 60.1981 75.8013" fill="white"/>
<path d="M40.9293 68.0928C42.2682 70.965 38.6348 77.4786 38.6348 77.4786C38.6348 77.4786 49.4498 78.1754 55.7652 76.7967C62.0784 75.4179 40.9293 68.0928 40.9293 68.0928Z" fill="white"/>
<path d="M51.7036 57.8896C47.8127 58.1637 49.1728 62.0493 50.7011 63.7319C52.2294 65.4123 54.4771 66.073 54.4771 66.073C54.4771 66.073 60.6265 61.8921 58.5022 59.1516C56.3779 56.4132 54.0131 59.4639 54.0131 59.4639L51.7036 57.8896Z" fill="#F1503C"/>
<path d="M69.7957 64.0195C68.4569 66.8918 72.0903 73.4054 72.0903 73.4054C72.0903 73.4054 61.2752 74.1022 54.9598 72.7234C48.6466 71.3446 69.7957 64.0195 69.7957 64.0195Z" fill="white"/>
<path d="M52.8373 102.374C51.5346 109.128 49.9254 112.971 42.8736 114.545C35.8218 116.123 36.4114 116.833 35.8282 118.142C35.2428 119.452 31.569 122.051 31.569 122.051L24.8237 118.409C24.8237 118.409 26.0156 112.18 26.1646 109.809C26.3158 107.439 21.5287 107.494 23.0272 98.5456C24.5235 89.5974 29.5788 82.8417 40.76 86.2387C51.9433 89.6357 54.3911 94.3158 52.8373 102.372" fill="white"/>
<path d="M80.6541 126.569L66.5802 131.795C66.5802 131.795 65.2903 132.556 64.4027 131.366C63.5173 130.174 60.5799 125.613 60.5799 125.613C60.5799 125.613 59.8157 124.937 61.6484 123.998C63.4853 123.059 76.5183 117.886 76.5183 117.886C76.5183 117.886 77.2569 117.064 78.4085 119.138C79.5643 121.211 81.3969 123.835 81.8184 124.819C82.2398 125.802 81.9269 126.27 80.6562 126.571" fill="#F1503C"/>
<path d="M50.1285 169.098C50.1285 169.098 51.4461 170.228 48.3363 170.273C45.2244 170.315 42.2976 169.646 41.4185 167.804C40.5331 165.958 38.5876 164.252 44.5943 157.297C50.6074 150.341 68.1742 131.901 68.1742 131.901C68.1742 131.901 67.1951 131.676 66.895 129.587C66.597 127.497 67.6612 125.891 67.6612 125.891C67.6612 125.891 64.3918 123.732 63.5638 123.186C62.7358 122.638 63.3595 120.949 66.6715 121.036C69.9813 121.124 74.2299 122.456 75.3601 126.777C76.4946 131.096 76.1094 132.313 74.4129 134.554C72.7144 136.796 58.1807 157.445 58.1807 157.445L56.6099 160.12L50.1242 169.098H50.1285Z" fill="white"/>
<path d="M94.4001 76.8292C102.582 76.5891 101.897 81.8918 101.897 81.8918C101.897 81.8918 107.41 81.0122 107.188 84.3136C106.967 87.615 101.897 95.0974 101.897 97.5192C101.897 99.9411 105.867 119.308 102.999 121.288C100.132 123.268 94.6194 125.029 90.6518 119.747C86.6821 114.466 86.6821 106.984 86.9034 102.361C87.1248 97.7402 87.7847 93.7781 85.3603 90.6976C82.9337 87.6172 83.1551 85.1953 85.1389 84.5346C87.1227 83.8739 87.344 84.0948 87.344 84.0948C87.344 84.0948 86.9034 77.0523 94.4001 76.8313" fill="white"/>
<path d="M99.9107 108.322C101.305 108.772 102.842 107.884 103.346 106.338C103.851 104.787 103.129 103.166 101.737 102.716C100.345 102.263 98.806 102.624 98.3015 104.171C97.797 105.72 98.5186 107.87 99.9107 108.322Z" fill="#FCC4D7"/>
<path d="M91.9193 114.249C96.0253 114.249 99.3543 112.554 99.3543 110.463C99.3543 108.373 96.0253 106.68 91.9193 106.68C87.8134 106.68 84.4844 108.375 84.4844 110.463C84.4844 112.552 87.8134 114.249 91.9193 114.249Z" fill="#FCD0DC"/>
<path d="M99.3543 99.7998H84.4844V110.581H99.3543V99.7998Z" fill="#FCD0DC"/>
<path d="M91.9193 103.954C96.0253 103.954 99.3543 102.259 99.3543 100.168C99.3543 98.078 96.0253 96.3848 91.9193 96.3848C87.8134 96.3848 84.4844 98.0801 84.4844 100.168C84.4844 102.257 87.8134 103.954 91.9193 103.954Z" fill="#6A68CE"/>
<path d="M89.5124 98.9092C88.363 97.9022 88.363 95.8946 89.5124 94.8876C90.6619 93.8828 90.6619 91.873 89.5124 90.8682" stroke="#1B1944" stroke-width="1.41" stroke-linecap="round" stroke-linejoin="round"/>
<path d="M94.7195 98.9092C93.5701 97.9022 93.5701 95.8946 94.7195 94.8876C95.8689 93.8828 95.8689 91.873 94.7195 90.8682" stroke="#1B1944" stroke-width="1.41" stroke-linecap="round" stroke-linejoin="round"/>
<path d="M124.855 149.49C118.555 150.441 115.406 140.577 114.134 136.431C112.863 132.286 106.503 109.592 105.777 109.204C105.049 108.817 104.468 109.012 103.561 108.832C103.267 108.774 102.601 108.109 101.986 107.255C101.814 107.302 101.633 107.328 101.445 107.328C100.307 107.328 99.3828 106.406 99.3828 105.269C99.3828 104.132 100.307 103.21 101.445 103.21C101.511 103.21 101.575 103.213 101.639 103.219C101.909 103.162 102.25 103.151 102.669 103.196C104.836 103.429 104.504 103.062 107.957 103.221C111.409 103.376 112.586 107.03 113.857 109.932C115.13 112.834 129.421 136.003 129.421 136.003C129.421 136.003 131.864 148.429 124.855 149.49Z" fill="white"/>
<path d="M55.4056 164.702C55.4417 169.842 55.4375 173.311 55.4375 173.311L51.0783 174.15L48.5602 174.634L14.4611 181.197L13.6906 177.761L11.4663 177.485L-10 180.086C-10 180.086 -1.44117 134.877 2.78397 126.834C6.113 120.495 12.2176 117.208 14.4654 117.612C16.711 118.016 21.3767 117.368 21.3767 117.368L20.4785 115.273L32.2599 114.372L33.1837 116.681C33.1837 116.681 40.6378 114.517 43.854 115.689C47.0681 116.86 51.2741 117.072 53.3877 122.103C54.2391 124.123 54.7372 132.787 55.0267 142.432C57.4873 140.747 59.3178 139.585 59.6243 139.634C60.6992 139.812 60.365 141.697 62.5894 144.025C64.2794 145.791 67.5999 144.973 68.0959 145.72C68.4364 146.237 60.4161 157.662 55.4056 164.702Z" fill="#6A68CE"/>
<path d="M40.6789 102.381C38.3971 105.421 36.2366 111.308 38.0395 113.364C40.085 115.699 43.1331 114.575 43.1331 114.575C43.1331 114.575 48.2522 129.295 42.9713 135.756C35.7981 144.534 21.603 136.202 17.9781 131.065C14.3532 125.922 12.1672 115.359 18.3484 116.005C20.8154 116.266 20.9091 107.05 21.2028 102.459C20.875 99.1514 21.256 95.5441 23.061 92.4318C25.8387 87.8939 29.9468 85.4381 33.1694 84.8602C36.3877 84.2824 38.5546 84.8114 39.7657 84.9473C40.7959 85.1534 41.8219 85.4381 42.8287 85.7907C49.7996 88.2296 52.7583 92.9586 52.7583 92.9586C52.7583 92.9586 51.5982 98.65 45.2126 101.095C43.4971 101.752 41.9794 102.151 40.6789 102.381Z" fill="#1B1944"/>
</g>
</svg>
