<svg width="35" height="32" viewBox="0 0 35 32" fill="none" xmlns="http://www.w3.org/2000/svg">
<path fill-rule="evenodd" clip-rule="evenodd" d="M16.6343 3.16123C15.6732 3.27446 14.4863 3.51748 12.798 3.8648L10.8756 4.26028C9.4496 4.55363 8.46758 4.757 7.71751 4.98648C6.99338 5.20803 6.58371 5.42644 6.27458 5.70201C5.96545 5.97759 5.72045 6.34278 5.47192 6.9883C5.21449 7.65695 4.98636 8.53237 4.65729 9.80356L4.21365 11.5173C3.82404 13.0224 3.55142 14.0804 3.4244 14.9372C3.30066 15.7719 3.32919 16.3366 3.49437 16.8501C3.65955 17.3635 3.97113 17.8559 4.57233 18.5053C5.18945 19.1718 6.04965 19.9402 7.27485 21.0324L10.1387 23.5854C12.2667 25.4823 13.7809 26.829 15.0827 27.7145C16.3574 28.5815 17.2895 28.907 18.2372 28.907C19.1848 28.907 20.117 28.5815 21.3917 27.7145C22.6935 26.829 24.2077 25.4823 26.3356 23.5854C28.4636 21.6884 29.9743 20.3386 30.9675 19.1781C31.9401 18.0418 32.3052 17.2108 32.3052 16.366C32.3052 15.5212 31.9401 14.6903 30.9675 13.554C29.9743 12.3935 28.4636 11.0436 26.3356 9.14668L23.4718 6.5937C22.2466 5.50149 21.3846 4.73467 20.6369 4.18454C19.9085 3.6486 19.3561 3.37084 18.7801 3.2236C18.2042 3.07635 17.5707 3.05092 16.6343 3.16123ZM16.3267 1.08625C17.4495 0.953971 18.434 0.957704 19.4274 1.21168C20.4208 1.46566 21.2579 1.92765 22.1314 2.5703C22.9758 3.19155 23.9162 4.02987 25.091 5.07717L28.0584 7.72243C30.1099 9.55118 31.734 10.999 32.8341 12.2844C33.9661 13.6069 34.6531 14.8796 34.6531 16.366C34.6531 17.8525 33.9661 19.1252 32.8341 20.4477C31.734 21.733 30.1098 23.1809 28.0584 25.0096L27.9333 25.1211C25.8819 26.9499 24.2577 28.3978 22.8159 29.3785C21.3323 30.3875 19.9046 31 18.2372 31C16.5697 31 15.142 30.3875 13.6585 29.3785C12.2166 28.3978 10.5924 26.9499 8.54098 25.1211L5.57363 22.4758C4.39881 21.4286 3.45841 20.5903 2.76152 19.8375C2.04061 19.0589 1.52236 18.3126 1.23746 17.4271C0.952553 16.5415 0.948366 15.6639 1.09675 14.6629C1.24019 13.6954 1.53924 12.5402 1.91284 11.0971L2.38346 9.27908C2.69521 8.07474 2.94943 7.09264 3.25118 6.30886C3.56632 5.49031 3.96325 4.80247 4.61437 4.22202C5.2655 3.64158 6.03711 3.28774 6.95533 3.00681C7.83455 2.73781 8.93624 2.51119 10.2872 2.23328L12.3266 1.81375C13.9455 1.48071 15.2413 1.21412 16.3267 1.08625ZM13.8992 10.4118C13.1351 9.73068 11.8963 9.73068 11.1322 10.4118C10.3681 11.093 10.3681 12.1973 11.1322 12.8785C11.8963 13.5596 13.1351 13.5596 13.8992 12.8785C14.6633 12.1973 14.6633 11.093 13.8992 10.4118ZM9.472 8.93184C11.153 7.43331 13.8784 7.43331 15.5594 8.93184C17.2404 10.4304 17.2404 12.8599 15.5594 14.3585C13.8784 15.857 11.153 15.857 9.472 14.3585C7.791 12.8599 7.791 10.4304 9.472 8.93184ZM28.8633 14.5909C29.3218 14.9996 29.3218 15.6622 28.8634 16.0709L17.9394 25.8094C17.481 26.2181 16.7377 26.2181 16.2792 25.8094C15.8207 25.4008 15.8207 24.7381 16.2792 24.3294L27.2031 14.591C27.6616 14.1823 28.4049 14.1823 28.8633 14.5909Z" fill="#1B1944" stroke="#1B1944" stroke-width="0.45" stroke-linecap="round"/>
</svg>
