<svg width="31" height="48" viewBox="0 0 31 48" fill="none" xmlns="http://www.w3.org/2000/svg">
<path fill-rule="evenodd" clip-rule="evenodd" d="M11.1585 5.85075C12.8599 2.38693 16.4233 0 20.5465 0C26.3198 0 31 4.68019 31 10.4535C31 11.9993 30.6638 13.4695 30.0594 14.7925C29.9017 15.1378 29.871 15.464 29.9411 15.726L30.1248 16.4124C30.7127 18.6096 28.7026 20.6197 26.5054 20.0318L25.8191 19.8481C25.624 19.7959 25.3935 19.7996 25.1459 19.8699C24.4105 26.1373 19.0813 31 12.6163 31C10.6698 31 8.82345 30.5585 7.17455 29.769C6.84813 29.6128 6.52673 29.5811 6.26235 29.6518L4.49457 30.1248C2.29742 30.7127 0.287324 28.7026 0.875205 26.5054L1.3482 24.7377C1.41894 24.4733 1.38723 24.1519 1.23096 23.8255C0.441548 22.1766 0 20.3302 0 18.3837C0 11.909 4.87743 6.5734 11.1585 5.85075ZM13.676 5.81132C19.9118 6.32993 24.8597 11.3836 25.2124 17.6651C25.5909 17.629 25.9844 17.6535 26.3781 17.7588L27.0645 17.9425C27.6539 18.1002 28.1932 17.5609 28.0355 16.9714L27.8519 16.285C27.6253 15.4382 27.7729 14.5928 28.0922 13.8939C28.5703 12.8473 28.8372 11.683 28.8372 10.4535C28.8372 5.87466 25.1253 2.16279 20.5465 2.16279C17.6889 2.16279 15.1672 3.60874 13.676 5.81132ZM12.6163 7.93023C6.84298 7.93023 2.16279 12.6104 2.16279 18.3837C2.16279 20.0001 2.5289 21.528 3.18171 22.8915C3.52113 23.6005 3.66346 24.4521 3.43749 25.2967L2.9645 27.0645C2.80678 27.6539 3.34607 28.1932 3.93555 28.0355L5.70333 27.5625C6.54787 27.3365 7.3995 27.4789 8.10847 27.8183C9.47205 28.4711 10.9999 28.8372 12.6163 28.8372C18.3896 28.8372 23.0698 24.157 23.0698 18.3837C23.0698 12.6104 18.3896 7.93023 12.6163 7.93023Z" fill="#1C274C"/>
<circle cx="14.5" cy="44.5" r="3.5" fill="#FCC4D7"/>
</svg>
