<svg width="180" height="190" viewBox="0 0 180 190" fill="none" xmlns="http://www.w3.org/2000/svg">
<path d="M180 99.2129C180 148.919 139.706 189.213 90 189.213C40.2939 189.213 0 148.919 0 99.2129C0 49.5068 40.2939 9.21289 90 9.21289C139.706 9.21289 180 49.5068 180 99.2129Z" fill="#1B1944"/>
<path d="M29.1523 67.3208C29.1523 67.3208 39.198 83.2483 43.1421 99.1701C49.9686 126.724 57.9223 164.458 57.9223 164.458L146.946 140.571C146.946 140.571 147.012 107.221 137.269 70.6028C127.526 33.9847 113.268 23.8848 113.268 23.8848C96.6809 28.4852 40.7848 44.0817 40.7848 44.0817L29.1523 67.3208Z" fill="white"/>
<path d="M89.3437 36.2194L63.6188 43.3541L59.7832 29.5214L66.1017 27.7691C66.0988 27.7577 66.0931 27.7434 66.0903 27.7291C65.0315 23.9078 67.2689 19.9523 71.0903 18.8935C74.9116 17.8347 78.8671 20.0722 79.9259 23.8907C79.9288 23.9049 79.9345 23.9164 79.9373 23.9306L85.5109 22.3838L89.3437 36.2194Z" fill="#1B1944"/>
<path d="M64.0496 81.5652C65.3595 78.7826 67.5855 75.181 71.1357 73.9053C75.3167 72.4042 79.2208 74.8928 81.0673 75.7975C86.1814 78.3032 95.1483 78.2746 111.952 65.7461" fill="#F04C3A"/>
<path d="M64.0466 86.5137C63.3417 86.5137 62.6225 86.3624 61.9433 86.0399C59.4719 84.8756 58.4131 81.9275 59.5746 79.456C62.0775 74.1393 65.4051 70.706 69.4661 69.2477C72.0375 68.3231 74.7943 68.2403 77.6568 68.9966C79.7829 69.5588 81.5181 70.4606 82.6682 71.0599C82.8965 71.1798 83.0963 71.2825 83.2447 71.3567C85.2367 72.3328 87.7453 72.4184 90.9159 71.6164C95.8303 70.3721 101.912 67.0645 108.998 61.782C111.187 60.1495 114.286 60.6004 115.922 62.7894C117.554 64.9783 117.103 68.0776 114.914 69.7129C110.71 72.8465 106.724 75.4121 103.062 77.3356C99.6203 79.145 96.3497 80.4463 93.3446 81.2083C91.1328 81.7677 89.0181 82.0474 87.0118 82.0474C84.0666 82.0474 81.3526 81.4452 78.8954 80.2437C78.6385 80.1181 78.3788 79.9812 78.102 79.8385C76.2013 78.8482 74.3663 78.0063 72.8109 78.5656C71.3554 79.0879 69.8343 80.903 68.5301 83.6769C67.6825 85.4635 65.9016 86.5137 64.0466 86.5137Z" fill="#F04C3A"/>
<path d="M67.7283 109.39C65.5422 109.39 63.5417 107.929 62.9509 105.714C62.2488 103.074 63.8185 100.363 66.4583 99.6609L117.631 86.0307C120.271 85.3287 122.982 86.8983 123.684 89.5382C124.386 92.178 122.817 94.8892 120.177 95.5912L69.004 109.221C68.5759 109.336 68.1478 109.39 67.7283 109.39Z" fill="#F04C3A"/>
<path d="M74.0525 133.271C71.8664 133.271 69.8659 131.809 69.2751 129.595C68.5731 126.955 70.1427 124.244 72.7825 123.542L123.955 109.912C126.595 109.21 129.307 110.779 130.009 113.419C130.711 116.059 129.141 118.77 126.501 119.472L75.3282 133.102C74.903 133.216 74.4749 133.271 74.0525 133.271Z" fill="#F04C3A"/>
<path d="M45.5137 61.4302L40.9303 44.1328L29.3008 67.372L45.5137 61.4302Z" fill="#FCC4D7"/>
<path d="M114.9 45.1113L131.758 58.5217L113.322 64.5348L114.9 45.1113Z" fill="#6A68CE"/>
<path d="M114.9 45.1113C126.436 30.6079 150.948 0 150.948 0L157.957 0.63927L164.892 5.64783L168.019 13.0537C168.019 13.0537 143.296 44.0211 131.761 58.5217C130.616 58.0965 125.034 55.9618 125.034 55.9618L119.178 50.9075C119.178 50.9075 115.574 46.1301 114.9 45.1113Z" fill="#F04C3A"/>
<path d="M113.93 57.0625L120.876 62.0711L113.322 64.534L113.93 57.0625Z" fill="#1B1944"/>
<path d="M119.178 50.908L158.436 1.11914L164.889 5.95647L125.034 55.9593L119.178 50.908Z" fill="#FCC4D7"/>
<path d="M150.948 0L153.864 6.88356L160.103 12.0177L168.017 13.0508L164.889 5.64783L157.957 0.63927L150.948 0Z" fill="#6A68CE"/>
<path d="M162.555 8.33312C163.258 7.35709 162.454 5.57756 160.761 4.35843C159.067 3.13931 157.124 2.94224 156.422 3.91828C155.719 4.89431 156.523 6.67384 158.216 7.89297C159.91 9.1121 161.853 9.30916 162.555 8.33312Z" fill="#1B1944"/>
</svg>
