<svg width="189" height="171" viewBox="0 0 189 171" fill="none" xmlns="http://www.w3.org/2000/svg">
<g clip-path="url(#clip0_1692_3621)">
<path d="M179.093 85.5C179.093 93.3692 178.029 100.989 176.04 108.225C166.089 144.415 132.957 171 93.6156 171C48.678 171 11.8404 136.313 8.40069 92.2485C8.22749 90.0207 8.13818 87.7712 8.13818 85.5C8.13818 67.301 13.8213 50.4311 23.5125 36.5686C38.9653 14.4607 64.6017 0 93.6183 0C127.449 0 156.691 19.6581 170.544 48.1788C176.021 59.4561 179.093 72.1167 179.093 85.5Z" fill="#FCC4D7"/>
<path d="M112.848 71.1927C103.339 51.5265 83.2694 37.9727 60.0485 37.9727C40.1329 37.9727 22.5367 47.9425 11.931 63.1882C5.27993 72.7465 1.37925 84.3784 1.37925 96.928C1.37925 98.4953 1.44121 100.046 1.55974 101.581C2.52952 114.06 7.36766 125.449 14.87 134.539L0 154.779L30.8849 148.095C39.4756 153.049 49.432 155.883 60.0485 155.883C87.0515 155.883 109.793 137.552 116.622 112.599C117.988 107.61 118.718 102.355 118.718 96.928C118.718 87.6999 116.608 78.9699 112.848 71.1927Z" fill="#F04C3A"/>
<path d="M175.372 147.209L169.981 123.047C178.044 115.879 184.051 106.423 186.988 95.6927C188.3 90.904 189 85.8582 189 80.65C189 71.7927 186.974 63.4119 183.364 55.9488C174.238 37.073 154.971 24.0605 132.682 24.0605C113.567 24.0605 96.6766 33.6324 86.4965 48.2637C80.1121 57.4376 76.3677 68.6039 76.3677 80.65C76.3677 82.1524 76.4269 83.6412 76.5401 85.1165C78.8056 114.282 103.077 137.239 132.682 137.239C138.011 137.239 143.167 136.495 148.051 135.104L175.372 147.209Z" fill="#1B1944"/>
<path d="M150.47 107.817C148.296 107.817 146.343 106.298 145.866 104.076C143.17 91.4911 139.959 78.9118 136.29 66.5301C131.082 79.2123 125.35 91.7347 119.184 103.895C118.001 106.225 115.162 107.154 112.842 105.965C110.523 104.777 109.602 101.924 110.782 99.5931C118.815 83.7546 126.093 67.2907 132.418 50.6644C133.13 48.7912 134.937 47.5622 136.936 47.6191C138.932 47.6678 140.68 48.9753 141.303 50.881C146.752 67.621 151.389 84.8482 155.082 102.081C155.631 104.639 154.012 107.159 151.467 107.709C151.133 107.782 150.799 107.817 150.47 107.817Z" fill="white"/>
<path d="M124.924 87.6468C124.633 87.6468 124.34 87.6441 124.046 87.636C121.444 87.5683 119.388 85.3919 119.459 82.7769C119.529 80.162 121.694 78.0993 124.294 78.167C126.805 78.2346 129.42 77.8854 132.192 77.5173C136.209 76.984 140.363 76.4318 144.751 77.0571C147.329 77.4252 149.123 79.8209 148.757 82.4115C148.39 85.0021 146.004 86.8049 143.428 86.4368C140.32 85.9955 136.971 86.4368 133.429 86.9078C130.689 87.2705 127.863 87.6468 124.927 87.6468H124.924Z" fill="white"/>
<path d="M34.7722 120.808C32.8649 120.808 31.0681 119.635 30.357 117.735C29.4411 115.285 30.6748 112.554 33.1128 111.636C45.1138 107.108 54.2002 98.4019 56.8213 88.9167C57.519 86.3965 60.1159 84.9184 62.6238 85.6196C65.1318 86.3207 66.6026 88.9302 65.9049 91.4504C62.4406 103.986 51.4201 114.847 36.4262 120.504C35.8793 120.71 35.3217 120.808 34.7695 120.808H34.7722Z" fill="white"/>
<path d="M66.0235 116.181C65.6248 116.181 65.2207 116.13 64.8167 116.024C51.6114 112.516 40.8684 103.957 36.7764 93.6862C35.8094 91.2581 36.9839 88.4997 39.4002 87.5279C41.8166 86.5561 44.5617 87.7363 45.5287 90.1645C48.5351 97.7088 56.8483 104.108 67.2276 106.867C69.7437 107.535 71.2469 110.128 70.5815 112.657C70.0239 114.779 68.1139 116.184 66.0262 116.184L66.0235 116.181Z" fill="white"/>
<path d="M47.2042 82.488C43.1796 82.488 39.2897 82.2849 36.3615 82.0792C33.7647 81.8951 31.8062 79.6321 31.9894 77.0226C32.1726 74.413 34.4246 72.4451 37.0215 72.6291C49.7257 73.5251 57.1715 72.7076 59.6875 71.7331C62.1173 70.7938 64.8462 72.012 65.781 74.4536C66.7157 76.8953 65.5035 79.6375 63.0737 80.5768C59.2457 82.0576 53.0849 82.488 47.2042 82.488Z" fill="white"/>
<path d="M49.1329 81.5805C46.528 81.5805 44.4187 79.4609 44.4187 76.8433V74.12C44.4187 71.5024 46.528 69.3828 49.1329 69.3828C51.7379 69.3828 53.8472 71.5024 53.8472 74.12V76.8433C53.8472 79.4609 51.7379 81.5805 49.1329 81.5805Z" fill="white"/>
</g>
<defs>
<clipPath id="clip0_1692_3621">
<rect width="189" height="171" fill="white"/>
</clipPath>
</defs>
</svg>
