<svg width="195" height="190" viewBox="0 0 195 190" fill="none" xmlns="http://www.w3.org/2000/svg">
<path d="M189.763 99.7711C189.763 107.95 188.667 115.847 186.587 123.379C176.245 160.927 141.845 188.526 100.98 188.526C54.2984 188.526 16.0479 152.524 12.4786 106.769C12.3099 104.465 12.1975 102.132 12.1975 99.7711C12.1975 80.8847 18.0995 63.3474 28.161 48.9578C44.2369 25.9962 70.852 10.9883 100.98 10.9883C136.111 10.9883 166.492 31.3923 180.882 61.0147C186.559 72.7062 189.763 85.8592 189.763 99.7711Z" fill="#6A68CE"/>
<path d="M82.937 122.705L0 54.6075L57.4741 74.4213L30.8028 14.502L76.9788 58.233L73.7749 0L125.178 92.8018L82.937 122.705Z" fill="#F04C3A"/>
<path d="M137.011 189.734L60.6783 162.416C58.9358 161.798 58.0083 159.859 58.6547 158.116L112.138 8.65555C112.756 6.91306 114.696 5.9856 116.438 6.63201L192.77 33.9498C194.513 34.5681 195.44 36.5073 194.794 38.2498L141.339 187.683C140.692 189.425 138.753 190.353 137.011 189.734Z" fill="#1B1944"/>
<path d="M139.905 159.352L77.7097 137.093C75.9673 136.475 75.0398 134.536 75.6862 132.793L115.061 22.8196C115.679 21.0771 117.618 20.1497 119.361 20.7961L181.557 43.0269C183.299 43.6452 184.227 45.5844 183.58 47.3269L144.234 157.329C143.615 159.071 141.676 159.999 139.905 159.352Z" fill="white"/>
<path d="M103.088 170.314C107.465 170.314 111.014 166.766 111.014 162.388C111.014 158.011 107.465 154.463 103.088 154.463C98.711 154.463 95.1626 158.011 95.1626 162.388C95.1626 166.766 98.711 170.314 103.088 170.314Z" fill="#F04C3A"/>
<path d="M117.45 145.948C116.494 145.948 115.623 145.33 115.314 144.375C114.527 141.901 114.78 139.203 115.033 136.59C115.201 134.819 115.37 133.133 115.201 131.727C108.962 125.825 102.02 119.193 97.692 113.206C97.2142 112.56 95.6966 110.199 96.1463 107.923C96.3711 106.827 96.9894 105.927 97.9169 105.337C99.2097 104.522 100.812 104.522 102.695 105.309C108.344 107.67 112.054 112.335 114.78 117.731C115.005 117.45 115.286 117.169 115.595 116.944C118.096 114.949 121.581 115.764 123.605 117.591C124.504 118.406 126.443 120.598 127.961 122.65C128.86 120.317 128.832 116.663 128.776 114.021C128.776 113.656 128.776 113.291 128.776 112.925C128.776 112.897 128.776 112.869 128.776 112.841C127.624 112.869 126.443 112.672 125.291 112.279C121.722 111.099 119.22 108.288 118.771 104.972C118.433 102.527 119.529 99.6319 122.199 99.0979C123.745 98.7887 125.038 99.4351 125.909 99.941C128.579 101.543 130.687 104.016 131.952 106.855C133.947 104.438 133.582 100.419 132.879 97.4116C132.851 97.243 132.795 97.0743 132.767 96.9338C132.514 96.7933 132.261 96.6528 132.008 96.5122C124.279 91.9031 117.871 85.3266 113.487 77.4854C113.403 77.3448 113.318 77.1762 113.206 77.0076C111.969 74.8716 110.592 72.4265 111.576 70.3749C111.857 69.7847 112.559 68.7729 114.189 68.5199C116.269 68.1827 117.927 69.5036 118.658 70.0657C123.942 74.2252 132.879 82.5723 136.477 93.6175C136.673 93.6456 136.842 93.6456 137.011 93.6175C137.235 93.5893 137.685 93.505 138.05 92.4371C138.36 91.5377 138.5 90.2449 138.472 88.6148C138.444 87.5749 138.36 86.5351 138.219 85.4671C137.123 84.7926 136.139 83.9775 135.268 83.1906C130.012 78.4409 125.431 73.0167 121.609 67.0585C120.625 65.5408 119.136 62.6461 120.063 60.2853C120.513 59.133 121.469 58.346 122.733 58.0088C124.869 57.4748 126.668 58.7395 127.427 59.2735C134.565 64.3604 140.214 73.3821 142.21 82.2913C142.547 82.3475 142.884 82.3756 143.222 82.3194C144.964 82.0102 145.976 79.3965 145.639 77.401C145.301 75.237 144.065 73.2415 142.772 71.0775C142.463 70.5997 142.182 70.0938 141.901 69.616C140.636 67.452 139.652 64.9788 139.146 62.4774C139.034 62.1683 138.95 61.831 138.865 61.4938C138.247 58.8238 138.725 55.9852 140.046 53.6244C140.214 53.3153 140.383 53.0343 140.58 52.7532C139.877 52.4722 139.343 51.8539 139.203 51.095C139.006 50.1395 139.484 49.1558 140.327 48.7061C142.126 47.7225 143.306 45.6708 143.503 43.2257C143.671 40.7806 142.8 38.5603 141.142 37.3237C140.158 36.593 139.933 35.1597 140.692 34.176C141.423 33.1923 142.856 32.9675 143.84 33.7263C146.707 35.8904 148.281 39.544 147.971 43.5349C147.803 45.8113 147.072 47.8911 145.863 49.6055C149.995 51.4042 153.311 54.9735 154.66 59.3578C155.419 61.831 155.222 64.6134 154.126 66.6369C153.339 68.1265 152.103 69.1382 150.585 69.5598C149.545 69.869 148.421 69.869 147.128 69.616H147.1C148.393 71.7801 149.63 74.0566 150.051 76.7265C150.698 80.9141 148.421 85.973 143.98 86.7599C143.587 86.8161 143.222 86.8723 142.856 86.8723C142.884 87.4344 142.913 87.9684 142.941 88.5305C142.997 92.4933 142.154 97.3554 137.657 98.058C137.629 98.058 137.601 98.058 137.545 98.0861C138.444 103.398 137.516 107.614 134.818 110.34C134.312 110.846 133.778 111.267 133.16 111.633C133.188 112.054 133.216 112.476 133.216 112.897C133.216 113.235 133.216 113.6 133.216 113.965C133.273 118.884 133.357 125.601 128.832 128.411C128.27 128.776 127.567 128.833 126.949 128.636C126.303 128.439 125.797 127.933 125.572 127.315C125.094 126.106 121.918 122.144 120.541 120.907C119.867 120.289 118.799 120.064 118.321 120.429C118.068 120.626 117.815 121.104 117.59 121.835C117.112 123.437 117.899 125.938 119.782 128.861C120.682 130.266 121.75 131.587 122.79 132.767C123.998 133.92 125.15 135.072 126.218 136.14C127.061 136.983 127.09 138.36 126.275 139.26C125.459 140.131 124.082 140.215 123.183 139.456C122.284 138.697 121.047 137.517 119.726 136.084C119.67 136.027 119.614 135.971 119.557 135.943C119.529 136.309 119.501 136.674 119.445 137.011C119.22 139.26 119.024 141.395 119.529 142.997C119.895 144.178 119.248 145.443 118.068 145.836C117.927 145.892 117.674 145.948 117.45 145.948ZM100.671 109.356C100.784 109.693 101.008 110.115 101.318 110.565C104.016 114.303 107.894 118.378 111.969 122.397C109.524 116.691 106.18 111.633 100.924 109.44C100.812 109.412 100.727 109.384 100.671 109.356ZM123.239 103.623C123.183 103.819 123.155 104.101 123.211 104.382C123.464 106.293 125.178 107.501 126.696 108.007C126.977 108.091 127.314 108.176 127.624 108.232C126.724 106.405 125.319 104.831 123.576 103.791C123.436 103.735 123.324 103.679 123.239 103.623ZM116.859 74.4219C116.944 74.5344 117 74.6468 117.056 74.7592C117.169 74.9278 117.253 75.0965 117.337 75.2651C120.485 80.8579 124.757 85.7762 129.844 89.6547C126.275 82.9658 120.794 77.654 116.859 74.4219ZM124.42 62.7585C124.588 63.2644 124.897 63.9108 125.375 64.6696C128.439 69.4474 132.036 73.8879 136.083 77.8507C133.666 71.9487 129.619 66.4402 124.785 63.0114C124.644 62.9271 124.532 62.8428 124.42 62.7585ZM143.475 61.3251C144.233 63.2644 146.032 64.8101 148.056 65.2317C148.59 65.3441 149.039 65.3441 149.348 65.2598C149.573 65.2036 149.911 65.035 150.192 64.501C150.698 63.5735 150.782 61.9997 150.388 60.6787C149.573 58.0088 147.634 55.7323 145.217 54.3271C144.739 54.7486 144.318 55.2545 144.009 55.8166C143.165 57.3624 143.109 59.3297 143.475 61.3251Z" fill="#6A68CE"/>
<path d="M156.74 53.9881C158.292 53.9881 159.551 52.7298 159.551 51.1777C159.551 49.6255 158.292 48.3672 156.74 48.3672C155.188 48.3672 153.93 49.6255 153.93 51.1777C153.93 52.7298 155.188 53.9881 156.74 53.9881Z" fill="#6A68CE"/>
</svg>
