<svg width="34" height="47" viewBox="0 0 34 47" fill="none" xmlns="http://www.w3.org/2000/svg">
<path fill-rule="evenodd" clip-rule="evenodd" d="M9.79482 2.44824C10.3744 2.44824 10.8443 2.9181 10.8443 3.49769V4.56494C11.7706 4.54713 12.7912 4.54714 13.9137 4.54715H19.6687C20.7911 4.54714 21.8117 4.54713 22.7381 4.56494V3.49769C22.7381 2.9181 23.2079 2.44824 23.7875 2.44824C24.3671 2.44824 24.837 2.9181 24.837 3.49769V4.65501C25.2007 4.68274 25.5451 4.7176 25.8711 4.76142C27.5116 4.98199 28.8394 5.44671 29.8866 6.49387C30.9338 7.54103 31.3985 8.86887 31.619 10.5094C31.6895 11.0337 31.7368 11.6059 31.7686 12.2292C31.8104 12.3426 31.8333 12.4651 31.8333 12.5929C31.8333 12.6899 31.8202 12.7839 31.7955 12.873C31.8333 13.9952 31.8333 15.2694 31.8333 16.7118V19.6682C31.8333 22.2398 31.8334 24.2766 31.619 25.8706C31.3985 27.5112 30.9338 28.839 29.8866 29.8862C28.8394 30.9333 27.5116 31.3981 25.8711 31.6186C24.277 31.8329 22.2402 31.8329 19.6686 31.8329H13.9137C11.3422 31.8329 9.30535 31.8329 7.71128 31.6186C6.07074 31.3981 4.74291 30.9333 3.69575 29.8862C2.64859 28.839 2.18386 27.5112 1.9633 25.8706C1.74898 24.2766 1.749 22.2398 1.74902 19.6682V16.7118C1.74901 15.2694 1.749 13.9952 1.78682 12.873C1.76218 12.7839 1.74902 12.6899 1.74902 12.5929C1.74902 12.4651 1.77189 12.3425 1.81377 12.2292C1.84551 11.6059 1.89281 11.0337 1.9633 10.5094C2.18386 8.86887 2.64859 7.54103 3.69575 6.49387C4.74291 5.44671 6.07075 4.98199 7.71128 4.76142C8.03721 4.7176 8.38164 4.68274 8.74537 4.65501V3.49769C8.74537 2.9181 9.21523 2.44824 9.79482 2.44824ZM3.86624 13.6424C3.84838 14.5557 3.84793 15.5958 3.84793 16.7908V19.5893C3.84793 22.2574 3.85016 24.153 4.04349 25.591C4.23276 26.9988 4.58771 27.8098 5.1799 28.402C5.77208 28.9942 6.58316 29.3492 7.99095 29.5384C9.42893 29.7318 11.3245 29.734 13.9926 29.734H19.5897C22.2579 29.734 24.1534 29.7318 25.5914 29.5384C26.9992 29.3492 27.8103 28.9942 28.4024 28.402C28.9946 27.8098 29.3496 26.9988 29.5389 25.591C29.7322 24.153 29.7344 22.2574 29.7344 19.5893V16.7908C29.7344 15.5958 29.734 14.5557 29.7161 13.6424H3.86624ZM29.6201 11.5435H3.96223C3.98463 11.2785 4.01143 11.0275 4.04349 10.7891C4.23276 9.38129 4.58771 8.5702 5.1799 7.97802C5.77208 7.38583 6.58316 7.03088 7.99095 6.84161C9.42893 6.64828 11.3245 6.64605 13.9926 6.64605H19.5897C22.2579 6.64605 24.1534 6.64828 25.5914 6.84161C26.9992 7.03088 27.8103 7.38583 28.4024 7.97802C28.9946 8.5702 29.3496 9.38129 29.5389 10.7891C29.5709 11.0275 29.5977 11.2785 29.6201 11.5435Z" fill="#1B1944"/>
<circle cx="16.5" cy="43.5" r="3.5" fill="#F1503C"/>
</svg>
