<svg width="96" height="90" viewBox="0 0 96 90" fill="none" xmlns="http://www.w3.org/2000/svg">
<rect width="96" height="90" rx="20" fill="#FCD0DC"/>
<mask id="mask0_983_678" style="mask-type:alpha" maskUnits="userSpaceOnUse" x="0" y="7" width="96" height="83">
<rect y="7.06641" width="96" height="82.9319" rx="20" fill="#FCD0DC"/>
</mask>
<g mask="url(#mask0_983_678)">
<g clip-path="url(#clip0_983_678)">
<path d="M56.6403 38.0983C56.5237 39.0814 56.509 40.5216 55.1539 41.7493C53.7989 42.9747 53.9358 43.84 53.9619 44.599C53.9879 45.358 54.3332 45.9969 53.1819 46.9057C52.0306 47.8156 51.3015 49.5096 51.9015 51.3339C52.5027 53.1594 56.4773 55.1495 60.6999 55.9782C64.9225 56.8069 64.8546 42.3974 64.0225 40.1319C63.1916 37.8674 57.3886 31.7749 56.6403 38.0983Z" fill="#1B1944"/>
<path d="M57.0513 79.645C57.0513 78.0538 51.9004 65.4218 50.9551 57.5426C50.054 50.0338 56.5928 46.5601 62.3063 48.9468C68.0198 51.3335 68.2326 47.0916 72.5163 45.2352C76.8012 43.3789 83.7045 48.9479 85.1332 62.2075C86.5618 75.4671 85.3709 86.8703 81.5626 89.257C77.7544 91.6438 57.2562 81.4579 57.2562 81.4579" fill="#6A68CE"/>
<path d="M84.0498 57.0324C84.0498 57.0324 87.4788 65.0144 88.1433 66.8719C88.8067 68.7305 89.0059 70.6246 88.089 71.5333C87.172 72.4455 86.5527 73.9692 81.1811 71.802C75.8084 69.6347 61.2308 62.9089 61.2308 62.9089C61.2308 62.9089 61.2965 63.5433 60.1135 64.1537C58.9305 64.7664 57.7554 64.4612 57.7554 64.4612C57.7554 64.4612 57.1384 66.8708 56.9822 67.48C56.826 68.0916 55.6917 68.0664 55.0656 66.0603C54.4396 64.0554 54.3638 61.232 56.706 59.6569C59.0471 58.0806 59.8508 58.0612 61.5331 58.6144C63.2142 59.1688 78.4891 63.6187 78.4891 63.6187L77.3514 61.1829L84.0498 57.0312V57.0324Z" fill="white"/>
<path d="M69.4757 31.9145L65.4738 30.2021C65.4738 30.2021 65.3561 30.2502 65.4795 30.728C65.6029 31.2058 65.4795 31.0892 65.4795 31.0892L68.8519 32.4186C68.8519 32.4186 69.221 32.2848 69.4757 31.9145Z" fill="#F04C3A"/>
<path d="M56.2475 33.2443C55.5593 36.7855 54.6864 41.5716 58.1675 42.9775C60.3841 43.8726 61.3328 43.5033 61.3588 44.2566C61.3848 45.0076 62.0097 49.0667 62.0097 49.0667C62.0097 49.0667 63.2516 55.1558 67.0349 55.1546C70.8183 55.1546 68.2179 46.7988 68.2179 46.7988C68.2179 46.7988 67.2399 43.2816 67.6293 42.0985C68.0187 40.9166 70.31 41.8825 71.3322 37.2325C72.3545 32.5836 71.2383 28.304 65.1976 27.7633C59.1569 27.2238 57.0683 29.0184 56.2464 33.2455" fill="white"/>
<path d="M58.0362 28.7116C58.0362 28.7116 60.3433 27.0165 64.1142 27.1948C64.6599 27.2199 65.1987 27.2817 65.7251 27.3822C67.0655 27.6692 68.2179 28.2235 68.8689 28.6156C70.5171 29.7061 71.7601 31.487 72.2062 34.1984C72.8571 38.1705 74.7443 39.197 77.5155 41.5974C80.2868 43.9967 79.1468 45.2461 79.5442 47.4031C79.9415 49.5612 81.6589 49.4857 82.9053 51.2872C84.1505 53.0887 85.8 57.9993 83.117 61.2433C80.4329 64.4862 75.7869 64.4668 72.4767 64.4668C69.1666 64.4668 67.5104 59.8111 68.6923 54.3186C68.9549 53.1058 66.29 51.0495 66.0908 49.0662C65.6176 44.3442 67.0847 44.6791 67.0372 43.2697C66.9874 41.8603 65.8949 41.3562 65.218 40.4029C64.5387 39.4496 65.6063 39.2096 66.2198 38.3043C66.8334 37.3989 67.0055 36.1199 65.8089 35.7278C64.6123 35.3357 62.6074 36.4776 60.0524 34.0703C57.4939 31.663 58.0373 28.7128 58.0373 28.7128" fill="#1B1944"/>
<path d="M64.8817 39.2893C64.6033 39.3921 64.2851 39.2207 64.1719 38.9075C64.0587 38.5931 64.1935 38.2559 64.4719 38.153C64.7504 38.0502 65.0651 38.113 65.1772 38.4262C65.2904 38.7394 65.1602 39.1864 64.8806 39.2881" fill="#1B1944"/>
<path d="M42.4058 38.5749C41.3032 42.1287 38.7504 46.0106 35.8501 45.0664C33.1014 44.1714 32.3135 45.7477 32.1063 46.3169C31.8007 47.1559 31.9184 49.066 31.9184 49.066L26.5343 45.4893C26.5343 45.4893 27.5464 42.211 27.7694 40.9445C27.9936 39.678 25.4442 39.4162 26.7845 34.693C28.1238 29.9699 31.2222 26.6447 36.9617 29.1583C42.7013 31.6696 43.719 34.3376 42.4047 38.5749" fill="white"/>
<path d="M25.9197 44.9138C26.4212 44.5286 26.8502 45.6259 29.2977 46.3198C30.56 46.6776 32.223 46.6798 32.3962 47.0376C32.5694 47.3954 32.3271 48.7179 32.3271 48.7179C32.3271 48.7179 36.9267 48.567 38.6587 49.6621C40.5006 50.828 41.8432 53.1027 41.747 56.7846C41.6508 60.4664 30.423 89.8021 30.423 89.8021L6.74371 85.439L7.1671 83.0808L6.05315 82.3973L0.00115967 81.5354C0.00115967 81.5354 4.21242 57.8956 8.62746 53.7223C13.0414 49.5501 16.6673 44.6486 22.159 45.027C23.4914 45.1184 25.0038 46.1529 25.2993 46.0809C25.5948 46.0089 25.4193 45.3013 25.9208 44.9149" fill="#F1503C"/>
<path d="M31.5267 38.5576L32.6396 38.7702L31.8913 39.6161L31.5267 38.5576Z" fill="#3E3035"/>
<path d="M31.9173 49.0066C31.5709 49.0409 31.2607 48.7528 31.2234 48.3619C31.186 47.9733 31.4362 47.6315 31.7826 47.5972C32.129 47.5629 32.4675 47.7275 32.5037 48.1161C32.5411 48.5059 32.2626 48.9723 31.9162 49.0066" fill="#6A68CE"/>
<path d="M30.6188 49.782C30.2724 49.8163 29.9611 49.5282 29.9249 49.1384C29.8875 48.7498 30.1388 48.4069 30.4853 48.3726C30.8317 48.3383 31.1702 48.5029 31.2064 48.8915C31.2437 49.2813 30.9652 49.7477 30.6188 49.782Z" fill="#6A68CE"/>
<path d="M28.9547 49.9304C28.6083 49.9636 28.297 49.6767 28.2608 49.288C28.2234 48.8982 28.4747 48.5542 28.82 48.521C29.1664 48.4867 29.5049 48.6513 29.5411 49.0411C29.5785 49.4298 29.3 49.8973 28.9536 49.9304" fill="#6A68CE"/>
<path d="M27.5079 49.0857C27.1615 49.12 26.8513 48.8308 26.814 48.441C26.7766 48.0524 27.0279 47.7106 27.3744 47.6763C27.7208 47.642 28.0592 47.8055 28.0955 48.1953C28.1328 48.5851 27.8543 49.0514 27.5079 49.0857Z" fill="#6A68CE"/>
<path d="M26.454 47.9187C26.1076 47.9519 25.7974 47.6649 25.76 47.2752C25.7227 46.8865 25.974 46.5425 26.3193 46.5093C26.6657 46.475 27.0042 46.6396 27.0404 47.0283C27.0777 47.418 26.7993 47.8844 26.4528 47.9187" fill="#6A68CE"/>
<path d="M40.8968 46.3229C40.247 44.2802 41.5387 43.2789 42.5858 45.6827C43.6352 48.0866 43.0013 51.8599 43.0013 51.8599L41.1334 51.0506L40.8968 46.3229Z" fill="white"/>
<path d="M68.3244 72.6875H55.2185V73.5345H68.3244V72.6875Z" fill="#3E3035"/>
<path d="M51.7227 72.6875H41.5296V73.5345H51.7227V72.6875Z" fill="#3E3035"/>
<path d="M42.9549 33.4622C42.9549 33.4622 41.6666 30.7897 38.1459 29.1082C37.6365 28.8648 37.1146 28.6567 36.587 28.491C35.9588 28.3515 34.8527 27.9503 33.132 28.0772C31.4113 28.2052 29.1222 29.2786 27.4162 31.5304C24.1344 36.0798 27.054 43.5818 27.774 42.321C28.4951 41.0602 29.7324 41.1356 30.8067 40.5995C31.8833 40.0634 31.0264 39.3227 30.9007 38.1979C30.775 37.0731 31.2335 35.8249 32.5116 36.0524C33.7897 36.2798 35.0667 38.2996 38.55 37.3578C42.0334 36.4159 42.9549 33.4622 42.9549 33.4622Z" fill="#1B1944"/>
<path d="M88.1502 47.4608L86.3129 49.2005C86.3129 49.2005 88.38 49.9195 89.3762 47.7122C90.0872 46.1348 88.1502 47.4608 88.1502 47.4608Z" fill="white"/>
<path d="M76.9438 61.5346C76.7865 61.4409 76.6937 61.258 76.7208 61.0637L76.7435 60.9014L76.9438 61.5346Z" fill="#FFFCEB"/>
</g>
<path d="M50.5464 111.425C77.4174 111.425 99.2 101.733 99.2 89.7796C99.2 77.8257 77.4174 68.1338 50.5464 68.1338C23.6753 68.1338 1.89136 77.8257 1.89136 89.7796C1.89136 101.733 23.6753 111.425 50.5464 111.425Z" fill="#1B1944"/>
<path d="M35.9391 76.8703C35.9391 75.568 36.8747 74.4583 38.1697 74.3208C41.2337 73.9954 46.7057 73.7216 49.7115 75.4132V75.4132C51.3107 76.3133 53.5091 75.8162 55.1651 75.0253C56.3323 74.4677 57.807 74.0723 59.5497 74.2192C63.1176 74.5199 68.9326 76.4123 71.5617 77.3193C72.3277 77.5836 72.728 78.4131 72.4744 79.1828V79.1828C72.2748 79.7887 71.7146 80.2027 71.0768 80.2157L57.891 80.4834C56.0833 80.5201 54.2728 82.1408 52.4647 82.1408V82.1408V82.1408C50.2849 82.1408 48.322 80.1139 46.1458 79.9881L38.4626 79.5439C37.046 79.462 35.9391 78.2893 35.9391 76.8703V76.8703Z" fill="white"/>
<path d="M71.5674 79.4004H55.007C54.6901 79.4004 54.4332 79.6573 54.4332 79.9742C54.4332 80.2911 54.6901 80.548 55.007 80.548H71.5674C71.8843 80.548 72.1412 80.2911 72.1412 79.9742C72.1412 79.6573 71.8843 79.4004 71.5674 79.4004Z" fill="#6A68CE"/>
<path d="M49.1377 79.4004H36.5129C36.196 79.4004 35.9391 79.6573 35.9391 79.9742C35.9391 80.2911 36.196 80.548 36.5129 80.548H49.1377C49.4546 80.548 49.7115 80.2911 49.7115 79.9742C49.7115 79.6573 49.4546 79.4004 49.1377 79.4004Z" fill="#6A68CE"/>
<path d="M78.2423 73.6113H75.9047C75.1727 73.6113 74.5792 74.2048 74.5792 74.9368C74.5792 75.6689 75.1727 76.2624 75.9047 76.2624H78.2423C78.9744 76.2624 79.5678 75.6689 79.5678 74.9368C79.5678 74.2048 78.9744 73.6113 78.2423 73.6113Z" fill="#F1503C"/>
<path d="M81.1007 48.9778C81.1226 48.9972 81.1466 49.014 81.1718 49.029V49.029C81.5515 49.2541 81.9636 48.927 81.6337 48.6337C81.482 48.4988 81.2801 48.398 81.0116 48.3771C80.4041 48.3298 80.9549 48.8485 81.1007 48.9778Z" fill="white"/>
<path d="M80.6007 50.4484V50.4484C81.2488 50.3022 81.3509 49.5645 80.7087 49.735C80.5386 49.7801 80.3527 49.862 80.1518 49.9939C79.323 50.5371 80.6007 50.4496 80.6007 50.4496" fill="white"/>
<path d="M82.1731 47.8622V47.8622C82.3333 48.6121 83.2306 48.7436 83.143 47.9818C83.1109 47.702 83.0034 47.4028 82.7775 47.0984C82.0864 46.168 82.1743 47.8622 82.1743 47.8622" fill="white"/>
<path d="M82.8876 50.8227C82.5991 52.1248 82.0291 53.0229 81.1955 53.4905C80.7181 53.7579 80.2348 53.8346 79.8406 53.8346V53.8346C79.6308 53.8346 79.4409 53.9778 79.4117 54.1855L78.2339 62.5779L78.1781 62.9724C78.1437 63.2194 77.9335 63.398 77.6936 63.398C77.671 63.398 77.6473 63.3956 77.6247 63.3932V63.3932C77.4998 63.3752 77.4209 63.261 77.3828 63.1406L77.2317 62.663L73.8021 51.7975C73.692 51.4486 73.3357 51.2435 72.9698 51.2435V51.2435C72.2811 51.2435 71.2611 51.0493 70.3681 50.1045C68.9906 48.6501 68.6629 47.3036 68.6498 47.2472C68.5881 46.981 68.7507 46.7148 69.0144 46.6525C69.2768 46.5901 69.5416 46.7544 69.6033 47.0194C69.6057 47.029 69.8955 48.174 71.0758 49.421V49.421C71.9617 50.3573 72.953 49.1086 72.565 47.8795L71.8619 45.6525C71.78 45.3923 71.9225 45.1141 72.1802 45.0302C72.4378 44.9475 72.7133 45.0914 72.7953 45.3515L75.2967 53.2765C75.5905 54.2075 76.588 54.3283 76.4978 53.3562V53.3562C76.4729 53.084 76.67 52.843 76.9396 52.8167C77.2103 52.7903 77.4478 52.9917 77.4727 53.2639C77.5927 54.554 77.1592 55.3226 76.7733 55.7399C76.7647 55.7492 76.756 55.7585 76.7474 55.7676C76.4738 56.0551 76.3013 56.4561 76.4208 56.8347V56.8347C76.6927 57.6964 77.9441 57.5922 78.0697 56.6973L78.5993 52.9245C78.7127 52.1166 78.2535 51.2925 77.6164 50.783C77.6047 50.7735 77.5928 50.764 77.5808 50.7543C76.5631 49.9342 76.2259 48.1657 76.1903 47.9666C76.1428 47.698 76.3197 47.4414 76.5857 47.3935C76.8517 47.3455 77.107 47.5242 77.1545 47.7928C77.1937 48.0122 77.2982 48.4342 77.4704 48.8647C77.6425 49.2939 77.8824 49.7316 78.1924 49.981V49.981C78.5339 50.2573 79.0045 50.0402 79.0655 49.6051L79.1186 49.2268C79.1566 48.9558 79.4059 48.7688 79.6731 48.8059C79.9403 48.8443 80.1267 49.0949 80.0887 49.3647L79.7641 51.6766C79.6753 52.3091 80.1749 52.9359 80.73 52.62V52.62C81.3035 52.2927 81.7085 51.6152 81.9317 50.6057C81.9911 50.3395 82.2547 50.1728 82.5171 50.2316C82.7808 50.2915 82.947 50.5565 82.8876 50.8227Z" fill="white"/>
<path d="M72.0891 45.5641C72.4738 45.5509 72.7754 45.2248 72.7612 44.8363C72.7481 44.449 72.4251 44.1445 72.0404 44.1576C71.6556 44.1708 71.354 44.497 71.3683 44.8842C71.3813 45.2727 71.7043 45.5773 72.0891 45.5641Z" fill="#F1503C"/>
<path d="M76.784 47.9264C77.1688 47.9132 77.4704 47.5871 77.4561 47.1986C77.4431 46.8113 77.1201 46.5068 76.7353 46.5199C76.3506 46.5331 76.049 46.8593 76.0632 47.2466C76.0763 47.635 76.3993 47.9396 76.784 47.9264Z" fill="#F1503C"/>
<path d="M79.6651 49.4176C80.0499 49.4044 80.3515 49.0783 80.3372 48.6898C80.3242 48.3025 80.0012 47.998 79.6164 48.0112C79.2317 48.0243 78.9301 48.3505 78.9443 48.7378C78.9574 49.1262 79.2804 49.4308 79.6651 49.4176Z" fill="#F1503C"/>
<path d="M76.7724 53.7545C77.1572 53.7413 77.4588 53.4152 77.4445 53.0267C77.4315 52.6394 77.1085 52.3349 76.7237 52.3481C76.339 52.3613 76.0374 52.6874 76.0516 53.0747C76.0647 53.4632 76.3877 53.7677 76.7724 53.7545Z" fill="#F1503C"/>
<path d="M68.8161 47.5836C69.2009 47.5704 69.5025 47.2443 69.4882 46.8558C69.4752 46.4685 69.1522 46.164 68.7674 46.1772C68.3827 46.1904 68.0811 46.5165 68.0953 46.9038C68.1084 47.2923 68.4314 47.5968 68.8161 47.5836Z" fill="#F1503C"/>
<path d="M71.5734 67.6407C72.5721 64.793 75.8697 63.3733 78.9405 64.4705C82.0102 65.5688 83.6892 68.7666 82.6906 71.6154C81.6907 74.4631 78.1924 76.1333 75.1216 75.0362C72.052 73.9391 70.5736 70.4883 71.5734 67.6407Z" fill="#F1503C"/>
<path d="M76.2396 66.0633C75.3196 65.5716 75.1901 63.2819 75.1868 62.2389V62.2389C75.1841 61.4101 75.8937 61.222 76.7215 61.2631L77.4102 61.2974C78.6244 61.3578 79.4239 62.5878 79.4836 63.8021C79.5068 64.2733 79.6033 64.741 79.8278 65.1274C80.2558 65.8652 79.8307 66.4368 79.3536 66.8049C78.8676 67.18 78.205 67.1136 77.6635 66.8243L76.2396 66.0633Z" fill="#F1503C"/>
<g clip-path="url(#clip1_983_678)">
<path d="M84.8299 49.3506L83.3516 49.809C83.3516 49.809 84.4829 50.773 85.5343 49.8258C86.2864 49.1492 84.8299 49.3516 84.8299 49.3516" fill="white"/>
<path d="M84.0061 48.1931L83.0171 49.392C83.0171 49.392 84.486 49.5756 84.8528 48.2025C85.1166 47.2207 84.0061 48.1931 84.0061 48.1931Z" fill="white"/>
<path d="M84.3385 50.9198L83.0399 50.0732C83.0399 50.0732 83.0389 51.568 84.433 51.7694C85.4303 51.9142 84.3385 50.9198 84.3385 50.9198Z" fill="white"/>
</g>
<path d="M82.661 50.5035C83.0457 50.4904 83.3473 50.1642 83.3331 49.7757C83.32 49.3885 82.997 49.0839 82.6123 49.0971C82.2275 49.1103 81.9259 49.4364 81.9402 49.8237C81.9532 50.2122 82.2762 50.5167 82.661 50.5035Z" fill="#F1503C"/>
</g>
<defs>
<clipPath id="clip0_983_678">
<rect y="17.8389" width="90.1629" height="71.9629" rx="20" fill="white"/>
</clipPath>
<clipPath id="clip1_983_678">
<rect x="83.0171" y="47.7646" width="2.73221" height="4.01963" rx="1.3661" fill="white"/>
</clipPath>
</defs>
</svg>
