<svg width="34" height="34" viewBox="0 0 34 34" fill="none" xmlns="http://www.w3.org/2000/svg">
<path fill-rule="evenodd" clip-rule="evenodd" d="M9.79495 2.44824C10.3745 2.44824 10.8444 2.9181 10.8444 3.49769V4.56494C11.7708 4.54713 12.7913 4.54714 13.9138 4.54715H19.6688C20.7912 4.54714 21.8118 4.54713 22.7382 4.56494V3.49769C22.7382 2.9181 23.208 2.44824 23.7876 2.44824C24.3672 2.44824 24.8371 2.9181 24.8371 3.49769V4.65501C25.2008 4.68274 25.5453 4.7176 25.8712 4.76142C27.5117 4.98199 28.8396 5.44671 29.8867 6.49387C30.9339 7.54103 31.3986 8.86887 31.6192 10.5094C31.6896 11.0337 31.737 11.6059 31.7687 12.2292C31.8106 12.3426 31.8334 12.4651 31.8334 12.5929C31.8334 12.6899 31.8203 12.7839 31.7956 12.873C31.8335 13.9952 31.8334 15.2694 31.8334 16.7118V19.6682C31.8335 22.2398 31.8335 24.2766 31.6192 25.8706C31.3986 27.5112 30.9339 28.839 29.8867 29.8862C28.8396 30.9333 27.5117 31.3981 25.8712 31.6186C24.2771 31.8329 22.2403 31.8329 19.6688 31.8329H13.9138C11.3423 31.8329 9.30547 31.8329 7.7114 31.6186C6.07087 31.3981 4.74303 30.9333 3.69587 29.8862C2.64871 28.839 2.18399 27.5112 1.96342 25.8706C1.74911 24.2766 1.74912 22.2398 1.74915 19.6682V16.7118C1.74913 15.2694 1.74912 13.9952 1.78694 12.873C1.76231 12.7839 1.74915 12.6899 1.74915 12.5929C1.74915 12.4651 1.77202 12.3425 1.81389 12.2292C1.84563 11.6059 1.89293 11.0337 1.96342 10.5094C2.18399 8.86887 2.64871 7.54103 3.69587 6.49387C4.74303 5.44671 6.07087 4.98199 7.7114 4.76142C8.03733 4.7176 8.38176 4.68274 8.74549 4.65501V3.49769C8.74549 2.9181 9.21535 2.44824 9.79495 2.44824ZM3.86636 13.6424C3.8485 14.5557 3.84805 15.5958 3.84805 16.7908V19.5893C3.84805 22.2574 3.85028 24.153 4.04361 25.591C4.23288 26.9988 4.58783 27.8098 5.18002 28.402C5.7722 28.9942 6.58329 29.3492 7.99108 29.5384C9.42905 29.7318 11.3246 29.734 13.9928 29.734H19.5898C22.258 29.734 24.1535 29.7318 25.5915 29.5384C26.9993 29.3492 27.8104 28.9942 28.4026 28.402C28.9947 27.8098 29.3497 26.9988 29.539 25.591C29.7323 24.153 29.7345 22.2574 29.7345 19.5893V16.7908C29.7345 15.5958 29.7341 14.5557 29.7162 13.6424H3.86636ZM29.6202 11.5435H3.96235C3.98476 11.2785 4.01156 11.0275 4.04361 10.7891C4.23288 9.38129 4.58783 8.5702 5.18002 7.97802C5.7722 7.38583 6.58329 7.03088 7.99108 6.84161C9.42906 6.64828 11.3246 6.64605 13.9928 6.64605H19.5898C22.258 6.64605 24.1535 6.64828 25.5915 6.84161C26.9993 7.03088 27.8104 7.38583 28.4026 7.97802C28.9947 8.5702 29.3497 9.38129 29.539 10.7891C29.571 11.0275 29.5978 11.2785 29.6202 11.5435Z" fill="#1B1944"/>
</svg>
