<svg width="382" height="215" viewBox="0 0 382 215" fill="none" xmlns="http://www.w3.org/2000/svg">
<mask id="mask0_886_1970" style="mask-type:alpha" maskUnits="userSpaceOnUse" x="0" y="0" width="382" height="215">
<rect width="382" height="215" rx="50" fill="#F1503C"/>
</mask>
<g mask="url(#mask0_886_1970)">
<path d="M182.582 95.8017C179.668 110.938 176.066 119.55 160.29 123.084C144.514 126.618 145.833 128.208 144.527 131.147C143.217 134.086 135 139.912 135 139.912L119.909 131.751C119.909 131.751 122.571 117.789 122.907 112.477C123.243 107.165 112.538 107.284 115.885 87.2279C119.232 67.1714 130.542 52.0313 155.56 59.6439C180.579 67.2608 186.057 77.7483 182.582 95.8017Z" fill="white"/>
<path d="M161.111 239.498C161.111 239.498 163.365 242.662 156.585 241.092C149.806 239.519 143.804 236.495 142.885 232.012C141.954 227.521 138.645 222.767 155.424 210.846C172.221 198.929 220.275 168.215 220.275 168.215C220.275 168.215 218.268 167.203 218.74 162.495C219.212 157.787 222.389 154.861 222.389 154.861C222.389 154.861 225.771 158.714 224.265 157.081C222.759 155.444 225.022 152.106 232.168 154.066C239.309 156.027 238.497 150.906 238.633 160.913C238.777 170.92 237.289 173.361 232.402 177.329C227.506 181.293 184.858 218.45 184.858 218.45L180.013 223.43L161.107 239.493L161.111 239.498Z" fill="white"/>
<path d="M188.328 235.5C188.409 247.017 189.511 263.574 189.511 263.574L179.758 265.453L174.126 266.538L96.728 272.466L95.0054 264.769L90.0289 264.148L42 269.978C42 269.978 61.1486 168.654 70.5996 150.626C78.0472 136.417 91.7048 129.051 96.7322 129.957C101.755 130.863 112.193 129.409 112.193 129.409L110.186 124.713L136.544 122.693L138.611 127.869C138.611 127.869 155.288 123.017 162.485 125.645C169.677 128.269 179.086 128.745 183.816 140.02C185.721 144.549 186.835 163.963 187.482 185.58C192.986 181.804 197.082 179.201 197.767 179.307C200.17 179.707 199.425 183.93 204.402 189.149C208.183 193.104 215.614 191.271 216.72 192.946C217.481 194.103 199.536 219.71 188.328 235.492V235.5Z" fill="#6A68CE"/>
<path d="M155.382 95.8183C150.278 102.631 145.442 115.828 149.478 120.434C154.055 125.665 160.873 123.147 160.873 123.147C160.873 123.147 172.327 156.141 160.511 170.618C144.463 190.291 112.704 171.617 104.597 160.105C96.4856 148.575 91.5942 124.904 105.426 126.35C110.947 126.936 111.155 106.28 111.81 95.9884C111.079 88.5757 111.93 80.491 115.966 73.5121C122.18 63.3435 131.372 57.836 138.581 56.5432C145.782 55.246 150.631 56.4326 153.34 56.7388C155.646 57.2024 157.942 57.8403 160.192 58.6271C175.789 64.092 182.408 74.6944 182.408 74.6944C182.408 74.6944 179.813 87.4487 165.526 92.9306C161.69 94.4021 158.291 95.2952 155.382 95.8098V95.8183Z" fill="#1B1944"/>
<path d="M271.796 249.602C271.796 243.682 252.444 196.684 248.892 167.369C245.506 139.432 270.074 126.507 291.54 135.387C313.007 144.267 313.807 128.485 329.901 121.578C346 114.672 371.937 135.392 377.305 184.725C382.673 234.058 378.198 276.484 363.89 285.364C349.582 294.244 272.566 256.347 272.566 256.347" fill="#6A68CE"/>
<path d="M322.347 293.152C407.206 293.152 476 269 476 239.213C476 209.426 407.206 185.27 322.347 185.27C237.489 185.27 168.695 209.422 168.695 239.213C168.695 269.004 237.489 293.152 322.347 293.152Z" fill="#FCD0DC"/>
<path d="M303.684 42.0977C330.867 44.3644 354.971 81.3771 347.332 97.7421C339.693 114.107 308.048 125.02 281.86 119.563C255.672 114.107 250.215 109.744 251.308 92.2857C252.401 74.8277 277.496 39.916 303.684 42.0977Z" fill="#1B1944"/>
<path d="M373.235 165.473C373.235 165.473 386.118 195.171 388.615 202.082C391.107 208.997 391.856 216.044 388.41 219.425C384.965 222.819 382.639 228.488 362.456 220.424C342.27 212.361 287.5 187.337 287.5 187.337C287.5 187.337 287.746 189.697 283.301 191.968C278.857 194.248 274.442 193.112 274.442 193.112C274.442 193.112 272.124 202.077 271.537 204.344C270.95 206.619 266.688 206.526 264.336 199.062C261.984 191.603 261.699 181.098 270.499 175.238C279.295 169.373 282.315 169.301 288.635 171.359C294.951 173.422 352.342 189.978 352.342 189.978L348.067 180.915L373.235 165.469V165.473Z" fill="white"/>
<path d="M318.477 76.6989L303.441 70.3281C303.441 70.3281 302.999 70.5067 303.462 72.2844C303.926 74.0621 303.462 73.6283 303.462 73.6283L316.133 78.5744C316.133 78.5744 317.52 78.0768 318.477 76.6989Z" fill="#F04C3A"/>
<path d="M268.776 76.9664C266.19 90.1418 262.911 107.949 275.99 113.18C284.318 116.51 287.882 115.136 287.98 117.938C288.078 120.733 290.426 135.835 290.426 135.835C290.426 135.835 295.092 158.49 309.307 158.485C323.521 158.485 313.751 127.397 313.751 127.397C313.751 127.397 310.076 114.311 311.54 109.909C313.003 105.512 321.612 109.105 325.452 91.8047C329.293 74.5083 325.099 58.5856 302.403 56.574C279.707 54.5666 271.86 61.2436 268.772 76.9707" fill="white"/>
<path d="M373.703 134.904L367.65 136.762C367.65 136.762 372.282 140.671 376.586 136.83C379.666 134.087 373.703 134.908 373.703 134.908" fill="white"/>
<path d="M359.76 131.417L363.158 133.412C363.158 133.412 362.793 129.453 359.322 129.185C356.838 128.993 359.76 131.417 359.76 131.417Z" fill="white"/>
<path d="M370.33 130.212L366.28 135.073C366.28 135.073 372.295 135.817 373.796 130.25C374.876 126.269 370.33 130.212 370.33 130.212Z" fill="white"/>
<path d="M357.85 136.539L362.763 135.442C362.763 135.442 360.394 132.227 356.242 134.928C353.274 136.854 357.85 136.544 357.85 136.544" fill="white"/>
<path d="M371.691 141.262L366.37 137.83C366.37 137.83 366.365 143.89 372.073 144.707C376.157 145.294 371.686 141.262 371.686 141.262" fill="white"/>
<path d="M363.482 127.371L364.817 133.559C364.817 133.559 369.105 129.276 365.647 124.662C363.171 121.362 363.486 127.371 363.486 127.371" fill="white"/>
<path d="M361.019 221.882C360.845 221.942 360.662 221.967 360.487 221.967C359.743 221.967 359.054 221.491 358.816 220.747L346.536 182.224C346.732 182.344 346.953 182.424 347.191 182.458C347.272 182.467 347.357 182.475 347.438 182.475C348.297 182.475 349.05 181.842 349.173 180.966L349.373 179.566L362.159 219.679C362.452 220.602 361.942 221.589 361.019 221.882Z" fill="#FFFCEB"/>
<path d="M346.536 182.225C345.945 181.876 345.596 181.196 345.698 180.473L345.783 179.869L346.536 182.225Z" fill="#FFFCEB"/>
<path d="M366.042 137.873C365.009 142.491 362.967 145.677 359.981 147.335C358.271 148.284 356.54 148.556 355.128 148.556C354.635 148.556 354.184 148.522 353.78 148.475L349.373 179.568L349.173 180.967C349.05 181.843 348.297 182.477 347.438 182.477C347.357 182.477 347.272 182.468 347.191 182.46C346.953 182.426 346.732 182.345 346.536 182.226L345.783 179.87L332.806 139.157C332.305 139.255 331.505 139.365 330.518 139.365C328.051 139.365 324.398 138.676 321.199 135.325C316.265 130.166 315.091 125.39 315.044 125.191C314.823 124.246 315.406 123.302 316.35 123.081C317.29 122.86 318.239 123.443 318.46 124.383C318.468 124.417 319.506 128.478 323.734 132.901C326.737 136.044 330.254 135.98 331.73 135.784L326.55 119.534C326.256 118.611 326.767 117.625 327.69 117.327C328.613 117.034 329.599 117.544 329.893 118.467L341.041 153.442C342.151 152.558 343.512 150.674 343.155 146.859C343.066 145.893 343.772 145.039 344.737 144.945C345.707 144.852 346.558 145.566 346.647 146.531C347.076 151.107 345.524 153.834 344.142 155.314C343.453 156.054 342.738 156.56 342.147 156.9L346.919 171.874L351.381 140.399C350.607 140.131 349.288 139.429 347.034 137.63C343.389 134.721 342.181 128.448 342.053 127.742C341.883 126.79 342.517 125.88 343.47 125.709C344.422 125.539 345.337 126.173 345.507 127.126C345.647 127.904 346.022 129.401 346.638 130.928C347.255 132.45 348.114 134.003 349.224 134.887C350.53 135.933 351.385 136.486 351.896 136.775L352.542 132.212C352.678 131.251 353.571 130.587 354.528 130.719C355.485 130.855 356.153 131.744 356.017 132.701L354.273 145C355.294 145.111 356.842 145.077 358.314 144.248C360.368 143.087 361.819 140.684 362.618 137.103C362.831 136.159 363.775 135.568 364.715 135.776C365.659 135.989 366.255 136.928 366.042 137.873Z" fill="white"/>
<path d="M327.362 119.219C328.74 119.172 329.821 118.015 329.77 116.637C329.723 115.263 328.566 114.183 327.188 114.23C325.81 114.277 324.729 115.434 324.78 116.807C324.827 118.185 325.984 119.265 327.362 119.219Z" fill="#F1503C"/>
<path d="M344.18 127.594C345.558 127.547 346.638 126.39 346.587 125.012C346.541 123.638 345.384 122.558 344.006 122.605C342.627 122.652 341.547 123.809 341.598 125.182C341.645 126.56 342.802 127.64 344.18 127.594Z" fill="#F1503C"/>
<path d="M354.494 132.889C355.872 132.842 356.953 131.685 356.902 130.307C356.855 128.933 355.698 127.853 354.32 127.9C352.942 127.947 351.861 129.103 351.913 130.477C351.959 131.855 353.116 132.935 354.494 132.889Z" fill="#F1503C"/>
<path d="M365.23 138.998C366.608 138.951 367.688 137.794 367.637 136.416C367.59 135.043 366.433 133.962 365.055 134.009C363.677 134.056 362.597 135.213 362.648 136.587C362.695 137.964 363.852 139.045 365.23 138.998Z" fill="#F1503C"/>
<path d="M344.137 148.265C345.516 148.219 346.596 147.062 346.545 145.684C346.498 144.31 345.341 143.23 343.963 143.277C342.585 143.324 341.505 144.48 341.556 145.854C341.602 147.232 342.759 148.312 344.137 148.265Z" fill="#F1503C"/>
<path d="M315.64 126.373C317.018 126.326 318.098 125.169 318.047 123.791C318.001 122.418 316.844 121.337 315.466 121.384C314.087 121.431 313.007 122.588 313.058 123.962C313.105 125.339 314.262 126.42 315.64 126.373Z" fill="#F1503C"/>
<path d="M325.516 196.085C329.093 185.985 340.905 180.949 351.904 184.841C362.899 188.736 368.913 200.079 365.336 210.184C361.755 220.284 349.224 226.208 338.225 222.317C327.23 218.426 321.935 206.186 325.516 196.085Z" fill="#1B1944"/>
<path d="M334.397 186.347C340.037 183.527 338.157 173.18 338.157 173.18L355.081 174.013C355.081 174.013 352.261 182.366 355.081 187.172C357.901 191.986 350.381 194.805 350.381 194.805L334.397 186.347Z" fill="#1B1944"/>
<path d="M221.232 146.822L321.492 144.258L300.477 217.726L202.318 224.139L221.232 146.822Z" fill="#1B1944"/>
<path d="M147.385 217.727L204.644 213.555L202.828 224.14L147.385 217.727Z" fill="white"/>
<path d="M289.66 50.1351C289.66 50.1351 293.701 95.1006 325.452 91.7748C357.204 88.4491 334.21 63.4593 334.21 63.4593L289.66 50.1309V50.1351Z" fill="#1B1944"/>
</g>
</svg>
