<svg width="285" height="220" viewBox="0 0 285 220" fill="none" xmlns="http://www.w3.org/2000/svg">
<rect width="285" height="220" rx="35" fill="#1B1944"/>
<path d="M40.96 55H38.458V42.238H46.522V44.596H40.942V47.746H45.91V50.032H40.96V55ZM48.6153 43.696C48.6153 42.994 49.1733 42.418 49.8753 42.418C50.5773 42.418 51.1533 42.994 51.1533 43.696C51.1533 44.398 50.5773 44.956 49.8753 44.956C49.1733 44.956 48.6153 44.398 48.6153 43.696ZM52.3953 43.696C52.3953 42.994 52.9353 42.418 53.6553 42.418C54.3573 42.418 54.9333 42.994 54.9333 43.696C54.9333 44.398 54.3573 44.956 53.6553 44.956C52.9353 44.956 52.3953 44.398 52.3953 43.696ZM51.7833 53.092C52.9533 53.092 54.0333 52.246 54.0333 50.572C54.0333 48.898 52.9533 48.052 51.7833 48.052C50.6133 48.052 49.5333 48.898 49.5333 50.572C49.5333 52.228 50.6133 53.092 51.7833 53.092ZM51.7833 45.874C54.4293 45.874 56.4273 47.836 56.4273 50.572C56.4273 53.29 54.4293 55.27 51.7833 55.27C49.1373 55.27 47.1393 53.29 47.1393 50.572C47.1393 47.836 49.1373 45.874 51.7833 45.874ZM63.7171 46.108V48.52C63.4471 48.466 63.2131 48.448 62.9971 48.448C61.7731 48.448 60.7111 49.042 60.7111 50.95V55H58.3171V46.144H60.6391V47.458C61.1791 46.288 62.4031 46.072 63.1591 46.072C63.3571 46.072 63.5371 46.09 63.7171 46.108ZM73.7552 41.968V53.398C73.7552 53.992 73.7912 54.64 73.8272 55H71.5412C71.5052 54.82 71.4512 54.388 71.4512 53.974C71.0552 54.676 70.1552 55.216 68.9672 55.216C66.4472 55.216 64.6472 53.236 64.6472 50.554C64.6472 47.962 66.3932 45.928 68.8952 45.928C70.4252 45.928 71.1452 46.558 71.3972 47.026V41.968H73.7552ZM67.0592 50.554C67.0592 52.138 67.9952 53.074 69.2552 53.074C70.4792 53.074 71.4332 52.138 71.4332 50.536C71.4332 48.952 70.4792 48.07 69.2552 48.07C68.0312 48.07 67.0592 48.97 67.0592 50.554ZM78.0982 49.564H82.0582C82.0222 48.682 81.4462 47.818 80.0782 47.818C78.8362 47.818 78.1522 48.754 78.0982 49.564ZM82.2922 51.868L84.2902 52.462C83.8402 53.992 82.4362 55.27 80.2582 55.27C77.8282 55.27 75.6862 53.524 75.6862 50.536C75.6862 47.71 77.7742 45.874 80.0422 45.874C82.7782 45.874 84.4162 47.62 84.4162 50.464C84.4162 50.806 84.3802 51.166 84.3802 51.202H78.0442C78.0982 52.372 79.0882 53.218 80.2762 53.218C81.3922 53.218 82.0042 52.66 82.2922 51.868ZM91.7014 46.108V48.52C91.4314 48.466 91.1974 48.448 90.9814 48.448C89.7574 48.448 88.6954 49.042 88.6954 50.95V55H86.3014V46.144H88.6234V47.458C89.1634 46.288 90.3874 46.072 91.1434 46.072C91.3414 46.072 91.5214 46.09 91.7014 46.108ZM97.8334 42.238V44.524L99.9214 43.822L100.515 45.586L98.3914 46.27L99.7234 48.07L98.2294 49.168L96.8614 47.35L95.5294 49.168L94.0354 48.052L95.3494 46.27L93.2254 45.586L93.8014 43.822L95.9074 44.524V42.238H97.8334ZM104.639 55H102.245V46.144H104.639V55ZM101.957 43.246C101.957 42.418 102.623 41.752 103.433 41.752C104.261 41.752 104.909 42.418 104.909 43.246C104.909 44.038 104.261 44.704 103.433 44.704C102.623 44.704 101.957 44.038 101.957 43.246ZM109.596 49.906V55H107.202V46.144H109.524V47.242C110.064 46.324 111.126 45.91 112.08 45.91C114.276 45.91 115.284 47.476 115.284 49.42V55H112.89V49.834C112.89 48.844 112.404 48.07 111.252 48.07C110.208 48.07 109.596 48.88 109.596 49.906ZM127.183 46.144H129.703L131.611 51.85L133.249 46.144H135.625L132.853 55H130.459L128.389 48.952L126.355 55H123.925L121.099 46.144H123.619L125.257 51.832L127.183 46.144ZM138.637 49.564H142.597C142.561 48.682 141.985 47.818 140.617 47.818C139.375 47.818 138.691 48.754 138.637 49.564ZM142.831 51.868L144.829 52.462C144.379 53.992 142.975 55.27 140.797 55.27C138.367 55.27 136.225 53.524 136.225 50.536C136.225 47.71 138.313 45.874 140.581 45.874C143.317 45.874 144.955 47.62 144.955 50.464C144.955 50.806 144.919 51.166 144.919 51.202H138.583C138.637 52.372 139.627 53.218 140.815 53.218C141.931 53.218 142.543 52.66 142.831 51.868ZM152.241 46.108V48.52C151.971 48.466 151.737 48.448 151.521 48.448C150.297 48.448 149.235 49.042 149.235 50.95V55H146.841V46.144H149.163V47.458C149.703 46.288 150.927 46.072 151.683 46.072C151.881 46.072 152.061 46.09 152.241 46.108ZM162.279 41.968V53.398C162.279 53.992 162.315 54.64 162.351 55H160.065C160.029 54.82 159.975 54.388 159.975 53.974C159.579 54.676 158.679 55.216 157.491 55.216C154.971 55.216 153.171 53.236 153.171 50.554C153.171 47.962 154.917 45.928 157.419 45.928C158.949 45.928 159.669 46.558 159.921 47.026V41.968H162.279ZM155.583 50.554C155.583 52.138 156.519 53.074 157.779 53.074C159.003 53.074 159.957 52.138 159.957 50.536C159.957 48.952 159.003 48.07 157.779 48.07C156.555 48.07 155.583 48.97 155.583 50.554ZM166.622 49.564H170.582C170.546 48.682 169.97 47.818 168.602 47.818C167.36 47.818 166.676 48.754 166.622 49.564ZM170.816 51.868L172.814 52.462C172.364 53.992 170.96 55.27 168.782 55.27C166.352 55.27 164.21 53.524 164.21 50.536C164.21 47.71 166.298 45.874 168.566 45.874C171.302 45.874 172.94 47.62 172.94 50.464C172.94 50.806 172.904 51.166 172.904 51.202H166.568C166.622 52.372 167.612 53.218 168.8 53.218C169.916 53.218 170.528 52.66 170.816 51.868ZM177.219 49.906V55H174.825V46.144H177.147V47.242C177.687 46.324 178.749 45.91 179.703 45.91C181.899 45.91 182.907 47.476 182.907 49.42V55H180.513V49.834C180.513 48.844 180.027 48.07 178.875 48.07C177.831 48.07 177.219 48.88 177.219 49.906Z" fill="#F3F2FF"/>
<mask id="mask0_2730_606" style="mask-type:alpha" maskUnits="userSpaceOnUse" x="0" y="0" width="285" height="220">
<rect width="285" height="220" rx="35" fill="#FCC4D7"/>
</mask>
<g mask="url(#mask0_2730_606)">
<mask id="mask1_2730_606" style="mask-type:luminance" maskUnits="userSpaceOnUse" x="49" y="-44" width="236" height="328">
<path d="M285 -44H49V283.422H285V-44Z" fill="white"/>
</mask>
<g mask="url(#mask1_2730_606)">
<path d="M110.758 162.343C110.758 162.343 105.68 149.968 100.858 139.025C96.0349 128.074 93.0723 123.604 93.0723 123.604L112.716 120.139L144.57 149.008L110.758 162.343Z" fill="#F0513D"/>
<path d="M116.781 147.275L158.123 160.258L118.259 124.894C118.259 124.894 120.921 131.779 120.546 137.847C120.171 143.915 116.781 147.275 116.781 147.275Z" fill="white"/>
<path d="M165.991 201.983L156.72 221.424C156.72 221.424 120.381 184.777 115.731 179.549C111.08 174.314 106.94 166.761 99.5973 168.786C92.2544 170.811 92.5844 174.434 88.0092 175.919C83.4339 177.404 79.6538 174.839 76.9986 174.441C74.3435 174.036 72.5509 173.729 71.4033 176.684C70.2558 179.639 69.3782 178.236 71.7783 179.144C74.1785 180.044 86.7866 186.427 88.8117 186.187C90.8443 185.954 97.3097 182.527 99.1023 182.849C100.895 183.157 129.726 226.524 135.217 234.362C140.714 242.215 153.855 260.381 166.613 254.493C173.206 251.448 175.456 244.097 178.006 238.997C180.564 233.897 189.782 206.52 189.782 206.52L165.976 201.983H165.991Z" fill="white"/>
<path d="M157.14 217.958C157.14 217.958 153.652 230.026 157.042 234.226" stroke="#FAD0DC" stroke-width="2.96" stroke-linecap="round"/>
<path d="M168.353 106.66C168.263 111.445 175.321 138.657 171.548 144.702C167.776 150.74 167.468 161.173 173.228 168.448C173.228 168.448 208.773 155.742 229.474 152.457C250.175 149.172 213.056 112.473 205.51 103.585C197.965 94.6968 169.148 66.6753 168.346 106.66" fill="#F0513D"/>
<path d="M170.971 109.368C173.184 123.521 176.252 131.629 190.787 135.424C205.323 139.212 204.041 140.652 205.166 143.42C206.283 146.195 214.616 171.239 214.616 171.239L233.112 161.856C233.112 161.856 225.979 131.727 225.837 126.784C225.702 121.841 235.632 122.299 233.172 103.57C230.712 84.8341 220.707 70.4109 197.23 76.6662C173.754 82.929 168.331 92.4845 170.971 109.368Z" fill="#FAD0DC"/>
<path d="M239.809 133.429C239.809 133.429 255.799 131.658 266.405 140.516C277.003 149.374 282.853 172.168 282.853 172.168L272.023 178.318L244.856 172.648L239.809 133.436V133.429Z" fill="#1A1943"/>
<path d="M171.549 90.0241C171.549 90.0241 177.939 80.5436 192.37 76.0434C194.455 75.3909 196.578 74.8808 198.7 74.5358C205.556 73.4558 207.048 73.6583 212.208 74.8283C219.889 76.6359 226.984 81.5712 232.34 91.0742C240.185 104.987 248.683 106.232 262.371 111.385C276.059 116.531 273.464 122.756 277.889 130.256L246.493 140.404L230.232 151.37C230.232 151.37 227.284 137.172 225.184 131.989C223.092 126.799 218.291 126.416 214.444 123.791C210.596 121.166 214.286 118.811 215.374 114.595C216.454 110.38 215.359 105.377 210.326 105.55C205.293 105.73 206.801 110.62 206.801 110.62C206.801 110.62 199.293 112.728 186.407 107.253C173.514 101.785 171.556 90.0316 171.556 90.0316" fill="#F0513D"/>
<path d="M214.091 149.57C220.128 149.57 227.636 141.102 227.636 141.102L230.329 145.205C230.329 145.205 243.86 138.094 250.528 139.092C255.583 139.857 261.516 139.325 266.728 142.902C268.393 144.042 269.984 145.602 271.446 147.755C277.506 156.65 278.721 164.481 282.854 196.605C286.987 228.722 299.423 314.151 251.66 262.338C198.617 204.795 198.355 195.885 198.355 195.885L194.252 216.684L157.41 209.191C157.41 209.191 164.363 190.185 169.943 172.529C175.516 154.873 192.309 149.413 196.802 149.315C201.295 149.218 207.82 151.168 207.82 151.168C207.82 151.168 205.48 144.927 206.845 146.862C207.76 148.145 211.675 149.578 214.091 149.578" fill="#1A1943"/>
<path d="M206.485 145.992C206.485 145.992 205.398 148.969 206.703 151.354C211.331 159.8 212.381 184.019 224.719 198.989C238.385 215.565 236.577 236.476 236.577 236.476C236.577 236.476 254.45 251.575 250.798 231.309C246.71 208.635 241.512 208.08 234.852 190.251C232.557 184.109 233.937 177.538 233.562 171.245C232.699 156.942 228.844 134.148 228.844 134.148C228.844 134.148 229.489 145.999 214.391 148.152C207.565 149.127 206.493 145.999 206.493 145.999" fill="#F0513D"/>
<path d="M242.899 59.8203L294.891 66.9307L290.069 98.0723L237.738 102.243C237.738 102.243 240.836 87.4818 241.871 77.2062C242.906 66.9307 242.906 59.8203 242.906 59.8203" fill="white"/>
</g>
<path d="M227.771 109.902L234.117 113.547L284.992 98.8459V79.3974L280.994 72.6846L227.771 109.902Z" fill="#6868AF"/>
<path d="M248.195 68.2362L284.992 72.7965V71.5514L248.345 67.0137L248.195 68.2362Z" fill="#6868AF"/>
<path d="M247.229 74.2294L284.993 78.9096V77.6646L247.379 73.0068L247.229 74.2294Z" fill="#6868AF"/>
<path d="M245.533 80.1845L285 84.3772V83.1321L245.661 78.9619L245.533 80.1845Z" fill="#6868AF"/>
<mask id="mask2_2730_606" style="mask-type:luminance" maskUnits="userSpaceOnUse" x="49" y="-44" width="236" height="328">
<path d="M285 -44H49V283.422H285V-44Z" fill="white"/>
</mask>
<g mask="url(#mask2_2730_606)">
<path d="M188.455 123.732C188.035 122.577 187.068 123.724 185.898 123.732C185.898 123.732 181.63 124.407 181.345 124.512C179.875 125.044 179.11 126.672 179.65 128.15C180.182 129.62 181.81 130.385 183.288 129.845C183.573 129.74 183.783 129.605 183.963 129.447C184.203 129.44 184.443 129.402 184.683 129.327V129.342L186.588 128.652L187.473 128.33L187.413 128.165C188.313 127.422 188.868 124.902 188.448 123.747" fill="#F0513D"/>
<path d="M247.191 151.716C240.449 145.551 235.693 130.91 235.693 130.91C235.693 130.91 245.384 141.096 250.552 143.398C255.862 145.761 253.927 157.882 247.191 151.709" fill="#1A1943"/>
</g>
<mask id="mask3_2730_606" style="mask-type:luminance" maskUnits="userSpaceOnUse" x="49" y="-44" width="236" height="328">
<path d="M285 -44H49V283.422H285V-44Z" fill="white"/>
</mask>
<g mask="url(#mask3_2730_606)">
<path d="M208.497 116.711C207.582 117.236 206.831 118.061 206.404 119.119C205.391 121.631 206.606 124.481 209.112 125.501C211.624 126.514 214.474 125.306 215.494 122.794C216.079 121.339 215.922 119.764 215.194 118.504" stroke="#1A1943" stroke-width="3.24" stroke-linecap="round"/>
</g>
<mask id="mask4_2730_606" style="mask-type:luminance" maskUnits="userSpaceOnUse" x="49" y="-44" width="236" height="328">
<path d="M285 -44H49V283.422H285V-44Z" fill="white"/>
</mask>
<g mask="url(#mask4_2730_606)">
<path d="M230.022 148.82C229.025 149.66 227.457 149.435 226.52 148.325C225.59 147.215 225.642 145.632 226.64 144.792C227.637 143.952 229.025 143.742 229.962 144.852C230.892 145.962 231.02 147.98 230.022 148.82Z" fill="#1A1943"/>
<path d="M227.638 153.95C226.64 154.79 225.073 154.565 224.143 153.455C223.213 152.345 223.265 150.762 224.263 149.922C225.26 149.082 226.648 148.872 227.585 149.982C228.516 151.092 228.643 153.11 227.645 153.95" fill="#1A1943"/>
<path d="M222.816 157.941C221.818 158.781 220.251 158.556 219.321 157.446C218.39 156.336 218.443 154.753 219.441 153.913C220.438 153.073 221.826 152.856 222.763 153.973C223.693 155.083 223.821 157.108 222.823 157.941" fill="#1A1943"/>
<path d="M216.574 158.421C215.577 159.261 214.009 159.036 213.079 157.925C212.149 156.815 212.194 155.233 213.199 154.393C214.197 153.553 215.584 153.343 216.522 154.453C217.452 155.563 217.579 157.58 216.582 158.421" fill="#1A1943"/>
<path d="M210.859 157.086C209.861 157.926 208.294 157.701 207.364 156.591C206.433 155.48 206.486 153.898 207.484 153.058C208.481 152.218 209.869 152.008 210.806 153.118C211.736 154.228 211.864 156.246 210.866 157.086" fill="#1A1943"/>
<path d="M169.248 112.361C170.568 112.946 171.43 112.053 172.015 110.733C172.6 109.413 172.69 108.168 171.37 107.583C170.05 106.998 168.505 107.583 167.92 108.911C167.335 110.231 167.92 111.776 169.248 112.361Z" fill="white"/>
<path d="M170.838 113.066C169.518 112.481 169.608 111.236 170.193 109.916C170.778 108.596 171.64 107.696 172.96 108.288C174.28 108.873 174.873 110.419 174.288 111.739C173.703 113.059 172.15 113.651 170.838 113.066Z" fill="white"/>
</g>
<path d="M171.257 107.518L169.131 112.294L171.632 113.407L173.758 108.632L171.257 107.518Z" fill="white"/>
<mask id="mask5_2730_606" style="mask-type:luminance" maskUnits="userSpaceOnUse" x="49" y="-44" width="236" height="328">
<path d="M285 -44H49V283.422H285V-44Z" fill="white"/>
</mask>
<g mask="url(#mask5_2730_606)">
<path d="M167.882 111.753C169.202 112.338 170.065 111.446 170.65 110.126C171.235 108.806 171.325 107.561 170.005 106.976C168.685 106.391 167.14 106.976 166.555 108.303C165.97 109.623 166.555 111.168 167.882 111.753Z" fill="#1A1943"/>
<path d="M193.248 114.138C193.773 109.165 191.156 104.822 187.405 104.425C183.655 104.027 180.198 107.74 179.672 112.713C179.147 117.685 181.765 122.028 185.515 122.426C189.265 122.816 192.723 119.11 193.248 114.138Z" stroke="white" stroke-width="2.84"/>
<path d="M176.447 111.596C176.972 106.623 174.355 102.28 170.605 101.883C166.854 101.485 163.397 105.198 162.872 110.171C162.347 115.143 164.964 119.486 168.714 119.884C172.465 120.274 175.922 116.568 176.447 111.596Z" stroke="white" stroke-width="2.84"/>
<path d="M183.7 115.158C185.11 115.458 185.77 114.401 186.07 112.991C186.37 111.581 186.198 110.343 184.788 110.043C183.378 109.743 181.983 110.643 181.683 112.061C181.383 113.471 182.283 114.866 183.7 115.166" fill="white"/>
<path d="M185.411 115.519C184.001 115.219 183.829 113.989 184.129 112.571C184.429 111.161 185.089 110.104 186.499 110.404C187.909 110.704 188.816 112.091 188.516 113.509C188.216 114.919 186.829 115.826 185.411 115.526" fill="white"/>
</g>
<path d="M184.669 110.017L183.582 115.131L186.26 115.7L187.347 110.587L184.669 110.017Z" fill="white"/>
<mask id="mask6_2730_606" style="mask-type:luminance" maskUnits="userSpaceOnUse" x="49" y="-44" width="236" height="328">
<path d="M285 -44H49V283.422H285V-44Z" fill="white"/>
</mask>
<g mask="url(#mask6_2730_606)">
<path d="M182.235 114.852C183.645 115.152 184.306 114.094 184.606 112.684C184.906 111.274 184.733 110.036 183.323 109.736C181.913 109.436 180.518 110.336 180.218 111.754C179.918 113.164 180.818 114.559 182.235 114.859" fill="#1A1943"/>
<path d="M279.299 173.182C279.299 173.182 283.169 186 284.31 193.366C285.457 200.716 284.835 207.872 280.754 210.579C276.667 213.287 273.261 218.47 254.75 206.544C236.24 194.633 186.602 159.157 186.602 159.157C186.602 159.157 184.074 143.788 189.962 147.066C195.85 150.336 250.58 174.315 250.58 174.315L260.233 178.695L279.299 173.19V173.182Z" fill="white"/>
<path d="M199.381 147.771C199.381 147.771 200.048 145.716 196.306 142.933C192.563 140.143 188.22 140.413 188.22 140.413C188.22 140.413 187.71 132.043 187.583 129.928C187.455 127.798 183.45 127.16 179.865 133.4C176.28 139.641 174.075 148.949 181.23 155.669C188.385 162.382 191.198 162.96 197.498 162.194C203.799 161.429 199.396 147.771 199.396 147.771" fill="white"/>
<path d="M85.4734 180.345C90.4536 180.735 94.7364 178.013 95.0289 174.255C95.3214 170.497 91.5262 167.137 86.5459 166.747C81.5657 166.357 77.283 169.08 76.9904 172.837C76.6979 176.595 80.4931 179.955 85.4734 180.345Z" fill="white"/>
</g>
<path d="M76.9832 173.781L76.9082 170.924L94.9841 171.561L95.0667 174.554L76.9832 173.781Z" fill="white"/>
<mask id="mask7_2730_606" style="mask-type:luminance" maskUnits="userSpaceOnUse" x="49" y="-44" width="236" height="328">
<path d="M285 -44H49V283.422H285V-44Z" fill="white"/>
</mask>
<g mask="url(#mask7_2730_606)">
<path d="M85.3992 177.54C90.3794 177.93 94.6622 175.207 94.9547 171.449C95.2472 167.692 91.452 164.331 86.4717 163.941C81.4915 163.551 77.2087 166.274 76.9162 170.032C76.6237 173.789 80.4189 177.15 85.3992 177.54Z" fill="#F0513D"/>
<path d="M86.157 175.755C91.1372 176.145 95.42 173.422 95.7125 169.664C96.005 165.907 92.2098 162.546 87.2295 162.156C82.2493 161.766 77.9666 164.489 77.674 168.247C77.3815 172.004 81.1767 175.365 86.157 175.755Z" fill="white"/>
</g>
<path d="M77.6668 169.192L77.5918 166.334L95.6752 166.972L95.7502 169.964L77.6668 169.192Z" fill="white"/>
<mask id="mask8_2730_606" style="mask-type:luminance" maskUnits="userSpaceOnUse" x="49" y="-44" width="236" height="328">
<path d="M285 -44H49V283.422H285V-44Z" fill="white"/>
</mask>
<g mask="url(#mask8_2730_606)">
<path d="M86.0828 172.95C91.063 173.34 95.3457 170.617 95.6383 166.86C95.9308 163.102 92.1356 159.742 87.1553 159.352C82.1751 158.962 77.8923 161.684 77.5998 165.442C77.3073 169.2 81.1025 172.56 86.0828 172.95Z" fill="#F0513D"/>
<path d="M86.9226 170.639C91.9029 171.029 96.1856 168.307 96.4781 164.549C96.7706 160.791 92.9754 157.431 87.9952 157.041C83.0149 156.651 78.7322 159.374 78.4397 163.131C78.1471 166.889 81.9423 170.249 86.9226 170.639Z" fill="white"/>
</g>
<path d="M78.4324 164.076L78.3574 161.219L96.4334 161.856L96.5159 164.856L78.4324 164.076Z" fill="white"/>
<mask id="mask9_2730_606" style="mask-type:luminance" maskUnits="userSpaceOnUse" x="49" y="-44" width="236" height="328">
<path d="M285 -44H49V283.422H285V-44Z" fill="white"/>
</mask>
<g mask="url(#mask9_2730_606)">
<path d="M86.8464 167.833C91.8267 168.223 96.1094 165.5 96.4019 161.742C96.6944 157.985 92.8992 154.624 87.919 154.234C82.9387 153.844 78.656 156.567 78.3635 160.325C78.071 164.082 81.8662 167.443 86.8464 167.833Z" fill="#F0513D"/>
<path d="M87.8132 164.675C92.7935 165.065 97.0762 162.343 97.3687 158.585C97.6612 154.827 93.866 151.467 88.8858 151.077C83.9055 150.687 79.6228 153.41 79.3303 157.168C79.0378 160.925 82.833 164.285 87.8132 164.675Z" fill="white"/>
</g>
<path d="M79.325 158.114L79.25 155.249L97.3259 155.894L97.4084 158.887L79.325 158.114Z" fill="white"/>
<mask id="mask10_2730_606" style="mask-type:luminance" maskUnits="userSpaceOnUse" x="49" y="-44" width="236" height="328">
<path d="M285 -44H49V283.422H285V-44Z" fill="white"/>
</mask>
<g mask="url(#mask10_2730_606)">
<path d="M87.739 161.871C92.7193 162.261 97.002 159.538 97.2945 155.78C97.587 152.023 93.7918 148.663 88.8116 148.273C83.8313 147.883 79.5486 150.605 79.2561 154.363C78.9636 158.121 82.7588 161.481 87.739 161.871Z" fill="#F0513D"/>
<path d="M88.5867 159.501C93.5669 159.891 97.8496 157.168 98.1422 153.41C98.4347 149.653 94.6395 146.292 89.6592 145.902C84.679 145.512 80.3962 148.235 80.1037 151.993C79.8112 155.75 83.6064 159.111 88.5867 159.501Z" fill="white"/>
</g>
<path d="M80.0965 152.938L80.0215 150.08L98.0974 150.718L98.1799 153.71L80.0965 152.938Z" fill="white"/>
<mask id="mask11_2730_606" style="mask-type:luminance" maskUnits="userSpaceOnUse" x="49" y="-44" width="236" height="328">
<path d="M285 -44H49V283.422H285V-44Z" fill="white"/>
</mask>
<g mask="url(#mask11_2730_606)">
<path d="M88.5125 156.696C93.4927 157.086 97.7754 154.363 98.0679 150.606C98.3605 146.848 94.5653 143.488 89.585 143.098C84.6047 142.708 80.322 145.43 80.0295 149.188C79.737 152.946 83.5322 156.306 88.5125 156.696Z" fill="#F0513D"/>
<path d="M89.4949 153.425C94.4751 153.815 98.7579 151.093 99.0504 147.335C99.3429 143.577 95.5477 140.217 90.5674 139.827C85.5872 139.437 81.3044 142.16 81.0119 145.918C80.7194 149.675 84.5146 153.035 89.4949 153.425Z" fill="white"/>
</g>
<path d="M81.0047 146.864L80.9297 144.006L99.0056 144.643L99.0881 147.636L81.0047 146.864Z" fill="white"/>
<mask id="mask12_2730_606" style="mask-type:luminance" maskUnits="userSpaceOnUse" x="49" y="-44" width="236" height="328">
<path d="M285 -44H49V283.422H285V-44Z" fill="white"/>
</mask>
<g mask="url(#mask12_2730_606)">
<path d="M89.4206 150.62C94.4009 151.01 98.6836 148.287 98.9761 144.529C99.2687 140.772 95.4735 137.412 90.4932 137.022C85.5129 136.632 81.2302 139.354 80.9377 143.112C80.6452 146.87 84.4404 150.23 89.4206 150.62Z" fill="#F0513D"/>
<path d="M90.2449 148.422C95.2251 148.813 99.5079 146.09 99.8004 142.332C100.093 138.574 96.2977 135.214 91.3174 134.824C86.3372 134.434 82.0544 137.157 81.7619 140.915C81.4694 144.672 85.2646 148.032 90.2449 148.422Z" fill="white"/>
</g>
<path d="M81.7547 141.853L81.6797 138.995L99.7556 139.64L99.8381 142.633L81.7547 141.853Z" fill="white"/>
<mask id="mask13_2730_606" style="mask-type:luminance" maskUnits="userSpaceOnUse" x="49" y="-44" width="236" height="328">
<path d="M285 -44H49V283.422H285V-44Z" fill="white"/>
</mask>
<g mask="url(#mask13_2730_606)">
<path d="M90.1706 145.617C95.1509 146.007 99.4336 143.284 99.7261 139.527C100.019 135.769 96.2235 132.409 91.2432 132.019C86.2629 131.629 81.9802 134.351 81.6877 138.109C81.3952 141.867 85.1904 145.227 90.1706 145.617Z" fill="#F0513D"/>
<path d="M91.071 142.909C96.0513 143.299 100.334 140.576 100.627 136.819C100.919 133.061 97.1239 129.701 92.1436 129.311C87.1633 128.921 82.8806 131.643 82.5881 135.401C82.2956 139.159 86.0908 142.519 91.071 142.909Z" fill="white"/>
</g>
<path d="M82.5789 136.348L82.5039 133.482L100.58 134.127L100.662 137.12L82.5789 136.348Z" fill="white"/>
<mask id="mask14_2730_606" style="mask-type:luminance" maskUnits="userSpaceOnUse" x="49" y="-44" width="236" height="328">
<path d="M285 -44H49V283.422H285V-44Z" fill="white"/>
</mask>
<g mask="url(#mask14_2730_606)">
<path d="M90.9949 140.105C95.9751 140.495 100.258 137.772 100.55 134.015C100.843 130.257 97.0477 126.897 92.0674 126.507C87.0872 126.117 82.8044 128.84 82.5119 132.597C82.2194 136.355 86.0146 139.715 90.9949 140.105Z" fill="#F0513D"/>
<path d="M91.7527 138.32C96.7329 138.71 101.016 135.987 101.308 132.23C101.601 128.472 97.8055 125.112 92.8252 124.722C87.845 124.332 83.5623 127.054 83.2697 130.812C82.9772 134.57 86.7724 137.93 91.7527 138.32Z" fill="white"/>
</g>
<path d="M83.2625 131.749L83.1875 128.892L101.271 129.537L101.346 132.529L83.2625 131.749Z" fill="white"/>
<mask id="mask15_2730_606" style="mask-type:luminance" maskUnits="userSpaceOnUse" x="49" y="-44" width="236" height="328">
<path d="M285 -44H49V283.422H285V-44Z" fill="white"/>
</mask>
<g mask="url(#mask15_2730_606)">
<path d="M91.6765 135.515C96.6568 135.905 100.939 133.183 101.232 129.425C101.525 125.667 97.7293 122.307 92.7491 121.917C87.7688 121.527 83.4861 124.25 83.1936 128.007C82.9011 131.765 86.6963 135.125 91.6765 135.515Z" fill="#F0513D"/>
<path d="M92.5164 133.205C97.4966 133.595 101.779 130.872 102.072 127.114C102.364 123.357 98.5692 119.997 93.5889 119.607C88.6087 119.216 84.3259 121.939 84.0334 125.697C83.7409 129.455 87.5361 132.815 92.5164 133.205Z" fill="white"/>
</g>
<path d="M84.0262 126.642L83.9512 123.784L102.027 124.422L102.11 127.414L84.0262 126.642Z" fill="white"/>
<mask id="mask16_2730_606" style="mask-type:luminance" maskUnits="userSpaceOnUse" x="49" y="-44" width="236" height="328">
<path d="M285 -44H49V283.422H285V-44Z" fill="white"/>
</mask>
<g mask="url(#mask16_2730_606)">
<path d="M92.4421 130.399C97.4224 130.789 101.705 128.066 101.998 124.309C102.29 120.551 98.4949 117.191 93.5147 116.801C88.5344 116.411 84.2517 119.133 83.9592 122.891C83.6667 126.649 87.4619 130.009 92.4421 130.399Z" fill="#F0513D"/>
<path d="M93.4089 127.234C98.3892 127.624 102.672 124.901 102.964 121.144C103.257 117.386 99.4617 114.026 94.4815 113.636C89.5012 113.246 85.2185 115.968 84.926 119.726C84.6335 123.484 88.4287 126.844 93.4089 127.234Z" fill="white"/>
</g>
<path d="M84.9188 120.672L84.8438 117.814L102.92 118.452L103.002 121.452L84.9188 120.672Z" fill="white"/>
<mask id="mask17_2730_606" style="mask-type:luminance" maskUnits="userSpaceOnUse" x="49" y="-44" width="236" height="328">
<path d="M285 -44H49V283.422H285V-44Z" fill="white"/>
</mask>
<g mask="url(#mask17_2730_606)">
<path d="M93.3347 124.429C98.315 124.819 102.598 122.097 102.89 118.339C103.183 114.581 99.3875 111.221 94.4073 110.831C89.427 110.441 85.1443 113.164 84.8518 116.921C84.5593 120.679 88.3545 124.039 93.3347 124.429Z" fill="#F0513D"/>
<path d="M94.1824 122.066C99.1626 122.456 103.445 119.733 103.738 115.976C104.03 112.218 100.235 108.858 95.2549 108.468C90.2747 108.078 85.9919 110.8 85.6994 114.558C85.4069 118.316 89.2021 121.676 94.1824 122.066Z" fill="white"/>
</g>
<path d="M85.6922 115.496L85.6172 112.639L103.693 113.276L103.776 116.276L85.6922 115.496Z" fill="white"/>
<mask id="mask18_2730_606" style="mask-type:luminance" maskUnits="userSpaceOnUse" x="49" y="-44" width="236" height="328">
<path d="M285 -44H49V283.422H285V-44Z" fill="white"/>
</mask>
<g mask="url(#mask18_2730_606)">
<path d="M94.1081 119.262C99.0884 119.652 103.371 116.93 103.664 113.172C103.956 109.414 100.161 106.054 95.1807 105.664C90.2004 105.274 85.9177 107.997 85.6252 111.754C85.3327 115.512 89.1279 118.872 94.1081 119.262Z" fill="#F0513D"/>
<path d="M95.0906 115.992C100.071 116.382 104.354 113.659 104.646 109.902C104.939 106.144 101.143 102.784 96.1631 102.394C91.1829 102.004 86.9001 104.726 86.6076 108.484C86.3151 112.242 90.1103 115.602 95.0906 115.992Z" fill="white"/>
</g>
<path d="M86.5984 109.429L86.5234 106.563L104.599 107.209L104.682 110.201L86.5984 109.429Z" fill="white"/>
<mask id="mask19_2730_606" style="mask-type:luminance" maskUnits="userSpaceOnUse" x="49" y="-44" width="236" height="328">
<path d="M285 -44H49V283.422H285V-44Z" fill="white"/>
</mask>
<g mask="url(#mask19_2730_606)">
<path d="M95.0144 113.186C99.9947 113.576 104.277 110.854 104.57 107.096C104.862 103.338 101.067 99.978 96.087 99.588C91.1067 99.1979 86.824 101.921 86.5315 105.678C86.2389 109.436 90.0341 112.796 95.0144 113.186Z" fill="#F0513D"/>
<path d="M95.8406 110.981C100.821 111.371 105.104 108.648 105.396 104.891C105.689 101.133 101.893 97.7729 96.9131 97.3829C91.9329 96.9929 87.6501 99.7155 87.3576 103.473C87.0651 107.231 90.8603 110.591 95.8406 110.981Z" fill="white"/>
</g>
<path d="M87.3484 104.418L87.2734 101.561L105.349 102.198L105.432 105.198L87.3484 104.418Z" fill="white"/>
<mask id="mask20_2730_606" style="mask-type:luminance" maskUnits="userSpaceOnUse" x="49" y="-44" width="236" height="328">
<path d="M285 -44H49V283.422H285V-44Z" fill="white"/>
</mask>
<g mask="url(#mask20_2730_606)">
<path d="M95.7644 108.175C100.745 108.565 105.027 105.843 105.32 102.085C105.612 98.3274 101.817 94.9672 96.837 94.5772C91.8567 94.1872 87.574 96.9098 87.2815 100.668C86.9889 104.425 90.7841 107.785 95.7644 108.175Z" fill="#F0513D"/>
<path d="M92.3075 101.898C97.2803 101.418 101.023 97.9904 100.663 94.2402C100.303 90.49 95.9752 87.8348 91.0024 88.3149C86.0297 88.7949 82.287 92.2226 82.647 95.9728C83.007 99.723 87.3347 102.378 92.3075 101.898Z" fill="white"/>
</g>
<path d="M82.8044 96.9031L82.2344 94.1054L100.145 91.5928L100.745 94.5329L82.8044 96.9031Z" fill="white"/>
<mask id="mask21_2730_606" style="mask-type:luminance" maskUnits="userSpaceOnUse" x="49" y="-44" width="236" height="328">
<path d="M285 -44H49V283.422H285V-44Z" fill="white"/>
</mask>
<g mask="url(#mask21_2730_606)">
<path d="M91.745 99.1451C96.7178 98.6651 100.46 95.2374 100.1 91.4872C99.7404 87.737 95.4127 85.0819 90.4399 85.5619C85.4672 86.042 81.7245 89.4696 82.0845 93.2198C82.4445 96.97 86.7722 99.6252 91.745 99.1451Z" fill="#F0513D"/>
<path d="M196.075 189.082C196.075 189.082 194.642 212.813 204.835 217.779C215.036 222.744 213.371 217.951 217.076 223.554C220.781 229.157 218.771 242.35 210.588 253.128C202.405 263.898 233.974 264.821 233.974 264.821L215.433 196.605L196.082 189.082H196.075Z" fill="#1A1943"/>
</g>
<path d="M279.022 149.136L284.992 152.519V132.23L266.084 121.527L279.022 149.136Z" fill="#6868AF"/>
<path d="M277.604 151.648L284.999 155.833V135.545L264.658 124.039L277.604 151.648Z" fill="#6868AF"/>
<path d="M275.925 154.618L285 159.749V139.46L262.986 127.002L275.925 154.618Z" fill="#6868AF"/>
<path d="M274.282 157.521L285 163.581V143.293L261.344 129.912L274.282 157.521Z" fill="#6868AF"/>
<path d="M279.066 143.127L284.999 155.45V132.642L279.066 143.127Z" fill="white"/>
<path d="M261.23 130.099L284.999 143.54V140.96L262.341 128.142L261.23 130.099Z" fill="white"/>
<path d="M263.211 126.604L285 138.927V136.347L264.321 124.646L263.211 126.604Z" fill="white"/>
<path d="M264.975 123.485L285.001 134.811V132.23L266.085 121.527L264.975 123.485Z" fill="white"/>
<path d="M148.41 196.252L140.564 216.983L174.631 195.285L182.477 174.554L148.41 196.252Z" fill="#6868AF"/>
<path d="M147.248 194.423L139.402 215.154L173.462 193.456L181.315 172.725L147.248 194.423Z" fill="#6868AF"/>
<path d="M145.867 192.263L138.021 213.002L172.088 191.296L179.934 170.564L145.867 192.263Z" fill="#6868AF"/>
<path d="M144.525 190.148L136.68 210.886L170.739 189.18L178.592 168.449L144.525 190.148Z" fill="#6868AF"/>
<path d="M153.78 208.568L148.77 200.7L155.767 182.774L162.93 178.214L156.067 196.057L161.078 203.918L153.78 208.568Z" fill="white"/>
<path d="M170.945 188.856L136.58 210.74L137.487 212.164L171.852 190.279L170.945 188.856Z" fill="white"/>
<path d="M172.572 191.411L138.207 213.296L139.114 214.719L173.479 192.835L172.572 191.411Z" fill="white"/>
<path d="M174.016 193.683L139.65 215.567L140.557 216.991L174.922 195.106L174.016 193.683Z" fill="white"/>
<path d="M170.949 188.857L178.63 168.509L179.552 169.514L171.849 190.267L170.949 188.857Z" fill="white"/>
<path d="M172.592 191.431L180.265 171.082L181.187 172.087L173.484 192.841L172.592 191.431Z" fill="white"/>
<path d="M174.092 193.786L181.765 173.438L182.687 174.443L174.992 195.196L174.092 193.786Z" fill="white"/>
<path d="M79.9608 203.333L65.5 205.178L88.6237 218.259L103.084 216.414L79.9608 203.333Z" fill="#6868AF"/>
<path d="M80.6658 202.096L66.2051 203.941L89.3213 217.022L103.79 215.176L80.6658 202.096Z" fill="#6868AF"/>
<path d="M81.4995 200.626L67.0312 202.471L90.155 215.552L104.616 213.707L81.4995 200.626Z" fill="#6868AF"/>
<path d="M82.3084 199.193L67.8477 201.038L90.9639 214.119L105.432 212.274L82.3084 199.193Z" fill="#6868AF"/>
<path d="M74.4707 210.257L77.4934 204.916L90.064 203.446L94.9243 206.199L82.4436 207.714L79.421 213.054L74.4707 210.257Z" fill="white"/>
<path d="M67.9083 200.918L67.3613 201.884L90.6748 215.085L91.2217 214.119L67.9083 200.918Z" fill="white"/>
<path d="M66.9298 202.657L66.3828 203.623L89.6963 216.824L90.2432 215.858L66.9298 202.657Z" fill="white"/>
<path d="M66.0528 204.193L65.5059 205.159L88.8193 218.36L89.3663 217.394L66.0528 204.193Z" fill="white"/>
<path d="M91.2197 214.142L105.41 212.312L105.11 213.159L90.6797 215.094L91.2197 214.142Z" fill="white"/>
<path d="M90.2295 215.881L104.42 214.059L104.12 214.906L89.6895 216.841L90.2295 215.881Z" fill="white"/>
<path d="M89.3213 217.487L103.512 215.657L103.212 216.505L88.7812 218.44L89.3213 217.487Z" fill="white"/>
<path d="M159.639 202.868L194.373 210.429" stroke="white" stroke-width="3.65" stroke-linecap="round"/>
<mask id="mask22_2730_606" style="mask-type:luminance" maskUnits="userSpaceOnUse" x="49" y="-44" width="236" height="328">
<path d="M285 -44H49V283.422H285V-44Z" fill="white"/>
</mask>
<g mask="url(#mask22_2730_606)">
<path d="M253.139 174.951L280.658 165.381" stroke="white" stroke-width="3.65" stroke-linecap="round"/>
</g>
</g>
</svg>
