<svg width="31" height="31" viewBox="0 0 31 31" fill="none" xmlns="http://www.w3.org/2000/svg">
<path fill-rule="evenodd" clip-rule="evenodd" d="M2.41335 12.912C2.24895 13.7486 2.16279 14.6131 2.16279 15.4978C2.16279 15.8243 2.17452 16.148 2.19758 16.4685C2.2279 16.4932 2.25979 16.5189 2.29319 16.5456C2.6106 16.7994 3.0581 17.1369 3.57852 17.4726C4.67076 18.177 5.88536 18.7416 6.84884 18.7416C7.47692 18.7416 8.2385 18.4984 9.03753 18.0961C9.52305 17.8517 9.98708 17.5667 10.3968 17.2889C10.2 16.7283 10.093 16.1256 10.093 15.4978C10.093 12.5121 12.5138 10.0916 15.5 10.0916C18.4862 10.0916 20.907 12.5121 20.907 15.4978C20.907 16.5928 20.5814 17.6117 20.0219 18.463C20.0903 18.5002 20.1621 18.539 20.2374 18.5797C20.2659 18.5951 20.2949 18.6107 20.3244 18.6266C20.7459 18.8545 21.2862 19.1489 21.7376 19.5152C22.6903 19.359 23.6642 19.5046 24.4626 20.01C24.7414 19.4911 25.1443 19.0246 25.6402 18.6579C26.5087 18.0157 27.6113 17.7291 28.62 17.9088C28.7626 17.1274 28.8372 16.3217 28.8372 15.4978C28.8372 14.8441 28.7902 14.2013 28.6993 13.5727L26.3072 15.6791C25.859 16.0737 25.1757 16.0304 24.781 15.5823C24.3862 15.1341 24.4296 14.4509 24.8778 14.0562L27.2973 11.9257C27.5776 11.6789 27.9498 11.6034 28.2859 11.691C27.9525 10.5701 27.4758 9.51101 26.877 8.53489L26.3577 9.0541C25.9354 9.47635 25.2507 9.47635 24.8284 9.0541C24.406 8.63185 24.406 7.94724 24.8284 7.52499L25.5838 6.76962C23.1383 3.94757 19.5277 2.16249 15.5 2.16249C12.9478 2.16249 10.563 2.87926 8.53607 4.12245L9.05536 4.64167C9.47767 5.06392 9.47767 5.74853 9.05536 6.17078C8.63305 6.59303 7.94835 6.59303 7.52604 6.17078L6.77056 5.41541C5.32105 6.67116 4.14508 8.23418 3.34399 10.0031C3.93617 9.97534 4.4412 10.43 4.47424 11.0231L4.58766 13.0587C4.62088 13.655 4.16441 14.1652 3.56809 14.1984C2.97178 14.2317 2.46144 13.7752 2.42822 13.179L2.41335 12.912ZM19.4068 20.5892C19.3705 20.5694 19.3335 20.5493 19.2958 20.5289C19.2462 20.5021 19.1944 20.4744 19.141 20.4457C18.9196 20.327 18.6695 20.1928 18.424 20.0461C17.581 20.5891 16.5773 20.9041 15.5 20.9041C13.9202 20.9041 12.4986 20.2266 11.51 19.1464C11.0622 19.4453 10.5528 19.7544 10.0102 20.0276C9.08564 20.493 7.96828 20.9041 6.84884 20.9041C5.38886 20.9041 3.89803 20.2009 2.78163 19.5247C4.41524 24.6876 9.10657 28.4915 14.7305 28.8114C14.6582 27.6381 15.1684 26.4011 16.218 25.6249C16.7166 25.2563 17.2799 25.0086 17.8559 24.8948C17.4375 23.3658 18.1323 21.6609 19.4068 20.5892ZM0 15.4978C0 6.93862 6.93959 0 15.5 0C24.0604 0 31 6.93862 31 15.4978C31 16.9555 30.7984 18.3678 30.421 19.7076C30.3211 20.0624 30.0474 20.3418 29.6947 20.449C29.3421 20.5562 28.9591 20.4765 28.6786 20.2374C28.3699 19.9743 27.6424 19.867 26.9262 20.3965C26.3318 20.8361 26.1397 21.4417 26.206 21.8374C26.2636 22.1821 26.1512 22.5333 25.9041 22.7804L25.7578 22.9267C25.5352 23.1492 25.2267 23.2637 24.9128 23.2404C24.599 23.217 24.3108 23.0581 24.1237 22.805L23.6414 22.153C23.2154 21.577 22.0525 21.3107 20.9291 22.1414C19.8057 22.9721 19.7198 24.1618 20.1458 24.7378L20.413 25.099C20.7313 25.5294 20.6868 26.1279 20.3082 26.5064L20.041 26.7736C19.756 27.0586 19.336 27.1614 18.9515 27.0403C18.5787 26.9229 18.019 26.9828 17.504 27.3636C16.8017 27.883 16.7543 28.8172 17.0904 29.2715C17.3279 29.5926 17.369 30.0184 17.1974 30.379C17.0258 30.7396 16.6694 30.9763 16.2704 30.9946C16.0874 31.0029 15.8478 30.9997 15.6695 30.9974C15.6022 30.9965 15.5436 30.9957 15.5 30.9957C6.93959 30.9957 0 24.0571 0 15.4978ZM13.2935 3.20001C13.7158 2.77776 14.4005 2.77776 14.8228 3.20001L16.2647 4.64167C16.687 5.06392 16.687 5.74853 16.2647 6.17078C15.8424 6.59303 15.1576 6.59303 14.7353 6.17078L13.2935 4.72912C12.8712 4.30687 12.8712 3.62226 13.2935 3.20001ZM21.9163 4.54123C22.3941 4.89952 22.4909 5.57725 22.1326 6.05497L19.9698 8.93829C19.6114 9.41602 18.9336 9.51283 18.4558 9.15454C17.978 8.79625 17.8812 8.11852 18.2395 7.6408L20.4023 4.75748C20.7607 4.27975 21.4385 4.18294 21.9163 4.54123ZM14.3818 8.0097C14.5363 8.58651 14.194 9.17939 13.6171 9.33395L11.6475 9.86163C11.0706 10.0162 10.4776 9.67388 10.323 9.09708C10.1685 8.52027 10.5108 7.92738 11.0877 7.77283L13.0573 7.24514C13.6342 7.09059 14.2272 7.43289 14.3818 8.0097ZM6.70012 8.53987C7.24382 8.29276 7.88493 8.53313 8.13208 9.07676L8.97589 10.9328C9.22304 11.4764 8.98263 12.1175 8.43893 12.3646C7.89523 12.6117 7.25412 12.3713 7.00697 11.8277L6.16316 9.97163C5.91601 9.42801 6.15642 8.78699 6.70012 8.53987ZM22.1535 10.0591C22.7501 10.031 23.2564 10.4919 23.2845 11.0884L23.3802 13.1249C23.4082 13.7214 22.9473 14.2277 22.3508 14.2558C21.7542 14.2838 21.2478 13.823 21.2198 13.2265L21.1241 11.1899C21.096 10.5934 21.5569 10.0871 22.1535 10.0591ZM15.5 12.2541C13.7083 12.2541 12.2558 13.7064 12.2558 15.4978C12.2558 17.2893 13.7083 18.7416 15.5 18.7416C17.2917 18.7416 18.7442 17.2893 18.7442 15.4978C18.7442 13.7064 17.2917 12.2541 15.5 12.2541ZM8.20844 13.9045C8.69039 14.2572 8.79514 14.9337 8.44242 15.4156L7.23812 17.0608C6.8854 17.5427 6.20876 17.6475 5.72681 17.2948C5.24486 16.9421 5.1401 16.2656 5.49283 15.7837L6.69712 14.1384C7.04985 13.6565 7.72649 13.5518 8.20844 13.9045Z" fill="#1B1944"/>
</svg>
