<svg width="174" height="171" viewBox="0 0 174 171" fill="none" xmlns="http://www.w3.org/2000/svg">
<g clip-path="url(#clip0_1692_3632)">
<path d="M166.195 78.9231C166.195 86.187 165.21 93.2209 163.37 99.9001C154.162 133.306 123.505 157.846 87.1036 157.846C45.5236 157.846 11.4383 125.827 8.25559 85.1525C8.09533 83.096 8.0127 81.0195 8.0127 78.9231C8.0127 62.124 13.2712 46.5517 22.2383 33.7556C36.5365 13.3483 60.2575 0 87.1061 0C118.409 0 145.466 18.1459 158.284 44.4728C163.352 54.8826 166.195 66.5717 166.195 78.9231Z" fill="#FCC4D7"/>
<path d="M91.1386 171C88.4107 171 85.854 170.744 83.5618 170.108C75.6777 167.915 71.4207 161.578 67.6625 155.988C64.854 151.809 62.2016 147.862 58.2897 145.457C46.2117 138.035 37.2721 128.313 32.4358 117.338C29.8363 111.445 27.3779 102.572 30.4182 93.7622C32.7986 86.8641 38.7734 84.9447 44.0429 83.2509C45.9472 82.6395 47.917 82.0056 49.6953 81.1586C52.2595 79.9359 54.6172 78.3924 57.1109 76.7587C60.9799 74.2229 64.9824 71.602 69.9144 70.1662C80.5265 67.0767 91.2746 61.0105 98.6625 53.9395L99.2192 54.5158L99.723 52.416L108.879 54.5909L103.899 59.3567C95.6751 67.2296 83.7608 73.9674 72.0328 77.3826C68.189 78.5001 64.8263 80.7051 61.2646 83.0379C58.6676 84.7393 55.985 86.4957 52.9573 87.939C50.718 89.0064 48.5039 89.718 46.3603 90.4071C41.3351 92.0208 38.6625 93.013 37.5593 96.2078C35.8036 101.292 36.4409 107.724 39.3502 114.321C44.6802 126.411 54.7482 134.449 62.257 139.062C67.5643 142.325 70.9522 147.364 73.9396 151.811C77.4056 156.97 80.4006 161.426 85.5895 162.869C90.9296 164.355 99.5215 162.896 107.831 161.488C115.897 160.12 123.516 158.827 129.587 159.777C136.554 160.869 143.909 161.764 150.547 159.697C157.305 157.589 162.574 152.112 163.655 146.066C164.506 141.31 163.048 136.304 161.504 131.002C161.043 129.423 160.567 127.789 160.154 126.153C156.71 112.537 157.652 97.844 162.809 84.7794C164.219 81.2138 164.574 79.0689 163.869 78.4024L169.071 72.9501C173.831 77.4427 171.035 84.5112 169.841 87.5281C165.257 99.1444 164.418 112.212 167.481 124.319C167.862 125.825 168.297 127.323 168.761 128.909C170.479 134.805 172.254 140.902 171.093 147.381C169.506 156.254 162.328 163.901 152.801 166.87C144.61 169.421 135.914 168.379 128.408 167.201C123.562 166.444 116.209 167.69 109.098 168.897C102.97 169.937 96.7003 171 91.1311 171H91.1386Z" fill="#F04C3A"/>
<path d="M173.443 75.4317L166.443 62.2519L166.413 62.2794C166.093 61.5327 165.478 60.9138 164.657 60.6207L103.138 38.7135L105.327 32.6322C105.887 31.0762 105.065 29.3448 103.501 28.7885L90.6094 24.1981C89.0452 23.6419 87.3046 24.4587 86.7454 26.0147L84.5565 32.096L72.6825 27.8664C71.1182 27.3102 69.3777 28.127 68.8185 29.6831L43.5339 99.9423C43.2769 100.654 43.3122 101.401 43.5742 102.057L46.9268 116.354C46.947 116.477 46.9772 116.595 47.0099 116.713L47.0477 116.876H47.0603C47.3601 117.733 48.0301 118.452 48.9495 118.777L143.771 152.541C145.385 153.115 147.176 152.273 147.756 150.667L173.821 78.2331C174.169 77.2634 173.992 76.226 173.443 75.4317Z" fill="#1B1944"/>
<path d="M107.68 28.9051L106.36 26.4195L106.355 26.4245C106.295 26.2841 106.179 26.1664 106.025 26.1113L94.4282 21.9819L90.9244 20.7341L88.6851 19.9373C88.3904 19.832 88.063 19.9874 87.9572 20.2805L83.1914 33.5256C83.1436 33.6609 83.1486 33.8012 83.199 33.924L83.8312 36.6201C83.8363 36.6426 83.8413 36.6652 83.8463 36.6877L83.8539 36.7178H83.8564C83.9118 36.8781 84.0403 37.0135 84.2116 37.0761L102.086 43.4405C102.39 43.5483 102.728 43.3904 102.836 43.0872L107.751 29.4313C107.816 29.2484 107.783 29.0529 107.68 28.9051Z" fill="#1B1944"/>
<path d="M158.058 53.2098L156.738 50.7241L156.733 50.7292C156.673 50.5888 156.557 50.4711 156.403 50.4159L144.806 46.2866L141.302 45.0388L139.063 44.242C138.768 44.1367 138.441 44.2921 138.335 44.5852L133.569 57.8302C133.521 57.9655 133.527 58.1059 133.577 58.2286L134.209 60.9247C134.214 60.9473 134.219 60.9699 134.224 60.9924L134.232 61.0225H134.234C134.29 61.1828 134.418 61.3181 134.589 61.3808L152.464 67.7452C152.768 67.8529 153.106 67.6951 153.214 67.3919L158.129 53.736C158.194 53.553 158.161 53.3576 158.058 53.2098Z" fill="#F04C3A"/>
<path d="M135.688 134.713L45.8112 103.312C44.2419 102.763 43.4107 101.039 43.9598 99.4779L68.5996 29.6897C69.1512 28.1287 70.8842 27.3018 72.4535 27.8481L162.33 59.2492C163.899 59.798 164.731 61.5219 164.181 63.0829L139.542 132.871C138.993 134.432 137.257 135.259 135.688 134.713Z" fill="#6A68CE"/>
<path d="M67.2443 79.6252L0 55.3577L40.4257 54.9568L10.2217 23.2223L48.9597 40.3963L33.801 4.46484L86.9219 51.3436L67.2443 79.6252Z" fill="#F04C3A"/>
<path d="M121.542 62.1288L121.602 62.0436L106.365 51.3644C93.8086 42.6471 76.5139 45.6564 67.6852 58.1222C58.8565 70.5879 61.8237 87.7994 74.3023 96.6294L89.5391 107.311L89.5996 107.226C101.95 114.405 117.98 111.1 126.368 99.2554C134.756 87.411 132.491 71.282 121.542 62.1288Z" fill="#1B1944"/>
<path d="M90.4309 96.576C103.058 96.576 113.295 86.3931 113.295 73.8319C113.295 61.2707 103.058 51.0879 90.4309 51.0879C77.8035 51.0879 67.5669 61.2707 67.5669 73.8319C67.5669 86.3931 77.8035 96.576 90.4309 96.576Z" fill="white"/>
<path d="M102.388 29.7004L94.5136 26.8965L92.1358 26.0496L90.6169 25.5084C90.4154 25.4382 90.1937 25.5409 90.1232 25.7414L86.8864 34.7343C86.8159 34.9347 86.9191 35.1552 87.1207 35.2254L98.894 39.4174C99.0955 39.4875 99.3171 39.3848 99.3877 39.1843L102.624 30.1915C102.695 29.9935 102.589 29.773 102.388 29.7004Z" fill="white"/>
</g>
<defs>
<clipPath id="clip0_1692_3632">
<rect width="174" height="171" fill="white"/>
</clipPath>
</defs>
</svg>
