<svg width="182" height="191" viewBox="0 0 182 191" fill="none" xmlns="http://www.w3.org/2000/svg">
<path d="M181.185 90.5781C181.185 140.622 140.622 181.156 90.6068 181.156C76.0833 181.156 62.3333 177.719 50.1589 171.646C27.2422 160.187 9.85417 139.305 3.09375 114.068C1.08854 106.563 0 98.6849 0 90.5781C0 68.1198 8.16406 47.5521 21.7135 31.7396C38.3281 12.3177 63.0208 0 90.5781 0C136.24 0 174.023 33.8021 180.268 77.7448C180.87 81.9271 181.185 86.224 181.185 90.5781Z" fill="#6A68CE"/>
<path d="M90.5781 190.954C140.571 190.954 181.099 177.167 181.099 160.16C181.099 143.152 140.571 129.365 90.5781 129.365C40.5848 129.365 0.057251 143.152 0.057251 160.16C0.057251 177.167 40.5848 190.954 90.5781 190.954Z" fill="#1B1944"/>
<path d="M123.779 53.8262C110.773 53.8262 96.9661 53.8262 91.5234 53.8262C91.5234 53.8262 90.664 53.8262 89.1458 53.8262C83.7317 53.8262 69.8958 53.8262 56.8906 53.8262C40.2474 53.8262 38.901 73.5345 38.901 73.5345V106.764H88.7734H91.8385H141.711V73.5345C141.74 73.5345 140.393 53.8262 123.779 53.8262Z" fill="#FCC4D7"/>
<path d="M141.74 73.5345C141.74 73.5345 140.393 53.8262 123.75 53.8262C110.745 53.8262 90.6641 53.8262 89.1458 53.8262C83.7318 53.8262 69.8958 53.8262 56.9193 53.8262C40.276 53.8262 38.9297 73.5345 38.9297 73.5345V84.7064C46.6927 86.4251 56.4036 85.709 64.0521 83.0163C74.1354 79.4642 78.2891 73.334 85.1068 75.2246C92.6693 77.3158 91.9245 86.0814 98.6849 88.1152C109.169 91.2663 117.477 72.1595 130.253 73.5345C135.266 74.0788 138.904 77.5163 141.797 81.3262V73.5345H141.74Z" fill="white"/>
<path d="M139.706 105.072C126.701 105.072 80.9818 105.072 75.5677 105.072C75.5677 105.072 74.7083 105.072 73.1901 105.072C67.776 105.072 53.9401 105.072 40.9349 105.072C24.2917 105.072 22.9453 124.781 22.9453 124.781V158.01C22.9453 158.01 40.9922 175.484 90.5495 175.484C140.107 175.484 157.667 158.01 157.667 158.01V124.781C157.695 124.781 156.349 105.072 139.706 105.072Z" fill="#FCC4D7"/>
<path d="M139.706 105.072C126.701 105.072 80.9818 105.072 75.5677 105.072C75.5677 105.072 74.7083 105.072 73.1901 105.072C67.776 105.072 53.9401 105.072 40.9349 105.072C24.2917 105.072 22.9453 124.781 22.9453 124.781V129.364C28.5599 124.351 35.5208 119.939 43.9714 119.997C61.9323 120.14 65.7708 140.221 84.362 141.023C103.698 141.882 108.797 120.541 129.164 120.656C142.513 120.742 150.648 129.965 157.667 135.551V124.781C157.695 124.781 156.349 105.072 139.706 105.072Z" fill="white"/>
<path d="M90.2917 69.7819C114.339 69.7819 133.833 65.0366 133.833 59.1829C133.833 53.3293 114.339 48.584 90.2917 48.584C66.2443 48.584 46.75 53.3293 46.75 59.1829C46.75 65.0366 66.2443 69.7819 90.2917 69.7819Z" fill="white"/>
<path d="M90.4349 115.615C118.833 115.615 141.854 110.933 141.854 105.159C141.854 99.3843 118.833 94.7031 90.4349 94.7031C62.0368 94.7031 39.0156 99.3843 39.0156 105.159C39.0156 110.933 62.0368 115.615 90.4349 115.615Z" fill="#FCC4D7"/>
<path d="M51.5911 116.302C55.5146 116.302 58.6953 113.121 58.6953 109.198C58.6953 105.274 55.5146 102.094 51.5911 102.094C47.6676 102.094 44.4869 105.274 44.4869 109.198C44.4869 113.121 47.6676 116.302 51.5911 116.302Z" fill="#F04C3A"/>
<path d="M128.333 117.161C132.257 117.161 135.437 113.981 135.437 110.057C135.437 106.134 132.257 102.953 128.333 102.953C124.41 102.953 121.229 106.134 121.229 110.057C121.229 113.981 124.41 117.161 128.333 117.161Z" fill="#F04C3A"/>
<path d="M90.0052 121.745C93.9287 121.745 97.1093 118.565 97.1093 114.641C97.1093 110.718 93.9287 107.537 90.0052 107.537C86.0816 107.537 82.901 110.718 82.901 114.641C82.901 118.565 86.0816 121.745 90.0052 121.745Z" fill="#F04C3A"/>
<path d="M106.391 97.8546C105.961 97.8546 105.531 97.6254 105.273 97.2244L103.354 94.0733C102.982 93.4718 103.182 92.6697 103.784 92.2973C104.385 91.9249 105.188 92.1254 105.56 92.727L107.479 95.878C107.852 96.4796 107.651 97.2817 107.049 97.6541C106.849 97.7973 106.62 97.8546 106.391 97.8546Z" fill="#F04C3A"/>
<path d="M69.7526 93.1279C69.4375 93.1279 69.1224 93.0133 68.8646 92.7555C68.349 92.2685 68.3203 91.4378 68.836 90.9222L71.1849 88.4873C71.6719 87.9716 72.5026 87.943 73.0182 88.4586C73.5339 88.9456 73.5625 89.7763 73.0469 90.292L70.6979 92.7269C70.4401 92.9847 70.0964 93.1279 69.7526 93.1279Z" fill="#F04C3A"/>
<path d="M87.5703 90.6923C86.9687 90.6923 86.4244 90.2626 86.3099 89.661L85.7369 86.7964C85.5937 86.1089 86.052 85.4214 86.7395 85.2782C87.427 85.135 88.1145 85.5933 88.2578 86.2808L88.8307 89.1454C88.9739 89.8329 88.5156 90.5204 87.8281 90.6636C87.7421 90.6923 87.6562 90.6923 87.5703 90.6923Z" fill="#F04C3A"/>
<path d="M54.2552 96.5942C53.7969 96.5942 53.3672 96.365 53.138 95.9353L51.7057 93.3572C51.362 92.727 51.5912 91.9535 52.1927 91.6098C52.8229 91.266 53.5964 91.4952 53.9401 92.0968L55.3724 94.6749C55.7162 95.3051 55.487 96.0785 54.8854 96.4223C54.6849 96.5655 54.4844 96.5942 54.2552 96.5942Z" fill="#F04C3A"/>
<path d="M73.4192 109.713C72.9609 109.713 72.5312 109.483 72.302 109.054C71.9583 108.424 72.1588 107.65 72.7604 107.306L75.5963 105.674C76.2265 105.33 77 105.53 77.3437 106.132C77.6875 106.762 77.4869 107.535 76.8854 107.879L74.0494 109.512C73.8489 109.655 73.6198 109.713 73.4192 109.713Z" fill="#F04C3A"/>
<path d="M111.346 109.513C110.945 109.513 110.573 109.341 110.315 108.998C109.885 108.425 110 107.623 110.544 107.193L112.034 106.047C112.607 105.617 113.409 105.732 113.838 106.276C114.268 106.849 114.154 107.651 113.609 108.081L112.12 109.227C111.891 109.427 111.604 109.513 111.346 109.513Z" fill="#F04C3A"/>
<path d="M135.409 87.8289C134.807 87.8289 134.292 87.4279 134.148 86.8263L133.575 84.2482C133.432 83.5607 133.862 82.8732 134.549 82.7013C135.237 82.5581 135.924 82.9878 136.096 83.6753L136.669 86.2534C136.812 86.9409 136.383 87.6284 135.695 87.8003C135.581 87.8289 135.495 87.8289 135.409 87.8289Z" fill="#F04C3A"/>
<path d="M122.662 88.5449C122.432 88.5449 122.203 88.4876 122.003 88.3731L120.57 87.5137C119.969 87.1413 119.768 86.3679 120.141 85.7377C120.513 85.1074 121.287 84.9356 121.917 85.308L123.349 86.1673C123.951 86.5397 124.151 87.3132 123.779 87.9434C123.55 88.3444 123.12 88.5449 122.662 88.5449Z" fill="#F04C3A"/>
<path d="M97.1666 39.0723C97.1666 37.3822 93.7005 35.9785 89.4323 35.9785C85.164 35.9785 81.6979 37.3535 81.6979 39.0723C81.6979 39.1009 81.6979 39.1296 81.6979 39.1582V57.4629C81.6979 57.4915 81.6979 57.5202 81.6979 57.5488C81.6979 59.2389 85.164 60.929 89.4323 60.929C93.7005 60.929 97.1666 59.2676 97.1666 57.5488C97.1666 57.5202 97.1666 57.4915 97.1666 57.4629V39.1582C97.1666 39.1009 97.1666 39.1009 97.1666 39.0723Z" fill="#6A68CE"/>
<path d="M102.008 26.4694C102.008 33.3444 96.4219 38.9017 89.5756 38.9017C82.7292 38.9017 77.1146 33.3444 77.1146 26.4694C77.1146 19.5944 89.5469 6.30273 89.5469 6.30273C89.5469 6.30273 102.008 19.5944 102.008 26.4694Z" fill="white"/>
<path d="M96.4219 32.3698C96.4219 36.0078 93.2995 38.987 89.4323 38.987C85.5651 38.987 82.4427 36.0365 82.4427 32.3698C82.4427 28.7031 89.4323 21.6562 89.4323 21.6562C89.4323 21.6562 96.4219 28.7031 96.4219 32.3698Z" fill="#F04C3A"/>
<path d="M97.1666 53.5671V49.8717C96.2213 52.0202 92.6979 53.4525 89.4895 53.4525C86.1093 53.4525 82.414 51.877 81.6979 49.5566V53.4525C83.5599 55.028 86.3385 56.0306 89.4895 56.0306C92.5833 56.0306 95.3046 55.0853 97.1666 53.5671Z" fill="white"/>
<path d="M97.1666 45.2604V41.5651C96.2213 43.7135 92.6979 45.1458 89.4895 45.1458C86.1093 45.1458 82.414 43.5703 81.6979 41.25V45.1458C83.5599 46.7214 86.3385 47.724 89.4895 47.724C92.5833 47.724 95.3046 46.7786 97.1666 45.2604Z" fill="white"/>
</svg>
