<svg width="26" height="26" viewBox="0 0 26 26" fill="none" xmlns="http://www.w3.org/2000/svg">
<path fill-rule="evenodd" clip-rule="evenodd" d="M9.61405 2.3344C9.3094 2.43091 9.00853 2.5406 8.7123 2.6633C7.35623 3.225 6.12408 4.0483 5.08619 5.08619C4.0483 6.12408 3.22501 7.35623 2.66331 8.7123C2.21753 9.78848 1.94345 10.926 1.8493 12.0833H7.26321C7.30188 10.7591 7.42519 9.45412 7.6301 8.21736C7.88136 6.70091 8.25257 5.30354 8.73047 4.1088C8.99138 3.45652 9.28616 2.85942 9.61405 2.3344ZM12.9896 0C11.2838 -2.16067e-07 9.59465 0.335985 8.01869 0.988773C6.44272 1.64156 5.01076 2.59837 3.80456 3.80456C2.59837 5.01075 1.64156 6.44271 0.988774 8.01868C0.335986 9.59465 1.44045e-07 11.2838 0 12.9896C-1.44045e-07 14.6954 0.335985 16.3845 0.988773 17.9605C1.64156 19.5364 2.59837 20.9684 3.80456 22.1746C5.01075 23.3808 6.44272 24.3376 8.01868 24.9904C9.59465 25.6432 11.2838 25.9792 12.9896 25.9792C14.6954 25.9792 16.3845 25.6432 17.9605 24.9904C19.5364 24.3376 20.9684 23.3808 22.1746 22.1746C23.3808 20.9684 24.3376 19.5364 24.9904 17.9605C25.6432 16.3845 25.9792 14.6954 25.9792 12.9896C25.9792 11.2838 25.6432 9.59466 24.9904 8.01869C24.3376 6.44272 23.3808 5.01076 22.1746 3.80456C20.9684 2.59837 19.5365 1.64156 17.9605 0.988774C16.3845 0.335986 14.6954 2.16067e-07 12.9896 0ZM12.9896 1.8125C12.6739 1.8125 12.2661 1.9645 11.7918 2.45557C11.3141 2.95027 10.8359 3.7256 10.4133 4.78195C9.9936 5.83129 9.65277 7.09803 9.41823 8.51362C9.23005 9.64937 9.11465 10.8546 9.07653 12.0833L16.9026 12.0833C16.8645 10.8546 16.7491 9.64937 16.5609 8.51363C16.3264 7.09804 15.9856 5.83129 15.5658 4.78195C15.1433 3.7256 14.665 2.95027 14.1873 2.45557C13.7131 1.9645 13.3053 1.8125 12.9896 1.8125ZM18.716 12.0833C18.6773 10.7591 18.554 9.45413 18.3491 8.21736C18.0978 6.70091 17.7266 5.30355 17.2487 4.1088C16.9878 3.45652 16.693 2.85942 16.3651 2.33439C16.6698 2.43091 16.9706 2.5406 17.2669 2.66331C18.6229 3.22501 19.8551 4.0483 20.893 5.08619C21.9309 6.12408 22.7542 7.35623 23.3159 8.7123C23.7616 9.78849 24.0357 10.926 24.1299 12.0833H18.716ZM16.9026 13.8958L9.07653 13.8958C9.11465 15.1246 9.23005 16.3298 9.41823 17.4655C9.65277 18.8811 9.9936 20.1479 10.4133 21.1972C10.8359 22.2536 11.3141 23.0289 11.7918 23.5236C12.2661 24.0147 12.6739 24.1667 12.9896 24.1667C13.3053 24.1667 13.7131 24.0147 14.1873 23.5236C14.665 23.0289 15.1433 22.2536 15.5658 21.1972C15.9856 20.1479 16.3264 18.8811 16.5609 17.4655C16.7491 16.3298 16.8645 15.1246 16.9026 13.8958ZM16.3651 23.6448C16.693 23.1197 16.9878 22.5226 17.2487 21.8704C17.7266 20.6756 18.0978 19.2783 18.3491 17.7618C18.554 16.525 18.6773 15.22 18.716 13.8958H24.1299C24.0357 15.0532 23.7616 16.1907 23.3159 17.2669C22.7542 18.6229 21.9309 19.8551 20.893 20.893C19.8551 21.9309 18.6229 22.7542 17.2669 23.3159C16.9706 23.4386 16.6698 23.5483 16.3651 23.6448ZM9.61405 23.6448C9.28616 23.1197 8.99138 22.5226 8.73047 21.8704C8.25257 20.6756 7.88136 19.2783 7.6301 17.7618C7.42519 16.525 7.30188 15.22 7.26321 13.8958H1.8493C1.94345 15.0532 2.21753 16.1907 2.6633 17.2669C3.22501 18.6229 4.0483 19.8551 5.08619 20.893C6.12408 21.9309 7.35623 22.7542 8.7123 23.3159C9.00853 23.4386 9.3094 23.5483 9.61405 23.6448Z" fill="#1B1944"/>
</svg>
