<svg width="50" height="50" viewBox="0 0 50 50" fill="none" xmlns="http://www.w3.org/2000/svg">
<g clip-path="url(#clip0_2728_579)">
<path d="M25.0466 49.9991C10.9416 49.8929 -0.0970687 38.7505 0.000643693 24.7163C0.0983561 10.9635 11.3899 -0.127241 25.1673 -0.00088406C39.0454 0.128345 50.0725 11.2851 49.9978 25.1269C49.9231 38.8826 38.6689 50.1025 25.0466 49.9991ZM22.0003 40.5769C24.5293 40.5827 26.7911 39.7499 28.8344 38.3111C29.208 38.0469 29.4293 37.5673 29.7225 37.1883C29.3431 36.947 28.9925 36.6139 28.5758 36.4789C27.0871 35.9879 26.7997 35.5284 27.1733 33.9748C27.5929 32.2316 28.0556 30.5 28.4436 28.7482C28.7626 27.3066 29.1333 25.8535 29.2253 24.3889C29.3287 22.7118 28.2654 21.6377 26.5784 21.5114C25.6818 21.4453 24.7564 21.4999 23.8655 21.6377C21.9198 21.9421 20.1524 22.7319 18.5574 23.8748C18.2499 24.096 17.9596 24.5612 17.9625 24.9115C17.9625 25.1212 18.5401 25.3365 18.8706 25.5318C18.9913 25.6008 19.1436 25.6122 19.2816 25.6553C20.5202 26.0373 20.8507 26.6059 20.5432 27.8637C20.0633 29.8366 19.5661 31.8066 19.0833 33.7795C18.8333 34.8018 18.5602 35.8213 18.3734 36.8551C17.9912 38.986 19.204 40.4764 21.3537 40.5798C21.5692 40.5913 21.7848 40.5798 22.0003 40.5798V40.5769ZM31.8606 12.7784C31.8692 10.1306 29.8891 8.1118 27.2739 8.10319C24.6701 8.0917 22.5923 10.1335 22.5923 12.7009C22.5923 15.2883 24.6299 17.3272 27.2365 17.3416C29.8202 17.356 31.852 15.3515 31.8606 12.7784Z" fill="#6A68CE"/>
<path d="M21.9988 40.5768C21.7832 40.5768 21.5677 40.5854 21.3521 40.5768C19.1996 40.4706 17.9897 38.9801 18.3719 36.8522C18.5587 35.8183 18.8317 34.7989 19.0818 33.7765C19.5646 31.8036 20.0618 29.8336 20.5417 27.8607C20.8492 26.6029 20.5158 26.0343 19.2801 25.6523C19.1421 25.6093 18.9898 25.6007 18.8691 25.5289C18.5386 25.3365 17.9609 25.1182 17.9609 24.9086C17.9609 24.5582 18.2483 24.093 18.5558 23.8719C20.1508 22.7289 21.9183 21.9392 23.8639 21.6348C24.7548 21.4969 25.6802 21.4424 26.5769 21.5084C28.2638 21.6348 29.3272 22.7088 29.2237 24.3859C29.1346 25.8505 28.761 27.3036 28.442 28.7452C28.0569 30.4941 27.5942 32.2287 27.1718 33.9718C26.7982 35.5254 27.0856 35.9878 28.5742 36.476C28.9881 36.6138 29.3387 36.9441 29.7209 37.1853C29.4306 37.5644 29.2094 38.0468 28.8329 38.3081C26.7924 39.7469 24.5278 40.5797 21.9988 40.5739V40.5768Z" fill="white"/>
<path d="M31.8601 12.7788C31.8515 15.3519 29.8196 17.3592 27.236 17.342C24.6294 17.3276 22.5889 15.2887 22.5918 12.7012C22.5918 10.131 24.6696 8.09208 27.2734 8.10356C29.8886 8.11505 31.8687 10.1339 31.8601 12.7788Z" fill="white"/>
</g>
<defs>
<clipPath id="clip0_2728_579">
<rect width="50" height="50" fill="white"/>
</clipPath>
</defs>
</svg>
