<svg width="240" height="218" viewBox="0 0 240 218" fill="none" xmlns="http://www.w3.org/2000/svg">
<g clip-path="url(#clip0_147_1649)">
<path d="M175 23.9993H239.816C239.816 23.9993 242.052 7.96421 230.875 7.96421C219.698 7.96421 215.975 15.0133 215.975 15.0133C215.975 15.0133 217.49 0.403476 209.27 0.0229675C192.88 -0.723002 186.921 16.9502 186.921 16.9502C186.921 16.9502 184.685 15.8968 180.215 16.9502C175.746 18.0101 175 23.9993 175 23.9993Z" fill="white"/>
</g>
<g clip-path="url(#clip1_147_1649)">
<path d="M0 162H42.8784C42.8784 162 44.3574 151.309 36.9636 151.309C29.5697 151.309 27.1065 156.009 27.1065 156.009C27.1065 156.009 28.1091 146.269 22.6708 146.015C11.8282 145.518 7.88593 157.3 7.88593 157.3C7.88593 157.3 6.40687 156.598 3.45018 157.3C0.493489 158.007 0 162 0 162Z" fill="white"/>
</g>
<g clip-path="url(#clip2_147_1649)">
<path d="M110.615 184.813C111.167 185.965 111.455 187.203 111.862 188.387C112.412 189.993 113.159 191.519 113.906 193.083C114.844 195.045 119.092 208.793 119.894 211.104C120.048 211.55 120.219 212.222 120.787 212.276C121.54 212.349 121.874 211.389 122.047 210.866C122.408 209.789 122.458 208.705 122.394 207.583C122.313 206.141 121.624 199.035 121.434 196.937C121.195 194.336 119.465 183.166 118.836 183.113C117.566 183.009 116.365 183.107 115.232 183.618C114.128 184.114 112.991 184.34 111.889 184.67C111.56 184.768 111.176 184.766 111.353 185.295L110.62 184.811L110.615 184.813Z" fill="white"/>
<path d="M139.06 82.1575C139.06 82.1575 129.523 69.6378 127.556 66.5984C125.589 63.5589 122.833 59.8112 123.409 59.3314C123.984 58.8516 124.867 58.5053 127.758 61.9453C130.649 65.3853 140.146 77.1582 142.339 78.8397C144.533 80.519 139.063 82.1598 139.063 82.1598" fill="white"/>
<path d="M102.442 93.4855C102.442 93.4855 113.804 73.305 116.765 68.8737C119.728 64.4425 123.187 58.5356 124.175 59.029C125.162 59.5201 126.15 60.5046 123.187 66.4114C120.223 72.3182 109.85 92.0076 108.862 95.9455C107.874 99.8834 102.442 93.4855 102.442 93.4855Z" fill="white"/>
<path d="M183.181 79.0946C183.181 79.0946 195.828 69.698 198.893 67.7652C201.961 65.8325 205.745 63.119 206.221 63.6961C206.698 64.2732 207.039 65.1558 203.562 68.0074C200.086 70.8567 188.406 80.4095 186.485 82.392C180.976 88.0725 183.183 79.0968 183.183 79.0968" fill="white"/>
<path d="M72.8074 105.3C72.8074 105.3 65.3975 93.9778 62.4363 88.5643C59.4728 83.1486 57.0021 77.7351 56.5093 75.7662C56.0143 73.7972 57.0021 72.8128 58.9778 74.2883C60.9534 75.7662 74.2903 95.4556 75.7709 97.9156C77.2538 100.376 78.7344 100.869 77.7466 102.345C76.7587 103.822 74.7831 105.298 72.8074 105.298" fill="white"/>
<path d="M144.047 171.106C144.204 172.584 144.265 179.455 144.476 181.46C144.742 183.979 144.195 200.71 144.192 203.557C144.192 204.107 144.127 204.91 144.692 205.193C145.444 205.569 146.132 204.65 146.5 204.148C147.258 203.109 147.699 201.943 148.035 200.687C148.469 199.076 150.306 191.024 150.862 188.65C151.55 185.708 152.231 182.745 153.221 179.968C153.671 178.71 154.189 177.47 154.564 176.171C154.707 175.68 155.079 174.65 154.984 174.193C154.825 173.421 153.766 172.792 153.135 172.486C151.861 171.873 150.587 171.506 149.234 171.617C147.917 171.726 146.663 171.524 145.405 171.452C145.03 171.429 144.635 171.273 144.626 171.923L144.043 171.104L144.047 171.106Z" fill="white"/>
<path d="M68.336 179.789C68.3519 181.455 67.6798 189.118 67.7002 191.379C67.7229 194.217 65.3135 212.811 65.0047 215.984C64.9456 216.597 64.7844 217.484 65.3862 217.86C66.1855 218.36 67.0507 217.407 67.514 216.887C68.4723 215.812 69.0877 214.556 69.5987 213.193C70.2549 211.442 73.173 202.663 74.045 200.076C75.1282 196.869 76.2069 193.64 77.6103 190.65C78.2462 189.294 78.9592 187.968 79.5156 186.56C79.7268 186.026 80.2536 184.92 80.1991 184.401C80.106 183.526 78.9933 182.709 78.3211 182.303C76.9677 181.482 75.587 180.936 74.0655 180.916C72.5849 180.896 71.2087 180.538 69.8167 180.323C69.4011 180.258 68.9787 180.043 68.8992 180.767L68.336 179.789Z" fill="white"/>
<path d="M192.689 140.305C194.172 140.149 195.651 140.314 197.113 140.332C199.098 140.357 201.069 140.133 203.083 139.923C205.611 139.658 222.415 140.357 225.274 140.38C225.826 140.385 226.632 140.461 226.914 139.859C227.286 139.063 226.357 138.325 225.851 137.931C224.804 137.117 223.628 136.641 222.365 136.275C220.744 135.802 212.644 133.792 210.259 133.185C207.3 132.434 204.321 131.69 201.525 130.615C200.258 130.128 199.009 129.569 197.703 129.162C197.208 129.008 196.173 128.605 195.714 128.7C194.94 128.863 194.315 129.985 194.016 130.653C193.407 132.002 193.048 133.355 193.171 134.795C193.289 136.198 193.096 137.528 193.032 138.864C193.012 139.262 192.86 139.681 193.511 139.694L192.692 140.31L192.689 140.305Z" fill="white"/>
<path d="M76.1229 141.671L107.79 138.783C107.79 138.783 111.708 151.079 113.829 161.179C116.392 173.396 118.089 179.223 119.538 182.557C120.986 185.893 118.956 190.084 116.392 190.084C113.829 190.084 112.888 191.503 110.595 186.029C108.301 180.554 103.576 163.214 98.7295 161.686C93.8834 160.159 93.2953 161.799 88.5083 171.176C83.7212 180.552 81.6956 188.272 76.1002 188.272C70.5047 188.272 65.0319 187.201 67.0235 180.552C69.015 173.901 72.5735 160.668 75.1033 152.014C77.633 143.359 76.1252 141.666 76.1252 141.666" fill="#F1503C"/>
<path d="M89.68 87.6703C85.9762 85.8259 81.7183 89.9742 81.2119 93.5115C80.9372 95.433 81.1075 98.0062 82.4813 99.4817C83.4896 100.564 85.1474 101.58 86.4872 102.096C87.7157 102.569 89.6868 102.781 90.9949 102.247C92.4664 101.648 93.4292 100.321 93.9629 98.8729C94.542 97.2955 94.6192 95.3741 94.5692 93.6654C94.5261 92.1288 93.8789 90.583 92.7344 89.4944C92.2166 89.0033 90.6202 87.4848 90.0547 88.4172L89.6778 87.6681L89.68 87.6703Z" fill="white"/>
<path d="M109.418 140.383C108.185 134.578 105.467 123.511 105.96 116.126C106.455 108.744 107.372 104.806 108.61 101.359C109.848 97.9125 110.17 97.9125 110.17 96.928C110.17 95.9435 110.209 95.3031 108.86 94.8844C107.511 94.4657 105.222 93.4812 103.921 92.0056C102.619 90.5278 101.452 90.0367 99.4766 93.4835C97.5009 96.928 95.0325 103.328 88.1154 102.837C81.2006 102.344 76.7565 97.4214 75.7686 95.9458C74.7808 94.468 73.793 94.468 73.3002 94.9613C72.8074 95.4547 70.8317 96.9303 69.3489 96.9303C67.866 96.9303 67.3732 97.9147 67.3732 98.4081C67.3732 98.9015 72.3124 104.808 73.793 114.16C75.2759 123.513 75.2759 143.2 75.2759 144.185C75.2759 145.169 75.2759 145.663 77.7443 145.663C80.2127 145.663 105.404 143.203 106.884 143.203C108.365 143.203 109.909 142.712 109.416 140.385" fill="#6A68CE"/>
<path d="M87.7748 89.5438C87.634 89.5235 87.5795 89.5665 87.6113 89.6751C88.3902 90.6324 89.2758 91.4811 90.3613 92.0265C91.4377 92.5674 93.1249 93.0857 94.3262 92.5086C94.7395 89.4646 92.0781 87.0159 89.3235 86.5859C85.8263 86.0382 82.4836 86.5406 79.125 87.4821C77.6262 87.9031 76.2183 88.4372 74.8035 88.788C73.2525 89.175 66.8872 91.8251 65.3953 92.9114C64.1145 93.8461 62.4318 95.4688 62.0525 97.0417C61.7164 98.4312 62.4976 99.5153 63.6558 100.081C64.1872 100.341 64.6936 100.667 65.2477 100.746C65.8994 100.842 66.5966 100.726 67.2506 100.821C67.3051 101.55 65.9471 102.052 65.393 102.335C64.1758 102.955 63.0971 103.582 61.9617 104.34C59.818 105.771 57.9604 107.552 56.1324 109.36C54.9333 110.546 53.2824 113.121 54.3406 114.805C55.6032 116.815 58.1534 116.482 60.1155 116.749C59.8203 117.403 59.3638 120.047 59.1958 120.662C58.8483 121.93 58.301 123.459 58.8143 124.781C60.3426 128.717 65.5497 125.503 67.8319 124.405C70.7273 123.014 73.2684 120.97 75.5484 118.791C78.7435 115.735 81.7683 112.508 84.5388 109.03C85.3245 108.043 85.9898 106.929 86.6075 105.802C87.0481 104.999 87.6499 104.076 87.9655 103.225C88.4447 101.928 87.6272 102.344 86.1261 101.683C85.3222 101.267 84.5592 100.647 83.8779 99.9906C83.0332 99.1803 82.5336 98.352 82.0862 97.268C81.9545 96.9511 81.4436 96.279 81.6025 95.9554C81.7615 95.634 82.7289 95.3398 83.065 95.1225C84.8953 93.9298 86.6461 92.1963 87.0004 90.1368C86.8891 90.0802 86.771 90.0712 86.6484 90.1051L87.777 89.5438H87.7748Z" fill="#1B1944"/>
<path d="M139.966 84.9293C139.966 84.9293 147.117 94.0996 147.117 120.968C147.117 147.836 144.14 164.744 144.14 169.834C144.14 174.924 143.949 178.352 149.479 178.352C155.009 178.352 155.799 174.052 156.31 171.18C156.821 168.308 161.431 146.623 170.108 145.249C178.782 143.875 188.125 144.052 191.041 141.673C193.956 139.295 202.781 134.042 202.781 131.693C202.781 129.344 203.449 128.33 198.703 126.687C193.959 125.044 173.907 125.462 172.653 116.899C171.388 108.244 175.705 98.343 178.782 93.484C181.859 88.625 186.065 84.8478 183.962 82.2859C181.859 79.724 179.804 74.4848 176.228 78.305C172.653 82.1252 167.982 84.9338 161.494 84.9338C155.006 84.9338 153.551 82.7454 149.477 79.724C145.403 76.7027 139.964 84.9338 139.964 84.9338" fill="#1B1944"/>
<path d="M159.196 72.9531C155.504 72.9871 154.593 77.5088 155.17 80.4261C155.654 82.8725 156.53 84.8731 158.94 85.9866C159.805 86.3872 161.224 86.5773 162.221 86.4483C163.572 86.2718 164.333 85.156 164.991 84.0471C166.211 81.9876 165.993 79.2537 165.139 77.2282C164.626 76.0129 164.015 74.6211 162.83 73.9195C162.103 73.4895 159.246 72.3851 158.619 73.3854L159.196 72.9554V72.9531Z" fill="white"/>
<path d="M154.586 80.4191C156.001 80.4191 157.012 79.8171 157.72 78.5565C158.304 77.5155 158.894 75.9381 158.242 74.8088C159.439 74.8721 160.786 74.8767 161.217 73.5686C161.229 74.0574 162.166 74.8291 162.65 74.9672C163.3 75.1528 163.733 74.7341 164.222 74.4444C163.633 75.3927 163.527 77.6762 163.979 78.7263C164.494 79.9167 165.977 80.8061 167.203 80.0004C166.724 81.0528 166.672 83.1304 167.696 83.8614C168.284 84.2823 170.428 85.0405 171.021 84.3412C170.975 85.4003 171.189 86.3871 172.419 86.5953C173.282 86.7401 174.57 86.2648 174.781 85.3143C175.435 85.4275 176.076 86.1064 176.773 86.3056C177.461 86.5002 178.201 86.4436 178.93 86.4459C179.791 86.4459 180.374 86.3984 180.978 85.7669C181.412 85.3143 181.848 84.3502 181.437 83.7075C182.391 83.755 183.817 83.9542 184.669 83.4382C185.725 82.7954 185.92 81.6344 185.854 80.4915C185.715 78.1311 184.262 76.4405 182.157 75.5352C183.379 74.8156 183.994 72.2152 182.747 71.0361C181.676 70.0245 180.642 70.6355 179.337 69.9656C178.744 69.6624 178.832 69.8887 178.903 69.2165C178.939 68.8884 178.887 68.5398 178.928 68.2117C179.053 67.2136 178.998 66.6773 178.358 65.8037C177.338 64.4073 175.326 63.9818 174.177 65.4416C174.3 64.1516 172.858 63.4093 171.725 63.6152C170.698 63.8008 170.585 64.5205 170.146 65.2832C169.463 64.5884 168.604 63.8506 167.732 63.4387C167.262 63.2169 166.913 63.0902 166.399 63.0449C165.904 62.9996 165.228 63.2871 164.835 63.1671C164.882 61.2502 161.701 60.4989 161.649 62.5719C161.481 62.022 161.458 61.3883 161.072 60.9243C160.704 60.483 160.011 60.2409 159.45 60.1707C158.161 60.0078 157.218 61.2525 157.157 62.418C156.462 62.2256 155.347 61.8703 154.759 62.5017C154.198 63.1015 154.098 64.1606 153.984 64.8962C153.519 64.8645 153.051 64.482 152.57 64.3326C152.116 64.1901 151.33 64.0905 150.835 64.1901C150.01 64.353 148.412 65.6068 148.689 66.5867C147.515 65.1157 145.514 65.0523 144.108 66.2427C143.354 66.8809 141.52 69.5401 143.586 69.7914C143.377 69.9634 143.13 69.986 142.887 70.1127C142.353 70.3888 141.892 70.9184 141.472 71.3461C140.897 71.9323 140.439 72.4981 140.075 73.2517C139.76 73.908 139.094 76.1282 140.716 75.8181C139.753 76.3749 138.779 76.6261 138.143 77.6377C137.403 78.8145 137.296 79.9393 137.16 81.2701C137.053 82.3089 137.307 83.3612 138.315 83.7165C139.14 84.0062 140.032 83.7867 140.482 82.9018C140.402 84.4136 140.741 86.5704 142.478 87.1362C143.974 87.625 146.743 86.0566 146.086 84.3412C145.971 84.8391 146.404 85.4773 146.665 85.8733C147.106 86.5409 147.565 86.7559 148.362 86.7016C148.911 86.6654 149.772 86.292 150.129 85.8733C150.528 85.4026 150.635 84.2506 150.142 83.7708C151.166 84.7961 152.563 85.1106 153.726 84.1533C154.723 83.3318 155.179 81.3742 154.993 80.1408C154.872 80.1815 154.804 80.2856 154.734 80.4169H154.591L154.586 80.4191Z" fill="#F1503C"/>
</g>
<defs>
<clipPath id="clip0_147_1649">
<rect width="65" height="24" fill="white" transform="translate(175)"/>
</clipPath>
<clipPath id="clip1_147_1649">
<rect width="43" height="16" fill="white" transform="translate(0 146)"/>
</clipPath>
<clipPath id="clip2_147_1649">
<rect width="173" height="159" fill="white" transform="translate(54 59)"/>
</clipPath>
</defs>
</svg>
