<svg width="135" height="173" viewBox="0 0 135 173" fill="none" xmlns="http://www.w3.org/2000/svg">
<rect width="135" height="152" rx="35" fill="#6A68CE"/>
<mask id="mask0_147_1401" style="mask-type:alpha" maskUnits="userSpaceOnUse" x="0" y="21" width="135" height="152">
<rect y="21" width="135" height="152" rx="35" fill="#FCD0DC"/>
</mask>
<g mask="url(#mask0_147_1401)">
<path d="M17.9215 115.689C19.2995 112.475 22.013 107.749 27.0973 105.155C28.873 104.25 31.7365 102.759 33.5546 104.135C35.1152 105.318 35.7154 107.564 34.9151 109.572C37.1934 106.573 41.2349 105.801 44.0909 107.534C46.3943 108.932 47.6297 111.78 47.1495 114.671C47.7372 114.799 50.7058 115.504 52.5865 118.41C54.6822 121.651 53.7519 125.045 53.6069 125.548C53.952 125.528 56.4204 125.423 58.0234 127.246C59.6215 129.066 59.6991 132.052 58.0234 134.383C55.1924 137.442 52.3589 140.501 49.5279 143.559C49.2203 143.557 46.5193 143.497 44.7712 141.181C43.0706 138.93 43.6708 136.402 43.7508 136.084C42.2178 138.367 39.1041 138.935 36.9534 137.444C34.9376 136.046 34.2974 133.21 35.5929 130.987C32.5243 133.398 28.1652 132.77 26.0769 129.967C24.2713 127.541 24.4789 123.902 26.7572 121.471C26.4521 121.544 22.6657 122.374 19.9597 119.773C18.3842 118.25 18.0215 116.382 17.9215 115.689Z" fill="white"/>
<path d="M11.8169 69.4541C24.3289 74.691 34.2875 75.2787 41.1349 74.816C52.3165 74.0633 58.9689 71.1497 64.0157 74.4584C67.8346 76.9618 68.1822 81.2158 73.5491 89.4613C75.0747 91.8047 76.2651 93.4953 77.2654 94.5982C88.6796 107.158 100.086 107.903 101.914 115.933C102.002 116.321 102.907 120.395 100.484 123.083C98.093 125.737 94.0265 125.312 93.3337 125.229C93.4988 125.634 94.9468 129.333 92.9761 132.379C90.9629 135.493 86.1712 136.698 81.8921 134.525C81.6245 135.413 80.6792 138.116 77.9582 139.887C73.4141 142.846 68.2322 140.385 67.9471 140.245C67.8921 140.427 67.0268 143.083 64.3708 143.821C62.2851 144.399 59.9817 143.548 58.6512 141.675C56.3054 140.552 52.5741 138.539 48.6401 135.24C35.8605 124.526 36.8259 113.567 27.1874 109.141C18.7269 105.254 13.0023 111.412 8.23809 107.71C4.23665 104.599 2.29845 95.5985 11.8169 69.4541Z" fill="#1A1C4F"/>
<path d="M119.791 79.6427C113.754 76.1239 109.83 81.706 100.421 78.9475C88.667 75.5012 89.4022 65.2075 78.3333 61.2136C64.0131 56.0467 48.6101 68.1611 46.3893 69.9067C39.9845 74.946 32.8744 83.5891 34.8351 86.9453C36.2831 89.4237 42.7604 89.1611 47.4096 86.9453C53.8069 83.8967 54.2146 78.3598 58.9638 77.9046C62.28 77.587 65.0135 80.0078 68.1396 82.7738C73.5916 87.5981 73.2839 90.6517 77.3154 94.9432C89.9049 108.356 94.174 104.364 99.6835 113.277C102.852 118.404 100.581 117.609 103.822 119.98C108.787 123.611 118.383 120.91 123.532 115.458C132.898 105.545 128.992 85.0046 119.791 79.6427Z" fill="white"/>
<path d="M143.982 102.206C143.982 109.477 142.999 116.517 141.161 123.202C139.04 123.574 136.774 123.949 134.351 124.329C122.927 126.118 117.735 124.587 117.735 124.587C117.735 124.587 121.944 105.66 118.345 88.6116C114.749 71.5629 116.872 73.4036 132.62 68.8095C133.843 68.4518 134.994 68.0892 136.077 67.7266C141.143 78.1453 143.982 89.8445 143.982 102.206Z" fill="#FCC4D7"/>
<path d="M16.6635 80.556C11.079 97.0619 13.0197 116.354 13.0197 116.354C13.0197 116.354 10.1962 120.185 -10.2486 110.189C-11.4791 109.586 -12.647 109.006 -13.7574 108.441C-13.9175 106.383 -14 104.305 -14 102.206C-14 85.3927 -8.74811 69.8071 0.207618 57C1.58561 57.7403 3.11866 58.478 4.82678 59.2058C19.9222 65.6281 22.2481 64.0525 16.6635 80.556Z" fill="#F04C3A"/>
<path d="M0.0449703 105.83C1.58778 105.83 2.83848 104.579 2.83848 103.037C2.83848 101.494 1.58778 100.243 0.0449703 100.243C-1.49784 100.243 -2.74854 101.494 -2.74854 103.037C-2.74854 104.579 -1.49784 105.83 0.0449703 105.83Z" fill="#FCC4D7"/>
</g>
</svg>
