<svg width="176" height="177" viewBox="0 0 176 177" fill="none" xmlns="http://www.w3.org/2000/svg">
<g clip-path="url(#clip0_1692_3644)">
<path d="M163.501 86.9456C163.501 94.4732 162.484 101.763 160.582 108.684C151.065 143.303 119.376 168.735 81.7506 168.735C38.7723 168.735 3.54076 135.553 0.251063 93.4012C0.085413 91.27 0 89.1181 0 86.9456C0 69.5364 5.43537 53.3986 14.704 40.1378C29.483 18.9894 54.0017 5.15625 81.7532 5.15625C114.109 5.15625 142.076 23.9612 155.325 51.2441C160.564 62.032 163.501 74.1431 163.501 86.9456Z" fill="#FCC4D7"/>
<path d="M135.24 91.6289L163.501 112.539C163.501 112.539 155.172 147.743 124.198 165.792C94.0968 183.331 67.0312 175.044 67.0312 175.044L94.6145 99.4311L135.24 91.6289Z" fill="#6A68CE"/>
<path d="M155.278 65.1077L166.563 61.788L174.921 70.2324L176 51.4844L166.519 58.8904L142.544 40.9141" fill="#F04C3A"/>
<path d="M56.8953 68.2351L45.626 64.8609L37.227 73.2639L36.2383 54.5107L45.6855 61.9633L69.7435 44.1035" fill="#F04C3A"/>
<path d="M104.393 105.028C132.919 105.028 156.044 81.8917 156.044 53.3518C156.044 24.8119 132.919 1.67578 104.393 1.67578C75.8664 1.67578 52.7412 24.8119 52.7412 53.3518C52.7412 81.8917 75.8664 105.028 104.393 105.028Z" fill="white"/>
<path d="M77.4438 71.207C80.9031 71.207 83.7074 68.4014 83.7074 64.9404C83.7074 61.4795 80.9031 58.6738 77.4438 58.6738C73.9845 58.6738 71.1802 61.4795 71.1802 64.9404C71.1802 68.4014 73.9845 71.207 77.4438 71.207Z" fill="#1B1944"/>
<path d="M128.976 71.207C132.435 71.207 135.24 68.4014 135.24 64.9404C135.24 61.4795 132.435 58.6738 128.976 58.6738C125.517 58.6738 122.712 61.4795 122.712 64.9404C122.712 68.4014 125.517 71.207 128.976 71.207Z" fill="#1B1944"/>
<path d="M105.588 71.2051L98.1265 80.9027H106.248L105.588 71.2051Z" fill="#FCC4D7"/>
<path d="M54.5144 175.032C83.0408 175.032 106.166 151.896 106.166 123.356C106.166 94.8158 83.0408 71.6797 54.5144 71.6797C25.988 71.6797 2.86279 94.8158 2.86279 123.356C2.86279 151.896 25.988 175.032 54.5144 175.032Z" fill="white"/>
<path d="M100.847 104.043C101.038 103.266 101.134 102.481 101.157 101.697C90.7576 79.1679 65.3175 66.8005 40.6124 73.5875C16.3603 80.2503 0.91866 103.141 2.77704 127.327C6.92345 129.598 11.1734 131.033 13.8833 130.658C20.8458 129.694 26.1155 122.451 25.4503 115.561C27.2776 121.631 34.0279 126.064 40.3355 124.813C46.6923 123.552 51.2658 116.786 50.554 110.434C52.5677 117.045 60.1228 121.801 66.8472 119.909C73.4628 118.044 77.3348 109.851 75.0339 103.569C77.6351 108.023 81.9032 111.581 86.9529 112.399C92.8127 113.349 99.418 109.809 100.847 104.043Z" fill="#1B1944"/>
<path d="M31.5922 147.936C35.0515 147.936 37.8559 145.13 37.8559 141.669C37.8559 138.208 35.0515 135.402 31.5922 135.402C28.1329 135.402 25.3286 138.208 25.3286 141.669C25.3286 145.13 28.1329 147.936 31.5922 147.936Z" fill="#1B1944"/>
<path d="M81.2876 134.287C84.7469 134.287 87.5512 131.481 87.5512 128.02C87.5512 124.56 84.7469 121.754 81.2876 121.754C77.8282 121.754 75.0239 124.56 75.0239 128.02C75.0239 131.481 77.8282 134.287 81.2876 134.287Z" fill="#1B1944"/>
<path d="M60.392 140.258L55.7642 151.584L63.5937 149.435L60.392 140.258Z" fill="#FCC4D7"/>
<path d="M104.357 0C75.8313 0 52.7051 23.1372 52.7051 51.676C52.7051 52.4581 52.7258 53.2349 52.7594 54.0066C58.6633 55.0087 83.4822 57.808 103.07 38.5162C103.07 38.5162 110.421 46.7379 131.8 48.8949C153.179 51.052 155.824 48.8949 155.824 48.8949C155.824 48.8949 155.858 48.8405 155.923 48.737C154.401 21.5628 131.896 0 104.357 0Z" fill="#F04C3A"/>
<path d="M53.1008 162.766C53.1008 162.766 51.1958 166.588 47.9061 165.642C43.9797 164.513 45.0306 160.445 45.0306 160.445L53.1008 162.766Z" fill="#F04C3A"/>
<path d="M118.792 86.7949C118.792 86.7949 120.047 90.8786 117.013 92.4633C113.392 94.3537 111.348 90.6844 111.348 90.6844L118.792 86.7949Z" fill="#F04C3A"/>
</g>
<defs>
<clipPath id="clip0_1692_3644">
<rect width="176" height="177" fill="white"/>
</clipPath>
</defs>
</svg>
