<svg width="35" height="34" viewBox="0 0 35 34" fill="none" xmlns="http://www.w3.org/2000/svg">
<path d="M26.6745 17.6967C26.9522 21.0148 27.2209 24.3345 27.5121 27.6511C27.6223 28.9121 27.7612 30.1716 27.9317 31.425C28.0358 32.1912 27.6902 32.5631 26.9839 32.653C24.5043 32.9649 22.0292 33.3518 19.5405 33.5392C15.7252 33.8256 11.9447 33.3682 8.1943 32.68C7.09258 32.4776 6.99448 32.3187 7.09711 31.2391C7.44724 27.5536 7.81398 23.8697 8.13997 20.1827C8.21392 19.3505 8.15053 18.5064 8.15053 17.5887C6.38627 17.5887 4.63861 17.6052 2.89095 17.5842C1.47532 17.5663 0.390197 16.5692 0.375105 15.2437C0.370577 14.7594 0.513951 14.2631 0.651289 13.7908C1.4889 10.912 2.325 8.03168 3.20336 5.16336C3.68027 3.604 4.70049 2.6249 6.35307 2.20058C8.06602 1.76126 9.72464 1.11652 11.4165 0.59174C11.8375 0.461293 12.2948 0.392322 12.7355 0.389323C15.9184 0.37283 19.1028 0.37283 22.2858 0.389323C22.7264 0.392322 23.1852 0.455296 23.6048 0.588741C25.4838 1.181 27.3371 1.85572 29.2281 2.40449C30.3162 2.72086 31.0648 3.3641 31.4391 4.35519C32.1031 6.11696 32.6948 7.90723 33.2547 9.70499C33.7105 11.1714 34.0712 12.6663 34.4786 14.1477C35.034 16.1733 33.9459 17.5827 31.8134 17.5902C30.2091 17.5962 28.6048 17.5962 27.0005 17.6007C26.9537 17.6007 26.9085 17.6277 26.673 17.6997L26.6745 17.6967ZM26.255 31.1192C26.1191 29.8717 25.9501 28.7157 25.8731 27.5536C25.5879 23.1859 25.2438 18.8197 25.1065 14.4475C25.0506 12.6558 25.3872 10.8385 25.6996 9.05875C25.8143 8.40202 26.3214 7.78278 26.7485 7.22201C27.0367 6.84417 27.5272 6.85766 27.8804 7.21002C28.229 7.55937 28.1898 7.95371 27.891 8.35404C27.6706 8.64792 27.4276 8.96129 27.328 9.30315C26.7002 11.4503 26.7485 13.6604 26.7017 15.9514C28.4795 15.9514 30.1774 15.9574 31.8753 15.9499C32.8623 15.9454 33.1551 15.5451 32.8985 14.566C32.5906 13.3905 32.3009 12.2075 31.9477 11.0454C31.3667 9.12473 30.7645 7.20852 30.114 5.3088C29.9691 4.88747 29.6673 4.3387 29.3036 4.20225C27.4699 3.51554 25.5924 2.94577 23.6516 2.30853C23.4448 3.96985 22.7853 5.3028 21.5402 6.30439C20.2815 7.31647 18.8297 7.77828 17.2148 7.71081C14.2402 7.58786 12.3325 5.85007 11.3501 2.32653C9.85896 2.81532 8.39201 3.39259 6.87375 3.76443C5.71015 4.04932 5.05364 4.69255 4.71105 5.76311C4.65823 5.92804 4.57975 6.08548 4.53146 6.25191C3.70592 9.11123 2.87435 11.9691 2.06843 14.8344C1.87375 15.5286 2.25558 15.9424 3.05093 15.9484C4.65521 15.9604 6.26101 15.9529 7.86529 15.9484C8.00414 15.9484 8.14299 15.8974 8.34975 15.8555C8.28184 14.3831 8.30296 12.9317 8.12035 11.5087C7.99056 10.4967 7.68117 9.47708 7.2601 8.54447C7.02919 8.03318 6.69415 7.64933 7.17257 7.17253C7.55289 6.79469 8.19581 6.89215 8.57009 7.51889C8.98211 8.2101 9.40468 8.98678 9.48618 9.76196C9.72615 12.0305 9.99177 14.3246 9.89518 16.5947C9.71407 20.7899 9.28093 24.9747 8.95192 29.164C8.90061 29.8192 8.83873 30.4744 8.78289 31.1297C14.6477 32.2362 20.4098 32.2437 26.255 31.1207V31.1192ZM13.0932 2.05664C13.1913 4.36119 15.0612 6.06149 17.4699 6.07348C19.9284 6.08698 21.8164 4.40017 21.9251 2.05664H13.0932Z" fill="#1B1944"/>
<path d="M17.184 33.9994C13.8185 33.9994 10.6431 33.5091 8.12724 33.0473C6.85046 32.8134 6.60144 32.485 6.72368 31.2016C6.8248 30.14 6.92742 29.0769 7.02854 28.0154C7.27756 25.4364 7.53413 22.7705 7.76654 20.1466C7.81484 19.6023 7.80276 19.0461 7.78918 18.4583C7.78616 18.2949 7.78164 18.1299 7.77862 17.962C7.37113 17.962 6.96365 17.9635 6.55767 17.965C5.35483 17.968 4.11125 17.9725 2.88879 17.9575C1.25885 17.9365 0.0167701 16.7715 0.000168848 15.2451C-0.00586798 14.7023 0.151089 14.1611 0.291446 13.6843L0.407655 13.2869C1.19395 10.585 2.00741 7.79019 2.84502 5.05082C3.36872 3.34152 4.48553 2.28896 6.26187 1.83464C7.32736 1.56175 8.39588 1.1989 9.42818 0.849548C10.0409 0.641134 10.6763 0.426722 11.3071 0.230303C11.7599 0.0893612 12.2549 0.0143921 12.7379 0.0113933C15.8981 -0.00509987 19.1128 -0.00509987 22.2911 0.0113933C22.7862 0.0143921 23.2812 0.0893612 23.7234 0.227304C24.4719 0.462708 25.2265 0.716103 25.957 0.960502C27.0617 1.32935 28.2042 1.71169 29.3391 2.04156C30.5586 2.39541 31.3856 3.12861 31.7976 4.22016C32.3923 5.79601 32.9703 7.50231 33.6192 9.59095C33.9301 10.5895 34.2003 11.6151 34.4614 12.6062C34.5882 13.086 34.7149 13.5673 34.8462 14.0456C35.1451 15.1357 35.0092 16.1298 34.4629 16.842C33.912 17.5602 32.9733 17.9575 31.8188 17.962C30.9495 17.965 30.0802 17.9665 29.2109 17.968C28.5 17.968 27.7892 17.9695 27.0783 17.9725C27.1493 18.8167 27.2187 19.6623 27.2896 20.5065C27.4828 22.838 27.6835 25.2475 27.8918 27.618C28.005 28.912 28.1454 30.176 28.3099 31.374C28.3732 31.8418 28.2948 32.2241 28.0759 32.5075C27.8571 32.7909 27.507 32.9648 27.0361 33.0233C26.3645 33.1073 25.6929 33.1987 25.0228 33.2887C23.2419 33.5271 21.3992 33.7745 19.5746 33.9124C18.7732 33.9724 17.9748 33.9994 17.187 33.9994H17.184ZM8.1529 17.2123H8.5302V17.5872C8.5302 17.8795 8.53624 18.1629 8.54228 18.4418C8.55586 19.0521 8.56944 19.6278 8.51662 20.2126C8.2842 22.8395 8.02764 25.5069 7.77862 28.0858C7.67599 29.1474 7.57337 30.209 7.47376 31.2705C7.41842 31.8553 7.68152 32.2011 8.26307 32.3081C11.3222 32.8689 15.3669 33.4746 19.5127 33.1627C21.3162 33.0278 23.1469 32.7819 24.9172 32.5435C25.5903 32.4535 26.2634 32.3636 26.9365 32.2781C27.2006 32.2451 27.3802 32.1672 27.4722 32.0487C27.5643 31.9288 27.593 31.7353 27.5568 31.4729C27.3923 30.2629 27.2504 28.987 27.1357 27.681C26.9274 25.3105 26.7267 22.898 26.5335 20.5664C26.455 19.6203 26.3766 18.6727 26.2966 17.7266L26.2709 17.4267L26.5607 17.3383C26.6527 17.3098 26.7131 17.2888 26.7569 17.2738C26.8414 17.2453 26.9093 17.2228 26.9984 17.2213C27.7333 17.2198 28.4698 17.2183 29.2048 17.2168C30.0741 17.2168 30.9419 17.2138 31.8112 17.2108C32.7394 17.2078 33.4472 16.9229 33.8577 16.3862C34.2637 15.8554 34.3527 15.1147 34.1128 14.2405C33.9799 13.7592 33.8532 13.2764 33.7264 12.7936C33.4668 11.81 33.1982 10.7935 32.8933 9.80986C32.2489 7.73621 31.6739 6.04191 31.0853 4.48105C30.7563 3.60991 30.1149 3.04614 29.1218 2.75826C27.9733 2.4254 26.8233 2.04006 25.711 1.66821C24.9836 1.42531 24.232 1.17341 23.4895 0.939511C23.1197 0.822559 22.7032 0.761085 22.2821 0.758086C19.1052 0.741593 15.8936 0.741593 12.7364 0.758086C12.3274 0.759585 11.9093 0.824059 11.5275 0.94251C10.9057 1.13593 10.2764 1.34884 9.66814 1.55576C8.62075 1.91111 7.53865 2.27696 6.44599 2.55734C4.92471 2.94718 4.00862 3.80783 3.5634 5.26673C2.7273 8.0001 1.91384 10.792 1.12906 13.4923L1.01285 13.8897C0.881545 14.338 0.747226 14.8028 0.751753 15.2346C0.763827 16.3427 1.68444 17.1898 2.89483 17.2048C4.11125 17.2198 5.35181 17.2168 6.55314 17.2123C7.08438 17.2108 7.61713 17.2093 8.15139 17.2093L8.1529 17.2123ZM17.5266 32.3381C14.6123 32.3381 11.689 32.0577 8.71433 31.4969L8.37928 31.434L8.4638 30.4713C8.50304 30.026 8.54228 29.5792 8.5785 29.1339C8.67358 27.9149 8.78073 26.6779 8.88336 25.4814C9.13388 22.5636 9.39347 19.5468 9.52024 16.5781C9.61079 14.4789 9.38139 12.3183 9.15954 10.2282L9.11426 9.80086C9.04182 9.11564 8.65547 8.39144 8.24949 7.71072C8.11819 7.49031 7.93859 7.35087 7.75749 7.32838C7.63826 7.31339 7.5296 7.35087 7.44357 7.43784C7.25039 7.63126 7.27001 7.71222 7.48281 8.13355C7.52507 8.21601 7.56733 8.30148 7.60808 8.39144C8.06084 9.39603 8.36872 10.4561 8.49851 11.4607C8.62981 12.4743 8.65848 13.5148 8.68565 14.5209C8.69772 14.9527 8.7098 15.3981 8.73093 15.8389L8.74602 16.1612L8.42758 16.2242C8.36268 16.2377 8.30382 16.2512 8.251 16.2647C8.12573 16.2947 8.00651 16.3247 7.87068 16.3247H7.71674C6.18791 16.3307 4.60627 16.3367 3.05178 16.3247C2.3666 16.3202 2.02401 16.0563 1.858 15.8359C1.70557 15.635 1.55616 15.2811 1.70859 14.7353C2.34698 12.4638 3.01405 10.1592 3.65698 7.93113L4.17161 6.14987C4.20331 6.04191 4.24255 5.94445 4.28028 5.84999C4.30593 5.78402 4.3331 5.71804 4.35423 5.65207C4.74511 4.42707 5.51783 3.71187 6.78556 3.403C7.82993 3.1481 8.8743 2.78525 9.88547 2.4329C10.3262 2.27996 10.7819 2.12102 11.2332 1.97259L11.609 1.84964L11.7146 2.22898C12.6549 5.59959 14.4071 7.22342 17.2308 7.33888C18.7611 7.40335 20.1315 6.95653 21.3041 6.01492C22.4315 5.10929 23.0774 3.8828 23.2782 2.26347L23.334 1.81065L23.7702 1.95309C24.2773 2.11953 24.7813 2.28146 25.2809 2.44189C26.7176 2.9037 28.0759 3.34152 29.4372 3.85131C30.0515 4.08072 30.3835 4.93237 30.471 5.18876C31.04 6.85308 31.6241 8.68082 32.3077 10.9374C32.5809 11.837 32.8194 12.7606 33.0488 13.6528C33.1197 13.9257 33.1891 14.1986 33.2616 14.4714C33.3657 14.8688 33.4668 15.4445 33.1423 15.8629C32.8239 16.2737 32.267 16.3232 31.8746 16.3247C30.6838 16.3307 29.4916 16.3292 28.2721 16.3277H26.3147L26.3222 15.9438C26.3283 15.6589 26.3328 15.3756 26.3373 15.0922C26.369 13.053 26.4007 11.1263 26.9636 9.19811C27.0783 8.80527 27.3334 8.46641 27.5583 8.16654L27.5869 8.12905C27.8556 7.7707 27.7409 7.60277 27.6111 7.47382C27.5039 7.36736 27.3772 7.31039 27.2685 7.31638C27.184 7.32238 27.1085 7.36586 27.0482 7.44683L26.9516 7.57428C26.5637 8.08107 26.1607 8.60435 26.0702 9.12314L26.0294 9.35555C25.7352 11.0304 25.4303 12.7606 25.4831 14.4355C25.5903 17.8525 25.8287 21.3266 26.0581 24.6867C26.123 25.6343 26.1879 26.582 26.2498 27.5296C26.3011 28.3092 26.3947 29.0829 26.4928 29.9031C26.5396 30.2884 26.5863 30.6783 26.6301 31.0786L26.6678 31.422L26.3268 31.4879C23.3748 32.0547 20.4544 32.3381 17.5251 32.3381H17.5266ZM9.19123 30.8222C14.8251 31.8463 20.2794 31.8433 25.8438 30.8162C25.8121 30.5373 25.7789 30.2629 25.7457 29.993C25.6461 29.1639 25.551 28.3797 25.4997 27.579C25.4378 26.6314 25.3729 25.6853 25.308 24.7377C25.0786 21.3716 24.8402 17.89 24.733 14.4594C24.6772 12.7082 24.9896 10.9374 25.2899 9.2266L25.3307 8.99419C25.4529 8.29698 25.9313 7.67174 26.3554 7.11997L26.452 6.99402C26.6467 6.73912 26.9199 6.58769 27.2247 6.56819C27.5537 6.5457 27.8918 6.68365 28.1529 6.94454C28.6132 7.40635 28.6298 8.0001 28.1967 8.57587L28.168 8.61335C27.9718 8.87274 27.7696 9.14263 27.6926 9.40502C27.1568 11.2373 27.1266 13.1145 27.0949 15.1012C27.0919 15.2586 27.0904 15.4161 27.0874 15.5735H28.2767C29.4946 15.575 30.6838 15.5765 31.8746 15.5705C32.2293 15.569 32.4632 15.5105 32.5477 15.4011C32.6352 15.2871 32.6307 15.0217 32.5356 14.6559C32.4632 14.383 32.3938 14.1086 32.3228 13.8342C32.0949 12.9496 31.858 12.0334 31.5894 11.1488C30.9087 8.89973 30.3277 7.08098 29.7602 5.42566C29.6153 5.00284 29.3588 4.6175 29.1746 4.54853C27.8299 4.04473 26.4807 3.60991 25.053 3.1511C24.6923 3.03565 24.3286 2.9187 23.9633 2.79875C23.6766 4.40009 22.9597 5.64457 21.7825 6.59218C20.4635 7.65225 18.9226 8.15304 17.2036 8.08257C14.1595 7.95812 12.1598 6.22933 11.1019 2.80174C10.7774 2.9112 10.4529 3.02365 10.1375 3.13311C9.10974 3.48996 8.04726 3.85881 6.96817 4.1227C5.95399 4.3701 5.38803 4.89338 5.07563 5.87098C5.04846 5.95495 5.01526 6.03741 4.98206 6.11988C4.94886 6.20084 4.91867 6.27731 4.89754 6.34928L4.3829 8.13205C3.73847 10.3586 3.07291 12.6617 2.43603 14.9303C2.39679 15.0682 2.36962 15.2586 2.46017 15.3786C2.55073 15.497 2.76805 15.566 3.05782 15.5675C4.60928 15.578 6.18791 15.5735 7.71523 15.5675H7.86917C7.89483 15.5675 7.92652 15.5615 7.96576 15.554C7.95218 15.2106 7.94312 14.8688 7.93407 14.5359C7.90539 13.5028 7.87822 12.5267 7.75145 11.5491C7.63072 10.6165 7.34397 9.62843 6.92139 8.69132C6.88517 8.61185 6.84744 8.53688 6.80971 8.46341C6.60295 8.05258 6.31771 7.49181 6.91082 6.90106C7.16135 6.65216 7.50394 6.53521 7.85257 6.57719C8.2676 6.62817 8.64943 6.89956 8.89996 7.32088C9.3497 8.07507 9.77982 8.88774 9.86736 9.7154L9.91264 10.1427C10.1375 12.2599 10.3699 14.4489 10.2779 16.6036C10.1496 19.5888 9.89 22.6131 9.63796 25.5384C9.53533 26.7334 9.42969 27.9704 9.3331 29.1864C9.29839 29.6347 9.25764 30.083 9.2184 30.5313L9.19274 30.8162L9.19123 30.8222ZM17.5009 6.44824C17.4904 6.44824 17.4798 6.44824 17.4692 6.44824C14.8643 6.43475 12.8224 4.55302 12.7167 2.07154L12.7001 1.68171H22.3213L22.3032 2.07304C22.1855 4.613 20.1677 6.44824 17.5009 6.44824ZM13.5061 2.4314C13.7732 4.33561 15.3835 5.68806 17.4738 5.69855C17.4828 5.69855 17.4919 5.69855 17.4994 5.69855C19.6093 5.69855 21.2362 4.34911 21.5124 2.4314H13.5061Z" fill="#1B1944"/>
</svg>
