<svg width="135" height="152" viewBox="0 0 135 152" fill="none" xmlns="http://www.w3.org/2000/svg">
<rect width="135" height="152" rx="35" fill="#FCD0DC"/>
<mask id="mask0_2683_2411" style="mask-type:alpha" maskUnits="userSpaceOnUse" x="0" y="0" width="135" height="152">
<rect width="135" height="152" rx="35" fill="#FCD0DC"/>
</mask>
<g mask="url(#mask0_2683_2411)">
<path d="M114.779 130.733C114.591 130.987 114.4 131.237 114.199 131.485C113.566 131.117 112.96 130.724 112.388 130.305C107.782 126.921 105.391 121.094 100.718 117.162L76.483 80.5454C75.0092 78.4708 74.3502 75.9212 74.2734 73.1842C77.5536 72.718 79.3004 70.5609 80.6184 67.0298C84.1418 57.5919 98.3034 56.0081 104.098 63.8422C106.041 66.4699 106.525 70.1416 107.041 73.2801C107.66 77.0365 109.707 79.7914 111.674 80.4874C115.622 81.886 116.756 84.0876 116.419 87.2596C116.02 91.0161 111.433 91.1187 110.228 90.996C108.246 90.7908 106.114 92.2853 105.128 94.2282C103.721 97.0054 104.593 104.297 106.118 106.907C108.85 111.587 113.736 112.959 117.509 116.187C121.706 119.776 117.198 127.458 114.779 130.733Z" fill="#34385D"/>
<path d="M114.775 130.733C114.588 130.987 114.396 131.237 114.195 131.485C111.194 135.223 106.829 138.346 102.267 139.189C97.7493 139.983 92.1337 141.266 87.9022 138.558C85.1147 136.774 84.8929 136.08 85.8889 132.952C85.6031 131.9 86.8444 129.517 87.1067 128.384C87.5055 126.664 87.4863 124.302 87.4863 122.52C87.4885 117.893 83.8862 111.226 80.8022 107.811C77.4879 104.141 74.7025 99.1156 74.7345 93.9338C74.7515 91.1499 74.4679 88.2255 74.7878 85.4573C74.9883 83.7263 76.2743 80.5587 75.5279 79.0731C74.7046 77.4358 66.2311 73.2176 72.7254 73.2801C73.2757 73.2846 73.7897 73.2533 74.2695 73.1842C77.5497 72.718 79.2965 70.5609 80.6145 67.0298C84.1379 57.5919 98.2995 56.0081 104.094 63.8422C106.037 66.4699 106.521 70.1416 107.038 73.2801C107.656 77.0365 109.703 79.7914 111.67 80.4874C115.618 81.886 116.752 84.0876 116.415 87.2596C116.017 91.0161 111.429 91.1187 110.224 90.996C108.243 90.7908 106.11 92.2853 105.124 94.2282C103.717 97.0054 104.589 104.297 106.114 106.907C108.846 111.587 114.091 112.37 117.864 115.598C122.061 119.187 117.194 127.458 114.775 130.733Z" fill="white"/>
<path d="M78.5148 88.3049C76.2242 83.7098 83.2389 85.6638 84.5058 85.4965C103.496 75.4608 85.9945 104.433 78.5148 88.3049Z" fill="#1B1944"/>
<path d="M86.2863 90.4854C86.875 90.2713 87.6044 89.9077 88.3146 89.1649C89.0419 88.4064 89.5708 87.1216 89.6071 86.7468C89.7158 85.6382 88.1781 85.7006 87.5575 86.1802C86.7108 86.8338 86.6297 87.4807 85.3948 87.6748C84.3668 87.8354 83.1725 87.8421 82.1701 87.6056C79.2524 86.12 81.4791 92.0045 86.2863 90.4854Z" fill="white"/>
<path d="M119.339 112.578C119.328 112.625 119.316 112.669 119.303 112.716C119.23 112.765 119.158 112.814 119.085 112.861C119.162 112.881 119.217 112.879 119.262 112.868C117.953 118.054 116.221 122.97 112.437 126.785C108.159 131.097 102.238 133.408 96.3136 133.222C86.5412 132.915 77.9397 126.709 67.6235 126.907C56.9638 127.11 30.0332 128.362 30.639 149.277C30.8864 157.818 33.8467 166.147 37.3956 174.008C47.5007 180.35 59.3227 183.999 71.9637 183.999C109.112 183.999 139.229 152.502 139.229 113.646C139.229 110.302 139.001 107.017 138.57 103.798C131.645 104.489 125.206 108.75 119.358 112.683C119.352 112.649 119.352 112.62 119.339 112.578Z" fill="#7781BE"/>
<path d="M83.0775 146.607C81.2156 140.992 77.8479 135.172 72.5714 132.482C66.4034 129.339 59.7449 132.116 53.8627 134.633C53.8648 134.61 53.867 134.59 53.8648 134.561C53.852 134.592 53.8371 134.621 53.8243 134.65C53.771 134.673 53.7155 134.697 53.6622 134.72C53.7113 134.744 53.7475 134.749 53.7795 134.749C52.2738 138.079 50.5164 141.175 47.5049 143.259C44.0988 145.612 39.8226 146.399 35.8407 145.498C29.2739 144.01 24.2555 136.631 17.2109 137.477C14.4383 137.809 12.0048 139.143 10 141.057C20.2117 166.292 44.1116 183.999 71.9657 183.999C77.3424 183.999 82.5699 183.337 87.5798 182.09C87.1937 176.895 86.6712 171.706 86.2127 166.531C85.6176 159.866 85.1911 152.98 83.0775 146.607Z" fill="#F6D4E0"/>
<path d="M119.339 112.578C119.328 112.625 119.316 112.669 119.303 112.716C119.23 112.765 119.158 112.814 119.085 112.861C119.162 112.881 119.217 112.879 119.262 112.868C117.953 118.054 116.221 122.97 112.437 126.785C108.159 131.097 102.238 133.408 96.3136 133.222C86.5412 132.915 77.9397 126.709 67.6235 126.907C56.9638 127.11 30.0332 128.362 30.639 149.277C30.8864 157.818 33.8467 166.147 37.3956 174.008C47.5007 180.35 59.3227 183.999 71.9637 183.999C109.112 183.999 139.229 152.502 139.229 113.646C139.229 110.302 139.001 107.017 138.57 103.798C131.645 104.489 125.206 108.75 119.358 112.683C119.352 112.649 119.352 112.62 119.339 112.578Z" fill="#7781BE"/>
<path d="M83.0775 146.607C81.2156 140.992 77.8479 135.172 72.5714 132.482C66.4034 129.339 59.7449 132.116 53.8627 134.633C53.8648 134.61 53.867 134.59 53.8648 134.561C53.852 134.592 53.8371 134.621 53.8243 134.65C53.771 134.673 53.7155 134.697 53.6622 134.72C53.7113 134.744 53.7475 134.749 53.7795 134.749C52.2738 138.079 50.5164 141.175 47.5049 143.259C44.0988 145.612 39.8226 146.399 35.8407 145.498C29.2739 144.01 24.2555 136.631 17.2109 137.477C14.4383 137.809 12.0048 139.143 10 141.057C20.2117 166.292 44.1116 183.999 71.9657 183.999C77.3424 183.999 82.5699 183.337 87.5798 182.09C87.1937 176.895 86.6712 171.706 86.2127 166.531C85.6176 159.866 85.1911 152.98 83.0775 146.607Z" fill="#FCC4D7"/>
<path d="M119.339 112.578C119.328 112.625 119.316 112.669 119.303 112.716C119.23 112.765 119.158 112.814 119.085 112.861C119.162 112.881 119.217 112.879 119.262 112.868C117.953 118.054 116.221 122.97 112.437 126.785C108.159 131.097 102.238 133.408 96.3136 133.222C86.5412 132.915 77.9397 126.709 67.6235 126.907C56.9638 127.11 30.0332 128.362 30.639 149.277C30.8864 157.818 33.8467 166.147 37.3956 174.008C47.5007 180.35 59.3227 183.999 71.9637 183.999C109.112 183.999 139.229 152.502 139.229 113.646C139.229 110.302 139.001 107.017 138.57 103.798C131.645 104.489 125.206 108.75 119.358 112.683C119.352 112.649 119.352 112.62 119.339 112.578Z" fill="#6A68CE"/>
<path d="M152.542 111.267C148.708 117.254 143.826 119.959 138.88 120.823C129.719 122.42 120.335 117.691 116.978 115.755C115.449 114.541 113.77 113.582 112.143 112.556C109.84 111.106 107.639 109.522 106.11 106.906C104.585 104.296 103.712 97.0037 105.12 94.2265C106.107 92.2836 108.24 90.7913 110.219 90.9943C111.422 91.117 116.012 91.0144 116.411 87.2579C116.748 84.0859 115.613 81.8843 111.665 80.4857C109.701 79.7897 107.652 77.0326 107.033 73.2784C106.517 70.1376 106.031 66.4682 104.09 63.8405C98.2972 56.0064 84.1334 57.5902 80.6101 67.0281C79.292 70.557 77.5453 72.7163 74.265 73.1825C74.0688 66.0065 77.8993 57.559 81.6594 53.1066C82.3888 52.2411 83.1011 51.5183 83.7986 50.9183C86.215 47.3671 93.9719 45.1476 97.058 45.1097C111.612 44.929 115.236 55.7321 126.256 63.5862C137.203 71.3868 149.518 74.9804 153.184 89.8254C155.057 97.3807 156.467 105.139 152.542 111.267Z" fill="#1B1944"/>
</g>
<path d="M30.464 34H28.832V28.036L26.384 34H25.004L22.556 28.084V34H20.972V25.492H23.156L25.712 31.636L28.208 25.492H30.464V34ZM31.9061 32.392C31.9061 31.336 32.6861 30.748 33.6701 30.604L35.1221 30.388C35.4581 30.34 35.5661 30.172 35.5661 29.968C35.5661 29.548 35.2421 29.2 34.5701 29.2C33.8741 29.2 33.4901 29.644 33.4421 30.16L32.0261 29.86C32.1221 28.936 32.9741 27.916 34.5581 27.916C36.4301 27.916 37.1261 28.972 37.1261 30.16V33.064C37.1261 33.376 37.1621 33.796 37.1981 34H35.7341C35.6981 33.844 35.6741 33.52 35.6741 33.292C35.3741 33.76 34.8101 34.168 33.9341 34.168C32.6741 34.168 31.9061 33.316 31.9061 32.392ZM34.2701 32.98C34.9421 32.98 35.5661 32.656 35.5661 31.612V31.348L34.2341 31.552C33.8261 31.612 33.5021 31.84 33.5021 32.296C33.5021 32.644 33.7541 32.98 34.2701 32.98ZM44.4588 28.096L42.0948 30.58L44.5068 34H42.5508L40.9908 31.744L40.3308 32.44V34H38.7348V25.312H40.3308V30.292L42.3708 28.096H44.4588ZM44.9373 32.392C44.9373 31.336 45.7173 30.748 46.7013 30.604L48.1533 30.388C48.4893 30.34 48.5973 30.172 48.5973 29.968C48.5973 29.548 48.2733 29.2 47.6013 29.2C46.9053 29.2 46.5213 29.644 46.4733 30.16L45.0573 29.86C45.1533 28.936 46.0053 27.916 47.5893 27.916C49.4613 27.916 50.1573 28.972 50.1573 30.16V33.064C50.1573 33.376 50.1933 33.796 50.2293 34H48.7653C48.7293 33.844 48.7053 33.52 48.7053 33.292C48.4053 33.76 47.8413 34.168 46.9653 34.168C45.7053 34.168 44.9373 33.316 44.9373 32.392ZM47.3013 32.98C47.9733 32.98 48.5973 32.656 48.5973 31.612V31.348L47.2653 31.552C46.8573 31.612 46.5333 31.84 46.5333 32.296C46.5333 32.644 46.7853 32.98 47.3013 32.98ZM53.3621 34H51.7661V28.096H53.3621V34ZM51.5741 26.164C51.5741 25.612 52.0181 25.168 52.5581 25.168C53.1101 25.168 53.5421 25.612 53.5421 26.164C53.5421 26.692 53.1101 27.136 52.5581 27.136C52.0181 27.136 51.5741 26.692 51.5741 26.164ZM63.2431 34L62.3671 33.076C61.7311 33.724 60.9991 34.156 60.0871 34.156C58.4191 34.156 57.5071 33.016 57.5071 31.876C57.5071 30.82 58.0711 30.208 58.9591 29.548L59.0191 29.512L58.8871 29.368C58.4791 28.936 57.9511 28.288 57.9511 27.52C57.9511 26.092 59.1511 25.3 60.3031 25.3C61.6591 25.3 62.6671 26.176 62.6671 27.448C62.6671 28.312 62.0791 28.936 61.4671 29.392L61.1431 29.632L62.4271 30.988L64.5751 28.744V30.736L63.3871 31.984L65.3071 34H63.2431ZM60.1111 32.764C60.6271 32.764 60.9991 32.488 61.4071 32.056L59.9551 30.52L59.7751 30.652C59.3671 30.952 59.0911 31.276 59.0911 31.78C59.0911 32.272 59.4871 32.764 60.1111 32.764ZM59.4631 27.472C59.4631 27.832 59.7511 28.18 59.9671 28.396L60.1951 28.648L60.6151 28.336C61.0111 28.048 61.1551 27.748 61.1551 27.436C61.1551 26.98 60.7951 26.62 60.2911 26.62C59.8951 26.62 59.4631 26.896 59.4631 27.472ZM74.2091 34H68.7611V25.492H70.4171V32.416H74.2091V34ZM76.9519 34H75.3559V28.096H76.9519V34ZM75.1639 26.164C75.1639 25.612 75.6079 25.168 76.1479 25.168C76.6999 25.168 77.1319 25.612 77.1319 26.164C77.1319 26.692 76.6999 27.136 76.1479 27.136C75.6079 27.136 75.1639 26.692 75.1639 26.164ZM78.1566 32.356L79.5246 32.056C79.5606 32.524 79.9086 32.956 80.6046 32.956C81.1326 32.956 81.3846 32.68 81.3846 32.368C81.3846 32.104 81.2046 31.888 80.7486 31.792L79.9686 31.612C78.8286 31.36 78.3126 30.676 78.3126 29.848C78.3126 28.792 79.2486 27.916 80.5206 27.916C82.2006 27.916 82.7646 28.984 82.8366 29.62L81.5046 29.92C81.4566 29.572 81.2046 29.128 80.5326 29.128C80.1126 29.128 79.7766 29.38 79.7766 29.716C79.7766 30.004 79.9926 30.184 80.3166 30.244L81.1566 30.424C82.3206 30.664 82.9086 31.372 82.9086 32.236C82.9086 33.196 82.1646 34.18 80.6166 34.18C78.8406 34.18 78.2286 33.028 78.1566 32.356ZM83.785 32.392C83.785 31.336 84.565 30.748 85.549 30.604L87.001 30.388C87.337 30.34 87.445 30.172 87.445 29.968C87.445 29.548 87.121 29.2 86.449 29.2C85.753 29.2 85.369 29.644 85.321 30.16L83.905 29.86C84.001 28.936 84.853 27.916 86.437 27.916C88.309 27.916 89.005 28.972 89.005 30.16V33.064C89.005 33.376 89.041 33.796 89.077 34H87.613C87.577 33.844 87.553 33.52 87.553 33.292C87.253 33.76 86.689 34.168 85.813 34.168C84.553 34.168 83.785 33.316 83.785 32.392ZM86.149 32.98C86.821 32.98 87.445 32.656 87.445 31.612V31.348L86.113 31.552C85.705 31.612 85.381 31.84 85.381 32.296C85.381 32.644 85.633 32.98 86.149 32.98Z" fill="#1B1944"/>
<mask id="mask1_2683_2411" style="mask-type:alpha" maskUnits="userSpaceOnUse" x="0" y="0" width="135" height="152">
<rect width="135" height="152" rx="35" fill="#FCD0DC"/>
</mask>
<g mask="url(#mask1_2683_2411)">
<path d="M51.9929 63.7881C51.9929 63.7881 62.2711 69.2305 62.2711 75.8812C62.2711 82.5319 61.6669 94.625 52.5971 98.2525C43.5272 101.88 36.2723 103.695 33.249 100.672C30.2258 97.6483 51.9929 63.7905 51.9929 63.7905V63.7881Z" fill="#FBFBFB"/>
<path d="M27.2059 104.901C35.065 104.296 53.2046 102.481 59.2512 109.736C65.2977 116.991 64.6936 159.919 64.087 164.151C63.4828 168.382 63.0023 172.65 64.4509 176.26C65.8995 179.871 76.1777 181.684 84.0392 181.684C91.9007 181.684 105.2 182.288 106.411 191.962C107.619 201.636 107.015 203.448 88.2732 208.891C69.5294 214.333 31.4399 228.843 25.9975 233.679C20.5551 238.515 4.23277 262.701 -10.8836 256.654C-26 250.61 -26 242.751 -26 238.517C-26 234.283 -24.1851 224.007 -21.1642 219.169C-18.1409 214.333 -11.4902 208.287 -11.4902 208.287C-11.4902 208.287 -9.67526 161.731 -9.07108 149.034C-8.4669 136.337 -3.6287 113.968 5.43875 109.734C14.5086 105.502 27.2035 104.898 27.2035 104.898L27.2059 104.901Z" fill="#1B1944"/>
<path d="M11.4642 102.194C9.06409 104.294 8.45991 101.877 6.64737 103.086C4.83483 104.294 2.41574 128.48 21.7614 133.92C41.1094 139.363 47.7601 134.525 49.5727 127.27C51.3876 120.015 46.3948 100.51 46.3948 100.51C46.3948 100.51 44.1303 101.875 42.3154 100.667C40.5005 99.4583 38.6879 97.6434 38.6879 93.4118C38.6879 89.1801 42.9196 82.5294 44.1303 81.9252C45.341 81.321 50.781 81.3211 53.2001 79.5061C55.6192 77.6912 61.6658 71.0405 61.6658 69.2279C61.6658 67.4154 59.8509 63.1814 51.9918 59.5539C44.1327 55.9265 26.9921 52.299 19.8418 63.7879C12.6915 75.2745 15.1106 84.3443 15.1106 90.3909C15.1106 96.4374 11.4642 102.196 11.4642 102.196V102.194Z" fill="#6A68CE"/>
</g>
</svg>
