<svg width="135" height="152" viewBox="0 0 135 152" fill="none" xmlns="http://www.w3.org/2000/svg">
<rect width="135" height="152" rx="35" fill="#FCD0DC"/>
<path d="M28 81.6909C28 81.6909 34.2213 91.5547 36.6638 101.415C40.8914 118.479 45.8172 141.848 45.8172 141.848L100.95 127.055C100.95 127.055 100.99 106.401 94.9563 83.7234C88.9223 61.0459 80.0924 54.791 80.0924 54.791C69.8203 57.6401 35.2039 67.2989 35.2039 67.2989L28 81.6909Z" fill="white"/>
<path d="M65.2764 62.4297L49.345 66.8482L46.9696 58.2816L50.8826 57.1964C50.8809 57.1893 50.8773 57.1805 50.8756 57.1717C50.2199 54.8051 51.6055 52.3555 53.9721 51.6998C56.3386 51.0441 58.7882 52.4297 59.4439 54.7945C59.4457 54.8033 59.4492 54.8104 59.451 54.8192L62.9027 53.8613L65.2764 62.4297Z" fill="#1B1944"/>
<path d="M49.6119 90.5135C50.4232 88.7903 51.8017 86.5598 54.0004 85.7698C56.5896 84.8401 59.0074 86.3813 60.151 86.9416C63.3181 88.4934 68.8713 88.4757 79.2778 80.7168" fill="#F04C3A"/>
<path d="M49.6101 93.5782C49.1736 93.5782 48.7282 93.4846 48.3075 93.2849C46.777 92.5638 46.1213 90.738 46.8406 89.2075C48.3906 85.9148 50.4514 83.7886 52.9664 82.8855C54.5588 82.3128 56.2661 82.2616 58.0389 82.7299C59.3556 83.0781 60.4301 83.6366 61.1424 84.0078C61.2838 84.082 61.4075 84.1456 61.4994 84.1916C62.7331 84.796 64.2866 84.849 66.2502 84.3524C69.2937 83.5818 73.06 81.5334 77.4485 78.2619C78.8041 77.251 80.7235 77.5302 81.7362 78.8858C82.7471 80.2414 82.4679 82.1608 81.1123 83.1735C78.5089 85.1142 76.0398 86.703 73.7723 87.8943C71.6408 89.0148 69.6153 89.8207 67.7543 90.2926C66.3845 90.639 65.0749 90.8123 63.8324 90.8123C62.0084 90.8123 60.3276 90.4393 58.8059 89.6953C58.6468 89.6175 58.486 89.5327 58.3146 89.4443C57.1375 88.831 56.001 88.3096 55.0378 88.656C54.1364 88.9795 53.1944 90.1035 52.3867 91.8214C51.8618 92.9278 50.7589 93.5782 49.6101 93.5782Z" fill="#F04C3A"/>
<path d="M51.89 107.745C50.5361 107.745 49.2972 106.84 48.9313 105.468C48.4966 103.833 49.4686 102.154 51.1035 101.72L82.7948 93.2785C84.4296 92.8437 86.1086 93.8158 86.5434 95.4506C86.9782 97.0855 86.0061 98.7645 84.3713 99.1993L52.68 107.64C52.4149 107.711 52.1498 107.745 51.89 107.745Z" fill="#F04C3A"/>
<path d="M55.8065 122.535C54.4526 122.535 53.2137 121.63 52.8478 120.258C52.4131 118.623 53.3851 116.944 55.02 116.51L86.7113 108.069C88.3461 107.634 90.0251 108.606 90.4599 110.241C90.8947 111.876 89.9226 113.555 88.2878 113.989L56.5965 122.43C56.3332 122.501 56.068 122.535 55.8065 122.535Z" fill="#F04C3A"/>
<path d="M38.1325 78.0433L35.2941 67.3311L28.0919 81.723L38.1325 78.0433Z" fill="#FCC4D7"/>
<path d="M81.1033 67.9375L91.5434 76.2425L80.126 79.9664L81.1033 67.9375Z" fill="#6A68CE"/>
<path d="M81.1033 67.9373C88.2471 58.9554 103.427 40 103.427 40L107.768 40.3959L112.063 43.4977L114 48.0841C114 48.0841 98.6889 67.2622 91.5451 76.2423C90.8364 75.979 87.3793 74.657 87.3793 74.657L83.7526 71.5269C83.7526 71.5269 81.5204 68.5683 81.1033 67.9373Z" fill="#F04C3A"/>
<path d="M80.5024 75.3398L84.8043 78.4416L80.126 79.9669L80.5024 75.3398Z" fill="#1B1944"/>
<path d="M83.7527 71.5265L108.065 40.6924L112.061 43.6881L87.3794 74.6548L83.7527 71.5265Z" fill="#FCC4D7"/>
<path d="M103.427 40L105.234 44.263L109.097 47.4425L113.998 48.0823L112.061 43.4977L107.768 40.3959L103.427 40Z" fill="#6A68CE"/>
<path d="M110.616 45.1611C111.051 44.5567 110.554 43.4546 109.505 42.6996C108.456 41.9446 107.253 41.8226 106.818 42.427C106.383 43.0315 106.88 44.1335 107.929 44.8885C108.978 45.6435 110.181 45.7656 110.616 45.1611Z" fill="#1B1944"/>
</svg>
