<svg width="29" height="35" viewBox="0 0 29 35" fill="none" xmlns="http://www.w3.org/2000/svg">
<path fill-rule="evenodd" clip-rule="evenodd" d="M20.4841 0.0464953C23.2295 -0.344335 25.6857 1.77854 25.6857 4.54213V6.81525C27.6568 7.85354 29 9.91727 29 12.2936V28.8074C29 32.2275 26.2178 35 22.7857 35H6.21429C2.78223 35 0 32.2275 0 28.8074V5.68815C0 5.67279 0.000280319 5.6575 0.000836216 5.64229C0.000279726 5.61852 0 5.59469 0 5.57079C0 4.07422 1.10429 2.8054 2.59099 2.59375L20.4841 0.0464953ZM2.48571 8.57805V28.8074C2.48571 30.8594 4.15505 32.5229 6.21429 32.5229H22.7857C24.8449 32.5229 26.5143 30.8594 26.5143 28.8074V12.2936C26.5143 10.2416 24.8449 8.57805 22.7857 8.57805H2.48571ZM3.01777 6.10099H23.2V4.54213C23.2 3.28595 22.0835 2.32101 20.8356 2.49866L2.94252 5.04591C2.68041 5.08323 2.48571 5.30693 2.48571 5.57079C2.48571 5.86361 2.72392 6.10099 3.01777 6.10099ZM6.62857 17.2478C6.62857 16.5637 7.18502 16.0092 7.87143 16.0092H21.1286C21.815 16.0092 22.3714 16.5637 22.3714 17.2478C22.3714 17.9318 21.815 18.4863 21.1286 18.4863H7.87143C7.18502 18.4863 6.62857 17.9318 6.62857 17.2478ZM6.62857 23.0276C6.62857 22.3435 7.18502 21.789 7.87143 21.789H16.9857C17.6721 21.789 18.2286 22.3435 18.2286 23.0276C18.2286 23.7116 17.6721 24.2661 16.9857 24.2661H7.87143C7.18502 24.2661 6.62857 23.7116 6.62857 23.0276Z" fill="#1B1944"/>
</svg>
