<svg width="136" height="153" viewBox="0 0 136 153" fill="none" xmlns="http://www.w3.org/2000/svg">
<rect width="135" height="152" rx="35" fill="#FCC4D7"/>
<path d="M23.6048 29.7215H24.9128C25.7408 29.7215 26.2448 29.2415 26.2448 28.5095C26.2448 27.7535 25.7408 27.2855 24.9128 27.2855H23.6048V29.7215ZM25.1168 31.1495H23.5928V34.3535H21.9368V25.8455H25.1168C26.7968 25.8455 27.9128 26.9615 27.9128 28.4975C27.9128 30.0455 26.7968 31.1495 25.1168 31.1495ZM30.6902 34.3535H29.0942V28.4495H30.6902V34.3535ZM28.9022 26.5175C28.9022 25.9655 29.3462 25.5215 29.8862 25.5215C30.4382 25.5215 30.8702 25.9655 30.8702 26.5175C30.8702 27.0455 30.4382 27.4895 29.8862 27.4895C29.3462 27.4895 28.9022 27.0455 28.9022 26.5175ZM35.0509 29.7455C34.2349 29.7455 33.5509 30.3335 33.5509 31.4015C33.5509 32.4695 34.2469 33.0695 35.0629 33.0695C35.8789 33.0695 36.2869 32.5295 36.4189 32.0735L37.8229 32.5415C37.5589 33.5255 36.6349 34.5335 35.0629 34.5335C33.3229 34.5335 31.9549 33.2135 31.9549 31.4015C31.9549 29.5775 33.2989 28.2695 35.0149 28.2695C36.6229 28.2695 37.5349 29.2655 37.7869 30.2615L36.3589 30.7415C36.2149 30.2495 35.8429 29.7455 35.0509 29.7455ZM44.7205 28.4495L42.3565 30.9335L44.7685 34.3535H42.8125L41.2525 32.0975L40.5925 32.7935V34.3535H38.9965V25.6655H40.5925V30.6455L42.6325 28.4495H44.7205ZM47.2957 30.9575V34.3535H45.6997V28.4495H47.2477V29.1815C47.6077 28.5695 48.3157 28.2935 48.9517 28.2935C50.4157 28.2935 51.0877 29.3375 51.0877 30.6335V34.3535H49.4917V30.9095C49.4917 30.2495 49.1677 29.7335 48.3997 29.7335C47.7037 29.7335 47.2957 30.2735 47.2957 30.9575ZM54.3035 34.3535H52.7075V28.4495H54.3035V34.3535ZM52.5155 26.5175C52.5155 25.9655 52.9595 25.5215 53.4995 25.5215C54.0515 25.5215 54.4835 25.9655 54.4835 26.5175C54.4835 27.0455 54.0515 27.4895 53.4995 27.4895C52.9595 27.4895 52.5155 27.0455 52.5155 26.5175ZM58.6642 29.7455C57.8482 29.7455 57.1642 30.3335 57.1642 31.4015C57.1642 32.4695 57.8602 33.0695 58.6762 33.0695C59.4922 33.0695 59.9002 32.5295 60.0322 32.0735L61.4362 32.5415C61.1722 33.5255 60.2482 34.5335 58.6762 34.5335C56.9362 34.5335 55.5682 33.2135 55.5682 31.4015C55.5682 29.5775 56.9122 28.2695 58.6282 28.2695C60.2362 28.2695 61.1482 29.2655 61.4002 30.2615L59.9722 30.7415C59.8282 30.2495 59.4562 29.7455 58.6642 29.7455ZM68.3338 28.4495L65.9698 30.9335L68.3818 34.3535H66.4258L64.8658 32.0975L64.2058 32.7935V34.3535H62.6098V25.6655H64.2058V30.6455L66.2458 28.4495H68.3338ZM70.2074 30.7295H72.8474C72.8234 30.1415 72.4394 29.5655 71.5274 29.5655C70.6994 29.5655 70.2434 30.1895 70.2074 30.7295ZM73.0034 32.2655L74.3354 32.6615C74.0354 33.6815 73.0994 34.5335 71.6474 34.5335C70.0274 34.5335 68.5994 33.3695 68.5994 31.3775C68.5994 29.4935 69.9914 28.2695 71.5034 28.2695C73.3274 28.2695 74.4194 29.4335 74.4194 31.3295C74.4194 31.5575 74.3954 31.7975 74.3954 31.8215H70.1714C70.2074 32.6015 70.8674 33.1655 71.6594 33.1655C72.4034 33.1655 72.8114 32.7935 73.0034 32.2655ZM77.2722 30.9575V34.3535H75.6762V28.4495H77.2242V29.1815C77.5842 28.5695 78.2922 28.2935 78.9282 28.2935C80.3922 28.2935 81.0642 29.3375 81.0642 30.6335V34.3535H79.4682V30.9095C79.4682 30.2495 79.1442 29.7335 78.3762 29.7335C77.6802 29.7335 77.2722 30.2735 77.2722 30.9575Z" fill="#1B1944"/>
<mask id="mask0_2682_1793" style="mask-type:alpha" maskUnits="userSpaceOnUse" x="0" y="0" width="135" height="153">
<rect y="0.353516" width="135" height="152" rx="35" fill="#FCC4D7"/>
</mask>
<g mask="url(#mask0_2682_1793)">
<g clip-path="url(#clip0_2682_1793)">
<path d="M129.923 125.138L111.396 124.922C111.886 127.147 112.267 129.204 112.465 130.911C112.47 130.96 112.476 131.011 112.482 131.06C118.808 131.294 125.49 131.574 131.816 131.854L129.924 125.138H129.923Z" fill="white"/>
<path d="M53.8672 112.841L66.546 112.937L66.7159 106.357C62.5407 106.476 58.22 106.556 53.8859 106.571C53.9422 108.771 53.9544 111.023 53.8672 112.842V112.841Z" fill="#F1503C"/>
<path d="M105.558 99.6705C105.889 100.712 106.293 101.999 106.737 103.453L124.538 103.652L123.312 99.3027C117.748 99.4206 111.957 99.5494 105.557 99.6705H105.558Z" fill="#F1503C"/>
<path d="M89.9688 125.507L90.2325 131.299C95.2439 131.349 102.074 131.546 109.515 131.815L108.297 125.722L89.9688 125.508V125.507Z" fill="#F1503C"/>
<path d="M109.964 134.889L90.3574 134.879L90.6465 141.223L111.229 141.216L109.964 134.889Z" fill="white"/>
<path d="M69.1815 109.087C69.2587 109.869 69.2377 111.218 69.1462 112.959L79.6105 113.037C82.2861 112.915 84.996 112.783 87.6551 112.65L87.3285 105.458C82.0335 105.75 75.6648 106.065 68.8262 106.284C68.9707 107.249 69.0932 108.196 69.1815 109.087Z" fill="white"/>
<path d="M86.9876 138.587C86.9303 137.995 86.9689 136.65 87.0726 134.878L67.5916 134.868C67.3522 137.043 67.1072 139.196 66.8711 141.23L87.3208 141.223C87.1609 140.071 87.0406 139.134 86.9876 138.587Z" fill="#F1503C"/>
<path d="M68.5039 123.146C74.7578 122.77 81.5368 122.413 87.8558 122.258C87.8878 121.925 87.9198 121.594 87.9518 121.264L87.6749 115.157L79.6093 115.096C75.9748 115.262 72.4065 115.408 69.1174 115.514C68.9938 117.636 68.7753 120.273 68.5039 123.144V123.146Z" fill="#F1503C"/>
<path d="M101.318 122.263C103.25 122.332 105.533 122.411 108.064 122.496L106.623 115.285L90.5234 115.164C90.3138 116.924 90.0865 119.05 89.8691 121.264L89.9144 122.255C94.0001 122.156 97.8906 122.142 101.317 122.263H101.318Z" fill="white"/>
<path d="M104.542 103.704L90.642 103.857L90.2988 100.706C95.1404 100.797 99.1875 99.8538 103.776 99.9258C103.48 100.958 104.804 102.556 104.541 103.704H104.542Z" fill="white"/>
<path d="M91.1666 108.792C91.0264 109.28 90.8179 110.686 90.584 112.598C96.4594 112.302 102.024 112.003 106.337 111.8L104.926 104.736C102.163 104.776 99.8809 104.838 98.3561 104.927C96.3248 105.047 93.8091 105.2 90.9227 105.364C91.214 106.833 91.3585 108.126 91.1666 108.793V108.792Z" fill="#F1503C"/>
<path d="M106.812 104.725C107.449 106.811 108.165 109.221 108.871 111.733C110.774 111.647 112.372 111.585 113.561 111.557C116.101 111.497 121.183 111.647 127.119 111.888L125.094 104.701C118.591 104.667 111.96 104.661 106.814 104.724L106.812 104.725Z" fill="white"/>
<path d="M50.2104 112.807L51.9228 106.572C50.4189 106.568 48.9161 106.556 47.421 106.533C45.2033 106.5 42.8443 106.434 40.407 106.341C40.0748 107.411 39.7107 108.293 39.3268 108.751C38.9373 109.214 37.9663 110.699 36.7129 112.706L50.2104 112.807Z" fill="white"/>
<path d="M64.4643 135.279L46.1374 135.27C45.375 137.06 44.5905 138.893 43.8203 140.686C49.8745 140.947 57.0761 141.27 64.3021 141.595L64.4654 135.279H64.4643Z" fill="white"/>
<path d="M148.084 114.766L129.93 114.63C131.078 117.422 132.155 120.167 132.953 122.455C139.593 122.669 146.129 122.877 151.602 123.051L148.086 114.766H148.084Z" fill="white"/>
<path d="M111.143 121.739C116.672 121.924 123.168 122.137 129.717 122.349L127.537 114.611L109.289 114.474C109.959 116.911 110.602 119.398 111.143 121.74V121.739Z" fill="#F1503C"/>
<path d="M9.41578 122.548C10.8899 120.109 12.6277 117.468 14.3942 114.892C7.50034 114.76 1.24758 114.64 -3.08092 114.557C-4.49433 116.762 -5.77093 118.675 -6.56424 119.689C-6.95815 120.192 -7.67202 121.12 -8.60547 122.337L9.41578 122.548Z" fill="#F1503C"/>
<path d="M48.8058 122.966L50.8537 115.51C46.8716 115.437 42.179 115.35 37.226 115.257C36.3058 116.739 35.2554 118.463 34.1818 120.256L33.084 122.783L48.8058 122.966Z" fill="#F1503C"/>
<path d="M45.7918 133.008L47.6112 126.386C47.5472 126.385 47.481 126.384 47.4214 126.382C45.5777 126.319 39.4706 126.11 31.8276 125.846L28.3652 133.816C32.7886 133.63 39.005 133.335 45.7929 133.009L45.7918 133.008Z" fill="white"/>
<path d="M30.0078 141C32.3856 141.077 36.0532 141.224 40.4887 141.413L41.9507 136.092L24.7139 136.083L22.5977 140.955C25.612 140.929 28.1652 140.94 30.0078 141Z" fill="#F1503C"/>
<path d="M58.4972 115.675C57.2868 115.656 55.7013 115.629 53.8267 115.595C53.7561 116.634 53.6457 117.487 53.4813 118.04C53.275 118.737 52.5556 120.56 51.5449 123.018L66.3344 123.191L66.5297 115.598C63.4392 115.678 60.6896 115.71 58.4972 115.674V115.675Z" fill="white"/>
<path d="M66.3309 125.354C60.2624 125.728 54.8427 126.097 51.0482 126.277C50.2384 128.229 49.2873 130.485 48.2832 132.849C54.2248 132.564 60.439 132.266 66.1588 132.005L66.3298 125.353L66.3309 125.354Z" fill="#F1503C"/>
<path d="M87.258 131.29C87.3915 129.496 87.5603 127.502 87.7446 125.504L68.4964 125.279C68.2945 127.404 68.065 129.656 67.8223 131.919C73.8279 131.65 79.1637 131.43 82.8777 131.323C84.0428 131.289 85.5235 131.28 87.2569 131.29H87.258Z" fill="white"/>
<path d="M17.5987 114.933L13.1797 122.579L30.2167 122.778C30.7144 121.935 31.2186 121.089 31.7173 120.257L33.8965 115.243C28.544 115.142 22.9235 115.035 17.5987 114.934V114.933Z" fill="white"/>
<path d="M133.18 125.177C133.223 125.306 133.266 125.433 133.307 125.559C133.906 127.374 134.425 129.61 134.872 131.991C142.859 132.351 150.057 132.701 154.927 132.943L151.722 125.394L133.18 125.177Z" fill="#F1503C"/>
<path d="M112.734 135.301C112.974 137.377 113.222 139.534 113.464 141.627L133.988 141.621L132.211 135.311L112.735 135.301H112.734Z" fill="#F1503C"/>
<path d="M130.166 111.981C136.232 112.242 142.932 112.579 148.631 112.88L145.239 104.89L130.66 104.733C129.468 104.724 128.259 104.716 127.041 104.709C128.006 106.903 129.101 109.431 130.166 111.982V111.981Z" fill="#F1503C"/>
<path d="M53.9512 101.797C53.9887 102.666 54.0284 103.665 54.0615 104.734L66.4876 104.318L66.588 101.393C62.873 101.36 58.8711 101.901 53.9512 101.797Z" fill="white"/>
<path d="M134.227 144.528C126.87 144.746 119.363 144.95 113.623 145.07C113.932 147.752 114.22 150.27 114.453 152.299L136.406 152.262L134.227 144.527V144.528Z" fill="white"/>
<path d="M87.4516 144.827C81.4019 144.566 74.1583 144.24 66.8706 143.913C66.4766 147.296 66.107 150.341 65.8301 152.582L88.6024 152.544C88.2284 150.104 87.7848 147.163 87.4516 144.825V144.827Z" fill="white"/>
<path d="M20.4365 103.812C21.3755 102.541 22.1942 101.45 22.8264 100.615C12.1822 100.356 4.66832 98.8945 4.66832 98.8945C4.66832 98.8945 3.81652 100.32 2.56641 102.377L20.4376 103.811L20.4365 103.812Z" fill="#F1503C"/>
<path d="M127.034 103.664L130.66 103.703C136.32 103.746 141.559 103.803 145.233 103.848L143.13 98.8945C143.13 98.8945 135.518 99.0724 125.088 99.294C125.606 100.445 126.281 101.951 127.034 103.664Z" fill="white"/>
<path d="M87.2686 103.69L69.0113 104.511L68.6328 101.468C76.0927 101.584 82.7349 100.748 87.2422 100.748C87.433 100.748 87.6272 100.748 87.8225 100.748C87.635 101.682 87.4452 102.678 87.2675 103.69H87.2686Z" fill="#F1503C"/>
<path d="M111.511 145.296C107.841 145.368 105.002 145.401 103.562 145.373C101.551 145.332 96.8195 145.146 90.6914 144.883L91.039 152.543L112.951 152.506L111.51 145.296H111.511Z" fill="#F1503C"/>
<path d="M64.2984 144.524L43.405 144.531C42.0016 147.794 40.6731 150.867 39.6426 153.242L64.0744 153.201L64.2984 144.524Z" fill="#F1503C"/>
<path d="M-3.03406 112.427L14.5834 112.56C16.3476 109.994 18.1318 107.502 19.7019 105.352C13.0045 104.895 6.77596 104.39 2.20583 103.998C0.699733 106.471 -1.27088 109.671 -3.03516 112.428L-3.03406 112.427Z" fill="white"/>
<path d="M4.62896 134.013C5.24795 132.664 5.85922 131.332 6.444 130.058C7.10271 128.623 8.0174 126.95 9.08876 125.154C2.20377 124.916 -4.23878 124.692 -8.71182 124.537C-10.5522 126.938 -13.2014 130.413 -15.9355 134.002L4.62896 134.013Z" fill="white"/>
<path d="M22.9492 103.821L37.9837 104.19L39.3011 101.159C34.2918 101.053 29.3201 100.732 24.7985 100.622L22.9503 103.821H22.9492Z" fill="white"/>
<path d="M41.375 103.999L51.7709 104.536L51.2645 101.605C48.4851 101.542 44.7381 101.052 41.8219 100.969C41.7005 101.891 41.5493 102.951 41.375 103.999Z" fill="#F1503C"/>
<path d="M34.1068 112.698L36.9016 106.266C31.9983 106.059 26.8422 105.757 21.9025 105.427L17.7715 112.575L34.1079 112.698H34.1068Z" fill="#F1503C"/>
<path d="M39.6494 144.53L21.3865 144.536L17.5898 153.275L37.2562 153.241L39.6494 144.53Z" fill="white"/>
<path d="M15.4182 153.276C16.12 151.061 17.2498 147.511 18.2208 144.537L-0.327881 144.543L-5.39453 153.31L15.4182 153.276Z" fill="#F1503C"/>
<path d="M-3.27788 142.131C-2.628 140.408 1.5361 137.924 2.20143 136.161C-3.77329 136.157 -13.3869 136.116 -17.7948 136.091C-19.0902 138.158 -23.4198 140.175 -24.6445 142.131C-19.9685 141.912 -10.3626 142.392 -3.27677 142.131H-3.27788Z" fill="#F1503C"/>
<path d="M24.5247 133.882C25.5287 131.971 27.2379 128.973 29.086 125.826C23.8759 125.646 17.995 125.443 12.2806 125.245L7.21289 134.014L20.0527 134.021C20.4367 134.014 20.7909 134.008 21.1031 133.999C21.9527 133.978 23.1146 133.938 24.5236 133.882H24.5247Z" fill="#F1503C"/>
<path d="M21.7603 137.693C21.8849 137.364 22.1542 136.807 22.5326 136.081L18.1346 136.079C15.2692 136.128 10.5313 136.147 5.25061 136.149L1.37891 142.132C7.934 141.937 15.3133 141.031 20.6348 140.968C21.1148 139.518 21.5197 138.327 21.7603 137.693Z" fill="white"/>
<path d="M132.89 124.831C132.89 124.831 142.145 129.824 141.864 131.488C141.584 133.153 141.023 133.707 136.816 133.43C132.609 133.153 130.646 132.043 130.646 132.043L132.89 124.83V124.831Z" fill="#1B1944"/>
<path d="M29.1231 54.9268C29.1231 54.9268 33.8907 57.4238 33.8907 60.4752C33.8907 63.5266 33.6105 69.0751 29.4033 70.7394C25.1962 72.4037 21.8309 73.2364 20.4286 71.8493C19.0262 70.4622 29.1231 54.9278 29.1231 54.9278V54.9268Z" fill="#1B1944"/>
<path d="M33.8896 86.6971L36.4141 94.5941C36.4141 94.5941 38.6573 83.2211 39.2189 80.4469C39.7805 77.6727 40.341 72.4025 42.5841 71.5698C44.8273 70.7371 49.0344 70.1827 49.0344 71.2926C49.0344 72.4025 47.9123 72.4025 47.632 72.9569C47.3518 73.5113 47.0715 74.6212 46.2297 74.8984C45.3878 75.1757 44.8273 74.8984 44.8273 75.7312C44.8273 76.5639 45.3878 100.733 41.462 102.38C37.5351 104.027 33.6094 101.319 33.6094 101.319L33.8896 86.6982V86.6971Z" fill="#1B1944"/>
<path d="M17.6243 73.7892C21.2698 73.512 29.684 72.6793 32.4888 76.008C35.2936 79.3366 35.0133 99.0322 34.7319 100.974C34.4517 102.915 34.2288 104.873 34.9008 106.53C35.5727 108.186 40.3403 109.018 43.987 109.018C47.6336 109.018 53.8025 109.295 54.3641 113.734C54.9246 118.172 54.6444 119.004 45.9509 121.501C37.2564 123.998 19.5883 130.655 17.0638 132.874C14.5393 135.093 6.96797 146.19 -0.0439095 143.415C-7.05469 140.641 -7.05469 137.035 -7.05469 135.094C-7.05469 133.152 -6.21282 128.437 -4.81155 126.217C-3.40917 123.998 -0.324162 121.224 -0.324162 121.224C-0.324162 121.224 0.517704 99.8638 0.797958 94.0382C1.07821 88.2126 3.32246 77.9495 7.52848 76.0069C11.7356 74.0654 17.6243 73.7882 17.6243 73.7882V73.7892Z" fill="#6A68CE"/>
<path d="M4.16186 100.974C4.16186 100.974 6.405 101.806 7.52712 101.806C8.64924 101.806 10.9751 100.974 10.9751 100.974L11.4529 107.631C11.4529 107.631 32.2061 118.45 33.6085 119.282C35.0108 120.115 37.8156 120.947 37.8156 122.888C37.8156 124.83 37.5353 126.217 36.4132 126.217C35.2911 126.217 33.6085 123.998 32.2061 123.165C30.8037 122.333 14.5379 116.508 12.8553 115.953C11.1726 115.398 6.12806 114.288 5.8456 113.594C5.56313 112.901 6.21963 112.346 6.31232 111.653C6.405 110.96 5.00262 109.85 4.44212 107.075C3.88161 104.301 4.16186 100.973 4.16186 100.973V100.974Z" fill="#1B1944"/>
<path d="M10.3234 72.5478C9.21014 73.5115 8.92988 72.4027 8.08912 72.9571C7.24835 73.5115 6.12623 84.6083 15.0999 87.1043C24.0747 89.6013 27.1597 87.3815 28.0004 84.0528C28.8423 80.7242 26.5263 71.7751 26.5263 71.7751C26.5263 71.7751 25.4759 72.4016 24.6341 71.8472C23.7922 71.2928 22.9514 70.4601 22.9514 68.5185C22.9514 66.577 24.9143 63.5256 25.4759 63.2484C26.0375 62.9712 28.5609 62.9712 29.6831 62.1385C30.8052 61.3058 33.6099 58.2544 33.6099 57.4228C33.6099 56.5911 32.7681 54.6485 29.1226 52.9842C25.477 51.3199 17.5251 49.6556 14.2095 54.9257C10.8928 60.1959 12.0149 64.3572 12.0149 67.1314C12.0149 69.9056 10.3234 72.5478 10.3234 72.5478Z" fill="#F1503C"/>
<path d="M95.8709 74.067C95.8709 74.067 99.1754 75.0569 100.467 74.5614C101.76 74.066 104.004 71.0156 104.004 71.0156C104.004 71.0156 109.031 72.561 109.462 74.2853C109.894 76.0086 110.59 79.7519 109.12 80.6545C107.65 81.557 99.5175 81.0015 96.993 77.1185C94.4685 73.2343 95.8709 74.067 95.8709 74.067Z" fill="#1B1944"/>
<path d="M98.9564 96.2587C98.9564 96.2587 99.2367 101.862 98.9564 102.527C98.6762 103.193 82.4093 114.289 81.0069 115.122C79.6045 115.954 78.4824 117.34 78.4824 118.173C78.4824 119.006 79.3243 121.225 80.1651 121.225C81.0058 121.225 82.1279 118.728 82.6896 118.45C83.2512 118.173 102.281 109.435 102.281 109.435L102.747 95.0244L98.9564 96.2576V96.2587Z" fill="white"/>
<path d="M96.4306 135.798C96.4306 135.798 82.6882 134.817 80.7253 132.875C78.7625 130.934 77.0798 127.327 81.0056 123.998C84.9325 120.67 93.3456 119.994 96.4306 120.054C99.5156 120.114 131.768 119.837 131.768 119.837C131.768 119.837 133.731 121.778 133.731 124.553C133.731 127.327 132.329 132.043 132.329 132.043L140.181 133.707C140.181 133.707 140.742 136.481 140.742 137.313C140.742 138.144 140.462 140.641 140.462 140.641H103.429C101.759 140.641 99.7959 140.364 98.3935 139.254C96.9911 138.144 96.4306 135.797 96.4306 135.797V135.798Z" fill="#1B1944"/>
<path d="M102.32 78.2276C100.918 78.782 98.955 79.892 98.6748 82.1118C98.3945 84.3316 96.4316 95.7046 96.4316 95.7046C96.4316 95.7046 98.1143 97.3252 99.3765 97.4856C100.639 97.6461 102.321 97.3307 102.321 96.379C102.321 95.4274 100.468 120.548 100.468 120.548L132.33 120.117C132.33 120.117 128.964 109.298 128.403 105.693C127.842 102.087 128.683 96.5384 128.683 96.5384L127.281 92.377C127.281 92.377 131.768 91.8226 133.17 91.2671C134.573 90.7127 135.695 89.0484 135.695 89.0484C135.695 89.0484 134.573 87.9385 134.292 87.3841C134.012 86.8297 130.927 79.0625 127.562 78.7842C124.197 78.507 117.466 79.8941 113.539 79.6169C109.612 79.3397 109.332 78.2298 107.369 77.9526C105.406 77.6754 102.321 78.2298 102.321 78.2298L102.32 78.2276Z" fill="#F1503C"/>
<path d="M133.731 89.0469C133.731 89.0469 137.658 100.143 137.658 102.362C137.658 104.582 132.077 120.394 131.502 121.225C130.927 122.058 127.281 127.605 125.318 126.496C123.355 125.386 123.075 124.554 123.916 123.444C124.757 122.334 127.281 119.838 127.281 118.451C127.281 117.064 128.123 113.181 128.403 111.238C128.683 109.297 130.646 104.026 130.366 102.917C130.086 101.807 126.72 91.5439 126.72 91.5439L133.731 89.0469Z" fill="white"/>
<path d="M104.283 58.5322C104.283 58.5322 99.5157 59.3649 100.638 66.8538C101.76 74.3427 105.686 74.0665 107.368 74.6209C109.051 75.1754 109.611 79.3367 109.611 79.3367C109.611 79.3367 111.574 81.2782 115.221 80.4466C118.866 79.6139 119.148 72.6794 117.464 67.4093C115.781 62.1391 104.283 58.5322 104.283 58.5322Z" fill="white"/>
<path d="M101.479 57.9782C101.759 57.4238 109.892 51.3209 115.781 55.2039C121.671 59.0881 121.11 62.4167 121.671 66.0225C122.232 69.6284 126.719 72.1254 127.281 73.5125C127.841 74.8996 128.546 79.0707 128.546 79.0707C128.546 79.0707 125.878 78.5054 124.476 79.6153C123.074 80.7252 119.372 83.9622 117.465 85.1638C114.38 87.1053 106.528 84.8866 106.808 84.0539C107.088 83.2211 108.469 83.8017 109.461 82.957C110.453 82.1123 111.295 76.8422 110.734 74.6224C110.173 72.4037 109.186 71.4313 109.258 69.9754C109.331 68.5195 109.331 65.1909 108.49 64.9137C107.65 64.6365 104.564 64.3593 103.442 62.9722C102.32 61.5851 101.48 57.9793 101.48 57.9793L101.479 57.9782Z" fill="#1B1944"/>
<path d="M42.782 122.949C43.8697 122.949 44.7515 122.138 44.7515 121.138C44.7515 120.137 43.8697 119.326 42.782 119.326C41.6943 119.326 40.8125 120.137 40.8125 121.138C40.8125 122.138 41.6943 122.949 42.782 122.949Z" fill="#F1503C"/>
<path d="M46.3269 119.689C47.4147 119.689 48.2964 118.878 48.2964 117.877C48.2964 116.877 47.4147 116.065 46.3269 116.065C45.2392 116.065 44.3574 116.877 44.3574 117.877C44.3574 118.878 45.2392 119.689 46.3269 119.689Z" fill="#F1503C"/>
<path d="M46.3269 123.152C47.4147 123.152 48.2964 122.341 48.2964 121.34C48.2964 120.339 47.4147 119.528 46.3269 119.528C45.2392 119.528 44.3574 120.339 44.3574 121.34C44.3574 122.341 45.2392 123.152 46.3269 123.152Z" fill="#F1503C"/>
<path d="M49.4793 121.5C50.567 121.5 51.4488 120.689 51.4488 119.689C51.4488 118.688 50.567 117.877 49.4793 117.877C48.3915 117.877 47.5098 118.688 47.5098 119.689C47.5098 120.689 48.3915 121.5 49.4793 121.5Z" fill="#F1503C"/>
<path d="M50.1804 124.32C51.2682 124.32 52.1499 123.508 52.1499 122.508C52.1499 121.507 51.2682 120.696 50.1804 120.696C49.0927 120.696 48.2109 121.507 48.2109 122.508C48.2109 123.508 49.0927 124.32 50.1804 124.32Z" fill="#F1503C"/>
<path d="M52.8933 122.025C53.9811 122.025 54.8628 121.214 54.8628 120.213C54.8628 119.212 53.9811 118.401 52.8933 118.401C51.8056 118.401 50.9238 119.212 50.9238 120.213C50.9238 121.214 51.8056 122.025 52.8933 122.025Z" fill="#F1503C"/>
<path d="M55.5183 123.836C56.6061 123.836 57.4878 123.025 57.4878 122.025C57.4878 121.024 56.6061 120.213 55.5183 120.213C54.4306 120.213 53.5488 121.024 53.5488 122.025C53.5488 123.025 54.4306 123.836 55.5183 123.836Z" fill="#F1503C"/>
<path d="M51.8875 119.325C52.9752 119.325 53.857 118.514 53.857 117.514C53.857 116.513 52.9752 115.702 51.8875 115.702C50.7998 115.702 49.918 116.513 49.918 117.514C49.918 118.514 50.7998 119.325 51.8875 119.325Z" fill="#F1503C"/>
<path d="M40.8132 119.74C40.8132 119.74 46.2836 121.342 49.2373 121.348C52.1911 121.353 57.4872 120.784 57.4872 120.784C57.4872 120.784 57.9374 124.577 56.7281 126.047C55.5188 127.517 51.4485 129.009 51.4485 129.009H45.1273C45.1273 129.009 42.0092 127.976 40.8132 126.065C38.9308 123.059 40.8132 119.739 40.8132 119.739V119.74Z" fill="#FCD0DC"/>
<path d="M59.1133 126.275C59.1133 126.275 61.7338 124.343 64.6665 124.057C67.5993 123.771 68.2547 121.244 70.2451 121.505C72.2356 121.766 76.9392 126.277 76.9392 126.277C76.9392 126.277 73.297 132.359 68.1609 132.647C63.0247 132.934 59.1133 126.277 59.1133 126.277V126.275Z" fill="#6A68CE"/>
<path d="M59.283 125.059C59.283 125.059 65.1419 127.062 68.3052 127.069C71.4686 127.075 77.1399 126.364 77.1399 126.364C77.1399 126.364 77.622 131.11 76.3267 132.949C75.0313 134.788 70.673 136.655 70.673 136.655H63.9039C63.9039 136.655 60.5651 135.362 59.2841 132.972C57.2694 129.211 59.2841 125.059 59.2841 125.059H59.283Z" fill="#1B1944"/>
<path d="M43.8491 149.207C55.9451 149.207 65.7508 147.044 65.7508 144.376C65.7508 141.709 55.9451 139.546 43.8491 139.546C31.753 139.546 21.9473 141.709 21.9473 144.376C21.9473 147.044 31.753 149.207 43.8491 149.207Z" fill="#FCD0DC"/>
<path d="M37.8655 132.27C37.8655 132.27 35.5352 128.163 32.4789 128.368C29.4236 128.573 28.9823 135.275 28.9823 135.275C28.9823 135.275 26.1842 134.987 25.0014 137.046C23.8185 139.106 24.5357 142.095 24.5357 142.095C24.5357 142.095 26.9576 148.215 34.2873 145.37C41.6169 142.525 52.5082 139.369 48.4909 136.091C44.4724 132.814 37.8655 132.27 37.8655 132.27Z" fill="#1B1944"/>
<path d="M38.3413 147.257C40.3991 147.257 42.0674 145.55 42.0674 143.444C42.0674 141.338 40.3991 139.631 38.3413 139.631C36.2835 139.631 34.6152 141.338 34.6152 143.444C34.6152 145.55 36.2835 147.257 38.3413 147.257Z" fill="white"/>
<path d="M53.537 148.19C57.1268 148.19 60.0369 147.108 60.0369 145.775C60.0369 144.441 57.1268 143.359 53.537 143.359C49.9472 143.359 47.0371 144.441 47.0371 145.775C47.0371 147.108 49.9472 148.19 53.537 148.19Z" fill="white"/>
<path d="M56.6835 145.733C60.2733 145.733 63.1834 144.651 63.1834 143.318C63.1834 141.984 60.2733 140.902 56.6835 140.902C53.0937 140.902 50.1836 141.984 50.1836 143.318C50.1836 144.651 53.0937 145.733 56.6835 145.733Z" fill="white"/>
<path d="M51.6327 145.818C55.2225 145.818 58.1327 144.736 58.1327 143.402C58.1327 142.069 55.2225 140.987 51.6327 140.987C48.0429 140.987 45.1328 142.069 45.1328 143.402C45.1328 144.736 48.0429 145.818 51.6327 145.818Z" fill="white"/>
<path d="M40.0636 137.767C40.0636 137.767 41.7374 144.546 49.4378 143.953C57.1382 143.36 57.5663 135.23 57.5663 135.23L40.0625 137.767H40.0636Z" fill="#F1503C"/>
</g>
</g>
<defs>
<clipPath id="clip0_2682_1793">
<rect width="195.185" height="102" fill="white" transform="translate(-33 51.3535)"/>
</clipPath>
</defs>
</svg>
