<svg width="23" height="47" viewBox="0 0 23 47" fill="none" xmlns="http://www.w3.org/2000/svg">
<path fill-rule="evenodd" clip-rule="evenodd" d="M11.2533 0C7.44408 0 4.35611 2.97157 4.35611 6.63719C4.35611 10.3028 7.44408 13.2744 11.2533 13.2744C15.0625 13.2744 18.1505 10.3028 18.1505 6.63719C18.1505 2.97157 15.0625 0 11.2533 0ZM6.53416 6.63719C6.53416 4.12913 8.64698 2.09595 11.2533 2.09595C13.8596 2.09595 15.9724 4.12913 15.9724 6.63719C15.9724 9.14524 13.8596 11.1784 11.2533 11.1784C8.64698 11.1784 6.53416 9.14524 6.53416 6.63719Z" fill="#1B1944"/>
<path fill-rule="evenodd" clip-rule="evenodd" d="M11.2533 15.3703C8.29209 15.3703 5.55769 16.0281 3.52576 17.1455C1.52463 18.2459 0 19.9257 0 22.0075C0 24.0893 1.52463 25.7692 3.52576 26.8696C5.55769 27.9869 8.29209 28.6447 11.2533 28.6447C14.2145 28.6447 16.9489 27.9869 18.9808 26.8696C20.9819 25.7692 22.5066 24.0893 22.5066 22.0075C22.5066 19.9257 20.9819 18.2459 18.9808 17.1455C16.9489 16.0281 14.2145 15.3703 11.2533 15.3703ZM2.17805 22.0075C2.17805 21.0025 2.92877 19.8878 4.60638 18.9653C6.25318 18.0597 8.60091 17.4663 11.2533 17.4663C13.9057 17.4663 16.2534 18.0597 17.9002 18.9653C19.5778 19.8878 20.3285 21.0025 20.3285 22.0075C20.3285 23.0126 19.5778 24.1273 17.9002 25.0498C16.2534 25.9554 13.9057 26.5488 11.2533 26.5488C8.60091 26.5488 6.25318 25.9554 4.60638 25.0498C2.92877 24.1273 2.17805 23.0126 2.17805 22.0075Z" fill="#1B1944"/>
<circle cx="11.5" cy="43.5" r="3.5" fill="#1B1944"/>
</svg>
