<svg width="135" height="152" viewBox="0 0 135 152" fill="none" xmlns="http://www.w3.org/2000/svg">
<rect width="135" height="152" rx="35" fill="#1B1944"/>
<mask id="mask0_2683_2631" style="mask-type:alpha" maskUnits="userSpaceOnUse" x="0" y="0" width="135" height="152">
<rect width="135" height="152" rx="35" fill="#FCC4D7"/>
</mask>
<g mask="url(#mask0_2683_2631)">
<path d="M54.1499 69.3997C55.206 67.9351 54.2066 66.6219 55.2858 65.3571C56.3923 64.0593 57.7885 65.0409 59.1511 63.8112C60.774 62.3487 59.5605 60.2648 61.0826 58.6991C62.6195 57.1202 64.4167 58.6618 66.3126 57.1532C68.4458 55.4557 67.4044 52.5176 69.3822 51.446C70.9169 50.616 71.8638 52.208 73.8164 51.5646C76.6193 50.6401 76.613 46.7139 78.8175 46.4525C80.5139 46.2527 81.1711 48.5013 82.7962 48.2356C84.9797 47.8799 85.1309 43.6067 87.1149 43.3607C88.7967 43.1521 89.5 46.121 91.5492 46.0946C93.6613 46.0661 94.2933 42.893 96.2102 43.0028C97.9948 43.106 98.1669 45.897 100.302 46.3318C102.406 46.76 103.334 44.2764 105.419 44.6673C107.64 45.0845 107.588 48.0929 109.966 48.7099C112.19 49.2853 113.33 46.94 115.31 47.6405C117.332 48.3564 116.861 51.0617 119.062 52.0389C121.157 52.97 122.755 51.0354 124.292 52.1575C125.644 53.1457 124.798 54.9353 126.223 56.0816C127.8 57.3486 129.723 55.8774 130.884 57.151C131.806 58.1633 130.806 59.3293 131.68 60.7171C132.847 62.5727 135.388 61.6921 136.568 63.451C137.405 64.6983 136.076 65.7677 136.794 67.1358C137.756 68.9627 140.376 68.0954 141.229 69.7511C142.081 71.4112 139.864 73.0976 140.66 75.1003C141.443 77.07 144.061 76.633 144.525 78.3107C145.056 80.2299 141.888 81.7473 142.06 84.255C142.194 86.2072 144.909 86.1127 145.321 88.1791C145.717 90.1774 143.547 91.0228 143.786 93.3504C144.017 95.6012 146.175 96.0602 146.003 97.8081C145.82 99.6527 143.349 99.8262 143.104 101.732C142.845 103.735 145.409 104.839 144.978 106.37C144.533 107.955 141.598 107.437 140.886 109.222C140.175 111.005 142.633 112.696 141.909 114.394C141.241 115.962 138.892 115.116 137.475 117.068C136.335 118.638 137.42 119.787 136.28 121.526C135.087 123.351 133.546 122.622 131.846 124.559C130.46 126.135 130.951 127.224 129.799 129.016C128.997 130.264 127.621 131.509 124.342 132.582C93.0692 142.833 79.6657 138.825 79.6657 138.825C71.6476 136.153 65.9032 132.567 62.2626 129.897C59.7284 128.037 57.4861 126.089 55.332 123.735C51.9874 120.079 45.9218 113.847 47.9479 109.222C48.5127 107.933 50.4862 106.374 50.165 104.051C49.8417 101.712 47.5217 100.955 47.7778 99.2355C48.0361 97.4963 50.4988 97.672 51.1875 95.6693C51.9748 93.3812 49.1887 91.9209 49.6527 88.7149C49.976 86.4773 51.4688 86.2489 51.3576 84.4351C51.198 81.8483 48.0718 80.7635 48.4581 79.4416C48.8486 78.1109 52.1512 78.7806 52.7202 77.3006C53.3689 75.6185 49.6569 73.304 50.333 71.5934C50.8264 70.3725 52.9238 71.0994 54.1499 69.3997Z" fill="#FCC4D7"/>
<path d="M64.8892 105.739C63.6924 122.909 44.5362 133.908 30.0535 135.939C28.4263 136.168 26.7908 136.33 25.1574 136.491L22.514 136.993C15.9256 139.009 8.2623 140.041 1.72431 138.223C-4.2342 136.567 -9.25841 132.547 -11.6897 124.747C-15.9371 111.119 -5.98522 94.5137 2.42766 84.8693C6.23834 80.4994 10.6453 77.1704 15.384 75.0931C23.4546 71.5599 32.4932 71.6609 41.2189 76.4634C51.1287 81.9158 65.8172 92.4078 64.8892 105.739Z" fill="#F1503C"/>
<path d="M14.1897 96.858C14.4584 91.7305 15.3906 87.0884 19.89 84.3106C23.9253 81.8182 28.5149 81.8885 32.3193 84.8837C34.2446 86.3989 35.603 88.5509 37.0412 90.5382C41.4628 89.3216 46.6886 89.1569 45.2756 95.5712C44.2237 100.345 42.0549 103.129 42.7393 108.325C43.5582 114.539 44.9712 120.547 45.2294 126.845C45.4792 132.934 46.0251 138.877 46.7327 144.924C47.2807 149.608 47.6565 155.322 43.2033 158.113C38.5927 161.002 32.6972 158.589 28.8844 155.377C19.7913 147.717 18.6197 133.819 17.57 122.513C17.0892 117.348 17.6456 112.35 13.627 108.731C10.7465 106.136 5.02519 101.555 9.74917 97.8022C10.7213 97.0314 14.1897 96.858 14.1897 96.858Z" fill="white"/>
<path d="M31.9247 100.274C34.4568 100.252 33.575 103.3 32.542 104.681C31.1521 106.543 28.7397 106.863 26.6192 106.622C25.2125 106.462 21.3514 105.548 21.5929 103.422C21.8301 101.339 26.1678 101.068 27.5976 100.902C27.5955 100.902 30.8372 100.282 31.9247 100.274Z" fill="#6A68CE"/>
<path d="M140.478 121.125C140.478 159.476 110.682 189.648 84.1097 189.648C76.3897 189.648 64.1094 185.587 60.3512 175.313C56.255 162.568 56.1332 163.277 55.917 152.989C55.5055 133.391 73.7904 132.218 81.0297 132.027C88.0337 131.843 93.8747 137.658 100.509 137.945C104.532 138.119 103.717 130.24 106.621 126.199C109.189 122.627 126.067 109.585 131.74 110.362C139.517 110.329 140.478 117.782 140.478 121.125Z" fill="#6A68CE"/>
<path d="M78.7259 137.692C78.4571 136.704 79.6224 134.473 79.8659 133.41C80.2396 131.798 80.2207 129.585 80.2207 127.916C80.2228 123.581 76.8489 117.334 73.9578 114.132C70.8526 110.693 68.2428 105.983 68.2722 101.13C68.289 98.5214 68.0224 95.781 68.3226 93.1876C68.5095 91.567 69.7167 88.596 69.0155 87.2038C68.2449 85.6688 60.3023 81.7162 66.3889 81.7755C70.4201 81.815 72.3663 79.7113 73.7814 75.919C77.0819 67.0761 90.3532 65.5895 95.7805 72.9304C97.6008 75.392 97.6113 78.9516 98.5393 81.7733C99.6038 85.0122 101.038 87.8735 102.879 88.5279C106.576 89.8388 107.641 91.9008 107.324 94.874C106.95 98.3941 102.65 98.4907 101.523 98.3743C99.6667 98.1833 97.668 99.5821 96.7442 101.402C95.4256 104.005 96.2424 110.838 97.6722 113.282C100.232 117.668 104.811 118.954 108.346 121.978C112.281 125.342 108.057 132.543 105.791 135.61C102.98 139.418 98.6296 142.692 94.0714 143.533C89.8388 144.277 84.5773 145.479 80.6113 142.94C77.9994 141.273 77.7916 140.621 78.7259 137.692Z" fill="#1B1944"/>
<path d="M71.8108 95.8535C69.663 91.5473 76.2367 93.3787 77.425 93.2206C80.2048 92.8517 81.9411 89.8082 85.1912 91.8284C87.4356 93.225 77.9079 108.078 71.8108 95.8535C72.0565 96.3476 71.4497 95.1311 71.8108 95.8535Z" fill="#6A68CE"/>
<path d="M79.0937 97.8984C79.6459 97.6964 80.3282 97.356 80.9959 96.6621C81.6762 95.9507 82.1738 94.7495 82.2073 94.3982C82.3081 93.3595 80.8678 93.4188 80.2863 93.8668C79.4926 94.4794 79.417 95.0855 78.2602 95.2656C77.2965 95.4171 76.1795 95.4215 75.2389 95.2019C74.6469 95.0635 73.8973 94.5914 73.7714 95.4807C73.6853 96.0846 74.586 96.829 75.1907 97.3868C75.9171 98.0565 77.9684 98.3091 79.0937 97.8984Z" fill="white"/>
<path d="M105.34 118.924C108.296 122.554 111.252 126.184 114.208 129.811C115.134 130.712 116.449 130.852 117.347 130.226C118.267 129.585 118.355 128.41 118.363 128.257C119.781 130.16 122.033 130.237 122.932 129.254C123.581 128.542 123.621 127.163 123.033 125.918C123.812 126.55 124.868 126.548 125.542 125.977C126.363 125.283 126.495 123.852 125.676 122.888C125.75 122.916 126.707 123.259 127.471 122.657C128.156 122.117 128.393 121.05 127.973 120.114C126.386 117.429 124.801 114.741 123.213 112.055C122.575 111.491 121.714 111.331 120.99 111.649C120.221 111.987 119.925 112.725 119.867 112.881C119.289 112.152 118.363 111.827 117.486 112.046C116.619 112.262 115.938 112.973 115.728 113.88C115.497 113.788 113.749 113.114 112.016 114.159C110.564 115.035 110.127 116.515 110.041 116.831C109.925 116.77 108.336 115.957 106.824 116.882C105.745 117.543 105.411 118.661 105.34 118.924Z" fill="white"/>
<path d="M26.696 27.52L25.208 27.976C25.124 27.508 24.74 26.776 23.66 26.776C22.856 26.776 22.328 27.292 22.328 27.856C22.328 28.324 22.628 28.696 23.252 28.816L24.44 29.044C25.988 29.344 26.816 30.352 26.816 31.552C26.816 32.86 25.724 34.18 23.744 34.18C21.488 34.18 20.492 32.728 20.36 31.516L21.896 31.108C21.968 31.948 22.556 32.704 23.756 32.704C24.644 32.704 25.136 32.26 25.136 31.66C25.136 31.168 24.764 30.784 24.104 30.652L22.916 30.412C21.56 30.136 20.684 29.26 20.684 27.976C20.684 26.464 22.04 25.312 23.648 25.312C25.712 25.312 26.504 26.56 26.696 27.52ZM27.7108 32.392C27.7108 31.336 28.4908 30.748 29.4748 30.604L30.9268 30.388C31.2628 30.34 31.3708 30.172 31.3708 29.968C31.3708 29.548 31.0468 29.2 30.3748 29.2C29.6788 29.2 29.2948 29.644 29.2468 30.16L27.8308 29.86C27.9268 28.936 28.7788 27.916 30.3628 27.916C32.2348 27.916 32.9308 28.972 32.9308 30.16V33.064C32.9308 33.376 32.9668 33.796 33.0028 34H31.5388C31.5028 33.844 31.4788 33.52 31.4788 33.292C31.1788 33.76 30.6148 34.168 29.7388 34.168C28.4788 34.168 27.7108 33.316 27.7108 32.392ZM30.0748 32.98C30.7467 32.98 31.3708 32.656 31.3708 31.612V31.348L30.0388 31.552C29.6308 31.612 29.3068 31.84 29.3068 32.296C29.3068 32.644 29.5588 32.98 30.0748 32.98ZM36.1355 30.604V34H34.5395V28.096H36.0875V28.828C36.4475 28.216 37.1555 27.94 37.7915 27.94C39.2555 27.94 39.9275 28.984 39.9275 30.28V34H38.3315V30.556C38.3315 29.896 38.0075 29.38 37.2395 29.38C36.5435 29.38 36.1355 29.92 36.1355 30.604ZM47.1753 25.312V32.932C47.1753 33.328 47.1993 33.76 47.2233 34H45.6993C45.6753 33.88 45.6393 33.592 45.6393 33.316C45.3753 33.784 44.7753 34.144 43.9833 34.144C42.3033 34.144 41.1033 32.824 41.1033 31.036C41.1033 29.308 42.2673 27.952 43.9353 27.952C44.9553 27.952 45.4353 28.372 45.6033 28.684V25.312H47.1753ZM42.7113 31.036C42.7113 32.092 43.3353 32.716 44.1753 32.716C44.9913 32.716 45.6273 32.092 45.6273 31.024C45.6273 29.968 44.9913 29.38 44.1753 29.38C43.3593 29.38 42.7113 29.98 42.7113 31.036ZM52.5067 28.072V29.68C52.3267 29.644 52.1707 29.632 52.0267 29.632C51.2107 29.632 50.5027 30.028 50.5027 31.3V34H48.9067V28.096H50.4547V28.972C50.8147 28.192 51.6307 28.048 52.1347 28.048C52.2667 28.048 52.3867 28.06 52.5067 28.072ZM53.3045 32.392C53.3045 31.336 54.0845 30.748 55.0685 30.604L56.5205 30.388C56.8565 30.34 56.9645 30.172 56.9645 29.968C56.9645 29.548 56.6405 29.2 55.9685 29.2C55.2725 29.2 54.8885 29.644 54.8405 30.16L53.4245 29.86C53.5205 28.936 54.3725 27.916 55.9565 27.916C57.8285 27.916 58.5245 28.972 58.5245 30.16V33.064C58.5245 33.376 58.5605 33.796 58.5965 34H57.1325C57.0965 33.844 57.0725 33.52 57.0725 33.292C56.7725 33.76 56.2085 34.168 55.3325 34.168C54.0725 34.168 53.3045 33.316 53.3045 32.392ZM55.6685 32.98C56.3405 32.98 56.9645 32.656 56.9645 31.612V31.348L55.6325 31.552C55.2245 31.612 54.9005 31.84 54.9005 32.296C54.9005 32.644 55.1525 32.98 55.6685 32.98ZM68.3056 34L67.4296 33.076C66.7936 33.724 66.0616 34.156 65.1496 34.156C63.4816 34.156 62.5696 33.016 62.5696 31.876C62.5696 30.82 63.1336 30.208 64.0216 29.548L64.0816 29.512L63.9496 29.368C63.5416 28.936 63.0136 28.288 63.0136 27.52C63.0136 26.092 64.2136 25.3 65.3656 25.3C66.7216 25.3 67.7296 26.176 67.7296 27.448C67.7296 28.312 67.1416 28.936 66.5296 29.392L66.2056 29.632L67.4896 30.988L69.6376 28.744V30.736L68.4496 31.984L70.3696 34H68.3056ZM65.1736 32.764C65.6896 32.764 66.0616 32.488 66.4696 32.056L65.0176 30.52L64.8376 30.652C64.4296 30.952 64.1536 31.276 64.1536 31.78C64.1536 32.272 64.5496 32.764 65.1736 32.764ZM64.5256 27.472C64.5256 27.832 64.8136 28.18 65.0296 28.396L65.2576 28.648L65.6776 28.336C66.0736 28.048 66.2176 27.748 66.2176 27.436C66.2176 26.98 65.8576 26.62 65.3536 26.62C64.9576 26.62 64.5256 26.896 64.5256 27.472ZM80.0156 34H73.3196V32.392L77.7476 27.064H73.4756V25.492H79.9556V27.04L75.4556 32.416H80.0156V34ZM83.9376 32.728C84.7176 32.728 85.4376 32.164 85.4376 31.048C85.4376 29.932 84.7176 29.368 83.9376 29.368C83.1576 29.368 82.4376 29.932 82.4376 31.048C82.4376 32.152 83.1576 32.728 83.9376 32.728ZM83.9376 27.916C85.7016 27.916 87.0336 29.224 87.0336 31.048C87.0336 32.86 85.7016 34.18 83.9376 34.18C82.1736 34.18 80.8416 32.86 80.8416 31.048C80.8416 29.224 82.1736 27.916 83.9376 27.916ZM92.134 34C92.11 33.88 92.086 33.604 92.086 33.364C91.762 33.916 91.078 34.156 90.454 34.156C89.026 34.156 88.21 33.112 88.21 31.828V28.096H89.806V31.504C89.806 32.164 90.142 32.692 90.886 32.692C91.594 32.692 92.002 32.212 92.002 31.528V28.096H93.598V32.932C93.598 33.388 93.634 33.796 93.658 34H92.134ZM99.7772 34H94.8932V32.596L97.6892 29.476H94.9652V28.096H99.7292V29.428L96.8492 32.608H99.7772V34ZM100.789 32.392C100.789 31.336 101.569 30.748 102.553 30.604L104.005 30.388C104.341 30.34 104.449 30.172 104.449 29.968C104.449 29.548 104.125 29.2 103.453 29.2C102.757 29.2 102.373 29.644 102.325 30.16L100.909 29.86C101.005 28.936 101.857 27.916 103.441 27.916C105.313 27.916 106.009 28.972 106.009 30.16V33.064C106.009 33.376 106.045 33.796 106.081 34H104.617C104.581 33.844 104.557 33.52 104.557 33.292C104.257 33.76 103.693 34.168 102.817 34.168C101.557 34.168 100.789 33.316 100.789 32.392ZM103.153 32.98C103.825 32.98 104.449 32.656 104.449 31.612V31.348L103.117 31.552C102.709 31.612 102.385 31.84 102.385 32.296C102.385 32.644 102.637 32.98 103.153 32.98ZM109.214 30.604V34H107.618V28.096H109.166V28.828C109.526 28.216 110.234 27.94 110.87 27.94C112.334 27.94 113.006 28.984 113.006 30.28V34H111.41V30.556C111.41 29.896 111.086 29.38 110.318 29.38C109.622 29.38 109.214 29.92 109.214 30.604Z" fill="white"/>
</g>
</svg>
