<svg width="29" height="29" viewBox="0 0 29 29" fill="none" xmlns="http://www.w3.org/2000/svg">
<path fill-rule="evenodd" clip-rule="evenodd" d="M13.6109 3.58461C13.1164 4.23028 12.5584 5.2265 11.7477 6.6808L11.3362 7.41905C11.3114 7.46354 11.2869 7.50762 11.2627 7.55127C10.885 8.23093 10.5663 8.80457 10.0527 9.19449C9.53351 9.58861 8.90064 9.73084 8.16513 9.89615C8.11787 9.90677 8.07017 9.91749 8.02206 9.92837L7.22296 10.1092C5.64658 10.4659 4.57418 10.7113 3.83965 11.0008C3.12287 11.2833 2.97156 11.5147 2.91389 11.7002C2.85303 11.8959 2.85121 12.1953 3.27973 12.8761C3.71466 13.567 4.44839 14.4288 5.52147 15.6837L6.06625 16.3208C6.09791 16.3578 6.12928 16.3944 6.16034 16.4307C6.66642 17.021 7.0884 17.5133 7.28196 18.1358C7.47436 18.7545 7.41059 19.4046 7.33327 20.193C7.32853 20.2413 7.32374 20.2902 7.31895 20.3396L7.23659 21.1896C7.07448 22.8626 6.96517 24.0145 7.00214 24.8443C7.03903 25.6725 7.21396 25.9015 7.35304 26.0071C7.47674 26.101 7.7054 26.2049 8.45035 25.9915C9.20741 25.7745 10.2136 25.3142 11.6896 24.6346L12.4378 24.29C12.4839 24.2688 12.5295 24.2477 12.5748 24.2268C13.2589 23.9105 13.8524 23.6361 14.5 23.6361C15.1476 23.6361 15.7411 23.9105 16.4252 24.2268C16.4705 24.2477 16.5161 24.2688 16.5622 24.29L17.3104 24.6346C18.7864 25.3142 19.7926 25.7745 20.5496 25.9915C21.2946 26.2049 21.5233 26.101 21.647 26.0071C21.786 25.9015 21.961 25.6725 21.9979 24.8443C22.0348 24.0145 21.9255 22.8626 21.7634 21.1896L21.6811 20.3396C21.6763 20.2902 21.6715 20.2413 21.6667 20.193C21.5894 19.4047 21.5256 18.7545 21.718 18.1358C21.9116 17.5133 22.3336 17.021 22.8397 16.4307C22.8707 16.3944 22.9021 16.3578 22.9338 16.3208L23.4785 15.6837C24.5516 14.4288 25.2853 13.567 25.7203 12.8761C26.1488 12.1953 26.147 11.8959 26.0861 11.7002C26.0284 11.5147 25.8771 11.2833 25.1604 11.0008C24.4258 10.7113 23.3534 10.4659 21.777 10.1092L20.9779 9.92837C20.9298 9.91748 20.8821 9.90677 20.8349 9.89614C20.0994 9.73084 19.4665 9.58861 18.9473 9.19449C18.4337 8.80458 18.115 8.23093 17.7374 7.55127C17.7131 7.50762 17.6886 7.46354 17.6638 7.41904L17.2523 6.68079C16.4417 5.22649 15.8836 4.23028 15.3891 3.58461C14.8952 2.93954 14.6429 2.88374 14.5 2.88374C14.3571 2.88374 14.1048 2.93954 13.6109 3.58461ZM12.1154 2.4393C12.714 1.65759 13.4538 1 14.5 1C15.5462 1 16.286 1.65759 16.8846 2.4393C17.4728 3.2074 18.0965 4.32639 18.8588 5.69398L19.3091 6.50185C19.802 7.38617 19.9281 7.57403 20.0863 7.6941C20.2385 7.80969 20.4349 7.87415 21.3936 8.09107L22.2727 8.28998C23.749 8.62398 24.9652 8.89914 25.851 9.24822C26.7704 9.61059 27.575 10.1447 27.8848 11.1408C28.1913 12.1267 27.8468 13.0337 27.3143 13.8796C26.797 14.7015 25.9706 15.6679 24.9612 16.8483L24.3653 17.5451C23.7161 18.3043 23.5805 18.4901 23.5167 18.6951C23.4517 18.9042 23.4578 19.1457 23.5559 20.1579L23.6457 21.0849C23.7986 22.6622 23.9233 23.9485 23.8796 24.9281C23.8352 25.9252 23.6088 26.8828 22.7859 27.5075C21.9477 28.1438 20.9723 28.0721 20.0308 27.8023C19.1179 27.5407 17.9797 27.0166 16.5977 26.3802L15.7744 26.0011C14.8736 25.5863 14.6807 25.5198 14.5 25.5198C14.3193 25.5198 14.1264 25.5863 13.2256 26.0011L12.4023 26.3802C11.0203 27.0166 9.88213 27.5407 8.96919 27.8023C8.02766 28.0721 7.05235 28.1438 6.21411 27.5075C5.39124 26.8828 5.16479 25.9252 5.12037 24.9281C5.07673 23.9485 5.2014 22.6622 5.35428 21.0848L5.4441 20.1579C5.54218 19.1457 5.54829 18.9042 5.48329 18.6951C5.41954 18.4901 5.28392 18.3043 4.63469 17.5451L4.03885 16.8483C3.02941 15.6679 2.20303 14.7015 1.68566 13.8796C1.15318 13.0337 0.808656 12.1267 1.11522 11.1408C1.42498 10.1447 2.22958 9.61059 3.14903 9.24822C4.03479 8.89914 5.25102 8.62398 6.72733 8.28998L6.80728 8.27189L7.60638 8.09107C8.56506 7.87415 8.76147 7.80969 8.91372 7.6941C9.07189 7.57403 9.198 7.38617 9.69093 6.50185L10.1412 5.69397C10.9035 4.32638 11.5272 3.2074 12.1154 2.4393Z" fill="#1C274C"/>
<path d="M6.80728 8.27189L6.72733 8.28998C5.25102 8.62398 4.03479 8.89914 3.14903 9.24822C2.22958 9.61059 1.42498 10.1447 1.11522 11.1408C0.808656 12.1267 1.15318 13.0337 1.68566 13.8796C2.20303 14.7015 3.02941 15.6679 4.03885 16.8483L4.63469 17.5451C5.28392 18.3043 5.41954 18.4901 5.48329 18.6951C5.54829 18.9042 5.54218 19.1457 5.4441 20.1579L5.35428 21.0848C5.2014 22.6622 5.07673 23.9485 5.12037 24.9281C5.16479 25.9252 5.39124 26.8828 6.21411 27.5075C7.05235 28.1438 8.02766 28.0721 8.96919 27.8023C9.88213 27.5407 11.0203 27.0166 12.4023 26.3802L13.2256 26.0011C14.1264 25.5863 14.3193 25.5198 14.5 25.5198C14.6807 25.5198 14.8736 25.5863 15.7744 26.0011L16.5977 26.3802C17.9797 27.0166 19.1179 27.5407 20.0308 27.8023C20.9723 28.0721 21.9477 28.1438 22.7859 27.5075C23.6088 26.8828 23.8352 25.9252 23.8796 24.9281C23.9233 23.9485 23.7986 22.6622 23.6457 21.0849L23.5559 20.1579C23.4578 19.1457 23.4517 18.9042 23.5167 18.6951C23.5805 18.4901 23.7161 18.3043 24.3653 17.5451L24.9612 16.8483C25.9706 15.6679 26.797 14.7015 27.3143 13.8796C27.8468 13.0337 28.1913 12.1267 27.8848 11.1408C27.575 10.1447 26.7704 9.61059 25.851 9.24822C24.9652 8.89914 23.749 8.62398 22.2727 8.28998L21.3936 8.09107C20.4349 7.87415 20.2385 7.80969 20.0863 7.6941C19.9281 7.57403 19.802 7.38617 19.3091 6.50185L18.8588 5.69398C18.0965 4.32639 17.4728 3.2074 16.8846 2.4393C16.286 1.65759 15.5462 1 14.5 1C13.4538 1 12.714 1.65759 12.1154 2.4393C11.5272 3.2074 10.9035 4.32638 10.1412 5.69397L9.69093 6.50185C9.198 7.38617 9.07189 7.57403 8.91372 7.6941C8.76147 7.80969 8.56506 7.87415 7.60638 8.09107L6.80728 8.27189ZM6.80728 8.27189L7.01512 9.19054M11.7477 6.6808C12.5584 5.2265 13.1164 4.23028 13.6109 3.58461C14.1048 2.93954 14.3571 2.88374 14.5 2.88374C14.6429 2.88374 14.8952 2.93954 15.3891 3.58461C15.8836 4.23028 16.4417 5.22649 17.2523 6.68079L17.6638 7.41904C17.6886 7.46354 17.7131 7.50762 17.7374 7.55127C18.115 8.23093 18.4337 8.80458 18.9473 9.19449C19.4665 9.58861 20.0994 9.73084 20.8349 9.89614C20.8821 9.90677 20.9298 9.91748 20.9779 9.92837L21.777 10.1092C23.3534 10.4659 24.4258 10.7113 25.1604 11.0008C25.8771 11.2833 26.0284 11.5147 26.0861 11.7002C26.147 11.8959 26.1488 12.1953 25.7203 12.8761C25.2853 13.567 24.5516 14.4288 23.4785 15.6837L22.9338 16.3208C22.9021 16.3578 22.8707 16.3944 22.8397 16.4307C22.3336 17.021 21.9116 17.5133 21.718 18.1358C21.5256 18.7545 21.5894 19.4047 21.6667 20.193C21.6715 20.2413 21.6763 20.2902 21.6811 20.3396L21.7634 21.1896C21.9255 22.8626 22.0348 24.0145 21.9979 24.8443C21.961 25.6725 21.786 25.9015 21.647 26.0071C21.5233 26.101 21.2946 26.2049 20.5496 25.9915C19.7926 25.7745 18.7864 25.3142 17.3104 24.6346L16.5622 24.29C16.5161 24.2688 16.4705 24.2477 16.4252 24.2268C15.7411 23.9105 15.1476 23.6361 14.5 23.6361C13.8524 23.6361 13.2589 23.9105 12.5748 24.2268C12.5295 24.2477 12.4839 24.2688 12.4378 24.29L11.6896 24.6346C10.2136 25.3142 9.20741 25.7745 8.45035 25.9915C7.7054 26.2049 7.47674 26.101 7.35304 26.0071C7.21396 25.9015 7.03903 25.6725 7.00214 24.8443C6.96517 24.0145 7.07448 22.8626 7.23659 21.1896L7.31895 20.3396C7.32374 20.2902 7.32853 20.2413 7.33327 20.193C7.41059 19.4046 7.47436 18.7545 7.28196 18.1358C7.0884 17.5133 6.66642 17.021 6.16034 16.4307C6.12928 16.3944 6.09791 16.3578 6.06625 16.3208L5.52147 15.6837C4.44839 14.4288 3.71466 13.567 3.27973 12.8761C2.85121 12.1953 2.85303 11.8959 2.91389 11.7002C2.97156 11.5147 3.12287 11.2833 3.83965 11.0008C4.57418 10.7113 5.64658 10.4659 7.22296 10.1092L8.02206 9.92837C8.07017 9.91749 8.11787 9.90677 8.16513 9.89615C8.90064 9.73084 9.53351 9.58861 10.0527 9.19449C10.5663 8.80457 10.885 8.23093 11.2627 7.55127C11.2869 7.50762 11.3114 7.46354 11.3362 7.41905L11.7477 6.6808Z" stroke="#1B1944"/>
</svg>
