<svg width="135" height="152" viewBox="0 0 135 152" fill="none" xmlns="http://www.w3.org/2000/svg">
<rect width="135" height="152" rx="35" fill="#6A68CE"/>
<mask id="mask0_147_1519" style="mask-type:alpha" maskUnits="userSpaceOnUse" x="0" y="0" width="135" height="152">
<rect width="135" height="152" rx="35" fill="#6A68CE"/>
</mask>
<g mask="url(#mask0_147_1519)">
<g clip-path="url(#clip0_147_1519)">
<path d="M84.277 73.6891C84.0871 75.2752 84.0631 77.5991 81.8555 79.5799C79.6478 81.557 79.871 82.9531 79.9134 84.1778C79.9558 85.4024 80.5183 86.4334 78.6426 87.8996C76.767 89.3677 75.5792 92.101 76.5567 95.0445C77.536 97.9899 84.0115 101.201 90.8908 102.538C97.7701 103.875 97.6595 80.6256 96.3039 76.9702C94.9501 73.3166 85.4961 63.4863 84.277 73.6891Z" fill="#1B1944"/>
<path d="M84.9465 140.723C84.9465 138.156 76.5548 117.774 75.0148 105.061C73.5467 92.9458 84.1995 87.3409 93.5078 91.1919C102.816 95.0428 103.163 88.1985 110.142 85.2033C117.123 82.2082 128.369 91.1937 130.697 112.588C133.024 133.982 131.084 152.381 124.88 156.232C118.675 160.083 85.2803 143.648 85.2803 143.648" fill="#FCC4D7"/>
<path d="M128.932 104.238C128.932 104.238 134.518 117.117 135.601 120.114C136.682 123.113 137.006 126.169 135.512 127.635C134.018 129.107 133.01 131.566 124.258 128.069C115.505 124.572 91.7558 113.72 91.7558 113.72C91.7558 113.72 91.8628 114.743 89.9355 115.728C88.0082 116.717 86.0937 116.224 86.0937 116.224C86.0937 116.224 85.0886 120.112 84.8341 121.095C84.5796 122.082 82.7315 122.041 81.7116 118.805C80.6917 115.57 80.5682 111.014 84.3841 108.473C88.1981 105.929 89.5076 105.898 92.2483 106.791C94.9871 107.685 119.873 114.865 119.873 114.865L118.019 110.935L128.932 104.236V104.238Z" fill="white"/>
<path d="M105.188 63.711L98.6683 60.9482C98.6683 60.9482 98.4765 61.0257 98.6775 61.7966C98.8785 62.5676 98.6775 62.3794 98.6775 62.3794L104.172 64.5244C104.172 64.5244 104.773 64.3086 105.188 63.711Z" fill="#F04C3A"/>
<path d="M83.637 65.8555C82.5157 71.5692 81.0937 79.2914 86.765 81.5599C90.3762 83.0041 91.9217 82.4083 91.9642 83.6237C92.0066 84.8355 93.0247 91.3847 93.0247 91.3847C93.0247 91.3847 95.0479 101.209 101.212 101.208C107.375 101.208 103.139 87.7255 103.139 87.7255C103.139 87.7255 101.545 82.0505 102.18 80.1417C102.814 78.2346 106.547 79.7931 108.213 72.2904C109.878 64.7895 108.06 57.8844 98.2183 57.012C88.377 56.1415 84.9742 59.0371 83.6352 65.8574" fill="white"/>
<path d="M86.5511 58.5428C86.5511 58.5428 90.3098 55.8077 96.4533 56.0954C97.3422 56.136 98.2201 56.2356 99.0777 56.3979C101.261 56.8608 103.139 57.7553 104.199 58.3879C106.885 60.1474 108.91 63.0209 109.636 67.3956C110.697 73.8046 113.771 75.4608 118.286 79.3339C122.801 83.2051 120.944 85.221 121.591 88.7012C122.239 92.1833 125.037 92.0616 127.067 94.9682C129.096 97.8749 131.783 105.798 127.412 111.032C123.039 116.265 115.47 116.233 110.077 116.233C104.684 116.233 101.986 108.721 103.912 99.8594C104.34 97.9026 99.9981 94.5846 99.6735 91.3847C98.9025 83.7658 101.293 84.3062 101.215 82.0321C101.134 79.7581 99.3544 78.9447 98.2515 77.4066C97.1449 75.8684 98.8841 75.4811 99.8837 74.0204C100.883 72.5597 101.164 70.4959 99.2142 69.8633C97.2648 69.2307 93.9985 71.0732 89.8358 67.189C85.6677 63.3049 86.5529 58.5447 86.5529 58.5447" fill="#1B1944"/>
<path d="M97.7037 75.611C97.25 75.777 96.7317 75.5003 96.5473 74.995C96.3628 74.4878 96.5823 73.9437 97.036 73.7777C97.4897 73.6117 98.0024 73.7132 98.185 74.2185C98.3695 74.7239 98.1574 75.445 97.7018 75.6091" fill="#1B1944"/>
<path d="M61.0865 74.4581C59.2901 80.1921 55.1311 86.4554 50.406 84.932C45.928 83.4879 44.6443 86.0312 44.3068 86.9497C43.8088 88.3034 44.0006 91.3853 44.0006 91.3853L35.229 85.6144C35.229 85.6144 36.8779 80.3249 37.2412 78.2814C37.6064 76.2379 33.453 75.8155 35.6366 68.1948C37.8185 60.574 42.8664 55.2089 52.2171 59.2645C61.5678 63.3165 63.2259 67.6212 61.0846 74.4581" fill="white"/>
<path d="M34.2277 84.6845C35.0448 84.0629 35.7438 85.8335 39.7312 86.953C41.7876 87.5302 44.4969 87.5339 44.7791 88.1112C45.0613 88.6885 44.6666 90.8224 44.6666 90.8224C44.6666 90.8224 52.1601 90.5789 54.9819 92.3458C57.9826 94.227 60.17 97.8972 60.0132 103.838C59.8565 109.778 41.5645 157.111 41.5645 157.111L2.98675 150.071L3.67652 146.266L1.86171 145.164L-7.99805 143.773C-7.99805 143.773 -1.13716 105.63 6.0557 98.8968C13.2467 92.165 19.1541 84.2566 28.1009 84.867C30.2717 85.0146 32.7357 86.6837 33.2171 86.5675C33.6984 86.4513 33.4126 85.3097 34.2296 84.6863" fill="#F1503C"/>
<path d="M43.3625 74.4307L45.1755 74.7737L43.9564 76.1385L43.3625 74.4307Z" fill="#3E3035"/>
<path d="M43.9989 91.289C43.4345 91.3443 42.9292 90.8796 42.8683 90.2488C42.8075 89.6217 43.2151 89.0703 43.7794 89.0149C44.3438 88.9596 44.8952 89.2252 44.9543 89.8523C45.0151 90.4812 44.5614 91.2337 43.997 91.289" fill="#6A68CE"/>
<path d="M41.8834 92.54C41.319 92.5953 40.8118 92.1305 40.7528 91.5016C40.692 90.8745 41.1014 90.3212 41.6658 90.2659C42.2301 90.2106 42.7816 90.4762 42.8406 91.1032C42.9015 91.7322 42.4478 92.4846 41.8834 92.54Z" fill="#6A68CE"/>
<path d="M39.1722 92.7792C38.6078 92.8327 38.1007 92.3698 38.0416 91.7427C37.9808 91.1138 38.3902 90.5587 38.9527 90.5052C39.5171 90.4498 40.0686 90.7154 40.1276 91.3443C40.1884 91.9714 39.7347 92.7257 39.1704 92.7792" fill="#6A68CE"/>
<path d="M36.8153 91.416C36.2509 91.4713 35.7456 91.0047 35.6847 90.3758C35.6238 89.7487 36.0333 89.1973 36.5976 89.1419C37.162 89.0866 37.7135 89.3503 37.7725 89.9793C37.8333 90.6082 37.3796 91.3607 36.8153 91.416Z" fill="#6A68CE"/>
<path d="M35.0982 89.5331C34.5339 89.5866 34.0285 89.1237 33.9677 88.4948C33.9068 87.8677 34.3162 87.3126 34.8788 87.2591C35.4431 87.2038 35.9946 87.4693 36.0536 88.0964C36.1145 88.7253 35.6608 89.4778 35.0964 89.5331" fill="#6A68CE"/>
<path d="M57.3547 86.2338C56.039 82.9999 58.6543 81.4146 60.7745 85.2204C62.8993 89.0262 62 94.5 62 94.5L57.8337 93.7187L57.3547 86.2338Z" fill="white"/>
<path d="M103.312 129.498H81.9606V130.865H103.312V129.498Z" fill="#3E3035"/>
<path d="M76.2653 129.498H59.6591V130.865H76.2653V129.498Z" fill="#3E3035"/>
<path d="M61.9809 66.2085C61.9809 66.2085 59.8821 61.8965 54.1462 59.1835C53.3163 58.7907 52.4661 58.455 51.6066 58.1876C50.583 57.9626 48.7811 57.3152 45.9777 57.5199C43.1744 57.7265 39.4451 59.4583 36.6657 63.0916C31.3191 70.432 36.0756 82.5363 37.2486 80.502C38.4234 78.4678 40.4392 78.5895 42.1895 77.7245C43.9434 76.8595 42.5473 75.6644 42.3426 73.8496C42.1379 72.0348 42.8848 70.0208 44.967 70.3878C47.0493 70.7548 49.1297 74.0137 54.8047 72.494C60.4797 70.9743 61.9809 66.2085 61.9809 66.2085Z" fill="#1B1944"/>
<path d="M135.612 88.7943L132.619 91.6013C132.619 91.6013 135.986 92.7614 137.609 89.2C138.768 86.6548 135.612 88.7943 135.612 88.7943Z" fill="white"/>
<path d="M117.355 111.503C117.099 111.352 116.947 111.057 116.992 110.743L117.029 110.481L117.355 111.503Z" fill="#FFFCEB"/>
</g>
<path d="M74.3491 192C118.127 192 153.614 176.362 153.614 157.075C153.614 137.787 118.127 122.149 74.3491 122.149C30.5714 122.149 -4.91846 137.787 -4.91846 157.075C-4.91846 176.362 30.5714 192 74.3491 192Z" fill="#1B1944"/>
<path d="M50.551 132.609C50.551 132.609 65.9364 129.962 72.9886 133.893C80.0409 137.824 76.8362 137.107 76.8362 137.107C76.8362 137.107 81.3242 131.324 89.0169 131.966C96.7096 132.609 110.814 137.749 110.814 137.749L109.531 141.607L81.3217 142.174C81.3217 142.174 80.6813 144.748 77.4741 144.748C74.267 144.748 72.9861 141.607 72.9861 141.607L50.551 140.323V132.609Z" fill="white"/>
<path d="M109.531 140.323H80.6813V142.175H109.531V140.323Z" fill="#6A68CE"/>
<path d="M72.9886 140.323H50.551V142.175H72.9886V140.323Z" fill="#6A68CE"/>
<path d="M121.63 130.981H113.503V135.259H121.63V130.981Z" fill="#F1503C"/>
<path d="M124.181 91.2764L125.727 92.1838C125.727 92.1838 125.561 90.3826 123.982 90.2608C122.852 90.1737 124.181 91.2764 124.181 91.2764Z" fill="white"/>
<path d="M123.313 93.6073L125.547 93.1082C125.547 93.1082 124.47 91.6456 122.582 92.8741C121.231 93.7505 123.313 93.6092 123.313 93.6092" fill="white"/>
<path d="M125.874 89.4346L126.482 92.2494C126.482 92.2494 128.432 90.3013 126.859 88.2023C125.733 86.701 125.876 89.4346 125.876 89.4346" fill="white"/>
<path d="M127.039 94.2129C126.569 96.3139 125.64 97.7629 124.282 98.5174C123.504 98.9488 122.717 99.0726 122.075 99.0726C121.85 99.0726 121.645 99.0571 121.461 99.0359L119.457 113.18L119.366 113.816C119.31 114.215 118.968 114.503 118.577 114.503C118.54 114.503 118.501 114.499 118.465 114.495C118.356 114.48 118.256 114.443 118.167 114.389L117.824 113.317L111.922 94.7971C111.694 94.8416 111.33 94.8919 110.881 94.8919C109.759 94.8919 108.097 94.5785 106.642 93.0541C104.398 90.7074 103.864 88.5348 103.843 88.4439C103.742 88.0144 104.007 87.5849 104.437 87.4843C104.864 87.3837 105.296 87.6488 105.396 88.0763C105.4 88.0918 105.872 89.9394 107.795 91.9513C109.161 93.381 110.761 93.352 111.432 93.263L109.076 85.8709C108.943 85.4511 109.175 85.0022 109.595 84.8668C110.014 84.7333 110.463 84.9655 110.597 85.3853L115.667 101.295C116.172 100.893 116.791 100.036 116.629 98.3007C116.588 97.8616 116.909 97.4727 117.348 97.4301C117.79 97.3876 118.176 97.7126 118.217 98.1517C118.412 100.233 117.706 101.473 117.078 102.147C116.764 102.483 116.439 102.714 116.17 102.868L118.341 109.68L120.37 95.362C120.018 95.2402 119.418 94.921 118.393 94.1026C116.735 92.7793 116.186 89.9258 116.128 89.6047C116.05 89.1713 116.339 88.7573 116.772 88.6799C117.205 88.6025 117.621 88.8908 117.699 89.3241C117.762 89.6782 117.933 90.3592 118.213 91.0537C118.494 91.7463 118.885 92.4524 119.389 92.8548C119.983 93.3307 120.372 93.5822 120.604 93.7138L120.898 91.6379C120.96 91.2007 121.367 90.8989 121.802 90.9589C122.237 91.0208 122.541 91.4251 122.479 91.8604L121.686 97.4553C122.15 97.5056 122.854 97.4901 123.524 97.1129C124.458 96.5847 125.118 95.4917 125.482 93.8627C125.578 93.4332 126.008 93.1643 126.435 93.2591C126.865 93.3559 127.136 93.7834 127.039 94.2129Z" fill="white"/>
<path d="M109.446 85.728C110.073 85.7067 110.564 85.1805 110.541 84.5537C110.519 83.9288 109.993 83.4374 109.366 83.4587C108.74 83.48 108.248 84.0062 108.271 84.631C108.293 85.2579 108.819 85.7492 109.446 85.728Z" fill="#F1503C"/>
<path d="M117.095 89.5375C117.722 89.5163 118.213 88.99 118.19 88.3632C118.169 87.7384 117.643 87.247 117.016 87.2682C116.389 87.2895 115.897 87.8157 115.921 88.4406C115.942 89.0674 116.468 89.5588 117.095 89.5375Z" fill="#F1503C"/>
<path d="M121.788 91.9457C122.415 91.9245 122.907 91.3982 122.883 90.7714C122.862 90.1466 122.336 89.6552 121.709 89.6764C121.082 89.6977 120.591 90.2239 120.614 90.8488C120.635 91.4756 121.162 91.967 121.788 91.9457Z" fill="#F1503C"/>
<path d="M117.076 98.9409C117.703 98.9196 118.194 98.3934 118.171 97.7666C118.149 97.1417 117.623 96.6503 116.996 96.6716C116.37 96.6928 115.878 97.2191 115.901 97.8439C115.923 98.4707 116.449 98.9621 117.076 98.9409Z" fill="#F1503C"/>
<path d="M104.114 88.9819C104.741 88.9606 105.232 88.4344 105.209 87.8076C105.188 87.1827 104.661 86.6913 104.035 86.7126C103.408 86.7339 102.916 87.2601 102.94 87.885C102.961 88.5118 103.487 89.0032 104.114 88.9819Z" fill="#F1503C"/>
<path d="M108.606 121.348C110.233 116.754 115.605 114.463 120.608 116.233C125.609 118.005 128.345 123.165 126.718 127.761C125.089 132.356 119.39 135.051 114.387 133.281C109.386 131.511 106.977 125.943 108.606 121.348Z" fill="#F1503C"/>
<path d="M112.646 116.917C115.211 115.635 114.356 110.928 114.356 110.928L122.053 111.307C122.053 111.307 120.771 115.106 122.053 117.293C123.336 119.483 119.916 120.765 119.916 120.765L112.646 116.917Z" fill="#F1503C"/>
<g clip-path="url(#clip1_147_1519)">
<path d="M130.203 91.838L127.794 92.5777C127.794 92.5777 129.637 94.1331 131.35 92.6047C132.576 91.5131 130.203 91.8397 130.203 91.8397" fill="white"/>
<path d="M128.861 89.9711L127.249 91.9056C127.249 91.9056 129.643 92.2018 130.24 89.9864C130.67 88.4022 128.861 89.9711 128.861 89.9711Z" fill="white"/>
<path d="M129.402 94.3707L127.287 93.0049C127.287 93.0049 127.285 95.4167 129.556 95.7416C131.181 95.9752 129.402 94.3707 129.402 94.3707Z" fill="white"/>
</g>
<path d="M126.669 93.6987C127.296 93.6774 127.788 93.1512 127.764 92.5244C127.743 91.8995 127.217 91.4081 126.59 91.4294C125.963 91.4507 125.472 91.9769 125.495 92.6017C125.516 93.2286 126.043 93.72 126.669 93.6987Z" fill="#F1503C"/>
</g>
<path d="M26 94.5959C26 94.5959 36.162 119.455 37.0331 121.983C37.9008 124.507 39.2902 126.672 41.024 126.841C42.7544 127.009 44.6922 128.08 48.5159 121.179C52.3362 114.277 62 94.6618 62 94.6618C62 94.6618 59.3583 88.3739 58.0576 90.4034C57.7182 90.9302 56.6348 92.5259 55.2187 94.5993C51.186 100.494 44.4431 110.255 44.4431 110.255L39.1748 97.316C39.1748 97.316 36.8609 97.9678 32.9419 97.0003C29.0195 96.0345 26.0017 94.5959 26.0017 94.5959" fill="white"/>
<defs>
<clipPath id="clip0_147_1519">
<rect width="146.891" height="116.111" fill="white" transform="translate(-8 41)"/>
</clipPath>
<clipPath id="clip1_147_1519">
<rect width="4.45125" height="6.48562" fill="white" transform="translate(127.249 89.2793)"/>
</clipPath>
</defs>
</svg>
