<svg width="135" height="152" viewBox="0 0 135 152" fill="none" xmlns="http://www.w3.org/2000/svg">
<rect width="135" height="152" rx="35" fill="#1B1944"/>
<mask id="mask0_147_1370" style="mask-type:alpha" maskUnits="userSpaceOnUse" x="0" y="0" width="135" height="152">
<rect width="135" height="152" rx="35" fill="#FCC4D7"/>
</mask>
<g mask="url(#mask0_147_1370)">
<path d="M50.9212 64.3997C52.0257 62.9351 50.9805 61.6219 52.1092 60.3571C53.2664 59.0593 54.7267 60.0409 56.1518 58.8112C57.8493 57.3487 56.58 55.2648 58.172 53.6991C59.7794 52.1202 61.6591 53.6618 63.642 52.1532C65.8731 50.4557 64.7839 47.5176 66.8525 46.446C68.4577 45.616 69.448 47.208 71.4902 46.5646C74.4217 45.6401 74.4151 41.7139 76.7208 41.4525C78.4951 41.2527 79.1824 43.5013 80.8821 43.2356C83.1658 42.8799 83.3239 38.6067 85.399 38.3607C87.158 38.1521 87.8936 41.121 90.0368 41.0946C92.2459 41.0661 92.9068 37.893 94.9117 38.0028C96.7782 38.106 96.9583 40.897 99.1915 41.3318C101.392 41.76 102.362 39.2764 104.543 39.6673C106.866 40.0845 106.811 43.0929 109.299 43.7099C111.625 44.2853 112.817 41.94 114.888 42.6405C117.002 43.3564 116.511 46.0617 118.812 47.0389C121.003 47.97 122.674 46.0354 124.282 47.1575C125.696 48.1457 124.811 49.9353 126.302 51.0816C127.951 52.3486 129.963 50.8774 131.177 52.151C132.141 53.1633 131.096 54.3293 132.009 55.7171C133.23 57.5727 135.887 56.6921 137.121 58.451C137.998 59.6983 136.607 60.7677 137.358 62.1358C138.364 63.9627 141.105 63.0954 141.996 64.7511C142.888 66.4112 140.569 68.0976 141.401 70.1003C142.22 72.07 144.959 71.633 145.444 73.3107C145.999 75.2299 142.686 76.7473 142.866 79.255C143.006 81.2072 145.846 81.1127 146.276 83.1791C146.691 85.1774 144.421 86.0228 144.671 88.3504C144.912 90.6012 147.17 91.0602 146.99 92.8081C146.799 94.6527 144.214 94.8262 143.957 96.7322C143.687 98.7349 146.368 99.8394 145.918 101.37C145.453 102.955 142.383 102.437 141.638 104.222C140.894 106.005 143.465 107.696 142.708 109.394C142.009 110.962 139.552 110.116 138.07 112.068C136.878 113.638 138.013 114.787 136.821 116.526C135.573 118.351 133.961 117.622 132.183 119.559C130.733 121.135 131.247 122.224 130.042 124.016C129.203 125.264 127.765 126.509 124.335 127.582C91.6266 137.833 77.608 133.825 77.608 133.825C69.2218 131.153 63.2138 127.567 59.4061 124.897C56.7557 123.037 54.4105 121.089 52.1575 118.735C48.6594 115.079 42.3154 108.847 44.4345 104.222C45.0252 102.933 47.0893 101.374 46.7534 99.0511C46.4152 96.7124 43.9887 95.9548 44.2566 94.2355C44.5267 92.4963 47.1025 92.672 47.8228 90.6693C48.6462 88.3812 45.7323 86.9209 46.2176 83.7149C46.5557 81.4773 48.117 81.2489 48.0006 79.4351C47.8337 76.8483 44.564 75.7635 44.9681 74.4416C45.3765 73.1109 48.8307 73.7806 49.4258 72.3006C50.1043 70.6185 46.222 68.304 46.929 66.5934C47.4451 65.3725 49.6388 66.0994 50.9212 64.3997Z" fill="#F04C3A"/>
<path d="M62.1533 100.739C60.9016 117.909 40.8662 128.908 25.7189 130.939C24.0171 131.168 22.3064 131.33 20.598 131.491L17.8334 131.993C10.9427 134.009 2.92761 135.041 -3.91043 133.223C-10.1424 131.567 -15.3972 127.547 -17.9401 119.747C-22.3824 106.119 -11.9738 89.5137 -3.1748 79.8693C0.810758 75.4994 5.41996 72.1704 10.3761 70.0931C18.8172 66.5599 28.2705 66.6609 37.3967 71.4634C47.7613 76.9158 63.1239 87.4078 62.1533 100.739Z" fill="#1B1944"/>
<path d="M9.12668 91.858C9.40775 86.7305 10.3827 82.0884 15.0885 79.3106C19.3091 76.8182 24.1093 76.8885 28.0883 79.8837C30.1019 81.3989 31.5227 83.5509 33.0269 85.5382C37.6514 84.3216 43.1171 84.1569 41.6392 90.5712C40.5391 95.3451 38.2707 98.1295 38.9866 103.325C39.843 109.539 41.3208 115.547 41.5909 121.845C41.8522 127.934 42.4231 133.877 43.1632 139.924C43.7363 144.608 44.1294 150.322 39.4719 153.113C34.6496 156.002 28.4836 153.589 24.4958 150.377C14.9853 142.717 13.76 128.819 12.6621 117.513C12.1592 112.348 12.7411 107.35 8.53818 103.731C5.5254 101.136 -0.458439 96.555 4.48234 92.8022C5.49904 92.0314 9.12668 91.858 9.12668 91.858Z" fill="white"/>
<path d="M27.6755 95.2736C30.3238 95.2516 29.4015 98.2995 28.3211 99.6807C26.8674 101.543 24.3443 101.863 22.1265 101.622C20.6552 101.462 16.617 100.548 16.8695 98.4225C17.1176 96.3386 21.6544 96.0685 23.1498 95.9016C23.1476 95.9016 26.538 95.2823 27.6755 95.2736Z" fill="#6A68CE"/>
<path d="M141.212 116.125C141.212 154.476 110.048 184.648 82.2568 184.648C74.1825 184.648 61.3386 180.587 57.408 170.313C53.1237 157.568 52.9964 158.277 52.7702 147.989C52.3398 128.391 71.4639 127.218 79.0354 127.027C86.3609 126.843 92.4699 132.658 99.409 132.945C103.616 133.119 102.764 125.24 105.801 121.199C108.487 117.627 126.14 104.585 132.073 105.362C140.207 105.329 141.212 112.782 141.212 116.125Z" fill="#6A68CE"/>
<path d="M76.6264 132.692C76.3453 131.704 77.564 129.473 77.8188 128.41C78.2096 126.798 78.1899 124.585 78.1899 122.916C78.1921 118.581 74.6633 112.334 71.6395 109.132C68.3918 105.693 65.6623 100.983 65.693 96.1302C65.7106 93.5214 65.4317 90.781 65.7457 88.1876C65.9411 86.567 67.2038 83.596 66.4704 82.2038C65.6645 80.6688 57.3574 76.7162 63.7233 76.7755C67.9394 76.815 69.975 74.7113 71.4551 70.919C74.907 62.0761 88.7873 60.5895 94.4637 67.9304C96.3676 70.392 96.3786 73.9516 97.3491 76.7733C98.4625 80.0122 99.9623 82.8735 101.888 83.5279C105.755 84.8388 106.868 86.9008 106.537 89.874C106.146 93.3941 101.649 93.4907 100.47 93.3743C98.5283 93.1833 96.4378 94.5821 95.4716 96.4025C94.0926 99.0046 94.9468 105.838 96.4422 108.282C99.119 112.668 103.908 113.954 107.606 116.978C111.721 120.342 107.303 127.543 104.934 130.61C101.993 134.418 97.4436 137.692 92.6763 138.533C88.2493 139.277 82.7464 140.479 78.5983 137.94C75.8666 136.273 75.6492 135.621 76.6264 132.692Z" fill="#1B1944"/>
<path d="M69.3932 90.8535C67.1468 86.5473 74.0222 88.3787 75.2651 88.2206C78.1724 87.8517 79.9884 84.8082 83.3877 86.8284C85.7351 88.225 75.7701 103.078 69.3932 90.8535C69.6501 91.3476 69.0155 90.1311 69.3932 90.8535Z" fill="#6A68CE"/>
<path d="M77.0086 92.8984C77.5862 92.6964 78.2998 92.356 78.9981 91.6621C79.7096 90.9507 80.23 89.7495 80.2652 89.3982C80.3706 88.3595 78.8642 88.4188 78.2559 88.8668C77.4259 89.4794 77.3468 90.0855 76.1369 90.2656C75.129 90.4171 73.9607 90.4215 72.977 90.2019C72.3577 90.0635 71.5738 89.5914 71.442 90.4807C71.352 91.0846 72.294 91.829 72.9265 92.3868C73.6862 93.0565 75.8316 93.3091 77.0086 92.8984Z" fill="white"/>
<path d="M104.462 113.924C107.554 117.554 110.645 121.184 113.737 124.811C114.706 125.712 116.08 125.852 117.02 125.226C117.982 124.585 118.074 123.41 118.083 123.257C119.565 125.16 121.921 125.237 122.861 124.254C123.54 123.542 123.581 122.163 122.967 120.918C123.781 121.55 124.886 121.548 125.591 120.977C126.449 120.283 126.588 118.852 125.731 117.888C125.808 117.916 126.809 118.259 127.609 117.657C128.325 117.117 128.573 116.05 128.134 115.114C126.473 112.429 124.815 109.741 123.155 107.055C122.488 106.491 121.588 106.331 120.83 106.649C120.026 106.987 119.717 107.725 119.655 107.881C119.051 107.152 118.083 106.827 117.165 107.046C116.258 107.262 115.547 107.973 115.327 108.88C115.085 108.788 113.256 108.114 111.445 109.159C109.925 110.035 109.468 111.515 109.378 111.831C109.258 111.77 107.595 110.957 106.014 111.882C104.885 112.543 104.536 113.661 104.462 113.924Z" fill="white"/>
</g>
</svg>
