<svg width="30" height="45" viewBox="0 0 30 45" fill="none" xmlns="http://www.w3.org/2000/svg">
<path fill-rule="evenodd" clip-rule="evenodd" d="M10.9957 0C7.27371 0 4.25642 3.0173 4.25642 6.73932C4.25642 10.4613 7.27371 13.4786 10.9957 13.4786C14.7178 13.4786 17.7351 10.4613 17.7351 6.73932C17.7351 3.0173 14.7178 0 10.9957 0ZM6.38462 6.73932C6.38462 4.19267 8.44909 2.12821 10.9957 2.12821C13.5424 2.12821 15.6069 4.19267 15.6069 6.73932C15.6069 9.28597 13.5424 11.3504 10.9957 11.3504C8.44909 11.3504 6.38462 9.28597 6.38462 6.73932Z" fill="#1B1944"/>
<path d="M19.5086 1.41881C18.9209 1.41881 18.4445 1.89522 18.4445 2.48291C18.4445 3.0706 18.9209 3.54701 19.5086 3.54701C21.2716 3.54701 22.7009 4.97626 22.7009 6.73932C22.7009 8.50239 21.2716 9.93164 19.5086 9.93164C18.9209 9.93164 18.4445 10.4081 18.4445 10.9957C18.4445 11.5834 18.9209 12.0598 19.5086 12.0598C22.447 12.0598 24.8291 9.67777 24.8291 6.73932C24.8291 3.80088 22.447 1.41881 19.5086 1.41881Z" fill="#1B1944"/>
<path fill-rule="evenodd" clip-rule="evenodd" d="M3.44507 17.4093C5.4305 16.2748 8.10232 15.6069 10.9957 15.6069C13.8892 15.6069 16.561 16.2748 18.5464 17.4093C20.5017 18.5266 21.9915 20.2324 21.9915 22.3462C21.9915 24.46 20.5017 26.1657 18.5464 27.2831C16.561 28.4176 13.8892 29.0855 10.9957 29.0855C8.10232 29.0855 5.4305 28.4176 3.44507 27.2831C1.48974 26.1657 0 24.46 0 22.3462C0 20.2324 1.48974 18.5266 3.44507 17.4093ZM4.50096 19.2571C2.86174 20.1938 2.12821 21.3257 2.12821 22.3462C2.12821 23.3667 2.86174 24.4986 4.50096 25.4353C6.11007 26.3548 8.40407 26.9573 10.9957 26.9573C13.5874 26.9573 15.8814 26.3548 17.4905 25.4353C19.1297 24.4986 19.8633 23.3667 19.8633 22.3462C19.8633 21.3257 19.1297 20.1938 17.4905 19.2571C15.8814 18.3376 13.5874 17.7351 10.9957 17.7351C8.40407 17.7351 6.11007 18.3376 4.50096 19.2571Z" fill="#1B1944"/>
<path d="M23.9929 17.0504C23.4189 16.9245 22.8515 17.2878 22.7256 17.8618C22.5997 18.4359 22.963 19.0033 23.537 19.1292C24.6613 19.3757 25.5597 19.7992 26.1527 20.2844C26.7464 20.7702 26.9573 21.2448 26.9573 21.6368C26.9573 21.9925 26.7862 22.4101 26.3144 22.8483C25.8393 23.2897 25.1092 23.6975 24.1676 23.981C23.6049 24.1505 23.286 24.744 23.4555 25.3068C23.6249 25.8695 24.2185 26.1883 24.7812 26.0189C25.9483 25.6675 26.9917 25.1239 27.7629 24.4076C28.5375 23.688 29.0855 22.7415 29.0855 21.6368C29.0855 20.4098 28.4126 19.3838 27.5004 18.6373C26.5874 17.8902 25.3576 17.3496 23.9929 17.0504Z" fill="#1B1944"/>
<circle cx="13.5" cy="41.5" r="3.5" fill="#6A68CE"/>
</svg>
