<svg width="191" height="193" viewBox="0 0 191 193" fill="none" xmlns="http://www.w3.org/2000/svg">
<path d="M190.827 102.97C190.827 152.645 150.562 192.909 100.888 192.909C51.2141 192.909 10.9785 152.645 10.9785 102.97C10.9785 53.2961 51.2426 13.0605 100.888 13.0605C150.534 13.0605 190.827 53.3246 190.827 102.97Z" fill="#1B1944"/>
<path d="M4.50549 46.1387L51.6418 71.6316V153.842L4.50549 128.321V46.1387Z" fill="#FCC4D7"/>
<path d="M107.39 47.707L154.526 73.2285V155.411L107.39 129.918V47.707Z" fill="#FCC4D7"/>
<path d="M51.6418 153.842L107.39 129.918V47.707L51.6418 71.6316V153.842Z" fill="white"/>
<path d="M74.3688 144.119L72.1161 143.777C72.2872 142.55 72.7719 141.353 73.5704 140.155L75.4524 141.438C74.8536 142.379 74.5114 143.235 74.3688 144.119ZM77.5625 138.986L75.9086 137.418L76.1368 137.189C76.8497 136.42 77.534 135.707 78.1043 134.937L79.9293 136.305C79.2735 137.161 78.5321 137.959 77.7907 138.729L77.5625 138.986ZM81.6973 132.969L79.5016 132.313C79.6727 131.743 79.7583 131.144 79.7583 130.517C79.7583 130.289 79.7583 130.089 79.7297 129.861C79.7012 129.69 79.7012 129.547 79.6727 129.405L81.954 129.148C81.9825 129.319 81.9825 129.49 82.011 129.661C82.0395 129.946 82.0395 130.26 82.0395 130.545C82.0395 131.344 81.9254 132.171 81.6973 132.969ZM78.9883 126.582C78.6461 126.011 78.1899 125.783 76.8782 125.584L77.2489 123.331C78.6176 123.559 80.0434 123.93 80.9274 125.412L78.9883 126.582ZM73.4563 124.985C72.4297 124.785 71.4602 124.5 70.4622 124.186C70.3196 124.129 70.1485 124.072 70.0059 124.044L70.7758 121.905C70.8899 121.962 71.0325 121.991 71.1465 122.048C72.059 122.333 72.943 122.589 73.884 122.789L73.4563 124.985ZM66.7266 122.304C65.7286 121.563 64.8161 120.679 64.0461 119.681L65.8711 118.312C66.4985 119.139 67.2399 119.88 68.0668 120.479L66.7266 122.304ZM62.2211 116.43C61.6508 115.004 61.5083 113.978 61.4797 113.921V113.835C61.4797 113.835 61.4797 113.664 61.4797 113.322C61.4797 113.122 61.4797 112.894 61.5083 112.609L63.7895 112.695C63.7895 112.951 63.7895 113.151 63.7895 113.322C63.7895 113.464 63.7895 113.579 63.7895 113.636C63.818 113.807 63.9606 114.577 64.3598 115.575L62.2211 116.43ZM64.1887 109.529L61.9645 109.073C62.2211 107.904 62.5348 106.735 62.9625 105.623L65.1012 106.421C64.702 107.419 64.3883 108.474 64.1887 109.529ZM66.4129 103.455L64.4168 102.343C64.9872 101.288 65.643 100.29 66.3844 99.3492L68.1809 100.746C67.525 101.573 66.9547 102.486 66.4129 103.455ZM70.3766 98.3227L68.8083 96.6687C69.1504 96.3551 69.4926 96.0129 69.8633 95.6992C70.3481 95.3 70.8043 94.8437 71.2321 94.359L72.943 95.8703C72.4583 96.4121 71.9165 96.9539 71.3747 97.4102C71.004 97.7238 70.6903 98.009 70.3766 98.3227ZM75.0247 92.9047L73.0286 91.7926C73.5418 90.9086 73.9696 89.9105 74.3403 88.8555L76.5075 89.5969C76.1083 90.7945 75.595 91.9066 75.0247 92.9047ZM77.4485 86.1465L75.2243 85.6902C75.4239 84.6637 75.5665 83.5516 75.6805 82.4395L77.9618 82.6105C77.8192 83.8367 77.6481 85.0344 77.4485 86.1465ZM75.7375 79.1316C75.709 78.0195 75.652 76.9074 75.5094 75.8238L77.7622 75.5672C77.9047 76.7078 77.9618 77.9055 77.9903 79.1031L75.7375 79.1316ZM74.9676 72.6301C74.8536 72.1453 74.7395 71.8887 74.6825 71.7176C74.4543 71.1758 74.1692 70.4629 73.77 69.6359L75.8516 68.6949C76.2508 69.5504 76.5645 70.2918 76.7926 70.8906C76.9067 71.2043 77.0493 71.6035 77.1633 72.0883L74.9676 72.6301ZM72.3442 66.5562C71.5172 64.8738 70.8329 63.5051 70.8329 63.5051L72.8575 62.4785C72.8575 62.4785 73.5704 63.8758 74.3688 65.5867L72.3442 66.5562Z" fill="#FCC4D7"/>
<path d="M157.52 160.657L107.276 133.396L51.4992 156.808L0 128.92V41.8613L51.7559 68.9797L110.47 45.5113L157.492 70.6906V160.657H157.52ZM107.532 128.349L152.958 153.015V73.4281L110.213 50.5301L51.4992 73.9984L4.5625 49.3895V126.211L51.7559 151.761L107.532 128.349Z" fill="white"/>
<path d="M129.375 0C110.384 0 94.957 16.1113 94.957 35.9582C94.957 55.8051 129.375 94.2441 129.375 94.2441C129.375 94.2441 163.794 55.8051 163.794 35.9582C163.794 16.1113 148.395 0 129.375 0ZM129.176 51.2141C120.621 51.2141 113.692 43.9711 113.692 35.0172C113.692 26.0633 120.621 18.8203 129.176 18.8203C137.73 18.8203 144.66 26.0633 144.66 35.0172C144.66 43.9711 137.702 51.2141 129.176 51.2141Z" fill="#F04C3A"/>
<path d="M7.38557 71.8883C7.32854 71.318 7.24299 70.7191 7.21448 70.1488L9.49573 69.9492C9.55276 70.491 9.60979 71.0613 9.66682 71.6031L7.38557 71.8883Z" fill="#6A68CE"/>
<path d="M35.2453 106.192C34.2187 106.192 33.1922 106.107 32.1656 105.936L32.5363 103.683C33.4203 103.825 34.3328 103.911 35.2453 103.911C35.3879 103.911 35.5304 103.911 35.6445 103.911L35.7015 106.192C35.559 106.192 35.4164 106.192 35.2453 106.192ZM39.2375 105.764L38.7812 103.54C39.7793 103.341 40.8058 103.027 41.8324 102.656L42.6308 104.795C41.4902 105.223 40.3496 105.536 39.2375 105.764ZM28.7437 105.052C27.6601 104.681 26.5765 104.196 25.5215 103.626L26.6051 101.63C27.5461 102.143 28.5156 102.571 29.4851 102.913L28.7437 105.052ZM45.7961 103.341L44.7125 101.345C45.625 100.86 46.5375 100.289 47.45 99.6621L48.7617 101.516C47.7922 102.2 46.7941 102.799 45.7961 103.341ZM22.5843 101.715C21.6718 101.031 20.7879 100.289 19.9324 99.4625L21.5008 97.8086C22.2992 98.55 23.1261 99.2629 23.9531 99.8617L22.5843 101.715ZM17.5371 96.9531C16.7957 96.0977 16.1113 95.1852 15.4269 94.2156L17.309 92.9039C17.9363 93.8164 18.5922 94.6719 19.2765 95.4703L17.5371 96.9531ZM13.6019 91.307C13.0316 90.3375 12.5183 89.3109 12.0051 88.2559L14.0582 87.2863C14.5429 88.2844 15.0277 89.2539 15.5695 90.1664L13.6019 91.307ZM10.6363 85.1191C10.2371 84.0641 9.83787 82.9805 9.49568 81.8969L11.6629 81.2125C11.9765 82.2676 12.3472 83.2941 12.7465 84.2922L10.6363 85.1191ZM8.61169 78.5891C8.35505 77.5055 8.09841 76.3648 7.8988 75.2527L10.1515 74.8535C10.3511 75.9371 10.5793 77.0207 10.8359 78.0473L8.61169 78.5891Z" fill="#6A68CE"/>
<path d="M51.4992 99.3781L49.9879 97.6672C50.4727 97.2395 50.8719 96.8688 51.2141 96.5551L52.4688 95.3574L53.0676 96.9828C53.2672 97.5246 53.4668 98.0664 53.6664 98.5797L51.5278 99.4066V99.3781C51.5278 99.3496 51.5278 99.3496 51.4992 99.3781Z" fill="#6A68CE"/>
<path d="M68.0384 119.595C67.9243 119.595 67.7817 119.595 67.6677 119.595C67.1259 119.566 66.5841 119.481 66.0423 119.338L66.6126 117.143C66.9833 117.228 67.3825 117.314 67.7532 117.314C68.3235 117.342 68.8938 117.285 69.4641 117.114L70.0344 119.31C69.4071 119.509 68.7227 119.595 68.0384 119.595ZM102.057 118.312L98.6641 117.57L99.1489 115.346L102.542 116.088L102.057 118.312ZM73.5704 117.741L72.3442 115.802C73.2567 115.232 74.1122 114.548 74.9676 113.92L75.0817 113.835L76.479 115.66L76.3649 115.745C75.4809 116.43 74.5399 117.114 73.5704 117.741ZM62.5919 117.57C61.7079 116.886 60.7954 116.03 59.9114 114.975L61.6509 113.493C62.4208 114.405 63.1907 115.146 63.9606 115.745L62.5919 117.57ZM95.2423 116.8L91.8489 116.03L92.3337 113.806L95.727 114.576L95.2423 116.8ZM88.4555 115.603C87.1438 115.403 85.9747 115.146 84.9196 114.861L85.4899 112.666C86.4595 112.922 87.5716 113.15 88.7977 113.35L88.4555 115.603ZM79.188 113.778L78.1329 111.753C79.0454 111.268 79.8723 111.04 80.6423 111.04C81.2981 111.04 81.954 111.211 82.5243 111.554L82.5813 111.582L81.9825 112.552L81.4122 113.55C81.1555 113.407 80.8989 113.35 80.6423 113.35C80.2145 113.35 79.7583 113.493 79.188 113.778ZM57.7442 112.095C57.1454 111.154 56.518 110.128 55.9192 109.016L57.9153 107.932C58.4856 108.987 59.0844 109.957 59.6548 110.841L57.7442 112.095ZM54.3223 105.85C53.8376 104.852 53.3528 103.769 52.868 102.628L54.9782 101.744C55.4344 102.828 55.9192 103.883 56.3755 104.881L54.3223 105.85Z" fill="#6A68CE"/>
<path d="M107.903 119.623L105.479 119.082L105.964 116.857L106.877 117.057L107.418 116.287L109.3 117.599L107.903 119.623Z" fill="#6A68CE"/>
<path d="M111.211 114.805L109.329 113.493L111.24 110.727L113.122 112.039L111.211 114.805ZM115.061 109.245L113.179 107.933L115.089 105.167L116.971 106.479L115.061 109.245ZM118.91 103.713L117.028 102.401L118.939 99.6348L120.821 100.946L118.91 103.713Z" fill="#6A68CE"/>
<path d="M122.76 98.152L120.878 96.8402L122.304 94.7871L123.074 94.9867C123.672 95.1293 124.243 95.3004 124.813 95.5L124.043 97.6387C123.786 97.5531 123.53 97.4676 123.273 97.382L122.76 98.152Z" fill="#6A68CE"/>
<path d="M134.565 107.847C133.995 106.678 133.339 105.566 132.626 104.568L134.508 103.256C135.278 104.368 135.991 105.537 136.618 106.82L134.565 107.847ZM130.231 101.687C129.318 100.775 128.349 99.9766 127.351 99.3207L128.606 97.4102C129.746 98.1516 130.83 99.0641 131.856 100.062L130.231 101.687Z" fill="#6A68CE"/>
<path d="M136.732 113.836L136.504 112.895C136.504 112.895 136.362 112.296 136.048 111.355L138.215 110.613C138.329 110.927 138.415 111.212 138.5 111.44C138.814 111.44 139.128 111.44 139.413 111.469L139.299 113.75C138.786 113.721 138.272 113.721 137.731 113.779L136.732 113.836Z" fill="#6A68CE"/>
<path d="M146.856 116.657L146.485 116.429C145.373 115.773 144.318 115.146 143.12 114.661L144.004 112.551C145.316 113.093 146.513 113.805 147.654 114.49L148.025 114.689L146.856 116.657Z" fill="#6A68CE"/>
<path d="M152.787 119.168C152.188 119.054 151.589 118.882 150.99 118.683L151.732 116.516C152.245 116.687 152.73 116.829 153.214 116.915L152.787 119.168Z" fill="#6A68CE"/>
<path d="M129.347 103.512C131.237 103.512 132.769 101.98 132.769 100.09C132.769 98.2 131.237 96.668 129.347 96.668C127.457 96.668 125.925 98.2 125.925 100.09C125.925 101.98 127.457 103.512 129.347 103.512Z" fill="#F04C3A"/>
</svg>
