<svg width="135" height="152" viewBox="0 0 135 152" fill="none" xmlns="http://www.w3.org/2000/svg">
<rect width="135" height="152" rx="35" fill="#FCD0DC"/>
<mask id="mask0_2683_2352" style="mask-type:alpha" maskUnits="userSpaceOnUse" x="0" y="0" width="135" height="152">
<rect width="135" height="152" rx="35" fill="#FCD0DC"/>
</mask>
<g mask="url(#mask0_2683_2352)">
<path d="M113.002 128.391C112.806 128.656 112.606 128.917 112.396 129.176C111.735 128.791 111.103 128.382 110.506 127.944C105.696 124.411 103.201 118.328 98.3221 114.223L73.0216 75.9962C71.483 73.8304 70.795 71.1687 70.7148 68.3113C74.1393 67.8246 75.9629 65.5727 77.3389 61.8862C81.0172 52.0333 95.8016 50.3799 101.851 58.5584C103.88 61.3017 104.385 65.1348 104.924 68.4114C105.57 72.333 107.707 75.2091 109.76 75.9356C113.881 77.3958 115.066 79.6942 114.714 83.0057C114.298 86.9274 109.508 87.0345 108.25 86.9064C106.182 86.6921 103.955 88.2524 102.927 90.2808C101.457 93.1801 102.368 100.793 103.96 103.517C106.812 108.403 111.913 109.835 115.852 113.205C120.234 116.952 115.527 124.972 113.002 128.391Z" fill="#34385D"/>
<path d="M2.15833 135.248C9.57281 140.113 19.9264 140.435 28.8349 139.012L31.8229 138.863C33.6509 138.94 35.4812 139.014 37.3092 139.012C53.5877 139.002 76.2965 129.816 80.0393 111.036C82.945 96.4584 68.2051 82.6046 58.0319 75.0525C43.813 64.4986 27.0514 66.8972 14.0081 78.35C9.22101 82.5534 3.89729 88.2635 -0.268627 94.7002C-1.34406 99.8072 -1.91406 105.11 -1.91406 110.554C-1.91406 119.22 -0.4757 127.531 2.15833 135.248Z" fill="#1B1944"/>
<path d="M25.3052 93.4017C26.3272 87.7801 28.0082 82.7989 33.3698 80.4236C38.1792 78.2951 43.2357 79.0799 47.0164 82.9736C48.9291 84.9437 50.127 87.5309 51.4317 89.9482C56.486 89.2891 62.2796 89.9109 59.8148 96.7761C57.9801 101.885 55.1924 104.626 55.2147 110.469C55.2414 117.458 55.9561 124.309 55.3505 131.305C54.7671 138.067 54.5311 144.714 54.4599 151.502C54.4042 156.76 54.0123 163.125 48.6997 165.521C43.2023 168.001 37.0303 164.424 33.2741 160.291C24.3121 150.428 24.9801 134.9 25.4165 122.253C25.6146 116.475 26.935 111.04 23.0073 106.424C20.1907 103.113 14.5197 97.172 20.2687 93.7557C21.4532 93.0571 25.3052 93.4017 25.3052 93.4017Z" fill="white"/>
<path d="M44.407 99.911C47.2058 100.279 45.8009 103.507 44.4671 104.874C42.6703 106.716 39.9606 106.697 37.6516 106.101C36.1197 105.705 31.9872 104.103 32.5528 101.793C33.1072 99.5268 37.9366 99.8994 39.5398 99.9343C39.5375 99.9367 43.2047 99.7527 44.407 99.911Z" fill="#6A68CE"/>
<path d="M113.005 128.391C112.809 128.656 112.609 128.917 112.399 129.176C109.266 133.079 104.709 136.339 99.946 137.219C95.2302 138.048 89.3676 139.387 84.9501 136.56C82.04 134.697 81.8084 133.973 82.8482 130.708C82.5498 129.609 83.8457 127.122 84.1196 125.939C84.5359 124.143 84.5159 121.677 84.5159 119.816C84.5181 114.987 80.7574 108.026 77.5378 104.461C74.0777 100.63 71.1698 95.3831 71.2032 89.9734C71.221 87.0671 70.9249 84.0141 71.2589 81.1241C71.4682 79.317 72.8108 76.0101 72.0315 74.4592C71.1721 72.7499 62.3259 68.3462 69.1058 68.4114C69.6803 68.4161 70.2169 68.3835 70.7178 68.3113C74.1423 67.8246 75.9659 65.5727 77.3419 61.8862C81.0202 52.0333 95.8046 50.3799 101.854 58.5584C103.883 61.3017 104.388 65.1348 104.927 68.4114C105.573 72.333 107.71 75.209 109.763 75.9356C113.884 77.3958 115.069 79.6942 114.717 83.0057C114.301 86.9273 109.511 87.0345 108.253 86.9064C106.185 86.6921 103.958 88.2524 102.93 90.2808C101.46 93.1801 102.371 100.793 103.963 103.517C106.815 108.403 112.29 109.221 116.229 112.59C120.611 116.337 115.53 124.972 113.005 128.391Z" fill="white"/>
<path d="M75.1443 84.097C72.7529 79.2998 80.0761 81.3398 81.3987 81.1651C101.224 70.688 82.9529 100.934 75.1443 84.097Z" fill="#1B1944"/>
<path d="M83.2592 86.3737C83.8737 86.1502 84.6352 85.7706 85.3767 84.9951C86.1359 84.2033 86.6881 82.8619 86.726 82.4707C86.8395 81.3133 85.2342 81.3785 84.5862 81.8792C83.7023 82.5615 83.6177 83.2369 82.3285 83.4395C81.2553 83.6071 80.0084 83.6141 78.9619 83.3673C75.916 81.8163 78.2405 87.9596 83.2592 86.3737Z" fill="white"/>
<path d="M117.768 109.437C117.756 109.486 117.743 109.533 117.73 109.582C117.654 109.633 117.578 109.684 117.503 109.733C117.583 109.754 117.641 109.752 117.687 109.74C116.32 115.155 114.512 120.287 110.562 124.269C106.096 128.771 99.9149 131.183 93.7295 130.99C83.5274 130.669 74.5476 124.19 63.7777 124.397C52.6493 124.609 24.5344 125.916 25.1667 147.75C25.425 156.667 28.5155 165.363 32.2205 173.569C42.77 180.19 55.1119 184 68.3088 184C107.091 184 138.533 151.118 138.533 110.553C138.533 107.062 138.294 103.632 137.845 100.271C130.615 100.993 123.893 105.441 117.788 109.547C117.781 109.512 117.781 109.482 117.768 109.437Z" fill="#7781BE"/>
<path d="M79.9084 144.963C77.9646 139.102 74.4488 133.026 68.9403 130.218C62.5011 126.936 55.5497 129.836 49.4088 132.463C49.4111 132.439 49.4133 132.418 49.4111 132.388C49.3977 132.421 49.3821 132.451 49.3688 132.481C49.3131 132.505 49.2552 132.53 49.1995 132.553C49.2507 132.579 49.2886 132.584 49.322 132.584C47.75 136.061 45.9153 139.293 42.7714 141.468C39.2156 143.925 34.7513 144.747 30.5943 143.806C23.7387 142.253 18.4996 134.549 11.1452 135.432C8.25068 135.779 5.71016 137.171 3.61719 139.169C14.278 165.515 39.229 184 68.308 184C73.9211 184 79.3785 183.309 84.6087 182.007C84.2057 176.583 83.6602 171.167 83.1815 165.764C82.5602 158.805 82.1149 151.617 79.9084 144.963Z" fill="#F6D4E0"/>
<path d="M117.768 109.437C117.756 109.486 117.743 109.533 117.73 109.582C117.654 109.633 117.578 109.684 117.503 109.733C117.583 109.754 117.641 109.752 117.687 109.74C116.32 115.155 114.512 120.287 110.562 124.269C106.096 128.771 99.9149 131.183 93.7295 130.99C83.5274 130.669 74.5476 124.19 63.7777 124.397C52.6493 124.609 24.5344 125.916 25.1667 147.75C25.425 156.667 28.5155 165.363 32.2205 173.569C42.77 180.19 55.1119 184 68.3088 184C107.091 184 138.533 151.118 138.533 110.553C138.533 107.062 138.294 103.632 137.845 100.271C130.615 100.993 123.893 105.441 117.788 109.547C117.781 109.512 117.781 109.482 117.768 109.437Z" fill="#7781BE"/>
<path d="M79.9084 144.963C77.9646 139.102 74.4488 133.026 68.9403 130.218C62.5011 126.936 55.5497 129.836 49.4088 132.463C49.4111 132.439 49.4133 132.418 49.4111 132.388C49.3977 132.421 49.3821 132.451 49.3688 132.481C49.3131 132.505 49.2552 132.53 49.1995 132.553C49.2507 132.579 49.2886 132.584 49.322 132.584C47.75 136.061 45.9153 139.293 42.7714 141.468C39.2156 143.925 34.7513 144.747 30.5943 143.806C23.7387 142.253 18.4996 134.549 11.1452 135.432C8.25068 135.779 5.71016 137.171 3.61719 139.169C14.278 165.515 39.229 184 68.308 184C73.9211 184 79.3785 183.309 84.6087 182.007C84.2057 176.583 83.6602 171.167 83.1815 165.764C82.5602 158.805 82.1149 151.617 79.9084 144.963Z" fill="#FCC4D7"/>
<path d="M117.768 109.437C117.756 109.486 117.743 109.533 117.73 109.582C117.654 109.633 117.578 109.684 117.503 109.733C117.583 109.754 117.641 109.752 117.687 109.74C116.32 115.155 114.512 120.287 110.562 124.269C106.096 128.771 99.9149 131.183 93.7295 130.99C83.5274 130.669 74.5476 124.19 63.7777 124.397C52.6493 124.609 24.5344 125.916 25.1667 147.75C25.425 156.667 28.5155 165.363 32.2205 173.569C42.77 180.19 55.1119 184 68.3088 184C107.091 184 138.533 151.118 138.533 110.553C138.533 107.062 138.294 103.632 137.845 100.271C130.615 100.993 123.893 105.441 117.788 109.547C117.781 109.512 117.781 109.482 117.768 109.437Z" fill="#6A68CE"/>
<path d="M152.43 108.069C148.427 114.319 143.33 117.144 138.167 118.045C128.604 119.712 118.807 114.775 115.302 112.754C113.706 111.487 111.953 110.486 110.255 109.415C107.85 107.901 105.552 106.247 103.956 103.516C102.364 100.791 101.453 93.1785 102.922 90.2792C103.953 88.2509 106.18 86.6929 108.246 86.9048C109.502 87.0329 114.294 86.9258 114.71 83.0042C115.062 79.6927 113.877 77.3942 109.756 75.9341C107.705 75.2075 105.565 72.3292 104.92 68.4099C104.381 65.131 103.873 61.3002 101.847 58.5569C95.7997 50.3783 81.013 52.0317 77.3347 61.8847C75.9587 65.5688 74.1351 67.823 70.7107 68.3097C70.5058 60.8181 74.5047 51.9991 78.4302 47.3509C79.1917 46.4474 79.9354 45.6929 80.6634 45.0664C83.1861 41.359 91.2842 39.0419 94.506 39.0023C109.7 38.8137 113.483 50.0919 124.988 58.2914C136.417 66.4351 149.273 70.1867 153.1 85.6846C155.055 93.5721 156.527 101.671 152.43 108.069Z" fill="#F1503C"/>
</g>
<path d="M23.084 30.424L20.12 25.492H22.064L23.972 28.864L25.88 25.492H27.74L24.74 30.424V34H23.084V30.424ZM27.3943 32.392C27.3943 31.336 28.1743 30.748 29.1583 30.604L30.6103 30.388C30.9463 30.34 31.0543 30.172 31.0543 29.968C31.0543 29.548 30.7303 29.2 30.0583 29.2C29.3623 29.2 28.9783 29.644 28.9303 30.16L27.5143 29.86C27.6103 28.936 28.4623 27.916 30.0463 27.916C31.9183 27.916 32.6143 28.972 32.6143 30.16V33.064C32.6143 33.376 32.6503 33.796 32.6863 34H31.2223C31.1863 33.844 31.1623 33.52 31.1623 33.292C30.8623 33.76 30.2983 34.168 29.4223 34.168C28.1623 34.168 27.3943 33.316 27.3943 32.392ZM29.7583 32.98C30.4303 32.98 31.0543 32.656 31.0543 31.612V31.348L29.7223 31.552C29.3143 31.612 28.9903 31.84 28.9903 32.296C28.9903 32.644 29.2423 32.98 29.7583 32.98ZM33.7191 32.356L35.0871 32.056C35.1231 32.524 35.4711 32.956 36.1671 32.956C36.6951 32.956 36.9471 32.68 36.9471 32.368C36.9471 32.104 36.7671 31.888 36.3111 31.792L35.5311 31.612C34.3911 31.36 33.8751 30.676 33.8751 29.848C33.8751 28.792 34.8111 27.916 36.0831 27.916C37.7631 27.916 38.3271 28.984 38.3991 29.62L37.0671 29.92C37.0191 29.572 36.7671 29.128 36.0951 29.128C35.6751 29.128 35.3391 29.38 35.3391 29.716C35.3391 30.004 35.5551 30.184 35.8791 30.244L36.7191 30.424C37.8831 30.664 38.4711 31.372 38.4711 32.236C38.4711 33.196 37.7271 34.18 36.1791 34.18C34.4031 34.18 33.7911 33.028 33.7191 32.356ZM41.3503 30.604V34H39.7543V28.096H41.3023V28.828C41.6623 28.216 42.3703 27.94 43.0063 27.94C44.4703 27.94 45.1423 28.984 45.1423 30.28V34H43.5463V30.556C43.5463 29.896 43.2223 29.38 42.4543 29.38C41.7583 29.38 41.3503 29.92 41.3503 30.604ZM46.4022 32.392C46.4022 31.336 47.1822 30.748 48.1662 30.604L49.6182 30.388C49.9542 30.34 50.0622 30.172 50.0622 29.968C50.0622 29.548 49.7382 29.2 49.0662 29.2C48.3702 29.2 47.9862 29.644 47.9382 30.16L46.5222 29.86C46.6182 28.936 47.4702 27.916 49.0542 27.916C50.9262 27.916 51.6222 28.972 51.6222 30.16V33.064C51.6222 33.376 51.6582 33.796 51.6942 34H50.2302C50.1942 33.844 50.1702 33.52 50.1702 33.292C49.8702 33.76 49.3062 34.168 48.4302 34.168C47.1702 34.168 46.4022 33.316 46.4022 32.392ZM48.7662 32.98C49.4382 32.98 50.0622 32.656 50.0622 31.612V31.348L48.7302 31.552C48.3222 31.612 47.9982 31.84 47.9982 32.296C47.9982 32.644 48.2502 32.98 48.7662 32.98ZM61.4033 34L60.5273 33.076C59.8913 33.724 59.1593 34.156 58.2473 34.156C56.5793 34.156 55.6673 33.016 55.6673 31.876C55.6673 30.82 56.2313 30.208 57.1193 29.548L57.1793 29.512L57.0473 29.368C56.6393 28.936 56.1113 28.288 56.1113 27.52C56.1113 26.092 57.3113 25.3 58.4633 25.3C59.8193 25.3 60.8273 26.176 60.8273 27.448C60.8273 28.312 60.2393 28.936 59.6273 29.392L59.3033 29.632L60.5873 30.988L62.7353 28.744V30.736L61.5473 31.984L63.4673 34H61.4033ZM58.2713 32.764C58.7873 32.764 59.1593 32.488 59.5673 32.056L58.1153 30.52L57.9353 30.652C57.5273 30.952 57.2513 31.276 57.2513 31.78C57.2513 32.272 57.6473 32.764 58.2713 32.764ZM57.6233 27.472C57.6233 27.832 57.9113 28.18 58.1273 28.396L58.3553 28.648L58.7753 28.336C59.1713 28.048 59.3153 27.748 59.3153 27.436C59.3153 26.98 58.9553 26.62 58.4513 26.62C58.0553 26.62 57.6233 26.896 57.6233 27.472ZM68.5892 34H66.9212V25.492H72.2972V27.064H68.5772V29.164H71.8892V30.688H68.5892V34ZM76.7293 28.072V29.68C76.5493 29.644 76.3933 29.632 76.2493 29.632C75.4333 29.632 74.7253 30.028 74.7253 31.3V34H73.1293V28.096H74.6773V28.972C75.0373 28.192 75.8533 28.048 76.3573 28.048C76.4893 28.048 76.6093 28.06 76.7293 28.072ZM77.5272 32.392C77.5272 31.336 78.3072 30.748 79.2912 30.604L80.7432 30.388C81.0792 30.34 81.1872 30.172 81.1872 29.968C81.1872 29.548 80.8632 29.2 80.1912 29.2C79.4952 29.2 79.1112 29.644 79.0632 30.16L77.6472 29.86C77.7432 28.936 78.5952 27.916 80.1792 27.916C82.0512 27.916 82.7472 28.972 82.7472 30.16V33.064C82.7472 33.376 82.7832 33.796 82.8192 34H81.3552C81.3192 33.844 81.2952 33.52 81.2952 33.292C80.9952 33.76 80.4312 34.168 79.5552 34.168C78.2952 34.168 77.5272 33.316 77.5272 32.392ZM79.8912 32.98C80.5632 32.98 81.1872 32.656 81.1872 31.612V31.348L79.8552 31.552C79.4472 31.612 79.1232 31.84 79.1232 32.296C79.1232 32.644 79.3752 32.98 79.8912 32.98ZM85.9519 30.604V34H84.3559V28.096H85.9039V28.828C86.2639 28.216 86.9719 27.94 87.6079 27.94C89.0719 27.94 89.7439 28.984 89.7439 30.28V34H88.1479V30.556C88.1479 29.896 87.8239 29.38 87.0559 29.38C86.3599 29.38 85.9519 29.92 85.9519 30.604ZM95.8397 34H90.9557V32.596L93.7517 29.476H91.0277V28.096H95.7917V29.428L92.9117 32.608H95.8397V34ZM98.7371 34H97.1411V28.096H98.7371V34ZM96.9491 26.164C96.9491 25.612 97.3931 25.168 97.9331 25.168C98.4851 25.168 98.9171 25.612 98.9171 26.164C98.9171 26.692 98.4851 27.136 97.9331 27.136C97.3931 27.136 96.9491 26.692 96.9491 26.164ZM99.9418 32.356L101.31 32.056C101.346 32.524 101.694 32.956 102.39 32.956C102.918 32.956 103.17 32.68 103.17 32.368C103.17 32.104 102.99 31.888 102.534 31.792L101.754 31.612C100.614 31.36 100.098 30.676 100.098 29.848C100.098 28.792 101.034 27.916 102.306 27.916C103.986 27.916 104.55 28.984 104.622 29.62L103.29 29.92C103.242 29.572 102.99 29.128 102.318 29.128C101.898 29.128 101.562 29.38 101.562 29.716C101.562 30.004 101.778 30.184 102.102 30.244L102.942 30.424C104.106 30.664 104.694 31.372 104.694 32.236C104.694 33.196 103.95 34.18 102.402 34.18C100.626 34.18 100.014 33.028 99.9418 32.356ZM111.701 28.096L109.337 30.58L111.749 34H109.793L108.233 31.744L107.573 32.44V34H105.977V25.312H107.573V30.292L109.613 28.096H111.701ZM112.18 32.392C112.18 31.336 112.96 30.748 113.944 30.604L115.396 30.388C115.732 30.34 115.84 30.172 115.84 29.968C115.84 29.548 115.516 29.2 114.844 29.2C114.148 29.2 113.764 29.644 113.716 30.16L112.3 29.86C112.396 28.936 113.248 27.916 114.832 27.916C116.704 27.916 117.4 28.972 117.4 30.16V33.064C117.4 33.376 117.436 33.796 117.472 34H116.008C115.972 33.844 115.948 33.52 115.948 33.292C115.648 33.76 115.084 34.168 114.208 34.168C112.948 34.168 112.18 33.316 112.18 32.392ZM114.544 32.98C115.215 32.98 115.84 32.656 115.84 31.612V31.348L114.508 31.552C114.1 31.612 113.776 31.84 113.776 32.296C113.776 32.644 114.028 32.98 114.544 32.98Z" fill="#1B1944"/>
</svg>
