<svg width="209" height="180" viewBox="0 0 209 180" fill="none" xmlns="http://www.w3.org/2000/svg">
<path d="M209 90C209 98.2833 207.88 106.305 205.786 113.921C195.308 152.016 160.423 180 119 180C71.6848 180 32.8952 143.487 29.2764 97.1037C29.094 94.7586 29 92.3907 29 90C29 70.8431 34.9839 53.0853 45.1877 38.4933C61.4553 15.2218 88.4481 0 119 0C154.621 0 185.409 20.6927 199.996 50.7146C205.766 62.5854 209 75.9151 209 90Z" fill="#FCC4D7"/>
<mask id="mask0_1390_2626" style="mask-type:alpha" maskUnits="userSpaceOnUse" x="29" y="0" width="180" height="180">
<path d="M209 90C209 98.2833 207.88 106.305 205.786 113.921C195.308 152.016 160.423 180 119 180C71.6848 180 32.8952 143.487 29.2764 97.1037C29.094 94.7586 29 92.3907 29 90C29 70.8431 34.9839 53.0853 45.1877 38.4933C61.4553 15.2218 88.4481 0 119 0C154.621 0 185.409 20.6927 199.996 50.7146C205.766 62.5854 209 75.9151 209 90Z" fill="#FCC4D7"/>
</mask>
<g mask="url(#mask0_1390_2626)">
<mask id="mask1_1390_2626" style="mask-type:alpha" maskUnits="userSpaceOnUse" x="32" y="0" width="186" height="185">
<path d="M217.48 92.2417C217.48 100.731 216.332 108.952 214.185 116.759C203.447 155.802 167.692 184.483 125.238 184.483C76.7442 184.483 36.9884 147.061 33.2795 99.5224C33.0926 97.1189 32.9962 94.692 32.9962 92.2417C32.9962 72.6077 39.1291 54.4076 49.5872 39.4521C66.2599 15.6009 93.9251 0 125.238 0C161.746 0 193.301 21.2082 208.251 51.9778C214.165 64.1443 217.48 77.8061 217.48 92.2417Z" fill="#FCC4D7"/>
</mask>
<g mask="url(#mask1_1390_2626)">
</g>
<g clip-path="url(#clip0_1390_2626)">
<mask id="mask2_1390_2626" style="mask-type:luminance" maskUnits="userSpaceOnUse" x="-8" y="18" width="244" height="168">
<path d="M235.928 18.4492H-8V185.509H235.928V18.4492Z" fill="white"/>
</mask>
<g mask="url(#mask2_1390_2626)">
<path d="M101.495 131.217L98.9266 145.702C98.9266 145.702 68.162 128.223 64.129 125.628C60.0936 123.04 55.9652 118.82 51.4773 121.493C46.987 124.164 47.8748 126.492 45.1234 128.299C42.3695 130.111 39.3979 129.116 37.5661 129.34C35.7343 129.561 34.4918 129.675 34.2766 131.833C34.0614 133.983 33.225 133.224 34.9785 133.38C36.7346 133.54 46.241 135.433 47.5397 134.907C48.8384 134.379 52.4923 130.95 53.7347 130.828C54.9771 130.714 82.0047 153.976 87.082 158.135C92.1569 162.292 104.187 171.856 111.544 165.649C115.35 162.448 115.484 157.196 116.24 153.378C116.993 149.554 118.072 129.86 118.072 129.86L101.492 131.217H101.495Z" fill="white"/>
<path d="M102.199 154.636C102.045 154.636 101.891 154.589 101.756 154.495C100.333 153.48 99.3571 151.235 98.8557 147.823C98.4986 145.381 98.5157 143.238 98.5182 143.148C98.5231 142.732 98.863 142.396 99.2812 142.396C99.2837 142.396 99.2861 142.396 99.2886 142.396C99.7092 142.401 100.049 142.744 100.044 143.163C100.02 145.439 100.443 151.69 102.644 153.259C102.986 153.502 103.065 153.976 102.82 154.317C102.671 154.524 102.436 154.633 102.199 154.633V154.636Z" fill="#FCD0DC"/>
<path d="M104.42 172.373C104.026 172.373 103.693 172.074 103.659 171.677C103.652 171.597 103.5 169.697 104.045 167.559C104.794 164.624 106.491 162.661 108.961 161.887C113.792 160.372 116.678 164.894 117.529 167.496C117.658 167.895 117.441 168.323 117.04 168.452C116.641 168.581 116.208 168.364 116.078 167.966C115.995 167.715 114.017 161.895 109.421 163.335C104.689 164.818 105.178 171.483 105.183 171.548C105.217 171.967 104.904 172.331 104.486 172.368C104.464 172.368 104.444 172.37 104.422 172.37L104.42 172.373Z" fill="#FCD0DC"/>
<path d="M160.5 121.154C160.5 121.154 151.487 139.33 152.874 150.066C154.261 160.802 159.991 166.313 160.241 177.001C160.49 187.688 97.76 185.275 97.76 185.275C97.76 185.275 111.483 149.489 112.701 141.495C113.919 133.5 110.148 124.603 110.148 124.603L118.231 106.543L160.502 121.156L160.5 121.154Z" fill="#6A68CE"/>
<path d="M130.912 89.108C130.912 89.108 118.045 87.69 109.519 94.7776C100.991 101.863 101.013 133.361 101.013 133.361C101.013 133.361 112.887 136.243 117.778 132.256C122.67 128.27 126.852 120.479 126.852 120.479L130.914 89.108H130.912Z" fill="#6A68CE"/>
<path d="M109.617 76.1518C109.617 76.1518 107.56 67.6681 112.5 57.2215C113.215 55.7086 114.024 54.2541 114.927 52.8823C116.898 49.9514 119.229 47.2565 122.095 45.4323C127.101 42.0393 133.578 40.5897 141.729 42.4795C157.824 46.5949 164.689 65.1482 161.168 67.6024C154.359 72.3477 148.059 66.9359 146.234 64.1534C144.41 61.3709 141.012 59.4032 138.501 62.3317C135.989 65.2577 139.547 66.9311 139.547 66.9311C139.547 66.9311 136.845 72.2431 127.062 76.6747C117.277 81.1112 109.614 76.1542 109.614 76.1542" fill="#1B1944"/>
</g>
<path d="M147.366 140.804L156.195 128.981L150.089 119.281L147.366 135.344V140.804Z" fill="white"/>
<mask id="mask3_1390_2626" style="mask-type:luminance" maskUnits="userSpaceOnUse" x="-8" y="18" width="244" height="168">
<path d="M235.928 18.4492H-8V185.509H235.928V18.4492Z" fill="white"/>
</mask>
<g mask="url(#mask3_1390_2626)">
<path d="M116.032 65.1349C117.812 76.4522 120.278 82.9439 131.971 85.9794C143.661 89.0173 142.634 90.1629 143.536 92.3787C144.436 94.5945 151.138 114.634 151.138 114.634L166.02 107.133C166.02 107.133 160.282 83.0266 160.167 79.0718C160.055 75.1193 168.05 75.489 166.069 60.4966C164.09 45.5114 156.037 33.9654 137.156 38.9734C118.27 43.9863 113.907 51.6334 116.032 65.1349Z" fill="#FCD0DC"/>
<path d="M130.102 76.6264C129.762 75.6997 128.984 76.6191 128.045 76.6264C128.045 76.6264 124.609 77.1663 124.384 77.249C123.2 77.6771 122.589 78.9808 123.019 80.158C123.45 81.3352 124.761 81.9433 125.944 81.5152C126.169 81.4325 126.343 81.3231 126.487 81.1966C126.681 81.1893 126.874 81.1577 127.065 81.0993L127.069 81.109L128.6 80.5545L129.315 80.2967L129.266 80.1653C129.99 79.5694 130.44 77.5555 130.1 76.6288" fill="#F04C3A"/>
<path d="M118.732 67.5281C119.793 67.9975 120.488 67.28 120.96 66.2244C121.432 65.1688 121.505 64.174 120.444 63.7046C119.383 63.2352 118.138 63.7094 117.666 64.7651C117.194 65.8207 117.671 67.0587 118.732 67.5281Z" fill="white"/>
<path d="M120.014 68.0951C118.952 67.6257 119.023 66.6309 119.495 65.5753C119.967 64.5197 120.662 63.8022 121.723 64.2716C122.785 64.741 123.262 65.9791 122.789 67.0347C122.317 68.0903 121.073 68.5646 120.011 68.0951" fill="white"/>
</g>
<path d="M120.356 63.6642L118.644 67.4883L120.657 68.3796L122.369 64.5556L120.356 63.6642Z" fill="white"/>
<mask id="mask4_1390_2626" style="mask-type:luminance" maskUnits="userSpaceOnUse" x="-8" y="18" width="244" height="168">
<path d="M235.928 18.4492H-8V185.509H235.928V18.4492Z" fill="white"/>
</mask>
<g mask="url(#mask4_1390_2626)">
<path d="M117.634 67.0418C118.695 67.5112 119.39 66.7937 119.862 65.7381C120.334 64.6825 120.407 63.6877 119.346 63.2183C118.284 62.7488 117.04 63.2231 116.568 64.2787C116.095 65.3343 116.572 66.5723 117.634 67.0418Z" fill="#1B1944"/>
<path d="M132.267 76.4522C132.088 76.4522 131.909 76.4425 131.731 76.423C129.999 76.243 128.478 75.2044 127.451 73.5043C126.468 71.8795 126.05 69.8243 126.272 67.7179C126.495 65.6116 127.334 63.6877 128.635 62.3013C129.997 60.8492 131.702 60.1487 133.433 60.3311C135.165 60.5111 136.686 61.5497 137.713 63.2523C138.696 64.877 139.115 66.9323 138.892 69.0387C138.669 71.145 137.831 73.0665 136.529 74.4553C135.309 75.7566 133.812 76.4546 132.269 76.4546L132.267 76.4522ZM132.902 62.007C131.834 62.007 130.775 62.5153 129.884 63.4639C128.835 64.5827 128.158 66.1564 127.972 67.8955C127.788 69.6346 128.124 71.3153 128.916 72.6262C129.662 73.8594 130.723 74.6061 131.909 74.7302C133.096 74.8542 134.289 74.3434 135.277 73.2903C136.326 72.1714 137.004 70.5977 137.187 68.8587C137.371 67.1172 137.036 65.4389 136.243 64.1279C135.497 62.8948 134.436 62.148 133.25 62.024C133.132 62.0118 133.017 62.007 132.9 62.007H132.902Z" fill="white"/>
<path d="M118.754 74.4209C118.575 74.4209 118.397 74.4112 118.216 74.3918C116.484 74.2118 114.963 73.1732 113.936 71.473C112.953 69.8483 112.535 67.793 112.757 65.6867C112.98 63.5803 113.819 61.6564 115.12 60.27C116.482 58.818 118.187 58.1175 119.918 58.2999C121.65 58.4799 123.171 59.5185 124.198 61.2186C125.181 62.8434 125.6 64.8986 125.377 67.005C125.154 69.1113 124.316 71.0352 123.014 72.4216C121.794 73.7229 120.297 74.4209 118.754 74.4209ZM119.39 59.9757C118.321 59.9757 117.262 60.4841 116.372 61.4327C115.323 62.5515 114.645 64.1252 114.462 65.8642C114.278 67.6033 114.613 69.284 115.406 70.595C116.152 71.8282 117.213 72.5749 118.399 72.6989C119.588 72.8205 120.779 72.3122 121.767 71.259C122.816 70.1426 123.494 68.5665 123.677 66.8274C123.861 65.0883 123.526 63.4077 122.733 62.0967C121.987 60.8635 120.926 60.1168 119.74 59.9928C119.622 59.9806 119.507 59.9757 119.39 59.9757Z" fill="white"/>
<path d="M130.361 69.7687C131.499 70.0095 132.027 69.1631 132.269 68.0321C132.511 66.9011 132.372 65.9136 131.237 65.6752C130.1 65.4344 128.982 66.1568 128.742 67.2878C128.5 68.4188 129.227 69.5303 130.364 69.7687" fill="white"/>
<path d="M131.733 70.0578C130.596 69.817 130.459 68.832 130.701 67.701C130.943 66.57 131.472 65.726 132.609 65.9643C133.746 66.2051 134.47 67.3167 134.23 68.4452C133.988 69.5762 132.871 70.2962 131.736 70.0578" fill="white"/>
</g>
<path d="M131.141 65.6536L130.266 69.748L132.422 70.2037L133.297 66.1092L131.141 65.6536Z" fill="white"/>
<mask id="mask5_1390_2626" style="mask-type:luminance" maskUnits="userSpaceOnUse" x="-8" y="18" width="244" height="168">
<path d="M235.928 18.4492H-8V185.509H235.928V18.4492Z" fill="white"/>
</mask>
<g mask="url(#mask5_1390_2626)">
<path d="M129.185 69.5167C130.322 69.7575 130.851 68.9111 131.093 67.7801C131.335 66.6491 131.195 65.6616 130.061 65.4232C128.923 65.1825 127.806 65.9048 127.566 67.0358C127.324 68.1668 128.05 69.2784 129.187 69.5167" fill="#1B1944"/>
</g>
<path d="M164.883 36.7741L157.985 62.373L193.168 71.7484L200.066 46.1495L164.883 36.7741Z" fill="#F04C3A"/>
<path d="M178.613 57.8563C178.258 57.8563 177.913 57.6837 177.705 57.3699L163.359 35.713C163.029 35.2144 163.168 34.5455 163.67 34.2172C164.171 33.8888 164.843 34.0275 165.174 34.5261L178.987 55.3803L201.468 44.0776C202.004 43.8076 202.657 44.0216 202.928 44.5543C203.2 45.087 202.984 45.7364 202.449 46.0039L179.104 57.742C178.948 57.8199 178.782 57.8588 178.615 57.8588L178.613 57.8563Z" fill="#FCD0DC"/>
<path d="M194.204 76.8578C193.774 76.8578 193.365 76.6 193.197 76.1792L184.446 54.4518C184.223 53.8972 184.495 53.2697 185.05 53.0484C185.608 52.827 186.239 53.0946 186.461 53.6492L195.212 75.3766C195.435 75.9311 195.163 76.5586 194.608 76.78C194.476 76.8335 194.339 76.8578 194.204 76.8578Z" fill="#FCD0DC"/>
<path d="M154.62 66.3083C154.298 66.3083 153.98 66.1673 153.767 65.8949C153.395 65.4254 153.478 64.7468 153.95 64.3796L172.452 49.9149C172.924 49.5452 173.606 49.6279 173.976 50.0973C174.348 50.5667 174.264 51.2453 173.792 51.6126L155.291 66.0773C155.092 66.2329 154.855 66.3083 154.62 66.3083Z" fill="#FCD0DC"/>
<mask id="mask6_1390_2626" style="mask-type:luminance" maskUnits="userSpaceOnUse" x="-8" y="18" width="244" height="168">
<path d="M235.928 18.4492H-8V185.509H235.928V18.4492Z" fill="white"/>
</mask>
<g mask="url(#mask6_1390_2626)">
<path d="M197.335 55.9045C201.224 56.9407 205.222 54.6446 206.264 50.7773C207.306 46.91 204.997 42.9333 201.109 41.8971C197.217 40.861 193.221 43.1571 192.179 47.0244C191.137 50.8941 193.446 54.8684 197.335 55.9045Z" fill="white"/>
</g>
<path d="M197.178 52.9194C197.071 52.9194 196.961 52.9024 196.855 52.8708C196.528 52.7686 196.268 52.5205 196.154 52.1995L194.808 48.4149C194.608 47.853 194.904 47.2352 195.469 47.0358C196.036 46.8363 196.655 47.1306 196.855 47.6925L197.716 50.1126L202.251 46.8388C202.735 46.4885 203.415 46.5955 203.767 47.0796C204.119 47.5612 204.012 48.2373 203.525 48.5876L197.814 52.7103C197.626 52.8465 197.403 52.917 197.176 52.917L197.178 52.9194Z" fill="#6A68CE"/>
<mask id="mask7_1390_2626" style="mask-type:luminance" maskUnits="userSpaceOnUse" x="-8" y="18" width="244" height="168">
<path d="M235.928 18.4492H-8V185.509H235.928V18.4492Z" fill="white"/>
</mask>
<g mask="url(#mask7_1390_2626)">
<path d="M115.548 49.711C115.548 49.711 119.857 42.1126 130.635 37.8221C132.196 37.2019 133.785 36.6863 135.385 36.2947C138.836 35.4896 142.389 35.098 145.738 35.7085C151.73 36.623 157.455 39.9552 162.124 46.8653C171.073 60.7924 163.369 79.0174 159.113 78.4239C150.881 77.2783 149.981 69.0451 150.561 65.7737C151.13 62.4999 149.996 58.759 146.151 59.1944C142.306 59.6322 143.761 63.2685 143.761 63.2685C143.761 63.2685 138.136 65.3189 127.945 61.9283C117.749 58.5353 115.548 49.7135 115.548 49.7135" fill="#1B1944"/>
<path d="M148.176 70.5645L151.92 75.5287C151.92 75.5287 150.685 77.3651 147.313 76.7108C143.94 76.0614 142.813 73.9064 142.813 73.9064L148.179 70.5669L148.176 70.5645Z" fill="#1B1944"/>
<path d="M149.824 76.0484C149.401 76.0995 149.012 75.7614 148.954 75.2944C148.895 74.8274 149.191 74.4042 149.614 74.3507C150.037 74.2971 150.455 74.4844 150.512 74.9563C150.57 75.4233 150.245 75.9949 149.822 76.0484" fill="#FCD0DC"/>
<path d="M147.694 76.2222C147.271 76.2733 146.882 75.9352 146.824 75.4682C146.765 75.0012 147.061 74.578 147.484 74.5245C147.907 74.471 148.325 74.6583 148.382 75.1301C148.44 75.5971 148.115 76.1687 147.692 76.2222" fill="#FCD0DC"/>
<path d="M145.588 75.2788C145.165 75.3299 144.776 74.9918 144.718 74.5248C144.659 74.0578 144.955 73.6346 145.378 73.5811C145.801 73.5276 146.219 73.7149 146.276 74.1868C146.334 74.6538 146.009 75.2253 145.586 75.2788" fill="#FCD0DC"/>
<path d="M129.767 93.834C129.767 93.834 127.774 95.4198 127.678 97.5918C127.336 105.29 117.949 122.289 120.19 137.654C122.67 154.665 112.701 168.215 112.701 168.215C112.701 168.215 118.693 185.958 124.638 170.579C131.288 153.376 127.95 150.837 130.809 135.881C131.795 130.729 135.488 126.806 137.853 122.343C143.228 112.205 150.089 95.0088 150.089 95.0088C150.089 95.0088 145.588 103.381 134.304 98.5866C129.205 96.4195 129.77 93.834 129.77 93.834" fill="#F04C3A"/>
<path d="M156.196 87.4131C156.196 87.4131 168.554 91.436 170.026 102.389C171.498 113.343 150.086 136.55 150.086 136.55C150.086 136.55 153.716 133.947 152.818 127.721C151.92 121.494 140.964 112.02 140.964 112.02L156.196 87.4082V87.4131Z" fill="#6A68CE"/>
<path d="M158.663 70.5653L145.006 85.0835C145.006 85.0835 143.918 86.7496 142.147 85.8594C140.381 84.9692 134.169 81.2892 134.169 81.2892C134.169 81.2892 132.858 80.9414 134.487 78.7426C136.111 76.5438 148.565 62.7018 148.565 62.7018C148.565 62.7018 148.959 61.2887 151.568 63.0691C154.17 64.8471 157.92 66.8805 159.006 67.7999C160.091 68.7193 159.999 69.4587 158.666 70.5678" fill="#6A68CE"/>
<path d="M147.609 139.089C147.609 139.089 149.851 139.648 146.171 141.541C142.487 143.433 138.603 144.362 136.456 142.696C134.314 141.03 130.968 140.152 133.988 128.343C137.011 116.537 146.97 84.2658 146.97 84.2658C146.97 84.2658 145.667 84.5747 144.07 82.2738C142.468 79.9704 142.783 77.4335 142.783 77.4335C142.783 77.4335 137.608 76.8012 136.295 76.6406C134.984 76.4801 134.717 74.1062 138.714 72.2528C142.707 70.3994 148.562 69.4727 152.483 73.9335C156.408 78.3943 156.67 80.0653 155.983 83.7282C155.295 87.3912 150.265 120.497 150.265 120.497L149.991 124.6L147.611 139.089H147.609Z" fill="white"/>
<path d="M154.882 97.626C154.077 97.5968 153.454 96.8525 153.483 95.9623C153.515 95.0721 154.192 94.374 154.995 94.4032C155.799 94.43 156.523 94.9018 156.491 95.792C156.46 96.6823 155.684 97.6527 154.88 97.626" fill="#F04C3A"/>
<path d="M151.673 98.9893C150.869 98.9601 150.245 98.2158 150.274 97.3256C150.306 96.4354 150.984 95.7373 151.786 95.7665C152.591 95.7933 153.314 96.2651 153.283 97.1553C153.251 98.0455 152.476 99.016 151.671 98.9893" fill="#F04C3A"/>
<path d="M147.816 98.8252C147.012 98.796 146.388 98.0517 146.417 97.1615C146.449 96.2713 147.127 95.5733 147.929 95.6024C148.734 95.6292 149.458 96.1011 149.426 96.9913C149.394 97.8815 148.619 98.852 147.814 98.8252" fill="#F04C3A"/>
<path d="M144.757 96.4854C143.952 96.4562 143.329 95.7119 143.358 94.8217C143.39 93.9315 144.067 93.2334 144.869 93.2626C145.674 93.2894 146.398 93.7612 146.366 94.6514C146.334 95.5416 145.559 96.5121 144.754 96.4854" fill="#F04C3A"/>
<path d="M142.69 93.5322C141.886 93.503 141.262 92.7588 141.291 91.8686C141.323 90.9783 142.001 90.2803 142.803 90.3095C143.607 90.3362 144.331 90.8081 144.3 91.6983C144.268 92.5885 143.492 93.559 142.688 93.5322" fill="#F04C3A"/>
</g>
<path d="M193.493 87.3964L163.013 95.8027L174.04 135.345L204.52 126.939L193.493 87.3964Z" fill="white"/>
<path d="M181.729 87.7909L173.301 90.1152L174.558 94.6224L182.985 92.298L181.729 87.7909Z" fill="#6A68CE"/>
<path d="M180.146 105.867C179.784 105.867 179.452 105.628 179.349 105.264C179.227 104.826 179.486 104.371 179.926 104.249L191.8 100.975C192.238 100.854 192.698 101.112 192.82 101.549C192.942 101.987 192.683 102.442 192.243 102.564L180.369 105.838C180.295 105.857 180.22 105.867 180.146 105.867Z" fill="#F04C3A"/>
<path d="M182.423 114.035C182.061 114.035 181.729 113.797 181.626 113.432C181.504 112.994 181.763 112.539 182.203 112.418L194.077 109.141C194.517 109.02 194.975 109.278 195.097 109.715C195.219 110.153 194.96 110.608 194.52 110.73L182.646 114.006C182.572 114.025 182.497 114.035 182.423 114.035Z" fill="#F04C3A"/>
<path d="M184.593 121.816C184.231 121.816 183.898 121.578 183.795 121.213C183.673 120.775 183.932 120.32 184.372 120.198L196.246 116.925C196.684 116.803 197.144 117.061 197.266 117.499C197.389 117.936 197.129 118.391 196.689 118.513L184.815 121.787C184.742 121.806 184.666 121.816 184.593 121.816Z" fill="#F04C3A"/>
<path d="M174.714 108.222C174.568 108.222 174.421 108.183 174.291 108.105L171.374 106.374C170.98 106.14 170.853 105.634 171.087 105.245C171.322 104.854 171.831 104.727 172.222 104.961L173.986 106.006L174.348 100.977C174.379 100.522 174.776 100.181 175.233 100.215C175.688 100.247 176.033 100.641 175.998 101.096L175.541 107.459C175.522 107.743 175.353 107.998 175.098 108.13C174.979 108.193 174.846 108.222 174.714 108.222Z" fill="#F04C3A"/>
<path d="M177.087 116.734C176.94 116.734 176.793 116.695 176.664 116.618L173.746 114.886C173.352 114.652 173.225 114.146 173.46 113.757C173.695 113.366 174.203 113.239 174.595 113.473L176.358 114.518L176.72 109.489C176.752 109.034 177.15 108.691 177.605 108.727C178.06 108.759 178.405 109.153 178.371 109.608L177.913 115.971C177.894 116.255 177.725 116.511 177.471 116.642C177.351 116.705 177.219 116.734 177.087 116.734Z" fill="#F04C3A"/>
<path d="M179.567 125.629C179.42 125.629 179.273 125.59 179.144 125.512L176.226 123.78C175.832 123.547 175.705 123.041 175.94 122.652C176.175 122.26 176.683 122.134 177.075 122.367L178.838 123.413L179.2 118.383C179.232 117.928 179.63 117.585 180.085 117.622C180.54 117.653 180.885 118.047 180.851 118.502L180.393 124.865C180.374 125.15 180.205 125.405 179.951 125.536C179.831 125.6 179.699 125.629 179.567 125.629Z" fill="#F04C3A"/>
<mask id="mask8_1390_2626" style="mask-type:luminance" maskUnits="userSpaceOnUse" x="-8" y="18" width="244" height="168">
<path d="M235.928 18.4492H-8V185.509H235.928V18.4492Z" fill="white"/>
</mask>
<g mask="url(#mask8_1390_2626)">
<path d="M178.263 91.16C179.515 90.8146 180.247 89.5255 179.902 88.2827C179.557 87.0398 178.258 86.3101 177.006 86.653C175.754 86.9984 175.023 88.2875 175.367 89.5304C175.712 90.7733 177.011 91.503 178.263 91.16Z" fill="#6A68CE"/>
</g>
</g>
</g>
<g clip-path="url(#clip1_1390_2626)">
<path d="M77.3222 86.6567C63.3334 104.145 36.54 105.882 17.4805 90.5335C-1.579 75.1848 -5.6878 48.5643 8.30102 31.073C22.2898 13.5844 51.1209 10.583 70.1804 25.9317C89.2399 41.2804 91.311 69.1654 77.3222 86.6567Z" fill="white"/>
<path d="M84.2332 46.293C84.892 54.8191 102.003 65.4156 102.003 65.4156C102.003 65.4156 77.5974 81.2367 60.9954 86.2613C44.3934 91.2886 84.2332 46.293 84.2332 46.293Z" fill="white"/>
<path d="M16.5353 67.6606C23.8522 68.2998 30.3017 62.889 30.9411 55.5773C31.5805 48.2629 26.1679 41.8155 18.8538 41.1763C11.5369 40.5371 5.08734 45.9479 4.44795 53.2596C4.32007 54.7214 4.43405 56.1498 4.75653 57.5032C6.04922 62.9196 10.6834 67.1493 16.5353 67.6606Z" fill="#6A68CE"/>
<path d="M48.7829 96.4457C57.298 96.001 63.8393 88.7366 63.3917 80.2271C62.9441 71.7149 55.6801 65.1758 47.1678 65.6232C38.6527 66.0706 32.1114 73.3323 32.559 81.8418C33.0066 90.354 40.2679 96.8931 48.7829 96.4457Z" fill="#1B1944"/>
<path d="M48.6161 93.2827C55.3826 92.927 60.5812 87.1577 60.2281 80.3907C59.8723 73.6265 54.101 68.4296 47.3318 68.7826C40.5653 69.1383 35.3668 74.9076 35.7199 81.6746C36.0757 88.4388 41.8469 93.6356 48.6161 93.2827Z" fill="white"/>
<path d="M52.2774 85.5375C52.0883 85.5375 51.8965 85.4763 51.7381 85.3485L47.4235 81.9192C47.2873 81.8108 47.1872 81.6635 47.1344 81.4967L44.9466 74.4713C44.8048 74.0128 45.0606 73.5264 45.5193 73.3819C45.9779 73.2374 46.4644 73.4959 46.609 73.9544L48.7162 80.7242L52.8222 83.9868C53.1975 84.2869 53.2615 84.8316 52.9612 85.2068C52.7889 85.4235 52.5359 85.5347 52.2801 85.5347L52.2774 85.5375Z" fill="#F04C3A"/>
<path d="M46.3143 91.3448C46.2809 91.3448 46.2476 91.3448 46.2114 91.3392C45.7333 91.2837 45.3941 90.8529 45.4469 90.3749L45.6888 88.299C45.7444 87.821 46.1753 87.4819 46.6535 87.5347C47.1316 87.5903 47.4708 88.021 47.418 88.499L47.1761 90.575C47.1233 91.0169 46.748 91.3448 46.3143 91.3448Z" fill="#F04C3A"/>
<path d="M41.4856 80.5887C41.4522 80.5887 41.4188 80.5887 41.3827 80.5832L39.3061 80.3414C38.8279 80.2858 38.486 79.8551 38.5416 79.3771C38.5972 78.8991 39.0308 78.56 39.5062 78.6128L41.5829 78.8546C42.061 78.9102 42.403 79.3409 42.3474 79.8189C42.2945 80.2608 41.9192 80.5887 41.4856 80.5887Z" fill="#F04C3A"/>
<path d="M49.6031 74.6964C49.5698 74.6964 49.5364 74.6964 49.5003 74.6908C49.0221 74.6352 48.6829 74.2045 48.7358 73.7265L48.9776 71.6505C49.0332 71.1725 49.4669 70.8335 49.9423 70.8863C50.4204 70.9419 50.7596 71.3726 50.7068 71.8506L50.4649 73.9266C50.4121 74.3684 50.0368 74.6964 49.6031 74.6964Z" fill="#F04C3A"/>
<path d="M58.1403 83.8754C58.107 83.8754 58.0736 83.8754 58.0375 83.8698L55.9608 83.628C55.4827 83.5724 55.1435 83.1417 55.1963 82.6637C55.2519 82.1857 55.6856 81.8494 56.161 81.8995L58.2376 82.1412C58.7158 82.1968 59.0549 82.6276 59.0021 83.1056C58.9493 83.5474 58.574 83.8754 58.1403 83.8754Z" fill="#F04C3A"/>
<path d="M15.0591 84.5433L4.245 55.5801L30.7409 57.8978L15.0591 84.5433Z" fill="#6A68CE"/>
<path d="M60.2142 24.0404L31.9213 33.5039L40.729 59.8188L69.0219 50.3552L60.2142 24.0404Z" fill="#F04C3A"/>
<path d="M43.7147 36.6256L39.0801 38.1758L40.5638 42.6086L45.1984 41.0584L43.7147 36.6256Z" fill="white"/>
<path d="M45.7861 42.8131L41.1515 44.3633L42.6352 48.7961L47.2698 47.2459L45.7861 42.8131Z" fill="white"/>
<path d="M47.9049 49.1431L43.2703 50.6934L44.754 55.1262L49.3886 53.576L47.9049 49.1431Z" fill="white"/>
<path d="M50.4093 34.3873L45.7747 35.9375L47.2583 40.3703L51.893 38.8201L50.4093 34.3873Z" fill="white"/>
<path d="M52.4799 40.5748L47.8452 42.125L49.3289 46.5578L53.9635 45.0076L52.4799 40.5748Z" fill="white"/>
<path d="M57.1029 32.149L52.4683 33.6992L53.952 38.132L58.5866 36.5818L57.1029 32.149Z" fill="white"/>
<path d="M59.1735 38.3326L54.5388 39.8828L56.0225 44.3156L60.6571 42.7654L59.1735 38.3326Z" fill="white"/>
<path d="M17.0719 61.5487C21.0111 61.8933 24.4833 58.9809 24.828 55.043C25.1727 51.105 22.2593 47.634 18.3201 47.2894C14.3808 46.9448 10.9087 49.8572 10.5639 53.7952C10.4944 54.5816 10.5556 55.3514 10.7307 56.0795C11.4257 58.9948 13.9221 61.2736 17.0746 61.5487" fill="white"/>
<path d="M52.3525 26.1545C52.5693 27.3578 53.6396 27.5218 54.8795 27.2856C56.1193 27.0494 57.059 26.5075 56.8421 25.3013C56.6253 24.098 55.4438 23.3115 54.2039 23.5478C52.9641 23.784 52.1356 24.9512 52.3525 26.1545Z" fill="#1B1944"/>
<path d="M40.8434 30.543L36.3538 31.3961L36.768 33.6777L41.2576 32.8273L40.8434 30.543Z" fill="#1B1944"/>
<path d="M36.6373 32.9514C36.4205 31.7481 37.3601 31.2034 38.6 30.9672C39.8398 30.7309 40.9074 30.8949 41.127 32.0982C41.3438 33.3016 40.5154 34.4688 39.2755 34.705C38.0356 34.9412 36.8542 34.1547 36.6373 32.9514Z" fill="#1B1944"/>
<path d="M36.3732 31.4983C36.5901 32.7016 37.6604 32.8656 38.9002 32.6293C40.1401 32.3931 41.0797 31.8512 40.8629 30.6451C40.646 29.4418 39.4646 28.6553 38.2247 28.8915C36.9848 29.1277 36.1564 30.2949 36.3732 31.4983Z" fill="#1B1944"/>
<path d="M52.5915 27.0002C52.3747 25.7969 53.3143 25.2522 54.5542 25.016C55.7941 24.7798 56.8616 24.9437 57.0812 26.1471C57.298 27.3504 56.4696 28.5176 55.2297 28.7538C53.9899 28.99 52.8084 28.2036 52.5915 27.0002Z" fill="#1B1944"/>
</g>
<defs>
<clipPath id="clip0_1390_2626">
<rect width="243.928" height="167.06" fill="white" transform="translate(-8 18.4492)"/>
</clipPath>
<clipPath id="clip1_1390_2626">
<rect width="102" height="85" fill="white" transform="translate(0 16)"/>
</clipPath>
</defs>
</svg>
